<?xml version="1.0" encoding="UTF-8"?>
<svg width="188px" height="90px" viewBox="0 0 188 90" version="1.1" xmlns="http://www.w3.org/2000/svg" xmlns:xlink="http://www.w3.org/1999/xlink">
    <!-- Generator: Sketch 51.1 (57501) - http://www.bohemiancoding.com/sketch -->
    <title>Red DHS Logo</title>
    <desc>Created with Sketch.</desc>
    <defs></defs>
    <g id="Red-DHS-Logo" stroke="none" stroke-width="1" fill="none" fill-rule="evenodd">
        <g id="logo" fill-rule="nonzero">
            <path d="M183.7,63.4 C185.2,63.4 186.4,62.8 187.3,62.1 L187.3,58.5 L183.7,58.5 L183.7,60 L185.6,60 L185.6,61.2 C185.1,61.5 184.5,61.7 183.9,61.7 C182.4,61.7 181.4,60.6 181.4,59 C181.4,57.6 182.5,56.4 183.8,56.4 C184.8,56.4 185.3,56.7 186,57.3 L187.2,55.9 C186.3,55.2 185.4,54.7 183.9,54.7 C181.4,54.7 179.5,56.7 179.5,59 C179.2,61.5 181,63.4 183.7,63.4 Z M170.1,63.2 L171.9,63.2 L171.9,57.9 L176,63.2 L177.6,63.2 L177.6,54.8 L175.8,54.8 L175.8,60 L171.9,54.8 L170.2,54.8 L170.2,63.2 L170.1,63.2 Z M166.2,63.2 L168,63.2 L168,54.8 L166.2,54.8 L166.2,63.2 Z M160.3,63.2 L162.1,63.2 L162.1,56.5 L164.7,56.5 L164.7,54.8 L157.7,54.8 L157.7,56.5 L160.3,56.5 L160.3,63.2 Z M150.3,63.2 L156.7,63.2 L156.7,61.6 L152.1,61.6 L152.1,59.8 L156.1,59.8 L156.1,58.2 L152.1,58.2 L152.1,56.5 L156.6,56.5 L156.6,54.9 L150.3,54.9 L150.3,63.2 Z M141.5,63.2 L143.3,63.2 L143.3,60.6 L144.3,59.6 L146.9,63.2 L149.1,63.2 L145.5,58.4 L148.9,54.8 L146.7,54.8 L143.3,58.5 L143.3,54.8 L141.5,54.8 L141.5,63.2 Z M134.7,58.9 L134.7,56.5 L136.5,56.5 C137.4,56.5 138,56.9 138,57.7 C138,58.4 137.5,58.9 136.6,58.9 L134.7,58.9 Z M132.8,63.2 L134.6,63.2 L134.6,60.5 L136,60.5 L137.8,63.2 L140,63.2 L137.9,60.2 C139,59.8 139.7,59 139.7,57.6 C139.7,56.8 139.4,56.1 139,55.7 C138.4,55.1 137.6,54.8 136.6,54.8 L132.8,54.8 L132.8,63.2 Z M126,59.7 L127.1,57 L128.2,59.7 L126,59.7 Z M122.6,63.2 L124.5,63.2 L125.3,61.3 L128.9,61.3 L129.7,63.2 L131.6,63.2 L128,54.7 L126.3,54.7 L122.6,63.2 Z M112.9,63.2 L114.7,63.2 L114.7,57.8 L117,61.4 L119.4,57.8 L119.4,63.3 L121.2,63.3 L121.2,54.9 L119.2,54.9 L117,58.5 L114.8,54.9 L112.8,54.9 L112.8,63.2 L112.9,63.2 Z" id="Shape" fill="#EE402F"></path>
            <path d="M162,48.8 L163.8,48.8 L163.8,45.4 L167.2,45.4 L167.2,48.8 L169,48.8 L169,40.4 L167.2,40.4 L167.2,43.7 L163.8,43.7 L163.8,40.4 L162,40.4 L162,48.8 Z M156.2,48.8 L158,48.8 L158,42.1 L160.6,42.1 L160.6,40.4 L153.6,40.4 L153.6,42.1 L156.2,42.1 L156.2,48.8 Z M143,48.9 L144.6,48.9 L146.5,43.4 L148.4,48.9 L150,48.9 L152.9,40.4 L151,40.4 L149.3,46.1 L147.4,40.4 L145.8,40.4 L143.9,46.1 L142.2,40.4 L140.2,40.4 L143,48.9 Z M135.1,47.3 C133.6,47.3 132.6,46.1 132.6,44.7 C132.6,43.3 133.6,42.1 135.1,42.1 C136.6,42.1 137.6,43.3 137.6,44.7 C137.7,46.1 136.6,47.3 135.1,47.3 Z M135.1,49 C137.7,49 139.6,47 139.6,44.7 C139.6,42.3 137.7,40.4 135.1,40.4 C132.5,40.4 130.6,42.4 130.6,44.7 C130.7,47 132.5,49 135.1,49 Z M124.2,44.5 L124.2,42.1 L126,42.1 C126.9,42.1 127.5,42.5 127.5,43.3 C127.5,44 127,44.5 126.1,44.5 L124.2,44.5 Z M122.4,48.8 L124.2,48.8 L124.2,46.1 L125.6,46.1 L127.4,48.8 L129.6,48.8 L127.5,45.8 C128.6,45.4 129.3,44.6 129.3,43.2 C129.3,42.4 129,41.7 128.6,41.3 C128,40.7 127.2,40.4 126.2,40.4 L122.4,40.4 L122.4,48.8 Z M117,49 C118.5,49 119.7,48.4 120.6,47.7 L120.6,44 L117,44 L117,45.6 L118.9,45.6 L118.9,46.8 C118.4,47.1 117.8,47.3 117.2,47.3 C115.7,47.3 114.7,46.2 114.7,44.6 C114.7,43.2 115.8,42 117.1,42 C118.1,42 118.6,42.3 119.3,42.9 L120.5,41.5 C119.6,40.8 118.7,40.3 117.2,40.3 C114.7,40.3 112.8,42.3 112.8,44.6 C112.6,47.1 114.4,49 117,49 Z" id="Shape" fill="#EE402F"></path>
            <path d="M156,34.4 L162,34.4 L162,32.7 L157.8,32.7 L157.8,26 L156,26 L156,34.4 Z M149.1,30.9 L150.2,28.2 L151.3,30.9 L149.1,30.9 Z M145.8,34.4 L147.7,34.4 L148.5,32.5 L152.1,32.5 L152.9,34.4 L154.8,34.4 L151.2,25.9 L149.5,25.9 L145.8,34.4 Z M141.8,34.4 L143.6,34.4 L143.6,27.7 L146.2,27.7 L146.2,26 L139.2,26 L139.2,27.7 L141.8,27.7 L141.8,34.4 Z M135.9,34.4 L137.7,34.4 L137.7,26 L135.9,26 L135.9,34.4 Z M130.4,34.6 C131.9,34.6 133.1,34 134,33.3 L134,29.7 L130.4,29.7 L130.4,31.3 L132.3,31.3 L132.3,32.5 C131.8,32.8 131.2,33 130.6,33 C129.1,33 128.1,31.9 128.1,30.3 C128.1,28.9 129.2,27.7 130.5,27.7 C131.5,27.7 132,28 132.7,28.6 L133.9,27.2 C133,26.5 132.1,26 130.6,26 C128.1,26 126.2,28 126.2,30.3 C126,32.7 127.8,34.6 130.4,34.6 Z M122.4,34.4 L124.2,34.4 L124.2,26 L122.4,26 L122.4,34.4 Z M114.8,32.8 L114.8,27.7 L116.2,27.7 C117.7,27.7 118.7,28.7 118.7,30.2 C118.7,31.7 117.7,32.7 116.2,32.7 L114.8,32.7 L114.8,32.8 Z M112.9,34.4 L116.2,34.4 C118.8,34.4 120.7,32.6 120.7,30.2 C120.7,27.8 118.9,26 116.2,26 L112.9,26 L112.9,34.4 Z" id="Shape" fill="#EE402F"></path>
            <path d="M90,45 C90,69.9 69.9,90 45,90 C20.1,90 0,69.9 0,45 C0,20.1 20.1,0 45,0 C69.9,0 90,20.1 90,45 Z M27.3,53.5 L23.8,57 L19.5,52.7 L14.9,57.3 L28.1,70.5 L32.7,65.9 L28.4,61.6 L31.9,58.1 L36.2,62.3 L40.8,57.7 L27.7,44.6 L23.1,49.2 L27.3,53.5 Z M36.3,35.5 C32.5,39.3 32.5,45.4 36.3,49.2 C40.1,53 46.2,53 50,49.2 C53.8,45.4 53.8,39.3 50,35.5 C46.2,31.7 40,31.7 36.3,35.5 Z M45.3,44.5 C44.1,45.7 42.1,45.7 40.9,44.5 C39.7,43.3 39.7,41.3 40.9,40.1 C42.1,38.9 44.1,38.9 45.3,40.1 C46.5,41.3 46.5,43.3 45.3,44.5 Z M57.3,14.9 L45,27.2 L49.7,31.8 L53.5,28 L62,36.5 L66.6,31.9 L58.1,23.4 L61.9,19.5 L57.3,14.9 Z M42.2,71.4 C43.3,71.3 44.3,70.8 45.1,69.9 C46.3,68.8 46.4,67.4 45.5,66.5 C44.6,65.7 43.6,66 42.3,66.8 C41.5,67.3 41.2,67.4 41,67.2 C40.9,67 40.9,66.7 41.2,66.4 C41.7,66 42.3,65.7 43,65.6 L42.7,64.1 C41.8,64.2 41,64.6 40.2,65.4 C39.1,66.5 39,67.8 39.9,68.7 C40.9,69.6 41.9,69.2 43.1,68.4 C43.9,68 44.1,67.9 44.3,68.1 C44.5,68.3 44.4,68.6 44.1,68.9 C43.5,69.4 42.8,69.7 42,69.8 L42.2,71.4 Z M46,59.6 L48.8,66.3 L50.1,65 L49.6,63.8 L51.4,62 L52.4,62.5 L53.8,61.1 L47.2,58.4 L46,59.6 Z M50,61.3 L49,62.3 L48.2,60.5 L50,61.3 Z M53.7,57.2 C55.2,58.6 56.7,58.5 58,57.2 C59.3,55.9 59.5,54.4 58,52.9 L55.4,50.3 L54.1,51.6 L56.7,54.2 C57.3,54.8 57.3,55.5 56.8,56 C56.3,56.5 55.7,56.6 55,55.9 L52.4,53.3 L51.1,54.6 L53.7,57.2 Z M60,50.3 C61.4,51.7 63.5,51.7 64.7,50.2 C65.7,49.2 65.9,48.1 65.7,47.1 L64,47.4 C64,48 64,48.5 63.5,49 C62.9,49.7 61.9,49.6 61.2,48.9 C60.5,48.3 60.5,47.2 61.1,46.6 C61.6,46.1 62.1,46 62.7,46.1 L62.9,44.4 C62,44.2 60.9,44.5 60,45.4 C58.6,46.8 58.6,48.9 60,50.3 Z M64.3,41.4 L69,46 L72.7,42.2 L71.6,41.2 L69.1,43.6 L68.4,42.9 L70.6,40.7 L69.6,39.7 L67.4,41.9 L66.7,41.2 L69.1,38.7 L68.1,37.6 L64.3,41.4 Z" id="Hot-Sauce-Circle" fill="#ED402E"></path>
        </g>
    </g>
</svg>