<svg id="Layer_1" data-name="Layer 1" xmlns="http://www.w3.org/2000/svg" xmlns:xlink="http://www.w3.org/1999/xlink" viewBox="0 0 30 30"><defs><style>.cls-1{fill:#6e46ff;}.cls-16,.cls-2{fill:#160c65;}.cls-3{clip-path:url(#clip-path);}.cls-4{fill:#ff8e88;}.cls-5{fill:#821a1a;}.cls-6{fill:#c95555;}.cls-10,.cls-12,.cls-15,.cls-17,.cls-7,.cls-9{fill:none;}.cls-10,.cls-7{stroke:#160c65;}.cls-10,.cls-12,.cls-7,.cls-9{stroke-linecap:round;stroke-linejoin:round;}.cls-7{stroke-width:0.46px;}.cls-8{fill:#fff;}.cls-9{stroke:#c95555;stroke-width:0.37px;}.cls-10{stroke-width:0.77px;}.cls-11{clip-path:url(#clip-path-2);}.cls-12{stroke:#6021e8;stroke-width:0.15px;}.cls-13,.cls-14{fill:#6021e8;}.cls-14,.cls-15{stroke:#6e46ff;stroke-width:0.16px;}.cls-14,.cls-15,.cls-17{stroke-miterlimit:10;}.cls-16{opacity:0.54;}.cls-17{stroke:#fff;}</style><clipPath id="clip-path"><circle class="cls-1" cx="15" cy="15" r="14.9"/></clipPath><clipPath id="clip-path-2"><path class="cls-2" d="M16.78,17.15H13.6a.16.16,0,0,0-.16.19,1.54,1.54,0,0,0,1.75,1.21,1.6,1.6,0,0,0,1.74-1.21A.15.15,0,0,0,16.78,17.15Z"/></clipPath></defs><circle class="cls-1" cx="15" cy="15" r="14.9"/><g class="cls-3"><path class="cls-4" d="M15,26.65h0c-2.29,0-4.15-1.31-4.15-3.57V18.61h8.3v4.47C19.15,25.34,17.29,26.65,15,26.65Z"/><path class="cls-5" d="M10.85,19s.37,4.74,8.3,3.59V18.88Z"/><path class="cls-2" d="M22.29,13.16a8.24,8.24,0,0,0,1-3.18,3.58,3.58,0,0,0-1.19-3c-.57-.45-1.37-.76-1.51-1.46a5.31,5.31,0,0,0,.17,4C21.29,10.75,22.13,11.79,22.29,13.16Z"/><path class="cls-2" d="M7.68,13V10.66A7.42,7.42,0,0,1,15.1,3.24h0a7.43,7.43,0,0,1,7.43,7.42V13"/><circle class="cls-4" cx="21.27" cy="14.67" r="2.37"/><circle class="cls-6" cx="21.48" cy="14.33" r="1.22"/><circle class="cls-4" cx="8.93" cy="14.64" r="2.37"/><circle class="cls-6" cx="8.93" cy="14.29" r="1.22"/><path class="cls-4" d="M9.52,16.7l-.59-5.43A6.17,6.17,0,0,1,15.1,5.1h0a6.17,6.17,0,0,1,6.17,6.17l-.54,5.6c0,1.7-3.9,4.17-5.63,4.17C12.92,21,9.52,18.4,9.52,16.7Z"/><path class="cls-7" d="M14.21,12.73v2.84a.86.86,0,0,0,.95.74c.95,0,.95-.74.95-.74V12.73"/><circle class="cls-8" cx="12.48" cy="12.73" r="1.93"/><circle class="cls-8" cx="17.81" cy="12.74" r="1.93"/><circle class="cls-2" cx="17.81" cy="12.73" r="1.16"/><path class="cls-5" d="M19.74,12.73a1.94,1.94,0,1,0-3.87,0s.21-1,1.94-1S19.74,12.73,19.74,12.73Z"/><circle class="cls-2" cx="12.48" cy="12.73" r="1.16"/><path class="cls-5" d="M14.41,12.73a1.93,1.93,0,1,0-3.86,0s.2-1,1.93-1S14.41,12.73,14.41,12.73Z"/><path class="cls-4" d="M11.2,19.27A13.1,13.1,0,0,1,13,20.84c.59.8,3.66.94,4.27,0A8.45,8.45,0,0,1,19,19.27Z"/><path class="cls-9" d="M14.14,19.52a2.65,2.65,0,0,1,2.42,0"/><path class="cls-10" d="M17.11,9.35l1.6.13"/><path class="cls-10" d="M11.32,9.23c.64-.07,1.26-.07,1.89-.14"/><path class="cls-5" d="M18.57,7.76A1.25,1.25,0,0,0,17.45,6c-1.5-.21-3,1.2-3.44,1.45s-2,.3-2-.59,1.51-2.37,3.63-1.95S20.52,5.9,18.57,7.76Z"/><path class="cls-2" d="M18.65,7.61a1.81,1.81,0,0,0-1-1.89,2.42,2.42,0,0,0-2.14.15c-.66.34-.88,1.17-1.88,1.93-.6.45-3.15,1.54-3.93.29-.35-.54,0-1.29.43-1.78a6.36,6.36,0,0,1,4.52-1.72,6.68,6.68,0,0,1,2.88.4A1.93,1.93,0,0,1,18.65,7.61Z"/><path class="cls-2" d="M9.17,13.52h0a.69.69,0,0,0,.69-.72c0-.43-.06-1-.06-1.49a4.94,4.94,0,0,1,.69-2.55l-1.85.35Z"/><path class="cls-2" d="M10.91,8.53c-.62.18-1,1.57-1.07,2.13A1.79,1.79,0,0,1,8.64,8.9a4.16,4.16,0,0,1,.69-2.19A1.35,1.35,0,0,1,10,6c.22-.08.81.23.72.49A1.78,1.78,0,0,0,10.91,8.53Z"/><path class="cls-2" d="M17.91,5.53a1.61,1.61,0,0,1,.66,2.23,3.2,3.2,0,0,1,1.74,2.44c1-.71.63-2.28.06-3.34S19,5.1,17.91,5.53Z"/><path class="cls-2" d="M21.05,13.52h0a.68.68,0,0,1-.68-.72c0-.43.05-1,.06-1.49a5.06,5.06,0,0,0-.69-2.55l1.85.35Z"/><path class="cls-2" d="M17,2.33c-2.75,0-4.79,1.52-6.46,2.41a5.78,5.78,0,0,0-2.23,1.8,4.65,4.65,0,0,0-.82,2.94c0,1.09.15,2,.24,3.15a3.79,3.79,0,0,0,1.08-2.25,16.77,16.77,0,0,1,2-5.5,14.27,14.27,0,0,1,3.92-1,7.33,7.33,0,0,1,4.45,1c.52.33,1.23,1.3,1.83,1.47C21.81,5.4,20.52,2.33,17,2.33Z"/><path class="cls-2" d="M16.78,17.15H13.6a.16.16,0,0,0-.16.19,1.54,1.54,0,0,0,1.75,1.21,1.6,1.6,0,0,0,1.74-1.21A.15.15,0,0,0,16.78,17.15Z"/><g class="cls-11"><rect class="cls-8" x="13.73" y="16.82" width="2.91" height="0.75" rx="0.26"/></g><path class="cls-12" d="M18.62,7.71c.8-.53,1.65-1,2.42-1.48"/><path class="cls-13" d="M10.34,21.27S3.87,23.1,3.28,24.36,1.21,29.9,1.21,29.9H30s-1.58-4.85-2.63-5.74C26,23,20,21.27,20,21.27l-5,5.31Z"/><path class="cls-5" d="M16.28,24.47c-.15.13,0,.55.31,1.1S17.86,23.09,16.28,24.47Z"/><path class="cls-5" d="M13.77,24.36c.2.18.16.81,0,1.38S12.24,23,13.77,24.36Z"/><path class="cls-14" d="M10.54,21.26a8.58,8.58,0,0,0,4.67,4.36,6.4,6.4,0,0,0,4.14-4.69l1,.79S20,25.15,15.21,27a8.22,8.22,0,0,1-5.56-4.5Z"/><path class="cls-15" d="M13,26.09c.35-.43.61-.7,1-1.13"/><path class="cls-15" d="M15.2,25.59,15.12,27"/><path class="cls-15" d="M15.7,25.42l.11,1.27"/><path class="cls-15" d="M16.16,25.2c.11.42.27.79.35,1.2"/><path class="cls-15" d="M16.62,24.93c.14.29.41.69.58,1.06"/><path class="cls-15" d="M14.71,25.39a10.07,10.07,0,0,1-.29,1.43"/><path class="cls-15" d="M14.28,25.22c-.24.51-.47.85-.67,1.28"/><path class="cls-15" d="M17.09,24.67a7.79,7.79,0,0,0,.76.86"/><path class="cls-16" d="M10.72,27.71a2.57,2.57,0,0,0,2.4-1.42c.79-1.4.85-1.78.65-1.93C12.85,23.68,10.72,27.71,10.72,27.71Z"/><path class="cls-16" d="M17.68,26.78a4.46,4.46,0,0,0,2.76.88s.76-4.95,1.26-5.27a2.64,2.64,0,0,1,1.63-.05l-2.62-1s-3.4,2.18-4.43,3.09C16,24.71,16.8,26.19,17.68,26.78Z"/><path class="cls-8" d="M19.11,20.51c-.12,1.79-2.84,4-2.84,4s1.07-.31,1.46,1.2c.43,1.66,2.71,2,2.71,2l.64-6.21A4.51,4.51,0,0,1,20,20.34C19.58,19.75,19.14,20.05,19.11,20.51Z"/><path class="cls-8" d="M11,20.93c0,1.27,2.81,3.43,2.81,3.43S13,24.09,12.72,26a2.3,2.3,0,0,1-2,1.76l-2-6a2.74,2.74,0,0,0,1.49-1C10.41,20.38,11,20.06,11,20.93Z"/></g><rect class="cls-17" x="-180.84" y="-57.31" width="381.34" height="373.61"/></svg>