<?xml version="1.0" encoding="UTF-8"?>
<svg width="103px" height="13px" viewBox="0 0 103 13" version="1.1" xmlns="http://www.w3.org/2000/svg" xmlns:xlink="http://www.w3.org/1999/xlink">
    <!-- Generator: sketchtool 63.1 (101010) - https://sketch.com -->
    <title>E2A518CA-D6C4-4810-B6FE-57FB18996819</title>
    <desc>Created with sketchtool.</desc>
    <g id="Final-designs" stroke="none" stroke-width="1" fill="none" fill-rule="evenodd">
        <g id="Homepage" transform="translate(-1202.000000, -6149.000000)">
            <g id="Group-39" transform="translate(136.000000, 6130.000000)">
                <g id="Group-11" transform="translate(988.000000, 16.000000)">
                    <g id="Logo" transform="translate(78.000000, 4.000000)">
                        <rect id="Rectangle" fill="#FFF337" x="0" y="0.785714286" width="102.142857" height="4.71428571"></rect>
                        <g id="Group" transform="translate(3.928571, 0.000000)">
                            <path d="M4.80142617,6.23926795 L2.19539344,6.23926795 L2.19539344,8.57692565 L4.87434769,8.57692565 C5.87018217,8.57692565 6.46996165,8.21252329 6.46996165,7.42322115 L6.46996165,7.39249981 C6.46996165,6.67929208 5.95768799,6.23926795 4.80142617,6.23926795 L4.80142617,6.23926795 Z M5.89935077,3.14208419 C5.89935077,2.4440008 5.37249281,2.04934973 4.420867,2.04934973 L2.19539344,2.04934973 L2.19539344,4.29626132 L4.27456821,4.29626132 C5.26949117,4.29626132 5.89935077,3.96210766 5.89935077,3.17280553 L5.89935077,3.14208419 Z M0,0 L4.7572175,0 C5.92897514,0 6.85097658,0.333681022 7.43617176,0.941018293 C7.90514827,1.42641547 8.13895288,2.01862839 8.13895288,2.74743312 L8.13895288,2.77815446 C8.13895288,3.97723201 7.5245891,4.64506669 6.7921836,5.06996647 C7.97806978,5.54071193 8.71001952,6.2543923 8.71001952,7.68128041 L8.71001952,7.71152912 C8.71001952,9.65500839 7.18732708,10.6262754 4.87434769,10.6262754 L0,10.6262754 L0,0 Z" id="Fill-4" fill="#000000"></path>
                            <path d="M4.80142617,6.23926795 L2.19539344,6.23926795 L2.19539344,8.57692565 L4.87434769,8.57692565 C5.87018217,8.57692565 6.46996165,8.21252329 6.46996165,7.42322115 L6.46996165,7.39249981 C6.46996165,6.67929208 5.95768799,6.23926795 4.80142617,6.23926795 Z M5.89935077,3.14208419 C5.89935077,2.4440008 5.37249281,2.04934973 4.420867,2.04934973 L2.19539344,2.04934973 L2.19539344,4.29626132 L4.27456821,4.29626132 C5.26949117,4.29626132 5.89935077,3.96210766 5.89935077,3.17280553 L5.89935077,3.14208419 Z M0,0 L4.7572175,0 C5.92897514,0 6.85097658,0.333681022 7.43617176,0.941018293 C7.90514827,1.42641547 8.13895288,2.01862839 8.13895288,2.74743312 L8.13895288,2.77815446 C8.13895288,3.97723201 7.5245891,4.64506669 6.7921836,5.06996647 C7.97806978,5.54071193 8.71001952,6.2543923 8.71001952,7.68128041 L8.71001952,7.71152912 C8.71001952,9.65500839 7.18732708,10.6262754 4.87434769,10.6262754 L0,10.6262754 L0,0 Z" id="Stroke-6" stroke="#000000" stroke-width="0.650000036"></path>
                            <path d="M18.6808543,5.16118522 C19.7787789,5.16118522 20.4081828,4.55432058 20.4081828,3.65820271 L20.4081828,3.627954 C20.4081828,2.6264383 19.735026,2.10984714 18.6366457,2.10984714 L16.3970436,2.10984714 L16.3970436,5.16118522 L18.6808543,5.16118522 Z M14.1428571,0 L18.8271531,0 C20.1301695,0 21.1401325,0.379526715 21.8132893,1.0776101 C22.3843559,1.66982302 22.6919936,2.50497085 22.6919936,3.50648655 L22.6919936,3.53673525 C22.6919936,5.25240397 21.7991607,6.3304867 20.4956886,6.83100823 L22.9996312,10.6262754 L20.3639741,10.6262754 L18.1685807,7.2256593 L16.3970436,7.2256593 L16.3970436,10.6262754 L14.1428571,10.6262754 L14.1428571,0 Z" id="Fill-8" fill="#000000"></path>
                            <path d="M18.6808543,5.16118522 C19.7787789,5.16118522 20.4081828,4.55432058 20.4081828,3.65820271 L20.4081828,3.627954 C20.4081828,2.6264383 19.735026,2.10984714 18.6366457,2.10984714 L16.3970436,2.10984714 L16.3970436,5.16118522 L18.6808543,5.16118522 Z M14.1428571,0 L18.8271531,0 C20.1301695,0 21.1401325,0.379526715 21.8132893,1.0776101 C22.3843559,1.66982302 22.6919936,2.50497085 22.6919936,3.50648655 L22.6919936,3.53673525 C22.6919936,5.25240397 21.7991607,6.3304867 20.4956886,6.83100823 L22.9996312,10.6262754 L20.3639741,10.6262754 L18.1685807,7.2256593 L16.3970436,7.2256593 L16.3970436,10.6262754 L14.1428571,10.6262754 L14.1428571,0 Z" id="Stroke-10" stroke="#000000" stroke-width="0.650000036"></path>
                            <path d="M29.8571429,6.07242744 L29.8571429,0 L32.1113293,0 L32.1113293,6.0114574 C32.1113293,7.74225046 32.9458249,8.6378957 34.3222185,8.6378957 C35.6977007,8.6378957 36.5321963,7.7729718 36.5321963,6.08755179 L36.5321963,0 L38.7868384,0 L38.7868384,5.99633304 C38.7868384,9.21451163 37.0449257,10.7935885 34.2925942,10.7935885 C31.5402626,10.7935885 29.8571429,9.19938727 29.8571429,6.07242744" id="Fill-12" fill="#000000"></path>
                            <path d="M29.8571429,6.07242744 L29.8571429,0 L32.1113293,0 L32.1113293,6.0114574 C32.1113293,7.74225046 32.9458249,8.6378957 34.3222185,8.6378957 C35.6977007,8.6378957 36.5321963,7.7729718 36.5321963,6.08755179 L36.5321963,0 L38.7868384,0 L38.7868384,5.99633304 C38.7868384,9.21451163 37.0449257,10.7935885 34.2925942,10.7935885 C31.5402626,10.7935885 29.8571429,9.19938727 29.8571429,6.07242744 Z" id="Stroke-14" stroke="#000000" stroke-width="0.650000036"></path>
                            <path d="M44.7857143,5.52558758 L44.7857143,5.49533887 C44.7857143,2.47424951 46.9815635,0 50.1290385,0 C52.0614587,0 53.2177205,0.66783468 54.1693463,1.63910168 L52.7346155,3.35477039 C51.9443285,2.61084131 51.1390015,2.1552202 50.1139984,2.1552202 C48.38667,2.1552202 47.1429023,3.64355099 47.1429023,5.46461753 L47.1429023,5.49533887 C47.1429023,7.31687805 48.3579571,8.83498491 50.1139984,8.83498491 C51.2857561,8.83498491 52.0026657,8.34958773 52.8079927,7.59006166 L54.2427236,9.09304417 C53.1885519,10.261873 52.01725,10.9906777 50.0410769,10.9906777 C47.0253164,10.9906777 44.7857143,8.57692565 44.7857143,5.52558758" id="Fill-16" fill="#000000"></path>
                            <path d="M44.7857143,5.52558758 L44.7857143,5.49533887 C44.7857143,2.47424951 46.9815635,0 50.1290385,0 C52.0614587,0 53.2177205,0.66783468 54.1693463,1.63910168 L52.7346155,3.35477039 C51.9443285,2.61084131 51.1390015,2.1552202 50.1139984,2.1552202 C48.38667,2.1552202 47.1429023,3.64355099 47.1429023,5.46461753 L47.1429023,5.49533887 C47.1429023,7.31687805 48.3579571,8.83498491 50.1139984,8.83498491 C51.2857561,8.83498491 52.0026657,8.34958773 52.8079927,7.59006166 L54.2427236,9.09304417 C53.1885519,10.261873 52.01725,10.9906777 50.0410769,10.9906777 C47.0253164,10.9906777 44.7857143,8.57692565 44.7857143,5.52558758 Z" id="Stroke-18" stroke="#000000" stroke-width="0.650000036"></path>
                            <polygon id="Fill-20" fill="#000000" points="60.5 10.6262754 62.7541864 10.6262754 62.7541864 0 60.5 0"></polygon>
                            <polygon id="Stroke-22" stroke="#000000" stroke-width="0.650000036" points="60.5 10.6262754 62.7541864 10.6262754 62.7541864 0 60.5 0"></polygon>
                            <path d="M73.6808543,5.16118522 C74.7787789,5.16118522 75.4081828,4.55432058 75.4081828,3.65820271 L75.4081828,3.627954 C75.4081828,2.6264383 74.735026,2.10984714 73.6366457,2.10984714 L71.3970436,2.10984714 L71.3970436,5.16118522 L73.6808543,5.16118522 Z M69.1428571,0 L73.8271531,0 C75.1301695,0 76.1401325,0.379526715 76.813745,1.0776101 C77.3843559,1.66982302 77.6919936,2.50497085 77.6919936,3.50648655 L77.6919936,3.53673525 C77.6919936,5.25240397 76.7991607,6.3304867 75.4956886,6.83100823 L77.9996312,10.6262754 L75.3639741,10.6262754 L73.1685807,7.2256593 L71.3970436,7.2256593 L71.3970436,10.6262754 L69.1428571,10.6262754 L69.1428571,0 Z" id="Fill-23" fill="#000000"></path>
                            <path d="M73.6808543,5.16118522 C74.7787789,5.16118522 75.4081828,4.55432058 75.4081828,3.65820271 L75.4081828,3.627954 C75.4081828,2.6264383 74.735026,2.10984714 73.6366457,2.10984714 L71.3970436,2.10984714 L71.3970436,5.16118522 L73.6808543,5.16118522 Z M69.1428571,0 L73.8271531,0 C75.1301695,0 76.1401325,0.379526715 76.813745,1.0776101 C77.3843559,1.66982302 77.6919936,2.50497085 77.6919936,3.50648655 L77.6919936,3.53673525 C77.6919936,5.25240397 76.7991607,6.3304867 75.4956886,6.83100823 L77.9996312,10.6262754 L75.3639741,10.6262754 L73.1685807,7.2256593 L71.3970436,7.2256593 L71.3970436,10.6262754 L69.1428571,10.6262754 L69.1428571,0 Z" id="Stroke-24" stroke="#000000" stroke-width="0.650000036"></path>
                            <path d="M90.8348993,6.2543923 L89.4735457,2.80840316 L88.1117364,6.2543923 L90.8348993,6.2543923 Z M88.4635827,0 L90.541846,0 L94.9335444,10.7023698 L92.5768121,10.7023698 L91.6402263,8.31886639 L87.3068652,8.31886639 L86.3698237,10.7023698 L84.0714286,10.7023698 L88.4635827,0 Z" id="Fill-25" fill="#000000"></path>
                            <path d="M90.8348993,6.2543923 L89.4735457,2.80840316 L88.1117364,6.2543923 L90.8348993,6.2543923 Z M88.4635827,0 L90.541846,0 L94.9335444,10.7023698 L92.5768121,10.7023698 L91.6402263,8.31886639 L87.3068652,8.31886639 L86.3698237,10.7023698 L84.0714286,10.7023698 L88.4635827,0 Z" id="Stroke-26" stroke="#000000" stroke-width="0.650000036"></path>
                        </g>
                    </g>
                </g>
            </g>
        </g>
    </g>
</svg>