<svg width="37" height="37" viewBox="0 0 37 37" fill="none" xmlns="http://www.w3.org/2000/svg">
<g clip-path="url(#clip0_511_2)">
<path d="M30.1504 12.2405V26.2344C30.1504 27.3008 29.267 28.1683 28.1709 28.1683H19.8227L13.5975 31.8826C13.061 32.2034 12.3765 31.8329 12.3626 31.2183L12.3117 28.1638H8.83375C7.74225 28.1638 6.85425 27.3008 6.85425 26.2299V12.2359C6.85425 11.1696 7.73762 10.302 8.83375 10.302H28.1662C29.2531 10.302 30.1457 11.1696 30.1457 12.2359L30.1504 12.2405Z" fill="#F8ABAB"/>
<path d="M34.817 15.1504C35.5478 13.2662 35.0714 13.7271 37.0046 13.0131C35.076 12.2992 35.5478 12.7646 34.817 10.8759C34.0863 12.7601 34.5626 12.2992 32.6294 13.0131C34.595 13.7271 34.1233 13.2616 34.817 15.1504Z" fill="#F9ACAC"/>
<path d="M1.74825 20.1433C2.331 18.6477 1.96563 19.0046 3.4965 18.4353C1.96563 17.866 2.331 18.2229 1.74825 16.7273C1.1655 18.2229 1.53087 17.866 0 18.4353C1.53087 19.0046 1.1655 18.6477 1.74825 20.1433Z" fill="#CBC1C5"/>
<path d="M30.5112 8.69336C31.4593 6.1675 30.8395 6.77298 33.4249 5.84668C30.8765 4.92038 31.4593 5.52586 30.5112 3C29.563 5.48972 30.1828 4.92038 27.5974 5.84668C30.1828 6.80913 29.563 6.20365 30.5112 8.69336Z" fill="#0FB8BC"/>
<path d="M20.4564 16.646L23.9066 17.0392C24.42 17.0979 24.642 17.7034 24.2812 18.0649L21.8624 20.5004L22.5469 23.826C22.6486 24.3185 22.126 24.7116 21.6635 24.4902L18.5462 22.9946L15.5215 24.6574C15.0729 24.9059 14.5271 24.5399 14.6011 24.0429L15.0914 20.6856L12.5384 18.3857C12.1591 18.0423 12.3441 17.4278 12.8529 17.3419L16.2754 16.759L17.723 13.6774C17.9404 13.221 18.5971 13.2029 18.8376 13.6457L20.461 16.646H20.4564Z" fill="#D73616"/>
</g>
<defs>
<clipPath id="clip0_511_2">
<rect width="37" height="37" fill="white"/>
</clipPath>
</defs>
</svg>
