<svg width="37" height="37" viewBox="0 0 37 37" fill="none" xmlns="http://www.w3.org/2000/svg">
<path d="M26.2396 3.65747H10.7606C9.56738 3.65747 8.6001 4.6075 8.6001 5.77942V32.7016C8.6001 33.8736 9.56738 34.8236 10.7606 34.8236H26.2396C27.4328 34.8236 28.4001 33.8736 28.4001 32.7016V5.77942C28.4001 4.6075 27.4328 3.65747 26.2396 3.65747Z" fill="#820000"/>
<path d="M26.2396 2.17651H10.7606C9.56738 2.17651 8.6001 3.12654 8.6001 4.29846V31.2207C8.6001 32.3926 9.56738 33.3426 10.7606 33.3426H26.2396C27.4328 33.3426 28.4001 32.3926 28.4001 31.2207V4.29846C28.4001 3.12654 27.4328 2.17651 26.2396 2.17651Z" fill="#F45923"/>
<path d="M20.3614 30.6593H16.6436C16.2782 30.6593 15.9819 30.9502 15.9819 31.3091V31.3489C15.9819 31.7078 16.2782 31.9988 16.6436 31.9988H20.3614C20.7268 31.9988 21.0231 31.7078 21.0231 31.3489V31.3091C21.0231 30.9502 20.7268 30.6593 20.3614 30.6593Z" fill="#DC3718"/>
<path d="M26.8562 4.43111V27.6001C26.8562 28.5904 26.037 29.3949 25.0288 29.3949H11.9804C10.9676 29.3949 10.1484 28.5904 10.1484 27.6001V4.43111C10.1484 4.0244 10.486 3.69727 10.9001 3.69727H26.1091C26.5232 3.69727 26.8562 4.0244 26.8562 4.43111Z" fill="white"/>
<path d="M26.8562 4.43111V20.6286H10.1484V4.43111C10.1484 4.0244 10.486 3.69727 10.9001 3.69727H26.1091C26.5232 3.69727 26.8562 4.0244 26.8562 4.43111Z" fill="#FFD200"/>
<path d="M26.8562 9.94812V20.6286H10.1484V13.6394L17.5796 17.0036L26.8562 9.94812Z" fill="#F18E1A"/>
<path d="M16.423 12.7641C17.5889 12.7641 18.534 11.8358 18.534 10.6908C18.534 9.54569 17.5889 8.61743 16.423 8.61743C15.2571 8.61743 14.312 9.54569 14.312 10.6908C14.312 11.8358 15.2571 12.7641 16.423 12.7641Z" fill="white"/>
<path d="M20.1588 23.8778H13.8439C13.2423 23.8778 12.7546 24.3558 12.7546 24.9454C12.7546 25.535 13.2423 26.013 13.8439 26.013H20.1588C20.7604 26.013 21.2481 25.535 21.2481 24.9454C21.2481 24.3558 20.7604 23.8778 20.1588 23.8778Z" fill="#595AF2"/>
<path d="M23.3771 21.7867H12.7546V23.0378H23.3771V21.7867Z" fill="#E7E2E4"/>
<path d="M21.5405 3.67505C20.1452 4.28069 20.3702 5.65111 18.5113 5.65111C16.8054 5.65111 16.6929 4.2409 15.4641 3.67505H21.5405Z" fill="#F45923"/>
</svg>
