<svg xmlns="http://www.w3.org/2000/svg" viewBox="0 0 28.56 30.16"><defs><style>.cls-3{fill:#6020ea}</style></defs><g id="Layer_2" data-name="Layer 2"><g id="Layer_1-2" data-name="Layer 1"><path fill="#e7e2e4" d="M23.85 7.64v22.51H0V7.64Z"/><path fill="#0fb7bb" d="M28.56 3v22.54H4.72V3Z"/><path d="M28.56 18v7.54H13.91L13.47 22l4.6-4.14.12-.13 4.5-3.73Z" class="cls-3"/><path fill="#6e46ff" d="M26.48 25.55H4.72V15.49l5.11-5.41 7.53 7.05.71.72 8.41 7.7z"/><ellipse cx="16.08" cy="8.33" fill="#ffbd1c" rx="2.61" ry="2.53"/><path d="M23.88 12.46a2.1 2.1 0 0 1-2.1-2.1v-7.3H23v7.3a.92.92 0 0 0 1.84 0V3.07a1.9 1.9 0 0 0-1.89-1.9h-.44a1.9 1.9 0 0 0-1.89 1.9H19.4A3.08 3.08 0 0 1 22.47 0h.44A3.07 3.07 0 0 1 26 3.07v7.29a2.1 2.1 0 0 1-2.12 2.1Z" class="cls-3"/></g></g></svg>