<svg xmlns="http://www.w3.org/2000/svg" width="73" height="21" viewBox="0 0 73 21"><g fill="none" fill-rule="evenodd"><path fill="#160647" fill-rule="nonzero" d="M26.65 17.2c.4 0 .77-.025 1.113-.075.341-.05.604-.1.787-.15v-8.55c.35-.2.754-.35 1.212-.45.459-.1.905-.15 1.338-.15.6 0 1.058.033 1.375.1a2.878 2.878 0 00.425-1.5c0-1.283-.908-1.925-2.725-1.925-.85 0-1.663.092-2.438.275-.774.183-1.454.45-2.037.8-.433.267-.775.58-1.025.938-.25.358-.375.779-.375 1.262V15.2c0 .783.183 1.313.55 1.588.367.274.967.412 1.8.412zm13.925.2c.95 0 1.83-.096 2.637-.287.809-.192 1.505-.471 2.088-.838.7-.417 1.05-1.042 1.05-1.875V6.675c0-.783-.183-1.312-.55-1.587-.367-.275-.967-.413-1.8-.413-.4 0-.77.025-1.112.075-.342.05-.605.1-.788.15v8.875c-.133.067-.32.133-.563.2-.241.067-.554.1-.937.1-.633 0-1.117-.146-1.45-.437-.333-.292-.5-.78-.5-1.463v-5.5c0-.783-.183-1.312-.55-1.587-.367-.275-.967-.413-1.8-.413-.4 0-.77.025-1.112.075-.342.05-.605.1-.788.15v7.275c0 .933.15 1.73.45 2.388.3.658.725 1.195 1.275 1.612.55.417 1.204.725 1.962.925.759.2 1.588.3 2.488.3zm12.825-.025c1.2 0 2.038-.2 2.513-.6.475-.4.712-.917.712-1.55 0-.317-.054-.587-.163-.812a3.056 3.056 0 00-.387-.613 5.02 5.02 0 01-1.475.225c-.5 0-.888-.092-1.163-.275-.274-.183-.412-.492-.412-.925v-4.45H55.3c.433 0 .78-.13 1.038-.387.258-.259.387-.68.387-1.263 0-.333-.046-.637-.138-.912a4.279 4.279 0 00-.287-.688h-3.275v-1.35c0-.767-.183-1.292-.55-1.575-.367-.283-.958-.425-1.775-.425-.383 0-.746.03-1.088.088a8.853 8.853 0 00-.787.162v11.1c0 1.5.396 2.583 1.188 3.25.791.667 1.92 1 3.387 1zm9.625 0c1.2 0 2.038-.2 2.512-.6.475-.4.713-.917.713-1.55 0-.317-.054-.587-.162-.812a3.056 3.056 0 00-.388-.613 5.02 5.02 0 01-1.475.225c-.5 0-.887-.092-1.162-.275-.276-.183-.413-.492-.413-.925v-4.45h2.275c.433 0 .78-.13 1.038-.387.258-.259.387-.68.387-1.263 0-.333-.046-.637-.137-.912a4.279 4.279 0 00-.288-.688H62.65v-1.35c0-.767-.183-1.292-.55-1.575-.367-.283-.958-.425-1.775-.425-.383 0-.746.03-1.088.088a8.853 8.853 0 00-.787.162v11.1c0 1.5.396 2.583 1.188 3.25.791.667 1.92 1 3.387 1zm7.6-.175c.4 0 .77-.025 1.112-.075.342-.05.605-.1.788-.15v-14.5c0-.783-.183-1.312-.55-1.587-.367-.275-.967-.413-1.8-.413-.4 0-.77.025-1.112.075-.342.05-.605.1-.788.15v14.5c0 .783.183 1.313.55 1.588.367.274.967.412 1.8.412z"/><g transform="translate(0 2)"><rect width="13" height="13" x="6" fill="#FFBF49" rx="2"/><ellipse cx="7.104" cy="7.125" fill="#6552FF" rx="7.104" ry="6.875" transform="translate(0 5)"/></g></g></svg>