<svg width="99" height="21" viewBox="0 0 99 21" fill="none" xmlns="http://www.w3.org/2000/svg">
<path d="M10.5 1.75L13.2038 7.2275L19.25 8.11125L14.875 12.3725L15.9075 18.3925L10.5 15.5488L5.0925 18.3925L6.125 12.3725L1.75 8.11125L7.79625 7.2275L10.5 1.75Z" fill="#F5C25F"/>
<path d="M30 1.75L32.7038 7.2275L38.75 8.11125L34.375 12.3725L35.4075 18.3925L30 15.5488L24.5925 18.3925L25.625 12.3725L21.25 8.11125L27.2962 7.2275L30 1.75Z" fill="#F5C25F"/>
<path d="M49.5 1.75L52.2038 7.2275L58.25 8.11125L53.875 12.3725L54.9075 18.3925L49.5 15.5488L44.0925 18.3925L45.125 12.3725L40.75 8.11125L46.7962 7.2275L49.5 1.75Z" fill="#F5C25F"/>
<path d="M69 1.75L71.7038 7.2275L77.75 8.11125L73.375 12.3725L74.4075 18.3925L69 15.5488L63.5925 18.3925L64.625 12.3725L60.25 8.11125L66.2962 7.2275L69 1.75Z" fill="#F5C25F"/>
<path d="M83.0925 18.3925L88.5 15.5488V1.75L85.7962 7.2275L79.75 8.11125L84.125 12.3725L83.0925 18.3925Z" fill="#F5C25F"/>
</svg>
