<svg xmlns="http://www.w3.org/2000/svg" viewBox="0 0 114.1 89.39"><defs><style>.cls-1{fill:#ffd200;}.cls-2{fill:#f18e1a;}.cls-3{fill:#fff;}.cls-4{fill:#e7e2e4;}.cls-5{fill:#0fb8bc;fill-rule:evenodd;}.cls-6{fill:#160c65;}</style></defs><g id="Layer_2" data-name="Layer 2"><g id="Layer_1-2" data-name="Layer 1"><rect class="cls-1" x="21.86" y="21.27" width="68.49" height="53.7"/><rect class="cls-2" x="21.86" y="21.27" width="68.49" height="12.93"/><circle class="cls-1" cx="29.3" cy="28.25" r="2.69"/><circle class="cls-1" cx="37.9" cy="28.25" r="2.69"/><circle class="cls-1" cx="46.5" cy="28.25" r="2.69"/><polygon class="cls-3" points="69.28 53.81 49.52 42.41 49.52 65.22 69.28 53.81"/><rect class="cls-4" x="2.18" y="21.28" width="6.36" height="9.29" transform="translate(-21.01 23.59) rotate(-73.26)"/><rect class="cls-4" x="8.96" y="7.84" width="6.36" height="10.95" transform="translate(-5.85 12.35) rotate(-44.56)"/><rect class="cls-4" x="21.91" y="0.57" width="6.36" height="10.18" transform="translate(-0.63 5.53) rotate(-12.42)"/><path class="cls-5" d="M67.17,73.67c5-6.31,23.79-26.11,46.29,0a2.63,2.63,0,0,1,0,3.47c-5.33,6-24.67,24.22-46.18-.12A2.63,2.63,0,0,1,67.17,73.67Z"/><circle class="cls-6" cx="90.35" cy="74.96" r="7.61"/><circle class="cls-3" cx="95.58" cy="70.7" r="1.86"/></g></g></svg>