<svg width="37" height="37" viewBox="0 0 37 37" fill="none" xmlns="http://www.w3.org/2000/svg">
<path d="M29.9027 4H2.7758C1.24277 4 0 5.26285 0 6.82065V27.2446C0 28.8024 1.24277 30.0652 2.7758 30.0652H29.9027C31.4358 30.0652 32.6785 28.8024 32.6785 27.2446V6.82065C32.6785 5.26285 31.4358 4 29.9027 4Z" fill="#FFD200"/>
<path d="M32.6785 6.82065V8.54348H0V6.82065C0 5.2663 1.24082 4 2.7758 4H29.9027C31.4323 4 32.6785 5.2663 32.6785 6.82065Z" fill="#F45923"/>
<path d="M21.431 13.5707H10.3706C7.92482 13.5707 5.94214 15.5842 5.94214 18.068C5.94214 20.5517 7.92482 22.5652 10.3706 22.5652H21.431C23.8768 22.5652 25.8595 20.5517 25.8595 18.068C25.8595 15.5842 23.8768 13.5707 21.431 13.5707Z" fill="white"/>
<path d="M10.7984 19.375C11.5546 19.375 12.1676 18.7521 12.1676 17.9837C12.1676 17.2153 11.5546 16.5924 10.7984 16.5924C10.0422 16.5924 9.4292 17.2153 9.4292 17.9837C9.4292 18.7521 10.0422 19.375 10.7984 19.375Z" fill="#F35923"/>
<path d="M15.7991 19.375C16.5553 19.375 17.1683 18.7521 17.1683 17.9837C17.1683 17.2153 16.5553 16.5924 15.7991 16.5924C15.0429 16.5924 14.4299 17.2153 14.4299 17.9837C14.4299 18.7521 15.0429 19.375 15.7991 19.375Z" fill="#F35923"/>
<path d="M21.0511 19.375C21.8072 19.375 22.4202 18.7521 22.4202 17.9837C22.4202 17.2153 21.8072 16.5924 21.0511 16.5924C20.2949 16.5924 19.6819 17.2153 19.6819 17.9837C19.6819 18.7521 20.2949 19.375 21.0511 19.375Z" fill="#F8ABAB"/>
<path d="M13.4084 22.3913L16.0987 25.5652L18.7889 22.3043L13.4084 22.3913Z" fill="white"/>
<path d="M3.6851 7.17932C4.09272 7.17932 4.42317 6.84353 4.42317 6.42932C4.42317 6.01511 4.09272 5.67932 3.6851 5.67932C3.27747 5.67932 2.94702 6.01511 2.94702 6.42932C2.94702 6.84353 3.27747 7.17932 3.6851 7.17932Z" fill="#FFD200"/>
<path d="M6.63724 7.17932C7.04487 7.17932 7.37532 6.84353 7.37532 6.42932C7.37532 6.01511 7.04487 5.67932 6.63724 5.67932C6.22962 5.67932 5.89917 6.01511 5.89917 6.42932C5.89917 6.84353 6.22962 7.17932 6.63724 7.17932Z" fill="#FFD200"/>
<path d="M9.8516 7.17932C10.2592 7.17932 10.5897 6.84353 10.5897 6.42932C10.5897 6.01511 10.2592 5.67932 9.8516 5.67932C9.44397 5.67932 9.11353 6.01511 9.11353 6.42932C9.11353 6.84353 9.44397 7.17932 9.8516 7.17932Z" fill="#FFD200"/>
<path d="M29.6353 33L32.5769 28.6467L37 25.5163L27.7581 23.6033L29.6353 33Z" fill="#595AF2"/>
<path d="M33.1566 26.9069L31.001 29.0974L34.8055 32.9634L36.9612 30.7729L33.1566 26.9069Z" fill="#595AF2"/>
</svg>
