<?xml version="1.0" encoding="UTF-8" standalone="no"?>
<!-- Created with Inkscape (http://www.inkscape.org/) -->

<svg
   xmlns:dc="http://purl.org/dc/elements/1.1/"
   xmlns:cc="http://creativecommons.org/ns#"
   xmlns:rdf="http://www.w3.org/1999/02/22-rdf-syntax-ns#"
   xmlns:svg="http://www.w3.org/2000/svg"
   xmlns="http://www.w3.org/2000/svg"
   xmlns:sodipodi="http://sodipodi.sourceforge.net/DTD/sodipodi-0.dtd"
   xmlns:inkscape="http://www.inkscape.org/namespaces/inkscape"
   width="166.3075mm"
   height="22.878344mm"
   viewBox="0 0 166.3075 22.878344"
   version="1.1"
   id="svg8"
   inkscape:version="0.92.4 (5da689c313, 2019-01-14)"
   sodipodi:docname="logo_white.svg">
  <defs
     id="defs2" />
  <sodipodi:namedview
     id="base"
     pagecolor="#ffffff"
     bordercolor="#666666"
     borderopacity="1.0"
     inkscape:pageopacity="0.0"
     inkscape:pageshadow="2"
     inkscape:zoom="1.4"
     inkscape:cx="229.6784"
     inkscape:cy="-39.318984"
     inkscape:document-units="mm"
     inkscape:current-layer="layer1"
     showgrid="false"
     fit-margin-top="0"
     fit-margin-left="0"
     fit-margin-right="0"
     fit-margin-bottom="0"
     inkscape:window-width="1920"
     inkscape:window-height="1027"
     inkscape:window-x="-8"
     inkscape:window-y="-8"
     inkscape:window-maximized="1" />
  <metadata
     id="metadata5">
    <rdf:RDF>
      <cc:Work
         rdf:about="">
        <dc:format>image/svg+xml</dc:format>
        <dc:type
           rdf:resource="http://purl.org/dc/dcmitype/StillImage" />
        <dc:title></dc:title>
      </cc:Work>
    </rdf:RDF>
  </metadata>
  <g
     inkscape:label="Layer 1"
     inkscape:groupmode="layer"
     id="layer1"
     transform="translate(-15.87601,-24.001306)">
    <g
       transform="matrix(0.35277777,0,0,-0.35277777,-49.670866,185.96158)"
       inkscape:label="ink_ext_XXXXXX"
       id="g4493"
       style="fill:#ffffff">
      <g
         transform="scale(0.1)"
         id="g4495"
         style="fill:#ffffff">
        <path
           inkscape:connector-curvature="0"
           id="path4497"
           style="fill:#ffffff;fill-opacity:1;fill-rule:nonzero;stroke:none"
           d="m 2974.84,4403.91 c -14.21,20.68 -34.41,37.97 -60.58,51.86 -26.17,13.9 -54.45,20.86 -84.83,20.86 -28.43,0 -50.89,-5.67 -67.36,-16.98 -16.49,-11.31 -24.73,-26.33 -24.73,-45.08 0,-16.79 8.08,-31.5 24.24,-44.1 16.15,-12.59 36.35,-22.3 60.58,-29.08 24.24,-6.8 50.41,-15.51 78.52,-26.17 28.12,-10.67 54.29,-22.31 78.52,-34.9 24.24,-12.6 44.44,-31.35 60.59,-56.23 16.16,-24.89 24.24,-54.44 24.24,-88.7 0,-56.87 -21.81,-103.24 -65.44,-139.1 -43.62,-35.88 -100.97,-53.81 -172.06,-53.81 -111.8,0 -192.59,37.15 -242.35,111.49 l 86.27,80.45 c 38.78,-51.7 91.45,-77.54 158.02,-77.54 33.6,0 59.62,6.29 78.03,18.89 18.42,12.61 27.63,30.21 27.63,52.83 0,21.97 -11.15,40.08 -33.45,54.29 -22.29,14.22 -49.6,26.18 -81.91,35.86 -32.31,9.71 -64.46,20.84 -96.45,33.46 -31.99,12.6 -59.14,32.15 -81.43,58.63 -22.3,26.51 -33.44,59.79 -33.44,99.87 0,52.99 21.16,96.29 63.49,129.88 42.33,33.61 96.78,50.41 163.34,50.41 49.12,0 93.22,-9.53 132.33,-28.59 39.09,-19.07 69.63,-44.44 91.6,-76.1 l -83.37,-82.4" />
        <path
           inkscape:connector-curvature="0"
           id="path4499"
           style="fill:#ffffff;fill-opacity:1;fill-rule:nonzero;stroke:none"
           d="m 3293.77,4470.8 v -198.73 h 109.55 c 33.6,0 60.59,9.22 80.94,27.64 20.36,18.42 30.53,42.48 30.53,72.21 0,29.72 -10.17,53.65 -30.53,71.74 -20.35,18.1 -47.34,27.14 -80.94,27.14 z m -121.17,106.63 h 221.02 c 74.97,0 135.23,-18.73 180.79,-56.21 45.57,-37.49 68.35,-87.25 68.35,-149.3 0,-62.68 -22.95,-112.78 -68.83,-150.26 -45.88,-37.48 -106.64,-56.23 -182.25,-56.23 h -97.91 V 3956.06 H 3172.6 v 621.37" />
        <path
           inkscape:connector-curvature="0"
           id="path4501"
           style="fill:#ffffff;fill-opacity:1;fill-rule:nonzero;stroke:none"
           d="m 3750.36,4577.43 h 121.17 v -621.37 h -121.17 v 621.37" />
        <path
           inkscape:connector-curvature="0"
           id="path4503"
           style="fill:#ffffff;fill-opacity:1;fill-rule:nonzero;stroke:none"
           d="m 4139.08,4376.76 v -420.7 h -121.17 v 621.37 h 130.87 l 289.84,-425.55 v 425.55 h 121.18 v -621.37 h -130.87 l -289.85,420.7" />
        <path
           inkscape:connector-curvature="0"
           id="path4505"
           style="fill:#ffffff;fill-opacity:1;fill-rule:nonzero;stroke:none"
           d="m 5143.37,4413.6 c -43.3,37.5 -92.74,56.23 -148.31,56.23 -52.99,0 -98.07,-19.86 -135.23,-59.61 -37.16,-39.75 -55.74,-87.74 -55.74,-143.97 0,-56.21 18.9,-104.04 56.71,-143.45 37.8,-39.44 85.14,-59.14 142.01,-59.14 58.17,0 105.02,18.75 140.56,56.23 l 80.46,-89.2 c -54.28,-58.81 -130.87,-88.21 -229.74,-88.21 -89.83,0 -165.44,31.51 -226.84,94.52 -61.4,63 -92.09,139.43 -92.09,229.25 0,89.85 31.18,166.43 93.55,229.75 62.36,63.34 137.49,95 225.38,95 96.29,0 172.87,-28.44 229.74,-85.29 l -80.46,-92.11" />
        <path
           inkscape:connector-curvature="0"
           id="path4507"
           style="fill:#ffffff;fill-opacity:1;fill-rule:nonzero;stroke:none"
           d="m 5440.97,4470.8 v -179.33 h 109.54 c 31.67,0 57.2,8.24 76.58,24.71 19.39,16.48 29.09,38.3 29.09,65.45 0,26.48 -9.7,47.96 -29.09,64.45 -19.38,16.48 -44.91,24.72 -76.58,24.72 z m -121.17,106.63 h 221.02 c 73.03,0 131.84,-17.93 176.43,-53.79 44.59,-35.88 66.89,-83.21 66.89,-142.01 0,-42.02 -11.47,-78.36 -34.41,-109.07 -22.95,-30.7 -55.1,-53.81 -96.46,-69.31 l 144.44,-247.19 h -140.56 l -126.99,228.77 h -89.19 V 3956.06 H 5319.8 v 621.37" />
        <path
           inkscape:connector-curvature="0"
           id="path4509"
           style="fill:#ffffff;fill-opacity:1;fill-rule:nonzero;stroke:none"
           d="m 6035.21,4386.47 v -430.41 h -121.18 v 621.37 h 138.63 l 197.75,-308.27 197.76,308.27 h 124.08 v -621.37 h -121.18 v 432.34 l -208.41,-315.06 -207.45,313.13" />
        <path
           inkscape:connector-curvature="0"
           id="path4511"
           style="fill:#ffffff;fill-opacity:1;fill-rule:nonzero;stroke:none"
           d="m 2149.18,4362.37 c -21.02,-5.49 -39.3,-17.85 -52.26,-34.42 l -43.95,-9.78 -36.82,37.07 c -9.95,10.04 -26.25,10.14 -36.39,0.1 l -0.34,-0.34 c 17.6,39.2 46.78,72.07 83.08,94.4 l 86.68,-87.03" />
        <path
           inkscape:connector-curvature="0"
           id="path4513"
           style="fill:#ffffff;fill-opacity:1;fill-rule:nonzero;stroke:none"
           d="m 2186.79,3952.04 c -85.42,-3.52 -171.83,27.53 -236.81,92.87 -111.06,111.66 -121.44,285.45 -31.59,408.61 9.79,13.4 20.78,26.17 32.8,38.2 5.57,5.57 11.24,10.9 17.16,15.96 l 1.03,0.92 1.54,1.21 c 10.14,7.64 24.64,6.87 33.73,-2.31 l 57.85,-58.1 c -36.3,-22.33 -65.48,-55.2 -83.08,-94.4 -2.06,-2.14 -3.76,-4.82 -4.97,-7.4 l -0.7,-1.7 c -30.03,-76.74 -14.06,-167.46 47.81,-229.76 44.55,-44.71 103.94,-65.82 162.38,-63.09 l 2.85,-101.01" />
        <path
           inkscape:connector-curvature="0"
           id="path4515"
           style="fill:#ffffff;fill-opacity:1;fill-rule:nonzero;stroke:none"
           d="m 2368.31,4179.48 c -17.78,-39.22 -47.04,-72.09 -83.61,-94.34 l -86.77,87.31 c 20.77,5.21 38.89,16.99 51.94,33.04 l 45.3,10.02 34.41,-34.65 1.72,-1.99 1.98,-1.72 c 10.05,-8.42 24.99,-7.79 34.42,1.64 l 0.61,0.69" />
        <path
           inkscape:connector-curvature="0"
           id="path4517"
           style="fill:#ffffff;fill-opacity:1;fill-rule:nonzero;stroke:none"
           d="m 2268.32,4242.47 -42.32,-42.31 23.87,5.33 c -13.05,-16.05 -31.17,-27.83 -51.94,-33.04 l -0.59,0.6 c -5.5,-1.41 -11.08,-2.25 -16.72,-2.58 -27.23,-1.99 -55.04,7.62 -75.71,28.38 -25.08,25.16 -33.58,60.63 -25.49,92.62 l 41.87,41.89 -24.37,-5.41 c 12.96,16.57 31.24,28.93 52.26,34.42 l 0.17,-0.26 h 0.52 c 8.24,2.25 16.74,3.17 25.14,3.01 2.33,0 4.48,0 6.69,-0.17 22.42,-1.8 44.37,-11.33 61.55,-28.52 25.31,-25.47 33.65,-61.5 24.98,-93.96 h 0.09" />
        <path
           inkscape:connector-curvature="0"
           id="path4519"
           style="fill:#ffffff;fill-opacity:1;fill-rule:nonzero;stroke:none"
           d="m 2428.89,4080.94 c -9.52,-13.05 -20.25,-25.56 -32.18,-37.32 -5.74,-5.74 -11.67,-11.25 -17.68,-16.49 -1.29,-1.03 -2.67,-2.15 -3.86,-3.18 -9.27,-6.43 -21.89,-6 -30.64,1.11 l -59.83,60.08 c 36.57,22.25 65.83,55.12 83.61,94.34 2.14,2.22 3.77,4.7 4.98,7.46 l 0.43,1.13 c 30.72,77.05 15.02,168.56 -47.3,231.19 -42.49,42.83 -98.71,63.95 -154.67,63.44 l -2.91,100.92 c 82.91,1.38 166.24,-29.69 229.25,-93.09 111.3,-111.93 121.53,-286.25 30.8,-409.59" />
      </g>
    </g>
  </g>
</svg>
