<?xml version="1.0" encoding="UTF-8"?> <!-- Generator: Adobe Illustrator 21.1.0, SVG Export Plug-In . SVG Version: 6.00 Build 0) --> <svg xmlns="http://www.w3.org/2000/svg" xmlns:xlink="http://www.w3.org/1999/xlink" version="1.1" id="Layer_1" x="0px" y="0px" viewBox="0 0 1092.1 307" style="enable-background:new 0 0 1092.1 307;" xml:space="preserve"> <style type="text/css"> .st0{fill:#272833;} .st1{fill:#6CBDC5;} </style> <g> <path class="st0" d="M441.3,143.5l-27.8,74.3h-12.7l-18.2-44.7c-0.5-1.2-1.2-2.9-2-5.1c-0.8-2.1-1.7-4.6-2.6-7.3 c-0.9-2.7-1.8-5.6-2.6-8.7c-0.9-3.1-1.6-6.3-2.4-9.6H373c0.1,5.1,0.2,9.9,0.3,14.3c0.1,4.5,0.1,8.7,0.1,12.9l-0.2,24.5 c0,1.2,0,2.5,0,3.6c0,1.2-0.1,2.3-0.1,3.4c-0.1,1.1-0.1,2.1-0.2,2.9c-0.1,0.9-0.1,1.6-0.2,2.2l10.3-0.4v10.5h-30.9v-8.9 c1.5-0.1,2.8-0.2,4-0.5c1.2-0.2,2.2-0.7,3-1.5c0.8-0.8,1.4-1.9,1.9-3.4c0.4-1.5,0.7-3.7,0.7-6.4l0.8-52c0-1.2,0-2.5,0.1-3.6 c0-1.2,0.1-2.3,0.1-3.4c0-1.1,0.1-2.1,0.2-2.9c0.1-0.9,0.1-1.6,0.2-2.2l-10.3,0.4v-10.5h30l20.5,52.5c0.6,1.6,1.3,3.4,2,5.4 c0.7,2,1.4,4,2.2,6c0.7,2,1.4,3.9,2,5.7c0.6,1.8,1.1,3.3,1.4,4.4h0.1c1.1-3.1,2.2-6.2,3.2-9.1c1-2.9,2.1-5.9,3.2-8.8l20.9-56.1 h31.3v8.9c-1.5,0.1-2.9,0.2-4.1,0.5c-1.2,0.2-2.3,0.7-3.1,1.5c-0.9,0.8-1.5,1.9-1.9,3.4c-0.4,1.5-0.6,3.7-0.5,6.4l2.1,52 c0,1.2,0.1,2.5,0,3.6c0,1.2-0.1,2.3-0.1,3.4c0,1.1-0.1,2.1-0.2,2.9c-0.1,0.9-0.2,1.6-0.3,2.2l10.2-0.4v10.5H434v-8.9 c1.5-0.1,2.9-0.2,4.1-0.5c1.2-0.2,2.3-0.7,3.1-1.5c0.9-0.8,1.5-1.9,1.9-3.4c0.4-1.5,0.6-3.7,0.5-6.4l-1.1-28.8 c0-0.8-0.1-2.1-0.2-3.9c-0.1-1.8-0.2-3.8-0.3-6c-0.1-2.2-0.2-4.5-0.3-6.9c-0.1-2.4-0.2-4.6-0.3-6.7H441.3z"></path> <path class="st0" d="M537.6,180l-44.6,0.8c0,3.7,0.3,7.1,1,10.3c0.7,3.2,1.8,5.9,3.3,8.2c1.5,2.3,3.5,4.1,5.9,5.4 c2.4,1.3,5.4,2,8.9,2c1.4,0,2.9-0.2,4.6-0.5c1.7-0.4,3.4-0.9,5.1-1.7c1.7-0.8,3.5-1.8,5.3-3.1c1.8-1.3,3.4-2.9,5-4.8l6.1,5.8 c-2.4,3.5-5,6.3-7.8,8.5c-2.7,2.2-5.5,3.8-8.2,5c-2.8,1.2-5.5,2-8.2,2.4c-2.7,0.4-5.2,0.6-7.5,0.6c-5,0-9.5-0.8-13.7-2.5 c-4.1-1.7-7.6-4.1-10.6-7.2s-5.2-6.9-6.9-11.3c-1.6-4.4-2.4-9.4-2.4-14.9c0-4.8,0.8-9.3,2.4-13.7c1.6-4.4,3.9-8.2,6.9-11.6 c3-3.4,6.5-6,10.7-8s8.8-3,13.9-3c2.5,0,5,0.2,7.5,0.7c2.5,0.4,4.9,1.2,7.2,2.2c2.3,1,4.4,2.4,6.4,4.1c2,1.7,3.7,3.8,5.1,6.2 c1.4,2.5,2.5,5.4,3.3,8.7C537.3,171.8,537.7,175.6,537.6,180z M507.7,156c-2,0-3.8,0.4-5.3,1.1c-1.6,0.8-2.9,1.8-4.1,3.1 c-1.1,1.3-2.1,2.9-2.8,4.8c-0.7,1.9-1.2,3.9-1.6,6.2h25c-0.1-2.8-0.4-5.1-1-7.1c-0.6-1.9-1.4-3.5-2.4-4.7c-1-1.2-2.2-2.1-3.5-2.6 S509.2,156,507.7,156z"></path> <path class="st0" d="M605.2,180l-44.6,0.8c0,3.7,0.3,7.1,1,10.3c0.7,3.2,1.8,5.9,3.3,8.2c1.5,2.3,3.5,4.1,5.9,5.4 c2.4,1.3,5.4,2,8.9,2c1.4,0,2.9-0.2,4.6-0.5c1.7-0.4,3.4-0.9,5.1-1.7c1.7-0.8,3.5-1.8,5.3-3.1c1.8-1.3,3.4-2.9,5-4.8l6.1,5.8 c-2.4,3.5-5,6.3-7.8,8.5c-2.7,2.2-5.5,3.8-8.2,5c-2.8,1.2-5.5,2-8.2,2.4c-2.7,0.4-5.2,0.6-7.5,0.6c-5,0-9.5-0.8-13.7-2.5 c-4.1-1.7-7.6-4.1-10.6-7.2s-5.2-6.9-6.9-11.3c-1.6-4.4-2.4-9.4-2.4-14.9c0-4.8,0.8-9.3,2.4-13.7c1.6-4.4,3.9-8.2,6.9-11.6 c3-3.4,6.5-6,10.7-8s8.8-3,13.9-3c2.5,0,5,0.2,7.5,0.7c2.5,0.4,4.9,1.2,7.2,2.2c2.3,1,4.4,2.4,6.4,4.1c2,1.7,3.7,3.8,5.1,6.2 c1.4,2.5,2.5,5.4,3.3,8.7C604.9,171.8,605.2,175.6,605.2,180z M575.3,156c-2,0-3.8,0.4-5.3,1.1c-1.6,0.8-2.9,1.8-4.1,3.1 c-1.1,1.3-2.1,2.9-2.8,4.8c-0.7,1.9-1.2,3.9-1.6,6.2h25c-0.1-2.8-0.4-5.1-1-7.1c-0.6-1.9-1.4-3.5-2.4-4.7c-1-1.2-2.2-2.1-3.5-2.6 S576.8,156,575.3,156z"></path> <path class="st0" d="M606.3,148.7c2.3,0,4.5-0.6,6.6-1.8c2-1.1,3.9-2.5,5.5-4.2c1.6-1.7,3-3.5,4.1-5.5c1.1-2,2-3.8,2.5-5.6h10 l-0.1,17h17.3v10.5l-17.3,0.3c0,6.4-0.1,11.7-0.1,16c0,4.2,0,7.6-0.1,10.2c0,2.5,0,4.4,0,5.4s0,1.7,0,1.9c0,1.6,0.1,3.2,0.3,4.7 c0.2,1.6,0.6,3,1.2,4.2c0.6,1.3,1.4,2.3,2.5,3.1c1.1,0.8,2.5,1.2,4.2,1.2c0.6,0,1.3-0.1,2.2-0.3c0.9-0.2,1.8-0.5,2.9-1.1 c1.1-0.6,2.2-1.4,3.5-2.5c1.2-1.1,2.5-2.5,3.8-4.4l6.6,6.1c-2.5,3.6-4.9,6.4-7.4,8.4c-2.5,2-4.8,3.4-7.1,4.4s-4.3,1.5-6.2,1.7 c-1.9,0.2-3.4,0.3-4.6,0.3c-1.5,0-3.1-0.1-4.7-0.4c-1.6-0.2-3.2-0.7-4.8-1.4c-1.6-0.7-3-1.6-4.4-2.8c-1.4-1.2-2.6-2.8-3.7-4.7 c-1.1-1.9-1.9-4.3-2.6-7.1c-0.6-2.8-0.9-6-0.9-9.8l0.2-32.7l-9.3,0.1V148.7z"></path> <path class="st0" d="M695.6,172v22.3c0,1.2,0,2.4,0,3.6c0,1.2-0.1,2.3-0.1,3.4s-0.1,2-0.2,2.9c-0.1,0.9-0.1,1.6-0.2,2.2l18.2-0.1 c2,0,4-0.3,6-1c2-0.7,3.8-1.8,5.3-3.3c1.5-1.5,2.8-3.5,3.8-6.1c1-2.5,1.5-5.6,1.5-9.3h8.9l-0.8,29.9h-71.6v-8.9 c1.5-0.1,2.9-0.2,4.1-0.5c1.2-0.2,2.2-0.7,3-1.5c0.8-0.8,1.4-1.9,1.9-3.4s0.7-3.7,0.7-6.4v-52.1c0-1.2,0-2.5,0-3.6 c0-1.2,0.1-2.3,0.1-3.4c0-1.1,0.1-2.1,0.2-3s0.1-1.6,0.2-2.2l-10.2,0.4v-10.5h67.9l0.8,26.3h-8.9c0-3.7-0.5-6.6-1.6-8.9 c-1-2.3-2.4-4.1-3.9-5.4c-1.6-1.3-3.4-2.1-5.3-2.6c-1.9-0.4-3.8-0.6-5.7-0.6l-4.9,0.1c-1.4,0-2.7,0.2-3.8,0.4 c-1.1,0.2-2.1,0.8-2.8,1.6c-0.8,0.8-1.4,2-1.8,3.5c-0.4,1.5-0.6,3.6-0.6,6.3v20.3h16l-0.6-11.7h10.5v33h-8.9c0-2.8-0.4-5.1-1.1-6.7 c-0.7-1.6-1.7-2.8-2.8-3.6c-1.2-0.8-2.6-1.3-4.2-1.4c-1.6-0.2-3.3-0.2-5.2-0.2L695.6,172z"></path> <path class="st0" d="M810.3,114.1v80.6c0,0.7,0,1.5,0,2.4c0,0.9-0.1,1.9-0.1,3s-0.1,2.2-0.2,3.3c-0.1,1.1-0.1,2.2-0.2,3.2l8.8-0.4 v10.3h-25.8l-0.7-6.3h-0.1c-3,3.1-6.1,5.3-9.3,6.6c-3.2,1.3-6.5,1.9-9.8,1.9c-4.1,0-7.8-0.8-11.1-2.4c-3.4-1.6-6.2-3.9-8.6-6.9 c-2.4-3-4.3-6.6-5.6-10.8c-1.3-4.2-2-9-2-14.2c0-5.5,0.8-10.5,2.4-15.1c1.6-4.6,3.9-8.6,6.8-12c2.9-3.4,6.5-6,10.6-7.9 c4.1-1.9,8.7-2.8,13.8-2.8c2.5,0,4.7,0.3,6.7,0.8c1.9,0.5,3.7,1.1,5.4,1.7v-9c0-0.7,0-1.5,0-2.4c0-0.9,0.1-1.9,0.1-3 c0-1.1,0.1-2.2,0.2-3.3c0.1-1.1,0.1-2.2,0.2-3.2l-9.5,0.4v-10.3c3.1,0,5.9-0.1,8.3-0.4c2.4-0.3,4.5-0.6,6.2-1 c1.7-0.4,3.1-0.8,4.1-1.3s1.8-0.9,2.3-1.4H810.3z M779.9,206.3c2.3,0,4.4-0.6,6.4-1.8c2-1.2,3.6-2.7,4.8-4.6v-40.8 c-1-0.7-2.3-1.2-4-1.8c-1.7-0.5-3.6-0.8-5.6-0.8c-3.1,0.1-5.7,0.9-7.8,2.4c-2.1,1.5-3.7,3.4-5,5.8c-1.2,2.4-2.1,5.1-2.6,8.2 c-0.5,3-0.8,6.2-0.8,9.3c0,2.9,0.3,5.8,0.8,8.7c0.5,2.9,1.4,5.4,2.6,7.7c1.2,2.3,2.7,4.1,4.5,5.5 C775,205.6,777.2,206.3,779.9,206.3z"></path> <path class="st0" d="M890.4,151.2c-0.7,0-1.4-0.1-2.1-0.4c-0.7-0.3-1.4-0.7-2-1.1c-0.6-0.5-1.1-1-1.6-1.7c-0.4-0.6-0.7-1.3-0.9-2 c-0.6,0.1-1.2,0.5-1.9,1.2c-0.6,0.7-1.2,1.4-1.7,2.3c-0.5,0.9-1,1.8-1.3,2.8c-0.4,1-0.6,1.8-0.8,2.5c2.7,2.3,4.7,4.9,6,7.9 c1.4,3,2.1,6.2,2.1,9.6c0,3.9-0.9,7.5-2.6,10.8c-1.7,3.3-4,6.1-6.9,8.5c-2.8,2.4-6.1,4.2-9.8,5.6c-3.7,1.3-7.6,2-11.5,2 c-1.2,0-2.6-0.1-4-0.2c-1.4-0.2-2.8-0.2-4.2-0.2c-2,0-3.7,0.4-5,1.1c-1.3,0.7-2,1.7-2,3c0,0.8,0.3,1.5,0.9,2.1c0.6,0.6,1.6,1,3,1.4 c1.4,0.4,3.2,0.7,5.4,0.9c2.2,0.2,4.9,0.5,8.1,0.6c5.2,0.3,10,0.9,14.2,1.7c4.3,0.8,7.9,2,11,3.7c3,1.6,5.4,3.8,7.1,6.4 c1.7,2.6,2.5,5.9,2.5,9.8c0,2.6-0.5,4.9-1.6,7.1s-2.5,4.2-4.3,5.9c-1.8,1.8-4,3.3-6.5,4.7c-2.5,1.3-5.2,2.5-8,3.4s-5.8,1.6-8.8,2.1 c-3.1,0.5-6.1,0.7-9.1,0.7c-5.9,0-10.8-0.5-14.7-1.5c-4-1-7.1-2.3-9.5-4c-2.4-1.7-4.1-3.5-5.1-5.7c-1-2.1-1.5-4.3-1.5-6.6 c0-1.4,0.2-2.8,0.6-4.3s1.1-2.9,2.1-4.2c1-1.3,2.3-2.6,3.9-3.8c1.6-1.2,3.7-2.3,6.2-3.2c-1.9-0.5-3.4-1.2-4.7-2.1 c-1.3-0.8-2.3-1.8-3.1-2.8c-0.8-1-1.4-2.2-1.7-3.4s-0.5-2.5-0.5-3.7c0-1.1,0.2-2.4,0.7-3.8c0.4-1.4,1.2-2.7,2.2-4.1 c1-1.4,2.4-2.6,4.1-3.8c1.7-1.2,3.8-2.1,6.3-2.9v-0.1c-2-0.8-3.8-1.7-5.4-3c-1.6-1.2-3-2.7-4.2-4.4c-1.2-1.7-2.1-3.6-2.8-5.6 c-0.7-2.1-1-4.3-1-6.8c0-4,0.8-7.6,2.6-10.9c1.7-3.3,4-6.2,6.8-8.5c2.8-2.4,6.1-4.2,9.7-5.6c3.6-1.3,7.4-2,11.2-2 c1.2,0,2.5,0.1,3.9,0.2c1.4,0.2,2.8,0.4,4.3,0.7c1.5,0.3,2.9,0.8,4.2,1.3c1.4,0.5,2.6,1.2,3.8,2c0.8-2.1,1.7-4.1,2.7-6.1 c1.1-2,2.3-3.7,3.7-5.3c1.4-1.5,3-2.8,4.8-3.7s3.8-1.4,5.9-1.4c3,0,5.4,0.8,7,2.4c1.6,1.6,2.4,3.7,2.4,6.4c0,0.8-0.1,1.7-0.4,2.7 c-0.3,1-0.7,1.8-1.4,2.7c-0.6,0.8-1.5,1.5-2.6,2.1C893.4,151,892,151.2,890.4,151.2z M857.9,224.1c-1,0-2.1-0.1-3.3-0.1 c-1.2,0-2.4-0.1-3.6-0.2c-1.2-0.1-2.4-0.2-3.6-0.3c-1.2-0.1-2.3-0.3-3.2-0.4c-1.5,1.1-2.6,2.6-3.3,4.4c-0.7,1.8-1.1,3.4-1.1,5 c0,1.8,0.4,3.4,1.3,4.8c0.8,1.4,2.1,2.6,3.6,3.6c1.6,1,3.5,1.8,5.7,2.3c2.2,0.5,4.7,0.8,7.5,0.8c3.2,0,6-0.3,8.4-1 c2.5-0.7,4.5-1.5,6.2-2.6c1.7-1,2.9-2.2,3.7-3.5c0.8-1.3,1.3-2.6,1.3-3.8c0-2.8-1.6-4.9-4.8-6.3 C869.5,225.2,864.6,224.4,857.9,224.1z M855.9,155.6c-1.8,0-3.4,0.4-4.8,1.3c-1.4,0.9-2.6,2.1-3.6,3.5c-1,1.5-1.7,3.2-2.3,5.1 c-0.5,1.9-0.8,4-0.8,6c0,2.4,0.3,4.7,0.8,6.9c0.5,2.2,1.2,4.2,2.2,5.9c1,1.7,2.2,3.1,3.6,4.1c1.5,1,3.1,1.5,5,1.5 c1.8,0,3.4-0.4,4.8-1.3c1.4-0.9,2.6-2.1,3.5-3.5c0.9-1.5,1.7-3.1,2.2-4.9c0.5-1.8,0.7-3.7,0.7-5.5c0-2.4-0.2-4.7-0.7-7 c-0.5-2.3-1.2-4.3-2.1-6.1c-1-1.8-2.1-3.2-3.6-4.3C859.4,156.2,857.8,155.6,855.9,155.6z"></path> <path class="st0" d="M898.3,164.4c0-2.7,0.7-5.1,2.2-7.3c1.5-2.2,3.5-4.1,6.1-5.7c2.6-1.6,5.6-2.8,9.1-3.6 c3.5-0.9,7.2-1.3,11.2-1.3s7.5,0.5,10.6,1.5c3.1,1,5.7,2.6,7.9,4.7s3.8,4.8,4.9,8.1c1.1,3.3,1.7,7.2,1.7,11.7c0,2.3,0,4.3,0,6.1 c0,1.7,0,3.4,0,5c0,1.6,0,3.3,0,5.1c0,1.8,0,3.8,0,6.1c0,0.7,0,1.5,0,2.4c0,0.9,0,1.9-0.1,3s-0.1,2.2-0.1,3.3 c-0.1,1.1-0.1,2.2-0.2,3.2l8.7-0.4v10.3h-25.6c-0.2-1.3-0.3-2.4-0.4-3.2s-0.1-1.9-0.2-3h-0.1c-3.1,3.1-6.3,5.3-9.7,6.5 c-3.4,1.3-6.8,1.9-10.4,1.9c-2.9,0-5.5-0.5-7.8-1.4c-2.3-0.9-4.2-2.2-5.8-3.8s-2.8-3.5-3.6-5.7s-1.3-4.6-1.3-7.2 c0-2.9,0.5-5.5,1.5-7.8c1-2.3,2.4-4.4,4.2-6.2c1.8-1.8,3.9-3.4,6.3-4.7c2.4-1.3,5-2.4,7.9-3.3c2.8-0.9,5.7-1.6,8.8-2.1 c3-0.5,6.1-0.8,9.1-0.9v-7.1c0-1.8-0.2-3.5-0.5-5c-0.3-1.5-0.8-2.8-1.6-3.9c-0.8-1.1-1.7-2-3-2.6c-1.2-0.6-2.8-0.9-4.6-0.9 c-1.9,0.1-3.6,0.5-5.2,1.1c-1.6,0.7-3,1.6-4.1,2.8c0.7,0.8,1.2,1.6,1.4,2.6c0.2,1,0.3,1.8,0.3,2.5c0,1-0.2,2-0.5,2.9 s-0.9,1.9-1.7,2.7c-0.8,0.8-1.7,1.5-2.8,2c-1.1,0.5-2.5,0.8-4.1,0.8c-1.3,0-2.5-0.3-3.6-0.8s-1.9-1.2-2.7-2 c-0.7-0.8-1.2-1.8-1.6-2.9C898.4,166.8,898.3,165.6,898.3,164.4z M933,185.2c-2.6,0.3-5,0.7-7.2,1.4s-4.2,1.5-5.9,2.6 s-3,2.4-3.9,3.9c-1,1.5-1.4,3.2-1.4,5.2c0,1.3,0.3,2.4,0.7,3.3c0.4,0.9,1,1.6,1.7,2.2c0.7,0.6,1.5,1,2.4,1.3 c0.9,0.3,1.8,0.4,2.8,0.4c2.1,0,4.1-0.4,5.9-1.3c1.8-0.9,3.4-2.1,4.8-3.7L933,185.2z"></path> <path class="st0" d="M1014.9,146.5c1.6,0,3.1,0.2,4.5,0.7c1.4,0.4,2.7,1.1,3.8,2c1.1,0.9,1.9,2.1,2.6,3.5c0.6,1.4,1,3.1,1,5.1 c0,1.1-0.2,2.2-0.5,3.3c-0.4,1.1-0.9,2.2-1.7,3.1c-0.8,0.9-1.7,1.7-2.9,2.3c-1.2,0.6-2.7,0.9-4.4,0.9c-0.9,0-1.9-0.1-2.8-0.4 c-1-0.2-1.9-0.7-2.7-1.3c-0.8-0.6-1.5-1.4-2.1-2.4c-0.6-1-1-2.3-1.1-3.9c-1.4,0-2.8,0.5-4.1,1.4c-1.4,0.9-2.7,2-3.9,3.4 c-1.2,1.3-2.3,2.8-3.2,4.3s-1.6,2.9-2,4.2v22.1c0,0.7,0,1.5,0,2.4c0,0.9-0.1,1.9-0.1,3s-0.1,2.2-0.2,3.3c-0.1,1.1-0.1,2.2-0.2,3.2 l8.8-0.4v10.3h-35.6v-8.8c1.9,0,3.4-0.3,4.5-0.9c1.1-0.6,1.9-1.4,2.4-2.5c0.5-1.1,0.9-2.3,1-3.8c0.1-1.5,0.2-3.1,0.2-4.9v-22.9 c0-1.6,0-3.5,0.1-5.5c0.1-2,0.2-4,0.4-6.1l-9.5,0.4v-10.2c3.1,0,5.9-0.1,8.3-0.4c2.4-0.3,4.5-0.6,6.2-1c1.7-0.4,3.1-0.8,4.1-1.3 s1.8-0.9,2.3-1.4h6.7l0.6,11.7h0.2c0.9-1.2,2-2.5,3.2-4c1.3-1.5,2.7-2.8,4.4-4.1c1.7-1.3,3.5-2.3,5.5-3.2 C1010.4,146.9,1012.5,146.5,1014.9,146.5z"></path> </g> <g> <g> <path class="st1" d="M174.6,36.7c52.8,0,95.6,41.4,95.6,92.6c0,30.4-15.1,57.3-38.4,74.2c7.6,4,16.4,6.3,25.6,6.3 c23.8,0,44-15,51.1-35.7c1.8,5.5,2.7,11.3,2.7,17.3c0,31.8-26.6,57.6-59.5,57.6c-16.8,0-31.9-6.7-42.7-17.5 c2.9,5.4,6.7,10.4,11.6,14.8c10.3,9.1,23.2,13.5,36.1,13.5c9.2,0,18.3-2.2,26.4-6.7c-2.5,5.2-5.8,10.1-10,14.6 c-11.7,12.5-27.9,18.9-44.1,18.9c-14.3,0-28.6-4.9-40-15c-7.5-6.6-12.9-14.6-16-23.3c-3.2,8.5-8.5,16.3-15.9,22.8 c-11.4,10-25.7,15-40,15c-16.2,0-32.3-6.4-44.1-18.9c-4.2-4.5-7.5-9.4-10-14.6c8.2,4.4,17.3,6.7,26.4,6.7 c12.9,0,25.8-4.5,36.1-13.5c3.5-3.1,6.4-6.5,8.8-10.1c-10.2,8.1-23.3,12.9-37.5,12.9c-32.9,0-59.5-25.8-59.5-57.6 c0-6,1-11.9,2.7-17.3c7.1,20.7,27.3,35.7,51.1,35.7c9.2,0,17.9-2.2,25.4-6.2c-23.1-16.9-38-43.7-38-73.9 C79,78.1,121.8,36.7,174.6,36.7 M174.6,23.1c-60.2,0-109.2,47.6-109.2,106.2c0,24.6,8.5,47.8,24,66.4c-16.5-0.9-30.8-11.3-36-26.4 c-1.9-5.5-7-9.2-12.8-9.2c0,0-0.1,0-0.1,0c-5.8,0-11,3.8-12.8,9.4c-2.3,7-3.4,14.2-3.4,21.5c0,22.3,10.6,42.2,27.1,55.3 c-2,3.7-2.1,8.2-0.2,12.2c3.1,6.6,7.3,12.7,12.4,18.1c13.8,14.7,33.5,23.2,54,23.2c18.1,0,35.5-6.5,48.9-18.3 c2.4-2.1,4.7-4.4,6.8-6.8c2.2,2.6,4.6,5,7.2,7.3c13.5,11.8,30.8,18.3,48.9,18.3c20.5,0,40.2-8.4,54-23.2 c5.1-5.4,9.2-11.5,12.4-18.1c1.7-3.5,1.7-7.4,0.4-10.8c17.6-13,28.9-33.6,28.9-56.7c0-7.3-1.1-14.6-3.4-21.5 c-1.8-5.6-7-9.3-12.8-9.4c0,0-0.1,0-0.1,0c-5.8,0-11,3.7-12.8,9.2c-5.2,15.3-19.7,25.7-36.3,26.5c15.6-18.7,24.4-42.4,24.4-66.9 C283.8,70.7,234.8,23.1,174.6,23.1L174.6,23.1z"></path> </g> <g> <path class="st1" d="M217.9,108.9c-17.4,0-31.7,13.5-33,30.6h-20.7c-1.3-17.1-15.6-30.6-33-30.6c-18.3,0-33.1,14.9-33.1,33.1 s14.9,33.1,33.1,33.1c17,0,31.1-12.9,32.9-29.5H185c1.8,16.6,15.9,29.5,32.9,29.5c18.3,0,33.1-14.9,33.1-33.1 S236.2,108.9,217.9,108.9z M131.1,170.3c-15.6,0-28.2-12.7-28.2-28.2s12.7-28.2,28.2-28.2s28.2,12.7,28.2,28.2 S146.7,170.3,131.1,170.3z M217.9,170.3c-15.6,0-28.2-12.7-28.2-28.2s12.7-28.2,28.2-28.2s28.2,12.7,28.2,28.2 S233.5,170.3,217.9,170.3z"></path> <path class="st1" d="M217.9,176.5c-17.2,0-31.7-12.6-34.1-29.5h-18.6c-2.4,16.9-16.9,29.5-34.1,29.5c-19,0-34.4-15.4-34.4-34.4 s15.4-34.4,34.4-34.4c17.5,0,32.3,13.3,34.2,30.6h18.4c1.9-17.2,16.7-30.6,34.2-30.6c19,0,34.4,15.4,34.4,34.4 S236.9,176.5,217.9,176.5z M162.9,144.4h23.2l0.1,1.2c1.8,16.2,15.4,28.4,31.6,28.4c17.6,0,31.8-14.3,31.8-31.8 s-14.3-31.8-31.8-31.8c-16.5,0-30.5,12.9-31.7,29.4l-0.1,1.2h-23.1l-0.1-1.2c-1.3-16.5-15.2-29.4-31.7-29.4 c-17.6,0-31.8,14.3-31.8,31.8s14.3,31.8,31.8,31.8c16.3,0,29.9-12.2,31.6-28.4L162.9,144.4z M217.9,171.6 c-16.3,0-29.5-13.2-29.5-29.5s13.2-29.5,29.5-29.5c16.3,0,29.5,13.2,29.5,29.5S234.2,171.6,217.9,171.6z M217.9,115.2 c-14.8,0-26.9,12.1-26.9,26.9s12.1,26.9,26.9,26.9c14.8,0,26.9-12.1,26.9-26.9S232.7,115.2,217.9,115.2z M131.1,171.6 c-16.3,0-29.5-13.2-29.5-29.5s13.2-29.5,29.5-29.5c16.3,0,29.5,13.2,29.5,29.5S147.4,171.6,131.1,171.6z M131.1,115.2 c-14.8,0-26.9,12.1-26.9,26.9s12.1,26.9,26.9,26.9s26.9-12.1,26.9-26.9S146,115.2,131.1,115.2z"></path> </g> <g> <circle class="st1" cx="304.6" cy="52" r="7"></circle> </g> <g> <path class="st1" d="M330,7.9C320,7.9,312,16,312,26S320,44,330,44s18.1-8.1,18.1-18.1S340,7.9,330,7.9z M330,34.7 c-4.8,0-8.8-3.9-8.8-8.8c0-4.8,3.9-8.8,8.8-8.8c4.8,0,8.8,3.9,8.8,8.8C338.8,30.8,334.9,34.7,330,34.7z"></path> </g> </g> </svg> 