<?xml version="1.0" encoding="UTF-8"?> <svg xmlns="http://www.w3.org/2000/svg" width="206" height="79" viewBox="0 0 206 79"><g id="amazon-partner-badge" transform="translate(-3631 8157)"><g id="Group_4203" data-name="Group 4203" transform="translate(3 0.213)"><g id="Group_4201" data-name="Group 4201" transform="translate(-0.154 89)"><path id="Path_6199" data-name="Path 6199" d="M5.037,0H7.874l4.883-13.973H9.862L7.025-5A16.758,16.758,0,0,0,6.5-3.069C6.35-3.725,6.157-4.362,5.964-5L3.2-13.973H.154ZM17.814.289a7.854,7.854,0,0,0,3.513-.695V-2.49a9.878,9.878,0,0,1-3.2.5c-1.756,0-2.47-.868-2.567-2.2h6.273a7.462,7.462,0,0,0,.058-.926c0-2.567-1.119-5.1-4.5-5.1-3.281,0-4.478,2.432-4.478,5.308C12.912-1.718,14.571.289,17.814.289Zm-.425-8.434c1.158,0,1.756.791,1.853,2.084H15.575C15.672-7.353,16.231-8.145,17.389-8.145ZM24.2,0h2.644V-6.89a2.855,2.855,0,0,1,2.046-.791,4.771,4.771,0,0,1,1.274.135v-2.528a2.653,2.653,0,0,0-.811-.116,3,3,0,0,0-2.567,1.525l-.1-1.235H24.2Zm7.855,0H34.7V-9.9H32.057ZM36.67-7.7h1.621V0h2.663V-7.7h4.632V0h2.644V-9.9H40.955v-.984c0-1.293.6-1.814,1.795-1.814a7.694,7.694,0,0,1,1.563.154v-2.046a7.235,7.235,0,0,0-2.065-.27c-2.49,0-3.957,1.293-3.957,3.8V-9.9H36.67ZM55.487.289A7.854,7.854,0,0,0,59-.405V-2.49a9.878,9.878,0,0,1-3.2.5c-1.756,0-2.47-.868-2.567-2.2H59.5a7.462,7.462,0,0,0,.058-.926c0-2.567-1.119-5.1-4.5-5.1-3.281,0-4.478,2.432-4.478,5.308C50.585-1.718,52.245.289,55.487.289Zm-.425-8.434c1.158,0,1.756.791,1.853,2.084H53.249C53.345-7.353,53.9-8.145,55.063-8.145ZM65.35.309A3.6,3.6,0,0,0,68.225-.849L68.457,0h2.258V-14.629H68.071V-9.5a4.048,4.048,0,0,0-2.451-.714c-2.876,0-4.535,1.911-4.535,5.288C61.084-1.7,62.706.309,65.35.309Zm.772-2.239c-1.583,0-2.335-1.37-2.335-3.049s.656-2.991,2.239-2.991a3.832,3.832,0,0,1,2.046.5v5.057A3.562,3.562,0,0,1,66.122-1.93Zm12.7,6.33h2.644V-.386a4.009,4.009,0,0,0,2.412.695c2.876,0,4.574-2.027,4.574-5.288,0-3.339-1.583-5.23-4.227-5.23a3.663,3.663,0,0,0-2.9,1.139l-.212-.83h-2.3Zm4.651-6.33a3.772,3.772,0,0,1-2.007-.482V-7.469a3.539,3.539,0,0,1,1.988-.5c1.583,0,2.3,1.37,2.3,3.049S85.055-1.93,83.472-1.93ZM96.249,0h2.412V-6.234c0-2.837-1.525-3.956-4.3-3.956a7.687,7.687,0,0,0-3.571.811v2.1a7.838,7.838,0,0,1,3.165-.618c1.486,0,2.065.521,2.065,1.795v.212c-.27,0-.56-.019-.772-.019-3.339,0-5.211.946-5.211,3.262A2.869,2.869,0,0,0,93.142.309,4.449,4.449,0,0,0,96.114-.753Zm-2.1-1.718c-.984,0-1.409-.54-1.409-1.2,0-.926,1-1.274,3.069-1.274h.212v1.911A3.407,3.407,0,0,1,94.145-1.718ZM101.614,0h2.644V-6.89a2.855,2.855,0,0,1,2.046-.791,4.771,4.771,0,0,1,1.274.135v-2.528a2.653,2.653,0,0,0-.811-.116A3,3,0,0,0,104.2-8.666L104.1-9.9h-2.49Zm6.929-7.7h1.544v4.42c0,2.239.714,3.57,3.455,3.57a6.769,6.769,0,0,0,2.393-.405V-2.181a8.364,8.364,0,0,1-1.718.174c-1.235,0-1.467-.444-1.467-1.447V-7.7h3.223V-9.9h-3.223V-12.97h-2.663V-9.9h-1.544ZM118.174,0h2.644V-7.373a3.865,3.865,0,0,1,2.065-.54A1.579,1.579,0,0,1,124.7-6.137V0h2.644V-6.485c0-2.239-1.062-3.725-3.57-3.725a4.3,4.3,0,0,0-3.088,1.119l-.212-.811h-2.3Zm16.193.289a7.854,7.854,0,0,0,3.513-.695V-2.49a9.878,9.878,0,0,1-3.2.5c-1.756,0-2.47-.868-2.567-2.2h6.272a7.461,7.461,0,0,0,.058-.926c0-2.567-1.119-5.1-4.5-5.1-3.281,0-4.478,2.432-4.478,5.308C129.464-1.718,131.124.289,134.367.289Zm-.425-8.434c1.158,0,1.756.791,1.853,2.084h-3.667C132.224-7.353,132.784-8.145,133.942-8.145ZM140.755,0H143.4V-6.89a2.855,2.855,0,0,1,2.046-.791,4.771,4.771,0,0,1,1.274.135v-2.528a2.652,2.652,0,0,0-.811-.116,3,3,0,0,0-2.567,1.525l-.1-1.235h-2.49Z" transform="translate(3650 -8179)" fill="#fff"></path><circle id="Ellipse_255" data-name="Ellipse 255" cx="1.5" cy="1.5" r="1.5" transform="translate(3682 -8193)" fill="#fff"></circle><circle id="Ellipse_256" data-name="Ellipse 256" cx="1.5" cy="1.5" r="1.5" transform="translate(3695 -8193)" fill="#fff"></circle></g><g id="页面-1" transform="translate(3541.9 -8384.413)"><g id="_x34_kmiles-ERP_x2F_English_xFF08_banner1_xFF09_" transform="translate(108.1 234.2)"><g id="编组-53" transform="translate(0 0)"><g id="spn" transform="translate(0 0)"><g id="编组-102" transform="translate(0)"><g id="编组"><g id="Group_4202" data-name="Group 4202" transform="translate(15.352 27.191)"><path id="Fill-1" d="M115.011,277.33c-6.2,4.438-15.187,6.808-22.932,6.808a42.291,42.291,0,0,1-28.031-10.364c-.579-.5-.055-1.213.634-.8A57.954,57.954,0,0,0,92.712,280.2a57.194,57.194,0,0,0,21.389-4.245c1.075-.469,1.957.634.91,1.378" transform="translate(-63.798 -272.852)" fill="#fff" fill-rule="evenodd"></path></g><path id="Fill-3" d="M249.318,296.287c-.717-.937-4.824-.441-6.643-.22-.551.055-.634-.413-.138-.772,3.252-2.315,8.6-1.654,9.206-.882.634.8-.165,6.229-3.225,8.82-.469.386-.91.193-.717-.331.717-1.764,2.26-5.678,1.516-6.615" transform="translate(-181.541 -267.649)" fill="#fff" fill-rule="evenodd"></path><path id="Fill-5" d="M242.734,222.142v-2.508a.6.6,0,0,1,.606-.634h10.8a.624.624,0,0,1,.634.634v2.15a3.537,3.537,0,0,1-.827,1.571l-5.6,8.324a11.659,11.659,0,0,1,6.174,1.378,1.165,1.165,0,0,1,.579.992v2.674c0,.358-.386.8-.8.579a12.023,12.023,0,0,0-11.439.028c-.386.22-.772-.22-.772-.579v-2.563a3.041,3.041,0,0,1,.413-1.736l6.5-9.7h-5.65a.6.6,0,0,1-.634-.606" transform="translate(-181.462 -213.543)" fill="#fff" fill-rule="evenodd"></path><path id="Fill-7" d="M92.776,238.559h-3.2a.646.646,0,0,1-.579-.579V220.092a.624.624,0,0,1,.634-.634h3a.649.649,0,0,1,.579.606v2.343h.055c.772-2.26,2.26-3.308,4.245-3.308,2.012,0,3.28,1.047,4.162,3.308a4.582,4.582,0,0,1,4.438-3.308,4.463,4.463,0,0,1,3.721,1.957c1.02,1.516.8,3.693.8,5.6v11.273a.618.618,0,0,1-.606.634h-3.225a.632.632,0,0,1-.579-.634v-9.482a27.265,27.265,0,0,0-.083-3.363,1.706,1.706,0,0,0-1.9-1.544A2.149,2.149,0,0,0,102.313,225a11.63,11.63,0,0,0-.3,3.418V237.9a.618.618,0,0,1-.606.634H98.178a.632.632,0,0,1-.579-.634v-9.482c0-1.985.3-4.934-1.985-4.934-2.315,0-2.233,2.867-2.233,4.934V237.9a.594.594,0,0,1-.606.661" transform="translate(-70.56 -213.615)" fill="#fff" fill-rule="evenodd"></path><path id="Fill-9" d="M304.752,222.583c-2.453,0-2.618,3.445-2.618,5.568,0,2.15-.028,6.725,2.591,6.725,2.591,0,2.7-3.693,2.7-5.954a16.437,16.437,0,0,0-.5-4.658,2.082,2.082,0,0,0-2.177-1.681M304.725,219c4.961,0,7.635,4.355,7.635,9.9,0,5.347-2.977,9.592-7.635,9.592-4.879,0-7.525-4.355-7.525-9.785,0-5.457,2.674-9.7,7.525-9.7" transform="translate(-221.375 -213.543)" fill="#fff" fill-rule="evenodd"></path><path id="Fill-11" d="M367.721,238.487h-3.142a.632.632,0,0,1-.579-.634V219.965a.606.606,0,0,1,.606-.579h2.922a.615.615,0,0,1,.551.5v2.729h.055c.882-2.453,2.122-3.611,4.3-3.611a4.1,4.1,0,0,1,3.693,2.095c.827,1.433.827,3.831.827,5.568v11.246a.6.6,0,0,1-.606.551h-3.17a.593.593,0,0,1-.551-.551v-9.7c0-1.957.22-4.823-1.985-4.823a2.026,2.026,0,0,0-1.819,1.433,8.735,8.735,0,0,0-.5,3.39v9.619a.626.626,0,0,1-.606.662" transform="translate(-269.762 -213.543)" fill="#fff" fill-rule="evenodd"></path><path id="Fill-13" d="M192.751,238.284a.711.711,0,0,1-.8.083,8.78,8.78,0,0,1-1.957-2.26,6.759,6.759,0,0,1-5.6,2.481c-2.867,0-5.1-1.764-5.1-5.32a5.783,5.783,0,0,1,3.611-5.568,23.835,23.835,0,0,1,6.395-1.185v-.441a4.52,4.52,0,0,0-.413-2.481,2.249,2.249,0,0,0-1.9-.882,2.578,2.578,0,0,0-2.729,2.04.734.734,0,0,1-.579.634l-3.28-.358a.586.586,0,0,1-.5-.717c.744-4.024,4.355-5.209,7.607-5.209a7.69,7.69,0,0,1,5.127,1.709c1.654,1.544,1.488,3.611,1.488,5.871V232a4.68,4.68,0,0,0,1.3,3.17.647.647,0,0,1,0,.91c-.744.524-1.985,1.6-2.674,2.205Zm-3.418-8.324a6.759,6.759,0,0,1-.634,3.611,2.762,2.762,0,0,1-2.343,1.544c-1.3,0-2.067-.992-2.067-2.481,0-2.894,2.591-3.445,5.044-3.445Z" transform="translate(-135.971 -213.615)" fill="#fff" fill-rule="evenodd"></path><path id="Fill-15" d="M35.551,238.211a.711.711,0,0,1-.8.083,8.779,8.779,0,0,1-1.957-2.26,6.759,6.759,0,0,1-5.6,2.481c-2.867,0-5.1-1.764-5.1-5.32a5.783,5.783,0,0,1,3.611-5.568,23.837,23.837,0,0,1,6.395-1.185V226a4.52,4.52,0,0,0-.413-2.481,2.249,2.249,0,0,0-1.9-.882,2.578,2.578,0,0,0-2.729,2.04.734.734,0,0,1-.579.634l-3.28-.358a.586.586,0,0,1-.5-.717c.744-4.024,4.355-5.237,7.58-5.237a7.69,7.69,0,0,1,5.127,1.709c1.654,1.544,1.488,3.611,1.488,5.871v5.32a4.68,4.68,0,0,0,1.3,3.17.647.647,0,0,1,0,.91c-.717.551-1.957,1.626-2.646,2.233Zm-3.418-8.324A6.76,6.76,0,0,1,31.5,233.5a2.762,2.762,0,0,1-2.343,1.544c-1.3,0-2.067-.992-2.067-2.481,0-2.894,2.591-3.445,5.044-3.445Z" transform="translate(-22.1 -213.543)" fill="#fff" fill-rule="evenodd"></path><path id="Fill-17" d="M497.927,209.619a7.061,7.061,0,0,0-1.378,4.658,7.6,7.6,0,0,0,1.323,4.713,5.389,5.389,0,0,0,4.52,1.957,5.257,5.257,0,0,0,4.355-1.929,7.126,7.126,0,0,0,1.378-4.52v-.331a7.1,7.1,0,0,0-1.544-4.686,5.084,5.084,0,0,0-4.052-1.792,5.5,5.5,0,0,0-4.6,1.929m13.01-9.7v22.105a.621.621,0,0,1-.661.579h-1.351a.651.651,0,0,1-.689-.606v-2.122a6.726,6.726,0,0,1-6.174,3.17,8.03,8.03,0,0,1-6.367-2.646,9.014,9.014,0,0,1-2.095-6.174,8.75,8.75,0,0,1,2.095-6.036,7.668,7.668,0,0,1,6.229-2.674,6.791,6.791,0,0,1,6.147,3.5v-9.206a.651.651,0,0,1,.689-.606h1.433a.755.755,0,0,1,.744.717" transform="translate(-363.641 -199.2)" fill="#fff" fill-rule="evenodd"></path><path id="Fill-33" d="M443.214,230.053a4.667,4.667,0,0,1-1.874,3.611,6.5,6.5,0,0,1-4.327,1.626,4.2,4.2,0,0,1-2.591-.772,2.438,2.438,0,0,1-.965-1.985c0-2.536,1.929-3.8,5.788-3.886l3.969-.055Zm1.13-9.1c-1.213-1.323-3-1.957-5.457-1.957a11.754,11.754,0,0,0-2.04.165h0a11.9,11.9,0,0,0-4.6,1.764.494.494,0,0,0-.193.634l.5,1.02a.5.5,0,0,0,.689.221,16.542,16.542,0,0,1,4.107-1.488,7.16,7.16,0,0,1,1.378-.11c3,0,4.493,1.461,4.493,4.382v.91l-4.134.055c-2.591.028-4.6.386-6.009,1.351a5.191,5.191,0,0,0-2.37,4.631,4.392,4.392,0,0,0,1.6,3.5,6.1,6.1,0,0,0,4.134,1.323,8.584,8.584,0,0,0,4.3-1.075,7.682,7.682,0,0,0,2.618-2.343v2.288a.671.671,0,0,0,.661.662H445.2a.671.671,0,0,0,.662-.662V225.67a6.74,6.74,0,0,0-1.516-4.713Z" transform="translate(-318.078 -213.543)" fill="#fff" fill-rule="evenodd"></path><path id="Fill-35" d="M564.4,234.232a.5.5,0,0,1,.772-.413A8.318,8.318,0,0,0,569.5,235c2.425,0,4.079-.8,4.079-2.37a2.05,2.05,0,0,0-.8-1.654,16.879,16.879,0,0,0-3.666-1.544,9.007,9.007,0,0,1-3.8-2.315,4.454,4.454,0,0,1-.882-2.756,4.589,4.589,0,0,1,1.984-3.859,8.225,8.225,0,0,1,4.879-1.406,11.074,11.074,0,0,1,3.859.8.507.507,0,0,1,.331.469v1.792a.5.5,0,0,1-.744.441,8.513,8.513,0,0,0-3.749-.992,5.473,5.473,0,0,0-2.729.634,2.344,2.344,0,0,0-1.075,1.847,1.992,1.992,0,0,0,.689,1.626,18.561,18.561,0,0,0,3.418,1.488,10.267,10.267,0,0,1,4,2.26,4.2,4.2,0,0,1,1.047,2.894,4.346,4.346,0,0,1-1.984,3.776,8.9,8.9,0,0,1-5.154,1.378,10.887,10.887,0,0,1-4.493-.882.483.483,0,0,1-.3-.469Z" transform="translate(-414.926 -213.615)" fill="#fff" fill-rule="evenodd"></path></g></g></g></g></g></g></g><g id="Rectangle_1039" data-name="Rectangle 1039" transform="translate(3631 -8157)" fill="none" stroke="#fff" stroke-width="1"><rect width="206" height="79" stroke="none"></rect><rect x="0.5" y="0.5" width="205" height="78" fill="none"></rect></g></g></svg> 