<?xml version="1.0" encoding="UTF-8"?> <svg xmlns="http://www.w3.org/2000/svg" width="136.797" height="77.958" viewBox="0 0 136.797 77.958"><g id="Group_4156" data-name="Group 4156" transform="translate(0.5 0.5)"><rect id="Rectangle_482" data-name="Rectangle 482" width="135.797" height="76.958" fill="none" stroke="#fff" stroke-width="1"></rect><line id="Line_130" data-name="Line 130" y2="76.599" transform="translate(68.783 0.782)" fill="none" stroke="#fff" stroke-width="1"></line><path id="BBB-Logo" d="M179.687,193.041a.918.918,0,0,1,.708.3.971.971,0,0,1,.3.708,1.046,1.046,0,0,1-.3.741.971.971,0,0,1-.708.3.918.918,0,0,1-.708-.3.991.991,0,0,1-.3-.741A1.036,1.036,0,0,1,179.687,193.041Zm0,.134a.925.925,0,0,0-.877.877.987.987,0,0,0,.27.641.818.818,0,0,0,1.213,0,.863.863,0,0,0,.27-.641.844.844,0,0,0-.27-.607.789.789,0,0,0-.607-.27Zm-31.351-11.529a4.777,4.777,0,0,1,3.506,1.146,3.3,3.3,0,0,1-.877,5.159,3.35,3.35,0,0,1,2.5,3.27c0,2.292-1.854,3.574-4.69,3.641H142.2V181.614h6.136Zm12.506,0a4.777,4.777,0,0,1,3.506,1.146,3.3,3.3,0,0,1-.877,5.159,3.35,3.35,0,0,1,2.5,3.27c0,2.292-1.854,3.574-4.69,3.641h-6.577V181.614h6.136Zm12.54,0a4.777,4.777,0,0,1,3.506,1.146,3.3,3.3,0,0,1-.877,5.159,3.35,3.35,0,0,1,2.5,3.27c0,2.292-1.854,3.574-4.69,3.641h-6.573V181.614h6.136Zm6.3,11.867a.748.748,0,0,1,.3.034.267.267,0,0,1,.169.27.313.313,0,0,1-.1.236c-.034.034-.1.034-.169.067h0c.1,0,.134.067.2.1.034.067.067.1.067.169v.2h-.169v-.134a.331.331,0,0,0-.1-.27c-.034-.034-.1-.034-.236-.034h-.169v.438h-.2v-1.113h.4Zm-31.216-4.046h-3.506v2.9h3.506c1.251,0,2.124-.5,2.124-1.382s-.641-1.518-2.124-1.518Zm12.506,0H157.47v2.9h3.506c1.251,0,2.124-.5,2.124-1.382s-.607-1.518-2.123-1.518Zm12.406,0h-3.37v2.9h3.472c1.251,0,1.988-.5,1.988-1.382.034-.879-.6-1.518-2.089-1.518Zm-25.418-5.159h-3v2.764h2.764c1.251,0,2.124-.37,2.124-1.382.008-.875-.639-1.382-1.887-1.382Zm12.506,0h-3v2.764h2.764c1.251,0,2.124-.37,2.124-1.382.008-.875-.639-1.382-1.887-1.382Zm12.506,0H170.11v2.764h2.629c1.251,0,2.124-.37,2.124-1.382.008-.875-.638-1.382-1.885-1.382Zm-1.484-11.36.843,2.658h-5.967l-1.113,3.775h-9.877l-1.113-3.775H148.3l.843-2.658Zm-15.945-19.317.782.641a1.593,1.593,0,0,0,.27,2.09l.169.134h0l5.057,3.675a5.9,5.9,0,0,1,1.988,2.97,6.253,6.253,0,0,1-.169,3.574c-.1.236-.236.469-.338.708l-.2.338-2.865,3.908-.81-.674c.034-.034.067-.067.067-.1.034-.067.067-.1.1-.169a1.029,1.029,0,0,0,.1-.81c0-.067-.034-.1-.034-.169v-.034h0c0-.034-.034-.067-.067-.1l-.034-.067h0l-.034-.067-.067-.1-.3-.3-.067-.067-5.226-3.742a5.8,5.8,0,0,1-2.124-3.539,7.056,7.056,0,0,1-.034-.843,5.538,5.538,0,0,1,.81-3.034l.2-.3,2.056-2.764Zm4.69-17.732.641.5a2.173,2.173,0,0,0-.37,1.752,2.331,2.331,0,0,0,.81,1.349l.169.134,8.129,5.94a7.749,7.749,0,0,1,3.136,5.057,7.558,7.558,0,0,1-1.146,5.495l-.236.3-5.407,7.446-.741-.539a4.232,4.232,0,0,0,.574-1.213l.067-.2.067-.27a5.1,5.1,0,0,0,.067-1.011l-.034-.236v-.067a3.288,3.288,0,0,0-.2-.782c0-.034,0-.034-.034-.067h0a4.273,4.273,0,0,0-1.18-1.618l-.236-.169-6.742-4.921a7.749,7.749,0,0,1-3.136-5.057,3.938,3.938,0,0,1-.134-1.251,7.413,7.413,0,0,1,1.251-4.18l.236-.338Z" transform="translate(-125.994 -128.136)" fill="#fff"></path><g id="Group_4155" data-name="Group 4155" transform="translate(78.541 6.264)"><path id="Path_6305" data-name="Path 6305" d="M-196.684,676.59H-200.5a.422.422,0,0,1-.411-.38,3.465,3.465,0,0,0-.209-.528c-.008-.019-.028-.036-.028-.055a.736.736,0,0,0-.12-.375,3.113,3.113,0,0,1-.144-.452,3.448,3.448,0,0,1-.209-.51c-.033-.17-.188-.281-.172-.48.009-.119-.113-.245-.177-.369-.014-.027-.053-.048-.053-.074a1.624,1.624,0,0,0-.111-.383,3.861,3.861,0,0,0-.253-.589c-.074-.183-.1-.383-.156-.571a3.682,3.682,0,0,0-.156-.364c-.033-.078-.064-.156-.094-.236-.059-.156-.114-.313-.175-.469s-.127-.33-.2-.492-.156-.331-.227-.5a.275.275,0,0,1-.019-.042,1.706,1.706,0,0,0-.142-.469c-.131-.2-.122-.449-.25-.636s-.139-.438-.253-.633a.3.3,0,0,0-.267-.181h-15.1c-.156,0-.425.224-.421.374,0,.207-.156.343-.191.525,0,.034-.036.064-.045.1-.052.183-.088.371-.156.547-.1.256-.225.5-.335.755a1.483,1.483,0,0,0-.033.156,2.089,2.089,0,0,1-.077.2c-.009.023-.041.042-.042.064a2.581,2.581,0,0,1-.11.386,3.472,3.472,0,0,1-.156.455,4.145,4.145,0,0,1-.22.509c0,.014-.019.03-.017.044a1.15,1.15,0,0,1-.23.6c-.02.039-.011.092-.025.136a1.965,1.965,0,0,1-.075.2c-.009.023-.044.044-.042.062a1.1,1.1,0,0,1-.125.456,5.032,5.032,0,0,1-.236.65,2.912,2.912,0,0,0-.156.447,1.025,1.025,0,0,1-.061.139c-.014.028-.052.052-.052.077,0,.313-.235.539-.28.839a2.3,2.3,0,0,1-.217.525c-.008.019-.011.041-.017.06-.047.147-.089.3-.147.441a.169.169,0,0,1-.127.066c-.12.009-.241,0-.361,0h-7.182c-.088,0-.231-.016-.25-.064a.366.366,0,0,1,.053-.364,1.9,1.9,0,0,0,.177-.447c.022-.056.041-.114.064-.17s.05-.061.052-.094a.985.985,0,0,1,.245-.558.072.072,0,0,0,.017-.042c-.03-.324.241-.553.266-.863,0-.081.077-.156.113-.236.078-.177.156-.352.23-.533.058-.156.092-.313.156-.456s.156-.335.224-.505c.058-.144.1-.3.147-.444V671.8c.166-.136.08-.372.22-.535a1.272,1.272,0,0,0,.156-.444c.009-.03,0-.069.016-.091a1.447,1.447,0,0,0,.25-.611,1.346,1.346,0,0,1,.181-.35c.012-.023.038-.044.039-.066a1.8,1.8,0,0,1,.244-.625c.111-.273.181-.563.281-.841.063-.174.156-.335.225-.507s.094-.313.148-.469c.036-.1.086-.2.13-.3.072-.156.145-.324.216-.488a.326.326,0,0,0,.028-.119.32.32,0,0,1,.092-.25.559.559,0,0,0,.141-.313,1.706,1.706,0,0,1,.244-.607,4.845,4.845,0,0,0,.156-.469c.069-.177.156-.347.227-.522.017-.042,0-.094.022-.138a1.364,1.364,0,0,1,.078-.189q.086-.156.156-.321c.056-.156.083-.313.139-.469s.156-.334.22-.5.094-.313.156-.461.116-.256.178-.383c.011-.023.041-.039.047-.061.053-.186.092-.375.156-.558a3.411,3.411,0,0,1,.177-.384c.016-.033.058-.06.058-.089a2.611,2.611,0,0,1,.239-.658,2.09,2.09,0,0,1,.256-.561.107.107,0,0,0,.017-.059,1.016,1.016,0,0,1,.227-.552.55.55,0,0,0,.027-.1c.03-.089.061-.178.094-.266,0-.014.025-.03.022-.039-.053-.187.108-.313.148-.469a4.362,4.362,0,0,1,.211-.509c.056-.142.1-.291.156-.433s.114-.272.17-.41c.03-.072.052-.146.08-.216.073-.188.156-.375.222-.563.056-.156.1-.313.156-.455s.119-.267.181-.4c.012-.028.045-.047.055-.075.052-.156.089-.313.156-.469s.156-.334.225-.5c.016-.036,0-.083.02-.122a2.465,2.465,0,0,1,.092-.23,1.239,1.239,0,0,0,.139-.3,1.1,1.1,0,0,1,.139-.41c.156-.258.124-.594.338-.832a.141.141,0,0,0,.033-.086,1.149,1.149,0,0,1,.219-.536.948.948,0,0,0,.041-.148c.025-.07.055-.139.084-.206.008-.019.036-.037.033-.052-.048-.191.108-.313.156-.485a4.467,4.467,0,0,1,.217-.494c.058-.156.091-.313.149-.461s.122-.258.184-.385c.014-.028.052-.052.05-.077,0-.313.227-.553.286-.855a3.722,3.722,0,0,1,.325-.75.155.155,0,0,0,.02-.058,1.282,1.282,0,0,1,.224-.561,1.263,1.263,0,0,0,.037-.156c.022-.066.049-.131.077-.2.009-.023.041-.044.041-.064a1.394,1.394,0,0,1,.244-.625c.067-.142.091-.313.149-.455a3.99,3.99,0,0,0,.216-.516c.038-.164.177-.278.167-.469,0-.127.109-.258.167-.388.025-.056.044-.116.066-.172s.056-.139.086-.209c.008-.019.031-.036.031-.053,0-.281.2-.483.275-.735a4.22,4.22,0,0,1,.222-.5.179.179,0,0,0,.016-.075,1.208,1.208,0,0,1,.216-.525c0-.014.027-.028.025-.039-.045-.191.114-.313.156-.483a3.137,3.137,0,0,1,.214-.5.145.145,0,0,0,.02-.058,1.052,1.052,0,0,1,.22-.578.137.137,0,0,0,.023-.058,1.351,1.351,0,0,1,.225-.577.252.252,0,0,0,.023-.073,2.222,2.222,0,0,1,.247-.686c.063-.114.091-.248.156-.359a.238.238,0,0,1,.177-.084h7.638c.233,0,.313.07.391.289a3.989,3.989,0,0,1,.217.521c.031.166.188.272.166.469-.013.106.092.227.144.342.033.077.066.156.1.23a1.524,1.524,0,0,0,.156.39.359.359,0,0,1,.092.25.18.18,0,0,0,.009.077c.113.247.234.489.341.738.064.149.1.313.156.458s.13.273.2.41c.009.019.03.033.034.052.047.156.08.324.139.478s.156.33.224.5.1.313.156.469.122.313.186.469.13.3.2.449.147.32.213.484.111.313.17.469c.049.124.1.244.156.367.031.078.056.156.089.238q.086.208.18.413c.013.027.048.045.056.072.048.156.081.32.138.469s.148.322.216.488.108.3.156.45a2.858,2.858,0,0,0,.156.38c.072.17.156.341.224.511s.147.352.216.53c.1.253.191.508.288.761a.588.588,0,0,0,.056.106c.019.03.053.055.063.086a2.417,2.417,0,0,0,.144.469c.119.209.134.458.258.655a5.709,5.709,0,0,1,.235.616c.12.247.242.494.353.745.059.135.092.283.147.419.109.269.227.535.341.8.011.023.031.047.031.07a1.072,1.072,0,0,0,.239.6.156.156,0,0,1,.019.075.994.994,0,0,0,.22.536.115.115,0,0,1,.027.056,1.067,1.067,0,0,0,.234.585.1.1,0,0,1,.019.058.965.965,0,0,0,.224.555.8.8,0,0,1,.033.1c.07.174.142.346.213.519.009.023.031.047.033.07a1.434,1.434,0,0,0,.233.58,4.287,4.287,0,0,1,.144.406c.077.2.156.4.236.6.056.156.1.313.156.469a2.987,2.987,0,0,0,.156.333,1.312,1.312,0,0,1,.225.55,1.094,1.094,0,0,0,.156.35c.031.066.061.133.088.2s.047.131.073.2c.009.023.042.042.042.064a1.391,1.391,0,0,0,.247.61c.059.125.086.266.139.394.117.288.244.571.359.858.058.147.094.3.156.45.069.181.156.358.22.541.058.156.1.313.156.457s.12.256.183.383c.017.037.056.07.059.106a1.223,1.223,0,0,0,.233.575.135.135,0,0,1,.023.073,1.154,1.154,0,0,0,.211.521.3.3,0,0,1,.042.1,1.406,1.406,0,0,0,.217.539,3.8,3.8,0,0,1,.156.449,4.857,4.857,0,0,0,.272.725c.111.2.134.422.235.625.061.119.136.231.2.346.008.012.028.025.027.038a.662.662,0,0,0,.139.439,1.217,1.217,0,0,1,.072.142c.017.031.05.059.052.091a1.182,1.182,0,0,0,.233.574.18.18,0,0,1,.022.089,1.086,1.086,0,0,0,.213.514c.012.022.034.045.036.069a.717.717,0,0,0,.114.36,3.024,3.024,0,0,1,.156.445,3.888,3.888,0,0,0,.2.382c0,.014.023.023.028.037.048.169.091.339.145.506a3.4,3.4,0,0,0,.156.414,1.537,1.537,0,0,1,.225.538,1.229,1.229,0,0,0,.156.358l.089.2c.066.156.13.3.2.453.009.023.042.041.044.063a1.614,1.614,0,0,0,.242.611,4.044,4.044,0,0,1,.145.419c.075.2.156.392.236.585.058.131,0,.227-.166.227h-3.928Zm-15.3-15.124h5.043c.127,0,.258-.156.22-.258-.13-.375-.253-.752-.4-1.124-.22-.58-.469-1.152-.68-1.732-.192-.511-.361-1.03-.547-1.543-.164-.452-.339-.9-.51-1.348-.1-.269-.2-.539-.3-.807-.178-.469-.363-.938-.539-1.407-.119-.313-.224-.639-.339-.957-.136-.372-.281-.741-.419-1.113q-.336-.9-.668-1.8c-.156-.414-.3-.83-.456-1.251-.08-.214-.17-.425-.253-.639-.045-.114-.145-.092-.228-.081-.058.008-.142.044-.156.089q-.272.7-.525,1.407c-.127.353-.236.713-.366,1.066-.1.272-.225.535-.325.807s-.189.574-.294.855c-.241.652-.494,1.3-.73,1.951-.144.4-.261.8-.4,1.2s-.313.822-.469,1.237c-.141.377-.274.757-.411,1.135l-1.076,2.939a.188.188,0,0,1-.017.061c-.108.3-.2.61-.328.905-.113.264-.05.389.233.389Z" transform="translate(230.838 -638.216)" fill="#fff"></path><path id="Path_6306" data-name="Path 6306" d="M-69.744,669.476h-2.618c-.2,0-.214-.013-.214-.219v-3.283c0-.2.009-.214.219-.214h5.129a.539.539,0,0,0,.184-.069c.017,0,.033-.034.048-.034.208,0,.18-.136.18-.269V660.3a.3.3,0,0,1,.285-.292h2.894a.981.981,0,0,1,.378.156c.027.014.036.081.036.125v5.22a.272.272,0,0,0,.266.252h5.3c.138-.013.189.045.189.186v3.322c0,.183-.014.2-.2.2H-62.88c-.252,0-.344.1-.345.349v5.19c0,.2-.014.213-.2.213h-3.184c-.186,0-.2-.016-.2-.2v-5.267a.276.276,0,0,0-.079-.2.277.277,0,0,0-.2-.083H-69.74Z" transform="translate(106.782 -654.793)" fill="#fff"></path><g id="Group_4154" data-name="Group 4154" transform="translate(0.956 43.402)"><path id="Path_6307" data-name="Path 6307" d="M-233.2,843.887c0-1.319-.033-2.445-.092-3.483h1.782l.078,2.189h.072a3.394,3.394,0,0,1,3.114-2.448,2.3,2.3,0,0,1,.566.058v1.912a3.217,3.217,0,0,0-.691-.06,2.84,2.84,0,0,0-2.722,2.6,5.4,5.4,0,0,0-.081.949v5.973H-233.2Z" transform="translate(233.293 -835.979)" fill="#fff"></path><path id="Path_6308" data-name="Path 6308" d="M-203.05,851.582l-.18-1.407h-.061a4.159,4.159,0,0,1-3.42,1.666,3.189,3.189,0,0,1-2.41-.856,3.189,3.189,0,0,1-1.006-2.352c0-2.707,2.4-4.2,6.722-4.164v-.238a2.3,2.3,0,0,0-.646-1.91,2.3,2.3,0,0,0-1.9-.67,5.445,5.445,0,0,0-2.912.833l-.469-1.352a7.034,7.034,0,0,1,3.691-.98c3.417,0,4.25,2.337,4.25,4.576v4.183a17.474,17.474,0,0,0,.169,2.676Zm-.313-5.709c-2.2-.047-4.719.349-4.719,2.51a1.79,1.79,0,0,0,.5,1.41,1.79,1.79,0,0,0,1.4.537,2.8,2.8,0,0,0,2.725-1.876,2.115,2.115,0,0,0,.1-.641Z" transform="translate(215.64 -835.974)" fill="#fff"></path><path id="Path_6309" data-name="Path 6309" d="M-166.511,827.684V830.9h2.922v1.54h-2.922v6.025c0,1.393.4,2.179,1.538,2.179a4.044,4.044,0,0,0,1.179-.147l.092,1.544a5.193,5.193,0,0,1-1.816.28,2.845,2.845,0,0,1-2.188-.861,4.279,4.279,0,0,1-.782-2.917v-6.1h-1.732V830.9h1.732v-2.692Z" transform="translate(185.231 -826.477)" fill="#fff"></path><path id="Path_6310" data-name="Path 6310" d="M-136.043,823.871a1.225,1.225,0,0,1-.368.916,1.224,1.224,0,0,1-.924.347,1.212,1.212,0,0,1-.885-.367,1.213,1.213,0,0,1-.342-.9,1.235,1.235,0,0,1,.361-.9,1.235,1.235,0,0,1,.9-.361,1.218,1.218,0,0,1,.9.359,1.218,1.218,0,0,1,.353.905Zm-2.271,14.341v-11.18h2.023v11.18Z" transform="translate(161.09 -822.606)" fill="#fff"></path><path id="Path_6311" data-name="Path 6311" d="M-119.928,843.423c0-1.166-.038-2.093-.092-3.02h1.8l.113,1.839h.056a4.125,4.125,0,0,1,3.7-2.093c1.535,0,3.939.924,3.939,4.765v6.67h-2.023v-6.445c0-1.807-.682-3.322-2.584-3.322a2.926,2.926,0,0,0-2.739,2.087,3.149,3.149,0,0,0-.141.938v6.738h-2.023Z" transform="translate(146.956 -835.977)" fill="#fff"></path><path id="Path_6312" data-name="Path 6312" d="M-63.484,840.411c-.056.789-.094,1.7-.094,3.059v6.492c0,2.589-.528,4.14-1.6,5.12a6.012,6.012,0,0,1-4.074,1.341,7.214,7.214,0,0,1-3.732-.92l.51-1.563a6.292,6.292,0,0,0,3.291.9c2.076,0,3.6-1.086,3.6-3.917v-1.251h-.047a3.964,3.964,0,0,1-3.553,1.876,5,5,0,0,1-3.558-1.712,5,5,0,0,1-1.208-3.759c0-3.791,2.465-5.928,5.048-5.928a3.714,3.714,0,0,1,3.488,1.929h.047l.084-1.674Zm-2.115,4.4a3.127,3.127,0,0,0-.113-.91,2.937,2.937,0,0,0-2.856-2.163c-1.94,0-3.33,1.64-3.33,4.24,0,2.189,1.13,4.027,3.309,4.027a2.97,2.97,0,0,0,2.829-2.1,3.617,3.617,0,0,0,.156-1.082Z" transform="translate(111.837 -835.983)" fill="#fff"></path></g></g></g></svg> 