<?xml version="1.0" encoding="UTF-8"?> <svg xmlns="http://www.w3.org/2000/svg" id="Group_4145" data-name="Group 4145" width="93.175" height="78.886" viewBox="0 0 93.175 78.886"><g id="Group_4139" data-name="Group 4139" transform="translate(13.921 65.815)"><path id="Path_3154" data-name="Path 3154" d="M39.828,122.286h2.538a2.542,2.542,0,0,1,1.192.286,2.195,2.195,0,0,1,0,3.911,2.543,2.543,0,0,1-1.192.286H40.974v2.846H39.828Zm2.558,3.4a1.237,1.237,0,0,0,.656-.169,1.145,1.145,0,0,0,.419-1.547,1.1,1.1,0,0,0-.419-.43,1.26,1.26,0,0,0-.656-.164H40.973v2.3Z" transform="translate(-39.828 -122.284)" fill="#fff"></path><path id="Path_3155" data-name="Path 3155" d="M46.44,122.286h2.567a2.535,2.535,0,0,1,1.2.286,2.165,2.165,0,0,1,1.168,1.955,2,2,0,0,1-.476,1.313,2.3,2.3,0,0,1-1.192.773l-.011.051,2.011,2.9v.062H50.379l-1.935-2.866h-.86v2.866H46.44Zm2.549,3.4a1.237,1.237,0,0,0,.869-.326,1.083,1.083,0,0,0,.359-.838,1.166,1.166,0,0,0-1.188-1.157H47.585v2.32Z" transform="translate(-40.555 -122.284)" fill="#fff"></path><path id="Path_3156" data-name="Path 3156" d="M53.248,122.286H57.7v1.1H54.394v2.028h2.979v1.083H54.394v2.028H57.7v1.1H53.248Z" transform="translate(-41.305 -122.284)" fill="#fff"></path><path id="Path_3157" data-name="Path 3157" d="M59.621,122.286h1.547l2.108,5.559h.062l2.108-5.559H67v7.33H65.866v-4.1l.062-1.319h-.062l-2.1,5.424H62.85l-2.1-5.426h-.062l.062,1.319v4.1H59.613Z" transform="translate(-42.006 -122.284)" fill="#fff"></path><path id="Path_3158" data-name="Path 3158" d="M69.578,122.286h1.146v7.33H69.578Z" transform="translate(-43.099 -122.284)" fill="#fff"></path><path id="Path_3159" data-name="Path 3159" d="M72.511,122.286h4.45v1.1h-3.3v2.028h2.977v1.083H73.657v2.028h3.3v1.1h-4.45Z" transform="translate(-43.422 -122.284)" fill="#fff"></path><path id="Path_3160" data-name="Path 3160" d="M78.881,122.286h2.58a2.53,2.53,0,0,1,1.2.286,2.165,2.165,0,0,1,1.166,1.955,2,2,0,0,1-.473,1.313,2.32,2.32,0,0,1-1.192.773l-.011.051,2.011,2.9v.062H82.826l-1.932-2.866h-.861v2.866H78.887Zm2.549,3.4a1.237,1.237,0,0,0,.869-.326,1.083,1.083,0,0,0,.359-.838,1.163,1.163,0,0,0-1.194-1.157H80.019v2.32Z" transform="translate(-44.122 -122.284)" fill="#fff"></path><path id="Path_3161" data-name="Path 3161" d="M87.759,128.569l1.29-1.295q.964-.968,1.279-1.313a4.192,4.192,0,0,0,.588-.747,1.392,1.392,0,0,0,.155-.687.936.936,0,0,0-.309-.7,1.137,1.137,0,0,0-.829-.3,1.1,1.1,0,0,0-.787.282,1.313,1.313,0,0,0-.394.656l-1.022-.421a2.077,2.077,0,0,1,.384-.725,2.279,2.279,0,0,1,.752-.6,2.32,2.32,0,0,1,1.083-.244,2.509,2.509,0,0,1,1.182.271,1.992,1.992,0,0,1,.8.738,1.955,1.955,0,0,1,.281,1.029,2.335,2.335,0,0,1-.309,1.162,4.718,4.718,0,0,1-.787,1.038q-.206.195-1.035,1.024l-.838.838.022.04h3.05v1.024H87.756Z" transform="translate(-45.099 -122.474)" fill="#fff"></path><path id="Path_3162" data-name="Path 3162" d="M95.156,129.311a3.112,3.112,0,0,1-1.008-1.319,5.09,5.09,0,0,1,0-3.727,3.078,3.078,0,0,1,1.008-1.313,2.629,2.629,0,0,1,3.019,0,3.1,3.1,0,0,1,1,1.313,5.089,5.089,0,0,1,0,3.727,3.112,3.112,0,0,1-1.008,1.319,2.588,2.588,0,0,1-3.019,0Zm2.43-.919a2.165,2.165,0,0,0,.6-.928,4.32,4.32,0,0,0,0-2.656,2.128,2.128,0,0,0-.6-.928,1.42,1.42,0,0,0-1.837,0,2.151,2.151,0,0,0-.6.928,4.3,4.3,0,0,0,0,2.656,2.193,2.193,0,0,0,.6.928,1.392,1.392,0,0,0,1.837,0Z" transform="translate(-45.764 -122.473)" fill="#fff"></path><path id="Path_3163" data-name="Path 3163" d="M101.041,128.569l1.29-1.295q.962-.968,1.279-1.313a4.148,4.148,0,0,0,.588-.747,1.392,1.392,0,0,0,.155-.687.936.936,0,0,0-.309-.7,1.137,1.137,0,0,0-.827-.3,1.1,1.1,0,0,0-.787.281,1.313,1.313,0,0,0-.394.656l-1.022-.421a2.077,2.077,0,0,1,.384-.725,2.289,2.289,0,0,1,.752-.6,2.32,2.32,0,0,1,1.083-.244,2.505,2.505,0,0,1,1.182.271,1.992,1.992,0,0,1,.8.738,1.947,1.947,0,0,1,.281,1.029,2.345,2.345,0,0,1-.309,1.162,4.749,4.749,0,0,1-.787,1.038q-.2.195-1.035,1.024l-.838.838.022.04h3.045v1.024h-4.555Z" transform="translate(-46.559 -122.474)" fill="#fff"></path><path id="Path_6298" data-name="Path 6298" d="M2.814,3.239c1.643,0,2.676-.863,2.676-2.066A1.793,1.793,0,0,0,3.847-.544,1.7,1.7,0,0,0,5.372-2.165c0-1.175-1.018-1.9-2.543-1.9A3.277,3.277,0,0,0,.245-2.949l.636.773A2.451,2.451,0,0,1,2.705-2.96c.784,0,1.431.339,1.431.985s-.619.928-1.462.928c-.275,0-.688,0-.806-.011V.065c.107-.011.509-.022.806-.022,1.018,0,1.568.309,1.568,1.007,0,.646-.54,1.083-1.472,1.083A2.615,2.615,0,0,1,.821,1.279l-.677.815A3.307,3.307,0,0,0,2.814,3.239Z" transform="translate(59.561 4.063)" fill="#fff"></path></g><g id="Group_4141" data-name="Group 4141" transform="translate(0 0)"><g id="Google_Partner-_White" data-name="Google Partner- White" transform="translate(5.941 7.579)"><path id="Path_3125" data-name="Path 3125" d="M89.622,46.437a16.172,16.172,0,0,0-.309-2.813H76.491V48.94h7.19A6.167,6.167,0,0,1,81.091,53.1v3.463h4.45a13.475,13.475,0,0,0,4.08-10.123Z" transform="translate(-35.794 -32.368)" fill="#fff"></path><path id="Path_3126" data-name="Path 3126" d="M69.443,62.8a13.1,13.1,0,0,0,9.09-3.321l-4.45-3.463a8.268,8.268,0,0,1-12.319-4.357H57.189v3.557a13.708,13.708,0,0,0,12.254,7.579Z" transform="translate(-28.788 -35.283)" fill="#fff"></path><path id="Path_3127" data-name="Path 3127" d="M60.934,46.644a8.253,8.253,0,0,1,0-5.231V37.856H56.356a13.787,13.787,0,0,0,0,12.353l4.575-3.557Z" transform="translate(-27.954 -30.272)" fill="#fff"></path><path id="Path_3128" data-name="Path 3128" d="M69.443,31.425a7.424,7.424,0,0,1,5.246,2.057l3.932-3.942a13.147,13.147,0,0,0-9.178-3.585,13.708,13.708,0,0,0-12.254,7.579l4.575,3.557a8.183,8.183,0,0,1,7.679-5.665Z" transform="translate(-28.788 -25.953)" fill="#fff"></path><g id="Layer_3" data-name="Layer 3" transform="translate(0 33.951)"><g id="Group_1459" data-name="Group 1459" transform="translate(0 0)"><g id="Group_4140" data-name="Group 4140"><path id="Path_3130" data-name="Path 3130" d="M29.823,89.816a4.33,4.33,0,0,1-1.6-1.6,4.583,4.583,0,0,1,0-4.512,4.362,4.362,0,0,1,3.812-2.185,4.655,4.655,0,0,1,1.763.333,3.557,3.557,0,0,1,1.36.937l-.724.725a2.629,2.629,0,0,0-1.033-.773,3.438,3.438,0,0,0-1.353-.268,3.4,3.4,0,0,0-1.681.433,3.308,3.308,0,0,0-1.247,1.225,3.777,3.777,0,0,0,0,3.647A3.28,3.28,0,0,0,30.369,89a3.666,3.666,0,0,0,3.106.167,3.214,3.214,0,0,0,.991-.705,2.608,2.608,0,0,0,.5-.8,3.54,3.54,0,0,0,.238-1.039H32.055V85.68h4.086a3.509,3.509,0,0,1,.06.619,4.737,4.737,0,0,1-.244,1.525,3.382,3.382,0,0,1-.795,1.3,4.054,4.054,0,0,1-3.123,1.27,4.344,4.344,0,0,1-2.215-.58Z" transform="translate(-27.531 -81.411)" fill="#fff"></path><path id="Path_3131" data-name="Path 3131" d="M32.008,90.48a4.47,4.47,0,0,1-2.261-.6h0a4.445,4.445,0,0,1-1.632-1.641,4.688,4.688,0,0,1,0-4.617,4.46,4.46,0,0,1,3.9-2.236,4.785,4.785,0,0,1,1.8.339,3.666,3.666,0,0,1,1.392.965l.065.074-.875.875-.073-.09a2.527,2.527,0,0,0-.993-.735,3.343,3.343,0,0,0-1.313-.258,3.308,3.308,0,0,0-1.63.421,3.216,3.216,0,0,0-1.208,1.185,3.675,3.675,0,0,0,0,3.542A3.209,3.209,0,0,0,30.4,88.893a3.568,3.568,0,0,0,3.013.162,3.13,3.13,0,0,0,.959-.684,2.508,2.508,0,0,0,.478-.773,3.413,3.413,0,0,0,.22-.9H31.927V85.555H36.2l.015.085a3.65,3.65,0,0,1,.062.636,4.874,4.874,0,0,1-.255,1.559,3.508,3.508,0,0,1-.82,1.341,4.165,4.165,0,0,1-3.2,1.3Zm0-8.884a4.256,4.256,0,0,0-3.723,2.13,4.485,4.485,0,0,0,0,4.411A4.249,4.249,0,0,0,29.85,89.7h0a4.263,4.263,0,0,0,2.158.569,3.973,3.973,0,0,0,3.047-1.237,3.3,3.3,0,0,0,.773-1.264,4.674,4.674,0,0,0,.244-1.493,3.316,3.316,0,0,0-.045-.515H32.136V86.5h3.155l-.009.113a3.686,3.686,0,0,1-.244,1.069,2.725,2.725,0,0,1-.518.834,3.35,3.35,0,0,1-1.024.735,3.775,3.775,0,0,1-3.2-.169A3.4,3.4,0,0,1,29,87.816a3.881,3.881,0,0,1,0-3.751A3.43,3.43,0,0,1,30.288,82.8a3.624,3.624,0,0,1,3.126-.172,2.773,2.773,0,0,1,1,.708l.575-.574a3.489,3.489,0,0,0-1.256-.838,4.573,4.573,0,0,0-1.725-.331Z" transform="translate(-27.507 -81.39)" fill="#fff"></path><path id="Path_3132" data-name="Path 3132" d="M40.651,90.467A2.974,2.974,0,0,1,39.54,89.3a3.526,3.526,0,0,1,0-3.248,2.985,2.985,0,0,1,1.11-1.165,3.22,3.22,0,0,1,3.208,0,2.991,2.991,0,0,1,1.11,1.165,3.526,3.526,0,0,1,0,3.248,2.98,2.98,0,0,1-1.11,1.165A3.22,3.22,0,0,1,40.651,90.467Zm2.643-.773a2.062,2.062,0,0,0,.773-.8,2.719,2.719,0,0,0,0-2.45,2.066,2.066,0,0,0-.773-.8,2.035,2.035,0,0,0-1.039-.278,2.059,2.059,0,0,0-1.824,1.083,2.713,2.713,0,0,0,0,2.45,2.042,2.042,0,0,0,.773.8,2.068,2.068,0,0,0,1.046.28,2.037,2.037,0,0,0,1.038-.28Z" transform="translate(-29.482 -81.908)" fill="#fff"></path><path id="Path_3133" data-name="Path 3133" d="M42.237,90.978a3.171,3.171,0,0,1-1.658-.439,3.107,3.107,0,0,1-1.149-1.2,3.633,3.633,0,0,1,0-3.355,3.119,3.119,0,0,1,1.149-1.2,3.327,3.327,0,0,1,3.308,0,3.119,3.119,0,0,1,1.149,1.2,3.632,3.632,0,0,1,0,3.355,3.107,3.107,0,0,1-1.149,1.2A3.169,3.169,0,0,1,42.237,90.978Zm0-6.437a2.973,2.973,0,0,0-1.547.413,2.9,2.9,0,0,0-1.072,1.124,3.421,3.421,0,0,0,0,3.155,2.892,2.892,0,0,0,1.072,1.124h0a3.115,3.115,0,0,0,3.093,0,2.887,2.887,0,0,0,1.073-1.124,3.421,3.421,0,0,0,0-3.155,2.9,2.9,0,0,0-1.073-1.124,2.962,2.962,0,0,0-1.547-.418Zm0,5.523a2.165,2.165,0,0,1-1.915-1.134,2.818,2.818,0,0,1,0-2.547,2.165,2.165,0,0,1,3.816,0,2.826,2.826,0,0,1,0,2.547,2.193,2.193,0,0,1-.81.841h0a2.165,2.165,0,0,1-1.09.292Zm0-4.607A1.96,1.96,0,0,0,40.5,86.484a2.611,2.611,0,0,0,0,2.345,1.96,1.96,0,0,0,.735.763,1.989,1.989,0,0,0,1.981,0h0a1.972,1.972,0,0,0,.735-.762,2.618,2.618,0,0,0,0-2.345,1.96,1.96,0,0,0-.735-.762,1.937,1.937,0,0,0-.984-.263Z" transform="translate(-29.46 -81.888)" fill="#fff"></path><path id="Path_3134" data-name="Path 3134" d="M49.159,90.467a2.987,2.987,0,0,1-1.11-1.165,3.526,3.526,0,0,1,0-3.248,3,3,0,0,1,1.11-1.165,3.22,3.22,0,0,1,3.208,0,2.994,2.994,0,0,1,1.11,1.165,3.526,3.526,0,0,1,0,3.248,2.984,2.984,0,0,1-1.111,1.165,3.22,3.22,0,0,1-3.208,0Zm2.643-.773a2.063,2.063,0,0,0,.773-.8,2.72,2.72,0,0,0,0-2.45,2.069,2.069,0,0,0-.773-.8,2.034,2.034,0,0,0-1.039-.278,2.06,2.06,0,0,0-1.824,1.083,2.721,2.721,0,0,0,0,2.45,2.083,2.083,0,0,0,2.861.8Z" transform="translate(-30.924 -81.908)" fill="#fff"></path><path id="Path_3135" data-name="Path 3135" d="M50.742,90.978a3.174,3.174,0,0,1-1.655-.439,3.106,3.106,0,0,1-1.148-1.2,3.625,3.625,0,0,1,0-3.355,3.117,3.117,0,0,1,1.148-1.2,3.327,3.327,0,0,1,3.308,0,3.123,3.123,0,0,1,1.148,1.2,3.625,3.625,0,0,1,0,3.355,3.11,3.11,0,0,1-1.148,1.2,3.17,3.17,0,0,1-1.653.436Zm0-6.437a2.966,2.966,0,0,0-1.547.413,2.9,2.9,0,0,0-1.073,1.124,3.421,3.421,0,0,0,0,3.155A2.886,2.886,0,0,0,49.2,90.358h0a3.115,3.115,0,0,0,3.093,0,2.9,2.9,0,0,0,1.073-1.131,3.421,3.421,0,0,0,0-3.155,2.911,2.911,0,0,0-1.073-1.124,2.968,2.968,0,0,0-1.547-.418Zm0,5.523a2.165,2.165,0,0,1-1.913-1.134,2.818,2.818,0,0,1,0-2.547,2.148,2.148,0,0,1,.817-.841,2.2,2.2,0,0,1,2.189,0,2.173,2.173,0,0,1,.81.841,2.818,2.818,0,0,1,0,2.547,2.187,2.187,0,0,1-.81.841h0A2.152,2.152,0,0,1,50.742,90.064Zm0-4.607a1.96,1.96,0,0,0-1.732,1.027,2.618,2.618,0,0,0,0,2.345,1.96,1.96,0,0,0,.735.762,1.988,1.988,0,0,0,1.98,0h0a1.96,1.96,0,0,0,.735-.762,2.611,2.611,0,0,0,0-2.345,1.96,1.96,0,0,0-.735-.762,1.932,1.932,0,0,0-.982-.263Z" transform="translate(-30.902 -81.888)" fill="#fff"></path><path id="Path_3136" data-name="Path 3136" d="M57.375,92.963a2.437,2.437,0,0,1-.928-1.2l.916-.391a1.814,1.814,0,0,0,.671.851,1.9,1.9,0,0,0,1.11.326,1.96,1.96,0,0,0,1.454-.524,2.039,2.039,0,0,0,.517-1.494v-.677h-.048a2.221,2.221,0,0,1-.837.755A2.549,2.549,0,0,1,59,90.9a2.629,2.629,0,0,1-1.431-.408,2.88,2.88,0,0,1-1.029-1.14,3.839,3.839,0,0,1,0-3.333,2.871,2.871,0,0,1,1.029-1.146A2.629,2.629,0,0,1,59,84.459a2.551,2.551,0,0,1,1.225.292,2.181,2.181,0,0,1,.837.764h.045v-.868h.962v5.82a2.926,2.926,0,0,1-.807,2.227,3.347,3.347,0,0,1-3.89.268ZM60.129,89.7a1.966,1.966,0,0,0,.713-.8,2.648,2.648,0,0,0,.268-1.225,2.679,2.679,0,0,0-.268-1.237,1.89,1.89,0,0,0-2.7-.784,1.96,1.96,0,0,0-.718.795,2.662,2.662,0,0,0-.268,1.225,2.7,2.7,0,0,0,.268,1.237,1.871,1.871,0,0,0,1.715,1.067,1.837,1.837,0,0,0,.99-.274Z" transform="translate(-32.362 -81.91)" fill="#fff"></path><path id="Path_3137" data-name="Path 3137" d="M59.119,93.543a3.063,3.063,0,0,1-1.824-.518,2.547,2.547,0,0,1-.97-1.251l-.031-.091,1.1-.473.039.1a1.723,1.723,0,0,0,.634.8,1.8,1.8,0,0,0,1.052.309,1.856,1.856,0,0,0,1.381-.49,1.949,1.949,0,0,0,.49-1.423v-.422a2.438,2.438,0,0,1-.735.592,2.676,2.676,0,0,1-1.278.309,2.741,2.741,0,0,1-1.486-.424,2.993,2.993,0,0,1-1.064-1.182,3.945,3.945,0,0,1,0-3.43A2.983,2.983,0,0,1,57.5,84.764a2.73,2.73,0,0,1,1.486-.425,2.671,2.671,0,0,1,1.278.309,2.371,2.371,0,0,1,.735.6v-.713h1.171v5.924a3.041,3.041,0,0,1-.84,2.3,3.075,3.075,0,0,1-2.2.793ZM56.553,91.8a2.385,2.385,0,0,0,.857,1.058,2.8,2.8,0,0,0,4.533-2.41V84.723h-.755v.868h-.209l-.031-.048a2.091,2.091,0,0,0-.8-.735,2.464,2.464,0,0,0-1.18-.28,2.53,2.53,0,0,0-1.377.393,2.784,2.784,0,0,0-.991,1.1,3.734,3.734,0,0,0,0,3.236,2.793,2.793,0,0,0,.991,1.1,2.538,2.538,0,0,0,1.377.391,2.45,2.45,0,0,0,1.18-.278,2.143,2.143,0,0,0,.8-.718l.031-.048h.207v.773a2.148,2.148,0,0,1-.546,1.568,2.059,2.059,0,0,1-1.528.555,2,2,0,0,1-1.169-.345,1.919,1.919,0,0,1-.667-.8Zm2.566-1.734a1.97,1.97,0,0,1-1.81-1.123,2.807,2.807,0,0,1-.28-1.284,2.77,2.77,0,0,1,.28-1.282,2.071,2.071,0,0,1,.758-.837,2,2,0,0,1,2.849.824,2.818,2.818,0,0,1,.278,1.291,2.784,2.784,0,0,1-.278,1.278,2.1,2.1,0,0,1-.752.837,1.96,1.96,0,0,1-1.046.3Zm0-4.607a1.776,1.776,0,0,0-.943.263,1.872,1.872,0,0,0-.681.755,2.572,2.572,0,0,0-.257,1.182,2.615,2.615,0,0,0,.257,1.189,1.769,1.769,0,0,0,1.624,1.01,1.742,1.742,0,0,0,.936-.263,1.881,1.881,0,0,0,.674-.756,2.557,2.557,0,0,0,.257-1.182,2.591,2.591,0,0,0-.257-1.2,1.837,1.837,0,0,0-.674-.749,1.774,1.774,0,0,0-.937-.252Z" transform="translate(-32.342 -81.886)" fill="#fff"></path><path id="Path_3138" data-name="Path 3138" d="M65.068,81.743h1.01V90.25h-1.01Z" transform="translate(-33.874 -81.449)" fill="#fff"></path><path id="Path_3139" data-name="Path 3139" d="M66.16,90.329H64.943V81.618H66.16Zm-1.01-.207h.8v-8.3h-.8Z" transform="translate(-33.854 -81.428)" fill="#fff"></path><path id="Path_3140" data-name="Path 3140" d="M69.159,90.481a2.883,2.883,0,0,1-1.075-1.146,3.464,3.464,0,0,1-.385-1.641,3.615,3.615,0,0,1,.368-1.616A2.938,2.938,0,0,1,69.1,84.9a2.741,2.741,0,0,1,1.547-.439,2.914,2.914,0,0,1,1.547.4,2.641,2.641,0,0,1,1,1.1,3.541,3.541,0,0,1,.351,1.6,1.16,1.16,0,0,1-.036.309H68.714a2.4,2.4,0,0,0,.333,1.163,1.929,1.929,0,0,0,.755.713,2.042,2.042,0,0,0,.956.238A1.97,1.97,0,0,0,72.551,88.9l.857.416a3.034,3.034,0,0,1-1.063,1.165,3.2,3.2,0,0,1-3.177.012Zm3.3-3.444a1.965,1.965,0,0,0-.215-.761,1.622,1.622,0,0,0-.6-.64,1.878,1.878,0,0,0-1.029-.261,1.715,1.715,0,0,0-1.2.456,2.206,2.206,0,0,0-.647,1.2Z" transform="translate(-34.321 -81.908)" fill="#fff"></path><path id="Path_3141" data-name="Path 3141" d="M70.694,90.982a3.07,3.07,0,0,1-1.61-.43h0a3,3,0,0,1-1.112-1.186,3.587,3.587,0,0,1-.4-1.694,3.74,3.74,0,0,1,.368-1.661,3.042,3.042,0,0,1,1.064-1.217,2.849,2.849,0,0,1,1.6-.464,3.024,3.024,0,0,1,1.593.414,2.756,2.756,0,0,1,1.042,1.14,3.661,3.661,0,0,1,.368,1.649,1.262,1.262,0,0,1-.04.337l-.02.076H68.8a2.247,2.247,0,0,0,.309,1.005,1.838,1.838,0,0,0,.715.676,1.952,1.952,0,0,0,.909.226,1.856,1.856,0,0,0,1.7-1.041l.048-.084,1.039.5-.049.1a3.166,3.166,0,0,1-1.1,1.2,3.072,3.072,0,0,1-1.673.45Zm-1.5-.619a3.093,3.093,0,0,0,3.062-.011,2.938,2.938,0,0,0,.981-1.03L72.564,89a2.056,2.056,0,0,1-1.837,1.061,2.165,2.165,0,0,1-1.005-.244,2.052,2.052,0,0,1-.795-.752,2.512,2.512,0,0,1-.348-1.213v-.11H73.39a1.255,1.255,0,0,0,.015-.2,3.458,3.458,0,0,0-.339-1.557,2.553,2.553,0,0,0-.964-1.056,2.826,2.826,0,0,0-1.489-.384,2.643,2.643,0,0,0-1.488.422,2.846,2.846,0,0,0-.991,1.134,3.522,3.522,0,0,0-.351,1.57,3.373,3.373,0,0,0,.374,1.593,2.8,2.8,0,0,0,1.036,1.1Zm3.359-3.248H68.62l.025-.122a2.311,2.311,0,0,1,.676-1.257,1.817,1.817,0,0,1,1.276-.49,1.986,1.986,0,0,1,1.083.277,1.715,1.715,0,0,1,.636.682,2.083,2.083,0,0,1,.226.8Zm-3.675-.2h3.449a1.914,1.914,0,0,0-.192-.619,1.525,1.525,0,0,0-.561-.6,1.791,1.791,0,0,0-.973-.244,1.615,1.615,0,0,0-1.135.428,2.065,2.065,0,0,0-.586,1.033Z" transform="translate(-34.3 -81.891)" fill="#fff"></path><path id="Path_3142" data-name="Path 3142" d="M79.123,81.743h2.861a2.784,2.784,0,0,1,1.319.309,2.475,2.475,0,0,1,0,4.394,2.767,2.767,0,0,1-1.319.322H80.121v3.468h-1Zm2.888,4.074a1.547,1.547,0,0,0,.837-.226,1.622,1.622,0,0,0,.563-.582,1.488,1.488,0,0,0,0-1.5,1.622,1.622,0,0,0-.563-.582,1.546,1.546,0,0,0-.837-.226h-1.89v3.112Z" transform="translate(-36.256 -81.449)" fill="#fff"></path><path id="Path_3143" data-name="Path 3143" d="M80.2,90.329H79V81.618h2.966a2.894,2.894,0,0,1,1.369.333,2.577,2.577,0,0,1,0,4.577,2.885,2.885,0,0,1-1.369.333H80.2Zm-1-.207H80V86.654h1.969a2.688,2.688,0,0,0,1.27-.309,2.442,2.442,0,0,0,.928-.857,2.413,2.413,0,0,0,0-2.49,2.442,2.442,0,0,0-.928-.857,2.7,2.7,0,0,0-1.27-.309H79.2ZM81.99,85.9h-2V82.575h1.994a1.669,1.669,0,0,1,.892.244,1.744,1.744,0,0,1,.6.619,1.593,1.593,0,0,1,0,1.593,1.729,1.729,0,0,1-.6.619,1.655,1.655,0,0,1-.892.246ZM80.2,85.692H81.99a1.449,1.449,0,0,0,.781-.209,1.53,1.53,0,0,0,.529-.544,1.392,1.392,0,0,0,0-1.392A1.547,1.547,0,0,0,82.771,83a1.46,1.46,0,0,0-.781-.209H80.2Z" transform="translate(-36.234 -81.428)" fill="#fff"></path><path id="Path_3144" data-name="Path 3144" d="M87.981,90.633a1.961,1.961,0,0,1-.809-.719,1.926,1.926,0,0,1-.285-1.039,1.768,1.768,0,0,1,.724-1.5,2.973,2.973,0,0,1,1.83-.54,4.149,4.149,0,0,1,1.016.122,2.645,2.645,0,0,1,.718.274v-.368a1.369,1.369,0,0,0-.475-1.09,1.771,1.771,0,0,0-1.2-.41,2.02,2.02,0,0,0-.939.221,1.7,1.7,0,0,0-.676.619l-.759-.571a2.431,2.431,0,0,1,.981-.857,3.074,3.074,0,0,1,1.392-.309,2.765,2.765,0,0,1,1.941.646,2.275,2.275,0,0,1,.707,1.763v3.836h-.97v-.866h-.048a2.175,2.175,0,0,1-.783.749,2.277,2.277,0,0,1-1.175.309A2.629,2.629,0,0,1,87.981,90.633Zm2.233-.891a1.986,1.986,0,0,0,.7-.7,1.856,1.856,0,0,0,.263-.962,2.535,2.535,0,0,0-.7-.309,3.2,3.2,0,0,0-.88-.122,1.935,1.935,0,0,0-1.253.345,1.094,1.094,0,0,0-.421.891.99.99,0,0,0,.38.807,1.476,1.476,0,0,0,.962.309,1.83,1.83,0,0,0,.947-.257Z" transform="translate(-37.573 -81.908)" fill="#fff"></path><path id="Path_3145" data-name="Path 3145" d="M89.149,90.979a2.725,2.725,0,0,1-1.237-.272h0a2.066,2.066,0,0,1-.851-.756,2.041,2.041,0,0,1-.3-1.1,1.876,1.876,0,0,1,.773-1.585,3.093,3.093,0,0,1,1.892-.561,4.247,4.247,0,0,1,1.041.122,3.272,3.272,0,0,1,.589.2v-.195a1.253,1.253,0,0,0-.439-1.008,1.67,1.67,0,0,0-1.131-.385,1.918,1.918,0,0,0-.891.209,1.615,1.615,0,0,0-.637.575l-.06.094-.928-.7.053-.08a2.541,2.541,0,0,1,1.016-.885,3.2,3.2,0,0,1,1.429-.32,2.875,2.875,0,0,1,2.011.674,2.382,2.382,0,0,1,.735,1.837v3.935H91.044v-.707a2.417,2.417,0,0,1-.674.574,2.383,2.383,0,0,1-1.216.328Zm.274-4.069a2.885,2.885,0,0,0-1.766.52,1.653,1.653,0,0,0-.682,1.418,1.827,1.827,0,0,0,.269.981,1.856,1.856,0,0,0,.773.681h0a2.533,2.533,0,0,0,1.14.244,2.181,2.181,0,0,0,1.123-.294,2.084,2.084,0,0,0,.747-.711l.029-.049h.21v.866h.755V86.85a2.182,2.182,0,0,0-.674-1.687,2.677,2.677,0,0,0-1.871-.619,2.986,2.986,0,0,0-1.338.3,2.351,2.351,0,0,0-.883.735l.594.445a1.825,1.825,0,0,1,.654-.557,2.133,2.133,0,0,1,.981-.23,1.882,1.882,0,0,1,1.268.435,1.471,1.471,0,0,1,.51,1.166v.555l-.155-.1a2.551,2.551,0,0,0-.69-.261,4.061,4.061,0,0,0-.995-.122Zm-.179,3.171a1.582,1.582,0,0,1-1.029-.333,1.083,1.083,0,0,1-.418-.886,1.2,1.2,0,0,1,.464-.97,2.045,2.045,0,0,1,1.318-.368,3.317,3.317,0,0,1,.908.122,2.629,2.629,0,0,1,.735.322l.046.031v.056a1.961,1.961,0,0,1-.275,1.015,2.1,2.1,0,0,1-.735.735h0a1.938,1.938,0,0,1-1.01.28Zm.333-2.351a1.856,1.856,0,0,0-1.186.322.99.99,0,0,0-.384.81.886.886,0,0,0,.342.727,1.392,1.392,0,0,0,.9.286,1.735,1.735,0,0,0,.9-.244,1.9,1.9,0,0,0,.664-.664,1.762,1.762,0,0,0,.244-.857,2.484,2.484,0,0,0-.619-.266,3.13,3.13,0,0,0-.855-.107Z" transform="translate(-37.553 -81.889)" fill="#fff"></path><path id="Path_3146" data-name="Path 3146" d="M94.7,84.431h.964V85.4h.048a1.644,1.644,0,0,1,.724-.832,2.188,2.188,0,0,1,1.117-.3,2.25,2.25,0,0,1,.432.043v1.033a2.49,2.49,0,0,0-.546-.048,1.646,1.646,0,0,0-1.253.51,1.856,1.856,0,0,0-.481,1.33V90.5h-1Zm6.146,6.032a1.547,1.547,0,0,1-.529-.326,1.518,1.518,0,0,1-.356-.534,2.032,2.032,0,0,1-.122-.735V85.256H98.782V84.34h1.058V82.625h1.01V84.34h1.471v.916h-1.471v3.375a1.214,1.214,0,0,0,.19.752.8.8,0,0,0,.653.268,1.237,1.237,0,0,0,.665-.2v.988a1.523,1.523,0,0,1-.368.122,2.508,2.508,0,0,1-.464.036,1.888,1.888,0,0,1-.679-.127Z" transform="translate(-38.892 -81.601)" fill="#fff"></path><path id="Path_3147" data-name="Path 3147" d="M101.5,90.671a2.028,2.028,0,0,1-.721-.122,1.685,1.685,0,0,1-.563-.35,1.619,1.619,0,0,1-.38-.569,2.12,2.12,0,0,1-.122-.773V85.338H98.659V84.215H99.72V82.5h1.217v1.715h1.471v1.123h-1.471v3.271a1.128,1.128,0,0,0,.169.688.7.7,0,0,0,.571.227,1.137,1.137,0,0,0,.619-.186l.155-.1v1.237l-.06.028a1.67,1.67,0,0,1-.387.122A2.594,2.594,0,0,1,101.5,90.671Zm-2.64-5.542h1.058v3.712a1.94,1.94,0,0,0,.11.7,1.406,1.406,0,0,0,.333.49,1.462,1.462,0,0,0,.49.309,1.785,1.785,0,0,0,.645.114,2.4,2.4,0,0,0,.449-.034,1.41,1.41,0,0,0,.28-.085V89.6a1.309,1.309,0,0,1-.561.13.906.906,0,0,1-.735-.309,1.3,1.3,0,0,1-.215-.818V85.129h1.471v-.707h-1.471V82.709h-.8v1.715H98.857Zm-3.076,5.446H94.57V84.311h1.169v.728a1.775,1.775,0,0,1,.619-.583,2.3,2.3,0,0,1,1.169-.309,2.5,2.5,0,0,1,.464.037l.084.017v1.25l-.122-.029a2.378,2.378,0,0,0-.521-.045,1.531,1.531,0,0,0-1.177.478,1.774,1.774,0,0,0-.452,1.259Zm-1.01-.207h.8V87.111a1.972,1.972,0,0,1,.51-1.4,1.752,1.752,0,0,1,1.329-.543,3.3,3.3,0,0,1,.442.026v-.821a2.5,2.5,0,0,0-.334-.02,2.094,2.094,0,0,0-1.064.283,1.533,1.533,0,0,0-.681.773l-.026.065h-.221v-.962h-.764Z" transform="translate(-38.874 -81.58)" fill="#fff"></path><path id="Path_3148" data-name="Path 3148" d="M105.263,84.651h.964v.892h.048a2.032,2.032,0,0,1,.795-.773,2.3,2.3,0,0,1,1.165-.309,2.136,2.136,0,0,1,1.669.636,2.475,2.475,0,0,1,.575,1.729v3.885h-1.01V86.979a1.612,1.612,0,0,0-.4-1.225,1.547,1.547,0,0,0-1.1-.381,1.469,1.469,0,0,0-.874.272,1.827,1.827,0,0,0-.6.718,2.122,2.122,0,0,0-.213.928v3.4h-1.01Z" transform="translate(-40.684 -81.91)" fill="#fff"></path><path id="Path_3149" data-name="Path 3149" d="M110.56,90.778h-1.217V86.957a1.528,1.528,0,0,0-.368-1.148,1.458,1.458,0,0,0-1.033-.351,1.377,1.377,0,0,0-.814.254,1.737,1.737,0,0,0-.566.679,2.042,2.042,0,0,0-.2.888v3.5h-1.217V84.525h1.169v.721a2.329,2.329,0,0,1,.687-.582,2.416,2.416,0,0,1,1.216-.328,2.243,2.243,0,0,1,1.745.67,2.583,2.583,0,0,1,.6,1.8Zm-1.01-.207h.8V86.8a2.388,2.388,0,0,0-.551-1.653,2.045,2.045,0,0,0-1.593-.6,2.205,2.205,0,0,0-1.112.3,1.95,1.95,0,0,0-.758.727l-.029.054H106.1v-.892h-.755v5.849h.8V87.28a2.227,2.227,0,0,1,.224-.981,1.946,1.946,0,0,1,.634-.758,1.585,1.585,0,0,1,.928-.291,1.655,1.655,0,0,1,1.175.408,1.715,1.715,0,0,1,.436,1.3Z" transform="translate(-40.662 -81.89)" fill="#fff"></path><path id="Path_3150" data-name="Path 3150" d="M114.359,90.481a2.887,2.887,0,0,1-1.075-1.146,3.475,3.475,0,0,1-.384-1.641,3.614,3.614,0,0,1,.368-1.616A2.925,2.925,0,0,1,114.3,84.9a2.742,2.742,0,0,1,1.547-.439,2.909,2.909,0,0,1,1.547.4,2.645,2.645,0,0,1,1.005,1.1,3.557,3.557,0,0,1,.351,1.6,1.2,1.2,0,0,1-.036.309h-4.787a2.391,2.391,0,0,0,.333,1.165,1.929,1.929,0,0,0,.755.713,2.038,2.038,0,0,0,.956.238A1.969,1.969,0,0,0,117.76,88.9l.857.416a3.044,3.044,0,0,1-1.064,1.165,3.2,3.2,0,0,1-3.177.012Zm3.308-3.444a1.994,1.994,0,0,0-.215-.761,1.619,1.619,0,0,0-.6-.64,1.873,1.873,0,0,0-1.029-.261,1.7,1.7,0,0,0-1.2.456,2.206,2.206,0,0,0-.646,1.2Z" transform="translate(-41.979 -81.908)" fill="#fff"></path><path id="Path_3151" data-name="Path 3151" d="M115.893,90.982a3.062,3.062,0,0,1-1.609-.43h0a2.991,2.991,0,0,1-1.112-1.186,3.592,3.592,0,0,1-.4-1.694,3.726,3.726,0,0,1,.374-1.661,3.032,3.032,0,0,1,1.063-1.217,2.855,2.855,0,0,1,1.6-.464,3.018,3.018,0,0,1,1.593.415,2.745,2.745,0,0,1,1.042,1.14,3.661,3.661,0,0,1,.368,1.649,1.305,1.305,0,0,1-.039.336l-.02.076H114a2.218,2.218,0,0,0,.309,1.005,1.837,1.837,0,0,0,.713.676,1.949,1.949,0,0,0,.908.226,1.856,1.856,0,0,0,1.7-1.041l.049-.084,1.039.5-.049.1a3.175,3.175,0,0,1-1.1,1.2,3.073,3.073,0,0,1-1.68.452Zm-1.5-.619a3.093,3.093,0,0,0,3.062-.011,2.966,2.966,0,0,0,.981-1.03L117.763,89a2.054,2.054,0,0,1-1.837,1.061,2.156,2.156,0,0,1-1-.244,2.051,2.051,0,0,1-.795-.752,2.518,2.518,0,0,1-.348-1.213v-.11h4.812a1.182,1.182,0,0,0,.015-.2,3.466,3.466,0,0,0-.339-1.557,2.555,2.555,0,0,0-.965-1.056,2.818,2.818,0,0,0-1.489-.384,2.641,2.641,0,0,0-1.488.422,2.83,2.83,0,0,0-.991,1.134,3.53,3.53,0,0,0-.351,1.571,3.378,3.378,0,0,0,.374,1.593,2.8,2.8,0,0,0,1.036,1.1Zm3.359-3.248h-3.932l.026-.122a2.308,2.308,0,0,1,.679-1.259,1.816,1.816,0,0,1,1.276-.49,1.984,1.984,0,0,1,1.083.277,1.721,1.721,0,0,1,.636.682,2.083,2.083,0,0,1,.226.8Zm-3.676-.2h3.449a1.937,1.937,0,0,0-.192-.619,1.522,1.522,0,0,0-.563-.6,1.79,1.79,0,0,0-.971-.244,1.615,1.615,0,0,0-1.135.428,2.069,2.069,0,0,0-.586,1.033Z" transform="translate(-41.957 -81.891)" fill="#fff"></path><path id="Path_3152" data-name="Path 3152" d="M121.321,84.649h.964v.981h.048a1.661,1.661,0,0,1,.688-.832,1.937,1.937,0,0,1,1.069-.332,1.78,1.78,0,0,1,.713.13v1.083a1.9,1.9,0,0,0-.858-.192,1.409,1.409,0,0,0-.806.244,1.793,1.793,0,0,0-.588.674,1.937,1.937,0,0,0-.221.909v3.392h-1.01Z" transform="translate(-43.405 -81.907)" fill="#fff"></path><path id="Path_3153" data-name="Path 3153" d="M122.411,90.786H121.2V84.525h1.169v.727a1.9,1.9,0,0,1,.575-.566,2.048,2.048,0,0,1,1.126-.35,1.885,1.885,0,0,1,.755.139l.062.026v1.325l-.155-.074a1.805,1.805,0,0,0-.81-.179,1.305,1.305,0,0,0-.749.234,1.689,1.689,0,0,0-.554.634,1.837,1.837,0,0,0-.209.857Zm-1.01-.207h.8V87.292a2.049,2.049,0,0,1,.232-.957,1.913,1.913,0,0,1,.619-.71,1.517,1.517,0,0,1,.865-.268,2.057,2.057,0,0,1,.752.135v-.857a1.753,1.753,0,0,0-.619-.1,1.837,1.837,0,0,0-1.012.309,1.565,1.565,0,0,0-.648.773l-.025.068h-.224v-.981h-.755Z" transform="translate(-43.384 -81.888)" fill="#fff"></path></g></g></g></g><g id="Path_6299" data-name="Path 6299"><path id="Path_6292" data-name="Path 6292" d="M0,0,93.175.184v78.7H0Z" transform="translate(0 0)" fill="none"></path><path id="Path_6293" data-name="Path 6293" d="M1.547,1.55V77.333l90.081.007V1.728L1.547,1.55M0,0,93.174.184v78.7L0,78.879Z" transform="translate(0 0)" fill="#fff"></path></g><g id="Path_6300" data-name="Path 6300" transform="translate(0 60.506)"><path id="Path_6294" data-name="Path 6294" d="M0,0,93.175.043V18.379H0Z" transform="translate(0 0)" fill="none"></path><path id="Path_6295" data-name="Path 6295" d="M1.547,1.547V16.831l90.081,0V1.589L1.547,1.547M0,0,93.174.043V18.379L0,18.377Z" transform="translate(0 0)" fill="#fff"></path></g></g></svg> 