<?xml version="1.0" encoding="UTF-8"?> <svg xmlns="http://www.w3.org/2000/svg" width="164.457" height="78.615" viewBox="0 0 164.457 78.615"><g id="Group_4157" data-name="Group 4157" transform="translate(0.48 2.298)"><g id="Rectangle_1025" data-name="Rectangle 1025" transform="translate(-0.48 -2.298)" fill="none" stroke="#fff" stroke-width="1"><rect width="164.457" height="78.615" stroke="none"></rect><rect x="0.5" y="0.5" width="163.457" height="77.615" fill="none"></rect></g><rect id="Rectangle_488" data-name="Rectangle 488" width="1.014" height="55.843" transform="translate(91.815 10.159)" fill="#fff"></rect><g id="Group_4150" data-name="Group 4150" transform="translate(107.635 7.315)"><text id="Six" transform="translate(10.5 35)" fill="#fff" font-size="40" font-family="ProximaNova-Bold, Proxima Nova" font-weight="700"><tspan x="0" y="0">7</tspan></text><text id="years" transform="translate(-1.5 55)" fill="#fff" font-size="14" font-family="ProximaNova-Medium, Proxima Nova" font-weight="500"><tspan x="0" y="0">YEARS</tspan></text></g><path id="inc-5000-vector-logo-2022" d="M-78.581,96.1V91.519h2.842V79.987h-2.842V75.1h14.374V80h-2.842V91.528h2.842V96.1Zm28.109,0V91.519h1.892V86.784c0-1.426-.95-2.054-2.368-2.054a2.946,2.946,0,0,0-3,2.677v4.112H-51.9V96.1H-62.946V91.519h1.892V84.731h-1.892V80.148H-54.1V83.3l.476-.476a7.287,7.287,0,0,1,6-2.528c3.47,0,6.313,1.426,6.313,5.205v6h1.9V96.1Zm29.378-9.318-6.16.628c0-1.74-.476-3.47-2.528-3.47-2.677,0-2.842,2.215-2.842,4.268h0c0,2.215.162,4.42,2.842,4.42a2.447,2.447,0,0,0,1.8-.55,2.447,2.447,0,0,0,.877-1.665V90.1h6.16v.476c-.95,5.057-5.524,5.846-8.69,5.846-5.057,0-10.113-2.528-10.113-8.214h0c0-5.686,5.057-8.214,10.113-8.214-.144.152,7.914-.323,8.544,6.788Zm4.734,6.788a2.493,2.493,0,0,1-.73,1.8,2.493,2.493,0,0,1-1.8.73,2.493,2.493,0,0,1-1.8-.73,2.493,2.493,0,0,1-.73-1.8,2.493,2.493,0,0,1,.73-1.8,2.493,2.493,0,0,1,1.8-.73h0a2.5,2.5,0,0,1,1.8.732A2.5,2.5,0,0,1-16.361,93.572Zm-43.263,4.581c-6.16,0-9.631,4.108-9.631,12.16s3.47,12.16,9.631,12.16a8.627,8.627,0,0,0,8.164-4.684,15.9,15.9,0,0,0,1.467-7.476C-49.992,102.26-53.625,98.152-59.623,98.152Zm0,19.423c-2.215,0-2.677-2.215-2.677-7.264s.476-7.264,2.677-7.264,2.677,2.215,2.677,7.264S-57.422,117.576-59.623,117.576Zm20.375-19.423c-6.16,0-9.631,4.108-9.631,12.16s3.47,12.16,9.631,12.16,9.631-4.108,9.631-12.16-3.633-12.16-9.633-12.16Zm0,19.423c-2.215,0-2.677-2.215-2.677-7.264s.476-7.264,2.677-7.264,2.677,2.215,2.677,7.264S-37.047,117.576-39.248,117.576Zm20.375-19.423c-6.16,0-9.631,4.108-9.631,12.16s3.47,12.16,9.631,12.16,9.631-4.108,9.631-12.16-3.635-12.16-9.634-12.16Zm0,19.423c-2.215,0-2.677-2.215-2.677-7.264s.476-7.264,2.677-7.264,2.677,2.215,2.677,7.264S-16.672,117.576-18.873,117.576Zm-53.221-9.631a7.931,7.931,0,0,0-5.533-1.9,6.352,6.352,0,0,0-4.42,1.578l.476-3.794h9.945V98.3H-86.153l-1.578,11.056,4.268,2.215a5.8,5.8,0,0,1,3.794-1.578,3.309,3.309,0,0,1,2.054.79,4.164,4.164,0,0,1,1.1,3,3.01,3.01,0,0,1-.162,1.264,2.528,2.528,0,0,1-.957,1.7,2.528,2.528,0,0,1-1.885.512c-2.677,0-2.528-3.318-1.892-4.582h0l-6.788,3.632c.476,4.268,4.9,6.313,8.528,6.313a9.771,9.771,0,0,0,6.635-2.36,8.329,8.329,0,0,0,1.74-2.215,8.205,8.205,0,0,0,1.1-4.268,7.206,7.206,0,0,0-1.908-5.839Z" transform="translate(95.738 -59.457)" fill="#fff"></path></g></svg> 