<?xml version="1.0" encoding="UTF-8"?> <svg xmlns="http://www.w3.org/2000/svg" xmlns:xlink="http://www.w3.org/1999/xlink" width="169.06" height="79" viewBox="0 0 169.06 79"><defs><clipPath id="clip-path"><path id="Path_6281" data-name="Path 6281" d="M243.726,237.93c-3.518,0-6.267,2.648-8.759,6.018-3.421-4.356-6.278-6.018-9.7-6.018-6.978,0-12.325,9.082-12.325,18.711,0,6.018,2.907,9.81,7.77,9.81,3.511,0,6.035-1.657,10.523-9.5l3.153-5.58q.678,1.095,1.423,2.352l2.1,3.54c4.1,6.859,6.383,9.185,10.515,9.185,4.75,0,7.39-3.858,7.39-9.987C255.834,246.387,250.37,237.93,243.726,237.93Zm-15.908,16.89c-3.626,5.7-4.895,6.975-6.918,6.975s-3.327-1.827-3.327-5.092c0-6.978,3.481-14.117,7.629-14.117,2.244,0,4.143,1.3,7,5.415-2.725,4.19-4.383,6.819-4.383,6.819Zm13.727-.722-2.514-4.19q-1.035-1.653-1.964-3.055c2.265-3.5,4.143-5.247,6.361-5.247,4.616,0,8.29,6.805,8.29,15.157,0,3.187-1.037,5.035-3.208,5.035C246.468,261.824,245.478,260.429,241.544,254.1Z" transform="translate(-212.94 -237.93)" fill="#fff"></path></clipPath><clipPath id="clip-path-2"><rect id="Rectangle_1022" data-name="Rectangle 1022" width="48.077" height="33.687" fill="#fff"></rect></clipPath></defs><g id="Group_4136" data-name="Group 4136" transform="translate(-0.177)"><g id="Group_4134" data-name="Group 4134" transform="translate(13.786 12.345)"><path id="Path_6275" data-name="Path 6275" d="M356.7,240.49h5.361l9.117,16.489,9.114-16.489h5.247V267.6h-4.378V246.815l-7.994,14.379h-4.093l-8-14.379V267.6H356.7Z" transform="translate(-304.772 -239.566)" fill="#fff"></path><path id="Path_6276" data-name="Path 6276" d="M457.5,279.407a10.437,10.437,0,0,1-5.343-1.34,9.467,9.467,0,0,1-3.591-3.724,11.308,11.308,0,0,1-1.285-5.461,11.688,11.688,0,0,1,1.253-5.515,9.368,9.368,0,0,1,3.5-3.75,9.67,9.67,0,0,1,5.14-1.358,8.487,8.487,0,0,1,8.163,5.18,13.72,13.72,0,0,1,1.124,5.771v1.2H451.614a6.452,6.452,0,0,0,2.006,3.9,5.831,5.831,0,0,0,4.035,1.423,8.858,8.858,0,0,0,3.367-.585,8.487,8.487,0,0,0,2.651-1.762l2.315,2.85a12.071,12.071,0,0,1-8.49,3.173Zm3.2-16.049a4.816,4.816,0,0,0-3.626-1.406,4.981,4.981,0,0,0-3.626,1.43,6.732,6.732,0,0,0-1.852,3.858h10.671a6.028,6.028,0,0,0-1.565-3.89Z" transform="translate(-362.627 -250.909)" fill="#fff"></path><path id="Path_6277" data-name="Path 6277" d="M507.951,252.717H503.92v-3.58h4.031V243.21h4.216v5.927h6.113v3.583h-6.113v9.071a5.247,5.247,0,0,0,.772,3.233,3.166,3.166,0,0,0,2.651.964,12.373,12.373,0,0,0,1.417-.068c.39-.04.813-.105,1.275-.181v3.534a12.178,12.178,0,0,1-1.611.353,12.718,12.718,0,0,1-1.889.134q-6.833,0-6.827-7.47Z" transform="translate(-398.815 -241.303)" fill="#fff"></path><path id="Path_6278" data-name="Path 6278" d="M569.236,278.989h-4.144v-2.824a7.482,7.482,0,0,1-2.807,2.446,8.438,8.438,0,0,1-3.869.86,8.347,8.347,0,0,1-4.728-1.361,9.3,9.3,0,0,1-3.24-3.756,12.162,12.162,0,0,1-1.181-5.466,11.924,11.924,0,0,1,1.2-5.477,9.275,9.275,0,0,1,3.316-3.734,8.826,8.826,0,0,1,4.869-1.358,8.351,8.351,0,0,1,3.713.8,7.313,7.313,0,0,1,2.731,2.255v-2.589h4.143v20.206Zm-4.222-13.117a5.735,5.735,0,0,0-2.139-2.721,5.819,5.819,0,0,0-3.378-.994,5.474,5.474,0,0,0-4.321,1.813,7.205,7.205,0,0,0-1.608,4.917,7.328,7.328,0,0,0,1.554,4.938,5.221,5.221,0,0,0,4.2,1.824,6.181,6.181,0,0,0,3.481-1.037,5.643,5.643,0,0,0,2.207-2.71Z" transform="translate(-427.778 -250.951)" fill="#fff"></path><g id="Group_4127" data-name="Group 4127"><g id="Group_4129" data-name="Group 4129" clip-path="url(#clip-path)"><g id="Group_4128" data-name="Group 4128" transform="translate(-2.589 -2.589)"><g id="Group_4127-2" data-name="Group 4127" clip-path="url(#clip-path-2)"><rect id="Rectangle_1021" data-name="Rectangle 1021" width="48.239" height="33.819" transform="translate(-0.037 -0.097)" fill="#fff"></rect></g></g></g></g><path id="Path_6279" data-name="Path 6279" d="M260.727,249.908c-5.455-8.875-9.085-11.978-13.77-11.978l-.057,4.663c3.066,0,5.444,2.42,10.615,11.125l.309.517Z" transform="translate(-234.633 -237.93)" fill="#fff"></path><g id="Group_4135" data-name="Group 4135" transform="translate(3.157 39.32)"><path id="Path_6283" data-name="Path 6283" d="M211.83,369.481v-12.83h4.815a5.954,5.954,0,0,1,2.358.39,3.023,3.023,0,0,1,1.389,1.2,3.154,3.154,0,0,1,.5,1.7,2.89,2.89,0,0,1-.447,1.543,3.227,3.227,0,0,1-1.347,1.174,3.333,3.333,0,0,1,1.789,1.164,3.128,3.128,0,0,1,.617,1.943,3.764,3.764,0,0,1-.38,1.676,3.264,3.264,0,0,1-.94,1.2,3.913,3.913,0,0,1-1.406.636,8.476,8.476,0,0,1-2.069.213H211.83Zm1.7-7.438h2.778a6.267,6.267,0,0,0,1.619-.154,1.69,1.69,0,0,0,1.3-1.759,2.038,2.038,0,0,0-.309-1.123,1.543,1.543,0,0,0-.873-.665,7.307,7.307,0,0,0-1.951-.181h-2.568Zm0,5.924h3.194a7.524,7.524,0,0,0,1.156-.062,2.736,2.736,0,0,0,.978-.35,1.853,1.853,0,0,0,.647-.711,2.22,2.22,0,0,0,.253-1.08,2.124,2.124,0,0,0-.369-1.247,1.945,1.945,0,0,0-1.018-.744,6.281,6.281,0,0,0-1.878-.213h-2.966v4.407Z" transform="translate(-211.83 -356.647)" fill="#fff"></path><path id="Path_6284" data-name="Path 6284" d="M252.877,375.721v-1.366a3.4,3.4,0,0,1-2.951,1.576,3.753,3.753,0,0,1-1.535-.309,2.518,2.518,0,0,1-1.059-.792,2.911,2.911,0,0,1-.485-1.17,7.894,7.894,0,0,1-.1-1.471v-5.758h1.576v5.154a9.043,9.043,0,0,0,.1,1.662,1.638,1.638,0,0,0,.628.975,1.968,1.968,0,0,0,1.191.353,2.584,2.584,0,0,0,1.329-.364,1.993,1.993,0,0,0,.878-.989,4.948,4.948,0,0,0,.256-1.816V366.42h1.576v9.295h-1.406Z" transform="translate(-235.324 -362.886)" fill="#fff"></path><path id="Path_6285" data-name="Path 6285" d="M272.7,372.579l1.557-.245a2.177,2.177,0,0,0,.73,1.434,2.549,2.549,0,0,0,1.676.5,2.478,2.478,0,0,0,1.611-.441,1.319,1.319,0,0,0,.523-1.037.966.966,0,0,0-.463-.841,6.813,6.813,0,0,0-1.611-.534,14.636,14.636,0,0,1-2.4-.759,2.3,2.3,0,0,1-1.361-2.131,2.38,2.38,0,0,1,.286-1.153,2.592,2.592,0,0,1,.772-.881,3.278,3.278,0,0,1,1-.463,4.741,4.741,0,0,1,1.361-.188,5.4,5.4,0,0,1,1.921.309,2.623,2.623,0,0,1,1.221.852,3.289,3.289,0,0,1,.542,1.441l-1.543.21a1.676,1.676,0,0,0-.606-1.12,2.233,2.233,0,0,0-1.423-.4,2.59,2.59,0,0,0-1.543.358,1.04,1.04,0,0,0-.463.841.886.886,0,0,0,.191.552,1.369,1.369,0,0,0,.6.42q.232.086,1.389.4a19.472,19.472,0,0,1,2.333.73,2.372,2.372,0,0,1,1.037.827,2.315,2.315,0,0,1,.375,1.347,2.65,2.65,0,0,1-.463,1.484,2.974,2.974,0,0,1-1.326,1.08,4.845,4.845,0,0,1-1.961.38,4.361,4.361,0,0,1-2.759-.751,3.46,3.46,0,0,1-1.2-2.217Z" transform="translate(-251.9 -362.519)" fill="#fff"></path><path id="Path_6286" data-name="Path 6286" d="M299.28,358.463V356.65h1.574v1.813Zm0,11.017v-9.294h1.574v9.294Z" transform="translate(-268.878 -356.646)" fill="#fff"></path><path id="Path_6287" data-name="Path 6287" d="M310.27,375.361v-9.287h1.417V367.4a3.34,3.34,0,0,1,2.958-1.531,3.869,3.869,0,0,1,1.543.309,2.459,2.459,0,0,1,1.055.792,3.026,3.026,0,0,1,.491,1.164,9.11,9.11,0,0,1,.086,1.531v5.71h-1.576v-5.653a4.255,4.255,0,0,0-.184-1.441,1.519,1.519,0,0,0-.654-.762,2.09,2.09,0,0,0-1.1-.285,2.551,2.551,0,0,0-1.738.639,3.152,3.152,0,0,0-.73,2.424v5.076H310.27Z" transform="translate(-275.899 -362.527)" fill="#fff"></path><path id="Path_6288" data-name="Path 6288" d="M343.312,372.373l1.63.2a3.973,3.973,0,0,1-1.427,2.214,4.3,4.3,0,0,1-2.662.787,4.247,4.247,0,0,1-3.233-1.258,4.9,4.9,0,0,1-1.2-3.522,5.134,5.134,0,0,1,1.207-3.64,4.089,4.089,0,0,1,3.131-1.3,3.974,3.974,0,0,1,3.045,1.268,5.041,5.041,0,0,1,1.181,3.569v.418h-6.932a3.549,3.549,0,0,0,.867,2.344,2.582,2.582,0,0,0,1.943.813,2.423,2.423,0,0,0,1.481-.455,2.983,2.983,0,0,0,.966-1.446Zm-5.173-2.546h5.2a3.125,3.125,0,0,0-.6-1.759,2.414,2.414,0,0,0-1.951-.91,2.5,2.5,0,0,0-1.824.725,2.857,2.857,0,0,0-.827,1.944Z" transform="translate(-292.607 -362.53)" fill="#fff"></path><path id="Path_6289" data-name="Path 6289" d="M363.72,372.579l1.557-.245a2.178,2.178,0,0,0,.73,1.434,2.549,2.549,0,0,0,1.676.5,2.478,2.478,0,0,0,1.611-.441,1.32,1.32,0,0,0,.523-1.037.966.966,0,0,0-.463-.841,6.81,6.81,0,0,0-1.611-.534,14.639,14.639,0,0,1-2.4-.759,2.3,2.3,0,0,1-1.361-2.131,2.38,2.38,0,0,1,.286-1.153,2.589,2.589,0,0,1,.772-.881,3.279,3.279,0,0,1,1-.463,4.738,4.738,0,0,1,1.361-.188,5.4,5.4,0,0,1,1.921.309,2.624,2.624,0,0,1,1.221.852,3.29,3.29,0,0,1,.542,1.441l-1.543.21a1.676,1.676,0,0,0-.607-1.12,2.233,2.233,0,0,0-1.423-.4,2.59,2.59,0,0,0-1.543.358,1.04,1.04,0,0,0-.463.841.886.886,0,0,0,.191.552,1.369,1.369,0,0,0,.6.42q.232.086,1.389.4a19.464,19.464,0,0,1,2.333.73,2.372,2.372,0,0,1,1.037.827,2.315,2.315,0,0,1,.375,1.347,2.649,2.649,0,0,1-.463,1.484,2.975,2.975,0,0,1-1.326,1.08,4.846,4.846,0,0,1-1.961.38,4.361,4.361,0,0,1-2.759-.751A3.493,3.493,0,0,1,363.72,372.579Z" transform="translate(-310.041 -362.519)" fill="#fff"></path><path id="Path_6290" data-name="Path 6290" d="M388.53,372.579l1.557-.245a2.177,2.177,0,0,0,.73,1.434,2.549,2.549,0,0,0,1.676.5,2.478,2.478,0,0,0,1.611-.441,1.319,1.319,0,0,0,.523-1.037.966.966,0,0,0-.463-.841,6.806,6.806,0,0,0-1.611-.534,14.629,14.629,0,0,1-2.4-.759,2.3,2.3,0,0,1-1.361-2.131,2.376,2.376,0,0,1,.286-1.153,2.59,2.59,0,0,1,.772-.881,3.275,3.275,0,0,1,1-.463,4.737,4.737,0,0,1,1.361-.188,5.4,5.4,0,0,1,1.921.309,2.623,2.623,0,0,1,1.221.852,3.29,3.29,0,0,1,.542,1.441l-1.543.21a1.676,1.676,0,0,0-.606-1.12,2.231,2.231,0,0,0-1.423-.4,2.589,2.589,0,0,0-1.543.358,1.04,1.04,0,0,0-.463.841.887.887,0,0,0,.191.553,1.369,1.369,0,0,0,.6.42q.231.086,1.389.4a19.455,19.455,0,0,1,2.333.73,2.372,2.372,0,0,1,1.037.827,2.315,2.315,0,0,1,.375,1.347,2.649,2.649,0,0,1-.463,1.484,2.974,2.974,0,0,1-1.326,1.08,4.846,4.846,0,0,1-1.961.38,4.361,4.361,0,0,1-2.759-.751A3.492,3.492,0,0,1,388.53,372.579Z" transform="translate(-325.89 -362.519)" fill="#fff"></path><path id="Path_6291" data-name="Path 6291" d="M432.22,369.481v-12.83h4.841a11.493,11.493,0,0,1,1.951.123,3.839,3.839,0,0,1,1.586.6,3.16,3.16,0,0,1,1.029,1.235,4.179,4.179,0,0,1-.65,4.523,5,5,0,0,1-3.764,1.134h-3.29v5.216h-1.7Zm1.7-6.73h3.316a3.5,3.5,0,0,0,2.336-.617,2.176,2.176,0,0,0,.69-1.724,2.324,2.324,0,0,0-.407-1.38,1.9,1.9,0,0,0-1.08-.759,7.211,7.211,0,0,0-1.586-.116H433.9v4.591Z" transform="translate(-353.798 -356.647)" fill="#fff"></path><path id="Path_6292" data-name="Path 6292" d="M470.44,374.228a5.921,5.921,0,0,1-1.684,1.051,4.913,4.913,0,0,1-1.738.309,3.383,3.383,0,0,1-2.355-.749,2.469,2.469,0,0,1-.824-1.91,2.6,2.6,0,0,1,1.123-2.16,3.778,3.778,0,0,1,1.134-.517,10.977,10.977,0,0,1,1.4-.238,14.5,14.5,0,0,0,2.81-.542v-.412a1.735,1.735,0,0,0-.447-1.358,2.645,2.645,0,0,0-1.795-.534,2.778,2.778,0,0,0-1.64.39,2.379,2.379,0,0,0-.784,1.38l-1.543-.21a3.867,3.867,0,0,1,.69-1.6,3.02,3.02,0,0,1,1.389-.935,6.175,6.175,0,0,1,2.11-.329,5.532,5.532,0,0,1,1.932.282,2.588,2.588,0,0,1,1.094.7,2.456,2.456,0,0,1,.491,1.08,9.051,9.051,0,0,1,.08,1.452v2.1a21.959,21.959,0,0,0,.1,2.778,3.565,3.565,0,0,0,.4,1.116h-1.63a3.4,3.4,0,0,1-.313-1.15Zm-.13-3.518a11.419,11.419,0,0,1-2.572.6,6.036,6.036,0,0,0-1.372.309,1.367,1.367,0,0,0-.617.512,1.389,1.389,0,0,0,.256,1.8,2.065,2.065,0,0,0,1.4.42,3.266,3.266,0,0,0,1.619-.4,2.425,2.425,0,0,0,1.04-1.091,3.792,3.792,0,0,0,.253-1.576Z" transform="translate(-373.997 -362.539)" fill="#fff"></path><g id="Group_4132" data-name="Group 4132" transform="translate(100.192 3.344)"><path id="Path_6293" data-name="Path 6293" d="M492.49,375.359v-9.287h1.42v1.409a3.887,3.887,0,0,1,1-1.3,1.753,1.753,0,0,1,1.011-.309,3.064,3.064,0,0,1,1.619.509L497,367.84a2.259,2.259,0,0,0-1.156-.343,1.512,1.512,0,0,0-.926.309,1.667,1.667,0,0,0-.585.863,6.2,6.2,0,0,0-.264,1.838v4.866H492.49Z" transform="translate(-492.49 -365.868)" fill="#fff"></path></g><path id="Path_6294" data-name="Path 6294" d="M513.945,368.589l.227,1.389a5.831,5.831,0,0,1-1.191.14,2.694,2.694,0,0,1-1.329-.272,1.516,1.516,0,0,1-.665-.711,5.607,5.607,0,0,1-.191-1.86v-5.345H509.64v-1.224H510.8v-2.3l1.568-.946V360.7h1.586v1.224h-1.594v5.437a2.8,2.8,0,0,0,.083.867.637.637,0,0,0,.272.309,1.045,1.045,0,0,0,.539.116,6.321,6.321,0,0,0,.7-.063Z" transform="translate(-403.254 -357.162)" fill="#fff"></path><path id="Path_6295" data-name="Path 6295" d="M525.83,375.361v-9.287h1.417V367.4a3.338,3.338,0,0,1,2.958-1.531,3.869,3.869,0,0,1,1.543.309,2.457,2.457,0,0,1,1.054.792,3.021,3.021,0,0,1,.491,1.164,9.133,9.133,0,0,1,.086,1.531v5.71H531.8v-5.653a4.253,4.253,0,0,0-.184-1.441,1.519,1.519,0,0,0-.654-.762,2.089,2.089,0,0,0-1.1-.286,2.551,2.551,0,0,0-1.738.639,3.151,3.151,0,0,0-.73,2.424v5.076H525.83Z" transform="translate(-413.595 -362.527)" fill="#fff"></path><path id="Path_6296" data-name="Path 6296" d="M558.862,372.373l1.63.2a3.973,3.973,0,0,1-1.427,2.214,4.3,4.3,0,0,1-2.662.787,4.247,4.247,0,0,1-3.233-1.258,4.917,4.917,0,0,1-1.2-3.522,5.132,5.132,0,0,1,1.207-3.64,4.09,4.09,0,0,1,3.131-1.3,3.974,3.974,0,0,1,3.045,1.268,5.042,5.042,0,0,1,1.181,3.569c0,.094,0,.235,0,.418H553.6a3.549,3.549,0,0,0,.867,2.344,2.581,2.581,0,0,0,1.943.813,2.423,2.423,0,0,0,1.482-.455,2.956,2.956,0,0,0,.966-1.446Zm-5.173-2.546h5.191a3.125,3.125,0,0,0-.6-1.759,2.413,2.413,0,0,0-1.95-.911,2.5,2.5,0,0,0-1.824.725,2.856,2.856,0,0,0-.821,1.944Z" transform="translate(-430.296 -362.53)" fill="#fff"></path><path id="Path_6297" data-name="Path 6297" d="M580.97,375.359v-9.287h1.417v1.409a3.887,3.887,0,0,1,1-1.3,1.753,1.753,0,0,1,1.011-.309,3.065,3.065,0,0,1,1.619.509l-.542,1.463a2.26,2.26,0,0,0-1.156-.343,1.512,1.512,0,0,0-.926.309,1.666,1.666,0,0,0-.585.863,6.188,6.188,0,0,0-.264,1.838v4.866H580.97Z" transform="translate(-448.818 -362.524)" fill="#fff"></path></g></g><g id="Rectangle_1023" data-name="Rectangle 1023" transform="translate(0.177)" fill="none" stroke="#fff" stroke-width="1"><rect width="169.06" height="79" stroke="none"></rect><rect x="0.5" y="0.5" width="168.06" height="78" fill="none"></rect></g></g></svg> 