<?xml version="1.0" encoding="UTF-8"?> <svg xmlns="http://www.w3.org/2000/svg" width="232.972" height="79.289" viewBox="0 0 232.972 79.289"><g id="Microsoft_Partner_2022-White" data-name="Microsoft Partner 2022-White" transform="translate(0.5 0.5)"><rect id="Rectangle_482" data-name="Rectangle 482" width="231.972" height="78.289" transform="translate(0 0)" fill="none" stroke="#fff" stroke-width="1"></rect><rect id="Rectangle_483" data-name="Rectangle 483" width="28.997" height="78.289" transform="translate(0 0)" fill="none" stroke="#fff" stroke-width="1"></rect><g id="Group_1468" data-name="Group 1468" transform="translate(7.925 18.899)"><path id="Path_3165" data-name="Path 3165" d="M14.786,75.376a2.729,2.729,0,0,0-1.054.189,2.093,2.093,0,0,0-.749.514,2.118,2.118,0,0,0-.448.766,2.993,2.993,0,0,0-.146.954,3.157,3.157,0,0,0,.119.864,4.251,4.251,0,0,0,.331.822,5.108,5.108,0,0,0,.506.771,5.608,5.608,0,0,0,.652.692H12.377a4.474,4.474,0,0,1-.94-1.419,4.979,4.979,0,0,1-.326-1.908,4.6,4.6,0,0,1,.235-1.5,3.411,3.411,0,0,1,.684-1.194,3.165,3.165,0,0,1,1.113-.8,3.755,3.755,0,0,1,1.516-.289,5.227,5.227,0,0,1,1.414.178,4.376,4.376,0,0,1,1.193.542,5.735,5.735,0,0,1,1.075.913,13.042,13.042,0,0,1,1.046,1.295q.662.927,1.129,1.528a6.744,6.744,0,0,0,.878.954,2.544,2.544,0,0,0,.817.495,2.846,2.846,0,0,0,.941.143V73.337H24.5v8.126h-.65a5.444,5.444,0,0,1-1.489-.184,3.842,3.842,0,0,1-1.221-.606,6.734,6.734,0,0,1-1.158-1.113q-.577-.684-1.3-1.676a10.407,10.407,0,0,0-.983-1.2,5.073,5.073,0,0,0-.937-.776,3.36,3.36,0,0,0-.954-.418,4.08,4.08,0,0,0-1.023-.124Z" transform="translate(-11.102 -39.125)" fill="#fff"></path><path id="Path_3166" data-name="Path 3166" d="M17.865,57.041a12.94,12.94,0,0,1,2.929.3,6.792,6.792,0,0,1,2.153.863,3.9,3.9,0,0,1,1.333,1.387,3.807,3.807,0,0,1,.448,1.869,3.553,3.553,0,0,1-.436,1.768,3.7,3.7,0,0,1-1.272,1.309,6.429,6.429,0,0,1-2.051.809,12.738,12.738,0,0,1-2.786.275,14.4,14.4,0,0,1-3.049-.288,7,7,0,0,1-2.226-.849,3.777,3.777,0,0,1-1.347-1.39,3.9,3.9,0,0,1-.455-1.908Q11.114,57.041,17.865,57.041Zm.146,1.543q-5.62,0-5.62,2.672,0,2.818,5.725,2.82,5.334,0,5.335-2.764Q23.447,58.584,18.011,58.584Z" transform="translate(-11.105 -34.617)" fill="#fff"></path><path id="Path_3167" data-name="Path 3167" d="M14.786,43.447a2.729,2.729,0,0,0-1.054.189,2.085,2.085,0,0,0-.749.514,2.112,2.112,0,0,0-.448.767,2.991,2.991,0,0,0-.146.954,3.163,3.163,0,0,0,.119.864,4.227,4.227,0,0,0,.331.822,5.089,5.089,0,0,0,.506.773,5.67,5.67,0,0,0,.652.693H12.376a4.489,4.489,0,0,1-.94-1.419,4.992,4.992,0,0,1-.326-1.908,4.6,4.6,0,0,1,.235-1.5,3.394,3.394,0,0,1,.684-1.193,3.158,3.158,0,0,1,1.113-.8,3.743,3.743,0,0,1,1.516-.289,5.17,5.17,0,0,1,1.414.18,4.377,4.377,0,0,1,1.193.542,5.725,5.725,0,0,1,1.075.913,13.1,13.1,0,0,1,1.046,1.294q.662.929,1.129,1.53a6.777,6.777,0,0,0,.878.954,2.544,2.544,0,0,0,.819.495,2.845,2.845,0,0,0,.941.143V41.4H24.5v8.128h-.652a5.444,5.444,0,0,1-1.488-.184,3.887,3.887,0,0,1-1.221-.606,6.794,6.794,0,0,1-1.158-1.113q-.577-.682-1.3-1.676a10.471,10.471,0,0,0-.983-1.2,5.089,5.089,0,0,0-.937-.776,3.366,3.366,0,0,0-.954-.418,4.113,4.113,0,0,0-1.023-.124Z" transform="translate(-11.102 -30.293)" fill="#fff"></path><path id="Path_6301" data-name="Path 6301" d="M4.523,13.15c2.805,0,4.5-1.546,4.5-3.658A3.2,3.2,0,0,0,6.088,6.356,3.1,3.1,0,0,0,8.829,3.4c0-2.156-1.87-3.4-4.313-3.4A5.515,5.515,0,0,0,.172,1.967l.878.992A4.313,4.313,0,0,1,4.408,1.414c1.546,0,2.843.763,2.843,2.175,0,1.469-1.355,2.1-2.958,2.1-.515,0-1.113,0-1.317-.019v1.45C3.168,7.1,3.759,7.1,4.294,7.1c1.87,0,3.168.668,3.168,2.252,0,1.469-1.126,2.385-2.977,2.385A4.421,4.421,0,0,1,.935,10.058L0,11.051a5.369,5.369,0,0,0,4.523,2.1Z" transform="translate(0.101 9.026) rotate(-89.026)" fill="#fff"></path></g><g id="Group_1470" data-name="Group 1470" transform="translate(43.295 14.532)"><path id="Path_3169" data-name="Path 3169" d="M95.394,23.755v8.68H93.886v-6.8h-.024l-2.694,6.8h-1l-2.759-6.8h-.018v6.8H86v-8.68h2.161l2.494,6.434h.037l2.633-6.434Zm1.261.66a.8.8,0,0,1,.264-.609.887.887,0,0,1,.627-.245.876.876,0,0,1,.636.251.819.819,0,0,1,.253.6.786.786,0,0,1-.259.6.9.9,0,0,1-.636.242.883.883,0,0,1-.636-.245.8.8,0,0,1-.258-.6Zm1.616,1.8v6.223H96.806V26.212Zm4.443,5.162a2.012,2.012,0,0,0,.719-.159,3.058,3.058,0,0,0,.727-.4v1.361a2.929,2.929,0,0,1-.8.3,4.331,4.331,0,0,1-.978.1,2.961,2.961,0,0,1-3.092-3.095,3.548,3.548,0,0,1,.878-2.47,3.181,3.181,0,0,1,2.487-.972,3.421,3.421,0,0,1,.833.1,2.8,2.8,0,0,1,.673.245V27.8a3.006,3.006,0,0,0-.693-.385,2.005,2.005,0,0,0-.722-.135,1.837,1.837,0,0,0-1.4.561,2.12,2.12,0,0,0-.536,1.52,2.02,2.02,0,0,0,.509,1.471,1.845,1.845,0,0,0,1.39.526Zm5.612-5.256a1.885,1.885,0,0,1,.318.024,1.4,1.4,0,0,1,.235.06v1.482a1.273,1.273,0,0,0-.337-.159,1.662,1.662,0,0,0-.536-.076,1.139,1.139,0,0,0-.911.448,2.18,2.18,0,0,0-.372,1.4v3.142h-1.465V26.212h1.465v.981h.024a1.717,1.717,0,0,1,.6-.8,1.646,1.646,0,0,1,.986-.288Zm.636,3.3a3.367,3.367,0,0,1,.871-2.446,3.209,3.209,0,0,1,2.42-.9,2.985,2.985,0,0,1,2.279.868,3.764,3.764,0,0,1-.051,4.755,3.157,3.157,0,0,1-2.374.9,3.1,3.1,0,0,1-2.3-.851,3.142,3.142,0,0,1-.844-2.333Zm1.525-.048a2.226,2.226,0,0,0,.441,1.49,1.578,1.578,0,0,0,1.272.514,1.474,1.474,0,0,0,1.217-.514,2.386,2.386,0,0,0,.418-1.525,2.3,2.3,0,0,0-.433-1.516,1.5,1.5,0,0,0-1.213-.512,1.533,1.533,0,0,0-1.25.536,2.328,2.328,0,0,0-.439,1.523Zm7.045-1.519a.636.636,0,0,0,.2.495,3.44,3.44,0,0,0,.884.448,3,3,0,0,1,1.234.786,1.636,1.636,0,0,1,.355,1.062,1.708,1.708,0,0,1-.673,1.411,2.863,2.863,0,0,1-1.826.533,4.376,4.376,0,0,1-.856-.094,3.794,3.794,0,0,1-.8-.239V30.818a3.581,3.581,0,0,0,.86.442,2.514,2.514,0,0,0,.835.159,1.492,1.492,0,0,0,.733-.14.5.5,0,0,0,.235-.468.647.647,0,0,0-.246-.512,3.647,3.647,0,0,0-.929-.477,2.863,2.863,0,0,1-1.15-.763,1.667,1.667,0,0,1-.337-1.078,1.7,1.7,0,0,1,.673-1.382,2.664,2.664,0,0,1,1.733-.542,4.193,4.193,0,0,1,.733.072,3.222,3.222,0,0,1,.673.189v1.39a3.128,3.128,0,0,0-.673-.337,2.269,2.269,0,0,0-.768-.14,1.123,1.123,0,0,0-.65.159.52.52,0,0,0-.239.452Zm3.3,1.571a3.367,3.367,0,0,1,.871-2.446,3.209,3.209,0,0,1,2.42-.9,2.985,2.985,0,0,1,2.279.868,3.764,3.764,0,0,1-.051,4.755,3.157,3.157,0,0,1-2.373.9,3.1,3.1,0,0,1-2.3-.851,3.134,3.134,0,0,1-.846-2.336Zm1.525-.048a2.226,2.226,0,0,0,.442,1.49,1.571,1.571,0,0,0,1.272.514,1.476,1.476,0,0,0,1.225-.523,2.385,2.385,0,0,0,.418-1.525,2.3,2.3,0,0,0-.433-1.516,1.5,1.5,0,0,0-1.213-.512,1.533,1.533,0,0,0-1.25.536,2.333,2.333,0,0,0-.448,1.528Zm9.726-1.954h-2.19v5.024h-1.482V27.411h-1.04v-1.2h1.04v-.868a2.153,2.153,0,0,1,.636-1.608,2.244,2.244,0,0,1,1.638-.627,3.642,3.642,0,0,1,.477.027,1.881,1.881,0,0,1,.364.083v1.272a1.546,1.546,0,0,0-.254-.1,1.314,1.314,0,0,0-.418-.06.887.887,0,0,0-.709.288,1.272,1.272,0,0,0-.248.849v.751h2.182V24.821l1.471-.448v1.84h1.484v1.2h-1.482v2.912a1.228,1.228,0,0,0,.208.811.833.833,0,0,0,.657.235.98.98,0,0,0,.307-.06,1.431,1.431,0,0,0,.318-.145v1.21a1.7,1.7,0,0,1-.463.146,3.131,3.131,0,0,1-.636.067,1.816,1.816,0,0,1-1.388-.495,2.1,2.1,0,0,1-.463-1.485Z" transform="translate(-67.195 -20.862)" fill="#fff"></path><g id="Group_1469" data-name="Group 1469"><rect id="Rectangle_484" data-name="Rectangle 484" width="6.875" height="6.875" fill="#fff"></rect><rect id="Rectangle_485" data-name="Rectangle 485" width="6.875" height="6.875" transform="translate(7.59)" fill="#fff"></rect><rect id="Rectangle_486" data-name="Rectangle 486" width="6.875" height="6.875" transform="translate(0 7.59)" fill="#fff"></rect><rect id="Rectangle_487" data-name="Rectangle 487" width="6.875" height="6.875" transform="translate(7.59 7.59)" fill="#fff"></rect></g></g><g id="Group_1471" data-name="Group 1471" transform="translate(133.812 17.425)"><path id="Path_3170" data-name="Path 3170" d="M192.693,32.746h-1.474l-.73-2.067h-3.181l-.7,2.067h-1.469l3.031-8.11h1.514Zm-2.56-3.158-1.123-3.233a3.81,3.81,0,0,1-.113-.509h-.022a3.241,3.241,0,0,1-.113.509l-1.113,3.233Z" transform="translate(-185.139 -24.181)" fill="#fff"></path><path id="Path_3171" data-name="Path 3171" d="M202.039,32.567h-1.31v-.983h-.022a2.263,2.263,0,0,1-3.658.337,3.225,3.225,0,0,1-.636-2.117,3.511,3.511,0,0,1,.709-2.3,2.32,2.32,0,0,1,1.889-.865,1.811,1.811,0,0,1,1.7.938h.022V24h1.31Zm-1.294-2.645v-.759a1.477,1.477,0,0,0-.4-1.046,1.347,1.347,0,0,0-1.023-.429,1.377,1.377,0,0,0-1.156.547,2.445,2.445,0,0,0-.421,1.52,2.192,2.192,0,0,0,.4,1.393,1.314,1.314,0,0,0,1.088.512,1.36,1.36,0,0,0,1.091-.495,1.859,1.859,0,0,0,.418-1.245Z" transform="translate(-188.258 -24)" fill="#fff"></path><path id="Path_3172" data-name="Path 3172" d="M211.241,27.844,209,33.631h-1.419l-2.133-5.787h1.431l1.283,4.041a3.769,3.769,0,0,1,.181.786h.018a4.193,4.193,0,0,1,.159-.757l1.347-4.068Z" transform="translate(-190.764 -25.064)" fill="#fff"></path><path id="Path_3173" data-name="Path 3173" d="M219.313,31.042h-3.944a1.667,1.667,0,0,0,.495,1.234,1.838,1.838,0,0,0,1.3.434,2.862,2.862,0,0,0,1.7-.553v1.058a3.88,3.88,0,0,1-2.091.5,2.587,2.587,0,0,1-2-.786,3.152,3.152,0,0,1-.727-2.218,3.082,3.082,0,0,1,.8-2.2,2.618,2.618,0,0,1,1.986-.851,2.282,2.282,0,0,1,1.837.763,3.18,3.18,0,0,1,.65,2.118Zm-1.272-.927a1.689,1.689,0,0,0-.337-1.1,1.123,1.123,0,0,0-.9-.393,1.272,1.272,0,0,0-.954.412,1.885,1.885,0,0,0-.477,1.08Z" transform="translate(-193.142 -25.012)" fill="#fff"></path><path id="Path_3174" data-name="Path 3174" d="M226.411,29.054a1.085,1.085,0,0,0-.684-.186,1.172,1.172,0,0,0-.972.526,2.357,2.357,0,0,0-.39,1.431v2.769h-1.31V27.806h1.31V29h.022a2.02,2.02,0,0,1,.592-.954,1.333,1.333,0,0,1,.891-.337,1.113,1.113,0,0,1,.542.113Z" transform="translate(-195.635 -25.026)" fill="#fff"></path><path id="Path_3175" data-name="Path 3175" d="M232.254,32.911a2.272,2.272,0,0,1-1.01.192q-1.684,0-1.684-1.616v-3.27h-.954V27.186h.967V25.848l1.31-.372v1.71h1.385v1.032h-1.385v2.9a1.139,1.139,0,0,0,.186.735.774.774,0,0,0,.622.224.9.9,0,0,0,.577-.192Z" transform="translate(-197.163 -24.409)" fill="#fff"></path><path id="Path_3176" data-name="Path 3176" d="M235.836,25.594a.786.786,0,0,1-.552-.208.687.687,0,0,1-.224-.531.707.707,0,0,1,.224-.538.779.779,0,0,1,.552-.215.8.8,0,0,1,.561.215.7.7,0,0,1,.231.538.689.689,0,0,1-.231.522A.8.8,0,0,1,235.836,25.594Zm.65,7h-1.31V26.8h1.31Z" transform="translate(-198.955 -24.027)" fill="#fff"></path><path id="Path_3177" data-name="Path 3177" d="M238.9,33.4V32.181a2.614,2.614,0,0,0,1.622.561q1.186,0,1.186-.7a.561.561,0,0,0-.1-.337.993.993,0,0,0-.274-.247,2.2,2.2,0,0,0-.407-.192l-.522-.192a5.43,5.43,0,0,1-.636-.3,1.929,1.929,0,0,1-.477-.359,1.358,1.358,0,0,1-.286-.455,1.672,1.672,0,0,1-.1-.593,1.369,1.369,0,0,1,.2-.738,1.716,1.716,0,0,1,.531-.536,2.53,2.53,0,0,1,.757-.328,3.452,3.452,0,0,1,.875-.113,4,4,0,0,1,1.431.243v1.147a2.42,2.42,0,0,0-1.4-.418,1.82,1.82,0,0,0-.448.051,1.168,1.168,0,0,0-.337.142.711.711,0,0,0-.224.216.521.521,0,0,0-.078.28.6.6,0,0,0,.078.318.721.721,0,0,0,.235.224,1.964,1.964,0,0,0,.372.181q.216.083.5.178a7.366,7.366,0,0,1,.673.318,2.262,2.262,0,0,1,.506.359,1.422,1.422,0,0,1,.318.463,1.591,1.591,0,0,1,.113.625,1.431,1.431,0,0,1-.2.768,1.689,1.689,0,0,1-.542.542,2.516,2.516,0,0,1-.786.318,4.08,4.08,0,0,1-.935.1,3.939,3.939,0,0,1-1.649-.31Z" transform="translate(-200.021 -25.013)" fill="#fff"></path><path id="Path_3178" data-name="Path 3178" d="M246.914,25.594a.786.786,0,0,1-.552-.208.687.687,0,0,1-.224-.531.708.708,0,0,1,.224-.537.779.779,0,0,1,.552-.215.8.8,0,0,1,.561.215.7.7,0,0,1,.232.538.69.69,0,0,1-.232.522A.8.8,0,0,1,246.914,25.594Zm.65,7h-1.31V26.8h1.31Z" transform="translate(-202.021 -24.027)" fill="#fff"></path><path id="Path_3179" data-name="Path 3179" d="M255.632,33.581h-1.314v-3.26q0-1.62-1.147-1.622a1.253,1.253,0,0,0-.989.448,1.667,1.667,0,0,0-.39,1.132v3.3h-1.317V27.8h1.317v.954h.022a2.067,2.067,0,0,1,1.877-1.1,1.749,1.749,0,0,1,1.441.614,2.756,2.756,0,0,1,.5,1.772Z" transform="translate(-203.223 -25.014)" fill="#fff"></path><path id="Path_3180" data-name="Path 3180" d="M264.94,33.115a2.824,2.824,0,0,1-3.2,3.181,4.771,4.771,0,0,1-1.972-.378V34.725a3.657,3.657,0,0,0,1.8.542,1.808,1.808,0,0,0,2.067-2.029V32.6H263.6a2.276,2.276,0,0,1-3.658.337,3.12,3.12,0,0,1-.647-2.067,3.658,3.658,0,0,1,.7-2.346,2.311,2.311,0,0,1,1.908-.87,1.842,1.842,0,0,1,1.7.938h.022v-.8h1.31Zm-1.3-2.187v-.754a1.474,1.474,0,0,0-.4-1.043,1.323,1.323,0,0,0-1.01-.433,1.387,1.387,0,0,0-1.167.55,2.493,2.493,0,0,0-.421,1.539,2.142,2.142,0,0,0,.4,1.364,1.3,1.3,0,0,0,1.07.512,1.388,1.388,0,0,0,1.1-.49,1.838,1.838,0,0,0,.425-1.248Z" transform="translate(-205.666 -25.013)" fill="#fff"></path></g><rect id="Rectangle_488" data-name="Rectangle 488" width="1.085" height="14.465" transform="translate(122.135 14.532)" fill="#fff"></rect><g id="Group_1472" data-name="Group 1472" transform="translate(45.005 43.464)"><path id="Path_3181" data-name="Path 3181" d="M62.362,80.909v-2.8a5.426,5.426,0,0,0,1.151.763,9.309,9.309,0,0,0,1.414.573,11.2,11.2,0,0,0,1.49.361,8.319,8.319,0,0,0,1.385.127,5.42,5.42,0,0,0,3.271-.813,3.047,3.047,0,0,0,.72-3.764,4.051,4.051,0,0,0-1-1.113,9.9,9.9,0,0,0-1.5-.954q-.868-.458-1.87-.967-1.059-.538-1.978-1.088a8.558,8.558,0,0,1-1.59-1.215,5.051,5.051,0,0,1-1.065-1.5,5.125,5.125,0,0,1,.219-4.376,5.222,5.222,0,0,1,1.59-1.684,7.258,7.258,0,0,1,2.253-.989,10.325,10.325,0,0,1,2.581-.318,9.877,9.877,0,0,1,4.365.72v2.67A7.916,7.916,0,0,0,69.2,63.3a7.615,7.615,0,0,0-1.554.159,4.43,4.43,0,0,0-1.385.53,3.077,3.077,0,0,0-.989.946,2.517,2.517,0,0,0-.382,1.414,2.918,2.918,0,0,0,.289,1.347,3.292,3.292,0,0,0,.856,1.032,8.522,8.522,0,0,0,1.377.9q.813.439,1.872.954,1.089.538,2.067,1.131a9.41,9.41,0,0,1,1.71,1.314,5.835,5.835,0,0,1,1.166,1.59,4.478,4.478,0,0,1,.431,2.005,5.089,5.089,0,0,1-.587,2.535,4.807,4.807,0,0,1-1.581,1.684,6.911,6.911,0,0,1-2.3.94,12.614,12.614,0,0,1-2.74.289,11.3,11.3,0,0,1-1.188-.078q-.706-.078-1.441-.224a11.662,11.662,0,0,1-1.391-.367,4.306,4.306,0,0,1-1.059-.5Z" transform="translate(-62.362 -60.312)" fill="#fff"></path><path id="Path_3182" data-name="Path 3182" d="M95.541,77.288H85.327a5.407,5.407,0,0,0,1.3,3.729,4.481,4.481,0,0,0,3.419,1.322,7.105,7.105,0,0,0,4.489-1.611V82.9a8.4,8.4,0,0,1-5.044,1.385,6.113,6.113,0,0,1-4.817-1.97,8.064,8.064,0,0,1-1.749-5.544,7.912,7.912,0,0,1,1.908-5.5,6.14,6.14,0,0,1,4.755-2.126,5.439,5.439,0,0,1,4.4,1.84,7.657,7.657,0,0,1,1.554,5.1Zm-2.373-1.966A4.714,4.714,0,0,0,92.2,72.2a3.3,3.3,0,0,0-2.649-1.113,3.745,3.745,0,0,0-2.783,1.174,5.324,5.324,0,0,0-1.414,3.064Z" transform="translate(-68.053 -62.529)" fill="#fff"></path><path id="Path_3183" data-name="Path 3183" d="M107.326,81.416h-2.317V60h2.317Z" transform="translate(-74.162 -60)" fill="#fff"></path><path id="Path_3184" data-name="Path 3184" d="M125.747,77.289H115.534a5.407,5.407,0,0,0,1.3,3.729,4.481,4.481,0,0,0,3.419,1.314,7.105,7.105,0,0,0,4.489-1.611V82.9a8.4,8.4,0,0,1-5.044,1.385,6.111,6.111,0,0,1-4.817-1.97,8.067,8.067,0,0,1-1.749-5.544,7.913,7.913,0,0,1,1.908-5.5,6.14,6.14,0,0,1,4.755-2.126,5.439,5.439,0,0,1,4.392,1.837,7.654,7.654,0,0,1,1.554,5.1Zm-2.374-1.964a4.713,4.713,0,0,0-.967-3.122,3.3,3.3,0,0,0-2.649-1.113,3.744,3.744,0,0,0-2.783,1.174,5.324,5.324,0,0,0-1.414,3.064Z" transform="translate(-76.41 -62.53)" fill="#fff"></path><path id="Path_3185" data-name="Path 3185" d="M144.7,83.282a7.519,7.519,0,0,1-3.957,1,6.549,6.549,0,0,1-4.994-2.013,7.3,7.3,0,0,1-1.9-5.219,8.02,8.02,0,0,1,2.048-5.742,7.166,7.166,0,0,1,5.467-2.169,7.622,7.622,0,0,1,3.367.706V72.22a5.9,5.9,0,0,0-3.448-1.131,4.657,4.657,0,0,0-3.637,1.59,6.03,6.03,0,0,0-1.42,4.174,5.742,5.742,0,0,0,1.336,4.012,4.6,4.6,0,0,0,3.581,1.469,5.8,5.8,0,0,0,3.561-1.258Z" transform="translate(-82.144 -62.531)" fill="#fff"></path><path id="Path_3186" data-name="Path 3186" d="M159.536,82.3a4.464,4.464,0,0,1-2.161.448q-3.8,0-3.8-4.238V69.95h-2.486V67.966h2.481V64.44l2.317-.749v4.275h3.65v1.978h-3.645V78.1a3.376,3.376,0,0,0,.495,2.077,1.972,1.972,0,0,0,1.638.622,2.435,2.435,0,0,0,1.512-.477Z" transform="translate(-86.912 -61.021)" fill="#fff"></path><path id="Path_3187" data-name="Path 3187" d="M180.406,74.2v7.657h-2.374V61.605H183.6a7.346,7.346,0,0,1,5.036,1.581,5.649,5.649,0,0,1,1.788,4.464,6.138,6.138,0,0,1-1.985,4.714,7.579,7.579,0,0,1-5.361,1.837Zm0-10.453v8.3h2.486a5.566,5.566,0,0,0,3.751-1.123,3.976,3.976,0,0,0,1.293-3.171q0-4.011-4.747-4.012Z" transform="translate(-94.368 -60.443)" fill="#fff"></path><path id="Path_3188" data-name="Path 3188" d="M208.384,83.948h-2.317v-2.26h-.056a4.85,4.85,0,0,1-4.453,2.6,4.753,4.753,0,0,1-3.383-1.145,3.965,3.965,0,0,1-1.223-3.037q0-4.054,4.771-4.714l4.337-.607q0-3.688-2.98-3.686a7.123,7.123,0,0,0-4.714,1.78V70.493a8.966,8.966,0,0,1,4.916-1.356q5.1,0,5.1,5.4Zm-2.317-7.315-3.489.477a5.664,5.664,0,0,0-2.43.8,2.3,2.3,0,0,0-.819,2.028,2.209,2.209,0,0,0,.755,1.73,2.918,2.918,0,0,0,2.013.673,3.72,3.72,0,0,0,2.847-1.207,4.316,4.316,0,0,0,1.123-3.058Z" transform="translate(-99.605 -62.532)" fill="#fff"></path><path id="Path_3189" data-name="Path 3189" d="M226.134,71.862a2.834,2.834,0,0,0-1.749-.468,2.958,2.958,0,0,0-2.479,1.4,6.463,6.463,0,0,0-1,3.817v7.374h-2.32V69.512h2.317v2.98h.056a5.051,5.051,0,0,1,1.512-2.385,3.448,3.448,0,0,1,2.276-.854,3.8,3.8,0,0,1,1.385.2Z" transform="translate(-105.59 -62.567)" fill="#fff"></path><path id="Path_3190" data-name="Path 3190" d="M238.342,82.3a4.464,4.464,0,0,1-2.161.448q-3.8,0-3.8-4.238V69.95h-2.486V67.966h2.486V64.44l2.317-.749v4.275h3.645v1.978H234.7V78.1a3.374,3.374,0,0,0,.495,2.077,1.97,1.97,0,0,0,1.638.622,2.435,2.435,0,0,0,1.512-.477Z" transform="translate(-108.718 -61.021)" fill="#fff"></path><path id="Path_3191" data-name="Path 3191" d="M257.657,83.947H255.34V75.7q0-4.6-3.367-4.6A3.645,3.645,0,0,0,249.1,72.4a4.844,4.844,0,0,0-1.137,3.3v8.25H245.65V69.479h2.317v2.4h.056a5.221,5.221,0,0,1,4.747-2.74,4.427,4.427,0,0,1,3.631,1.533,6.827,6.827,0,0,1,1.256,4.429Z" transform="translate(-113.078 -62.531)" fill="#fff"></path><path id="Path_3192" data-name="Path 3192" d="M279.336,77.289H269.123a5.407,5.407,0,0,0,1.3,3.729,4.48,4.48,0,0,0,3.419,1.314,7.1,7.1,0,0,0,4.489-1.611V82.9a8.393,8.393,0,0,1-5.043,1.385,6.113,6.113,0,0,1-4.817-1.97,8.063,8.063,0,0,1-1.749-5.544,7.911,7.911,0,0,1,1.908-5.5,6.14,6.14,0,0,1,4.755-2.126,5.439,5.439,0,0,1,4.392,1.837,7.657,7.657,0,0,1,1.554,5.1Zm-2.373-1.964A4.714,4.714,0,0,0,276,72.2a3.3,3.3,0,0,0-2.649-1.113,3.745,3.745,0,0,0-2.783,1.174,5.324,5.324,0,0,0-1.414,3.064Z" transform="translate(-118.909 -62.53)" fill="#fff"></path><path id="Path_3193" data-name="Path 3193" d="M296.349,71.862a2.829,2.829,0,0,0-1.749-.468,2.956,2.956,0,0,0-2.479,1.4,6.465,6.465,0,0,0-1,3.817v7.374h-2.317V69.512h2.317v2.98h.056a5.051,5.051,0,0,1,1.512-2.385,3.448,3.448,0,0,1,2.274-.854,3.8,3.8,0,0,1,1.384.2Z" transform="translate(-125.017 -62.567)" fill="#fff"></path></g></g></svg> 