<svg width="344" height="198" viewBox="0 0 344 198" fill="none" xmlns="http://www.w3.org/2000/svg">
<rect width="162" height="198" rx="10" fill="#EDF1FF"/>
<rect x="182" width="162" height="198" rx="10" fill="url(#paint0_linear)"/>
<g opacity="0.3">
<path d="M138.615 31.75V25.5827C138.615 23.0739 136.545 21.0331 134 21.0331C131.455 21.0331 129.385 23.0739 129.385 25.5827V31.75H126.308V25.5827C126.308 21.4019 129.759 18 134 18C138.241 18 141.692 21.4019 141.692 25.5827V31.75H138.615Z" fill="#123B49"/>
<path fill-rule="evenodd" clip-rule="evenodd" d="M124 41.6075C124 42.8619 125.035 43.8824 126.308 43.8824H141.692C142.965 43.8824 144 42.8619 144 41.6075V32.5083C144 31.2539 142.965 30.2335 141.692 30.2335H126.308C125.035 30.2335 124 31.2539 124 32.5083V41.6075ZM134 33.2665C135.273 33.2665 136.308 34.287 136.308 35.5414C136.308 36.5292 135.663 37.363 134.769 37.677V40.091C134.769 40.5101 134.425 40.8493 134 40.8493C133.575 40.8493 133.231 40.5101 133.231 40.091V37.677C132.337 37.363 131.692 36.5292 131.692 35.5414C131.692 34.287 132.727 33.2665 134 33.2665Z" fill="#123B49"/>
</g>
<path opacity="0.5" d="M50 136.949C50 138.083 50.9172 139 52.0508 139H109.473C110.606 139 111.523 138.083 111.523 136.949C111.523 122.249 99.5633 110.016 84.8633 110.016H76.6602C61.9602 110.016 50 122.249 50 136.949Z" fill="#123B49"/>
<path opacity="0.1" d="M85.6411 110.016H81.5396V139H110.25C111.384 139 112.301 138.083 112.301 136.949C112.301 122.249 100.341 110.016 85.6411 110.016Z" fill="#F6F7FB"/>
<path opacity="0.5" d="M62.3047 87.457C62.3047 97.6348 70.584 105.914 80.7617 105.914C90.9395 105.914 99.2188 97.6348 99.2188 87.457C99.2188 77.2793 90.9395 69 80.7617 69C70.584 69 62.3047 77.2793 62.3047 87.457Z" fill="#123B49"/>
<path opacity="0.1" d="M99.9966 87.457C99.9966 77.2793 91.7173 69 81.5396 69V105.914C91.7173 105.914 99.9966 97.6348 99.9966 87.457Z" fill="#F6F7FB"/>
<path d="M117.457 148.914C107.281 148.914 99 140.633 99 130.457C99 126.574 100.231 122.815 102.559 119.586C106.091 114.822 111.653 112 117.457 112C127.633 112 135.914 120.281 135.914 130.457C135.914 140.633 127.633 148.914 117.457 148.914Z" fill="#018AF4"/>
<rect x="108" y="127" width="19" height="6" rx="3" fill="white"/>
<path d="M303.164 71.2305H222.169C220.829 72.586 220 74.4476 220 76.4998V116.5C220 118.552 220.829 120.414 222.169 121.769H303.164C304.504 120.414 305.333 118.552 305.333 116.5V76.4998C305.333 74.4476 304.504 72.586 303.164 71.2305V71.2305Z" fill="#E8ECFE"/>
<path d="M262.667 71.2305V121.769H303.164C304.504 120.414 305.333 118.552 305.333 116.5V76.4998C305.333 74.4476 304.504 72.586 303.164 71.2305H262.667Z" fill="#E8ECFE"/>
<path d="M227.5 124H297.833C299.917 124 301.804 123.146 303.164 121.77L272.139 96.5H253.194L222.169 121.77C223.53 123.146 225.417 124 227.5 124V124Z" fill="#D3DBFF"/>
<path d="M262.667 101.5C264.823 101.5 266.913 100.757 268.584 99.395L303.164 71.2307C301.804 69.8545 299.917 69 297.833 69H227.5C225.417 69 223.53 69.8545 222.169 71.2307L256.749 99.395C258.42 100.757 260.511 101.5 262.667 101.5V101.5Z" fill="white"/>
<path d="M262.667 149C273.252 149 281.833 140.419 281.833 129.833C281.833 119.248 273.252 110.667 262.667 110.667C252.081 110.667 243.5 119.248 243.5 129.833C243.5 140.419 252.081 149 262.667 149Z" fill="#00DCD1"/>
<path d="M261.851 120.873C262.25 120.412 262.964 120.412 263.363 120.873L268.969 127.345C269.529 127.993 269.069 129 268.213 129H257.002C256.145 129 255.685 127.993 256.246 127.345L261.851 120.873Z" fill="white"/>
<path d="M260.607 129C260.607 127.895 261.503 127 262.607 127C263.712 127 264.607 127.895 264.607 129V138C264.607 139.104 263.712 140 262.607 140C261.503 140 260.607 139.104 260.607 138V129Z" fill="white"/>
<path fill-rule="evenodd" clip-rule="evenodd" d="M323.692 30.2334C324.965 30.2334 326 31.2539 326 32.5083V41.6074C326 42.8618 324.965 43.8823 323.692 43.8823H308.308C307.035 43.8823 306 42.8618 306 41.6074V32.5083C306 31.2539 307.035 30.2334 308.308 30.2334V25.5828C308.308 21.4019 311.759 18 316 18C320.241 18 323.692 21.4019 323.692 25.5828V26H320.615V25.5828C320.615 23.074 318.545 21.0332 316 21.0332C313.455 21.0332 311.385 23.074 311.385 25.5828V30.2334H320.615H323.692ZM318.308 35.5413C318.308 34.2869 317.272 33.2666 316 33.2666C314.728 33.2666 313.692 34.2869 313.692 35.5413C313.692 36.5293 314.337 37.363 315.231 37.677V40.0911C315.231 40.51 315.575 40.8494 316 40.8494C316.425 40.8494 316.769 40.51 316.769 40.0911V37.677C317.663 37.363 318.308 36.5293 318.308 35.5413Z" fill="white"/>
<defs>
<linearGradient id="paint0_linear" x1="301.5" y1="198" x2="301.5" y2="0" gradientUnits="userSpaceOnUse">
<stop stop-color="#0285F7"/>
<stop offset="1" stop-color="#00DDD1"/>
</linearGradient>
</defs>
</svg>
