<svg xmlns="http://www.w3.org/2000/svg" width="185" height="185" class="inline-block h-[32px] -ml-1" viewBox="0 0 174 32">
                            <path fill="#5cffd7" d="M172.734 18.408c-1.167-.656-6.677-.86-12.693-.842h-8.796c-21.258-.122-52.87.433-63.752.863-15.322.607-74.394-2.111-83.469-.07-.36.057-.696.223-.963.474-1.352 1.368-1.698 1.18-2.612 2.299-.975 1.188-.134 2.724.385 3.981s-.596 2.145.15 3.643c.449.906 3.482 1.232 7.179.88 11.816-1.111 77.85.019 88.222-.352 11.001-.395 52.047.142 65.352.48 10.833.727 10.998-2.093 10.998-3.83s3.112-5.779 0-7.528z"></path>
                            <path fill="#071c37" d="M18.579 16.609a7.906 7.906 0 0 0-1.875-.973l-.056-.018a30.296 30.296 0 0 0-2.001-.697l-.354-.097a6.336 6.336 0 0 0-.742-.17l-.041-.006a7.88 7.88 0 0 1-.842-.206l.057.015a1.93 1.93 0 0 1-.631-.317l.005.003a.629.629 0 0 1-.257-.508v-.02.001-.013c0-.147.047-.283.127-.394l-.001.002c.089-.125.204-.228.338-.301.152-.083.316-.141.486-.176.178-.04.36-.062.541-.063.2.003.401.024.598.063.223.043.442.103.659.176s.428.166.631.274c.194.099.802.546.937.627a.77.77 0 0 0 .635.062l-.005.002a.66.66 0 0 0 .242-.158l.399-.414.658-.689.667-.681.471-.452a.868.868 0 0 0 .257-.311l.002-.005a1.1 1.1 0 0 0 .086-.314l.001-.006a.743.743 0 0 0-.189-.443l.001.001a6.971 6.971 0 0 0-1.333-1.039l-.032-.018a6.855 6.855 0 0 0-1.433-.628l-.05-.014a8.293 8.293 0 0 0-1.528-.314l-.039-.004a15.856 15.856 0 0 0-1.679-.086h-.016.001-.083c-.936 0-1.843.128-2.703.368l.071-.017a7.198 7.198 0 0 0-2.231 1.016l.025-.016a4.788 4.788 0 0 0-1.424 1.509l-.012.022a3.85 3.85 0 0 0-.523 1.95v.041-.002a5.337 5.337 0 0 0 .293 1.771c.221.602.556 1.115.981 1.538.52.513 1.122.946 1.784 1.275l.04.018c.901.44 1.845.783 2.818 1.022.58.148 1.151.329 1.709.546.418.168.627.414.627.737v.014a.53.53 0 0 1-.163.383c-.125.11-.273.191-.433.237-.18.056-.393.101-.612.126l-.016.001a5.397 5.397 0 0 1-.707.04 3.023 3.023 0 0 1-1.287-.342l.017.008a8.03 8.03 0 0 1-1.615-1.012l.015.012a3.328 3.328 0 0 0-.386-.269.583.583 0 0 0-.313-.102h-.001l-.219.063a.658.658 0 0 0-.236.158l-2.264 2.378a.805.805 0 0 0-.276.561v.002c.019.275.139.533.339.722a7.585 7.585 0 0 0 2.844 1.972l.051.018a9.233 9.233 0 0 0 3.401.636h.017-.001a11.19 11.19 0 0 0 2.902-.363 7.716 7.716 0 0 0 2.429-1.088l-.027.017a5.331 5.331 0 0 0 1.611-1.703l.013-.024a4.536 4.536 0 0 0 .596-2.387v.006l.002-.142a4.33 4.33 0 0 0-.493-2.014l.011.024a4.427 4.427 0 0 0-1.251-1.396l-.013-.009zm19.987-2.955a8.94 8.94 0 0 0-1.898-2.815 8.998 8.998 0 0 0-2.767-1.853l-.059-.022c-1.029-.438-2.226-.692-3.482-.692s-2.453.254-3.542.714l.06-.022a8.928 8.928 0 0 0-4.721 4.639l-.022.057a8.428 8.428 0 0 0-.708 3.408c0 1.625.453 3.145 1.239 4.439l-.021-.038a8.72 8.72 0 0 0 3.167 3.039l.044.023a9.107 9.107 0 0 0 4.488 1.175h.02c2.43 0 4.636-.958 6.262-2.516l-.003.003a8.64 8.64 0 0 0 1.877-2.69l.022-.055c.44-.98.697-2.124.697-3.327v-.069.004l.001-.135c0-1.179-.24-2.301-.673-3.321l.021.056zm-5.486 4.749a3.025 3.025 0 0 1-.583 1.011l.003-.004a2.682 2.682 0 0 1-.887.66l-.017.007a2.829 2.829 0 0 1-1.192.237h-.051c-.415 0-.81-.087-1.167-.245l.019.007a2.629 2.629 0 0 1-.909-.664l-.003-.003a3.013 3.013 0 0 1-.574-.985l-.006-.021a3.737 3.737 0 0 1-.204-1.233v-.027.001a3.736 3.736 0 0 1 .204-1.245c.13-.369.327-.712.58-1.008a2.71 2.71 0 0 1 2.113-.943h-.003l.06-.001c.816 0 1.547.365 2.039.94l.003.004c.254.298.451.643.58 1.015.138.4.207.822.203 1.245.003.429-.067.856-.207 1.26v-.008zm20.733 2.212a7.815 7.815 0 0 1-.213-.335l-.044-.078a3.21 3.21 0 0 0-.25-.372l.005.007a1.278 1.278 0 0 0-.249-.244l-.003-.002a.598.598 0 0 0-.302-.117h-.199a.848.848 0 0 0-.248.088l.005-.002a4.122 4.122 0 0 1-.508.3l-.025.011c-.173.086-.381.17-.595.238l-.032.009c-.221.066-.447.12-.675.158-.207.039-.418.06-.629.063h-.045c-.41 0-.8-.091-1.149-.253l.017.007a2.747 2.747 0 0 1-.901-.671l-.003-.003a3.163 3.163 0 0 1-.581-.993l-.007-.022a3.622 3.622 0 0 1-.212-1.232v-.021.001a3.56 3.56 0 0 1 .212-1.232c.136-.373.335-.719.589-1.022.228-.303.518-.554.847-.737.331-.161.72-.255 1.131-.255h.049-.002c.214.004.426.025.636.064.452.072.893.206 1.311.395.177.08.344.179.501.295.161.11.348.176.542.19a.817.817 0 0 0 .68-.51l.002-.005 1.688-3.052c.072-.141.11-.297.111-.456l.001-.049a.814.814 0 0 0-.193-.528l.001.001a2.964 2.964 0 0 0-.567-.441l-.014-.008c-.687-.424-1.412-.78-2.165-1.066s-1.625-.452-2.534-.452h-.081.004-.066c-1.188 0-2.319.25-3.341.7l.053-.021a9.074 9.074 0 0 0-2.787 1.88l.001-.001a8.952 8.952 0 0 0-1.831 2.755l-.022.059a8.339 8.339 0 0 0-.697 3.364v.055-.003.067a8.25 8.25 0 0 0 .718 3.38l-.021-.053a8.746 8.746 0 0 0 1.886 2.698l.002.002a8.96 8.96 0 0 0 2.727 1.818l.058.022a8.337 8.337 0 0 0 3.301.668h.058-.003.05c.94 0 1.843-.162 2.681-.46l-.056.017a12.786 12.786 0 0 0 2.354-1.127c.151-.094.292-.207.417-.334a.743.743 0 0 0 .212-.506v-.001a.854.854 0 0 0-.176-.447l.001.002-1.428-2.206zm8.861-11.988h-4.269a.773.773 0 0 0-.635.26l-.001.001a.957.957 0 0 0-.213.604v.023-.001V24.58a.794.794 0 0 0 .222.641.775.775 0 0 0 .632.23h4.254c.623 0 .935-.29.935-.871V9.514a1.117 1.117 0 0 0-.209-.629l.002.003a.883.883 0 0 0-.723-.26h.004zm38.517 0h-4.269a.773.773 0 0 0-.634.26l-.001.001a.972.972 0 0 0-.211.626V24.58a.794.794 0 0 0 .222.641.775.775 0 0 0 .632.23h4.254c.622 0 .934-.29.934-.871V9.514a1.088 1.088 0 0 0-.209-.629l.002.003a.881.881 0 0 0-.724-.26h.004zm-18.279.277a1.031 1.031 0 0 0-.723-.238h.003H79.5a2.797 2.797 0 0 0-.435.001l.01-.001a.465.465 0 0 0-.257.127.855.855 0 0 0-.172.295l-.002.006a7.066 7.066 0 0 0-.174.475l-.023.08-.51 1.584a5.153 5.153 0 0 0-.604-1.052l.01.013a4.353 4.353 0 0 0-.9-.903l-.011-.008a4.533 4.533 0 0 0-1.208-.642l-.032-.01a4.682 4.682 0 0 0-1.513-.247h-.056.003l-.1-.001a8.61 8.61 0 0 0-3.347.673l.057-.021a7.83 7.83 0 0 0-2.625 1.797l-.003.003a8.114 8.114 0 0 0-1.692 2.68l-.019.056a9.554 9.554 0 0 0-.615 3.403v.083-.004l-.001.098c0 1.196.222 2.34.627 3.393l-.022-.065a7.989 7.989 0 0 0 4.301 4.531l.052.02a8.286 8.286 0 0 0 3.267.659l.106-.001h-.005.188l.098.001c.474 0 .928-.082 1.35-.232l-.028.009a3.429 3.429 0 0 0 1.004-.572c.264-.218.499-.472.696-.753l.523-.793.376 1.095.156.414a.988.988 0 0 0 .174.316.805.805 0 0 0 .27.203l.005.002c.145.06.3.087.456.079h3.319c.255.004.504-.08.706-.237a.859.859 0 0 0 .314-.74v.003V9.607l.001-.036a.891.891 0 0 0-.301-.669l-.001-.001zm-5.866 9.505c-.153.39-.368.725-.637 1.008l.001-.001a2.852 2.852 0 0 1-.981.666 3.12 3.12 0 0 1-1.233.238 2.859 2.859 0 0 1-1.184-.238 2.593 2.593 0 0 1-.91-.666 3.007 3.007 0 0 1-.573-.986l-.006-.021a3.709 3.709 0 0 1-.205-1.229v-.032.002a3.712 3.712 0 0 1 .205-1.245c.129-.372.326-.715.58-1.015a2.72 2.72 0 0 1 2.069-.953h.021-.001a3.006 3.006 0 0 1 2.213.952c.277.292.495.637.641 1.015.155.396.232.819.228 1.245v.038c0 .439-.084.859-.236 1.245l.008-.023zM92.304.326c-.19-.227-.432-.257-.721-.254h-4.091a.776.776 0 0 0-.642.253l-.001.001a.958.958 0 0 0-.204.633V24.58c0 .454.258.871.696.871h4.245a.97.97 0 0 0 .668-.223.855.855 0 0 0 .25-.607l-.001-.043v.002V.927A1.054 1.054 0 0 0 92.3.322l.002.003zm20.232 7.96V3.158l.001-.044a.878.878 0 0 0-.206-.567l.001.001a.691.691 0 0 0-.516-.231l-.027.001h.001l-4.222.664c-.258.037-.497.16-.676.352a.9.9 0 0 0-.226.598v.014-.001 4.342h-.958c-.461 0-.696.176-.846.352a.82.82 0 0 0-.157.555v-.003 2.75c-.01.549.264.988.76 1.035h1.202v11.597c0 .655.282.88.696.88h4.494c.473 0 .696-.292.696-.88V12.987h1.539a.9.9 0 0 0 .756-.282c.17-.216.254-.489.233-.764V9.287c0-.437-.085-.59-.272-.766a1.049 1.049 0 0 0-.746-.233h.004-1.532zm22.107.389h-4.584l-.05-.001c-.228 0-.441.066-.621.18l.005-.003a1.063 1.063 0 0 0-.39.555l-.002.007-2.929 8.991c-.25-.682-.512-1.41-.783-2.182l-.786-2.316-.785-2.315c-.256-.767-.501-1.494-.737-2.18a.954.954 0 0 0-.336-.539l-.002-.001a1.041 1.041 0 0 0-.644-.198h-4.668c-.523 0-.785.207-.785.618 0 .137.025.275.071.405l6.552 16.024-1.774 5.232a1.685 1.685 0 0 0-.085.427.467.467 0 0 0 .286.507l.003.001c.176.075.365.113.555.111h4.246a.929.929 0 0 0 .597-.216l-.002.001a.992.992 0 0 0 .348-.538c.272-.821.604-1.765.996-2.831s.822-2.207 1.288-3.425c.464-1.221.951-2.492 1.459-3.814l1.522-3.963 1.492-3.965 1.364-3.637a.741.741 0 0 0-.024-.622l.002.004c-.217-.356-.801-.32-.801-.32zm5.096 12.944a2.29 2.29 0 0 0-.755-.521l-.015-.006a2.355 2.355 0 0 0-.952-.198h-.013.001c-.32 0-.635.067-.928.198a2.52 2.52 0 0 0-.76.527 2.45 2.45 0 0 0-.516.753l-.006.016c-.124.271-.196.587-.196.921s.072.65.202.935l-.006-.014a2.5 2.5 0 0 0 .522.76c.219.222.477.401.76.528.292.13.609.198.928.198.331.002.66-.066.965-.198.287-.125.549-.304.77-.527a2.36 2.36 0 0 0 .697-1.677v-.024.001-.01c0-.338-.069-.66-.192-.953l.006.016a2.7 2.7 0 0 0-.51-.725zm7.355-12.992h-1.412l-.046-.001a.773.773 0 0 0-.528.208.825.825 0 0 0-.197.538v.026-.001 15.305a.668.668 0 0 0 .132.498l-.001-.002a.662.662 0 0 0 .44.258c.072.009 1.626 0 1.626 0a.78.78 0 0 0 .567-.191l-.001.001a.726.726 0 0 0 .204-.565v.002V9.349a.774.774 0 0 0-.201-.516l.001.001a.721.721 0 0 0-.588-.206h.003zm.786-6.224a2.165 2.165 0 0 0-1.536-.636h-.004c-.283 0-.565.059-.824.176a2.204 2.204 0 0 0-1.131 1.128l-.006.014c-.11.246-.174.532-.174.834v.007c.004.273.063.544.174.793.223.508.626.912 1.129 1.133a2.088 2.088 0 0 0 1.691-.005l-.013.005a2.112 2.112 0 0 0 1.295-1.945v-.023.001a2.174 2.174 0 0 0-.164-.839 2.068 2.068 0 0 0-.403-.685l.002.002-.038.04zm20.162 11.211c-1.347-3.161-4.427-5.336-8.015-5.336a8.667 8.667 0 0 0-3.437.706l.056-.022a8.896 8.896 0 0 0-2.751 1.865 8.711 8.711 0 0 0-2.539 6.159v.008c0 2.315.914 4.535 2.539 6.167a8.72 8.72 0 0 0 2.75 1.858 8.77 8.77 0 0 0 6.762 0 8.68 8.68 0 0 0 4.651-4.672l.021-.057c.405-.972.64-2.101.64-3.285a8.717 8.717 0 0 0-.708-3.454l.022.057.008.007zm-2.515 5.699a6.084 6.084 0 0 1-1.292 1.896 6.236 6.236 0 0 1-1.875 1.244l-.041.015a5.565 5.565 0 0 1-2.261.471l-.082-.001h.004-.045a5.556 5.556 0 0 1-2.279-.485l.035.014a6.169 6.169 0 0 1-1.886-1.291 6.07 6.07 0 0 1-1.263-1.857l-.015-.039c-.293-.681-.464-1.474-.464-2.306s.17-1.625.478-2.345l-.015.039a6.13 6.13 0 0 1 3.126-3.188l.039-.015c.683-.298 1.478-.471 2.314-.471s1.631.173 2.352.486l-.038-.015a6.194 6.194 0 0 1 3.164 3.164l.015.04c.306.692.485 1.5.485 2.349 0 .829-.17 1.618-.477 2.334l.015-.039h.006z"></path>
                            <path fill="#ff415a" d="M63.879 3.314c0 1.83-1.479 3.314-3.303 3.314s-3.303-1.484-3.303-3.314S58.752 0 60.576 0s3.303 1.484 3.303 3.314zM102.397 3.314c0 1.83-1.479 3.314-3.303 3.314s-3.303-1.484-3.303-3.314S97.27 0 99.094 0s3.303 1.484 3.303 3.314z"></path>
                        </svg>