<svg xmlns="http://www.w3.org/2000/svg" width="132" height="132" class="inline-block Footer_logo___k1d_ h-[32px]" viewBox="0 0 164 32" color="black">
                                <path fill="black" d="M12.523 16.608a7.995 7.995 0 0 0-1.888-.972l-.057-.018a30.41 30.41 0 0 0-2.013-.695l-.358-.097a6.464 6.464 0 0 0-.749-.171l-.042-.006a7.878 7.878 0 0 1-.848-.207l.057.015c-.24-.07-.45-.177-.634-.316l.005.004a.63.63 0 0 1-.26-.509v-.019.001-.013c0-.147.047-.283.128-.394l-.001.002c.09-.124.203-.225.334-.299l.005-.003a1.72 1.72 0 0 1 .478-.175l.012-.002a2.627 2.627 0 0 1 1.166.003l-.017-.003c.226.045.446.104.663.177.22.073.433.166.636.275.196.098.809.546.945.625a.772.772 0 0 0 .638.062l-.006.002a.673.673 0 0 0 .245-.158l.401-.414.663-.689.672-.681.476-.452a.87.87 0 0 0 .258-.311l.002-.005c.042-.093.072-.201.086-.315l.001-.005a.74.74 0 0 0-.189-.443l.001.001a6.958 6.958 0 0 0-1.344-1.036l-.032-.018a6.985 6.985 0 0 0-1.444-.63l-.051-.014a8.408 8.408 0 0 0-1.538-.313l-.039-.004a16.247 16.247 0 0 0-1.701-.087h-.007a10.224 10.224 0 0 0-2.735.352 7.32 7.32 0 0 0-2.221 1 4.78 4.78 0 0 0-1.448 1.53 3.837 3.837 0 0 0-.527 1.952v.04-.002a5.335 5.335 0 0 0 .296 1.771c.211.58.548 1.105.988 1.538.538.527 1.16.964 1.837 1.293.907.44 1.858.783 2.839 1.022.584.149 1.16.329 1.722.546.42.169.631.414.631.736v.015c0 .15-.063.286-.164.382-.121.107-.268.19-.429.237l-.008.002a3.363 3.363 0 0 1-.617.125l-.016.001c-.196.025-.422.04-.652.04H6.61h.003a3.056 3.056 0 0 1-1.297-.341l.017.008a8.115 8.115 0 0 1-1.629-1.012l.016.013a3.337 3.337 0 0 0-.373-.261l-.015-.008a.595.595 0 0 0-.313-.102h-.001l-.222.062a.667.667 0 0 0-.237.16L.278 21.777a.8.8 0 0 0-.277.563v.002a1.1 1.1 0 0 0 .339.719 7.634 7.634 0 0 0 2.918 1.99 9.516 9.516 0 0 0 3.441.638h.074a11.33 11.33 0 0 0 2.931-.383l-.079.018a7.825 7.825 0 0 0 2.447-1.087l-.028.018a5.321 5.321 0 0 0 1.636-1.728 4.575 4.575 0 0 0 .602-2.379l.002-.14c0-.728-.18-1.414-.497-2.017l.011.024a4.425 4.425 0 0 0-1.272-1.406zm20.134-2.955a8.926 8.926 0 0 0-1.912-2.813l-.001-.001a9.08 9.08 0 0 0-2.787-1.852l-.059-.022c-1.037-.438-2.243-.692-3.508-.692s-2.471.254-3.569.715l.061-.023a8.925 8.925 0 0 0-4.755 4.64l-.022.057a8.381 8.381 0 0 0-.713 3.409c0 1.626.456 3.146 1.248 4.438l-.021-.037a8.762 8.762 0 0 0 3.189 3.038l.045.023a9.234 9.234 0 0 0 4.521 1.175h.024a9.118 9.118 0 0 0 6.303-2.517l-.004.004a8.658 8.658 0 0 0 1.914-2.744 8.247 8.247 0 0 0 .7-3.394l.001-.137c0-1.178-.241-2.3-.677-3.319l.021.055zm-5.525 4.751a3.032 3.032 0 0 1-.586 1.009l.003-.003a2.696 2.696 0 0 1-.911.666 2.89 2.89 0 0 1-1.201.239h-.047a2.92 2.92 0 0 1-1.18-.247l.019.007a2.622 2.622 0 0 1-.916-.664l-.002-.003a3.003 3.003 0 0 1-.579-.984l-.007-.021a3.727 3.727 0 0 1-.205-1.232v-.031.002-.028c0-.436.075-.854.213-1.242l-.008.026c.132-.369.329-.712.584-1.009a2.738 2.738 0 0 1 2.127-.941l.059-.001c.82 0 1.556.364 2.054.938l.003.003c.256.301.454.644.584 1.016.139.399.209.821.207 1.244.002.429-.068.855-.209 1.261v-.008zm20.883 2.21a9.499 9.499 0 0 1-.216-.335l-.044-.075a3.156 3.156 0 0 0-.25-.374l.006.007a1.277 1.277 0 0 0-.251-.242l-.004-.003a.603.603 0 0 0-.304-.118h-.201a.856.856 0 0 0-.249.089l.005-.002c-.336.23-.724.42-1.138.549l-.031.008a6.043 6.043 0 0 1-.681.158 3.97 3.97 0 0 1-.632.064h-.044a2.741 2.741 0 0 1-2.049-.918l-.002-.003a3.161 3.161 0 0 1-.586-.994l-.007-.022a3.597 3.597 0 0 1-.215-1.236v-.017.001-.016c0-.436.079-.854.223-1.239l-.008.024c.146-.393.347-.732.597-1.027l-.004.005c.23-.302.515-.549.841-.731l.014-.007c.371-.173.776-.26 1.186-.252a5.195 5.195 0 0 1 1.994.473l-.032-.013c.177.079.346.177.504.294.154.106.341.174.542.188h.004a.825.825 0 0 0 .685-.508l.002-.005 1.7-3.053a1 1 0 0 0 .113-.455v-.001l.001-.047a.81.81 0 0 0-.194-.528l.001.001a2.971 2.971 0 0 0-.572-.442l-.014-.008a12.592 12.592 0 0 0-2.093-1.036l-.088-.03a7.299 7.299 0 0 0-2.553-.452h-.081.004-.07a8.378 8.378 0 0 0-3.363.699l.054-.021a9.122 9.122 0 0 0-2.806 1.882l.001-.001a8.878 8.878 0 0 0-1.867 2.814 8.277 8.277 0 0 0-.702 3.366v.054-.003a8.249 8.249 0 0 0 .702 3.394 8.75 8.75 0 0 0 1.898 2.697l.003.003a9.026 9.026 0 0 0 2.805 1.841 8.58 8.58 0 0 0 3.381.668 8.146 8.146 0 0 0 2.696-.442 12.914 12.914 0 0 0 2.372-1.126c.152-.094.294-.207.42-.335a.74.74 0 0 0 .215-.508v-.001a.858.858 0 0 0-.178-.446l.001.002-1.438-2.206zm8.926-11.987H52.64a.783.783 0 0 0-.64.259l-.001.001a.952.952 0 0 0-.213.603v.025-.001V24.58a.79.79 0 0 0 .863.871h-.003 4.286c.627 0 .941-.292.941-.872V9.513a1.105 1.105 0 0 0-.211-.63l.002.003a.897.897 0 0 0-.728-.259h.004zm38.799 0h-4.301a.782.782 0 0 0-.639.259l-.001.001a.96.96 0 0 0-.213.606v.022-.001V24.58a.79.79 0 0 0 .865.872h-.003 4.284c.627 0 .941-.292.941-.872V9.514a1.083 1.083 0 0 0-.211-.63l.002.003a.893.893 0 0 0-.729-.259h.004zm-18.413.277a1.043 1.043 0 0 0-.73-.237h.003-2.711a2.804 2.804 0 0 0-.437 0l.01-.001a.466.466 0 0 0-.26.126.842.842 0 0 0-.173.295l-.002.006c-.053.132-.12.318-.2.555l-.514 1.583a5.075 5.075 0 0 0-.608-1.05l.009.013a4.41 4.41 0 0 0-.907-.903l-.012-.008a4.564 4.564 0 0 0-2.73-.899l-.102.001h.005l-.101-.001a8.73 8.73 0 0 0-3.371.673l.058-.021a7.887 7.887 0 0 0-2.644 1.797l-.002.002a8.095 8.095 0 0 0-1.705 2.68l-.019.055a9.49 9.49 0 0 0-.62 3.404v.082-.004l-.001.099c0 1.196.223 2.339.63 3.391l-.022-.064a8.015 8.015 0 0 0 4.334 4.532l.052.02a8.561 8.561 0 0 0 3.392.659h.188c.488.011.971-.064 1.431-.222a3.46 3.46 0 0 0 1.015-.572c.264-.218.501-.471.7-.753l.527-.792.378 1.094.158.414a.82.82 0 0 0 .447.521l.005.002c.147.056.303.085.459.077H76.614c.264 0 .508-.089.702-.239l-.003.002a.857.857 0 0 0 .314-.742v.003V9.608l.001-.037a.887.887 0 0 0-.301-.668l-.001-.001zm-5.909 9.505a3.062 3.062 0 0 1-.64 1.007 2.885 2.885 0 0 1-.969.659l-.019.007a3.107 3.107 0 0 1-1.242.237h-.042c-.416 0-.811-.087-1.168-.245l.019.007a2.636 2.636 0 0 1-.914-.664l-.002-.003a2.997 2.997 0 0 1-.577-.986l-.006-.021a3.693 3.693 0 0 1-.207-1.23v-.03.002a3.63 3.63 0 0 1 .207-1.244c.13-.373.328-.715.584-1.016a2.746 2.746 0 0 1 2.104-.951 3.044 3.044 0 0 1 2.229.951c.279.294.499.64.646 1.016.156.395.233.819.23 1.244.006.431-.073.858-.23 1.261zM86.788.326c-.19-.226-.433-.258-.727-.254h-4.119a.78.78 0 0 0-.646.253l-.001.001a.956.956 0 0 0-.207.634V.958 24.58c0 .454.262.872.704.872h4.275l.046.001c.24 0 .459-.086.63-.228l-.002.001a.843.843 0 0 0 .25-.646V.928a1.046 1.046 0 0 0-.205-.605l.002.003zm20.382 7.96V3.158l.001-.043a.881.881 0 0 0-.209-.57l.001.001a.697.697 0 0 0-.519-.23l-.028.001h.001l-4.252.664c-.27.039-.505.166-.679.351l-.001.001a.894.894 0 0 0-.23.601v.01-.001 4.343h-.964c-.465 0-.702.175-.853.352a.816.816 0 0 0-.162.49l.002.064v-.003 2.75c-.009.55.267.988.768 1.035h1.208v11.597c0 .655.284.879.702.879h4.527c.478 0 .702-.292.702-.879V12.987h1.551a.915.915 0 0 0 .76-.282 1.081 1.081 0 0 0 .235-.768v.004-2.654c0-.437-.085-.589-.275-.766a1.06 1.06 0 0 0-.751-.233h.004-1.544zm22.266.388h-4.616l-.05-.001c-.23 0-.445.066-.627.181l.005-.003a1.057 1.057 0 0 0-.393.555l-.002.007-2.95 8.992c.116.45-.152-.274-.415-.999l-.375-1.184-1.581-4.631c-.256-.768-.504-1.495-.742-2.18a.956.956 0 0 0-.337-.539l-.002-.002a1.04 1.04 0 0 0-.614-.198l-.037.001h.002H112c-.527 0-.791.207-.791.617 0 .139.024.275.072.405l6.6 16.024-1.788 5.233a1.62 1.62 0 0 0-.084.422v.005a.47.47 0 0 0 .288.507l.003.001c.177.075.369.113.561.111h4.269c.461-.005.846-.32.958-.746l.002-.007a90.62 90.62 0 0 1 1.001-2.831c.395-1.065.828-2.208 1.297-3.426.467-1.22.958-2.49 1.468-3.814.514-1.321 1.024-2.643 1.534-3.962l1.504-3.966 1.374-3.635a.74.74 0 0 0-.026-.624l.002.004c-.218-.354-.808-.32-.808-.32zm5.133 12.945a2.42 2.42 0 0 0-2.698-.521l.016-.006a2.55 2.55 0 0 0-1.285 1.279l-.006.016a2.245 2.245 0 0 0 .005 1.856l-.006-.014c.128.282.305.542.527.76a2.382 2.382 0 0 0 1.721.723c.676 0 1.287-.276 1.727-.722a2.365 2.365 0 0 0 .7-1.7 2.4 2.4 0 0 0-.188-.947 2.684 2.684 0 0 0-.512-.725zm7.411-12.992h-1.423l-.046-.001a.776.776 0 0 0-.532.209.825.825 0 0 0-.198.537v.027-.001 15.304a.674.674 0 0 0 .572.755h.004c.072.011 1.638 0 1.638 0a.793.793 0 0 0 .572-.189l-.001.001a.727.727 0 0 0 .207-.509l-.002-.058v.003V9.351a.776.776 0 0 0-.202-.515l.001.001a.732.732 0 0 0-.592-.207h.003zm.791-6.223a2.184 2.184 0 0 0-1.545-.638h-.006c-.286 0-.568.06-.828.177a2.225 2.225 0 0 0-1.143 1.127l-.006.014c-.11.24-.174.521-.174.817s.064.577.179.829l-.005-.013a2.21 2.21 0 0 0 1.141 1.133 2.124 2.124 0 0 0 1.704-.005l-.014.005a2.105 2.105 0 0 0 1.305-1.944v-.024.001c0-.286-.056-.572-.166-.838a2.075 2.075 0 0 0-.406-.685l.002.002-.038.041zm20.31 11.211c-1.374-3.164-4.471-5.337-8.076-5.337a8.74 8.74 0 0 0-3.459.708l.057-.022c-3.161 1.353-5.335 4.437-5.335 8.028s2.174 6.675 5.279 8.007l.057.022a8.89 8.89 0 0 0 6.81 0 8.71 8.71 0 0 0 4.685-4.673l.021-.057a8.55 8.55 0 0 0 .645-3.287 8.671 8.671 0 0 0-.712-3.452l.022.056.008.008zm-2.535 5.698a6.117 6.117 0 0 1-1.3 1.895l-.001.001a6.283 6.283 0 0 1-1.888 1.246l-.041.015a5.76 5.76 0 0 1-2.355.471h-.048a5.64 5.64 0 0 1-2.296-.485l.036.014a6.21 6.21 0 0 1-1.899-1.293 6.066 6.066 0 0 1-1.272-1.857l-.015-.039c-.295-.681-.467-1.473-.467-2.306s.172-1.625.482-2.344l-.015.039a6.152 6.152 0 0 1 3.148-3.188l.039-.015c.688-.298 1.489-.472 2.331-.472s1.643.173 2.37.487l-.039-.015a6.164 6.164 0 0 1 3.202 3.204c.309.692.489 1.5.489 2.35 0 .828-.171 1.617-.479 2.332l.015-.038h.004zM58.155 3.315c0 1.831-1.49 3.315-3.328 3.315s-3.328-1.484-3.328-3.315S52.989 0 54.827 0s3.328 1.484 3.328 3.315zM96.956 3.315c0 1.831-1.49 3.315-3.328 3.315S90.3 5.146 90.3 3.315 91.79 0 93.628 0s3.328 1.484 3.328 3.315z"></path>
                            </svg>