<svg width="147" height="10" preserveAspectRatio="none" xmlns="http://www.w3.org/2000/svg"><path d="M128.36.062c-17.366-.098-77.462.35-86.353.696-12.52.49-31.305-1.697-38.718-.056-.235.052-.532.13-.786.383C1.396 2.19 1.115 2.037.366 2.938-.43 3.896.257 5.136.681 6.15c.423 1.014-.485 1.726.123 2.935.368.73 2.85.993 5.865.714 9.654-.895 97.872.015 106.344-.285 8.987-.318 13.05.115 23.919.388 8.85.585 8.983-1.689 8.983-3.088 0-1.4 2.44-4.496 0-6.076C144.29-.314 128.543.061 128.36.062z" fill="#5CFFD7" fill-rule="evenodd"/></svg>