<svg width="744" height="176" viewBox="0 0 744 176" fill="none" xmlns="http://www.w3.org/2000/svg">
<path d="M325.637 31.338C241.831 69.9163 67.2208 66.7333 38 69.1416V105.753C80.3418 104.337 169.066 106.605 234.176 135.503C367.725 194.776 347.134 178.243 431.576 153.422C491.578 135.785 670.36 110.458 711 111.449V65.436C650.998 65.436 591.29 36.8629 521.501 16.2508C475.31 2.60851 433.551 -18.3384 325.637 31.338Z" fill="#303030" fill-opacity="0.1"/>
<path d="M334.254 62.6844C246.754 85.161 56.2188 82.5787 0 81.3049V92.387C40.4261 89.5562 162.473 81.5306 248.097 109.16C371.438 148.959 356.574 136.197 449.743 114.753C524.279 97.5987 698.813 95.0137 744 96.5707V81.3049C689.141 81.3049 610.671 77.2086 514.925 54.4914C463.92 42.3898 427.649 38.6933 334.254 62.6844Z" fill="#F0B75E"/>
</svg>
