<svg width="744" height="185" viewBox="0 0 744 185" fill="none" xmlns="http://www.w3.org/2000/svg">
<path fill-rule="evenodd" clip-rule="evenodd" d="M66.0392 114.155C113.975 109.344 204.072 100.302 300.5 151C415.253 211.333 474.59 177.471 516.618 153.487C523.861 149.354 530.59 145.514 537 142.5C595.515 114.987 664.055 115.542 701.297 115.844C704.824 115.873 708.07 115.899 711 115.899V59.1588C670.36 60.1542 470.002 44.2048 410 26.5C400.105 23.5803 390.95 20.7339 382.364 18.0641C317.67 -2.05049 285.216 -12.1411 211.5 32C157.554 64.3031 79.8418 80.5691 37.5 79.1471V115.899C43.6159 116.405 53.3505 115.428 66.0392 114.155ZM371.638 65.1049C385.509 69.0382 399.486 73.772 412.364 79.2018C453.36 96.4874 439.518 135.113 395.321 130.011C391.644 129.587 387.805 129.105 383.793 128.563C367.392 126.35 353.865 122.456 341.378 111.595C312.423 86.4073 334.717 54.6354 371.638 65.1049Z" fill="#303030" fill-opacity="0.1"/>
<path fill-rule="evenodd" clip-rule="evenodd" d="M45.0801 105.557C100.368 101.848 172.462 97.011 240.101 113.284C280.844 123.087 309.097 133.202 332.042 141.417C384.502 160.199 409.21 169.044 492 141.5C593.311 107.794 677.321 108.074 732.668 108.259C736.591 108.272 740.369 108.284 744 108.284V83.3836C740.969 83.3836 737.498 83.3986 733.621 83.4154C676.113 83.6646 529.127 84.3014 397.5 41.9998C330.158 20.3577 318.09 25.0387 266.426 45.0777C248.257 52.1254 225.189 61.0727 193.097 71.4427C107.473 99.1107 40.4261 99.737 0 96.9022V108C13.0845 107.703 28.309 106.682 45.0801 105.557ZM378.007 66.2807C386.884 69.572 395.907 73.1532 404.654 76.965C449.407 96.468 437.473 143.001 388.96 137.55C383.733 136.963 378.336 136.115 372.789 134.965C356.974 131.684 333.965 117.045 323.392 104.835C295.479 72.6002 338.027 51.4572 378.007 66.2807Z" fill="#F0B75E"/>
<path d="M361.081 108.447C364.108 110.703 367.559 112.701 371.178 114.421C386.429 121.668 402.627 108.432 396.426 92.7259C394.055 86.7187 389.549 82.9681 383.225 81.6537C379.357 80.8497 375.571 80.6984 371.994 80.9872C357.04 82.1942 349.054 99.4805 361.081 108.447Z" fill="#FF9900"/>
</svg>
