<svg width="744" height="162" viewBox="0 0 744 162" fill="none" xmlns="http://www.w3.org/2000/svg">
<path d="M273.5 64.5001C172.607 20.6599 76.5 12.6348 38 14.1348V94.6347C392 75.9995 286.5 205 397.5 146C481.376 101.417 651.833 73.3333 711 87.5V1.08134C700.833 0.581342 646.631 -3.77233 568.5 26.5C419.5 84.2312 441.5 137.5 273.5 64.5001Z" fill="#303030" fill-opacity="0.1"/>
<path d="M287.5 82.3835C195.262 42.9819 99 27.3835 0 27.3835V82.3835C455.5 82.3835 323 166.999 416 122.499C551.454 57.6845 694.667 53.0502 744 64.3835V42.5813C725.167 36.248 600 34.1156 508 72.4998C349.066 138.81 358 112.499 287.5 82.3835Z" fill="#F0B75E"/>
</svg>
