<svg width="67" height="67" viewBox="0 0 67 67" fill="none" xmlns="http://www.w3.org/2000/svg">
<path d="M0 14.6448C0 9.51864 0 6.95556 0.997618 4.99763C1.87515 3.27538 3.27538 1.87515 4.99763 0.997618C6.95556 0 9.51864 0 14.6448 0H52.3552C57.4813 0 60.0444 0 62.0024 0.997618C63.7246 1.87515 65.1248 3.27538 66.0024 4.99763C67 6.95556 67 9.51864 67 14.6448V52.3552C67 57.4813 67 60.0444 66.0024 62.0024C65.1248 63.7246 63.7246 65.1248 62.0024 66.0024C60.0444 67 57.4813 67 52.3552 67H14.6448C9.51864 67 6.95556 67 4.99763 66.0024C3.27538 65.1248 1.87515 63.7246 0.997618 62.0024C0 60.0444 0 57.4813 0 52.3552V14.6448Z" fill="white"/>
<path d="M29.939 55.0356C27.0033 55.0356 24.3499 54.3406 21.9787 52.9506C19.6452 51.522 17.7822 49.5914 16.3896 47.159C15.0346 44.7265 14.3572 41.9851 14.3572 38.9348C14.3572 35.8846 14.9782 33.1625 16.2202 30.7687C17.4999 28.3362 19.2312 26.4249 21.4142 25.0349C23.5971 23.6063 26.0623 22.892 28.8099 22.892C31.0305 22.892 33.0817 23.3747 34.9635 24.3399C36.8454 25.2666 38.4262 26.5408 39.7058 28.1624V12.525C39.7058 11.637 39.9693 10.9227 40.4962 10.3821C41.0608 9.84156 41.7571 9.57129 42.5851 9.57129C43.4507 9.57129 44.147 9.84156 44.6739 10.3821C45.2009 10.9227 45.4643 11.637 45.4643 12.525V38.9348C45.4643 41.9851 44.768 44.7265 43.3755 47.159C42.0205 49.5914 40.1763 51.522 37.8428 52.9506C35.5093 54.3406 32.8747 55.0356 29.939 55.0356ZM29.939 49.8231C31.8585 49.8231 33.571 49.3598 35.0765 48.4331C36.5819 47.4678 37.7675 46.1551 38.6332 44.4948C39.4988 42.8345 39.9316 40.9812 39.9316 38.9348C39.9316 36.8499 39.4988 34.9965 38.6332 33.3749C37.7675 31.7532 36.5819 30.4791 35.0765 29.5524C33.571 28.5871 31.8585 28.1045 29.939 28.1045C28.0571 28.1045 26.3446 28.5871 24.8015 29.5524C23.296 30.4791 22.0916 31.7532 21.1883 33.3749C20.3227 34.9965 19.8898 36.8499 19.8898 38.9348C19.8898 40.9812 20.3227 42.8345 21.1883 44.4948C22.0916 46.1551 23.296 47.4678 24.8015 48.4331C26.3446 49.3598 28.0571 49.8231 29.939 49.8231Z" fill="#303030"/>
<path d="M52.6429 51.4462C52.6429 53.4285 51.0359 55.0355 49.0536 55.0355C47.0713 55.0355 45.4643 53.4285 45.4643 51.4462C45.4643 49.4639 47.0713 47.8569 49.0536 47.8569C51.0359 47.8569 52.6429 49.4639 52.6429 51.4462Z" fill="#303030"/>
</svg>
