<svg width="109" height="26" viewBox="0 0 109 26" fill="none" xmlns="http://www.w3.org/2000/svg">
<g clip-path="url(#clip0_886_987)">
<path d="M0 5.46869C0 3.55456 0 2.59749 0.379493 1.86639C0.713306 1.22329 1.24596 0.700435 1.90109 0.37276C2.6459 0.000244141 3.62089 0.000244141 5.57088 0.000244141H19.9159C21.8658 0.000244141 22.8408 0.000244141 23.5856 0.37276C24.2408 0.700435 24.7735 1.22329 25.1073 1.86639C25.4868 2.59749 25.4868 3.55456 25.4868 5.46869V19.55C25.4868 21.4641 25.4868 22.4212 25.1073 23.1523C24.7735 23.7954 24.2408 24.3182 23.5856 24.6459C22.8408 25.0184 21.8658 25.0184 19.9159 25.0184H5.57088C3.62089 25.0184 2.6459 25.0184 1.90109 24.6459C1.24596 24.3182 0.713306 23.7954 0.379493 23.1523C0 22.4212 0 21.4641 0 19.55V5.46869Z" fill="#303030"/>
<path d="M10.8864 20.2735C9.78748 20.2735 8.79418 20.0262 7.90655 19.5317C7.03302 19.0233 6.33559 18.3365 5.81429 17.471C5.30708 16.6056 5.05347 15.6303 5.05347 14.545C5.05347 13.4598 5.28594 12.4913 5.75089 11.6396C6.22993 10.7741 6.87804 10.0942 7.69521 9.59965C8.5124 9.09137 9.43524 8.83723 10.4638 8.83723C11.295 8.83723 12.063 9.00895 12.7674 9.35237C13.4719 9.68207 14.0635 10.1354 14.5426 10.7124V5.14879C14.5426 4.83284 14.6412 4.57871 14.8385 4.38638C15.0499 4.19406 15.3105 4.0979 15.6205 4.0979C15.9446 4.0979 16.2052 4.19406 16.4025 4.38638C16.5996 4.57871 16.6983 4.83284 16.6983 5.14879V14.545C16.6983 15.6303 16.4377 16.6056 15.9163 17.471C15.4091 18.3365 14.7187 19.0233 13.8452 19.5317C12.9717 20.0262 11.9855 20.2735 10.8864 20.2735ZM10.8864 18.4189C11.605 18.4189 12.2461 18.2541 12.8096 17.9244C13.3732 17.5809 13.817 17.1139 14.141 16.5231C14.4651 15.9325 14.6272 15.2731 14.6272 14.545C14.6272 13.8032 14.4651 13.1439 14.141 12.5669C13.817 11.9899 13.3732 11.5366 12.8096 11.2069C12.2461 10.8635 11.605 10.6917 10.8864 10.6917C10.182 10.6917 9.54092 10.8635 8.96325 11.2069C8.39968 11.5366 7.94882 11.9899 7.61068 12.5669C7.28663 13.1439 7.1246 13.8032 7.1246 14.545C7.1246 15.2731 7.28663 15.9325 7.61068 16.5231C7.94882 17.1139 8.39968 17.5809 8.96325 17.9244C9.54092 18.2541 10.182 18.4189 10.8864 18.4189Z" fill="white"/>
<path d="M19.7743 18.9795C19.7743 19.575 19.2333 20.0578 18.5659 20.0578C17.8985 20.0578 17.3574 19.575 17.3574 18.9795C17.3574 18.3838 17.8985 17.9011 18.5659 17.9011C19.2333 17.9011 19.7743 18.3838 19.7743 18.9795Z" fill="white"/>
<path fill-rule="evenodd" clip-rule="evenodd" d="M36.2089 20.4191C37.1311 20.9363 38.163 21.1948 39.3045 21.1948C40.4462 21.1948 41.4708 20.9363 42.3783 20.4191C43.2857 19.8877 44.003 19.1694 44.5299 18.2643C45.0714 17.3593 45.3423 16.3395 45.3423 15.2046V5.37878C45.3423 5.04839 45.2398 4.78263 45.0349 4.58151C44.83 4.3804 44.5591 4.27985 44.2225 4.27985C43.9005 4.27985 43.6298 4.3804 43.4101 4.58151C43.2052 4.78263 43.1027 5.04839 43.1027 5.37878V11.1967C42.6051 10.5933 41.9904 10.1193 41.2586 9.77453C40.5267 9.4154 39.7291 9.23584 38.8655 9.23584C37.7969 9.23584 36.8383 9.50159 35.9894 10.0331C35.1404 10.5503 34.4671 11.2613 33.9695 12.1663C33.4865 13.0569 33.245 14.0698 33.245 15.2046C33.245 16.3395 33.5084 17.3593 34.0354 18.2643C34.577 19.1694 35.3015 19.8877 36.2089 20.4191ZM41.3025 18.7384C40.7171 19.0832 40.0511 19.2555 39.3045 19.2555C38.5727 19.2555 37.9068 19.0832 37.3067 18.7384C36.7212 18.3792 36.2529 17.8909 35.9015 17.2731C35.565 16.6554 35.3965 15.9659 35.3965 15.2046C35.3965 14.4288 35.565 13.7394 35.9015 13.136C36.2529 12.5327 36.7212 12.0586 37.3067 11.7138C37.9068 11.3547 38.5727 11.1751 39.3045 11.1751C40.0511 11.1751 40.7171 11.3547 41.3025 11.7138C41.8879 12.0586 42.349 12.5327 42.6856 13.136C43.0223 13.7394 43.1906 14.4288 43.1906 15.2046C43.1906 15.9659 43.0223 16.6554 42.6856 17.2731C42.349 17.8909 41.8879 18.3792 41.3025 18.7384ZM48.726 20.807C48.9456 21.0081 49.2163 21.1087 49.5383 21.1087C49.875 21.1087 50.1458 21.0081 50.3507 20.807C50.5556 20.5915 50.6581 20.3258 50.6581 20.0097V10.421C50.6581 10.0906 50.5556 9.82481 50.3507 9.62369C50.1458 9.42258 49.875 9.32203 49.5383 9.32203C49.2163 9.32203 48.9456 9.42258 48.726 9.62369C48.5211 9.82481 48.4187 10.0906 48.4187 10.421V20.0097C48.4187 20.3258 48.5211 20.5915 48.726 20.807ZM48.5064 6.78087C48.7992 7.05381 49.1432 7.19028 49.5383 7.19028C49.9335 7.19028 50.2701 7.05381 50.5483 6.78087C50.841 6.49357 50.9874 6.15599 50.9874 5.76813C50.9874 5.38027 50.841 5.04987 50.5483 4.77693C50.2701 4.48962 49.9335 4.34598 49.5383 4.34598C49.1432 4.34598 48.7992 4.48962 48.5064 4.77693C48.2284 5.04987 48.0893 5.38027 48.0893 5.76813C48.0893 6.15599 48.2284 6.49357 48.5064 6.78087ZM59.3908 21.1948C58.2931 21.1948 57.3197 20.9435 56.4708 20.4407C55.6365 19.9235 54.9778 19.2197 54.4949 18.329C54.0119 17.424 53.7703 16.3897 53.7703 15.2262C53.7703 14.0481 54.0265 13.0139 54.5388 12.1233C55.0657 11.2182 55.7829 10.5143 56.6903 10.0116C57.5979 9.49441 58.6444 9.23584 59.8299 9.23584C61.0009 9.23584 62.0401 9.49441 62.9475 10.0116C63.855 10.5143 64.5649 11.2182 65.0771 12.1233C65.604 13.0139 65.8676 14.0481 65.8676 15.2262V19.8805C65.8676 21.0153 65.6115 22.0424 65.0992 22.9618C64.5869 23.8955 63.8696 24.6353 62.9475 25.1812C62.0401 25.7271 60.9863 26 59.7861 26C58.7468 26 57.7735 25.7989 56.8661 25.3967C55.9585 24.9945 55.1901 24.4055 54.5607 23.6297C54.3705 23.3856 54.2973 23.1341 54.3412 22.8756C54.3997 22.617 54.5461 22.4087 54.7802 22.2507C55.0437 22.0783 55.3145 22.0208 55.5926 22.0783C55.8854 22.1357 56.1195 22.2794 56.2952 22.5093C56.6903 22.9977 57.188 23.3784 57.7881 23.6513C58.3882 23.9243 59.0688 24.0607 59.8299 24.0607C60.5325 24.0607 61.1765 23.8955 61.762 23.5651C62.3621 23.2347 62.8377 22.7463 63.189 22.0999C63.5403 21.4534 63.7159 20.6634 63.7159 19.7296V18.6597C63.2953 19.3956 62.7465 19.9893 62.0694 20.4407C61.2936 20.9435 60.4007 21.1948 59.3908 21.1948ZM59.8299 19.2555C60.591 19.2555 61.2643 19.0832 61.8498 18.7384C62.4353 18.3937 62.889 17.9196 63.2109 17.3162C63.5476 16.7129 63.7159 16.0162 63.7159 15.2262C63.7159 14.436 63.5476 13.7394 63.2109 13.136C62.889 12.5183 62.4353 12.037 61.8498 11.6923C61.2643 11.3476 60.591 11.1751 59.8299 11.1751C59.0688 11.1751 58.3955 11.3476 57.8101 11.6923C57.2246 12.037 56.7636 12.5183 56.4269 13.136C56.0903 13.7394 55.9219 14.436 55.9219 15.2262C55.9219 16.0162 56.0903 16.7129 56.4269 17.3162C56.7636 17.9196 57.2246 18.3937 57.8101 18.7384C58.3955 19.0832 59.0688 19.2555 59.8299 19.2555ZM69.5078 20.807C69.7273 21.0081 69.9982 21.1087 70.3201 21.1087C70.6567 21.1087 70.9276 21.0081 71.1324 20.807C71.3373 20.5915 71.4398 20.3258 71.4398 20.0097V10.421C71.4398 10.0906 71.3373 9.82481 71.1324 9.62369C70.9276 9.42258 70.6567 9.32203 70.3201 9.32203C69.9982 9.32203 69.7273 9.42258 69.5078 9.62369C69.3028 9.82481 69.2004 10.0906 69.2004 10.421V20.0097C69.2004 20.3258 69.3028 20.5915 69.5078 20.807ZM69.2882 6.78087C69.581 7.05381 69.9249 7.19028 70.3201 7.19028C70.7153 7.19028 71.052 7.05381 71.33 6.78087C71.6228 6.49357 71.7692 6.15599 71.7692 5.76813C71.7692 5.38027 71.6228 5.04987 71.33 4.77693C71.052 4.48962 70.7153 4.34598 70.3201 4.34598C69.9249 4.34598 69.581 4.48962 69.2882 4.77693C69.0102 5.04987 68.8711 5.38027 68.8711 5.76813C68.8711 6.15599 69.0102 6.49357 69.2882 6.78087ZM77.6697 21.1087C77.3916 21.1087 77.1428 21.0081 76.9233 20.807C76.7037 20.6059 76.594 20.3401 76.594 20.0097V11.6277H75.6401C75.3327 11.6277 75.0839 11.5414 74.8937 11.3691C74.7034 11.1967 74.5985 10.9166 74.5985 10.658C74.5985 10.3707 74.7034 10.1193 74.8937 9.9469C75.0839 9.77452 75.3327 9.68834 75.6401 9.68834H76.594V9.38667C76.594 8.35238 76.7989 7.45455 77.2087 6.6932C77.6332 5.93184 78.2186 5.34287 78.965 4.92628C79.7116 4.49533 80.5751 4.27985 81.5558 4.27985C81.8777 4.27985 82.1412 4.37322 82.3461 4.55997C82.5657 4.74671 82.6755 4.98374 82.6755 5.27105C82.6755 5.54398 82.5657 5.78101 82.3461 5.98212C82.1412 6.16887 81.8777 6.26224 81.5558 6.26224C81.0142 6.26224 80.5386 6.38435 80.1287 6.62856C79.7189 6.87276 79.3969 7.21035 79.1627 7.6413C78.9431 8.07225 78.8334 8.58221 78.8334 9.1712V9.68834H81.063C81.1958 9.68834 81.3178 9.70443 81.4288 9.73664H83.9905C84.1014 9.70443 84.2234 9.68834 84.3563 9.68834H85.3142V9.38667C85.3142 8.35238 85.5191 7.45455 85.9289 6.6932C86.3534 5.93184 86.9388 5.34287 87.6854 4.92628C88.4318 4.49533 89.2954 4.27985 90.276 4.27985C90.5981 4.27985 90.8615 4.37322 91.0664 4.55997C91.286 4.74671 91.3957 4.98374 91.3957 5.27105C91.3957 5.54398 91.286 5.78101 91.0664 5.98212C90.8615 6.16887 90.5981 6.26224 90.276 6.26224C89.7345 6.26224 89.2588 6.38435 88.8489 6.62856C88.4391 6.87276 88.1171 7.21035 87.8829 7.6413C87.6634 8.07225 87.5536 8.58221 87.5536 9.1712V9.68834H89.7791C90.0865 9.68834 90.3353 9.77452 90.5256 9.9469C90.7159 10.1193 90.7971 10.3707 90.7971 10.658C90.7971 10.9166 90.7159 11.1967 90.5256 11.3691C90.3353 11.5414 90.0865 11.6277 89.7791 11.6277H87.5536V20.0097C87.5536 20.3401 87.4511 20.6059 87.2462 20.807C87.0413 21.0081 86.7559 21.1087 86.39 21.1087C86.1118 21.1087 85.8631 21.0081 85.6435 20.807C85.4239 20.6059 85.3142 20.3401 85.3142 20.0097V11.6277H84.3563C84.194 11.6277 84.048 11.6036 83.9184 11.5556H81.5008C81.3712 11.6036 81.2253 11.6277 81.063 11.6277H78.8334V20.0097C78.8334 20.3401 78.7309 20.6059 78.526 20.807C78.3211 21.0081 78.0356 21.1087 77.6697 21.1087ZM94.4955 21.1087C94.1735 21.1087 93.9027 21.0081 93.6832 20.807C93.4783 20.5915 93.3758 20.3258 93.3758 20.0097V10.421C93.3758 10.0906 93.4783 9.82481 93.6832 9.62369C93.9027 9.42258 94.1735 9.32203 94.4955 9.32203C94.8322 9.32203 95.1029 9.42258 95.3078 9.62369C95.5128 9.82481 95.6152 10.0906 95.6152 10.421V20.0097C95.6152 20.3258 95.5128 20.5915 95.3078 20.807C95.1029 21.0081 94.8322 21.1087 94.4955 21.1087ZM94.4955 7.19028C94.1003 7.19028 93.7563 7.05381 93.4636 6.78087C93.1855 6.49357 93.0464 6.15599 93.0464 5.76813C93.0464 5.38027 93.1855 5.04987 93.4636 4.77693C93.7563 4.48962 94.1003 4.34598 94.4955 4.34598C94.8907 4.34598 95.2273 4.48962 95.5055 4.77693C95.7981 5.04987 95.9445 5.38027 95.9445 5.76813C95.9445 6.15599 95.7981 6.49357 95.5055 6.78087C95.2273 7.05381 94.8907 7.19028 94.4955 7.19028ZM101.428 20.4191C102.35 20.9363 103.397 21.1948 104.568 21.1948C106.148 21.1948 107.466 20.7137 108.519 19.7511C108.724 19.5501 108.812 19.3274 108.783 19.0832C108.754 18.8245 108.615 18.5947 108.366 18.3937C108.175 18.2356 107.956 18.171 107.707 18.1997C107.458 18.214 107.217 18.3146 106.983 18.5014C106.661 18.7599 106.302 18.9539 105.907 19.0832C105.526 19.1981 105.08 19.2555 104.568 19.2555C103.792 19.2555 103.111 19.0832 102.526 18.7384C101.94 18.3792 101.479 17.8981 101.143 17.2947C100.821 16.6914 100.66 16.0019 100.66 15.2262C100.66 14.4073 100.821 13.6962 101.143 13.0929C101.464 12.4895 101.911 12.0227 102.482 11.6923C103.053 11.3476 103.711 11.1751 104.458 11.1751C105.526 11.1751 106.419 11.5486 107.136 12.2957C107.341 12.4967 107.568 12.6261 107.817 12.6835C108.066 12.7265 108.293 12.6763 108.497 12.5327C108.761 12.3459 108.922 12.1305 108.98 11.8862C109.039 11.642 108.966 11.405 108.761 11.1751C108.19 10.5287 107.546 10.0475 106.829 9.73144C106.112 9.40103 105.321 9.23584 104.458 9.23584C103.301 9.23584 102.277 9.49441 101.384 10.0116C100.491 10.5143 99.7886 11.2182 99.2763 12.1233C98.7641 13.0283 98.508 14.0626 98.508 15.2262C98.508 16.361 98.7641 17.3808 99.2763 18.2859C99.8033 19.1766 100.52 19.8877 101.428 20.4191Z" fill="#303030"/>
</g>
<defs>
<clipPath id="clip0_886_987">
<rect width="109" height="26" fill="white"/>
</clipPath>
</defs>
</svg>
