<svg width="87" height="81" viewBox="0 0 87 81" fill="none" xmlns="http://www.w3.org/2000/svg">
<path d="M0.0537109 17.7049C0.0537109 11.5076 0.0537109 8.40896 1.33632 6.04191C2.46454 3.95979 4.26478 2.26697 6.47904 1.20608C8.9963 0 12.2916 0 18.8822 0H67.3655C73.9561 0 77.2513 0 79.7686 1.20608C81.9829 2.26697 83.7831 3.95979 84.9113 6.04191C86.1939 8.40896 86.1939 11.5076 86.1939 17.7049V63.2951C86.1939 69.4924 86.1939 72.591 84.9113 74.9581C83.7831 77.0402 81.9829 78.733 79.7686 79.7939C77.2513 81 73.9561 81 67.3655 81H18.8822C12.2916 81 8.9963 81 6.47904 79.7939C4.26478 78.733 2.46454 77.0402 1.33632 74.9581C0.0537109 72.591 0.0537109 69.4924 0.0537109 63.2951V17.7049Z" fill="#353535"/>
<path d="M38.5455 66.5357C34.7712 66.5357 31.3597 65.6955 28.3112 64.015C25.3111 62.2879 22.9158 59.954 21.1254 57.0132C19.3834 54.0725 18.5124 50.7583 18.5124 47.0706C18.5124 43.383 19.3108 40.0922 20.9077 37.1981C22.5529 34.2573 24.7788 31.9467 27.5854 30.2663C30.3919 28.5392 33.5614 27.6756 37.0938 27.6756C39.9488 27.6756 42.586 28.2591 45.0055 29.4261C47.4249 30.5463 49.4573 32.0867 51.1025 34.0473V15.1423C51.1025 14.0687 51.4412 13.2052 52.1187 12.5517C52.8445 11.8982 53.7397 11.5714 54.8043 11.5714C55.9172 11.5714 56.8124 11.8982 57.4899 12.5517C58.1673 13.2052 58.5061 14.0687 58.5061 15.1423V47.0706C58.5061 50.7583 57.6109 54.0725 55.8205 57.0132C54.0785 59.954 51.7074 62.2879 48.7072 64.015C45.7071 65.6955 42.3199 66.5357 38.5455 66.5357ZM38.5455 60.2341C41.0134 60.2341 43.2151 59.6739 45.1506 58.5536C47.0862 57.3867 48.6105 55.7996 49.7234 53.7924C50.8364 51.7852 51.3928 49.5446 51.3928 47.0706C51.3928 44.55 50.8364 42.3094 49.7234 40.3489C48.6105 38.3884 47.0862 36.848 45.1506 35.7277C43.2151 34.5607 41.0134 33.9772 38.5455 33.9772C36.1261 33.9772 33.9243 34.5607 31.9404 35.7277C30.0048 36.848 28.4564 38.3884 27.295 40.3489C26.1821 42.3094 25.6256 44.55 25.6256 47.0706C25.6256 49.5446 26.1821 51.7852 27.295 53.7924C28.4564 55.7996 30.0048 57.3867 31.9404 58.5536C33.9243 59.6739 36.1261 60.2341 38.5455 60.2341Z" fill="white"/>
<path d="M67.7353 62.1965C67.7353 64.593 65.6692 66.5357 63.1206 66.5357C60.572 66.5357 58.506 64.593 58.506 62.1965C58.506 59.7999 60.572 57.8572 63.1206 57.8572C65.6692 57.8572 67.7353 59.7999 67.7353 62.1965Z" fill="white"/>
</svg>
