<svg width="56" height="56" viewBox="0 0 56 56" fill="none" xmlns="http://www.w3.org/2000/svg">
<g clip-path="url(#clip0_1987_4905)">
<circle cx="28" cy="28" r="28" fill="#353535"/>
<circle cx="28.0004" cy="28" r="27.0903" fill="#F6F3EF"/>
<circle cx="28.0001" cy="28" r="20.7774" fill="#353535"/>
<circle cx="28.0005" cy="28.0001" r="16.5942" fill="#353535"/>
<circle cx="28" cy="27.9998" r="15.6055" fill="#F6F3EF"/>
<path fill-rule="evenodd" clip-rule="evenodd" d="M27.2456 12.7965C27.2456 13.1854 27.2235 13.225 26.9911 13.2527C26.8512 13.2695 26.689 13.3627 26.6309 13.4601C26.5447 13.6045 26.5647 13.6641 26.7392 13.7827L26.9532 13.9281L26.7504 14.0923C26.579 14.2312 26.5649 14.289 26.6598 14.4662C26.7286 14.5947 26.8638 14.6759 27.0088 14.6759C27.2792 14.6759 27.3227 14.8766 27.0936 15.0666C26.9813 15.1598 26.95 15.3257 26.9736 15.7028L27.0054 16.2131L26.3529 16.2129C25.9939 16.2129 25.4104 16.2855 25.0561 16.3743C24.7018 16.4632 23.8888 16.8044 23.2496 17.1324C21.017 18.278 20.4849 18.3594 19.4998 17.7054C19.2055 17.51 18.8226 17.327 18.649 17.2989C18.2796 17.2389 17.7386 17.3988 17.2319 17.7176C16.7669 18.0102 16.7632 18.1629 17.2233 18.0766C17.5256 18.0199 17.5664 18.0329 17.5141 18.1695C17.4805 18.2569 16.8699 19.9225 16.1572 21.8708C15.4445 23.8192 14.7977 25.5799 14.72 25.7839C13.9233 27.875 13.0246 30.4696 13.0627 30.569C13.1204 30.7195 14.5169 31.2358 15.5749 31.4978C15.9976 31.6025 16.7774 31.7131 17.308 31.7437C17.9678 31.7817 18.6361 31.7401 19.3186 31.6181V40.9605C19.1291 40.8432 18.9507 40.7277 18.7879 40.6163C18.9621 40.7444 19.139 40.8688 19.3186 40.9897V41.2791H19.5186V41.1221C21.9675 42.7161 24.891 43.6423 28.0308 43.6423C31.319 43.6423 34.37 42.6265 36.887 40.8916V41.2793H37.087V40.7514C41.0622 37.919 43.6547 33.2714 43.6547 28.0184C43.6547 20.0891 37.7478 13.5394 30.0943 12.5295C30.3641 12.5716 30.6576 12.6208 30.9202 12.6686C32.2318 12.9076 33.4632 13.3093 34.7147 13.9066C37.5377 15.2536 39.8035 17.3278 41.4503 20.0724C43.7828 23.9598 44.2605 28.7901 42.7432 33.1489C42.4025 34.128 41.7441 35.522 41.2878 36.2308C40.3266 37.7237 39.0868 39.1321 37.8824 40.0992C37.6364 40.2968 37.3694 40.494 37.087 40.6878V31.6666C38.234 31.8329 39.6213 31.7644 40.5873 31.4881C41.3861 31.2597 42.8118 30.7319 42.9361 30.6186C42.981 30.5777 41.9976 27.7589 40.7509 24.3545C39.5041 20.9502 38.484 18.1306 38.484 18.0887C38.484 18.0469 38.6353 18.0372 38.8202 18.0672C39.0051 18.0973 39.1564 18.085 39.1564 18.04C39.1564 17.8661 38.1595 17.3522 37.7287 17.304C37.3284 17.2592 37.2153 17.2963 36.6109 17.67C35.997 18.0496 35.8839 18.0858 35.31 18.0856C34.7188 18.0855 34.5845 18.0383 33.0527 17.2943C32.1569 16.8592 31.1498 16.4343 30.8148 16.3501C30.467 16.2628 29.9447 16.2109 29.5973 16.229L28.9889 16.2608L29.0437 15.7991C29.0886 15.422 29.0608 15.2862 28.8925 15.0586C28.7792 14.9052 28.6864 14.7591 28.6864 14.7339C28.6864 14.7086 28.8268 14.6745 28.9986 14.6579C29.2447 14.6342 29.3177 14.5789 29.3434 14.3964C29.3636 14.2536 29.3145 14.1304 29.2153 14.0749C29.0686 13.9928 29.0722 13.9684 29.2555 13.7975C29.4154 13.6486 29.436 13.5715 29.3563 13.4226C29.2985 13.3145 29.1557 13.2351 29.0192 13.2351C28.8026 13.2351 28.7825 13.1983 28.7825 12.802V12.4122C28.7185 12.4092 28.6545 12.4066 28.5904 12.4043V12.8028V13.2351H28.014H27.4377V12.8028V12.4055C27.3548 12.4086 27.2721 12.4123 27.1896 12.4167C27.2331 12.4666 27.2456 12.578 27.2456 12.7965ZM36.887 31.6348C36.0225 31.4827 33.8599 30.8317 33.7032 30.675C33.6682 30.64 33.7138 30.4024 33.8045 30.1471C33.8952 29.8917 33.9694 29.6344 33.9694 29.5755C33.9694 29.5099 33.7686 29.4683 33.4514 29.4683C32.8791 29.4683 32.8168 29.531 32.8168 30.1063C32.8168 30.34 32.7161 30.5723 32.4814 30.8796C32.1897 31.2616 32.1539 31.3668 32.2053 31.6886C32.2633 32.051 32.1432 33.0578 31.901 34.2419C31.8066 34.7032 31.679 34.9623 31.3335 35.3945C31.0884 35.7012 30.8064 36.0412 30.7069 36.1501C30.5025 36.3739 30.2233 37.351 30.2233 37.8423C30.2233 38.1158 30.7892 40.8853 30.9495 41.3955C30.986 41.5118 30.9094 41.5886 30.6707 41.6749C30.3576 41.7882 30.3437 41.8128 30.3828 42.1869C30.4833 43.1458 30.5281 43.3963 30.5991 43.3963C30.8449 43.3963 32.7912 42.8462 33.4928 42.5785C34.6372 42.1417 35.8524 41.5091 36.887 40.8227V31.6348ZM19.5186 41.0824C20.6316 41.7511 22.0528 42.4506 22.9878 42.7594C23.6479 42.9773 25.253 43.3938 25.4402 43.3956C25.5104 43.3963 25.5649 43.1169 25.6572 42.2827L25.7113 41.7935L25.3371 41.6466L24.9628 41.4995L25.2418 40.3588C25.8108 38.031 25.8458 37.7864 25.7143 37.0505C25.5994 36.4075 25.5662 36.3508 24.8736 35.6146L24.1525 34.8482L23.9732 33.5751C23.7696 32.129 23.745 31.5816 23.8837 31.5816C24.0499 31.5816 23.9911 31.4321 23.5957 30.8501C23.2969 30.4102 23.2117 30.1942 23.2115 29.8766L23.2113 29.4683H22.6349C21.9887 29.4683 21.9558 29.5168 22.2027 30.1075C22.3892 30.5539 22.3843 30.683 22.1787 30.7471C22.0862 30.776 21.5855 30.9536 21.0662 31.1418C20.5407 31.3322 20.0256 31.4782 19.5186 31.5801V41.0824ZM17.8464 39.8672C17.3243 39.3982 16.6999 38.7788 16.2423 38.2724C16.7379 38.8417 17.2741 39.3748 17.8464 39.8672ZM15.3155 37.0994C15.0465 36.7167 14.7763 36.2997 14.5311 35.8889C14.7742 36.305 15.0361 36.7089 15.3155 37.0994ZM20.2647 14.4582C20.6446 14.2476 21.0503 14.037 21.4369 13.85C21.0366 14.0366 20.6456 14.2396 20.2647 14.4582ZM29.155 13.418C29.2278 13.4641 29.2576 13.5498 29.2213 13.6085C29.1309 13.7547 26.8971 13.7547 26.8067 13.6085C26.7704 13.5498 26.8003 13.4641 26.8731 13.418C27.0454 13.3087 28.9826 13.3087 29.155 13.418ZM29.1667 14.3397C29.1667 14.4601 28.9692 14.4838 27.966 14.4838C26.8679 14.4838 26.6485 14.4406 26.8294 14.2597C26.8645 14.2244 27.4048 14.1956 28.0301 14.1956C28.9764 14.1956 29.1667 14.2197 29.1667 14.3397ZM28.6427 15.0078C28.8132 15.1782 28.8785 15.3483 28.8785 15.6215C28.8785 15.8506 28.8062 16.0886 28.6947 16.2261C28.4386 16.542 28.331 16.3775 28.5399 15.9895C28.6924 15.7065 28.697 15.6365 28.5792 15.3908C28.5058 15.2378 28.327 15.0708 28.1817 15.0198C27.9695 14.945 27.8658 14.9653 27.6536 15.123C27.3362 15.359 27.2681 15.75 27.4864 16.0832C27.6956 16.4025 27.585 16.4989 27.3171 16.2309C27.1682 16.0819 27.1058 15.9036 27.1058 15.6258C27.1058 15.314 27.1616 15.1838 27.3731 15.0019C27.743 14.6838 28.3215 14.6865 28.6427 15.0078ZM28.3186 15.3151C28.4152 15.4025 28.4943 15.5389 28.4943 15.6182C28.4943 15.7409 28.4682 15.7386 28.3186 15.6033C28.222 15.5159 28.0849 15.4443 28.014 15.4443C27.9431 15.4443 27.8061 15.5159 27.7094 15.6033C27.5445 15.7526 27.5337 15.7499 27.5337 15.5601C27.5337 15.3548 27.7582 15.1644 28.0064 15.159C28.0815 15.1575 28.222 15.2277 28.3186 15.3151ZM28.2061 16.3118C28.2061 16.8425 28.1732 16.9998 28.0523 17.0462C27.9678 17.0787 27.8603 17.0449 27.8137 16.9712C27.7147 16.8149 27.6956 15.7947 27.7899 15.7005C27.8251 15.6653 27.9331 15.6364 28.0301 15.6364C28.1841 15.6364 28.2061 15.721 28.2061 16.3118ZM27.1 16.5349C27.3279 16.6037 27.5274 16.7399 27.5931 16.8719C27.6539 16.9937 27.7475 17.1373 27.8012 17.191C27.9548 17.3446 28.2958 17.1839 28.3602 16.9274C28.4054 16.7479 28.5305 16.6613 28.9062 16.5496C30.0744 16.2027 31.0826 16.4283 33.0926 17.4867C34.5849 18.2723 34.598 18.277 35.3142 18.2775C36.0043 18.278 36.0609 18.2604 36.659 17.8616C37.2117 17.493 37.3312 17.4503 37.6999 17.4905C37.929 17.5155 38.1646 17.584 38.2234 17.6427C38.3019 17.7212 38.2094 17.7496 37.875 17.7496C37.4065 17.7496 36.7986 17.9939 36.5642 18.2765C36.4926 18.3626 36.2442 18.5444 36.012 18.6805C35.6559 18.8892 35.511 18.9198 35.0857 18.8759C34.5985 18.8256 34.1282 18.6597 32.2885 17.8888C30.8316 17.2784 29.8197 17.3244 28.5109 18.0607L27.9993 18.3485L27.5355 18.096C26.5581 17.5641 25.5961 17.3395 24.8735 17.4745C24.6317 17.5197 23.8723 17.7981 23.186 18.0931C21.8584 18.6638 20.7674 18.9504 20.3071 18.8493C20.1525 18.8154 19.799 18.6027 19.5215 18.3767C18.8505 17.8301 18.6838 17.7496 18.2228 17.7496C18.008 17.7496 17.8322 17.7083 17.8322 17.6579C17.8322 17.5097 18.4748 17.4323 18.7907 17.5425C18.9509 17.5983 19.313 17.7974 19.5956 17.985C20.017 18.2647 20.198 18.326 20.6027 18.326C21.1756 18.326 22.0204 18.0138 23.1633 17.3798C24.0626 16.8809 24.4455 16.71 25.0363 16.5438C25.5842 16.3895 26.603 16.3852 27.1 16.5349ZM26.6088 17.8493C26.8836 17.9521 27.2991 18.1567 27.5321 18.304L27.9557 18.5718L28.8102 18.1368C29.6575 17.7053 29.6728 17.7016 30.6404 17.7016H31.6161L32.9128 18.2941C35.0783 19.2835 35.6759 19.2807 36.9306 18.275C37.2461 18.0221 37.437 17.9418 37.7231 17.9418C37.9691 17.9418 38.0998 17.9853 38.0998 18.0672C38.0998 18.2898 36.1957 23.5392 36.0917 23.6034C36.0363 23.6376 35.3957 23.8099 34.6681 23.9865L33.3451 24.3074L32.1444 23.9491C31.484 23.7521 30.7643 23.5259 30.5451 23.4465L30.1463 23.302L29.7943 21.8959C29.6008 21.1224 29.358 20.3532 29.255 20.1865C28.8851 19.5881 27.9099 19.3859 27.278 19.7765C27.0983 19.8874 26.8723 20.136 26.7756 20.3288C26.6789 20.5216 26.4558 21.27 26.2799 21.9918L25.9601 23.3043L25.1861 23.546C24.7603 23.6788 24.0097 23.9061 23.518 24.0509L22.624 24.3144L21.3087 23.9976C20.5853 23.8234 19.945 23.6322 19.8858 23.5729C19.8 23.4869 17.8322 18.1288 17.8322 17.9812C17.8322 17.9595 18.0203 17.9418 18.2501 17.9418C18.5669 17.9418 18.7588 18.0114 19.0426 18.2293C20.0354 18.9917 20.1439 19.0445 20.7051 19.0367C21.347 19.0279 21.6678 18.9306 23.1116 18.307C23.7172 18.0453 24.4304 17.7705 24.6965 17.6961C25.2685 17.5363 25.9094 17.5876 26.6088 17.8493ZM38.4578 18.6382C38.514 18.8098 39.4938 21.4937 40.6352 24.6023C41.7766 27.7109 42.7104 30.2936 42.7104 30.3416C42.7104 30.3927 40.8943 30.4289 38.3319 30.4289C37.8733 30.4289 37.4596 30.4285 37.087 30.4275V29.2445C37.4375 28.9446 38.1112 28.1098 38.0744 27.9994C38.055 27.9413 37.4412 27.9122 36.4864 27.924C36.3733 27.9254 36.2677 27.927 36.1692 27.9285L36.1689 27.9285L36.1683 27.9285L36.1679 27.9285C35.3902 27.9402 35.0567 27.9452 34.9668 27.7997C34.9508 27.7739 34.9425 27.7433 34.9408 27.7071H38.2971C38.3033 27.7071 38.309 27.7036 38.3118 27.6981L38.3964 27.5309C38.4019 27.52 38.394 27.5071 38.3818 27.5071H34.9727C34.9993 27.4122 35.0408 27.2967 35.0912 27.1564C35.1119 27.0989 35.1341 27.0371 35.1573 26.9709C35.3607 26.3926 35.4047 26.3381 35.7537 26.2318C35.961 26.1687 36.3822 26.0677 36.6897 26.0074L37.2488 25.8979L37.1842 25.2942L37.1195 24.6904L37.454 24.4353L37.7886 24.1801L38.4481 24.4195L39.1077 24.659L39.4554 24.418C39.6467 24.2854 39.9019 24.0719 40.0224 23.9436C40.2122 23.7416 40.221 23.7021 40.0876 23.651C40.0029 23.6184 39.7602 23.6892 39.5484 23.8083L39.1632 24.0248L38.5114 23.7257C37.9238 23.4561 37.7911 23.431 37.1633 23.4716C36.7802 23.4964 36.4662 23.4834 36.4654 23.4427C36.4626 23.298 38.2449 18.327 38.2998 18.3266C38.3305 18.3263 38.4017 18.4665 38.4578 18.6382ZM34.7343 27.5071L34.7806 27.4058C34.9129 27.1165 35.0485 26.7707 35.082 26.6373C35.1554 26.3446 35.108 26.3396 34.1569 26.5396L33.4673 26.6847L32.134 25.9948C31.4006 25.6154 30.7726 25.3329 30.7384 25.3672C30.7042 25.4014 30.7475 25.8951 30.8345 26.4643C30.9059 26.9306 30.9664 27.3492 30.9858 27.5071H34.7343ZM34.6428 27.7071L21.3173 27.7071L21.403 27.9315H27.9716H34.5401L34.6428 27.7071ZM21.0509 27.7071L21.1051 27.9448L19.5646 27.9141C18.257 27.8881 18.024 27.9049 18.0242 28.0251C18.0242 28.103 18.3149 28.4597 18.6701 28.8176L19.3159 29.4683H19.3196V30.4289H17.6505C13.9902 30.4289 13.3176 30.408 13.3176 30.2937C13.3176 30.2194 13.5296 29.5819 13.7887 28.8769C14.0478 28.172 14.7437 26.2769 15.335 24.6656C16.3662 21.8556 17.3829 19.0942 17.5542 18.6382C17.5988 18.5192 17.6692 18.422 17.7106 18.422C17.752 18.422 18.1744 19.5126 18.6495 20.8455C19.1245 22.1785 19.5274 23.325 19.5447 23.3934C19.5691 23.4895 19.4173 23.5074 18.8723 23.4721C18.2346 23.4309 18.1065 23.455 17.5103 23.7286L16.8523 24.0306L16.4259 23.8045C16.0939 23.6283 15.9739 23.6038 15.884 23.6937C15.8036 23.7741 15.7998 23.8297 15.8714 23.8772C15.928 23.9145 16.1695 24.1069 16.408 24.3047L16.8418 24.6643L17.5388 24.4273L18.2356 24.1902L18.5622 24.4393C18.9098 24.7044 18.9421 24.8482 18.7957 25.4794C18.7471 25.6892 18.7182 25.8718 18.7315 25.885C18.7447 25.8983 19.0773 25.975 19.4705 26.0555C19.8638 26.136 20.2768 26.2229 20.3882 26.2487C20.5328 26.282 20.6469 26.4543 20.7863 26.8493C20.8642 27.0703 20.9464 27.3263 20.9987 27.5071H17.6126C17.6003 27.5071 17.5924 27.52 17.5979 27.5309L17.6826 27.6981C17.6853 27.7036 17.691 27.7071 17.6972 27.7071H21.0509ZM21.2408 27.5071L21.1545 27.2811C20.8898 26.5883 20.8542 26.3946 20.9917 26.3946C21.0389 26.3946 21.4069 26.4627 21.8095 26.546L22.5415 26.6974L23.8129 26.0211C24.5122 25.6493 25.1384 25.3435 25.2044 25.3415C25.2705 25.3395 25.3243 25.3921 25.3241 25.4581C25.3239 25.5241 25.2598 25.9671 25.1818 26.4426C25.1036 26.9181 25.0389 27.3828 25.038 27.4752C25.0378 27.4866 25.0388 27.4972 25.0418 27.5071H21.2408ZM34.0032 30.3088C33.9699 30.389 34.6071 30.4193 36.887 30.4269V29.3697C36.6853 29.4452 36.3263 29.4683 35.5248 29.4683H34.288L34.1705 29.8286C34.1059 30.0267 34.0306 30.2428 34.0032 30.3088ZM20.4975 29.4683H19.5196V30.4289H21.9834L21.9241 30.193C21.8916 30.0632 21.8232 29.8471 21.7721 29.7127C21.6795 29.4692 21.675 29.4683 20.4975 29.4683ZM28.567 21.2911C28.8766 21.5561 28.8788 21.5641 28.7832 22.0681C28.6146 22.9573 28.1205 23.5124 27.7623 23.2152C27.5216 23.0154 27.2749 22.4384 27.2224 21.9525L27.1733 21.4968L27.5344 21.3995C27.7331 21.346 27.9492 21.2378 28.0146 21.1589C28.08 21.0801 28.1607 21.0172 28.1938 21.0195C28.2271 21.0216 28.3949 21.1438 28.567 21.2911ZM27.6196 23.3113C27.8292 23.5072 27.918 23.6785 27.918 23.8877C27.918 24.0514 27.8873 24.1853 27.85 24.1853C27.7386 24.1853 27.0535 23.4828 27.0535 23.3686C27.0535 23.2813 27.2379 23.0327 27.3026 23.0327C27.3129 23.0327 27.4556 23.1581 27.6196 23.3113ZM28.8593 23.1479C28.9227 23.2113 28.9746 23.3195 28.9746 23.3884C28.9746 23.505 28.2861 24.1943 28.0985 24.2653C28.0521 24.283 28.014 24.1419 28.014 23.9518C28.014 23.6843 28.0845 23.5422 28.3262 23.3223C28.4979 23.1661 28.6622 23.037 28.6912 23.0355C28.7203 23.0339 28.7959 23.0845 28.8593 23.1479ZM18.8327 23.702C19.0466 23.7833 19.0698 23.8346 19.0173 24.1102C18.9843 24.2836 18.9447 24.4406 18.9293 24.4592C18.914 24.4777 18.7526 24.3794 18.5708 24.2407L18.2402 23.9885L17.5554 24.2423C17.0002 24.4481 16.8434 24.4736 16.7271 24.377C16.5287 24.2124 16.5473 24.0978 16.763 24.1542C16.8618 24.18 17.1967 24.07 17.5074 23.9096C18.1048 23.6015 18.433 23.55 18.8327 23.702ZM38.4996 23.905C38.8221 24.0679 39.1667 24.1799 39.2652 24.1541C39.5015 24.0923 39.4958 24.2472 39.2571 24.3749C39.1132 24.452 38.9186 24.4185 38.4205 24.231L37.7716 23.9868L37.5073 24.1821C37.362 24.2895 37.2031 24.3774 37.1543 24.3774C37.0687 24.3774 36.9512 24.0657 36.9485 23.8318C36.9471 23.7149 37.1803 23.6449 37.6463 23.6221C37.7931 23.6149 38.177 23.7422 38.4996 23.905ZM25.4584 23.8977C25.4052 23.951 24.7318 24.2054 23.962 24.4633L22.5623 24.9323L20.9245 24.5816C20.0237 24.3889 19.2512 24.1934 19.2078 24.1474C19.1112 24.0449 19.5045 24.1098 21.2091 24.4777L22.5208 24.7607L23.8986 24.2896C25.3194 23.8039 25.6303 23.7258 25.4584 23.8977ZM32.0612 24.2795L33.4961 24.7577L35.0462 24.421C35.8988 24.2359 36.6428 24.102 36.6997 24.1237C36.8639 24.1861 36.6167 24.2552 34.9855 24.6025L33.4562 24.9282L32.0078 24.4485C30.6613 24.0024 30.1928 23.8011 30.5017 23.8011C30.5702 23.8011 31.272 24.0164 32.0612 24.2795ZM25.5166 24.1634C25.5166 24.2042 24.8359 24.5056 24.0037 24.8331L22.4909 25.4288L20.906 25.094C19.1754 24.7285 19.0265 24.6881 19.109 24.6056C19.1395 24.575 19.9168 24.7075 20.8363 24.8999L22.5081 25.2497L23.9403 24.6794C24.728 24.3657 25.4049 24.1046 25.4446 24.0992C25.4842 24.0938 25.5166 24.1226 25.5166 24.1634ZM32.1224 24.7068L33.4932 25.2497L35.1315 24.9009C36.0325 24.7092 36.7942 24.5767 36.8242 24.6066C36.9056 24.6882 36.7495 24.7303 35.0349 25.0893L33.4588 25.4192L31.9851 24.8334C31.1746 24.5111 30.5115 24.2072 30.5115 24.158C30.5115 24.109 30.5655 24.0901 30.6315 24.1163L32.1224 24.7068ZM21.3279 28.4676C21.4798 28.8634 21.4219 28.892 20.4694 28.892C19.6239 28.892 19.5341 28.8737 19.3167 28.6562C19.1871 28.5265 19.0809 28.3969 19.0809 28.368C19.0809 28.3392 19.5734 28.3157 20.1753 28.3157C21.0845 28.3157 21.2795 28.3413 21.3279 28.4676ZM34.3536 28.4545C34.3536 28.528 34.3274 28.6565 34.2953 28.7401C34.243 28.8765 33.6005 28.892 28.0192 28.892H21.8013L21.6899 28.6474C21.6285 28.5128 21.5783 28.3825 21.5783 28.358C21.5783 28.3334 24.4528 28.3149 27.966 28.317C33.3556 28.3203 34.3536 28.3418 34.3536 28.4545ZM36.9062 28.4233C36.9368 28.4727 36.8613 28.5969 36.7383 28.6994C36.5496 28.8568 36.3606 28.8862 35.52 28.8888C34.6515 28.8916 34.5326 28.8727 34.5835 28.7401C34.6156 28.6565 34.6418 28.5516 34.6418 28.507C34.6418 28.4624 34.7175 28.4059 34.8099 28.3816C35.1246 28.2987 36.8505 28.3331 36.9062 28.4233ZM32.4325 29.5194C32.4325 29.5476 32.3699 29.7205 32.2934 29.9037C32.2168 30.0868 32.0862 30.2368 32.0032 30.2368C31.9201 30.2368 31.8029 30.1287 31.7427 29.9966C31.6221 29.7321 31.5862 29.7176 31.3782 29.8492C31.2687 29.9184 31.2432 30.1046 31.2665 30.6641C31.2899 31.2224 31.2671 31.3894 31.1677 31.3894C30.9839 31.3894 30.8417 31.7784 30.6232 32.8783C30.4348 33.8264 30.4259 33.8448 29.9369 34.2951C29.581 34.6229 29.3622 34.7514 29.16 34.7514C29.0052 34.7514 28.8785 34.7066 28.8785 34.6519C28.8785 34.5013 29.1789 34.062 29.4771 33.7763C29.789 33.4776 29.8394 33.0296 29.5691 32.9589C29.4602 32.9305 29.3529 32.7553 29.282 32.4904C29.2198 32.2577 29.0482 31.9322 28.9005 31.7669C28.6972 31.5394 28.5282 31.4552 28.2031 31.4195C27.8594 31.3819 27.7069 31.418 27.4377 31.6009C27.2008 31.7617 27.0486 31.9762 26.9225 32.3267C26.8101 32.6391 26.6722 32.8469 26.5522 32.8849C26.3962 32.9345 26.3717 33.0014 26.4192 33.2482C26.4513 33.4146 26.5855 33.6388 26.7175 33.7464C26.8495 33.854 26.9574 33.9803 26.9574 34.027C26.9574 34.0737 27.0275 34.1893 27.1131 34.284C27.1988 34.3786 27.2434 34.5225 27.2123 34.6037C27.117 34.8519 26.6509 34.7746 26.285 34.4499C26.1001 34.2858 25.8581 34.0913 25.7471 34.0176C25.5869 33.9112 25.5115 33.6814 25.3805 32.9007C25.215 31.9134 25.0794 31.4964 24.8825 31.3686C24.8163 31.3255 24.7879 31.0387 24.8071 30.6038C24.828 30.1324 24.8002 29.8841 24.721 29.8337C24.5311 29.713 24.462 29.7431 24.3465 29.9966C24.1647 30.3955 23.8715 30.2681 23.7369 29.7319L23.6707 29.4683H28.0517C30.4611 29.4683 32.4325 29.4913 32.4325 29.5194ZM23.6053 30.0314C23.69 30.2746 24.0252 30.525 24.266 30.525C24.3127 30.525 24.3784 30.4385 24.412 30.3328C24.5294 29.9626 24.6041 30.1468 24.6068 30.8132C24.6082 31.1829 24.5794 31.4855 24.5426 31.4855C24.5058 31.4855 24.4074 31.5117 24.3238 31.5438C24.227 31.581 24.1718 31.55 24.1718 31.4585C24.1718 31.3795 24.0193 31.0932 23.8329 30.8222C23.5172 30.3633 23.296 29.7565 23.4444 29.7565C23.4801 29.7565 23.5526 29.8802 23.6053 30.0314ZM32.2948 30.7763C32.1064 31.0231 31.9523 31.281 31.9523 31.3496C31.9523 31.5149 31.8108 31.595 31.6368 31.5281C31.5328 31.4883 31.4931 31.2938 31.4849 30.7834C31.4737 30.0957 31.4744 30.0937 31.6498 30.3201C31.7809 30.4893 31.8797 30.5304 32.0357 30.4809C32.1512 30.4443 32.3201 30.3001 32.4111 30.1605C32.5722 29.9134 32.5774 29.9122 32.607 30.1172C32.6254 30.2451 32.5031 30.5036 32.2948 30.7763ZM21.4295 30.7051C21.3792 30.7514 21.0572 30.8791 20.7139 30.9887C19.2916 31.4429 18.8543 31.5194 17.6881 31.5179C16.7715 31.5166 16.3246 31.4646 15.506 31.2634C14.4841 31.0123 13.7979 30.7755 13.7979 30.6739C13.7979 30.6448 15.5355 30.621 17.6593 30.621C19.8754 30.621 21.4818 30.6568 21.4295 30.7051ZM42.1341 30.7009C42.1341 30.8024 40.3494 31.3518 39.595 31.4827C38.8569 31.6108 37.5739 31.6091 36.9278 31.4793C36.1689 31.3268 34.5458 30.7982 34.5458 30.7035C34.5458 30.6582 36.2531 30.621 38.3399 30.621C40.4267 30.621 42.1341 30.657 42.1341 30.7009ZM31.8911 32.1611C31.9371 32.2034 31.8859 32.7765 31.7757 33.4506L31.5775 34.6639L30.9625 35.4041C30.3343 36.1602 30.1062 36.6614 29.987 37.5474C29.9431 37.8733 30.0172 38.3951 30.2675 39.5235C30.4545 40.3667 30.6075 41.1314 30.6075 41.2229C30.6075 41.4288 30.2205 41.5941 29.2247 41.8138C28.2531 42.028 27.2902 41.9675 26.1541 41.6207L25.3029 41.3609L25.3604 41.0007C25.3921 40.8026 25.4804 40.4285 25.5565 40.1693C25.8239 39.2594 26.0287 38.1648 26.0181 37.7017C26.0122 37.4445 25.9566 36.9894 25.8946 36.6904C25.7959 36.2152 25.7017 36.0644 25.1449 35.4902C24.7946 35.1291 24.4778 34.7795 24.4409 34.7136C24.4039 34.6477 24.3013 34.0624 24.2129 33.4128C24.0325 32.0873 24.0481 32.0396 24.65 32.0848L24.9842 32.1099L25.1398 33.0558C25.2254 33.576 25.3397 34.0299 25.3937 34.0644C25.4477 34.0988 25.7196 34.3215 25.9976 34.5593C26.4064 34.9087 26.6066 35.0076 27.0425 35.0757C27.7157 35.1809 28.3845 35.1787 29.0813 35.0691C29.549 34.9955 29.6909 34.917 30.1535 34.4755C30.682 33.971 30.6879 33.9592 30.8435 33.0863C30.9298 32.602 31.0195 32.1498 31.0428 32.0812C31.073 31.9926 31.1897 31.9752 31.4467 32.0209C31.6456 32.0563 31.8455 32.1194 31.8911 32.1611ZM28.5903 34.8191C28.5904 34.9841 28.0123 35.0707 27.7009 34.9522C27.5561 34.8972 27.4377 34.8172 27.4377 34.7744C27.4377 34.7316 27.6969 34.6981 28.0139 34.7C28.3974 34.7022 28.5902 34.742 28.5903 34.8191ZM26.983 42.1168C27.4229 42.2113 27.7169 42.3205 27.6938 42.3809C27.6721 42.4375 27.598 42.7354 27.5292 43.0427L27.4042 43.6017L26.6765 43.5364C26.2763 43.5005 25.9133 43.4382 25.8698 43.3979C25.8263 43.3576 25.8211 43.0166 25.8582 42.6401C25.9109 42.105 25.9592 41.9555 26.0791 41.9555C26.1635 41.9555 26.5702 42.028 26.983 42.1168ZM30.1764 42.6395C30.2264 43.1363 30.2131 43.3432 30.1283 43.3956C30.064 43.4354 29.7276 43.497 29.3807 43.5325C28.9202 43.5797 28.7165 43.5635 28.6257 43.4727C28.5574 43.4043 28.4732 43.1073 28.4386 42.8127L28.3758 42.2772L29.0354 42.1285L29.1684 42.0984C29.6905 41.9801 29.9209 41.9279 30.0337 42.0198C30.1229 42.0925 30.1387 42.255 30.1672 42.5458L30.1764 42.6395ZM28.1929 42.884C28.253 43.1834 28.3022 43.4644 28.3022 43.5084C28.3022 43.5524 28.1691 43.5884 28.0064 43.5884C27.7351 43.5884 27.7149 43.5666 27.7629 43.3243C27.7918 43.179 27.8432 42.8981 27.8773 42.6999C27.9114 42.5018 27.9718 42.3397 28.0114 42.3397C28.0511 42.3397 28.1327 42.5846 28.1929 42.884Z" fill="#353535"/>
<path fill-rule="evenodd" clip-rule="evenodd" d="M24.9951 2.1758C25.0194 2.4654 25.07 2.54263 25.2651 2.58826L25.5052 2.64426L25.5579 5.75278L25.3231 5.81167C25.1939 5.84413 25.0139 5.85604 24.923 5.83818C24.8312 5.82002 24.2992 5.08098 23.7244 4.17268C23.156 3.27457 22.647 2.49143 22.5933 2.43245C22.5215 2.35359 22.373 2.35638 22.0318 2.44302L21.5677 2.56078L21.3565 4.32733L21.3303 4.54649C21.12 6.3072 21.0819 6.62668 20.9171 6.71817C20.8806 6.73845 20.8378 6.74753 20.7856 6.75862C20.7762 6.76063 20.7664 6.7627 20.7563 6.76491C20.5492 6.81035 20.3098 6.73975 19.7988 6.48251C19.4242 6.29376 19.1175 6.12019 19.1175 6.09685C19.1175 6.07341 19.2256 5.89504 19.3577 5.70043C19.6809 5.2241 19.6786 4.68379 19.3514 4.21168C19.0451 3.76963 18.4932 3.59414 17.9101 3.7534C17.7025 3.81007 17.4894 3.88759 17.4366 3.92553C17.3838 3.96357 16.8543 4.20447 16.2599 4.46085C15.6656 4.71722 15.1793 4.98223 15.1793 5.04966C15.1793 5.11709 15.2285 5.2801 15.2885 5.41188C15.3757 5.60342 15.4483 5.64136 15.6505 5.60092C15.8937 5.55232 15.9261 5.6014 16.5019 6.89084C16.8311 7.62816 17.1004 8.27999 17.1004 8.33925C17.1004 8.39861 17.0679 8.44779 17.0284 8.44856C16.9888 8.44943 16.8982 8.48689 16.8272 8.53194C16.7206 8.59947 16.7252 8.66632 16.8536 8.91462C16.9392 9.08012 17.0297 9.21556 17.0547 9.21556C17.1106 9.21556 18.8613 8.4354 18.9186 8.38497C18.9413 8.365 18.885 8.19162 18.7935 7.9996C18.6683 7.73718 18.5996 7.67791 18.5168 7.76071C18.4563 7.82123 18.3555 7.87079 18.293 7.87079C18.1564 7.87079 17.7189 6.83609 17.8149 6.74003C17.8879 6.66694 18.1868 6.82341 19.3403 7.53883C19.7743 7.80788 20.119 7.96512 20.1568 7.91104C20.267 7.75332 20.9517 7.4958 21.7591 7.30858C22.5168 7.13271 22.527 7.12646 22.4938 6.85213C22.4496 6.48674 22.4082 6.42997 22.1856 6.42997C22.037 6.42997 21.9992 6.36254 21.9992 6.09752C21.9992 5.79332 22.0299 5.7573 22.3594 5.67488L22.4414 5.65434C22.9586 5.52471 23.1328 5.48105 23.2254 5.54884C23.2724 5.58327 23.2983 5.64644 23.3375 5.74169L23.3429 5.75497L23.3497 5.77142C23.458 6.03278 23.4532 6.08667 23.3129 6.18926C23.1325 6.32133 23.1066 6.55013 23.2434 6.80574C23.3303 6.96817 23.3796 6.96557 24.228 6.75377C24.8822 6.59048 25.4035 6.52987 26.1776 6.52699C26.7587 6.52478 27.4817 6.46474 27.7842 6.39357C28.0868 6.32239 28.4917 6.14401 28.6841 5.99724C28.8766 5.85047 29.1188 5.53877 29.2224 5.30449C29.7764 4.05223 29.3841 2.49422 28.3941 2.015C28.04 1.84354 27.8027 1.81934 26.4777 1.81934H24.9653L24.9951 2.1758ZM31.4716 2.24303C30.9377 2.44177 30.3875 3.02089 30.1633 3.62008C29.9493 4.19199 29.9149 4.9855 30.0828 5.47912C30.2571 5.99167 30.6982 6.48472 31.196 6.72351C31.8179 7.02186 32.7419 7.02743 33.3041 6.73629C33.9823 6.38511 34.4305 5.64261 34.543 4.68408C34.576 4.40225 34.5554 3.99604 34.4969 3.77924C34.3405 3.19916 33.8949 2.64416 33.389 2.39922C32.8288 2.12806 31.969 2.05803 31.4716 2.24303ZM27.7797 2.84962C28.0621 3.09446 28.2428 3.60874 28.2428 4.16797C28.2428 5.03717 27.9069 5.50938 27.2093 5.621C26.9075 5.66922 26.7944 5.65212 26.7627 5.55347C26.7393 5.48085 26.7013 4.80751 26.6782 4.05713C26.6414 2.85951 26.6553 2.68834 26.7912 2.65655C27.0556 2.59469 27.6106 2.70304 27.7797 2.84962ZM32.9932 3.25564C33.1935 3.46485 33.2768 3.66301 33.3102 4.01016C33.3772 4.70713 33.1235 5.47711 32.7062 5.84346C32.515 6.01136 32.2587 6.14181 32.12 6.14181C31.9679 6.14181 31.7487 6.01684 31.5471 5.81522C31.2435 5.51169 31.2207 5.4455 31.2226 4.87868C31.2277 3.40443 32.2435 2.47328 32.9932 3.25564ZM22.5164 4.35663C22.6136 4.53702 22.664 4.73153 22.6286 4.78887C22.5345 4.94112 22.0953 4.91816 22.0953 4.76102C22.0953 4.51137 22.2154 4.0286 22.2776 4.0286C22.3118 4.0286 22.4192 4.17623 22.5164 4.35663ZM37.7925 4.40187C37.4644 4.60195 37.1759 5.1218 37.1759 5.51274C37.1759 5.91358 37.4355 6.32786 38.1557 7.07584C38.8238 7.76974 38.9147 7.99336 38.6076 8.18681C38.4011 8.31678 38.0503 8.21429 37.7207 7.92775C37.4547 7.69645 37.1759 7.00111 37.1759 6.56915C37.1759 6.41739 37.1016 6.33612 36.9218 6.29098C36.7821 6.25592 36.6356 6.26207 36.5961 6.30462C36.5566 6.34717 36.4141 6.74647 36.2794 7.19197C36.0514 7.94591 36.0457 8.01026 36.197 8.12284C36.2863 8.18931 36.4532 8.22082 36.5677 8.19286C36.7166 8.15656 36.8194 8.20814 36.9279 8.37354C37.1029 8.64067 37.7965 9.01221 38.2544 9.08425C38.728 9.1587 39.2791 8.92826 39.6103 8.51724C39.8499 8.21986 39.9008 8.07126 39.895 7.68502C39.8911 7.42644 39.8235 7.1231 39.745 7.01091C39.6664 6.89881 39.3156 6.5072 38.9654 6.14075C38.6151 5.7744 38.3285 5.41016 38.3285 5.33129C38.3285 5.25253 38.4146 5.14197 38.5198 5.08568C38.6627 5.00913 38.7804 5.01921 38.9857 5.12545C39.3554 5.3165 39.5832 5.68814 39.66 6.22508C39.7216 6.65541 39.7346 6.67011 40.0526 6.67011C40.3794 6.67011 40.3826 6.66578 40.5534 5.99772C40.6481 5.62791 40.7265 5.27424 40.7277 5.21171C40.7299 5.09654 40.3695 4.93123 40.2111 4.97493C40.1636 4.98809 39.9907 4.86956 39.8269 4.71174C39.6632 4.55383 39.4075 4.37872 39.2588 4.32262C38.8319 4.16173 38.1235 4.19996 37.7925 4.40187ZM18.4389 5.00663C18.571 5.24292 18.5672 5.28144 18.394 5.47307C18.2288 5.65558 17.581 6.04575 17.4429 6.04575C17.3818 6.04575 17.1481 5.59343 17.0576 5.29979C16.9995 5.11162 17.0469 5.0561 17.4056 4.89146C17.9424 4.64498 18.2564 4.67995 18.4389 5.00663ZM41.524 6.36638C41.1419 6.63908 40.8294 6.88383 40.8297 6.91024C40.83 6.93666 40.9083 7.0598 41.0037 7.18381C41.1747 7.40618 41.1836 7.40714 41.6293 7.25585C42.1448 7.08084 42.2614 7.07142 42.4483 7.18986C42.5538 7.25662 42.4933 7.38543 42.1602 7.80346C41.9283 8.09451 41.5521 8.59303 41.3243 8.91126C40.7849 9.6651 40.6962 9.73599 40.4543 9.6065C40.2919 9.51958 40.2301 9.54945 40.0504 9.80188C39.9337 9.96585 39.8778 10.1279 39.9261 10.162C39.9745 10.1962 40.3552 10.4796 40.7721 10.792L41.5301 11.3598L41.7505 11.0834C41.9453 10.8391 41.9546 10.789 41.8307 10.6521C41.7536 10.5669 41.6904 10.4636 41.6904 10.4225C41.6904 10.3602 43.181 8.30679 43.4344 8.02006C43.4829 7.96522 43.5733 8.00325 43.6624 8.11612C43.771 8.25367 43.7963 8.43675 43.7577 8.80935C43.7085 9.28626 43.7198 9.32103 43.9529 9.40969C44.089 9.46137 44.2389 9.50373 44.286 9.50373C44.3642 9.50373 44.8603 8.08471 44.8603 7.8609C44.8603 7.80817 44.7048 7.70001 44.5148 7.62057C44.056 7.42894 42.6041 6.33516 42.4962 6.10002C42.4493 5.99772 42.3676 5.90436 42.3148 5.89235C42.262 5.88044 41.9061 6.09378 41.524 6.36638ZM12.7335 6.5314C11.8673 6.96355 11.4382 7.64497 11.4362 8.5912C11.4347 9.33284 11.7354 9.9914 12.3211 10.529C13.2446 11.3768 14.5384 11.3404 15.4632 10.4407C16.066 9.85442 16.2716 9.06956 16.0405 8.23753C15.8786 7.65438 15.3537 6.98546 14.792 6.64609C14.3569 6.38319 14.1836 6.33449 13.6947 6.33776C13.3154 6.34025 12.9822 6.4074 12.7335 6.5314ZM13.8296 7.43605C14.21 7.63267 14.7596 8.29977 14.9482 8.79359C15.0424 9.04026 15.0806 9.30912 15.0428 9.45973C14.9588 9.79448 14.5358 10.1761 14.2489 10.1761C13.8921 10.1761 13.3174 9.83963 13.0294 9.46194C12.44 8.68928 12.3261 7.94716 12.7342 7.53892C13.0148 7.25844 13.4137 7.22089 13.8296 7.43605ZM8.16787 10.6688L7.46734 11.4409L7.71756 11.6912C7.96106 11.9347 7.97316 11.9367 8.16114 11.7666C8.35076 11.595 8.37064 11.6065 9.19738 12.3637C9.66104 12.7882 10.1687 13.2709 10.3255 13.4361C10.5793 13.7034 10.5969 13.759 10.4848 13.9384C10.3733 14.117 10.3881 14.1691 10.6136 14.3915L10.8685 14.6427L11.9634 13.49C12.5656 12.856 13.06 12.2915 13.0622 12.2355C13.0644 12.1796 12.8824 11.8014 12.6579 11.395C12.2879 10.7254 12.2271 10.6615 12.0095 10.7111C11.8774 10.7413 11.7361 10.7984 11.6955 10.8379C11.6548 10.8775 11.6872 11.096 11.7675 11.3235C11.8477 11.551 11.9132 11.8289 11.913 11.9412C11.9126 12.2045 11.5687 12.7696 11.4089 12.7696C11.3411 12.7696 11.0704 12.5677 10.8072 12.3209C9.41841 11.019 9.2239 10.8217 9.2239 10.7149C9.2239 10.651 9.27394 10.5487 9.33513 10.4875C9.41927 10.4034 9.41543 10.3391 9.31899 10.223C8.99154 9.82839 8.89731 9.8648 8.16787 10.6688ZM44.9563 10.6633C43.6154 11.244 43.1086 11.4209 42.8911 11.3842C42.6907 11.3503 42.5329 11.3938 42.3727 11.527L42.1425 11.7186L42.3707 11.9799C42.8719 12.554 43.2695 12.9617 43.3282 12.9617C43.3622 12.9617 43.4814 12.8825 43.5931 12.7855C43.7252 12.671 43.7891 12.5132 43.7759 12.3343C43.7598 12.1155 43.8072 12.0403 44.0073 11.9679C44.232 11.8866 44.2988 11.9208 44.6316 12.2868C44.8366 12.5123 45.0141 12.724 45.026 12.7572C45.0381 12.7904 44.9643 12.9257 44.8623 13.0578C44.7047 13.2615 44.6486 13.2806 44.4913 13.1839C44.3363 13.0886 44.2728 13.1053 44.1029 13.2862C43.9912 13.4051 43.9017 13.5428 43.9043 13.5922C43.9068 13.6417 44.1884 13.9834 44.5302 14.3518L45.1516 15.0214L45.4141 14.8599C45.6082 14.7405 45.6694 14.634 45.6487 14.4519C45.6236 14.2311 46.283 12.8209 47.2256 11.0797L47.4904 10.5906L47.1391 10.2392C46.9459 10.0461 46.7755 9.88919 46.7605 9.89083C46.7455 9.89236 45.9337 10.24 44.9563 10.6633ZM45.6801 11.6104C45.5963 11.7724 45.4825 11.9051 45.4273 11.9051C45.3225 11.9051 45.0524 11.6695 45.0524 11.578C45.0524 11.4818 45.7723 11.1523 45.8027 11.2347C45.8191 11.2793 45.7639 11.4484 45.6801 11.6104ZM48.4143 12.8857C48.0181 12.9916 47.6827 13.0883 47.6692 13.1006C47.6556 13.113 47.6718 13.2597 47.7052 13.4266C47.7635 13.7181 47.7847 13.7301 48.2405 13.7301C48.7167 13.7301 49.0867 13.8546 49.0867 14.0148C49.0867 14.097 46.9382 15.501 46.6334 15.618C46.5524 15.6491 46.4048 15.6011 46.3056 15.5113C46.1361 15.3578 46.1103 15.3578 45.877 15.5107C45.7404 15.6001 45.6287 15.7075 45.6287 15.7492C45.6287 15.8513 46.4621 17.1982 46.6278 17.3639C46.7389 17.475 46.7972 17.4703 47.0063 17.3334C47.1997 17.2067 47.2425 17.1157 47.203 16.9156C47.156 16.6771 47.2328 16.6095 48.3408 15.9154C48.9945 15.506 49.6025 15.171 49.6921 15.171C49.9259 15.171 49.9017 15.5902 49.6413 16.0536L49.4274 16.4341L49.6653 16.6169C49.7961 16.7174 49.927 16.8006 49.9561 16.8018C49.9851 16.8029 50.2566 16.5029 50.5593 16.1349C51.0523 15.5355 51.0969 15.4455 50.9876 15.2704C50.9205 15.1629 50.8219 15.0728 50.7685 15.0702C50.6321 15.0636 49.5669 13.3034 49.5669 13.0844C49.5669 12.8828 49.3896 12.6683 49.2356 12.6834C49.18 12.6888 48.8105 12.7799 48.4143 12.8857ZM6.67844 13.0719C6.29403 13.2122 5.70156 13.784 5.44913 14.2584C5.30274 14.5337 5.24367 14.8198 5.24117 15.267C5.23829 15.778 5.28526 15.9723 5.49985 16.3376C6.00394 17.195 6.79448 17.6642 7.73504 17.6642C8.44326 17.6642 8.97137 17.4398 9.39305 16.9595C9.82366 16.469 10.0136 15.9843 10.0186 15.3631C10.0255 14.4877 9.49986 13.7247 8.5542 13.2375C8.06586 12.9858 7.13845 12.9041 6.67844 13.0719ZM7.88998 14.312C8.43087 14.588 8.84169 14.9707 9.00143 15.3473C9.10508 15.5917 9.11324 15.7408 9.03572 15.9754C8.92468 16.3118 8.50704 16.6124 8.1525 16.6108C7.80296 16.6094 7.00387 16.1942 6.61485 15.8119C5.84497 15.0555 6.10701 14.1216 7.09052 14.1165C7.32076 14.1153 7.67347 14.2016 7.88998 14.312ZM51.1353 16.8218C50.9928 16.8906 50.9319 17.0008 50.9432 17.1695C50.9587 17.4006 50.8769 17.4489 49.664 17.9266C48.9513 18.2073 48.2908 18.4368 48.1961 18.4368C48.1014 18.4368 47.9991 18.372 47.9688 18.2927C47.9003 18.1143 47.6436 18.1069 47.4115 18.2766C47.2458 18.3978 47.2682 18.4884 47.8327 19.9816C48.1605 20.849 48.4467 21.6149 48.4686 21.6838C48.4991 21.7803 48.7007 21.7951 49.3498 21.7482C49.8127 21.7149 50.2454 21.6707 50.3114 21.6501C50.3775 21.6295 50.4314 21.4817 50.4314 21.3215C50.4314 21.0669 50.3978 21.0303 50.1636 21.0303C50.0163 21.0303 49.703 20.9331 49.4672 20.8142C49.1351 20.6467 48.9877 20.4914 48.8123 20.1239C48.5945 19.6675 48.5926 19.645 48.7625 19.5208C48.8595 19.4498 49.1052 19.342 49.3085 19.2811C49.6121 19.1901 49.6936 19.1949 49.7651 19.3079C49.9073 19.5324 49.8691 19.6484 49.615 19.7641C49.3484 19.8856 49.3133 20.0449 49.4973 20.2966C49.6122 20.4537 49.6708 20.445 50.4338 20.158C50.8816 19.9896 51.2859 19.8175 51.3321 19.7757C51.3784 19.7339 51.388 19.5867 51.3534 19.4486C51.2966 19.2227 51.2579 19.2037 50.9652 19.2586C50.6944 19.3094 50.6213 19.2846 50.528 19.1101C50.4663 18.9949 50.4302 18.8873 50.4477 18.8709C50.5105 18.8123 51.2252 18.5329 51.3125 18.5329C51.4546 18.5329 51.6802 19.1651 51.6802 19.5634C51.6802 19.822 51.6082 20.0053 51.432 20.1953C51.196 20.4497 51.1914 20.4747 51.3381 20.6986C51.423 20.8282 51.5398 20.9343 51.5977 20.9343C51.7228 20.9343 52.8319 20.0525 52.8324 19.9527C52.8326 19.9146 52.5964 19.2792 52.3075 18.5407C52.0186 17.802 51.7546 17.0875 51.7208 16.9528C51.6553 16.6918 51.4834 16.6534 51.1353 16.8218ZM3.73455 17.5351C3.72677 17.6349 3.71592 17.7934 3.71054 17.8875C3.70516 17.9816 3.64887 18.0908 3.58557 18.1303C3.38414 18.2557 3.08071 19.0469 3.0785 19.4523C3.07014 20.9946 4.50847 22.0235 6.29758 21.7552C6.64982 21.7024 6.83751 21.5957 7.20473 21.2394C7.92466 20.541 8.07277 19.6733 7.63323 18.729C7.27811 17.9661 7.24084 17.934 6.90888 18.1056C6.60621 18.2622 6.55434 18.4462 6.76383 18.6201C6.83722 18.681 6.94586 18.9239 7.00532 19.16C7.0908 19.4997 7.08581 19.6552 6.98101 19.9059C6.79947 20.3406 6.44397 20.5501 5.88935 20.5495C5.21668 20.5487 4.75888 20.3917 4.37601 20.0307C4.08381 19.7551 4.03693 19.65 4.03693 19.2709C4.03693 18.8868 4.0767 18.8008 4.34911 18.5948C4.52076 18.465 4.8558 18.3212 5.09354 18.2753C5.47324 18.2018 5.52962 18.1584 5.55729 17.9183C5.57467 17.768 5.55306 17.6098 5.50926 17.5669C5.46556 17.5239 5.05156 17.4584 4.58925 17.4212C3.80851 17.3586 3.74771 17.3667 3.73455 17.5351ZM4.19177 23.7278C4.16785 23.8026 4.10897 23.9936 4.06114 24.1521C3.98477 24.4046 3.92445 24.4439 3.57318 24.4697C3.35283 24.4861 3.17244 24.5377 3.17244 24.5844C3.17244 24.6312 3.30413 24.7473 3.46512 24.8424C3.76385 25.0189 3.77134 25.0669 3.59364 25.665C3.52486 25.8965 3.77115 25.8816 3.9889 25.6409C4.08448 25.5353 4.20215 25.4488 4.25037 25.4488C4.29849 25.4488 4.48628 25.562 4.66772 25.7004C4.92198 25.8943 4.99748 25.9178 4.99748 25.8027C4.99748 25.7206 4.95109 25.5317 4.89432 25.383C4.80124 25.1392 4.82016 25.0884 5.08643 24.8655C5.24886 24.7296 5.3817 24.5891 5.3817 24.5533C5.3817 24.5176 5.21216 24.4883 5.00497 24.4883C4.65408 24.4883 4.62027 24.4635 4.51308 24.1281C4.37408 23.693 4.25171 23.5406 4.19177 23.7278ZM51.2774 23.6777C51.2487 23.7272 51.1729 23.93 51.109 24.1281C50.997 24.4755 50.9769 24.4884 50.544 24.4919L50.0952 24.4955L50.4605 24.8083C50.7946 25.0944 50.8172 25.144 50.7247 25.3874C50.6691 25.5337 50.6236 25.7206 50.6236 25.8027C50.6236 25.9164 50.7055 25.8894 50.9685 25.6888L51.3135 25.4257L51.589 25.6293C51.9266 25.879 52.1086 25.894 52.0199 25.665C51.9842 25.5726 51.9332 25.3888 51.9067 25.2567C51.8682 25.0648 51.9178 24.9817 52.1536 24.843C52.3158 24.7476 52.4486 24.6287 52.4486 24.5789C52.4486 24.5291 52.2746 24.4883 52.062 24.4883C51.7274 24.4883 51.6626 24.4527 51.5802 24.2241C51.3927 23.7037 51.329 23.5887 51.2774 23.6777ZM3.90985 26.5775C3.88651 26.6172 3.83733 26.79 3.80044 26.9617C3.7359 27.2625 3.7163 27.2739 3.2609 27.2739C3.00088 27.2739 2.78851 27.3062 2.78889 27.3459C2.78927 27.3856 2.94056 27.5208 3.12508 27.6465C3.3096 27.7721 3.4606 27.914 3.4606 27.9617C3.4606 28.0095 3.39942 28.1949 3.32468 28.3738C3.24995 28.5527 3.21201 28.7223 3.24054 28.7507C3.26897 28.7792 3.43611 28.6927 3.61198 28.5585C3.94597 28.3038 4.20387 28.3088 4.42422 28.5744C4.48829 28.6515 4.59837 28.7147 4.66878 28.7147C4.77358 28.7147 4.77146 28.6428 4.65706 28.3184C4.58012 28.1004 4.51721 27.9095 4.51721 27.894C4.51721 27.8785 4.66849 27.7724 4.8534 27.6581C5.0383 27.5438 5.18959 27.413 5.18959 27.3673C5.18959 27.3217 4.98423 27.2712 4.73333 27.2551C4.29388 27.2269 4.2738 27.2126 4.18812 26.8656C4.1035 26.5232 4.00302 26.4192 3.90985 26.5775ZM51.485 26.7638C51.4307 26.9122 51.3673 27.0878 51.3442 27.1538C51.3188 27.226 51.1284 27.2739 50.8667 27.2739C50.6273 27.2739 50.4314 27.3135 50.4314 27.3621C50.4314 27.4107 50.5827 27.5438 50.7676 27.6581C50.9525 27.7724 51.1038 27.907 51.1038 27.9572C51.1038 28.0074 51.0426 28.1949 50.9679 28.3738C50.8932 28.5527 50.8552 28.7223 50.8838 28.7507C50.9122 28.7792 51.0746 28.6963 51.2448 28.5665C51.4149 28.4367 51.5843 28.3305 51.6211 28.3305C51.6579 28.3305 51.8153 28.4247 51.971 28.5398C52.1267 28.6549 52.2794 28.7238 52.3104 28.6929C52.3412 28.662 52.3225 28.4773 52.2687 28.2824C52.1792 27.9579 52.1927 27.9089 52.4298 27.7001C52.5722 27.5746 52.7211 27.4707 52.7608 27.4691C52.8004 27.4673 52.8328 27.4228 52.8328 27.3699C52.8328 27.3171 52.6186 27.2739 52.3569 27.2739C51.8888 27.2739 51.8799 27.2684 51.8177 26.9366C51.7829 26.7511 51.716 26.5757 51.6691 26.5466C51.6221 26.5176 51.5393 26.6153 51.485 26.7638ZM3.95865 29.7328L3.8405 30.1745L3.41037 30.1403C3.17388 30.1215 2.98033 30.1359 2.98033 30.1723C2.98033 30.2237 3.27954 30.4603 3.62976 30.6857C3.64349 30.6946 3.58903 30.8882 3.50863 31.1161C3.42823 31.3439 3.38337 31.5512 3.40893 31.5767C3.43448 31.6022 3.60699 31.5075 3.79228 31.3662C4.12271 31.1142 4.13433 31.1124 4.39522 31.2785C4.5416 31.3717 4.69135 31.4908 4.72814 31.5433C4.86118 31.7335 4.92112 31.5028 4.81651 31.2027C4.75754 31.0337 4.70932 30.8393 4.70932 30.7709C4.70932 30.7026 4.83899 30.5701 4.99748 30.4764C5.15597 30.3828 5.28565 30.2748 5.28565 30.2364C5.28565 30.198 5.10199 30.1533 4.87741 30.137C4.48964 30.1089 4.46274 30.087 4.33998 29.6993C4.2689 29.4748 4.18063 29.291 4.14384 29.291C4.10696 29.291 4.02358 29.4899 3.95865 29.7328ZM51.2935 29.6335C51.242 29.769 51.1999 29.9419 51.1999 30.0177C51.1999 30.117 51.0791 30.1555 50.7676 30.1555C50.5299 30.1555 50.3354 30.1894 50.3354 30.2308C50.3354 30.2723 50.4651 30.3828 50.6236 30.4764C50.782 30.5701 50.9117 30.7026 50.9117 30.7709C50.9117 30.8393 50.8635 31.0337 50.8045 31.2027C50.7456 31.3718 50.7219 31.5347 50.752 31.5647C50.7819 31.5946 50.8768 31.549 50.9626 31.463C51.0485 31.3772 51.2047 31.261 51.3096 31.2048C51.4633 31.1226 51.5623 31.1499 51.8186 31.3454C51.9936 31.4789 52.158 31.5667 52.1842 31.5406C52.2102 31.5145 52.1698 31.3141 52.0945 31.0953C51.9824 30.77 51.9803 30.6844 52.0829 30.6252C52.3776 30.4554 52.5884 30.2633 52.5368 30.2117C52.5062 30.1811 52.3549 30.1481 52.2007 30.1383C51.833 30.1152 51.7057 30.0103 51.6307 29.6686C51.5967 29.5138 51.528 29.3871 51.4781 29.3871C51.4281 29.3871 51.3451 29.4979 51.2935 29.6335ZM49.0538 33.1327C48.8736 33.291 48.6797 33.5395 48.6228 33.6851C48.3842 34.2964 47.7225 36.5077 47.7653 36.5506C47.7909 36.5762 47.9494 36.6365 48.1175 36.6848C48.3917 36.7634 48.4323 36.7483 48.5124 36.5377C48.5614 36.4087 48.6351 36.3062 48.676 36.31C48.717 36.3138 49.3772 36.5216 50.1433 36.7717C51.4821 37.2088 51.5354 37.2362 51.519 37.4782C51.5051 37.6804 51.5607 37.7504 51.8011 37.8342C51.9656 37.8916 52.1311 37.9055 52.1688 37.8652C52.2986 37.7264 52.8189 35.9667 52.7508 35.8966C52.7134 35.858 52.5436 35.7986 52.3736 35.7646C52.1306 35.716 52.0644 35.735 52.0644 35.8531C52.0644 35.9358 52.0226 36.0294 51.9716 36.0609C51.8238 36.1522 50.8157 35.8228 50.8157 35.6832C50.8157 35.6083 51.1565 35.4538 51.6561 35.3022L51.7114 35.2855L51.7714 35.2673L51.8586 35.2409C52.7198 34.9805 53.0064 34.8938 53.1536 34.7007C53.227 34.6044 53.2657 34.4816 53.3237 34.2976C53.3294 34.2793 53.3353 34.2605 53.3415 34.241L53.3468 34.2244L53.351 34.2112C53.4708 33.8367 53.5086 33.5792 53.4518 33.5237C53.4019 33.4749 53.2463 33.4067 53.106 33.372C52.9049 33.3224 52.8383 33.3488 52.7912 33.4971C52.7529 33.6179 52.4699 33.7949 51.9996 33.9923C51.4194 34.2359 51.2511 34.2733 51.1872 34.1726C51.143 34.1029 51.1061 33.9868 51.1053 33.9147C51.1045 33.8427 51.0105 33.6175 50.8962 33.4145C50.6686 33.0094 50.3372 32.8451 49.7481 32.8451C49.4779 32.8451 49.2954 32.9208 49.0538 33.1327ZM6.56442 33.4359C6.3093 33.5058 6.26137 33.563 6.27626 33.7792C6.29355 34.0293 6.24418 34.0567 4.90143 34.5402C4.13539 34.816 3.47914 35.0445 3.44302 35.048C3.407 35.0514 3.34879 34.9638 3.31364 34.8533C3.2587 34.68 3.20135 34.6613 2.89897 34.7177C2.706 34.7538 2.5378 34.7933 2.52512 34.8056C2.48737 34.8425 3.09502 36.6324 3.17532 36.721C3.21614 36.7659 3.38597 36.7727 3.55281 36.7361C3.8258 36.6762 3.8503 36.6425 3.79699 36.3998C3.74099 36.1451 3.76529 36.1209 4.22971 35.9667C4.5003 35.8767 4.73295 35.8184 4.74649 35.837C4.76013 35.8556 4.84639 36.0737 4.93822 36.3215C5.15645 36.9107 5.43597 37.2559 5.82701 37.4193C6.26867 37.6038 6.61956 37.5848 7.05248 37.3528C7.3221 37.2083 7.45245 37.1827 7.5291 37.2594C7.5997 37.33 7.60355 37.4142 7.54082 37.5133C7.48914 37.595 6.99302 37.9221 6.4383 38.2403C5.88359 38.5584 5.33377 38.9075 5.21639 39.0158C4.92208 39.2878 4.77473 39.7921 4.82785 40.3456C4.87597 40.846 5.14579 41.321 5.55988 41.6341C5.75343 41.7805 5.96264 41.8262 6.4383 41.8262C7.03077 41.8262 7.11501 41.7956 8.08776 41.2258C8.6516 40.8957 9.17798 40.6255 9.25751 40.6255C9.44156 40.6255 9.80022 41.0765 9.80022 41.3078C9.80022 41.513 7.81246 43.315 7.58616 43.315C7.50432 43.315 7.38915 43.2669 7.33037 43.2081C7.25199 43.1298 7.15824 43.1489 6.97804 43.2802C6.84298 43.3786 6.73118 43.5036 6.72945 43.558C6.72781 43.6124 7.18023 44.1618 7.73476 44.7787C8.52971 45.6633 8.82239 45.9244 9.11823 46.013C9.64269 46.1702 10.1594 46.0517 10.489 45.6988C10.711 45.4612 10.7608 45.3214 10.7608 44.936C10.7608 44.4833 10.7704 44.4665 10.9958 44.523C11.3681 44.6165 11.9059 44.3885 12.1127 44.0496C12.3572 43.6484 12.3454 43.1535 12.081 42.7274C11.8621 42.3745 11.3277 41.7248 10.5977 40.9239C10.3759 40.6805 10.0394 40.2005 9.84998 39.8571C9.81043 39.7854 9.77416 39.7193 9.74078 39.6585C9.48334 39.1894 9.39742 39.0328 9.29828 39.0239C9.24862 39.0195 9.19564 39.0521 9.11611 39.1011L9.11603 39.1011C9.09546 39.1138 9.07312 39.1275 9.0486 39.142C8.80846 39.2838 8.76456 39.3613 8.80615 39.5695C8.86571 39.8672 8.83948 39.8876 7.45245 40.6232L6.49757 41.1296L6.17752 40.9573C5.99453 40.8587 5.83152 40.6816 5.79695 40.5438C5.67467 40.0567 6.04083 39.725 7.67309 38.8444C8.15077 38.5866 8.19611 38.5786 8.30811 38.7317C8.46199 38.9421 8.66745 38.941 8.93016 38.7282L9.13802 38.5599L8.65919 37.7632C8.39581 37.325 8.16143 36.9144 8.13828 36.8508C8.1062 36.7626 8.04578 36.7652 7.8823 36.862C7.76463 36.9317 7.64744 36.9678 7.62189 36.9423C7.59634 36.9167 7.62208 36.8085 7.67924 36.7018C7.86587 36.353 7.78951 35.8133 7.38617 34.632C7.16784 33.9925 6.96257 33.443 6.92991 33.4107C6.89725 33.3785 6.73281 33.3898 6.56442 33.4359ZM50.1433 34.1898C50.2489 34.2955 50.3347 34.436 50.3339 34.502C50.3331 34.5681 50.2734 34.8166 50.2013 35.0543C50.0843 35.4399 50.0423 35.4835 49.8129 35.458C49.6715 35.4424 49.4454 35.3876 49.3108 35.3364C49.0897 35.2523 49.0724 35.2088 49.1326 34.8879C49.218 34.4327 49.5273 33.9977 49.7656 33.9977C49.8677 33.9977 50.0376 34.0842 50.1433 34.1898ZM6.76431 35.4569C6.95191 35.9876 6.58536 36.4809 6.09491 36.3579C5.84805 36.2959 5.52924 35.7894 5.60791 35.5843C5.65776 35.4543 6.4141 35.1485 6.58239 35.1902C6.63522 35.2034 6.71705 35.3234 6.76431 35.4569ZM47.1318 37.5726C46.361 38.9616 45.8208 39.987 45.8208 40.0611C45.8208 40.1047 45.9481 40.2061 46.1037 40.2866C46.3698 40.4242 46.3952 40.4206 46.5309 40.2268C46.6747 40.0215 46.6805 40.0235 48.0011 40.7498C49.2443 41.4336 49.3255 41.4958 49.3057 41.7487C49.2894 41.958 49.348 42.0547 49.5682 42.181L49.8518 42.3436L50.2078 41.7007C50.4036 41.3471 50.7934 40.6474 51.074 40.1459C51.3545 39.6443 51.5837 39.1904 51.5832 39.1373C51.5828 39.0841 51.3053 38.738 50.9665 38.3682L50.3506 37.6958L50.0847 37.9563C49.8353 38.2006 49.8286 38.2278 49.9774 38.3921C50.0646 38.4885 50.2046 38.7316 50.2884 38.9323C50.4138 39.2322 50.4209 39.3599 50.3283 39.6492C50.2663 39.8428 50.129 40.0963 50.023 40.2127L49.8303 40.4241L49.3624 40.187C49.1051 40.0566 48.8946 39.9157 48.8946 39.8738C48.8946 39.832 48.9504 39.7214 49.0186 39.6282C49.1254 39.4821 49.1788 39.4752 49.4043 39.5779C49.633 39.6822 49.6839 39.6739 49.8056 39.513C49.8823 39.4117 49.9465 39.283 49.9481 39.2272C49.9508 39.1394 48.5493 38.3216 48.2643 38.2446C48.2083 38.2294 48.1006 38.3325 48.0251 38.4736C47.8981 38.7109 47.9039 38.7409 48.103 38.8731C48.3302 39.024 48.3894 39.3215 48.2138 39.43C48.0622 39.5238 47.3577 39.1809 47.3577 39.0133C47.3577 38.8099 47.7213 38.2494 47.9633 38.08C48.0764 38.0008 48.3538 37.936 48.5798 37.936C48.9501 37.936 48.9921 37.9123 49.005 37.6958C49.0129 37.5638 49.0238 37.4022 49.029 37.3368C49.0348 37.2649 48.8486 37.1911 48.5584 37.15C48.2942 37.1127 47.9405 37.0568 47.7724 37.0257C47.479 36.9714 47.4531 36.9936 47.1318 37.5726ZM45.2925 41.0534C44.896 41.1988 44.4606 41.623 43.4983 42.8018C43.1983 43.1693 42.6498 43.7053 42.2795 43.9929C41.9092 44.2804 41.6035 44.5562 41.6003 44.6056C41.597 44.655 41.6868 44.7938 41.7998 44.9141C41.9688 45.094 42.04 45.1141 42.202 45.0272C42.3751 44.9346 42.4543 44.9847 42.8542 45.4392C43.1075 45.7271 43.2577 45.9686 43.1927 45.9837C43.1285 45.9986 42.6261 45.7882 42.0765 45.5159C42.0214 45.4887 41.9693 45.4627 41.9199 45.4381C41.4403 45.1994 41.2138 45.0866 41.0083 45.1168C40.8245 45.1438 40.6575 45.2852 40.3411 45.553C40.3047 45.5839 40.2663 45.6164 40.2256 45.6506C39.9746 45.8618 39.7693 46.0832 39.7693 46.1423C39.7693 46.2016 39.8392 46.3497 39.9246 46.4716C40.0361 46.6308 40.1091 46.6638 40.1839 46.589C40.3378 46.4351 40.5719 46.4623 40.7345 46.6529C41.2875 47.3013 42.4589 48.8201 42.4589 48.8888C42.4589 48.935 42.3891 49.0118 42.3039 49.0595C42.1828 49.1272 42.1711 49.1878 42.2506 49.3363C42.4816 49.7679 42.5781 49.76 43.2293 49.2563C43.5716 48.9916 43.8881 48.7397 43.9327 48.6968C43.9772 48.6538 43.9392 48.505 43.8482 48.3662C43.7098 48.1549 43.6336 48.123 43.381 48.1703C43.0977 48.2235 43.0423 48.1817 42.4809 47.4899C42.1518 47.0844 41.8826 46.7165 41.8826 46.6723C41.8826 46.5734 42.3822 46.7944 43.7355 47.4916L44.772 48.0256L45.1042 47.7721C45.287 47.6327 45.4365 47.4698 45.4365 47.41C45.4364 47.3502 45.3392 47.185 45.2204 47.0429C45.1015 46.9008 44.8615 46.6134 44.687 46.4044C44.0168 45.6017 43.3197 44.6993 43.2164 44.5006C43.1226 44.3205 43.1511 44.2546 43.432 43.999C43.61 43.8373 43.7905 43.7036 43.8331 43.702C43.8758 43.7005 44.4161 44.117 45.0338 44.6276C45.6516 45.1383 46.1751 45.5706 46.1971 45.5884C46.2192 45.6061 46.1803 45.7273 46.1106 45.8575C45.9963 46.071 46.0066 46.1133 46.2145 46.2864C46.3413 46.3921 46.4719 46.4799 46.5046 46.4817C46.624 46.4881 48.041 44.6954 48.2483 44.2756C48.4851 43.7964 48.5163 43.1858 48.3324 42.6339C48.1973 42.2287 47.4569 41.4522 46.9634 41.1982C46.4703 40.9445 45.758 40.8827 45.2925 41.0534ZM46.5533 42.3901C47.0412 42.713 47.3563 43.1362 47.4252 43.5609C47.4669 43.8178 47.4212 43.9792 47.2207 44.282C47.0787 44.4966 46.923 44.6586 46.8748 44.6419C46.6785 44.5744 44.6809 42.8744 44.6748 42.7697C44.6711 42.7075 44.8303 42.5208 45.0284 42.3547C45.3324 42.0999 45.4493 42.0592 45.7778 42.0936C45.9919 42.1161 46.3408 42.2495 46.5533 42.3901ZM10.9895 42.6843C11.1279 42.8657 11.241 43.1009 11.241 43.2072C11.241 43.3818 10.9196 43.6993 10.7427 43.6993C10.6108 43.6993 9.99233 43.1043 9.99233 42.9774C9.99233 42.8484 10.5223 42.3545 10.6607 42.3545C10.7032 42.3545 10.8512 42.5029 10.9895 42.6843ZM9.63213 43.8623C9.77746 44.0538 9.89628 44.3091 9.89628 44.4297C9.89628 44.6813 9.56787 44.948 9.2579 44.948C9.01036 44.948 8.45546 44.5112 8.45546 44.3164C8.45546 44.1669 9.12131 43.5119 9.27192 43.5133C9.32475 43.5138 9.4868 43.6708 9.63213 43.8623ZM12.7448 43.8749C12.5695 44.0687 12.5311 44.3716 12.6819 44.3716C12.9059 44.3716 12.7255 44.674 11.8798 45.7164C11.0856 46.6952 10.9522 46.8186 10.7081 46.8002C10.4236 46.7787 10.0884 47.0006 10.0884 47.2103C10.0884 47.2759 10.608 47.7555 11.2433 48.276C11.8784 48.7965 12.4358 49.2353 12.4818 49.251C12.5964 49.2902 14.0266 48.4001 14.0266 48.2896C14.0266 48.2178 13.8639 47.8521 13.7902 47.7583C13.7801 47.7454 13.5935 47.8211 13.3756 47.9264C13.1124 48.0535 12.8603 48.1026 12.625 48.0724C12.2657 48.0264 11.9134 47.7913 11.9134 47.5975C11.9134 47.5391 12.1836 47.1642 12.5138 46.7645C12.844 46.3649 13.2502 45.8683 13.4167 45.661C13.6966 45.3123 13.7353 45.2939 13.9341 45.4133C14.1293 45.5305 14.1691 45.5173 14.3669 45.2693C14.4866 45.119 14.566 44.9658 14.5431 44.9288C14.4647 44.802 13.0681 43.6993 12.9859 43.6993C12.9407 43.6993 12.8322 43.7783 12.7448 43.8749ZM15.7158 46.2628C15.5331 46.5133 15.5333 46.5162 15.7444 46.6871L15.957 46.8594L15.1722 48.166C14.4149 49.4269 14.3779 49.4706 14.1167 49.4132C13.8831 49.3619 13.8245 49.3953 13.6891 49.6573C13.6028 49.8241 13.5462 49.9716 13.5633 49.9848C13.7922 50.1627 15.2475 50.9994 15.328 50.9994C15.3877 50.9994 15.4884 50.8858 15.5517 50.7468C15.6462 50.5393 15.6405 50.4651 15.5191 50.3311C15.4379 50.2413 15.3714 50.139 15.3714 50.1036C15.3714 50.0101 16.9132 47.4454 16.9695 47.4454C16.9956 47.4454 17.098 47.4888 17.1971 47.5418C17.3398 47.6182 17.4083 47.5938 17.527 47.4244C17.6093 47.3068 17.6767 47.1599 17.6767 47.098C17.6767 46.9928 16.1249 46.001 15.9704 46.0076C15.9315 46.0093 15.8169 46.1241 15.7158 46.2628ZM38.6167 46.6368C38.379 46.7686 37.7198 47.119 37.1519 47.4156C36.5839 47.7122 36.1193 47.9896 36.1193 48.0318C36.1193 48.0742 36.1702 48.2206 36.2325 48.3572C36.3261 48.5627 36.3911 48.5959 36.6074 48.5483C36.8595 48.493 36.8939 48.5379 37.5508 49.7811C37.9257 50.4907 38.2325 51.1416 38.2325 51.2275C38.2325 51.3133 38.1702 51.3837 38.0941 51.3837C37.8636 51.3837 37.8515 51.5206 38.0538 51.8401L38.2462 52.144L39.6629 51.4036C40.4421 50.9965 41.1744 50.5984 41.2903 50.5192L41.5008 50.3751L41.1766 48.5884L40.8812 48.6173C40.6004 48.6446 40.5833 48.6709 40.5355 49.1464C40.5066 49.434 40.4007 49.7607 40.2865 49.9149C40.0504 50.2336 39.4886 50.6335 39.3436 50.5859C39.2075 50.5413 38.8124 49.8411 38.8103 49.6409C38.8095 49.5541 38.8842 49.4542 38.9763 49.4188C39.0919 49.3745 39.2073 49.4341 39.3481 49.6107C39.5306 49.8394 39.5769 49.8541 39.781 49.7477C39.9066 49.6822 40.023 49.6174 40.0395 49.6037C40.056 49.5899 39.8718 49.1851 39.6303 48.7041C39.3888 48.2232 39.1349 47.8296 39.0663 47.8296C38.9977 47.8296 38.863 47.8871 38.767 47.9573C38.6203 48.0645 38.6108 48.1194 38.7073 48.2996C38.7962 48.4658 38.7963 48.5454 38.7077 48.6522C38.513 48.8868 38.2764 48.8076 38.1062 48.4507C38.0171 48.264 37.9443 48.0739 37.9443 48.0282C37.9443 47.8942 38.6953 47.5415 38.9799 47.5418C39.1235 47.542 39.3864 47.6308 39.564 47.739C39.8755 47.929 39.8942 47.9299 40.0923 47.7637C40.2052 47.669 40.3168 47.5791 40.3402 47.564C40.4087 47.5197 39.2569 46.3884 39.148 46.393C39.0935 46.3954 38.8544 46.5051 38.6167 46.6368ZM18.6853 47.8273C17.9259 48.0225 17.5738 48.296 17.1499 49.0193C16.9499 49.3604 16.8695 49.6464 16.834 50.1424C16.7771 50.9377 16.9625 51.5191 17.418 51.9746C17.8261 52.3827 18.2732 52.5522 18.9335 52.5491C19.3573 52.5471 19.6245 52.4771 20.0722 52.2511L20.6572 51.9558L20.5093 51.6697C20.4279 51.5124 20.3239 51.3837 20.2783 51.3837C20.2326 51.3837 20.0067 51.4691 19.7764 51.5737C19.5461 51.6782 19.2129 51.7646 19.0359 51.7658C18.794 51.7674 18.6299 51.6836 18.3749 51.4286C18.0394 51.0932 18.0361 51.0819 18.0828 50.4292C18.1369 49.6732 18.3934 49.1657 18.8673 48.8767C19.2339 48.6532 19.58 48.6443 19.8747 48.8508C20.14 49.0365 20.3663 49.5354 20.3663 49.9341C20.3663 50.0911 20.3987 50.2394 20.4383 50.2637C20.4779 50.288 20.6386 50.3229 20.7954 50.3414L21.0804 50.3751L21.2155 49.4755C21.3299 48.7133 21.3304 48.5629 21.2186 48.4897C21.146 48.4423 21.0053 48.423 20.9059 48.4471C20.7987 48.4729 20.5782 48.3725 20.3639 48.2004C20.0312 47.9331 19.4675 47.7274 19.1175 47.7457C19.0383 47.7498 18.8438 47.7866 18.6853 47.8273ZM34.5344 48.4595C33.9532 48.6381 33.2293 48.8586 32.9254 48.9494C32.6216 49.0403 32.3731 49.1469 32.3731 49.1863C32.3731 49.2257 32.4141 49.3657 32.4642 49.4974C32.5252 49.6579 32.6423 49.7472 32.819 49.7679C33.0681 49.797 33.1053 49.8707 33.4911 51.0955C33.7157 51.8087 33.9018 52.4626 33.9047 52.5486C33.9076 52.6346 33.8217 52.7642 33.7138 52.8368C33.5402 52.9534 33.5302 53.0046 33.6271 53.2807C33.6873 53.4525 33.7581 53.5929 33.7844 53.5929C33.8105 53.5929 34.264 53.4587 34.7921 53.2947C35.6679 53.0225 35.7473 52.9783 35.6969 52.7904C35.6665 52.677 35.641 52.5304 35.6403 52.4643C35.6396 52.395 35.5161 52.3442 35.3484 52.3442C35.1206 52.3442 35.0356 52.2871 34.9544 52.08C34.8975 51.9347 34.8446 51.6862 34.8367 51.5277C34.8255 51.2995 34.8622 51.2396 35.0134 51.2396C35.1267 51.2396 35.2555 51.3467 35.3307 51.5037C35.4706 51.7955 35.6112 51.8316 35.8705 51.6419C36.0342 51.5223 36.0277 51.4677 35.7406 50.5373C35.5745 49.999 35.4001 49.5586 35.3529 49.5586C35.3059 49.5586 35.1568 49.6006 35.0217 49.652C34.7971 49.7374 34.7859 49.7669 34.8916 49.9987C34.9913 50.2174 34.9818 50.2705 34.8226 50.3869C34.7212 50.461 34.5971 50.508 34.5468 50.4913C34.417 50.448 34.169 49.5477 34.2636 49.4632C34.3069 49.4246 34.535 49.3461 34.7707 49.2888C35.1163 49.2047 35.2585 49.2127 35.5063 49.3304C35.6754 49.4106 35.8872 49.5575 35.977 49.6568C36.1279 49.8234 36.1582 49.8257 36.37 49.6869C36.4963 49.6042 36.5995 49.4908 36.5995 49.4349C36.5995 49.2672 35.8027 48.1171 35.6928 48.1263C35.6368 48.131 35.1155 48.281 34.5344 48.4595ZM30.0438 49.396L28.3388 49.5916V49.9529C28.3388 50.2758 28.367 50.3175 28.603 50.3447L28.8671 50.3751L29.034 51.8159C29.1258 52.6084 29.1811 53.3108 29.1571 53.3768C29.133 53.4429 29.0198 53.4969 28.9056 53.4969C28.7205 53.4969 28.704 53.5348 28.7544 53.845C28.7855 54.0364 28.8245 54.2067 28.8411 54.2233C28.8744 54.2567 32.2647 53.8942 32.4249 53.8403C32.5307 53.8046 32.8201 52.0868 32.7348 52.0014C32.7072 51.9738 32.5644 51.9425 32.4173 51.9316C32.194 51.9152 32.1372 51.9598 32.0722 52.2031C31.9131 52.7978 31.3058 53.2087 30.5859 53.2087C30.3517 53.2087 30.3346 53.1723 30.213 52.4162C30.1567 52.0656 30.163 52.056 30.4501 52.056C30.7006 52.056 30.7536 52.0992 30.8024 52.343C30.853 52.5959 30.8898 52.623 31.1122 52.5697C31.251 52.5365 31.3801 52.4962 31.3992 52.4801C31.4611 52.4281 31.3008 50.7452 31.2218 50.6173C31.1726 50.5378 31.0551 50.5157 30.8945 50.556C30.6952 50.6061 30.6441 50.6769 30.6441 50.9034C30.6441 51.1281 30.5927 51.2008 30.3995 51.2493C30.265 51.2831 30.1412 51.2947 30.1244 51.2751C30.1076 51.2556 30.0657 51.0186 30.0312 50.7485L29.9687 50.2575L30.4081 50.1973C30.9586 50.1219 31.4055 50.2966 31.6925 50.6997C31.8994 50.9902 31.9124 50.9942 32.1871 50.8522C32.3422 50.772 32.4692 50.6882 32.4692 50.6661C32.4692 50.59 31.8077 49.1744 31.7783 49.1874C31.762 49.1946 30.9815 49.2884 30.0438 49.396ZM23.8242 49.6547C23.8242 49.9836 23.8539 50.0389 24.0303 50.0389C24.2341 50.0389 24.2356 50.0533 24.1698 51.3215C24.1332 52.0269 24.07 52.7293 24.0294 52.8824C23.9823 53.0593 23.8827 53.1713 23.7558 53.1901C23.6182 53.2103 23.5436 53.3065 23.5151 53.4999C23.4925 53.6543 23.5039 53.829 23.5405 53.8882C23.5844 53.9593 24.1284 54.0008 25.1464 54.0105L26.6859 54.0252L27.1041 53.7328C27.3342 53.5719 27.6174 53.2683 27.7338 53.058C27.9987 52.5787 28.1268 51.768 28.0355 51.1493C27.9465 50.5477 27.5358 49.9502 27.0458 49.71C26.8085 49.5936 26.2399 49.4796 25.5107 49.402C24.8737 49.3344 24.2336 49.2771 24.0884 49.2748C23.8435 49.2707 23.8242 49.2985 23.8242 49.6547ZM26.4729 50.5258C26.9692 50.992 27.004 52.0756 26.5445 52.7484C26.2728 53.146 25.8114 53.3491 25.409 53.2481C25.154 53.1841 25.1504 53.1725 25.2052 52.5955C25.2359 52.2724 25.2895 51.6032 25.3243 51.1085L25.3876 50.209L25.8126 50.2569C26.0733 50.2863 26.3285 50.3902 26.4729 50.5258Z" fill="#353535"/>
<path fill-rule="evenodd" clip-rule="evenodd" d="M10.5092 27.0125C10.5092 27.0688 10.6351 27.2326 10.7891 27.3763C10.943 27.5201 11.0689 27.7258 11.0689 27.8335C11.0689 28.0204 11.0227 28.0293 10.0505 28.0293C9.49039 28.0293 8.96572 28.0038 8.88457 27.9727C8.80342 27.9415 8.73701 27.8576 8.73701 27.7861C8.73701 27.7147 8.69504 27.6562 8.64374 27.6562C8.59188 27.6562 8.55046 27.9049 8.55046 28.2158C8.55046 28.5236 8.57518 28.7755 8.60549 28.7755C8.63571 28.7755 8.7302 28.7017 8.81536 28.6115C8.94893 28.47 9.11449 28.4515 10.0195 28.4774C10.9673 28.5044 11.0689 28.524 11.0689 28.6797C11.0689 28.7745 10.943 28.9581 10.7891 29.0877C10.4197 29.3984 10.4228 29.5622 10.7965 29.4875C10.9993 29.4469 11.0728 29.4632 11.0463 29.5427C11.0244 29.6085 10.5656 29.7215 9.9437 29.8143C8.87841 29.9732 8.81396 29.9656 8.70968 29.6684C8.69299 29.6208 8.63655 29.6083 8.58423 29.6407C8.45831 29.7185 8.66211 30.7559 8.81322 30.8062C8.87496 30.8269 8.92356 30.7562 8.92356 30.6458C8.92356 30.4291 8.97561 30.402 9.543 30.3228L9.92915 30.2689L10.0214 30.898C10.0721 31.244 10.1034 31.5388 10.0909 31.5533C10.0784 31.5677 9.85351 31.605 9.59113 31.636C9.20114 31.6822 9.1033 31.6646 9.05545 31.5398C9.02327 31.4559 8.9535 31.3872 8.90052 31.3872C8.83924 31.3872 8.82394 31.5786 8.85855 31.9134C8.92263 32.5347 9.06179 32.7389 9.19051 32.4003C9.27035 32.1905 9.36615 32.1571 10.29 32.0174L11.3021 31.8643L11.4595 32.0682C11.5939 32.2422 11.6253 32.2503 11.6739 32.1236C11.7577 31.9052 11.599 31.082 11.4644 31.0371C11.3985 31.0151 11.3487 31.0774 11.3487 31.1819C11.3487 31.3751 11.1196 31.4769 10.6798 31.4791C10.4153 31.4805 10.4075 31.4629 10.2729 30.571C10.2144 30.1839 10.2192 30.1746 10.4777 30.1733C10.6233 30.1726 10.8311 30.1483 10.9394 30.1192C11.0896 30.0789 11.1497 30.117 11.1923 30.2796C11.323 30.7799 11.3953 30.2424 11.3953 28.7688V27.192L10.9823 27.051C10.7551 26.9734 10.5558 26.91 10.5393 26.91C10.5228 26.91 10.5092 26.9561 10.5092 27.0125ZM46.2334 28.1624C46.2334 28.2357 46.3374 28.3774 46.4645 28.4774C46.7826 28.7276 46.905 29.1004 46.8309 29.5941L46.7687 30.0094L46.3124 29.9656C46.0615 29.9415 45.8283 29.8938 45.7943 29.8598C45.7602 29.8257 45.7725 29.6832 45.8215 29.5431C45.8764 29.3867 45.9909 29.277 46.1187 29.2586C46.2331 29.2423 46.3267 29.1688 46.3267 29.0954C46.3267 28.9946 46.1902 28.962 45.767 28.962C45.4592 28.962 45.177 28.9588 45.1398 28.955C45.1026 28.9512 45.0572 28.9929 45.0389 29.0477C45.0207 29.1026 45.114 29.1886 45.2465 29.2389C45.4321 29.3096 45.4872 29.3952 45.4872 29.6126C45.4872 29.8848 45.4725 29.8948 45.0675 29.8948H44.6477V29.3434C44.6477 28.8453 44.6748 28.7693 44.9276 28.5566C45.1831 28.3416 45.2945 28.1225 45.1483 28.1225C45.1157 28.1225 44.9324 28.1695 44.741 28.2268C44.3937 28.3309 44.3927 28.3326 44.3344 28.9497C44.3023 29.29 44.2757 29.7645 44.2753 30.0043C44.2749 30.244 44.2255 30.6531 44.1654 30.9133C44.1054 31.1735 44.0842 31.4143 44.1182 31.4483C44.1524 31.4825 44.2539 31.4441 44.344 31.3633C44.4923 31.2303 44.5678 31.2297 45.1374 31.3581C45.4837 31.4362 45.767 31.5287 45.767 31.5636C45.767 31.5987 45.3483 31.7645 44.8365 31.9323C44.3246 32.1001 43.8888 32.2664 43.8679 32.3019C43.8469 32.3374 43.8003 32.545 43.7642 32.763C43.7168 33.0497 43.7303 33.1594 43.8131 33.1594C43.8761 33.1594 43.9742 33.0992 44.0312 33.0256C44.1204 32.9104 44.2643 32.9207 45.0691 33.1C45.583 33.2144 46.0553 33.34 46.1184 33.3791C46.1816 33.4182 46.2334 33.5142 46.2334 33.5924C46.2334 33.6706 46.2859 33.7172 46.35 33.6958C46.4817 33.652 46.6636 32.8123 46.5631 32.7118C46.5273 32.676 46.4375 32.7293 46.3637 32.8303C46.2315 33.0112 46.2168 33.0114 45.4161 32.8466C44.9688 32.7546 44.5827 32.659 44.558 32.6344C44.4824 32.5588 44.6961 32.4652 45.8117 32.0853C46.6148 31.8119 46.8863 31.6797 46.8863 31.5617C46.8863 31.4398 46.7009 31.3613 46.0702 31.2167C45.6213 31.1139 45.0962 31.0004 44.9032 30.9646C44.7102 30.9289 44.528 30.8601 44.498 30.8116C44.4681 30.7632 44.4686 30.6244 44.4991 30.5029C44.5526 30.2896 44.5786 30.2837 45.2773 30.3259C46.5984 30.4055 46.7683 30.4429 46.8269 30.6669C46.9412 31.1041 47.0626 30.6502 47.1264 29.5473L47.1923 28.4069L46.7517 28.2181C46.5095 28.1142 46.2937 28.0293 46.2723 28.0293C46.2509 28.0293 46.2334 28.0892 46.2334 28.1624ZM9.05275 32.8562C9.07942 32.946 9.12876 33.1349 9.16244 33.276C9.23416 33.5769 9.48321 33.6227 9.48321 33.335C9.48321 33.1758 9.52378 33.1485 9.69308 33.1939C9.80846 33.2248 9.97225 33.2507 10.057 33.2513C10.212 33.2526 10.416 33.6842 10.416 34.0106C10.416 34.1043 10.3069 34.2526 10.1736 34.3399C9.98521 34.4634 9.89399 34.4754 9.76396 34.3941C9.6719 34.3367 9.57695 34.3094 9.55288 34.3333C9.48806 34.3982 9.79764 35.3976 9.88261 35.3978C9.92272 35.3979 9.98708 35.3128 10.0256 35.2086C10.0915 35.0308 11.8735 33.5384 12.0249 33.5343C12.0634 33.5333 12.0949 33.4301 12.0949 33.305C12.0949 33.1072 12.0432 33.0712 11.6985 33.029C11.4804 33.0023 10.8823 32.9548 10.3693 32.9236C9.85631 32.8922 9.39674 32.8276 9.34796 32.7798C9.19508 32.63 9.00051 32.6804 9.05275 32.8562ZM11.442 33.3038C11.442 33.3973 10.9308 33.8063 10.81 33.8093C10.7138 33.8117 10.5092 33.4608 10.5092 33.2932C10.5092 33.2709 10.7191 33.2526 10.9756 33.2526C11.2321 33.2526 11.442 33.2757 11.442 33.3038ZM43.9482 33.5523C43.5627 33.688 43.4496 33.7915 43.2418 34.1987C42.7125 35.2363 43.3865 36.3308 44.5545 36.3302C45.0948 36.33 45.5188 36.0709 45.7633 35.5919C46.1599 34.8143 45.9046 34.047 45.1169 33.6491C44.6677 33.4221 44.385 33.3987 43.9482 33.5523ZM45.0671 34.1852C45.4674 34.4326 45.7111 34.8636 45.631 35.1828C45.5991 35.3099 45.4636 35.5152 45.33 35.6391C45.1579 35.7986 44.9788 35.8643 44.7168 35.8643C44.0471 35.8643 43.3349 35.2977 43.3452 34.773C43.3502 34.5182 43.5695 34.1744 43.8185 34.0307C44.1114 33.8616 44.6518 33.9285 45.0671 34.1852ZM11.7918 34.4362C11.7019 34.4597 11.6285 34.5388 11.6285 34.6119C11.6285 34.6961 11.7263 34.745 11.8939 34.745C12.1505 34.745 12.468 34.9863 12.468 35.1813C12.468 35.2336 12.0422 35.4727 11.5217 35.7125C10.6487 36.1148 10.5628 36.1371 10.4117 36.0003C10.1471 35.761 10.117 35.9931 10.3455 36.5089C10.5658 37.0056 10.7891 37.136 10.7891 36.768C10.7891 36.5855 10.9347 36.4848 11.7318 36.1156C12.2502 35.8755 12.7119 35.7022 12.7578 35.7306C12.8716 35.8009 12.8636 36.3991 12.7478 36.4706C12.6396 36.5375 12.621 36.7978 12.7245 36.7956C12.7629 36.7948 12.9309 36.6738 13.0976 36.5268C13.3862 36.2724 13.491 36.0509 13.3229 36.0509C13.2439 36.0509 12.5613 34.6267 12.5613 34.4618C12.5613 34.3717 12.0976 34.3563 11.7918 34.4362ZM42.4683 35.9914C42.3331 36.222 42.2226 36.4292 42.2226 36.452C42.2226 36.4747 42.3824 36.4892 42.5777 36.4841C42.8346 36.4773 43.0728 36.5645 43.4388 36.7991L43.9448 37.1235L41.7096 37.1759L41.4923 37.5543C41.3728 37.7623 41.3012 37.9588 41.3333 37.9909C41.3654 38.023 41.4755 37.9969 41.5781 37.9328C41.7416 37.8307 41.8755 37.884 42.6698 38.3672C43.355 38.784 43.5751 38.9659 43.5751 39.115C43.5751 39.446 43.7466 39.3827 43.976 38.967C44.2161 38.5318 44.1852 38.3205 43.907 38.4943C43.7632 38.584 43.6243 38.5367 43.0764 38.2112C42.7145 37.9962 42.3928 37.7789 42.3617 37.7284C42.3257 37.6701 42.697 37.6366 43.377 37.6366C44.4241 37.6366 44.974 37.5378 44.9118 37.3609C44.8948 37.3125 44.4403 37.0085 43.9018 36.6852C43.2617 36.301 42.9114 36.033 42.8901 35.911C42.8274 35.5532 42.7122 35.5751 42.4683 35.9914ZM14.416 38.1729C14.4102 38.2114 14.4118 38.311 14.4199 38.3944C14.4284 38.4831 14.172 38.7388 13.8011 39.0115C12.9353 39.6478 12.7888 39.7171 12.5634 39.5964C12.153 39.3768 12.1002 38.826 12.4781 38.706C12.7194 38.6295 12.6698 38.3453 12.4087 38.3079C11.9125 38.2367 11.734 39.03 12.1182 39.5984C12.3424 39.93 12.745 40.098 13.1088 40.0117C13.2303 39.9829 13.6392 39.7305 14.0173 39.4508C14.3954 39.1712 14.7457 38.9424 14.7957 38.9424C14.8457 38.9424 14.9333 39.0298 14.9906 39.1367C15.1084 39.3568 15.0811 39.3979 14.2536 40.244C13.762 40.7466 13.7547 40.7622 13.7986 41.2186C13.8355 41.6035 13.9004 41.7349 14.1802 41.9914C14.446 42.2349 14.5974 42.3003 14.8957 42.3003C15.218 42.3003 15.3451 42.2345 15.7519 41.8572C16.0147 41.6135 16.3268 41.3188 16.4455 41.2021C16.6039 41.0465 16.7241 41.0056 16.8966 41.0489C17.0315 41.0828 17.1317 41.0678 17.1317 41.0138C17.1317 40.8666 16.4704 40.2425 16.376 40.3008C16.3296 40.3295 16.3154 40.4479 16.3445 40.5639C16.387 40.7331 16.2808 40.8888 15.8085 41.3499C15.3092 41.8373 15.1686 41.925 14.8843 41.9261C14.4997 41.9274 14.2697 41.7255 14.188 41.3147C14.1396 41.0719 14.2039 40.9704 14.7605 40.4115C15.1796 39.9907 15.4602 39.7819 15.6067 39.7819C15.7273 39.7819 15.8259 39.7378 15.8259 39.6838C15.8259 39.6299 15.6851 39.4515 15.513 39.2874C15.341 39.1234 15.061 38.7897 14.891 38.546C14.6026 38.1329 14.4416 38.0064 14.416 38.1729ZM39.6707 39.804C39.2788 40.2266 38.958 40.617 38.958 40.6714C38.958 40.7258 38.8216 40.8217 38.6548 40.8844C38.4881 40.9472 38.0881 41.2094 37.766 41.4672C37.1926 41.9263 37.0875 42.1594 37.4946 42.0692C37.662 42.0319 37.8078 42.1652 38.3051 42.81C38.7481 43.3845 38.9041 43.6603 38.8845 43.8344C38.8698 43.9653 38.8949 44.0725 38.9405 44.0725C39.0695 44.0725 39.7975 43.5221 39.7975 43.4245C39.7975 43.29 39.6309 43.2185 39.5652 43.3248C39.533 43.377 39.4776 43.4196 39.4422 43.4196C39.4067 43.4196 39.2617 43.2741 39.1198 43.0963L38.8619 42.7731L39.2831 42.3849C39.6465 42.0498 39.7042 41.946 39.7042 41.6263C39.7042 41.3342 39.6445 41.2 39.4219 40.9922C39.2566 40.8377 39.1798 40.7039 39.2364 40.6688C39.2896 40.636 39.6917 40.9356 40.1301 41.3346C40.8059 41.9499 40.9186 42.0937 40.8716 42.281C40.8313 42.4415 40.8519 42.4935 40.9471 42.4711C41.1167 42.4311 42.5024 40.9552 42.5024 40.8145C42.5024 40.6292 42.1194 39.9472 42.0528 40.0138C42.018 40.0488 41.9889 40.2747 41.9881 40.5159C41.9871 40.8788 41.9307 41.0221 41.6616 41.3459C41.4828 41.5612 41.3155 41.7364 41.2899 41.7354C41.2642 41.7345 41.0767 41.5911 40.8732 41.4171C40.5044 41.1014 40.5037 41.0998 40.683 40.9018C40.8551 40.7116 40.95 40.7044 41.3132 40.854C41.6181 40.9794 41.4876 40.6712 41.057 40.2486C40.7553 39.9525 40.6093 39.8654 40.5364 39.9384C40.4634 40.0113 40.4675 40.0916 40.5507 40.2249C40.6847 40.4394 40.6141 40.6934 40.3975 40.7766C40.3011 40.8135 40.1423 40.7294 39.9555 40.5425L39.6638 40.2509L40.0293 39.8765C40.3441 39.5543 40.4509 39.502 40.7958 39.502C41.2862 39.502 41.3356 39.31 40.8868 39.1477C40.7164 39.086 40.5335 39.0357 40.4802 39.0357C40.427 39.0357 40.0627 39.3814 39.6707 39.804ZM39.1021 41.41C39.228 41.5359 39.3311 41.6955 39.3311 41.7647C39.3311 41.8952 38.7055 42.5516 38.649 42.4805C38.3587 42.1155 38.1185 41.749 38.1185 41.6711C38.1185 41.5727 38.6579 41.1856 38.799 41.1826C38.8398 41.1817 38.9762 41.2841 39.1021 41.41ZM16.8892 41.3456C16.8328 41.3833 16.7397 41.5033 16.6824 41.6121C16.5384 41.886 16.6653 42.2696 17.0792 42.8119C17.3121 43.117 17.4123 43.3377 17.3931 43.5031C17.3681 43.7184 17.3236 43.746 17.0019 43.746C16.7121 43.746 16.5992 43.6929 16.4422 43.4825C16.3012 43.2936 16.2476 43.0891 16.2524 42.7597C16.2566 42.4778 16.2188 42.3003 16.1544 42.3003C16.053 42.3003 15.6393 43.0514 15.6393 43.2356C15.6393 43.2855 15.7205 43.3263 15.8196 43.3263C15.9188 43.3263 16.0267 43.4108 16.0594 43.514C16.0922 43.6172 16.2727 43.8061 16.4604 43.9337C17.0432 44.3298 17.781 44.1915 17.914 43.6614C17.989 43.3627 17.8611 43.0422 17.4542 42.5092C17.2341 42.221 17.1323 41.9958 17.1507 41.8381C17.1879 41.5191 17.5041 41.482 17.8249 41.7589C18.0056 41.9149 18.0921 42.1018 18.14 42.4402C18.1961 42.8359 18.2394 42.9113 18.4258 42.9378C18.5467 42.955 18.6912 42.9235 18.7468 42.8679C18.8666 42.748 19.4311 42.7319 19.5017 42.8462C19.5288 42.89 19.3212 43.3412 19.0404 43.8489C18.6397 44.5735 18.4864 44.7725 18.3276 44.7741C17.9681 44.7777 18.0483 44.9668 18.5178 45.2223C18.7697 45.3594 19.005 45.4716 19.0406 45.4716C19.0762 45.4716 19.0778 45.3464 19.0441 45.1932C18.9947 44.9679 19.0747 44.7451 19.4628 44.0273C19.7267 43.5392 19.9753 43.1398 20.0151 43.1398C20.1628 43.1398 20.4078 43.501 20.4353 43.7592C20.4719 44.1021 20.7131 44.1098 20.7523 43.7694C20.7826 43.506 20.8972 43.4356 21.0069 43.6131C21.0654 43.7078 20.4646 45.2909 20.2751 45.5416C20.2266 45.6058 20.1081 45.6582 20.0119 45.6582C19.9155 45.6582 19.8367 45.7107 19.8368 45.7748C19.8369 45.903 20.7702 46.3192 20.8921 46.2453C20.9339 46.2201 20.8996 46.1236 20.816 46.0312C20.6741 45.8744 20.6916 45.7979 21.0748 44.8978C21.4024 44.1285 21.5278 43.9264 21.6927 43.9021C22.0099 43.8553 21.8782 43.6812 21.3694 43.4749C21.1164 43.3723 20.8954 43.2549 20.8783 43.214C20.8611 43.1731 20.7845 43.1398 20.708 43.1398C20.5453 43.1398 19.2615 42.4101 19.1644 42.2624C19.1183 42.1924 19.0633 42.1969 18.9825 42.2777C18.9188 42.3414 18.8093 42.3936 18.7391 42.3936C18.654 42.3936 18.6312 42.3314 18.6708 42.207C18.7056 42.0971 18.6875 42.0205 18.6266 42.0205C18.5698 42.0205 18.3637 41.8526 18.1685 41.6474C17.8584 41.3215 17.7615 41.2745 17.4027 41.2757C17.1767 41.2765 16.9456 41.3079 16.8892 41.3456ZM36.1016 42.6231C36.0729 42.698 36.1404 43.2724 36.2516 43.8994C36.3656 44.5419 36.4286 45.1745 36.3959 45.3489C36.3639 45.519 36.3755 45.6582 36.4216 45.6582C36.5697 45.6582 37.14 45.2341 37.115 45.1425C37.1017 45.0937 37.0197 45.0534 36.9325 45.0529C36.827 45.0523 36.752 44.9437 36.7076 44.7278C36.671 44.5494 36.6552 44.3815 36.6725 44.3547C36.6898 44.3277 36.8581 44.2236 37.0464 44.1233C37.3601 43.9563 37.4097 43.9528 37.6371 44.0832C37.8191 44.1875 37.8807 44.2922 37.8678 44.4754C37.8581 44.6129 37.8918 44.7254 37.9426 44.7254C38.1202 44.7254 38.77 44.3047 38.7707 44.1891C38.7712 44.125 38.677 44.0716 38.5616 44.0705C38.4373 44.0693 37.9626 43.7457 37.3983 43.2776C36.874 42.8427 36.3794 42.4868 36.2994 42.4868C36.2194 42.4868 36.1304 42.5481 36.1016 42.6231ZM36.8652 43.4265C37.1316 43.7054 37.1342 43.7169 36.9581 43.8462C36.7286 44.0148 36.5329 44.0169 36.5329 43.851C36.5329 43.7805 36.5066 43.5916 36.4746 43.4312C36.4424 43.2705 36.4555 43.1398 36.5037 43.1398C36.5519 43.1398 36.7145 43.2688 36.8652 43.4265ZM34.8073 43.3263C34.7756 43.3776 34.6605 43.4196 34.5514 43.4196C34.4424 43.4196 34.1745 43.506 33.9562 43.6117C33.668 43.7513 33.5066 43.9126 33.3671 44.2008C33.2614 44.4191 33.1759 44.7209 33.177 44.8715C33.1803 45.3117 33.4951 45.8901 33.8512 46.1101C34.5274 46.5281 35.5265 46.2576 35.8822 45.5604C36.0633 45.2055 36.0627 45.0052 35.8807 45.0052C35.8359 45.0052 35.7715 45.0926 35.7377 45.1993C35.7038 45.306 35.5478 45.5158 35.3911 45.6656C35.1779 45.8693 35.0162 45.938 34.7499 45.938C34.4684 45.938 34.3264 45.8707 34.0728 45.617C33.7238 45.2681 33.5932 44.8771 33.6854 44.4574C33.7554 44.1385 34.0628 43.8291 34.3905 43.748C34.5587 43.7062 34.7275 43.7579 34.9776 43.9276C35.5663 44.3271 35.6651 44.2145 35.2612 43.6042C35.0099 43.2242 34.9087 43.1622 34.8073 43.3263ZM22.1641 44.2826C21.9925 44.3983 21.7716 44.6308 21.6732 44.7994C21.4403 45.1981 21.4369 45.9159 21.6661 46.3038C21.8667 46.6435 22.4691 46.964 22.9068 46.964C23.3611 46.964 24.0693 46.5951 23.9137 46.4395C23.8886 46.4144 23.6532 46.4642 23.3906 46.55C22.9915 46.6806 22.8669 46.687 22.631 46.5892C22.4758 46.525 22.2662 46.3675 22.1654 46.2393C21.8047 45.7806 22.0139 44.8769 22.5594 44.5373C23.0989 44.2014 23.6768 44.4646 23.8553 45.1275C23.9938 45.6421 24.174 45.5159 24.174 44.9043C24.174 44.5201 24.1405 44.3978 24.034 44.3934C23.9571 44.3902 23.7381 44.3167 23.5473 44.23C23.0618 44.0094 22.5401 44.0293 22.1641 44.2826ZM32.3355 44.2614C32.3355 44.3339 32.253 44.3519 32.0989 44.3132C31.7903 44.2357 31.1939 44.3992 30.999 44.6145C30.9145 44.7079 30.8191 44.9151 30.7871 45.0751C30.7411 45.3056 30.7756 45.4126 30.9534 45.5905C31.1392 45.7762 31.3044 45.8245 31.9104 45.8703C32.7729 45.9356 32.9906 46.0742 32.8196 46.4494C32.5982 46.9352 31.9047 46.9319 31.3941 46.4426C31.2532 46.3078 31.0957 46.2237 31.0438 46.2557C30.9203 46.332 31.3148 47.2387 31.4727 47.2416C31.5369 47.2428 31.5893 47.2 31.5893 47.1464C31.5893 47.0857 31.7106 47.0717 31.9097 47.109C32.3272 47.1872 32.844 47.0118 33.0802 46.7115C33.2946 46.439 33.3263 45.9597 33.1461 45.7134C33.0153 45.5344 32.4317 45.389 31.8178 45.3825C31.2628 45.3765 31.0489 45.0926 31.3627 44.7787C31.5921 44.5494 32.0919 44.5961 32.4273 44.8784C32.6534 45.0686 32.7451 45.0994 32.8308 45.0136C32.9165 44.9279 32.8967 44.8252 32.7438 44.5615C32.5418 44.2133 32.3355 44.0616 32.3355 44.2614ZM24.4071 44.6275C24.4071 44.6763 24.4703 44.7515 24.5475 44.7947C24.6724 44.8646 24.6722 44.9844 24.546 45.8832C24.4681 46.4387 24.3815 46.9301 24.3536 46.9752C24.3257 47.0204 24.2389 47.0573 24.1607 47.0573C24.0825 47.0573 24.0356 47.1088 24.0566 47.1717C24.0793 47.2395 24.453 47.3329 24.9739 47.4009C25.4573 47.4641 25.968 47.5374 26.1088 47.5639C26.3332 47.6061 26.3884 47.5654 26.5583 47.2324C26.6649 47.0235 26.7278 46.7896 26.6983 46.7125C26.6562 46.6029 26.5858 46.6354 26.3745 46.8615C26.1302 47.123 26.0508 47.1506 25.5412 47.1506C25.2313 47.1506 24.95 47.1056 24.9161 47.0507C24.8821 46.9957 24.8822 46.7649 24.9162 46.5377C24.9684 46.1905 25.0116 46.1245 25.187 46.1245C25.439 46.1245 25.6197 46.2881 25.6197 46.5163C25.6197 46.6086 25.6827 46.6842 25.7596 46.6842C25.8445 46.6842 25.8995 46.5975 25.8995 46.4641C25.8995 46.3429 25.9262 46.0491 25.9589 45.8111C26.005 45.4742 25.9893 45.3783 25.8877 45.3783C25.816 45.3783 25.7158 45.4727 25.6651 45.5882C25.6082 45.718 25.4751 45.8094 25.3166 45.8276C25.0903 45.8537 25.0603 45.8263 25.0614 45.5944C25.062 45.4499 25.089 45.2334 25.1211 45.1133C25.1751 44.9116 25.2129 44.8996 25.6095 44.9572C26.1147 45.0307 26.4216 45.2062 26.5051 45.4691C26.538 45.5731 26.6285 45.6582 26.7061 45.6582C26.8163 45.6582 26.8329 45.592 26.782 45.355C26.6605 44.7888 26.6214 44.7638 25.6769 44.6477C24.6031 44.5157 24.4071 44.5127 24.4071 44.6275ZM28.9847 44.7612C28.408 44.823 27.9979 44.9098 27.9767 44.9747C27.957 45.0349 28.0377 45.0979 28.156 45.1147C28.3607 45.1437 28.3754 45.1977 28.4548 46.2065C28.529 47.1493 28.5211 47.2775 28.3848 47.3538C28.3004 47.401 28.2314 47.4853 28.2314 47.5411C28.2314 47.6112 28.4839 47.6235 29.0476 47.5808C29.4965 47.5469 30.0381 47.4949 30.2514 47.4655C30.6175 47.4148 30.6448 47.3893 30.7411 47.0067C30.7972 46.7839 30.8431 46.5782 30.8431 46.5496C30.8431 46.5211 30.7792 46.4976 30.7012 46.4976C30.6232 46.4976 30.5146 46.5957 30.46 46.7154C30.3152 47.0333 29.8954 47.2438 29.4063 47.2438H28.9776V46.8784C28.9776 46.6774 28.9534 46.4501 28.924 46.3732C28.8824 46.2647 28.9398 46.2369 29.1805 46.249C29.4039 46.2602 29.5164 46.3231 29.5827 46.4743C29.6333 46.5898 29.7319 46.6842 29.8017 46.6842C29.9022 46.6842 29.9151 46.5627 29.8634 46.1012C29.8275 45.7806 29.7619 45.4797 29.7175 45.4327C29.6437 45.3546 29.6041 45.4206 29.4846 45.8214C29.4654 45.8856 29.327 45.938 29.1768 45.938C28.9244 45.938 28.9008 45.9082 28.8625 45.5416C28.8397 45.3236 28.8248 45.1387 28.8294 45.1309C28.834 45.123 29.0765 45.087 29.3682 45.0509C29.8592 44.9901 29.917 45.0034 30.142 45.2285C30.418 45.5044 30.5633 45.5384 30.5633 45.327C30.5633 45.0621 30.2824 44.6319 30.1178 44.6446C30.0294 44.6516 29.5194 44.704 28.9847 44.7612Z" fill="#F6F3EF"/>
</g>
<defs>
<clipPath id="clip0_1987_4905">
<rect width="56" height="56" fill="white"/>
</clipPath>
</defs>
</svg>
