<svg width="138" height="41" fill="none" xmlns="http://www.w3.org/2000/svg"><path fill-rule="evenodd" clip-rule="evenodd" d="M66.737.47c-2.018.077-7.004.533-10.6.97-.755.092-1.59.169-1.852.17-.697.006-.84.091-.84.503 0 .64-.336 2.29-.485 2.385-.277.176-.54.094-.792-.246-.383-.518-.87-.633-2.648-.628-1.926.006-2.053.072-1.822.94.413 1.554.491 1.748.706 1.748.386 0 .344.183-.252 1.1-1.074 1.652-1.13 1.902-.877 3.942.115.93.103 1.388-.085 3.151-.12 1.135-.204 2.527-.185 3.094.018.567-.03 1.435-.108 1.927-.123.78-.117.99.052 1.623.451 1.695.098 2.695-.952 2.695-.53 0-.642-.276-.451-1.114.272-1.194.02-2.382-.666-3.141-.438-.486-.505-.898-.262-1.636.064-.194.11-.586.1-.87-.008-.283.151-1.364.354-2.402.455-2.324.512-3.04.369-4.645-.152-1.697-.787-3.953-1.113-3.953-.083 0-.348-.116-.588-.258-.418-.247-.525-.256-2.613-.22-2.386.043-2.402.048-2.51.716-.04.254-.254.837-.474 1.296l-.402.834.187.735c.102.405.318.911.48 1.126.638.847-.656 2.788-2.044 3.066l-.336.067v-.58c0-.318-.051-.712-.113-.875-.062-.163-.217-1.28-.344-2.483-.261-2.465-.224-2.339-.756-2.561l-.394-.165.456-.435c1.544-1.475-.968-2.47-4.022-1.592-.527.152-1.396.391-1.932.532-1.785.471-2.077.718-2.37 2.004-.196.855-.317.953-.847.68-.205-.106-.662-.22-1.016-.252-.876-.079-.98.06-.98 1.296 0 .811-.038.994-.259 1.272-.6.75-.587.695-.466 2.042.13 1.435.077 2.806-.186 4.87-.1.788-.286 2.335-.412 3.438-.32 2.804-.308 2.782-1.657 2.916a3.988 3.988 0 00-1.456.415l-.654.336H1.422v.802h134.985v-.802h-19.713l-1.44-.287c-.792-.157-1.638-.286-1.88-.286-.776 0-1.021-.832-.692-2.35.054-.252.166-.754.247-1.115.21-.929.007-2.366-.64-4.534-.644-2.16-.653-2.011.166-2.832 1.148-1.149 1.255-1.67.549-2.677-.32-.455-.34-.535-.22-.867.187-.516.177-.562-.255-1.236-.553-.861-.787-1.044-1.241-.971-.849.136-1.505-.054-1.624-.473-.161-.562-.488-.71-1.95-.88a33.18 33.18 0 01-2.262-.345c-1.06-.217-1.836-.177-2.154.11-.382.347-.739 2.416-1.267 7.358-.068.64-.225 1.748-.348 2.464-.285 1.658-.282 1.948.03 2.537.205.386.255.665.252 1.399-.007 1.334-.274 4.453-.388 4.523-.208.129-2.965.136-3.203.01-.399-.215-.331-1.193.16-2.31.58-1.321.662-2.025.45-3.884-.097-.851-.221-2.579-.276-3.84-.113-2.585-.278-4.746-.46-6.015-.069-.473-.112-1.105-.097-1.405.033-.66.005-.687-.933-.934-.41-.108-.977-.27-1.26-.36l-.516-.165v-1.76c0-2.268-.065-2.341-1.574-1.79-.364.133-.862.128-3.38-.037-1.624-.105-4.19-.222-5.703-.259-1.513-.037-3.343-.14-4.068-.23C77.664.487 71.14.304 66.737.472zm10.755 4.626l2.79-.013-.077.815c-.237 2.493-.59 5.041-.705 5.08-.084.027-.202-.52-.344-1.596-.15-1.136-.259-1.634-.358-1.626-.08.006-.807.02-1.618.029l-1.473.017-.064 1.346c-.035.74-.198 2.12-.36 3.066-.217 1.256-.328 2.458-.411 4.469-.217 5.214-.324 5.797-1.05 5.696-.776-.107-.806-.196-1.012-3.061a40.712 40.712 0 00-.4-3.266c-.322-1.88-.359-2.862-.13-3.511.087-.246.19-.755.23-1.132.041-.377.204-1.944.363-3.482.341-3.292.241-3.034 1.125-2.914.387.053 1.959.09 3.494.083zm14.57.145c.14.046.13.087-.058.229-.649.489-1.156.644-2.41.737-1.618.121-1.805.197-2.245.912-.198.322-.402.541-.455.489-.13-.13-.448-1.672-.448-2.171v-.402l2.722.075c1.497.04 2.799.1 2.893.13zm-27.095.24c-.043.174-.206.513-.364.754-.391.598-.5 1.397-.501 3.687-.002 2.1-.213 4.927-.575 7.694-.125.954-.23 2.063-.232 2.463-.005.944-.264 2.273-.467 2.4-.087.054-.449.132-.803.172-.842.096-.86.111-.979.85l-.102.63-.49-.01c-.854-.019-.855-.021-.743-2.843l.097-2.482.342-.272c.328-.262.346-.324.439-1.515.221-2.86.18-5.34-.108-6.357-.045-.159.025-.178.458-.13l.51.058.118-.444c.505-1.904.458-2.056-.797-2.574-.505-.208-.962-.433-1.016-.5-.114-.139-.694-1.547-.694-1.684 0-.05 1.096-.107 2.435-.126 1.34-.018 2.685-.045 2.992-.06.553-.026.556-.024.48.29zM30.87 8.757c0 .6-.086.71-.363.46-.26-.236-.267-.475-.02-.747.292-.323.383-.254.383.287zm57.052 1.288c.51.203.62.413.808 1.538.068.41.284 1.647.48 2.75.351 1.986.353 2.014.17 2.868-.101.474-.184 1.39-.184 2.034 0 1.705-.157 1.443-.514-.862-.173-1.119-.567-3.41-.875-5.09-.707-3.863-.717-3.572.115-3.238zm-74.98 21.031c-4.373 1.504-4.64 7.785-.399 9.397 4.677 1.777 8.883-2.824 6.586-7.206-1.061-2.025-3.824-3.003-6.186-2.19zm11.879-.064c-2.95.795-4.56 3.5-3.752 6.309.796 2.769 4.1 4.203 7.567 3.284l.802-.212.246-.626c.497-1.266.405-1.95-.13-.958-1.439 2.673-5.754 2.014-6.939-1.06-.488-1.266-.426-3.316.134-4.42 1.337-2.636 5.639-2.955 6.581-.487.22.576.567.723.468.198a16.806 16.806 0 01-.132-1.078l-.072-.763-.995-.183c-1.212-.222-2.96-.224-3.778-.003zm32.733.096c-.166.146-.34.39-.384.54-.134.454-2.477 6.634-2.818 7.436-.424.996-.673 1.26-1.186 1.26-.288 0-.41.052-.41.173 0 .144.242.172 1.49.172 1.22 0 1.49-.03 1.49-.165 0-.108-.149-.178-.43-.2-.589-.05-.599-.271-.079-1.844.566-1.713.383-1.584 2.21-1.547l1.552.032.499 1.528c.551 1.691.538 1.852-.157 1.852-.267 0-.387.053-.387.172 0 .145.275.172 1.786.172 1.375 0 1.775-.033 1.738-.143-.026-.079-.226-.172-.443-.207-.798-.13-.765-.06-2.565-5.413-.756-2.25-1.427-4.089-1.49-4.087-.063.001-.25.122-.416.269zm76.46-.079a2.41 2.41 0 00-1.569 2.605c.135.896.659 1.507 2.185 2.547 1.923 1.312 2.359 2.152 1.747 3.366-.783 1.553-3.123 1.142-3.985-.7-.367-.781-.503-.721-.418.185.133 1.424.636 1.79 2.484 1.8 2.108.012 3.41-1.252 3.135-3.044-.165-1.078-.707-1.694-2.514-2.856-1.306-.84-1.691-1.314-1.691-2.082 0-1.916 2.674-2.351 3.542-.575.382.78.51.786.496.02-.019-.997-.103-1.157-.681-1.309-.723-.189-2.136-.167-2.731.043zm-132.738.019c-.92.075-1.166.247-.536.376.76.155.738.028.738 4.452 0 4.474.028 4.32-.813 4.458-.236.038-.45.135-.477.215-.038.114.35.139 1.824.114 1.847-.031 2.342-.155 1.391-.349-.682-.139-.722-.261-.722-2.223v-1.752l.288-.072c.852-.214 1.167.032 2.35 1.843.952 1.457 1.476 2.045 2.118 2.376.53.274 1.927.421 2.054.217.047-.076-.001-.129-.118-.129-.679 0-1.785-1.14-3.183-3.281-.898-1.375-.888-1.319-.271-1.682 2.011-1.183 1.753-3.784-.44-4.43-.537-.158-2.96-.234-4.203-.133zm30.052.086c0 .07.218.157.483.193.796.107.778.005.778 4.492 0 4.413.007 4.369-.685 4.51-.212.044-.408.144-.434.222-.037.112.35.136 1.739.112 1.733-.03 2.35-.174 1.406-.328-.784-.127-.818-.223-.86-2.358-.053-2.768.053-2.775 2.394-.148 2.162 2.425 2.217 2.516 1.532 2.516-.172 0-.28.066-.28.172 0 .145.276.172 1.786.172 1.375 0 1.775-.033 1.738-.143-.026-.079-.223-.172-.439-.208-.576-.096-.793-.244-1.62-1.105-1.246-1.295-3.527-3.953-3.527-4.11 0-.144 2.142-2.204 3.037-2.92.55-.442 1.506-.908 1.862-.91.142 0 .258-.065.258-.144 0-.178-3.12-.179-3.18 0-.02.062.119.144.31.183.225.045.349.139.349.265 0 .35-3.6 3.846-3.913 3.801l-.27-.038v-1.815c0-2.024.09-2.253.882-2.253.2 0 .323-.052.298-.128-.06-.18-3.644-.21-3.643-.03zm10.199-.001c0 .07.21.158.467.192.802.108.786.013.79 4.5.004 4.377.012 4.317-.656 4.484-.814.204-.34.323 1.404.354 1.53.027 1.776.007 1.776-.143 0-.119-.113-.175-.351-.175-.522 0-.77-.182-.904-.66-.17-.614-.157-3.497.018-3.672.099-.099.882-.137 2.803-.137 3.225 0 2.946-.21 2.883 2.164-.053 1.943-.126 2.156-.786 2.261-.278.045-.454.135-.454.233 0 .132.316.155 1.776.129 1.724-.03 2.338-.175 1.396-.328-.844-.137-.82-.015-.858-4.205-.042-4.431-.015-4.604.751-4.774.999-.221.524-.35-1.29-.35-1.762 0-2.395.158-1.32.33.636.102.722.332.782 2.086.075 2.176.336 1.996-2.88 1.996-3.203 0-2.943.152-2.934-1.713.008-1.865.119-2.205.767-2.349 1.007-.223.52-.35-1.347-.352-1.29 0-1.833.037-1.833.129zm19.25.016c0 .08.118.143.262.143.374 0 .739.292.996.797.27.53 2.508 6.022 3.107 7.626.236.63.488 1.146.56 1.146.073 0 .329-.516.569-1.146.629-1.653 1.74-4.207 2.692-6.193.875-1.822 1.206-2.23 1.809-2.23.199 0 .32-.053.295-.128-.06-.18-3.07-.209-3.07-.03 0 .071.208.163.462.203.664.106.659.215-.088 2.036-1.12 2.731-2.261 5.367-2.322 5.366-.144-.002-2.896-6.971-2.826-7.155.032-.082.247-.195.478-.25.823-.194.376-.306-1.262-.317-1.258-.008-1.661.024-1.661.132zm10.926-.056c-.03.047.014.108.097.134l.494.151c.62.188.635.3.603 4.58-.034 4.413-.001 4.256-.905 4.379-.265.036-.503.13-.53.208-.037.113.738.144 3.621.144h3.668l.23-.611c.342-.917.423-1.452.22-1.452-.092 0-.228.134-.303.298-.515 1.13-1 1.344-2.922 1.288-1.914-.055-1.906-.045-1.906-2.509v-1.827h1.21c1.438 0 1.612.073 1.782.748.244.97.388.607.388-.977 0-1.585-.144-1.948-.388-.978-.173.686-.36.763-1.76.724l-1.175-.033v-3.896h1.51c1.745 0 2.029.117 2.325.956.292.826.495.618.4-.411-.044-.489-.091-.901-.104-.917-.064-.075-6.51-.074-6.555 0zm8.555.042c0 .07.201.16.448.2.307.049.543.184.751.432l.304.361-.035 3.89-.036 3.89-.27.218a1.12 1.12 0 01-.602.219c-.218 0-.331.059-.331.172 0 .145.26.172 1.661.172 1.4 0 1.662-.027 1.662-.172 0-.123-.125-.172-.437-.172-.571 0-.813-.192-.942-.748-.126-.543-.149-6.818-.025-6.808.047.003.337.314.643.69.306.377 1.71 2 3.12 3.607 1.41 1.607 2.726 3.125 2.926 3.373.2.249.407.425.46.391.055-.033.105-1.978.112-4.322.017-5.097-.011-4.895.703-5.121.94-.297.651-.401-1.117-.401-1.693 0-2.267.17-1.144.338.897.134.909.182.953 3.868.024 2.04-.003 3.185-.075 3.185-.2 0-4.782-5.126-5.766-6.45l-.663-.892-1.15-.025c-.789-.016-1.15.016-1.15.105zm16.157.014c0 .08.13.143.291.143.16 0 .418.127.573.282l.281.281v7.927l-.28.282a.926.926 0 01-.631.28c-.236 0-.349.057-.349.176 0 .208 3.758.206 3.81-.003.016-.063-.126-.129-.315-.146-1.053-.096-1.105-.222-1.063-2.55l.032-1.773 1.203-.03c1.439-.034 1.716.07 1.896.712.256.914.396.616.396-.844 0-.762.003-1.422.008-1.468.034-.331-.25-.063-.354.333-.191.73-.311.781-1.856.781h-1.356l.031-2.034.032-2.034 1.292-.032c1.706-.043 2.432.323 2.432 1.225 0 .137.074.24.172.24.139 0 .172-.182.171-.946v-.945h-3.208c-2.49 0-3.209.032-3.208.143zm8.069-.095c-.138.137-.009.239.303.239.963 0 1.023.262 1.023 4.526 0 4.223-.032 4.378-.903 4.52-.217.035-.417.128-.443.207-.037.11.387.143 1.853.143 1.613 0 1.9-.026 1.9-.172 0-.118-.118-.172-.379-.172-.913 0-.982-.32-.982-4.526 0-4.204.034-4.379.889-4.493.26-.035.472-.121.472-.192 0-.122-3.614-.2-3.733-.08zm5.147.039c-.062.1.082.154.676.253.716.119.718.126.718 4.555 0 4.473.031 4.31-.86 4.436-.257.036-.465.117-.462.18.002.074 1.238.114 3.47.114h3.466l.25-.744c.301-.9.328-1.26.094-1.26-.094 0-.172.068-.172.151 0 .293-.695 1.198-1.024 1.335-.215.089-.801.124-1.656.099-2.04-.06-2.012.002-2.012-4.565 0-4.032.036-4.206.901-4.322.262-.035.46-.114.439-.176-.044-.133-3.747-.187-3.828-.056zm8.784.032c0 .066.234.182.519.259.743.198.771.328.631 2.932-.303 5.637-.388 6.029-1.314 6.029-.185 0-.294.064-.294.172 0 .144.256.172 1.614.172 1.24 0 1.603-.033 1.567-.144-.026-.078-.224-.16-.44-.18-.842-.081-.834-.044-.747-3.515.043-1.702.118-3.3.167-3.552l.09-.459.178.401a144.685 144.685 0 001.7 3.725c.33.693.849 1.827 1.155 2.52.584 1.326.72 1.497.848 1.067.044-.145.912-1.931 1.929-3.968l1.851-3.705.082 3.189c.107 4.165.111 4.14-.699 4.27-.217.036-.417.13-.444.21-.038.116.332.14 1.738.115 1.739-.03 2.343-.176 1.383-.332-.779-.126-.794-.213-.925-5.288-.088-3.457-.001-3.75 1.117-3.75.116 0 .212-.065.212-.144 0-.105-.315-.143-1.193-.143h-1.193l-.067.414c-.074.465-3.445 7.32-3.599 7.32-.262 0-3.459-6.87-3.459-7.433v-.301h-1.204c-.758 0-1.203.044-1.203.12zm-102.817.226c1.716.51 2.934 2.877 2.745 5.333-.367 4.758-5.917 5.216-7.199.594-1.048-3.782 1.274-6.872 4.454-5.927zm-10.735.288c1.363.695 1.542 3.04.303 3.944-.26.19-.536.244-1.404.276l-1.08.04v-2.17c0-1.193.034-2.204.076-2.245.182-.183 1.656-.074 2.105.154zm53.249 2.708c.327.986.568 1.837.535 1.89-.112.181-2.568.119-2.568-.065 0-.129.827-2.475 1.205-3.418.148-.368.229-.212.828 1.593z" fill="#353535"/></svg>