<svg width="112" height="53" fill="none" xmlns="http://www.w3.org/2000/svg"><path d="M38.97 17.63c-.088.084-.234.19-.439.317a4.894 4.894 0 01-.801.38c-.33.127-.733.236-1.208.328a8.749 8.749 0 01-1.637.137c-1.186 0-2.21-.183-3.074-.55-.864-.366-1.578-.877-2.142-1.532a6.195 6.195 0 01-1.24-2.324c-.264-.895-.396-1.877-.396-2.948 0-1.07.143-2.06.428-2.969.286-.909.714-1.694 1.285-2.356a5.889 5.889 0 012.142-1.554c.856-.373 1.863-.56 3.02-.56a7.472 7.472 0 012.756.498c.343.133.63.274.856.422.227.148.399.271.516.37.132.113.245.246.34.401a.953.953 0 01.144.507c0 .282-.11.564-.33.846-.22.281-.461.542-.725.781a8.813 8.813 0 00-.593-.517 4.03 4.03 0 00-.735-.465 4.998 4.998 0 00-.923-.338 4.488 4.488 0 00-1.153-.138c-.747 0-1.372.145-1.878.434a3.546 3.546 0 00-1.218 1.13 4.693 4.693 0 00-.66 1.596 8.92 8.92 0 000 3.73c.132.605.36 1.14.681 1.605a3.58 3.58 0 001.263 1.12c.52.282 1.168.423 1.944.423.41 0 .787-.05 1.131-.148a4.633 4.633 0 001.603-.803c.198-.155.362-.288.494-.401.088.098.19.218.308.359.118.142.228.29.33.444.102.155.19.31.263.464.073.156.11.296.11.423a.917.917 0 01-.11.465c-.074.127-.19.268-.352.423zm11.318-1.621c0 1.12.17 1.935.509 2.445a3.912 3.912 0 01-1.458.276c-.53 0-.932-.1-1.205-.297-.273-.199-.446-.482-.519-.85-.324.326-.751.602-1.282.829-.53.226-1.178.34-1.944.34-.398 0-.795-.054-1.193-.16a3.185 3.185 0 01-1.083-.518 2.714 2.714 0 01-.795-.965c-.206-.403-.31-.893-.31-1.472 0-.721.18-1.308.542-1.76a3.83 3.83 0 011.359-1.07 6.332 6.332 0 011.767-.54 17.454 17.454 0 012.265-.212h.475v-.387c0-.545-.151-.932-.453-1.161-.302-.23-.792-.344-1.47-.344-.633 0-1.196.1-1.69.297-.493.2-.975.426-1.447.68a3.094 3.094 0 01-.497-.796c-.125-.29-.188-.507-.188-.649 0-.198.114-.39.343-.574.228-.184.541-.35.939-.5a7.893 7.893 0 011.37-.36 9.292 9.292 0 011.635-.14c.795 0 1.47.079 2.022.235.552.156 1.001.397 1.347.723.346.326.593.733.74 1.222.148.489.221 1.06.221 1.711v3.997zm-2.828-2.466h-.309c-.103 0-.207.007-.31.021-.368.029-.732.071-1.093.128a3.226 3.226 0 00-.961.297 2.01 2.01 0 00-.685.553c-.177.227-.265.518-.265.872 0 .397.117.733.353 1.01.236.276.633.414 1.193.414a2.894 2.894 0 001.459-.382c.19-.114.342-.238.453-.373.11-.134.165-.258.165-.371v-2.17zm8.33-4.188c.234-.27.602-.542 1.1-.819.5-.276 1.131-.414 1.895-.414.544 0 1.061.088 1.553.266a3.41 3.41 0 011.31.86c.382.398.687.922.915 1.574.227.652.341 1.453.341 2.402 0 1.105-.132 2.016-.396 2.732-.265.716-.606 1.283-1.024 1.7a3.544 3.544 0 01-1.399.883 4.883 4.883 0 01-1.542.255 3.99 3.99 0 01-1.112-.138 4.55 4.55 0 01-.804-.308 2.134 2.134 0 01-.727-.575V23h-3.005V8.42a5.551 5.551 0 01.58-.075 7.32 7.32 0 01.422-.01c.49 0 .905.077 1.247.233.341.156.556.418.646.787zm3.977 3.933a6.11 6.11 0 00-.11-1.19 2.827 2.827 0 00-.363-.957 1.736 1.736 0 00-.68-.628c-.287-.148-.634-.223-1.044-.223-.615 0-1.044.114-1.285.34-.242.227-.363.475-.363.744v4.508c.117.113.326.248.626.403.3.157.648.234 1.044.234.747 0 1.296-.283 1.647-.85.352-.567.528-1.36.528-2.381zm5.456 3.657a3.575 3.575 0 01-.199-.893 9.884 9.884 0 01-.044-.936V5.252l.332-.043a4.903 4.903 0 01.684-.042c.236 0 .472.021.708.064.235.042.449.127.64.255.192.127.346.301.464.52.118.22.177.507.177.861v1.51h3.093v2.147h-3.093v4.534c0 .988.42 1.483 1.26 1.483.206 0 .4-.032.585-.096a3.55 3.55 0 00.497-.213 3.087 3.087 0 00.618-.436c.222.313.39.583.509.81.118.229.177.443.177.643 0 .186-.078.369-.232.547a2.274 2.274 0 01-.652.494c-.28.15-.619.271-1.016.365a5.73 5.73 0 01-1.304.14c-.914 0-1.624-.171-2.132-.511a2.73 2.73 0 01-1.072-1.34zm13.466-.277a3.659 3.659 0 002.306-.776 33.4 33.4 0 00.443-.372c.177.213.362.486.554.819.192.333.289.606.289.818 0 .312-.185.595-.553.85-.309.227-.747.422-1.314.585-.567.163-1.234.245-2 .245a8.273 8.273 0 01-2.044-.256 4.584 4.584 0 01-1.79-.893c-.522-.424-.946-.995-1.27-1.71-.324-.716-.486-1.62-.486-2.711 0-.893.144-1.662.43-2.307a4.636 4.636 0 011.15-1.605 4.569 4.569 0 011.624-.936 5.914 5.914 0 011.856-.297c.825 0 1.524.124 2.099.372.574.248 1.042.581 1.403 1 .36.417.622.896.784 1.434.162.539.243 1.106.243 1.7v.298c0 .114-.004.234-.01.362l-.023.372c-.007.12-.019.216-.033.287H75.83c.06.78.31 1.428.754 1.945.443.518 1.145.776 2.106.776zm1.007-4.316c0-.68-.138-1.233-.412-1.658-.274-.425-.767-.638-1.477-.638-.608 0-1.093.202-1.456.606-.363.404-.544.968-.544 1.69h3.888zm7.946-2.943c.089-.127.206-.267.354-.422.147-.155.328-.296.541-.422.213-.127.45-.232.707-.317a2.66 2.66 0 01.829-.126c.177 0 .364.014.563.042.199.028.383.081.552.158.17.078.306.183.41.316a.788.788 0 01.154.496c0 .309-.081.664-.243 1.065a8.534 8.534 0 01-.486 1.027 3.295 3.295 0 00-.751-.457 2.253 2.253 0 00-.884-.16c-.457 0-.84.128-1.149.384-.31.256-.464.561-.464.917v6.882H84.77V8.419a5.494 5.494 0 01.575-.074c.117-.007.257-.01.42-.01.47 0 .88.087 1.225.263.346.175.564.446.652.81zm8.544 0c.088-.127.206-.267.353-.422.147-.155.328-.296.541-.422.214-.127.45-.232.707-.317a2.66 2.66 0 01.829-.126c.177 0 .364.014.563.042.199.028.383.081.553.158.169.078.305.183.409.316a.793.793 0 01.154.496c0 .309-.081.664-.243 1.065a8.55 8.55 0 01-.486 1.027 3.292 3.292 0 00-.751-.457 2.252 2.252 0 00-.884-.16c-.457 0-.84.128-1.149.384-.31.256-.464.561-.464.917v6.882h-3.005V8.419a5.486 5.486 0 01.575-.074c.117-.007.257-.01.42-.01.47 0 .88.087 1.226.263.346.175.563.446.651.81zm14.339 6.6c0 1.12.169 1.935.508 2.445a3.91 3.91 0 01-1.458.276c-.53 0-.932-.1-1.204-.297-.273-.199-.446-.482-.519-.85-.324.326-.752.602-1.282.829-.53.226-1.179.34-1.944.34a4.61 4.61 0 01-1.193-.16 3.184 3.184 0 01-1.083-.518 2.714 2.714 0 01-.795-.965c-.207-.403-.31-.893-.31-1.472 0-.721.18-1.308.542-1.76.36-.452.813-.808 1.359-1.07a6.315 6.315 0 011.767-.54 17.433 17.433 0 011.746-.19c.176-.015.349-.022.519-.022h.475v-.387c0-.545-.151-.932-.453-1.161-.302-.23-.792-.344-1.47-.344-.633 0-1.196.1-1.69.297a14.12 14.12 0 00-1.447.68 3.11 3.11 0 01-.497-.796c-.125-.29-.188-.507-.188-.649 0-.198.114-.39.343-.574.228-.184.541-.35.939-.5a7.88 7.88 0 011.369-.36 9.306 9.306 0 011.636-.14c.795 0 1.469.079 2.021.235.552.156 1.002.397 1.348.723.346.326.593.733.74 1.222.147.489.221 1.06.221 1.711v3.997zm-2.828-2.466h-.309c-.104 0-.207.007-.31.021a14.05 14.05 0 00-1.093.128 3.23 3.23 0 00-.962.297 1.997 1.997 0 00-.684.553c-.177.227-.266.518-.266.872 0 .397.118.733.354 1.01.235.276.633.414 1.193.414a2.898 2.898 0 001.458-.382c.191-.114.343-.238.453-.373.111-.134.166-.258.166-.371v-2.17z" fill="#044D80"/><path d="M0 8.456l9.397.002 5.714.001V2.713L0 8.456z" fill="#FF9D28"/><path d="M15.111 2.713V23l7.137-23-7.137 2.713z" fill="#68C5ED"/><path d="M15.11 8.459l-5.714-.001L15.11 23V8.459z" fill="#044D80"/><path d="M0 8.456l10.862 3.733-1.465-3.731L0 8.456z" fill="#E54747"/><path d="M6.357 52.696a.798.798 0 01-.777-.975l.965-4.25-3.272-2.87a.797.797 0 01.452-1.396l4.33-.393 1.712-4.006a.797.797 0 011.466 0l1.712 4.006 4.33.393a.796.796 0 01.453 1.395l-3.273 2.87.965 4.25a.797.797 0 01-1.186.862L10.5 50.35l-3.734 2.232a.8.8 0 01-.409.113zm16 0a.798.798 0 01-.777-.975l.966-4.25-3.273-2.87a.797.797 0 01.452-1.396l4.33-.393 1.712-4.006a.797.797 0 011.466 0l1.712 4.006 4.33.393a.796.796 0 01.453 1.395l-3.273 2.87.965 4.25a.797.797 0 01-1.186.862L26.5 50.35l-3.734 2.232a.8.8 0 01-.409.113zm16 0a.798.798 0 01-.777-.975l.965-4.25-3.272-2.87a.797.797 0 01.452-1.396l4.33-.393 1.712-4.006a.797.797 0 011.466 0l1.712 4.006 4.33.393a.796.796 0 01.453 1.395l-3.273 2.87.965 4.25a.797.797 0 01-1.186.862L42.5 50.35l-3.734 2.232a.8.8 0 01-.409.113zm16 0a.798.798 0 01-.777-.975l.965-4.25-3.272-2.87a.797.797 0 01.452-1.396l4.33-.393 1.712-4.006a.797.797 0 011.466 0l1.712 4.006 4.33.393a.796.796 0 01.453 1.395l-3.273 2.87.965 4.25a.797.797 0 01-1.186.862L58.5 50.35l-3.734 2.232a.8.8 0 01-.409.113zm16 0a.798.798 0 01-.777-.975l.966-4.25-3.273-2.87a.797.797 0 01.452-1.396l4.33-.393 1.712-4.006a.797.797 0 011.466 0l1.712 4.006 4.33.393a.796.796 0 01.453 1.395l-3.273 2.87.965 4.25a.797.797 0 01-1.186.862L74.5 50.35l-3.734 2.232a.8.8 0 01-.409.113zM74.5 49.39c.142 0 .282.038.409.113l3.524 2.108-.911-4.012a.797.797 0 01.252-.777l3.09-2.71-4.088-.371a.796.796 0 01-.662-.483L74.5 39.476v9.913z" fill="#FF9D29"/></svg>