<svg width="94" height="56" fill="none" xmlns="http://www.w3.org/2000/svg"><path d="M24.122 7.972h-4.144c.112-.633.513-.988 1.326-1.39l.765-.378c1.364-.682 2.09-1.45 2.09-2.706 0-.793-.312-1.414-.938-1.865-.613-.451-1.364-.67-2.229-.67-.689 0-1.315.171-1.89.524-.564.342-.99.78-1.253 1.328l1.202 1.171c.463-.914 1.14-1.365 2.029-1.365.751 0 1.214.378 1.214.902 0 .438-.226.804-1.089 1.231l-.488.231c-1.064.524-1.803 1.121-2.229 1.805-.426.67-.639 1.535-.639 2.572v.28h6.273v-1.67zm-.554 3.598h-6.862l-3.431 5.786h6.862l3.431 5.785L27 17.356l-3.432-5.786z" fill="#FF492C"/><path d="M13.866 21.213c-4.37 0-7.924-3.46-7.924-7.714 0-4.253 3.555-7.714 7.924-7.714L16.579.258A14.261 14.261 0 0013.866 0C6.208-.002 0 6.042 0 13.499c0 7.457 6.208 13.5 13.867 13.5 3.053 0 5.875-.96 8.166-2.589l-3.003-5.065a8.021 8.021 0 01-5.164 1.868z" fill="#FF492C"/><path d="M39.172 10.077c-.257.335-.614.589-1.07.761-.455.173-.973.26-1.552.26-.596 0-1.123-.136-1.582-.406a2.718 2.718 0 01-1.065-1.157c-.247-.505-.376-1.092-.385-1.763v-.557c0-1.074.257-1.912.771-2.514.514-.606 1.232-.909 2.153-.909.791 0 1.42.196 1.885.586.466.391.746.954.84 1.69h-1.21c-.138-.856-.634-1.284-1.49-1.284-.554 0-.975.2-1.265.6-.286.397-.434.982-.444 1.753v.547c0 .768.16 1.366.483 1.792.326.423.777.635 1.353.635.631 0 1.08-.143 1.347-.43V8.29h-1.464v-.938h2.695v2.725zm5.947.922h-4.78v-.815l2.368-2.583c.342-.38.584-.698.728-.952.146-.257.22-.514.22-.772 0-.338-.097-.612-.289-.82-.189-.208-.444-.312-.766-.312-.385 0-.682.117-.894.351-.212.235-.317.555-.317.962h-1.187c0-.433.098-.822.293-1.167a2.05 2.05 0 01.845-.81 2.704 2.704 0 011.27-.289c.69 0 1.233.175 1.63.523.4.345.6.824.6 1.435 0 .355-.1.728-.302 1.119-.198.387-.526.828-.981 1.323l-1.739 1.86h3.301V11zm5.186-7.109l2.05 5.45 2.046-5.45h1.597V11h-1.23V8.655l.122-3.135-2.1 5.478h-.884l-2.094-5.473.122 3.13v2.343h-1.23V3.89h1.6zm10.2 7.11a1.828 1.828 0 01-.137-.494c-.377.394-.84.591-1.387.591-.53 0-.963-.151-1.298-.454a1.453 1.453 0 01-.503-1.123c0-.563.208-.994.625-1.294.42-.303 1.019-.454 1.797-.454h.727v-.347c0-.273-.076-.491-.23-.654-.152-.166-.385-.249-.698-.249-.27 0-.491.068-.664.205a.62.62 0 00-.259.513h-1.186c0-.29.096-.56.288-.81.192-.255.453-.453.781-.596a2.77 2.77 0 011.109-.215c.618 0 1.111.156 1.48.468.367.31.556.746.566 1.309v2.383c0 .475.066.854.2 1.137V11h-1.211zm-1.304-.855c.234 0 .454-.057.66-.17.208-.115.364-.268.468-.46V8.52h-.64c-.439 0-.77.077-.99.23a.744.744 0 00-.333.649c0 .228.075.41.225.547.153.133.356.2.61.2zM65.524 6.8a2.936 2.936 0 00-.483-.039c-.544 0-.91.209-1.099.625V11h-1.186V5.716h1.133l.029.591c.286-.459.684-.688 1.191-.688.17 0 .31.022.42.068L65.524 6.8zm2.466 1.934l-.527.542v1.723h-1.187V3.5h1.187v4.327l.371-.464 1.46-1.646h1.426l-1.963 2.202L70.93 11h-1.372L67.99 8.734zm5.738 2.363c-.752 0-1.363-.236-1.831-.708-.466-.475-.699-1.107-.699-1.894v-.147c0-.527.101-.998.303-1.411a2.34 2.34 0 01.86-.972 2.265 2.265 0 011.23-.346c.72 0 1.274.23 1.665.688.394.46.59 1.109.59 1.948v.479h-3.452c.036.436.181.781.435 1.035.257.254.58.38.967.38.543 0 .986-.219 1.328-.658l.64.61a2.151 2.151 0 01-.85.737 2.658 2.658 0 01-1.186.26zm-.142-4.526c-.326 0-.59.114-.791.342-.199.227-.326.545-.38.952h2.26v-.088c-.026-.397-.132-.697-.318-.899-.185-.205-.442-.307-.771-.307zm4.673-2.139v1.284h.932v.88h-.932v2.948c0 .202.039.349.117.44.081.088.225.132.43.132.136 0 .275-.017.415-.05v.919c-.27.075-.53.112-.782.112-.911 0-1.367-.503-1.367-1.509V6.595h-.869v-.879h.87V4.432h1.186zM81.364 11h-1.186V5.716h1.186V11zm-1.26-6.655a.64.64 0 01.171-.454c.118-.12.284-.18.498-.18.215 0 .381.06.499.18.117.12.175.272.175.454a.619.619 0 01-.175.45c-.118.117-.284.175-.499.175-.214 0-.38-.058-.498-.176a.629.629 0 01-.17-.449zm3.658 1.372l.034.61c.39-.471.903-.707 1.538-.707 1.1 0 1.66.63 1.68 1.89V11h-1.187V7.577c0-.336-.073-.583-.22-.743-.143-.162-.379-.244-.708-.244-.478 0-.835.217-1.069.65V11h-1.186V5.715h1.118zm4.257 2.603c0-.82.193-1.475.577-1.963.387-.492.9-.737 1.538-.737.602 0 1.076.21 1.42.63l.054-.533h1.07v5.122c0 .694-.217 1.24-.65 1.641-.43.4-1.01.6-1.743.6-.387 0-.766-.08-1.138-.244-.367-.16-.647-.369-.84-.63l.562-.712c.365.433.814.65 1.348.65.394 0 .704-.108.932-.323.228-.212.342-.524.342-.938v-.356c-.342.38-.797.571-1.367.571-.618 0-1.125-.246-1.518-.737-.391-.492-.587-1.172-.587-2.041zm1.182.102c0 .531.108.95.322 1.255.219.303.52.454.904.454.478 0 .833-.205 1.064-.615V7.191c-.224-.4-.576-.6-1.055-.6-.39 0-.695.154-.913.463-.214.31-.322.765-.322 1.367zM37.44 21.17c0-.313-.111-.554-.333-.723-.218-.17-.613-.34-1.186-.513-.573-.172-1.029-.364-1.367-.576-.648-.407-.972-.938-.972-1.592 0-.573.233-1.045.698-1.416.469-.371 1.076-.556 1.822-.556.494 0 .935.09 1.323.273.387.182.692.443.913.781.221.335.332.708.332 1.118h-1.23c0-.37-.118-.66-.352-.869-.231-.211-.563-.317-.996-.317-.404 0-.718.086-.943.259-.22.172-.332.413-.332.722 0 .26.12.479.362.655.24.172.638.341 1.191.507.553.163.998.35 1.333.562.335.208.581.45.738.722.156.27.234.588.234.953 0 .592-.228 1.064-.684 1.416-.452.348-1.068.522-1.846.522a3.51 3.51 0 01-1.42-.283 2.422 2.422 0 01-1.006-.791 1.974 1.974 0 01-.357-1.172h1.236c0 .404.133.716.4.938.267.22.65.332 1.148.332.43 0 .752-.087.966-.26a.847.847 0 00.328-.692zm1.982-.86a3.1 3.1 0 01.307-1.396c.206-.417.494-.736.865-.957a2.422 2.422 0 011.28-.337c.712 0 1.29.23 1.733.688.445.46.686 1.068.722 1.826l.005.279c0 .52-.1.986-.303 1.396a2.2 2.2 0 01-.86.952c-.37.225-.8.337-1.288.337-.746 0-1.343-.247-1.792-.742-.446-.498-.67-1.16-.67-1.987v-.059zm1.186.103c0 .543.113.97.337 1.279.225.306.537.459.938.459.4 0 .711-.156.933-.469.224-.312.336-.77.336-1.372 0-.534-.115-.957-.346-1.27a1.093 1.093 0 00-.933-.468c-.387 0-.695.154-.923.464-.228.306-.342.765-.342 1.377zM46.6 23h-1.187v-7.5H46.6V23zm4.497-.518c-.349.41-.843.615-1.485.615-.573 0-1.007-.168-1.303-.503-.293-.335-.44-.82-.44-1.455v-3.423h1.187v3.409c0 .67.278 1.005.835 1.005.576 0 .965-.206 1.167-.62v-3.794h1.186V23h-1.118l-.03-.518zm3.843-6.05v1.284h.932v.88h-.933v2.948c0 .202.04.349.118.44.081.088.224.132.43.132.136 0 .274-.017.414-.05v.919a2.91 2.91 0 01-.78.112c-.912 0-1.368-.503-1.368-1.509v-2.993h-.87v-.879h.87v-1.284h1.186zM58.043 23h-1.187v-5.284h1.187V23zm-1.26-6.656c0-.182.057-.333.171-.454.117-.12.283-.18.498-.18.215 0 .381.06.498.18.117.12.176.272.176.454a.62.62 0 01-.176.45c-.117.117-.283.175-.498.175-.215 0-.38-.058-.498-.175a.628.628 0 01-.17-.45zm2.334 3.965a3.1 3.1 0 01.308-1.396c.205-.417.493-.736.864-.957a2.422 2.422 0 011.28-.337c.712 0 1.29.23 1.733.688.446.46.687 1.068.722 1.826l.005.279c0 .52-.1.986-.303 1.396a2.2 2.2 0 01-.859.952c-.37.225-.8.337-1.289.337-.745 0-1.343-.247-1.792-.742-.446-.498-.669-1.16-.669-1.987v-.059zm1.187.103c0 .543.112.97.337 1.279.224.306.537.459.937.459s.711-.156.933-.469c.224-.312.337-.77.337-1.372 0-.534-.116-.957-.347-1.27a1.093 1.093 0 00-.933-.468c-.387 0-.695.154-.922.464-.228.306-.342.765-.342 1.377zm5.83-2.696l.034.61c.39-.471.903-.707 1.538-.707 1.1 0 1.66.63 1.68 1.89v3.49H68.2v-3.422c0-.336-.073-.583-.22-.743-.143-.162-.379-.244-.708-.244-.478 0-.835.217-1.069.65V23h-1.186v-5.284h1.118zm7.426 3.848a.537.537 0 00-.263-.483c-.173-.111-.46-.209-.864-.293a4.451 4.451 0 01-1.011-.323c-.593-.286-.889-.701-.889-1.245 0-.455.192-.836.576-1.142.385-.306.873-.46 1.465-.46.632 0 1.141.157 1.528.47.391.312.587.717.587 1.215h-1.187a.724.724 0 00-.254-.566c-.17-.153-.394-.23-.674-.23-.26 0-.473.06-.64.181a.571.571 0 00-.244.483.48.48 0 00.23.425c.153.101.462.204.928.308.465.1.83.223 1.093.366.267.14.464.31.591.508.13.198.195.44.195.723 0 .475-.196.86-.59 1.157-.394.293-.91.44-1.548.44-.433 0-.819-.079-1.157-.235a1.905 1.905 0 01-.791-.645 1.526 1.526 0 01-.284-.884h1.153c.016.28.122.497.317.65.195.15.454.224.776.224.313 0 .55-.058.713-.175a.558.558 0 00.245-.469z" fill="#75787B"/><path d="M3.357 55.696a.798.798 0 01-.777-.975l.965-4.25L.273 47.6a.797.797 0 01.452-1.396l4.33-.393 1.712-4.006a.797.797 0 011.466 0l1.712 4.006 4.33.393a.796.796 0 01.453 1.395l-3.273 2.87.965 4.25a.797.797 0 01-1.186.862L7.5 53.35l-3.734 2.232a.8.8 0 01-.409.113zm16 0a.798.798 0 01-.777-.975l.966-4.25-3.273-2.87a.797.797 0 01.452-1.396l4.33-.393 1.712-4.006a.797.797 0 011.466 0l1.712 4.006 4.33.393a.796.796 0 01.453 1.395l-3.273 2.87.965 4.25a.797.797 0 01-1.186.862L23.5 53.35l-3.734 2.232a.8.8 0 01-.409.113zm16 0a.798.798 0 01-.777-.975l.965-4.25-3.272-2.87a.797.797 0 01.452-1.396l4.33-.393 1.712-4.006a.797.797 0 011.466 0l1.712 4.006 4.33.393a.796.796 0 01.453 1.395l-3.273 2.87.965 4.25a.797.797 0 01-1.186.862L39.5 53.35l-3.734 2.232a.8.8 0 01-.409.113zm16 0a.798.798 0 01-.777-.975l.965-4.25-3.272-2.87a.797.797 0 01.452-1.396l4.33-.393 1.712-4.006a.797.797 0 011.466 0l1.712 4.006 4.33.393a.796.796 0 01.453 1.395l-3.273 2.87.965 4.25a.797.797 0 01-1.186.862L55.5 53.35l-3.734 2.232a.8.8 0 01-.409.113zm16 0a.798.798 0 01-.777-.975l.966-4.25-3.273-2.87a.797.797 0 01.452-1.396l4.33-.393 1.712-4.006a.797.797 0 011.466 0l1.712 4.006 4.33.393a.796.796 0 01.453 1.395l-3.273 2.87.965 4.25a.797.797 0 01-1.186.862L71.5 53.35l-3.734 2.232a.8.8 0 01-.409.113zM71.5 52.39c.142 0 .282.038.409.113l3.524 2.108-.911-4.012a.797.797 0 01.252-.777l3.09-2.71-4.088-.371a.796.796 0 01-.662-.483L71.5 42.476v9.913z" fill="#FF492C"/></svg>