<svg width="137" height="57" fill="none" xmlns="http://www.w3.org/2000/svg"><path fill-rule="evenodd" clip-rule="evenodd" d="M2 0a2 2 0 00-2 2v26a2 2 0 002 2h31a2 2 0 002-2V2a2 2 0 00-2-2H2zm10.857 4h9.282C23.166 4 24 4.67 24 5.5S23.17 7 22.143 7h-9.286C11.83 7 11 6.33 11 5.5S11.83 4 12.857 4z" fill="#000" fill-opacity=".05"/><path d="M47.12 24.761c-1.225 0-2.25-.414-3.076-1.242-.829-.83-1.243-1.862-1.243-3.101 0-1.24.414-2.273 1.243-3.101.828-.829 1.855-1.243 3.075-1.243 1.256 0 2.273.452 3.054 1.359l-.744.719c-.565-.703-1.334-1.058-2.31-1.058-.907 0-1.67.304-2.294.916-.624.612-.935 1.413-.935 2.404 0 .992.31 1.793.935 2.405.622.612 1.387.916 2.294.916.998 0 1.852-.402 2.555-1.208l.744.744a4.05 4.05 0 01-1.428 1.085 4.336 4.336 0 01-1.87.405zm5.32-8.499v2.624l-.048.79h.047c.154-.269.399-.501.731-.69a2.132 2.132 0 011.068-.285c.703 0 1.242.216 1.613.65.37.433.559 1.013.559 1.741v3.484h-1.068v-3.32c0-1.052-.467-1.58-1.406-1.58-.442 0-.8.177-1.08.528a1.91 1.91 0 00-.417 1.224v3.148h-1.067v-8.314h1.067zm5.225 8.314v-5.69h1.023v.929h.047c.11-.31.33-.565.669-.766.335-.2.662-.301.982-.301.317 0 .584.047.8.138l-.408.998a1.625 1.625 0 00-.568-.082c-.386 0-.731.154-1.026.459-.298.304-.446.706-.446 1.202v3.113h-1.073zm4.365-5.012c.55-.578 1.25-.866 2.103-.866.854 0 1.554.288 2.103.866.55.577.826 1.3.826 2.166 0 .866-.277 1.588-.826 2.165-.549.578-1.249.866-2.103.866-.853 0-1.553-.288-2.102-.866-.55-.577-.826-1.3-.826-2.165 0-.867.276-1.589.826-2.166zm.795 3.66c.367.376.803.561 1.305.561.502 0 .939-.188 1.306-.561.367-.377.552-.873.552-1.491 0-.619-.185-1.118-.552-1.491a1.761 1.761 0 00-1.306-.562c-.502 0-.938.188-1.305.562-.368.373-.553.872-.553 1.49.003.619.185 1.115.553 1.492zm5.093 1.352v-5.69h1.024v.79h.047c.163-.269.41-.501.75-.69a2.047 2.047 0 011.004-.285c.882 0 1.482.364 1.799 1.092.464-.728 1.126-1.092 1.986-1.092.675 0 1.18.213 1.522.643.343.43.512 1.014.512 1.748v3.484h-1.067v-3.32c0-.575-.104-.98-.314-1.218-.21-.239-.527-.361-.951-.361-.417 0-.766.179-1.039.534a1.93 1.93 0 00-.411 1.217v3.148h-1.067v-3.32c0-.575-.104-.98-.314-1.218-.21-.239-.527-.361-.95-.361-.418 0-.767.179-1.04.534a1.93 1.93 0 00-.41 1.217v3.148h-1.08zm12.473.185c-.86 0-1.557-.285-2.097-.86-.536-.57-.806-1.296-.806-2.171 0-.829.26-1.541.784-2.138.525-.596 1.19-.894 2.003-.894.844 0 1.519.276 2.027.825.509.55.76 1.284.76 2.207l-.013.197h-4.494c.031.575.223 1.027.574 1.36.352.332.766.498 1.237.498.766 0 1.284-.326 1.557-.976l.95.396c-.185.442-.492.81-.916 1.108-.427.3-.948.448-1.566.448zm1.532-3.716c-.022-.326-.173-.634-.446-.929-.276-.295-.684-.442-1.224-.442-.396 0-.738.125-1.026.37-.29.245-.49.58-.6.998h3.296v.003zm14.076-4.783l-2.22 8.314h-1.091l-1.79-5.48h-.046l-1.79 5.48h-1.091l-2.31-8.314h1.114l1.754 6.538h.047l1.802-5.424h.998l1.801 5.424h.047l1.66-6.538H96zm2.774 8.499c-.86 0-1.556-.285-2.096-.86-.537-.57-.807-1.296-.807-2.171 0-.829.26-1.541.785-2.138.524-.596 1.19-.894 2.002-.894.844 0 1.519.276 2.028.825.508.55.759 1.284.759 2.207l-.012.197h-4.495c.032.575.223 1.027.575 1.36.351.332.766.498 1.236.498.766 0 1.284-.326 1.557-.976l.951.396a2.55 2.55 0 01-.917 1.108c-.423.3-.947.448-1.566.448zm1.532-3.716c-.022-.326-.173-.634-.446-.929-.276-.295-.684-.442-1.224-.442-.395 0-.737.125-1.026.37-.289.245-.49.58-.6.998h3.296v.003zm5.122 3.716a2.43 2.43 0 01-1.167-.279c-.346-.185-.603-.417-.773-.697h-.047v.791h-1.023v-8.314h1.067v2.624l-.047.79h.047c.17-.278.427-.51.772-.696.346-.185.735-.28 1.168-.28.734 0 1.371.29 1.905.87.534.58.8 1.3.8 2.16 0 .86-.266 1.578-.8 2.159-.53.584-1.168.872-1.902.872zm-.176-.976c.496 0 .923-.188 1.278-.561.354-.374.533-.873.533-1.491 0-.619-.179-1.118-.533-1.491a1.704 1.704 0 00-1.278-.562c-.502 0-.932.185-1.283.559-.352.37-.528.87-.528 1.497 0 .627.176 1.127.528 1.497.354.367.781.552 1.283.552zm8.594.976c-.603 0-1.193-.197-1.771-.593-.577-.395-.954-.948-1.133-1.66l.977-.396c.116.459.354.842.715 1.155.361.314.766.471 1.215.471.464 0 .86-.122 1.189-.367.33-.245.493-.574.493-.992 0-.464-.163-.822-.493-1.073-.329-.251-.85-.487-1.563-.703-.734-.232-1.293-.534-1.673-.9-.379-.368-.568-.839-.568-1.413 0-.597.236-1.114.71-1.557.47-.442 1.086-.662 1.845-.662.703 0 1.277.175 1.72.527.443.352.728.738.86 1.155l-.976.405c-.069-.264-.242-.509-.518-.731-.276-.223-.628-.336-1.061-.336-.411 0-.759.113-1.051.342-.292.229-.436.512-.436.854 0 .31.134.57.401.784.267.214.659.405 1.18.575.411.131.754.26 1.027.383.276.122.552.288.834.492.283.204.496.462.641.766.144.304.213.66.213 1.06 0 .403-.085.763-.251 1.08a2.041 2.041 0 01-.662.757 3.348 3.348 0 01-.888.424 3.04 3.04 0 01-.976.153zm6.063-.094c-.596 0-1.051-.157-1.365-.477-.314-.32-.471-.766-.471-1.346v-2.985h-.998v-.976h.998V17.14h1.067v1.742h1.394v.976h-1.394v2.903c0 .618.255.93.766.93.195 0 .355-.032.487-.095l.37.916c-.226.104-.515.154-.854.154zm2.09-5.103c.55-.578 1.25-.866 2.103-.866.851 0 1.554.288 2.103.866.549.577.826 1.3.826 2.166 0 .866-.277 1.588-.826 2.165-.549.578-1.249.866-2.103.866-.85 0-1.553-.288-2.103-.866-.549-.577-.825-1.3-.825-2.165 0-.867.276-1.589.825-2.166zm.795 3.66a1.76 1.76 0 001.305.561c.502 0 .939-.188 1.306-.561.367-.377.552-.873.552-1.491 0-.619-.185-1.118-.552-1.491a1.762 1.762 0 00-1.306-.562c-.502 0-.938.188-1.305.562-.368.373-.553.872-.553 1.49.003.619.185 1.115.553 1.492zm5.093 1.352v-5.69h1.024v.929h.047c.109-.31.329-.565.668-.766.336-.2.665-.301.982-.301.317 0 .584.047.801.138l-.405.998a1.626 1.626 0 00-.568-.082c-.386 0-.731.154-1.026.459-.299.304-.446.706-.446 1.202v3.113h-1.077zm6.444.185c-.86 0-1.557-.285-2.097-.86-.536-.57-.806-1.296-.806-2.171 0-.829.26-1.541.784-2.138.524-.596 1.19-.894 2.003-.894.844 0 1.519.276 2.027.825.509.55.76 1.284.76 2.207l-.013.197h-4.494c.031.575.223 1.027.574 1.36.352.332.766.498 1.237.498.765 0 1.283-.326 1.556-.976l.951.396c-.185.442-.492.81-.916 1.108-.424.3-.948.448-1.566.448zm1.531-3.716c-.022-.326-.172-.634-.445-.929-.276-.295-.684-.442-1.224-.442a1.54 1.54 0 00-1.027.37c-.288.245-.489.58-.599.998h3.295v.003zm-92.442-9.378l2.372-6.292h.914l2.372 6.292h-.897l-.606-1.704h-2.646l-.615 1.704h-.894zm1.782-2.46h2.09L46.263 6.37h-.035l-1.026 2.837zm5.317 2.46l-1.739-4.306h.879l1.265 3.34h.019l1.283-3.34h.86l-1.757 4.306h-.81zm4.369.142c-.459 0-.838-.132-1.146-.396-.307-.263-.461-.612-.461-1.045 0-.468.182-.838.546-1.102.364-.266.81-.398 1.343-.398.474 0 .863.088 1.168.264v-.123a.963.963 0 00-.327-.76 1.164 1.164 0 00-.8-.285 1.25 1.25 0 00-.637.166.871.871 0 00-.392.459l-.738-.317c.1-.258.295-.496.59-.716.292-.22.681-.33 1.161-.33.55 0 1.008.16 1.372.484.364.323.546.775.546 1.362v2.602h-.772v-.597h-.035c-.326.484-.8.732-1.418.732zm.132-.741c.332 0 .637-.126.91-.373.273-.248.408-.543.408-.882-.23-.189-.572-.283-1.03-.283-.392 0-.687.085-.888.254-.198.17-.298.37-.298.597 0 .21.091.376.273.502.182.125.39.185.625.185zM58.9 6.279a.552.552 0 01-.404.166.557.557 0 01-.405-.166.552.552 0 01-.166-.405c0-.16.056-.292.166-.405a.552.552 0 01.405-.167c.16 0 .292.057.405.167.11.113.166.245.166.405a.54.54 0 01-.166.405zm0 5.388h-.809V7.361h.81v4.306zm1.865 0h-.81V5.375h.81v6.292zm2.301.142c-.459 0-.838-.132-1.146-.396-.307-.263-.461-.612-.461-1.045 0-.468.182-.838.546-1.102.364-.266.81-.398 1.343-.398.474 0 .863.088 1.168.264v-.123a.963.963 0 00-.327-.76 1.164 1.164 0 00-.8-.285 1.25 1.25 0 00-.637.166.871.871 0 00-.392.459l-.738-.317c.1-.258.295-.496.59-.716.292-.22.681-.33 1.161-.33.55 0 1.008.16 1.372.484.364.323.546.775.546 1.362v2.602h-.772v-.597h-.035c-.326.484-.797.732-1.418.732zm.132-.741c.332 0 .637-.126.91-.373.273-.248.408-.543.408-.882-.23-.189-.571-.283-1.03-.283-.392 0-.687.085-.888.254-.198.17-.298.37-.298.597 0 .21.091.376.273.502.182.125.392.185.625.185zm5.282.741c-.33 0-.622-.07-.882-.21a1.5 1.5 0 01-.584-.528h-.034v.596h-.773V5.375h.81V7.36l-.034.597h.034a1.5 1.5 0 01.584-.528c.26-.14.555-.21.882-.21.555 0 1.036.22 1.44.66.405.439.606.985.606 1.634 0 .65-.2 1.196-.605 1.636-.405.439-.889.659-1.444.659zm-.132-.741c.373 0 .697-.141.967-.427.27-.286.404-.659.404-1.13 0-.467-.134-.844-.404-1.13a1.285 1.285 0 00-.967-.426c-.38 0-.703.14-.97.42-.267.283-.398.66-.398 1.133 0 .474.131.854.398 1.133.267.289.59.427.97.427zm3.682.599h-.81V5.375h.81v6.292zm2.893.142c-.65 0-1.18-.217-1.585-.65-.408-.433-.612-.982-.612-1.645 0-.627.198-1.164.593-1.616.396-.452.901-.678 1.516-.678.637 0 1.149.207 1.535.625.386.417.574.973.574 1.67l-.01.15h-3.401c.022.433.17.775.436 1.03.267.25.578.376.935.376.58 0 .973-.245 1.177-.737l.722.298a1.936 1.936 0 01-.694.838c-.323.226-.718.339-1.186.339zm1.158-2.812c-.019-.245-.132-.48-.339-.703-.207-.223-.518-.333-.926-.333a1.16 1.16 0 00-.778.282c-.22.189-.37.44-.452.757h2.495v-.003zm4.413-2.718a.552.552 0 01-.405.166.557.557 0 01-.405-.166.54.54 0 01-.166-.405c0-.16.056-.292.166-.405a.552.552 0 01.405-.167c.16 0 .292.057.405.167.11.113.166.245.166.405 0 .16-.056.295-.166.405zm0 5.388h-.81V7.361h.81v4.306zm1.826-4.306v.597h.035a1.44 1.44 0 01.553-.524c.25-.145.52-.217.81-.217.533 0 .94.163 1.22.493.283.326.42.769.42 1.318v2.636h-.809V9.15c0-.797-.355-1.195-1.064-1.195a.992.992 0 00-.816.398c-.21.267-.317.574-.317.926v2.382h-.81v-4.3h.779zm7.787 4.375c-.452 0-.794-.119-1.032-.36-.239-.242-.355-.581-.355-1.02v-2.26h-.756v-.738h.756V6.04h.81v1.318h1.054v.738H89.53v2.197c0 .467.195.703.58.703.148 0 .27-.022.37-.07l.283.694a1.647 1.647 0 01-.656.117zm2.1-6.361V7.36l-.034.597h.034c.116-.204.301-.38.552-.524.251-.145.521-.217.81-.217.534 0 .942.163 1.221.493.282.326.42.769.42 1.318v2.636h-.81V9.15c0-.797-.354-1.195-1.063-1.195a.992.992 0 00-.816.398c-.21.267-.317.574-.317.926v2.382h-.81V5.375h.813zm5.903 6.434c-.65 0-1.18-.217-1.584-.65-.408-.433-.612-.982-.612-1.645 0-.627.197-1.164.593-1.616.395-.452.9-.678 1.516-.678.637 0 1.148.207 1.535.625.385.417.574.973.574 1.67l-.01.15H96.72c.022.433.17.775.436 1.03.267.25.578.376.936.376.58 0 .973-.245 1.177-.737l.722.298a1.936 1.936 0 01-.694.838c-.32.226-.716.339-1.186.339zm1.162-2.812c-.019-.245-.132-.48-.34-.703-.206-.223-.517-.333-.925-.333a1.16 1.16 0 00-.778.282c-.22.189-.37.44-.452.757h2.495v-.003z" fill="#5F6368"/><path d="M12 30c-.437 0-1.643.012-2 0-.5-1.5-1.244-2.01-5-9.853C7.521 15.87 12.176 13 17.5 13c5.762 0 10.739 3.36 13.078 8.229C20 26 20 26 12 30z" fill="#DB4437"/><path d="M32 27.5c0 .852-.074 1.688-.215 2.5H22.5L17 21h13.465A14.44 14.44 0 0132 27.5z" fill="#FFCD40"/><path d="M11 30H3.215A14.591 14.591 0 013 27.5c0-2.744.763-5.311 2.088-7.5L11 30z" fill="#0F9D58"/><path d="M17.676 20.759c-3.687 0-6.676 2.995-6.676 6.689 0 .904.176 1.765.5 2.552h12.349a6.679 6.679 0 00.503-2.552c0-3.694-2.989-6.689-6.676-6.689z" fill="#F1F1F1"/><path d="M17.676 22.097a5.345 5.345 0 00-5.34 5.35c0 .939.24 1.787.664 2.553h9.37a5.335 5.335 0 00.647-2.552 5.345 5.345 0 00-5.34-5.35z" fill="#4285F4"/><path d="M3.357 56.696a.798.798 0 01-.777-.975l.965-4.25L.273 48.6a.797.797 0 01.452-1.396l4.33-.393 1.712-4.006a.797.797 0 011.466 0l1.712 4.006 4.33.393a.796.796 0 01.453 1.395l-3.273 2.87.965 4.25a.797.797 0 01-1.186.862L7.5 54.35l-3.734 2.232a.8.8 0 01-.409.113zm16 0a.798.798 0 01-.777-.975l.966-4.25-3.273-2.87a.797.797 0 01.452-1.396l4.33-.393 1.712-4.006a.797.797 0 011.466 0l1.712 4.006 4.33.393a.796.796 0 01.453 1.395l-3.273 2.87.965 4.25a.797.797 0 01-1.186.862L23.5 54.35l-3.734 2.232a.8.8 0 01-.409.113zm16 0a.798.798 0 01-.777-.975l.965-4.25-3.272-2.87a.797.797 0 01.452-1.396l4.33-.393 1.712-4.006a.797.797 0 011.466 0l1.712 4.006 4.33.393a.796.796 0 01.453 1.395l-3.273 2.87.965 4.25a.797.797 0 01-1.186.862L39.5 54.35l-3.734 2.232a.8.8 0 01-.409.113zm16 0a.798.798 0 01-.777-.975l.965-4.25-3.272-2.87a.797.797 0 01.452-1.396l4.33-.393 1.712-4.006a.797.797 0 011.466 0l1.712 4.006 4.33.393a.796.796 0 01.453 1.395l-3.273 2.87.965 4.25a.797.797 0 01-1.186.862L55.5 54.35l-3.734 2.232a.8.8 0 01-.409.113zm16 0a.798.798 0 01-.777-.975l.966-4.25-3.273-2.87a.797.797 0 01.452-1.396l4.33-.393 1.712-4.006a.797.797 0 011.466 0l1.712 4.006 4.33.393a.796.796 0 01.453 1.395l-3.273 2.87.965 4.25a.797.797 0 01-1.186.862L71.5 54.35l-3.734 2.232a.8.8 0 01-.409.113z" fill="#FFB629"/></svg>