<svg width="117" height="56" fill="none" xmlns="http://www.w3.org/2000/svg"><path d="M28.425 10.318H17.583L14.234 0l-3.359 10.318-10.842-.01 8.78 6.383L5.454 27l8.78-6.374L23.004 27l-3.349-10.308 8.77-6.373z" fill="#00B67A"/><path d="M20.409 19.025l-.754-2.334-5.42 3.935 6.174-1.6z" fill="#005128"/><path d="M35.043 7h11.121v2.144h-4.373v12.057h-2.404V9.144h-4.354V7h.01zm10.646 3.918h2.056v1.985h.038c.068-.281.194-.552.378-.812a3.619 3.619 0 011.542-1.253c.32-.13.65-.2.98-.2.252 0 .436.01.533.02.097.01.194.03.3.04v2.185a6.79 6.79 0 00-.475-.07c-.165-.02-.32-.03-.475-.03a2.416 2.416 0 00-1.9.901 3.432 3.432 0 00-.582 1.103c-.146.44-.213.942-.213 1.513v4.891h-2.192V10.918h.01zM61.59 21.201h-2.152v-1.433h-.039a3.04 3.04 0 01-1.202 1.243c-.533.31-1.076.47-1.63.47-1.308 0-2.258-.33-2.84-1.002-.582-.671-.873-1.683-.873-3.036v-6.525h2.192v6.304c0 .902.165 1.544.504 1.915.33.37.805.56 1.406.56.465 0 .843-.07 1.154-.22.31-.15.562-.34.746-.591.194-.24.33-.541.417-.882.087-.34.126-.712.126-1.113v-5.963h2.191v10.273zm3.733-3.297c.068.661.31 1.122.728 1.393.426.26.93.4 1.522.4.203 0 .436-.02.698-.05.262-.03.514-.1.737-.19.233-.09.417-.23.572-.41.145-.181.213-.412.204-.702a.983.983 0 00-.31-.712c-.195-.19-.437-.33-.738-.45-.3-.111-.64-.211-1.027-.291-.388-.08-.776-.17-1.174-.261-.407-.09-.804-.21-1.183-.34a3.57 3.57 0 01-1.018-.542 2.36 2.36 0 01-.717-.862c-.184-.35-.272-.782-.272-1.303 0-.561.136-1.022.398-1.403.262-.38.601-.681.999-.912a4.53 4.53 0 011.347-.491c.495-.09.97-.14 1.416-.14.514 0 1.008.06 1.474.17.465.11.892.29 1.27.551a3.2 3.2 0 01.94.982c.253.401.408.892.476 1.464h-2.289c-.106-.542-.34-.912-.717-1.093-.378-.19-.815-.28-1.3-.28-.155 0-.339.01-.552.04-.213.03-.407.08-.601.15a1.3 1.3 0 00-.475.32.79.79 0 00-.194.552c0 .28.097.501.28.671.185.17.428.311.728.431.3.11.64.21 1.028.291.388.08.785.17 1.192.26.398.09.786.211 1.174.341a3.5 3.5 0 011.027.542c.301.23.543.51.728.851.184.341.28.772.28 1.273 0 .612-.135 1.123-.406 1.554-.272.42-.621.772-1.048 1.032-.426.26-.911.461-1.435.581-.523.12-1.047.18-1.56.18-.63 0-1.213-.07-1.746-.22a4.187 4.187 0 01-1.386-.661 3.253 3.253 0 01-.922-1.113c-.223-.44-.339-.972-.358-1.583h2.21v-.02zm7.234-6.986h1.658V7.831h2.19v3.087h1.979v1.694h-1.978v5.492c0 .24.01.441.029.622.02.17.068.32.136.44.067.12.174.211.32.271.145.06.33.09.581.09.156 0 .31 0 .466-.01.155-.01.31-.03.465-.07v1.754c-.242.03-.485.05-.708.08a5.48 5.48 0 01-.707.04c-.582 0-1.048-.06-1.397-.17-.349-.11-.63-.28-.824-.501-.203-.22-.33-.491-.407-.822a6.375 6.375 0 01-.126-1.133v-6.063h-1.658v-1.714h-.02zm7.378 0h2.075v1.393h.039c.31-.601.737-1.022 1.29-1.283a4.132 4.132 0 011.793-.39c.786 0 1.464.14 2.046.43a4.016 4.016 0 011.454 1.173 5.18 5.18 0 01.863 1.744c.194.662.291 1.373.291 2.125a7.62 7.62 0 01-.261 2.004 5.447 5.447 0 01-.786 1.724 3.9 3.9 0 01-1.338 1.193c-.543.3-1.173.45-1.91.45-.32 0-.64-.03-.96-.09-.32-.06-.63-.16-.921-.29a3.303 3.303 0 01-1.445-1.233h-.039V25h-2.19V10.918zm7.66 5.152c0-.461-.058-.912-.175-1.353a3.704 3.704 0 00-.523-1.163 2.7 2.7 0 00-.863-.812c-.35-.2-.747-.31-1.193-.31-.92 0-1.619.33-2.084.992-.466.661-.698 1.543-.698 2.646 0 .52.058 1.002.184 1.443.126.44.3.822.553 1.142.242.321.533.572.872.752.34.19.737.28 1.183.28.504 0 .921-.11 1.27-.32.35-.21.63-.491.853-.822.223-.34.388-.721.485-1.152.087-.431.136-.872.136-1.323zM91.464 7h2.19v2.144h-2.19V7zm0 3.918h2.19v10.283h-2.19V10.918zM95.614 7h2.19v14.2h-2.19V7zm8.91 14.482c-.795 0-1.503-.14-2.123-.411a4.693 4.693 0 01-1.581-1.123 4.935 4.935 0 01-.979-1.713 6.818 6.818 0 01-.34-2.185c0-.782.117-1.504.34-2.165a4.934 4.934 0 01.979-1.714c.427-.481.96-.852 1.581-1.122.62-.271 1.328-.411 2.123-.411.795 0 1.503.14 2.124.41.62.271 1.144.652 1.58 1.123.427.481.756 1.052.979 1.714.223.661.34 1.383.34 2.165 0 .791-.117 1.523-.34 2.184a4.92 4.92 0 01-.979 1.714 4.47 4.47 0 01-1.58 1.123c-.621.27-1.329.41-2.124.41zm0-1.794c.485 0 .912-.11 1.27-.321.359-.21.65-.491.883-.832a3.8 3.8 0 00.513-1.162c.107-.431.165-.872.165-1.323 0-.441-.058-.872-.165-1.313a3.484 3.484 0 00-.513-1.163 2.711 2.711 0 00-.883-.822c-.358-.21-.785-.32-1.27-.32s-.911.11-1.27.32a2.8 2.8 0 00-.882.822 3.67 3.67 0 00-.514 1.163 5.517 5.517 0 00-.165 1.313c0 .45.058.892.165 1.323.106.43.281.821.514 1.162.232.34.523.622.882.832.359.22.785.32 1.27.32zm5.663-8.77h1.658V7.831h2.191v3.087h1.978v1.694h-1.978v5.492c0 .24.01.441.029.622.019.17.068.32.136.44s.174.211.32.271c.145.06.329.09.581.09.156 0 .311 0 .466-.01.155-.01.31-.03.465-.07v1.754c-.242.03-.485.05-.708.08-.232.03-.465.04-.707.04-.582 0-1.048-.06-1.397-.17-.349-.11-.63-.28-.824-.501-.203-.22-.329-.491-.407-.822a6.394 6.394 0 01-.126-1.133v-6.063h-1.658v-1.714h-.019z" fill="#302E2E"/><g clip-path="url(#clip0)"><path d="M20.97 40H5.034v16h15.938V40zm17.266 0H22.3v16h15.937V40zm17.266 0H39.564v16h15.938V40zm17.266 0H56.83v16h15.938V40z" fill="#00B67A"/><path d="M90.033 40h-7.969v16h7.97V40z" fill="#DCDCE6"/><path d="M82.064 40h-7.968v16h7.968V40z" fill="#00B67A"/><path d="M13.002 50.783l2.424-.617 1.013 3.134-3.437-2.517zm5.578-4.05h-4.266L13.002 42.7l-1.312 4.033H7.424l3.453 2.5-1.312 4.033 3.454-2.5 2.125-1.533 3.436-2.5zm11.688 4.05l2.423-.617 1.013 3.134-3.436-2.517zm5.578-4.05h-4.267L30.268 42.7l-1.312 4.033H24.69l3.454 2.5-1.312 4.033 3.453-2.5 2.125-1.533 3.437-2.5zm11.687 4.05l2.424-.617L50.97 53.3l-3.437-2.517zm5.578-4.05h-4.266L47.533 42.7l-1.311 4.033h-4.267l3.453 2.5-1.311 4.033 3.453-2.5 2.125-1.533 3.436-2.5zm11.688 4.05l2.424-.617 1.012 3.134-3.436-2.517zm5.578-4.05H66.11L64.8 42.7l-1.312 4.033h-4.266l3.453 2.5-1.312 4.033 3.453-2.5 2.125-1.533 3.437-2.5zm11.687 4.05l2.424-.617 1.013 3.134-3.437-2.517zm5.579-4.05h-4.267L82.064 42.7l-1.311 4.033h-4.267l3.453 2.5-1.311 4.033 3.453-2.5 2.125-1.533 3.437-2.5z" fill="#fff"/></g><defs><clipPath id="clip0"><path fill="#fff" d="M5.033 39.999h85v16h-85z"/></clipPath></defs></svg>