<svg width="714" height="463" viewBox="0 0 714 463" fill="none" xmlns="http://www.w3.org/2000/svg">
<path d="M62.7315 423.99C62.7315 423.99 76.6905 309.317 129.891 318.182C153.179 307.426 202.968 266.374 248.948 253.771C275.977 246.354 301.022 248.373 332.064 250.883C328.145 251.118 325.37 253.203 323.646 255.342C322.431 255.197 321.086 255.078 319.629 255.014C292.584 253.765 259.508 256.523 233.973 264.713C204.991 274.011 156.992 327.495 154.562 330.208C154.409 330.339 154.463 330.328 154.463 330.328C154.463 330.328 154.499 330.287 154.562 330.208C154.935 329.878 156.542 328.636 163.122 323.94C188.396 305.944 206.828 281.617 237.113 270.263C261.959 260.952 303.628 258.204 322.27 257.424C321.821 258.284 321.578 259.048 321.539 259.537C321.317 261.966 322.578 265.227 324.806 267.123C330.842 272.244 343.381 273.603 348.49 268.656C355.766 261.607 347.05 254.454 336.848 251.465C336.432 251.344 336.021 251.244 335.625 251.165C352.682 252.541 371.597 253.971 393.618 254.035C401.15 254.06 408.916 253.793 416.772 253.184C414.284 253.813 411.676 254.858 409.2 256.18C399.824 261.183 402.386 270.788 403.916 272.664C405.458 274.548 408.641 276.001 411.569 275.79C419.457 275.231 429.372 267.411 429.559 260.308C429.684 255.366 427.066 253.075 423.267 252.604C430.887 251.817 438.563 250.683 446.146 249.13C442.938 253.081 443.27 258.247 443.987 259.742C445.04 261.935 447.791 264.099 450.686 264.589C458.489 265.894 469.967 260.638 471.813 253.772C473.341 248.099 470.216 245.156 465.315 244.205C473.473 241.633 481.39 238.458 488.908 234.611C485.846 236.718 483.52 239.444 482.931 242.348C480.995 251.976 491.881 252.894 501.672 249.68C511.463 246.466 510.618 236.875 509.469 234.825C508.318 232.763 505.514 230.845 502.691 230.553C499.812 230.262 496.499 230.906 493.408 232.179C509.398 223.168 523.281 210.814 533.226 194.107C533.368 195.009 533.62 195.844 534.032 196.582C537.992 203.697 545.366 198.421 549.815 191.116C554.264 183.811 548.56 178.211 546.737 177.535C545.156 176.947 542.844 177.094 541.004 178C542.381 174.428 543.594 170.698 544.65 166.797C545.123 168.654 545.931 170.277 547.133 171.388C553.331 177.172 558.937 169.597 561.016 160.938C563.087 152.291 555.653 148.562 553.642 148.472C551.79 148.395 549.426 149.37 547.884 151.003C548.14 149.206 548.382 147.4 548.571 145.549C542.107 147.5 535.031 149.066 527.293 150.168C499.583 154.144 480.309 134.797 473.926 113.144C475.931 116.081 479.428 116.958 480.584 116.8C482.319 116.564 484.399 115.163 485.368 113.294C487.983 108.25 486.906 99.2524 482.625 96.4782C476.589 92.5668 473.009 99.6135 472.501 107.138C471.068 99.2517 471.352 91.3226 473.574 84.3161C473.831 85.9238 474.46 87.2015 474.921 87.6719C476.139 88.9247 478.5 89.7761 480.576 89.4508C486.184 88.5731 492.798 82.3814 492.502 77.2868C492.071 70.0569 484.159 71.416 477.767 75.5261C479.841 72.4236 482.458 69.6971 485.655 67.4739C497.208 59.437 507.788 57.5703 517.04 59.1314C533.227 61.853 549.829 71.6621 561.626 95.8684C563.04 98.7632 564.38 101.852 565.64 105.168C567.963 102.656 568.548 102.609 571.116 100.9C571.148 102.563 571.615 103.928 572.011 104.467C573.058 105.876 575.295 107.009 577.391 106.96C583.062 106.81 590.426 101.536 590.792 96.4473C591.027 93.1646 589.497 91.4573 587.118 90.8559C593.253 87.7925 599.837 85.941 608.187 86.6024C608.426 86.6231 608.668 86.6546 608.896 86.6774C634.259 89.5301 654.579 137.067 663.558 137.909C672.618 138.768 680.691 117.732 689.323 125.776C697.954 133.819 682.924 148.166 674.781 152.829C666.64 157.503 653.939 154.451 645.198 149.531C623.982 137.595 615.75 97.6202 586.462 124.696C583.166 127.734 579.589 130.591 575.263 133.516C586.142 209.747 496.856 298.643 414.237 302.477C319.597 306.867 267.784 300.185 190.153 373.331C112.525 446.498 62.7315 423.99 62.7315 423.99ZM385.701 270.807C391.866 262.765 382.194 256.973 371.662 255.515C361.13 254.057 357.568 263.329 357.702 265.745C357.838 268.171 359.563 271.229 362.048 272.774C368.772 276.943 381.378 276.452 385.701 270.807ZM626.156 116.228C625.285 117.338 624.889 119.331 625.382 120.948C626.726 125.324 632.43 129.893 636.46 129.076C642.202 127.904 640.178 121.7 636.13 117.066C632.093 112.43 627.018 115.131 626.156 116.228ZM509.933 140.551C514.605 143.786 523.661 143.874 526.959 139.984C531.661 134.444 524.928 129.941 517.44 128.529C509.94 127.109 507.065 133.638 507.078 135.371C507.079 137.107 508.212 139.362 509.933 140.551ZM482.711 120.766C481.752 122.229 481.465 124.727 482.248 126.68C484.369 131.946 491.883 137.004 496.776 135.56C503.748 133.51 500.596 126.058 495.118 120.751C489.652 115.452 483.661 119.316 482.711 120.766ZM494.602 111.241C493.643 112.704 493.356 115.202 494.139 117.155C496.26 122.421 503.773 127.479 508.667 126.035C515.638 123.985 512.487 116.533 507.009 111.226C501.541 105.916 495.55 109.78 494.602 111.241ZM544.374 120.447C544.189 120.763 544.025 121.075 543.899 121.402C541.468 127.565 543.785 137.867 549.083 140.577C556.633 144.441 559.942 135.598 559.548 126.715C559.164 117.829 550.992 116.293 549.023 116.766C548.295 116.941 547.528 117.314 546.796 117.815C546.742 117.59 546.697 117.364 546.645 117.15C545.991 114.477 545.19 111.855 544.274 109.278C544.341 109.276 544.412 109.296 544.49 109.292C552.968 109.29 551.884 99.9131 547.501 92.1747C543.107 84.4383 535.131 86.7955 533.596 88.1133C533.268 88.3898 532.958 88.7525 532.676 89.1434C520.629 80.2406 496.452 80.6631 505.149 101.776C505.832 103.446 506.57 104.994 507.343 106.434C516.504 123.481 531.249 124.545 544.374 120.447ZM488.336 88.2332C486.066 93.4347 487.73 102.34 492.189 104.822C498.533 108.36 501.65 100.888 501.589 93.2613C501.529 85.6345 494.57 84.0641 492.88 84.4151C491.166 84.7596 489.183 86.3101 488.336 88.2332ZM495.657 77.9614C496.067 79.6627 497.695 81.5861 499.647 82.3491C504.942 84.4107 513.77 82.4032 516.075 77.8443C519.362 71.3588 511.77 68.5452 504.156 68.9055C496.532 69.2679 495.242 76.2838 495.657 77.9614ZM618.288 105.258C623.525 100.219 617.28 95.0604 609.971 92.8974C602.652 90.7364 599.13 96.9318 598.961 98.6559C598.794 100.391 599.7 102.746 601.286 104.106C605.611 107.801 614.621 108.805 618.288 105.258ZM572.285 151.959C576.169 124.469 554.291 69.0921 523.807 65.936C523.807 65.936 532.74 69.4295 541.773 78.2687C550.816 87.1059 559.27 104.895 563.465 117.195C571.863 141.782 568.408 169.805 568.408 169.805C568.408 169.805 571.01 160.954 572.285 151.959ZM529.582 233.199C536.825 230.01 543.527 219.32 541.317 212.56C538.158 202.937 527.908 207.651 520.769 215.524C513.631 223.397 519.265 231.576 521.332 232.82C523.415 234.084 526.9 234.381 529.582 233.199Z" fill="#F6F7FB"/>
<path d="M342.398 263.995C339.637 266.671 332.84 265.931 329.569 263.163C328.36 262.132 327.68 260.36 327.795 259.05C327.829 258.651 328.107 257.948 328.613 257.211C328.804 256.927 329.03 256.648 329.29 256.373C330.626 254.949 332.864 253.73 336.096 254.681C341.618 256.295 346.336 260.171 342.398 263.995Z" fill="#F6F7FB"/>
<path d="M363.82 264.321C363.745 263.014 365.681 257.989 371.38 258.785C377.089 259.579 382.325 262.716 378.983 267.073C376.643 270.127 369.808 270.403 366.174 268.13C364.824 267.295 363.887 265.641 363.82 264.321Z" fill="#F6F7FB"/>
<path d="M504.271 237.068C504.891 238.18 505.352 243.376 500.045 245.114C494.749 246.849 488.839 246.352 489.898 241.14C490.631 237.48 496.472 234.34 500.607 234.756C502.127 234.909 503.65 235.946 504.271 237.068Z" fill="#F6F7FB"/>
<path d="M421.921 261.234C421.819 265.084 416.448 269.32 412.173 269.625C410.594 269.742 408.863 268.958 408.036 267.932C407.211 266.916 405.82 261.721 410.904 259.008C415.977 256.296 422.065 255.751 421.921 261.234Z" fill="#F6F7FB"/>
<path d="M464.169 252.885C463.168 256.607 456.956 259.451 452.732 258.749C451.168 258.482 449.675 257.316 449.108 256.127C448.543 254.949 448.414 249.564 453.992 248.121C459.558 246.68 465.591 247.579 464.169 252.885Z" fill="#F6F7FB"/>
<path d="M546.333 189.106C543.92 193.058 539.929 195.918 537.791 192.066C536.29 189.356 538.273 184.233 541.106 182.271C542.154 181.552 543.666 181.381 544.669 181.757C545.659 182.125 548.745 185.154 546.333 189.106Z" fill="#F6F7FB"/>
<path d="M523.303 217.609C527.168 213.351 532.719 210.794 534.437 216.004C535.64 219.656 532.008 225.459 528.088 227.184C526.633 227.825 524.743 227.667 523.613 226.979C522.495 226.3 519.44 221.877 523.303 217.609Z" fill="#F6F7FB"/>
<path d="M556.929 160.076C555.802 164.764 552.759 168.872 549.406 165.738C547.052 163.542 547.387 157.832 549.564 154.978C550.368 153.925 551.822 153.284 552.928 153.327C554.026 153.382 558.058 155.398 556.929 160.076Z" fill="#F6F7FB"/>
<path d="M555.37 127.002C555.577 131.811 553.786 136.595 549.696 134.512C546.823 133.043 545.58 127.46 546.892 124.125C547.38 122.888 548.593 121.868 549.674 121.613C550.745 121.36 555.163 122.192 555.37 127.002Z" fill="#F6F7FB"/>
<path d="M536.048 92.4872C536.156 92.3541 536.269 92.2425 536.384 92.1418C537.22 91.4304 541.53 90.1555 543.912 94.3405C546.294 98.5255 546.879 103.609 542.286 103.606C542.196 103.601 542.116 103.594 542.026 103.589C538.868 103.363 535.4 99.1205 535.06 95.6472C534.95 94.5038 535.394 93.275 536.048 92.4872Z" fill="#F6F7FB"/>
<path d="M510.867 77.3235C509.62 79.7835 504.838 80.8813 501.966 79.7597C500.911 79.3487 500.024 78.3004 499.801 77.3806C499.579 76.4717 500.274 72.674 504.402 72.4762C508.533 72.2891 512.638 73.8205 510.867 77.3235Z" fill="#F6F7FB"/>
<path d="M498.007 93.3874C498.037 97.5145 496.359 101.559 492.92 99.652C490.507 98.3065 489.604 93.4868 490.835 90.6602C491.294 89.619 492.363 88.7838 493.289 88.5926C494.204 88.4034 497.975 89.2494 498.007 93.3874Z" fill="#F6F7FB"/>
<path d="M504.588 113.87C507.555 116.743 509.258 120.78 505.488 121.894C502.84 122.677 498.766 119.93 497.619 117.084C497.19 116.025 497.352 114.672 497.869 113.877C498.376 113.084 501.622 110.997 504.588 113.87Z" fill="#F6F7FB"/>
<path d="M585.796 98.0019C585.594 100.763 581.613 103.62 578.538 103.703C577.402 103.733 576.185 103.119 575.622 102.355C575.198 101.787 574.632 99.5118 575.964 97.6624C576.405 97.0502 577.046 96.4887 577.969 96.0517C578.349 95.8769 578.721 95.715 579.108 95.5726C582.53 94.28 586.05 94.4692 585.796 98.0019Z" fill="#F6F7FB"/>
<path d="M604.333 102.439C603.462 101.702 602.979 100.429 603.075 99.4808C603.162 98.5455 605.075 95.1942 609.032 96.3625C612.991 97.5415 616.377 100.322 613.537 103.058C611.548 104.979 606.671 104.438 604.333 102.439Z" fill="#F6F7FB"/>
<path d="M633.64 119.523C635.384 121.524 636.265 124.209 633.787 124.713C632.04 125.064 629.584 123.089 628.993 121.199C628.779 120.501 628.947 119.64 629.325 119.163C629.692 118.689 631.885 117.523 633.64 119.523Z" fill="#F6F7FB"/>
<path d="M487.745 79.4895C487.911 82.2461 484.318 85.5991 481.286 86.0767C480.155 86.2517 478.879 85.7942 478.221 85.1158C477.562 84.4374 476.262 80.8037 479.724 78.5625C483.206 76.3063 487.518 75.5575 487.745 79.4895Z" fill="#F6F7FB"/>
<path d="M481.578 101.633C483.897 103.131 484.474 108.003 483.058 110.742C482.537 111.751 481.41 112.519 480.471 112.645C479.543 112.77 475.836 111.676 476.087 107.551C476.324 103.416 478.271 99.4873 481.578 101.633Z" fill="#F6F7FB"/>
<path d="M492.697 123.395C495.664 126.268 497.367 130.305 493.597 131.419C490.947 132.192 486.876 129.455 485.729 126.609C485.299 125.55 485.461 124.197 485.979 123.402C486.485 122.609 489.731 120.522 492.697 123.395Z" fill="#F6F7FB"/>
<path d="M522.013 138.281C520.228 140.387 515.325 140.343 512.79 138.596C511.857 137.949 511.241 136.736 511.235 135.785C511.231 134.845 512.796 131.315 516.854 132.082C520.911 132.839 524.554 135.278 522.013 138.281Z" fill="#F6F7FB"/>
</svg>
