<svg width="666" height="722" viewBox="0 0 666 722" fill="none" xmlns="http://www.w3.org/2000/svg">
<path d="M513.91 166.278C504.781 190.863 492.263 202.596 473.623 205.166C473.3 202.513 471.552 198.557 466.148 197.8C459.331 196.839 454.335 200.18 455.444 205.151C452.45 204.82 449.333 204.336 446.089 203.723C446.109 203.659 446.139 203.607 446.17 203.544C446.94 201.295 446.076 191.57 435.732 190.1C426.68 188.816 419.873 192.926 420.406 199.268C416.891 199.298 413.475 199.723 410.16 200.543C408.277 197.295 403.608 192.895 395.97 195.24C385.981 198.308 381.642 206.499 387.795 212.321C388.022 212.533 388.253 212.711 388.483 212.901C386.255 215.03 384.103 217.405 382.04 220.017C380.158 218.246 371.38 214.82 365.411 223.145C359.328 231.644 360.833 240.79 369.258 241.692C369.28 241.695 369.302 241.698 369.325 241.691C366.3 248.516 363.598 256.126 361.265 264.517C361.125 265.023 360.995 265.541 360.856 266.047C357.725 265.965 353.065 267.273 351.125 273.158C348.838 280.135 350.979 286.105 355.869 286.934C355.798 287.27 355.728 287.607 355.656 287.955C352.763 288.399 349.39 290.161 347.822 294.937C345.639 301.581 347.476 307.329 351.892 308.581C351.373 311.807 350.873 315.058 350.403 318.336C347.32 318.003 341.969 318.977 339.865 325.386C337.164 333.612 340.617 340.488 347.503 339.098C347.583 339.087 347.655 339.053 347.724 339.041C347.642 339.767 347.549 340.492 347.478 341.221C344.477 341.247 338.842 342.962 337.828 350.033C336.753 357.52 340.126 363.165 345.347 362.777C345.275 363.594 345.202 364.412 345.142 365.22C342.149 366.131 338.283 368.762 338.144 374.795C338.023 380.473 340.276 384.803 343.566 386.185C343.436 388.258 343.305 390.343 343.177 392.405C340.705 393.582 338.177 396.003 337.755 400.429C337.45 399.199 337.046 397.966 336.555 396.787C335.438 394.131 332.75 391.975 330.407 391.47C328.087 390.967 318.539 392.98 318.315 403.432C318.09 413.883 324.497 420.592 331.951 416.565C336.108 414.323 337.986 410.667 338.32 406.62C339.059 409.188 340.396 411.171 342.117 412.27C341.98 415.249 341.856 418.218 341.735 421.166C340.026 422.71 338.661 425.053 338.592 428.578C338.581 428.89 338.604 429.195 338.605 429.498C338.295 428.077 337.836 426.679 337.27 425.322C336.153 422.665 333.465 420.51 331.122 420.004C328.802 419.501 319.254 421.514 319.03 431.966C318.805 442.418 325.212 449.127 332.666 445.1C337.467 442.503 339.227 438.024 339.074 433.246C339.512 435.022 340.224 436.534 341.138 437.718C341.086 439.489 341.036 441.239 340.986 442.988C338.072 443.273 332.384 445.585 332.226 452.925C332.078 460.109 335.706 465.142 340.469 464.755C340.192 479.16 340.037 492.553 339.889 504.425C340.008 492.526 336.809 477.721 336.809 477.721C336.809 477.721 332.193 557.291 332.945 565.456C333.155 567.735 333.741 569.341 334.482 570.489C333.325 575.2 332.018 579.946 330.561 584.726C314.7 589.599 295.556 596.382 289.55 600.841C278.926 608.719 266.443 613.195 247.16 634.828L245.598 641.663C245.598 641.663 246.102 641.735 251.385 633.513C253.544 630.154 269.554 616.609 289.369 605.839C302.429 598.749 317.313 592.661 329.501 588.064C308.413 653.924 258.914 721.649 195.085 712.867C219.529 634.601 242.803 584.911 267.189 504.086C291.82 422.491 307.816 268.264 332.418 222.1C356.837 176.279 403.174 147.047 451.905 164.114C481.791 174.579 493.057 151.152 477.203 137.967C477.583 137.417 477.878 136.844 478.069 136.29C478.839 134.04 477.976 124.316 467.631 122.846C459.773 121.734 453.614 124.684 452.469 129.621C449.285 129.217 445.964 128.828 442.546 128.413C442.967 127.814 443.312 127.203 443.522 126.596C444.292 124.346 443.428 114.621 433.084 113.151C422.825 111.705 415.454 117.176 418.374 124.96C410.736 123.567 403.266 121.773 396.524 119.279C396.574 119.241 396.633 119.216 396.673 119.177C398.549 117.714 403.098 109.072 395.214 102.217C387.33 95.3621 378.082 95.9971 376.409 104.304C376.329 104.707 376.285 105.092 376.241 105.477C367.714 95.9337 363.091 83.5742 362.653 71.427C362.914 72.4156 363.232 73.3902 363.6 74.3383C364.657 77.0197 367.304 79.2253 369.628 79.7843C371.941 80.3418 381.527 78.5246 381.963 68.081C382.399 57.6374 376.133 50.8033 368.601 54.6734C366.343 55.8359 364.741 57.4174 363.671 59.2658C367.304 41.8875 380.461 27.2594 404.096 25.4101C417.622 24.3514 419.986 37.101 413.367 46.138C412.479 47.3414 409.844 46.4577 406.971 45.3607C392.176 39.6795 388.469 54.9996 389.19 67.1989C389.453 71.7573 393.569 78.7625 399.898 85.158C406.647 91.9723 415.908 98.1084 425.75 99.8862C451.906 104.633 474.818 91.9938 492.911 104.54C513.444 118.78 522.125 144.167 513.91 166.278ZM353.458 265.08C361.759 263.414 364.405 255.258 363.626 247.515C363.332 244.653 361.393 241.799 359.301 240.636C357.231 239.476 347.504 238.61 344.247 248.535C340.988 258.47 345.155 266.758 353.458 265.08ZM348.981 277.19C348.687 274.328 346.748 271.475 344.657 270.312C342.587 269.151 332.86 268.285 329.601 278.221C326.343 288.146 330.51 296.434 338.812 294.767C347.116 293.078 349.762 284.922 348.981 277.19ZM317.617 375.247C317.392 385.698 323.799 392.407 331.253 388.38C338.706 384.364 338.864 375.783 335.846 368.601C334.729 365.944 332.041 363.789 329.699 363.283C327.387 362.793 317.829 364.804 317.617 375.247ZM328.245 356.27C336.135 353.179 337.321 344.679 335.185 337.198C334.398 334.422 331.989 331.96 329.731 331.175C327.484 330.392 317.758 331.238 316.284 341.588C314.8 351.936 320.365 359.363 328.245 356.27ZM330.856 325.206C339.157 323.539 341.803 315.383 341.024 307.64C340.73 304.778 338.791 301.925 336.699 300.762C334.629 299.601 324.902 298.735 321.645 308.66C318.377 318.583 322.555 326.873 330.856 325.206ZM429.719 164.359C418.957 164.239 384.055 161.688 357.978 192.489C350.831 200.924 335.947 221.043 334.022 232.435C334.022 232.435 363.031 182.208 391.046 172.901C419.06 163.594 453.06 167.984 453.06 167.984C453.06 167.984 443.662 164.513 429.719 164.359ZM509.369 141.969C506.683 134.186 499.003 125.525 495.729 122.077C494.809 121.004 494.228 120.54 494.228 120.54C494.228 120.54 494.795 121.103 495.729 122.077C498.181 124.937 503.033 132.115 505.67 146.314C509.288 165.835 501.626 185.261 487.798 192.251C507.651 189.722 512.81 151.965 509.369 141.969Z" fill="#F6F7FB"/>
<path d="M346.802 335.641C341.909 336.624 341.44 331.085 343.071 326.106C344.458 321.898 348.139 321.567 349.879 321.908C350.194 321.976 350.461 322.059 350.616 322.149C351.661 322.736 352.642 324.164 352.783 325.594C353.119 328.943 350.972 333.467 348.178 335.089C347.726 335.36 347.274 335.552 346.802 335.641Z" fill="#F6F7FB"/>
<path d="M334.626 304.77C335.888 305.478 337.061 307.203 337.238 308.929C337.719 313.608 334.155 320.21 330.01 321.045C324.115 322.23 323.542 315.546 325.521 309.544C327.49 303.539 333.374 304.064 334.626 304.77Z" fill="#F6F7FB"/>
<path d="M347.859 344.957C348.998 345.356 350.198 346.581 350.59 347.98C351.661 351.738 349.707 357.643 346.449 358.919C346.176 359.025 345.92 359.1 345.664 359.164C341.649 360.106 340.427 355.063 341.116 350.183C341.743 345.809 345.295 344.822 347.069 344.854C347.402 344.868 347.677 344.897 347.859 344.957Z" fill="#F6F7FB"/>
<path d="M328.385 335.49C329.748 335.966 331.212 337.453 331.687 339.133C332.972 343.66 330.619 350.783 326.687 352.32C321.082 354.521 319.362 348.04 320.26 341.781C321.156 335.533 327.033 335.015 328.385 335.49Z" fill="#F6F7FB"/>
<path d="M351.028 295.656C351.824 293.231 353.396 292.093 354.905 291.628C356.495 291.142 358.046 291.399 358.575 291.688C359.62 292.275 360.601 293.703 360.742 295.133C361.136 299.017 358.182 304.487 354.75 305.178C353.83 305.359 353.065 305.315 352.448 305.092C349.76 304.111 349.699 299.705 351.028 295.656Z" fill="#F6F7FB"/>
<path d="M337.969 290.584C332.074 291.77 331.501 285.085 333.48 279.083C335.448 273.078 341.333 273.603 342.585 274.309C343.847 275.017 345.02 276.742 345.197 278.468C345.676 283.158 342.113 289.76 337.969 290.584Z" fill="#F6F7FB"/>
<path d="M348.122 249.429C350.09 243.425 355.975 243.949 357.226 244.656C358.489 245.364 359.663 247.077 359.839 248.815C360.319 253.494 356.756 260.096 352.611 260.93C346.728 262.107 346.153 255.433 348.122 249.429Z" fill="#F6F7FB"/>
<path d="M354.331 273.878C355.439 270.524 358.016 269.632 359.891 269.578C360.8 269.552 361.547 269.727 361.878 269.909C362.923 270.496 363.904 271.925 364.045 273.355C364.439 277.238 361.485 282.709 358.053 283.4C357.501 283.51 357.017 283.53 356.577 283.478C353.101 283.155 352.881 278.301 354.331 273.878Z" fill="#F6F7FB"/>
<path d="M369.526 225.249C373.105 220.25 378.352 222.26 379.541 223.326C379.571 223.353 379.611 223.381 379.639 223.419C380.64 224.469 381.237 226.469 380.891 228.176C380.006 232.479 375.263 237.322 371.223 237.578C370.942 237.594 370.651 237.596 370.375 237.568C364.395 236.929 365.849 230.381 369.526 225.249Z" fill="#F6F7FB"/>
<path d="M347.774 382.573C346.127 383.455 344.82 383.288 343.81 382.46C342.142 381.067 341.356 377.821 341.423 374.541C341.487 371.451 343.183 369.838 344.8 369.087C345.926 368.566 347.006 368.443 347.483 368.545C348.654 368.803 349.997 369.881 350.568 371.205C352.085 374.815 350.852 380.914 347.774 382.573Z" fill="#F6F7FB"/>
<path d="M328.893 367.732C330.303 368.036 331.926 369.344 332.602 370.952C334.417 375.287 332.947 382.65 329.227 384.653C323.93 387.514 321.446 381.293 321.582 374.968C321.717 368.644 327.494 367.429 328.893 367.732Z" fill="#F6F7FB"/>
<path d="M342.334 407.792C341.374 406.143 340.916 403.649 340.974 401.139C341.016 398.975 341.871 397.532 342.932 396.611C344.429 395.294 346.36 395.002 347.044 395.145C348.215 395.404 349.569 396.483 350.116 397.815C351.624 401.412 350.403 407.512 347.324 409.172C345.034 410.408 343.385 409.588 342.334 407.792Z" fill="#F6F7FB"/>
<path d="M329.93 412.805C324.633 415.666 322.149 409.445 322.284 403.12C322.418 396.807 328.196 395.581 329.594 395.895C331.015 396.201 332.638 397.509 333.304 399.104C335.131 403.441 333.65 410.802 329.93 412.805Z" fill="#F6F7FB"/>
<path d="M347.952 422.331C349.123 422.59 350.478 423.669 351.036 425.003C352.544 428.599 351.322 434.7 348.244 436.36C343.856 438.725 341.789 433.571 341.904 428.329C341.997 423.083 346.78 422.084 347.952 422.331Z" fill="#F6F7FB"/>
<path d="M330.654 441.352C325.357 444.213 322.873 437.992 323.009 431.667C323.143 425.354 328.921 424.128 330.32 424.431C331.73 424.735 333.353 426.043 334.028 427.651C335.855 431.988 334.376 439.338 330.654 441.352Z" fill="#F6F7FB"/>
<path d="M344.66 449.337C346.168 452.933 344.946 459.034 341.868 460.693C341.395 460.95 340.96 461.099 340.545 461.185C337.072 461.937 335.428 457.336 335.528 452.663C335.625 448.167 339.156 446.786 340.898 446.645C341.181 446.619 341.425 446.632 341.588 446.667C342.757 446.936 344.101 448.014 344.66 449.337Z" fill="#F6F7FB"/>
<path d="M397.955 199.409C401.955 198.184 404.612 200.011 405.988 201.798C406.685 202.704 407.069 203.61 407.113 204.086C407.264 205.529 406.536 207.483 405.232 208.626C401.857 211.575 394.945 212.524 391.637 210.089C391.476 209.965 391.314 209.852 391.167 209.708C386.795 205.575 391.92 201.257 397.955 199.409Z" fill="#F6F7FB"/>
<path d="M435.76 194.736C442.017 195.628 442.539 201.499 442.075 202.864C442.071 202.886 442.059 202.895 442.056 202.917C441.56 204.267 440.102 205.701 438.448 206.167C433.923 207.462 426.802 205.114 425.252 201.187C424.997 200.546 424.869 199.957 424.835 199.415C424.542 195.222 430.226 193.949 435.76 194.736Z" fill="#F6F7FB"/>
<path d="M467.672 127.473C473.93 128.353 474.45 134.235 473.986 135.601C473.983 135.622 473.971 135.632 473.967 135.654C473.472 137.003 472.014 138.438 470.359 138.904C465.846 140.2 458.714 137.851 457.164 133.923C456.564 132.416 456.614 131.204 457.1 130.233C458.42 127.581 463.091 126.823 467.672 127.473Z" fill="#F6F7FB"/>
<path d="M439.428 125.905C439.197 126.576 438.716 127.279 438.084 127.87C437.438 128.471 436.64 128.971 435.799 129.219C431.951 130.32 426.235 128.779 423.654 125.878C423.202 125.365 422.833 124.82 422.604 124.238C420.388 118.638 426.864 116.909 433.112 117.788C439.372 118.657 439.892 124.539 439.428 125.905Z" fill="#F6F7FB"/>
<path d="M392.731 106.122C397.503 110.268 394.742 115.486 393.608 116.374C393.117 116.762 392.45 117.046 391.72 117.221C390.771 117.442 389.706 117.467 388.764 117.175C385.797 116.266 382.751 113.41 381.251 110.385C380.479 108.83 380.106 107.221 380.398 105.808C381.591 99.9049 387.958 101.976 392.731 106.122Z" fill="#F6F7FB"/>
<path d="M369.921 58.7241C375.28 55.9727 377.633 62.2535 377.375 68.5716C377.106 74.8882 371.313 75.9882 369.919 75.6528C368.514 75.3158 366.916 73.9776 366.276 72.3636C364.534 67.9835 366.155 60.6537 369.921 58.7241Z" fill="#F6F7FB"/>
<path d="M466.182 201.072C469.427 201.529 470.486 203.886 470.692 205.493C470.763 206.085 470.738 206.574 470.645 206.829C470.305 207.798 469.262 208.834 468.074 209.166C464.879 210.081 459.828 208.424 458.729 205.636C458.704 205.576 458.69 205.518 458.678 205.449C457.334 201.642 461.821 200.454 466.182 201.072Z" fill="#F6F7FB"/>
</svg>
