<svg width="896" height="904" viewBox="0 0 896 904" fill="none" xmlns="http://www.w3.org/2000/svg">
<path d="M522.145 885.673C524.824 813.549 438.668 818.318 378.649 769.649C337.969 736.645 298.238 666.562 349.824 580.337C351.215 583.866 353.789 586.283 355.068 586.84C357.665 587.976 361.754 587.781 364.658 586.009C372.532 581.216 375.321 572.353 371.716 564.898C369.613 560.533 367.044 558.42 364.282 558.1C366.338 555.129 368.408 552.22 370.47 549.352C371.062 550.797 371.767 551.863 372.311 552.344C374.419 554.254 378.353 555.353 381.673 554.583C390.666 552.522 396.104 545.01 395.05 536.803C394.177 530.065 391.096 527.189 386.75 527.372C388.492 525.04 390.227 522.735 391.931 520.439C392.317 521.116 392.708 521.636 393.049 521.928C395.157 523.838 399.091 524.937 402.41 524.167C411.389 522.103 416.842 514.594 415.787 506.386C414.994 500.273 412.387 497.343 408.653 496.981C410.881 493.616 413.025 490.245 415.054 486.865C416.709 489.325 418.805 490.9 419.907 491.273C422.6 492.171 426.637 491.617 429.383 489.579C436.79 484.09 438.785 475.024 434.526 467.915C432.34 464.254 429.955 462.356 427.512 461.903C428.44 459.522 429.306 457.098 430.089 454.656C430.299 454.817 430.491 454.932 430.658 455.027C433.173 456.333 437.26 456.411 440.279 454.838C448.453 450.588 451.829 441.942 448.725 434.25C445.591 426.494 440.694 425.24 435.36 428.599C435.578 426.032 435.72 423.42 435.785 420.761C438.719 420.888 442.512 419.342 444.733 416.668C450.907 409.232 450.665 399.498 444.553 393.324C440.108 388.832 436.134 387.984 432.84 389.887C432.456 387.953 432.017 386.007 431.557 384.027C433.602 384.651 435.391 384.728 436.275 384.519C439.083 383.838 442.284 381.178 443.558 377.949C447 369.202 443.83 360.296 436.312 356.441C430.105 353.265 425.901 354.245 423.558 358.062C420.128 348.897 415.933 339.201 410.861 328.893C410.341 327.839 409.802 326.81 409.238 325.761C412.639 326.916 416.044 326.021 417.057 325.291C418.758 324.062 420.157 321.38 420.123 318.844C420.021 312.017 413.753 303.078 407.634 302.58C401.602 302.087 399.905 306.581 400.7 312.16C397.944 308.272 394.968 304.394 391.81 300.49C394.982 300.785 397.768 299.55 398.594 298.75C400.103 297.277 401.093 294.418 400.687 291.93C399.571 285.183 392.078 277.274 385.951 277.67C380.587 278.017 379.177 281.795 380.065 286.426C376.874 282.674 373.596 278.859 370.3 274.924C374.267 275.742 377.881 273.895 378.784 272.881C380.173 271.295 380.946 268.373 380.345 265.915C378.715 259.27 370.63 251.953 364.558 252.823C359.532 253.535 358.275 257.014 359.182 261.23C357.829 259.501 356.481 257.745 355.14 255.961C356.251 254.92 357.169 253.504 357.544 251.998C359.204 245.372 356.075 239.234 350.289 237.163C346.699 235.88 344.133 236.18 342.519 237.673C341.941 236.751 341.381 235.819 340.82 234.886C343.112 235.175 345.122 234.708 345.889 234.242C347.679 233.134 349.284 230.57 349.434 228.046C349.836 221.228 344.271 211.852 338.197 210.887C333.644 210.172 331.387 212.549 330.742 216.206C329.489 213.56 328.276 210.865 327.108 208.094C328.62 208.052 329.839 207.699 330.391 207.359C332.181 206.251 333.785 203.687 333.936 201.163C334.338 194.346 328.772 184.969 322.699 184.004C321.372 183.798 320.258 183.87 319.303 184.136C318.664 181.265 318.05 178.081 317.455 174.612C321.292 177.857 326.387 177.031 327.722 176.213C329.512 175.105 331.117 172.541 331.268 170.017C331.67 163.2 326.104 153.823 320.031 152.859C317.768 152.504 316.072 152.924 314.866 153.872C314.483 149.178 314.206 144.263 314.093 139.196C316.169 141.185 318.719 142.008 319.766 141.979C321.863 141.907 324.53 140.487 325.921 138.367C329.665 132.649 329.475 121.757 324.703 117.901C320.503 114.532 316.936 116.36 314.452 120.363C314.465 120.236 314.468 120.092 314.481 119.965C317.587 71.7736 341.981 29.0746 394.242 21.0015C427.148 15.9243 412.659 37.447 412.659 37.447C367.923 47.3686 351.755 81.6395 348.862 122.697C346.638 154.208 351.518 182.591 356.764 191.059C382.197 232.155 415.016 263.322 444.801 306.375C515.108 407.968 474.554 473.02 420.844 563.386C385.603 622.675 380.686 690.592 426.21 722.266C488.802 765.811 581.241 724.865 595.261 782.108C598.814 796.69 526.845 860.964 522.145 885.673ZM319.839 93.3208C318.364 102.386 326.3 105.655 328.396 105.583C330.507 105.514 333.16 104.091 334.552 101.971C338.295 96.2522 338.106 85.3601 333.333 81.5042C326.506 76.0244 321.313 84.2552 319.839 93.3208ZM355.691 56.0689C351.071 48.6345 343.444 54.6665 339.055 62.7277C334.665 70.789 341.065 76.5066 343.052 77.1328C345.065 77.7649 348.041 77.3092 350.055 75.7742C355.476 71.6249 358.921 61.2892 355.691 56.0689ZM427.23 326.668C418.992 323.724 416.176 329.098 417.758 338.13C419.336 347.176 427.912 347.667 429.856 346.911C431.827 346.161 433.876 343.941 434.487 341.49C436.131 334.874 433.002 328.737 427.23 326.668ZM447.976 506.8C458.794 487.646 465.691 467.597 469.148 457.004C470.295 453.501 471.171 450.241 471.745 447.305C473.132 440.214 467.171 439.332 464.502 451.197C461.497 464.591 455.684 484.113 445.507 502.455C427.541 534.856 406.188 556.641 396.679 594.144C395.146 600.191 397.204 603.708 399.977 595.175C411.274 560.45 430.596 537.582 447.976 506.8ZM498.246 799.651C486.313 795.573 471.135 791.531 457.2 785.451C440.378 778.112 425.129 768.549 416.893 762.441C414.344 760.564 410.104 764.006 414.916 767.682C416.241 770.59 432.002 782.491 451.728 793.966C473.39 806.563 499.741 818.994 514.798 826.608C541.904 840.333 523.527 808.278 498.246 799.651Z" fill="#F6F7FB"/>
<path d="M404.771 318.418C404.651 318.175 404.548 317.921 404.445 317.667C402.679 313.348 402.771 308.658 407.229 309.021C410.55 309.291 413.936 314.127 413.99 317.823C414.005 319.199 413.252 320.651 412.326 321.314C411.588 321.844 408.435 322.579 406.166 320.417C405.638 319.925 405.161 319.27 404.771 318.418Z" fill="#F6F7FB"/>
<path d="M387.338 284.174C390.652 283.952 394.721 288.245 395.318 291.902C395.542 293.251 395 294.793 394.187 295.596C393.488 296.28 390.111 297.572 387.442 295.191C387.031 294.826 386.652 294.381 386.281 293.837C386.248 293.787 386.216 293.736 386.198 293.689C383.54 289.548 382.677 284.474 387.338 284.174Z" fill="#F6F7FB"/>
<path d="M365.567 259.201C368.865 258.729 373.239 262.685 374.122 266.29C374.451 267.619 374.03 269.202 373.277 270.062C372.584 270.848 368.881 272.574 365.926 269.653C365.701 269.43 365.478 269.193 365.265 268.915C365.105 268.721 364.963 268.516 364.82 268.311C362.109 264.477 361.121 259.838 365.567 259.201Z" fill="#F6F7FB"/>
<path d="M427.06 342.278C426.004 342.68 421.365 342.422 420.506 337.523C419.648 332.624 420.851 327.486 425.31 329.091C428.443 330.216 430.473 335.764 429.569 339.349C429.236 340.663 428.134 341.865 427.06 342.278Z" fill="#F6F7FB"/>
<path d="M348.372 239.572C351.506 240.697 353.522 246.242 352.631 249.83C352.487 250.42 352.167 250.956 351.8 251.438C351.318 252.054 350.719 252.544 350.12 252.772C349.063 253.175 344.424 252.917 343.566 248.018C343.064 245.176 343.272 242.261 344.4 240.617C345.211 239.423 346.497 238.898 348.372 239.572Z" fill="#F6F7FB"/>
<path d="M425.763 364.198C426.767 360.027 429.23 357.305 433.295 359.387C437.359 361.469 439.142 369.389 437.277 374.121C436.587 375.876 434.855 377.314 433.328 377.685C432.703 377.836 431.258 377.705 429.77 377.045C427.652 376.1 425.416 374.047 425.244 370.036C425.159 367.994 425.33 365.966 425.763 364.198Z" fill="#F6F7FB"/>
<path d="M320.798 190.346C321.102 190.341 321.435 190.342 321.782 190.405C325.063 190.926 328.093 196.001 327.873 199.695C327.788 201.063 326.92 202.446 325.948 203.055C325.783 203.149 325.516 203.249 325.182 203.32C323.512 203.688 320.082 203.451 318.633 199.592C317.008 195.289 317.084 190.48 320.798 190.346Z" fill="#F6F7FB"/>
<path d="M319.114 159.259C322.394 159.781 325.424 164.856 325.204 168.549C325.12 169.917 324.252 171.301 323.283 171.896C322.432 172.416 318.746 172.946 316.693 169.864C316.422 169.457 316.165 168.982 315.968 168.433C314.912 165.613 314.583 162.579 315.528 160.779C316.129 159.626 317.27 158.968 319.114 159.259Z" fill="#F6F7FB"/>
<path d="M337.28 217.287C340.561 217.809 343.591 222.884 343.371 226.578C343.287 227.946 342.419 229.329 341.45 229.925C340.965 230.222 339.539 230.529 338.022 230.136C336.543 229.766 334.99 228.745 334.135 226.461C333.453 224.635 333.077 222.731 333.144 221.114C333.247 218.608 334.433 216.832 337.28 217.287Z" fill="#F6F7FB"/>
<path d="M320.723 122.989C323.312 125.077 323.414 130.98 321.39 134.073C320.646 135.224 319.192 135.987 318.056 136.025C317.3 136.046 315.145 135.267 314.021 133.285C314.036 131.049 314.068 128.802 314.134 126.534C315.389 122.997 317.776 120.62 320.723 122.989Z" fill="#F6F7FB"/>
<path d="M326.697 99.6454C325.562 99.6837 321.27 97.9131 322.062 93.0022C322.853 88.0913 325.671 83.6275 329.364 86.6095C331.953 88.6979 332.055 94.6008 330.031 97.6937C329.276 98.8274 327.833 99.607 326.697 99.6454Z" fill="#F6F7FB"/>
<path d="M343.414 70.9569C342.332 70.6172 338.866 67.5261 341.244 63.1531C343.619 58.7939 347.764 55.5188 350.258 59.551C352.019 62.3813 350.152 67.9794 347.203 70.2182C346.121 71.0631 344.505 71.3134 343.414 70.9569Z" fill="#F6F7FB"/>
<path d="M429.376 403.065C430.303 399.773 431.884 396.726 433.799 394.982C435.835 393.148 438.242 392.784 440.664 395.24C443.973 398.585 443.169 406.903 439.812 410.93C438.792 412.149 437.158 412.945 435.718 413.118C435.407 413.151 435.1 413.17 434.815 413.15C433.226 413.016 427.467 409.838 429.376 403.065Z" fill="#F6F7FB"/>
<path d="M434.77 434.104C438.518 430.929 442.726 429.863 444.596 434.495C446.269 438.649 442.5 445.663 438.077 447.966C436.445 448.82 434.229 448.779 432.867 448.074C432.672 447.973 432.427 447.774 432.163 447.528C430.571 445.963 428.212 441.715 431.791 437.203C432.71 436.047 433.721 434.999 434.77 434.104Z" fill="#F6F7FB"/>
<path d="M430.471 468.812C432.774 472.658 430.136 480.181 426.119 483.137C424.634 484.24 422.444 484.537 420.99 484.057C420.357 483.845 419.119 482.907 418.2 481.433C417.027 479.542 416.38 476.769 418.231 473.479C420.196 469.998 423.006 467.078 425.634 466.43C427.433 466.003 429.151 466.599 430.471 468.812Z" fill="#F6F7FB"/>
<path d="M405.548 501.57C408.668 500.915 411.235 501.857 411.718 505.575C412.285 510.02 406.871 515.847 402 516.968C400.205 517.381 398.068 516.78 396.937 515.75C396.719 515.557 396.455 515.181 396.205 514.678C395.135 512.578 394.319 508.208 398.647 504.959C400.848 503.292 403.336 502.035 405.548 501.57Z" fill="#F6F7FB"/>
<path d="M382.828 532.589C386.79 531.065 390.404 531.515 390.98 535.991C391.548 540.436 386.133 546.263 381.263 547.384C379.467 547.797 377.331 547.196 376.199 546.166C375.777 545.784 375.156 544.736 374.822 543.363C374.271 541.074 374.537 537.896 377.895 535.372C379.471 534.188 381.172 533.22 382.828 532.589Z" fill="#F6F7FB"/>
<path d="M360.595 563.498C363.32 561.947 366.011 562.064 367.619 565.395C369.575 569.439 366.276 576.686 362.005 579.283C360.42 580.248 358.215 580.354 356.804 579.739C355.91 579.339 353.838 577.264 353.512 574.346C353.329 572.745 353.661 570.911 355.016 568.956C356.61 566.635 358.611 564.635 360.595 563.498Z" fill="#F6F7FB"/>
</svg>
