<svg width="90" height="27" viewBox="0 0 90 27" fill="none" xmlns="http://www.w3.org/2000/svg">
<path d="M82.833 8.691e-05H7.17109C6.89529 8.691e-05 6.6228 8.691e-05 6.34773 0.00142399C6.11748 0.00276106 5.88905 0.00664527 5.65659 0.00991442C5.15156 0.0151971 4.64772 0.0546906 4.14944 0.128052C3.65187 0.20301 3.16988 0.344328 2.71978 0.547225C2.27023 0.751839 1.85946 1.01771 1.50238 1.3352C1.14343 1.6518 0.844211 2.01775 0.616238 2.41897C0.387635 2.81939 0.229122 3.24847 0.146172 3.69141C0.062433 4.13378 0.0173724 4.58126 0.0113944 5.02982C0.00441486 5.23479 0.0036778 5.44045 0 5.64545V21.0982C0.0036778 21.3058 0.00441486 21.5069 0.0113944 21.7145C0.0173743 22.1631 0.0624348 22.6105 0.146172 23.0529C0.228893 23.4961 0.387416 23.9254 0.616238 24.326C0.844107 24.7259 1.14337 25.0904 1.50238 25.4052C1.85811 25.7241 2.26914 25.9902 2.71978 26.1932C3.16987 26.3967 3.65181 26.5388 4.14944 26.6149C4.6478 26.6877 5.15159 26.7272 5.65659 26.7331C5.88905 26.7377 6.11748 26.7403 6.34773 26.7403C6.62279 26.7416 6.8953 26.7416 7.17109 26.7416H82.833C83.1033 26.7416 83.3779 26.7416 83.6482 26.7403C83.8774 26.7403 84.1124 26.7377 84.3416 26.7331C84.8456 26.7275 85.3485 26.688 85.8458 26.6149C86.3451 26.5383 86.8287 26.3962 87.281 26.1932C87.7312 25.99 88.1419 25.724 88.4973 25.4052C88.8554 25.0891 89.1553 24.7249 89.386 24.326C89.6131 23.9251 89.7701 23.4958 89.8516 23.0529C89.9355 22.6105 89.9821 22.1631 89.9912 21.7145C89.9941 21.5069 89.9941 21.3058 89.9941 21.0982C90 20.8553 90 20.6138 90 20.367V6.37535C90 6.13053 90 5.88766 89.9941 5.64545C89.9941 5.44045 89.9941 5.23479 89.9912 5.02979C89.9821 4.58119 89.9355 4.13382 89.8516 3.69138C89.7699 3.2487 89.6129 2.81965 89.386 2.41894C88.9217 1.61474 88.1855 0.960125 87.281 0.547165C86.8287 0.344763 86.345 0.203483 85.8458 0.127992C85.3486 0.0543072 84.8457 0.0147999 84.3416 0.00982083C84.1124 0.00655836 83.8774 0.00264073 83.6482 0.00133708C83.3779 0 83.1033 8.691e-05 82.833 8.691e-05Z" fill="#A6A6A6"/>
<path d="M6.35008 26.1568C6.12093 26.1568 5.89731 26.1542 5.66996 26.1496C5.19898 26.1442 4.7291 26.1077 4.26417 26.0406C3.83065 25.9742 3.41068 25.8508 3.01813 25.6743C2.62917 25.4993 2.27441 25.2698 1.96743 24.9947C1.65602 24.7228 1.39675 24.4074 1.1999 24.0611C1.00089 23.7125 0.863158 23.3388 0.79151 22.9532C0.714136 22.5387 0.672274 22.1197 0.666284 21.6996C0.661516 21.5587 0.655273 21.0892 0.655273 21.0892V5.6456C0.655273 5.6456 0.661922 5.18336 0.666322 5.04756C0.672057 4.62818 0.713676 4.20979 0.790818 3.79601C0.862598 3.40928 1.00043 3.03456 1.19956 2.68484C1.39568 2.33874 1.65351 2.02314 1.96305 1.75025C2.27224 1.47478 2.62814 1.24412 3.01776 1.06669C3.40941 0.89079 3.82858 0.768206 4.26123 0.703048C4.72768 0.635236 5.19919 0.598573 5.67181 0.593368L6.35045 0.585205H83.6432L84.33 0.593696C84.7983 0.598642 85.2655 0.634978 85.7277 0.702393C86.1647 0.768368 86.5883 0.891807 86.9844 1.06865C87.7649 1.42622 88.4001 1.99192 88.8007 2.68647C88.9967 3.03378 89.1324 3.40544 89.2033 3.78883C89.2813 4.206 89.325 4.62768 89.334 5.05051C89.3362 5.23984 89.3362 5.4432 89.3362 5.6456C89.3421 5.8963 89.3421 6.13492 89.3421 6.3755V20.3671C89.3421 20.61 89.3421 20.847 89.3362 21.0859C89.3362 21.3033 89.3362 21.5025 89.3332 21.7075C89.3244 22.1227 89.2815 22.5369 89.2047 22.9466C89.1345 23.3351 88.9975 23.7116 88.7985 24.0631C88.6003 24.4056 88.3425 24.7183 88.0347 24.9895C87.7275 25.2661 87.3721 25.4969 86.9822 25.673C86.5872 25.8509 86.1643 25.9748 85.7277 26.0406C85.2628 26.1081 84.7929 26.1445 84.3219 26.1496C84.1016 26.1542 83.8709 26.1568 83.6469 26.1568L82.8316 26.1581L6.35008 26.1568Z" fill="black"/>
<path d="M21.5586 13.5721C21.5658 13.0141 21.714 12.467 21.9894 11.9816C22.2649 11.4963 22.6586 11.0885 23.134 10.7963C22.832 10.365 22.4336 10.01 21.9704 9.75961C21.5073 9.5092 20.9921 9.37025 20.4658 9.35379C19.3432 9.23595 18.2548 10.0256 17.6827 10.0256C17.0996 10.0256 16.2188 9.36549 15.2703 9.385C14.6568 9.40482 14.0589 9.58322 13.5349 9.90282C13.0108 10.2224 12.5785 10.6723 12.28 11.2087C10.987 13.4472 11.9515 16.7371 13.19 18.5466C13.8097 19.4327 14.5339 20.4224 15.4815 20.3873C16.4088 20.3488 16.7551 19.796 17.8745 19.796C18.9834 19.796 19.3084 20.3873 20.2752 20.365C21.2702 20.3488 21.8972 19.475 22.4951 18.5806C22.9403 17.9492 23.2829 17.2515 23.5102 16.5131C22.9321 16.2686 22.4388 15.8593 22.0917 15.3363C21.7447 14.8133 21.5593 14.1998 21.5586 13.5721Z" fill="white"/>
<path d="M19.732 8.16369C20.2745 7.5124 20.5418 6.67527 20.4771 5.83008C19.6482 5.91714 18.8825 6.31328 18.3327 6.93959C18.0638 7.24556 17.8579 7.60151 17.7267 7.9871C17.5955 8.3727 17.5416 8.78037 17.5681 9.18681C17.9827 9.19108 18.3928 9.10122 18.7676 8.924C19.1425 8.74677 19.4722 8.48681 19.732 8.16369Z" fill="white"/>
<path d="M33.2794 18.1444H30.1149L29.355 20.3883H28.0146L31.012 12.0864H32.4045L35.4019 20.3883H34.0387L33.2794 18.1444ZM30.4427 17.109H32.951L31.7145 13.4673H31.6799L30.4427 17.109Z" fill="white"/>
<path d="M41.8754 17.3619C41.8754 19.2428 40.8686 20.4513 39.3494 20.4513C38.9646 20.4714 38.5818 20.3828 38.245 20.1955C37.9082 20.0082 37.631 19.7298 37.445 19.3923H37.4162V22.3903H36.1738V14.3352H37.3764V15.3419H37.3993C37.5938 15.006 37.8757 14.7291 38.2151 14.5407C38.5545 14.3523 38.9386 14.2594 39.3266 14.2719C40.8627 14.2719 41.8754 15.4862 41.8754 17.3619ZM40.5983 17.3619C40.5983 16.1365 39.9651 15.3308 38.9988 15.3308C38.0495 15.3308 37.411 16.1534 37.411 17.3619C37.411 18.5815 38.0495 19.3982 38.9988 19.3982C39.9651 19.3982 40.5983 18.5984 40.5983 17.3619Z" fill="white"/>
<path d="M48.5384 17.3619C48.5384 19.2428 47.5317 20.4513 46.0125 20.4513C45.6276 20.4714 45.2449 20.3828 44.9081 20.1955C44.5713 20.0082 44.294 19.7298 44.1081 19.3923H44.0793V22.3903H42.8369V14.3352H44.0395V15.3419H44.0623C44.2569 15.006 44.5388 14.7291 44.8782 14.5407C45.2175 14.3523 45.6017 14.2594 45.9896 14.2719C47.5258 14.2719 48.5384 15.4862 48.5384 17.3619ZM47.2614 17.3619C47.2614 16.1365 46.6281 15.3308 45.6619 15.3308C44.7126 15.3308 44.0741 16.1534 44.0741 17.3619C44.0741 18.5815 44.7126 19.3982 45.6619 19.3982C46.6281 19.3982 47.2614 18.5984 47.2614 17.3619Z" fill="white"/>
<path d="M52.9408 18.075C53.0328 18.8982 53.8326 19.4388 54.9255 19.4388C55.9727 19.4388 56.7261 18.8982 56.7261 18.1559C56.7261 17.5115 56.2717 17.1257 55.1958 16.8613L54.1198 16.6021C52.5954 16.2338 51.8877 15.5209 51.8877 14.364C51.8877 12.9316 53.136 11.9478 54.9085 11.9478C56.6627 11.9478 57.8653 12.9316 57.9058 14.364H56.6516C56.5766 13.5355 55.8917 13.0354 54.8909 13.0354C53.89 13.0354 53.2052 13.5414 53.2052 14.2778C53.2052 14.8648 53.6426 15.2101 54.7126 15.4745L55.6273 15.6991C57.3306 16.1019 58.0383 16.7862 58.0383 18.0005C58.0383 19.5537 56.8012 20.5264 54.8334 20.5264C52.9923 20.5264 51.7493 19.5765 51.6689 18.0749L52.9408 18.075Z" fill="white"/>
<path d="M60.7182 12.9028V14.3352H61.8692V15.3191H60.7182V18.6559C60.7182 19.1743 60.9487 19.4159 61.4546 19.4159C61.5913 19.4135 61.7277 19.4039 61.8633 19.3871V20.3651C61.6358 20.4076 61.4046 20.4269 61.1732 20.4226C59.9478 20.4226 59.4699 19.9623 59.4699 18.7884V15.3191H58.5898V14.3352H59.4699V12.9028H60.7182Z" fill="white"/>
<path d="M62.5371 17.3619C62.5371 15.4575 63.6587 14.2607 65.4078 14.2607C67.1627 14.2607 68.2791 15.4574 68.2791 17.3619C68.2791 19.2715 67.1686 20.463 65.4078 20.463C63.6476 20.463 62.5371 19.2715 62.5371 17.3619ZM67.0132 17.3619C67.0132 16.0555 66.4145 15.2844 65.4078 15.2844C64.401 15.2844 63.803 16.0614 63.803 17.3619C63.803 18.6735 64.401 19.4387 65.4078 19.4387C66.4145 19.4387 67.0132 18.6735 67.0132 17.3619Z" fill="white"/>
<path d="M69.3027 14.3351H70.4877V15.3654H70.5164C70.5966 15.0436 70.7851 14.7593 71.0502 14.5601C71.3154 14.361 71.641 14.2592 71.9723 14.2718C72.1155 14.2713 72.2583 14.2869 72.398 14.3182V15.4803C72.2173 15.425 72.0287 15.3997 71.8398 15.4052C71.6593 15.3979 71.4794 15.4297 71.3123 15.4985C71.1453 15.5673 70.9951 15.6714 70.8721 15.8037C70.7491 15.936 70.6562 16.0933 70.5998 16.2649C70.5433 16.4365 70.5247 16.6183 70.5451 16.7978V20.3879H69.3027L69.3027 14.3351Z" fill="white"/>
<path d="M78.1269 18.6102C77.9598 19.7089 76.8897 20.463 75.5207 20.463C73.7599 20.463 72.667 19.2833 72.667 17.3906C72.667 15.4921 73.7658 14.2607 75.4685 14.2607C77.1431 14.2607 78.1961 15.4111 78.1961 17.2463V17.672H73.9212V17.7471C73.9014 17.9698 73.9293 18.1942 74.003 18.4054C74.0766 18.6165 74.1944 18.8096 74.3484 18.9717C74.5024 19.1339 74.6891 19.2614 74.8962 19.3459C75.1033 19.4303 75.3259 19.4697 75.5494 19.4615C75.843 19.489 76.1376 19.421 76.3895 19.2676C76.6413 19.1142 76.8369 18.8836 76.9472 18.6102L78.1269 18.6102ZM73.927 16.8037H76.9531C76.9642 16.6034 76.9339 16.4029 76.8639 16.2149C76.7939 16.0269 76.6858 15.8554 76.5464 15.7112C76.407 15.5669 76.2393 15.4531 76.0538 15.3767C75.8683 15.3003 75.669 15.2632 75.4685 15.2675C75.2661 15.2663 75.0656 15.3051 74.8784 15.3818C74.6911 15.4586 74.521 15.5716 74.3777 15.7144C74.2344 15.8572 74.1207 16.027 74.0434 16.214C73.9661 16.4009 73.9265 16.6013 73.927 16.8037Z" fill="white"/>
<path d="M28.6855 7.83325C28.6855 6.53959 29.3737 5.74048 30.4822 5.74048C30.8818 5.72069 31.2742 5.85186 31.5815 6.10796C31.8888 6.36406 32.0886 6.72636 32.1412 7.12293H31.5242C31.4725 6.88791 31.3397 6.67856 31.1493 6.53148C30.9588 6.38439 30.7227 6.30892 30.4822 6.31827C29.766 6.31827 29.3182 6.90161 29.3182 7.83325C29.3182 8.76228 29.766 9.3453 30.4849 9.3453C30.7165 9.36264 30.947 9.29874 31.1367 9.16458C31.3264 9.03042 31.4634 8.83439 31.5242 8.61016H32.1412C32.081 8.99729 31.8771 9.34749 31.57 9.59086C31.263 9.83422 30.8755 9.95286 30.4849 9.92309C29.3763 9.92309 28.6855 9.1243 28.6855 7.83325Z" fill="white"/>
<path d="M32.8192 8.31977C32.8003 8.12194 32.8229 7.92233 32.8857 7.73376C32.9484 7.54519 33.0498 7.37181 33.1835 7.22474C33.3172 7.07767 33.4801 6.96017 33.6619 6.87976C33.8436 6.79935 34.0401 6.75781 34.2389 6.75781C34.4376 6.75781 34.6342 6.79935 34.8159 6.87976C34.9976 6.96017 35.1606 7.07767 35.2942 7.22474C35.4279 7.37181 35.5294 7.54519 35.5921 7.73376C35.6548 7.92233 35.6775 8.12194 35.6585 8.31977C35.6778 8.51781 35.6555 8.71769 35.5929 8.90657C35.5303 9.09544 35.4289 9.26914 35.2952 9.4165C35.1615 9.56385 34.9985 9.68161 34.8165 9.76219C34.6346 9.84277 34.4379 9.8844 34.2389 9.8844C34.0399 9.8844 33.8431 9.84277 33.6612 9.76219C33.4793 9.68161 33.3162 9.56385 33.1825 9.4165C33.0488 9.26914 32.9474 9.09544 32.8849 8.90657C32.8223 8.71769 32.7999 8.51781 32.8192 8.31977ZM35.0475 8.31977C35.0475 7.66723 34.7543 7.28563 34.2399 7.28563C33.7234 7.28563 33.4329 7.66723 33.4329 8.31978C33.4329 8.97755 33.7235 9.35621 34.2399 9.35621C34.7543 9.3562 35.0475 8.97492 35.0475 8.31977Z" fill="white"/>
<path d="M36.4561 6.81596H37.028V7.29418H37.0724C37.1477 7.12242 37.2747 6.97844 37.4357 6.8823C37.5968 6.78616 37.7838 6.74265 37.9707 6.75785C38.1172 6.74683 38.2643 6.76892 38.401 6.82247C38.5378 6.87601 38.6608 6.95965 38.7609 7.06718C38.8609 7.17471 38.9355 7.30338 38.9791 7.44365C39.0227 7.58392 39.0342 7.73221 39.0127 7.87751V9.8263H38.4186V8.02671C38.4186 7.54293 38.2084 7.30234 37.769 7.30234C37.6695 7.29771 37.5703 7.31464 37.478 7.35196C37.3857 7.38929 37.3025 7.44613 37.2342 7.51859C37.166 7.59105 37.1142 7.67741 37.0824 7.77176C37.0506 7.86611 37.0396 7.96622 37.0502 8.06522V9.82634H36.4561V6.81596Z" fill="white"/>
<path d="M41.0312 6.75781C41.7082 6.75781 42.1508 7.07282 42.2089 7.60361H41.639C41.5842 7.38261 41.368 7.24159 41.0312 7.24159C40.6995 7.24159 40.4475 7.39893 40.4475 7.63397C40.4475 7.8138 40.5996 7.92711 40.9261 8.00185L41.4261 8.11774C41.9987 8.2506 42.267 8.49673 42.267 8.93905C42.267 9.50574 41.7389 9.8844 41.0201 9.8844C40.3039 9.8844 39.8371 9.56091 39.7842 9.02751H40.379C40.4302 9.15447 40.5226 9.26052 40.6414 9.32865C40.7601 9.39679 40.8983 9.42305 41.0338 9.40323C41.404 9.40323 41.6671 9.23743 41.6671 8.99682C41.6671 8.81728 41.5261 8.70107 41.2244 8.62926L40.6995 8.5075C40.127 8.37202 39.8619 8.11513 39.8619 7.66725C39.8619 7.13354 40.3509 6.75781 41.0312 6.75781Z" fill="white"/>
<path d="M43.0176 6.31223L43.7116 5.36133H44.4082L43.6313 6.31223H43.0176ZM43.079 6.81559H43.6705V9.82597H43.079V6.81559Z" fill="white"/>
<path d="M44.5944 10.1274H45.2022C45.2525 10.3458 45.5039 10.4868 45.9047 10.4868C46.3996 10.4868 46.6927 10.2518 46.6927 9.85384V9.27605H46.6483C46.5551 9.43779 46.4191 9.57061 46.2551 9.65985C46.0912 9.74909 45.9057 9.79125 45.7193 9.7817C44.9509 9.7817 44.4756 9.18759 44.4756 8.2863C44.4756 7.3684 44.9561 6.76577 45.7252 6.76577C45.9163 6.75911 46.1055 6.8051 46.2722 6.89871C46.4389 6.99232 46.5767 7.12995 46.6705 7.29655H46.7175V6.81572H47.2868V9.85088C47.2868 10.5393 46.7476 10.9761 45.8962 10.9761C45.1441 10.9761 44.6577 10.6389 44.5944 10.1274ZM46.7038 8.28336C46.7038 7.68368 46.3937 7.29949 45.8877 7.29949C45.3765 7.29949 45.0893 7.6837 45.0893 8.28336C45.0893 8.88335 45.3765 9.26757 45.8877 9.26757C46.397 9.26756 46.7038 8.88629 46.7038 8.28336Z" fill="white"/>
<path d="M50.7723 9.8263H50.1997V9.34807H50.1527C50.0766 9.52162 49.9478 9.66681 49.7846 9.76307C49.6214 9.85933 49.432 9.90178 49.2433 9.88441C49.0977 9.89474 48.9516 9.87234 48.8158 9.81885C48.68 9.76536 48.5578 9.68214 48.4584 9.57529C48.3589 9.46845 48.2846 9.34069 48.241 9.20139C48.1974 9.06209 48.1855 8.91478 48.2062 8.77029V6.81592H48.8013V8.61555C48.8013 9.10194 48.9972 9.33436 49.4339 9.33436C49.5352 9.34397 49.6373 9.33085 49.7329 9.29597C49.8284 9.26108 49.915 9.2053 49.9862 9.1327C50.0575 9.06011 50.1116 8.97252 50.1447 8.87633C50.1778 8.78014 50.189 8.67778 50.1775 8.57671V6.81592H50.7723V9.8263Z" fill="white"/>
<path d="M54.2655 9.01353C54.1848 9.28866 54.0099 9.52665 53.7714 9.68586C53.533 9.84507 53.2461 9.91537 52.9611 9.88446C52.7627 9.88969 52.5656 9.8517 52.3835 9.77313C52.2013 9.69456 52.0384 9.57728 51.9061 9.42944C51.7738 9.2816 51.6752 9.10674 51.6173 8.917C51.5593 8.72725 51.5433 8.52716 51.5705 8.33063C51.544 8.13348 51.5603 7.93297 51.6181 7.74265C51.6759 7.55234 51.774 7.37667 51.9056 7.22754C52.0372 7.0784 52.1993 6.95929 52.381 6.87826C52.5626 6.79722 52.7596 6.75617 52.9585 6.75786C53.7961 6.75786 54.3014 7.33013 54.3014 8.27544V8.48276H52.1757V8.51605C52.1663 8.62652 52.1802 8.73772 52.2164 8.84252C52.2526 8.94731 52.3103 9.04338 52.3858 9.12458C52.4612 9.20578 52.5529 9.27031 52.6547 9.31403C52.7566 9.35775 52.8665 9.3797 52.9774 9.37847C53.1195 9.39553 53.2635 9.36994 53.391 9.30495C53.5185 9.23996 53.6239 9.13852 53.6936 9.01351L54.2655 9.01353ZM52.1757 8.04337H53.6962C53.7037 7.94233 53.6899 7.84085 53.6559 7.74544C53.6218 7.65002 53.5682 7.56279 53.4984 7.48935C53.4286 7.41591 53.3442 7.35787 53.2507 7.31898C53.1571 7.28009 53.0565 7.2612 52.9552 7.26352C52.8524 7.26223 52.7504 7.28152 52.6553 7.32025C52.5601 7.35899 52.4736 7.41639 52.401 7.48907C52.3283 7.56175 52.271 7.64824 52.2323 7.74344C52.1936 7.83863 52.1743 7.94061 52.1757 8.04337Z" fill="white"/>
<path d="M55.126 5.64087H55.7201V9.82641H55.126V5.64087Z" fill="white"/>
<path d="M56.5458 8.31977C56.5269 8.12194 56.5495 7.92233 56.6122 7.73376C56.675 7.54519 56.7764 7.37181 56.9101 7.22474C57.0437 7.07767 57.2067 6.96017 57.3884 6.87976C57.5702 6.79935 57.7667 6.75781 57.9654 6.75781C58.1642 6.75781 58.3607 6.79935 58.5425 6.87976C58.7242 6.96017 58.8871 7.07767 59.0208 7.22474C59.1545 7.37181 59.2559 7.54519 59.3187 7.73376C59.3814 7.92233 59.404 8.12194 59.3851 8.31977C59.4044 8.51781 59.382 8.71769 59.3195 8.90657C59.2569 9.09544 59.1555 9.26914 59.0218 9.4165C58.8881 9.56385 58.725 9.68161 58.5431 9.76219C58.3612 9.84277 58.1644 9.8844 57.9654 9.8844C57.7665 9.8844 57.5697 9.84277 57.3878 9.76219C57.2059 9.68161 57.0428 9.56385 56.9091 9.4165C56.7754 9.26914 56.674 9.09544 56.6114 8.90657C56.5489 8.71769 56.5265 8.51781 56.5458 8.31977ZM58.774 8.31977C58.774 7.66723 58.4809 7.28563 57.9664 7.28563C57.45 7.28563 57.1595 7.66723 57.1595 8.31978C57.1595 8.97755 57.45 9.35621 57.9664 9.35621C58.4809 9.3562 58.774 8.97492 58.774 8.31977Z" fill="white"/>
<path d="M64.3612 9.01353C64.2805 9.28866 64.1056 9.52665 63.8671 9.68586C63.6287 9.84507 63.3418 9.91537 63.0568 9.88446C62.8584 9.88969 62.6613 9.8517 62.4792 9.77313C62.297 9.69456 62.1341 9.57728 62.0018 9.42944C61.8695 9.2816 61.7709 9.10674 61.713 8.917C61.655 8.72725 61.639 8.52716 61.6662 8.33063C61.6397 8.13348 61.656 7.93297 61.7138 7.74265C61.7716 7.55234 61.8697 7.37667 62.0013 7.22754C62.1329 7.0784 62.295 6.95929 62.4767 6.87826C62.6583 6.79722 62.8553 6.75617 63.0542 6.75786C63.8918 6.75786 64.3971 7.33013 64.3971 8.27544V8.48276H62.2714V8.51605C62.2621 8.62652 62.276 8.73772 62.3121 8.84252C62.3483 8.94731 62.406 9.04338 62.4815 9.12458C62.557 9.20578 62.6486 9.27031 62.7505 9.31403C62.8524 9.35775 62.9622 9.3797 63.0731 9.37847C63.2152 9.39553 63.3592 9.36994 63.4867 9.30495C63.6143 9.23996 63.7196 9.13852 63.7893 9.01351L64.3612 9.01353ZM62.2714 8.04337H63.7919C63.7994 7.94233 63.7857 7.84085 63.7516 7.74544C63.7176 7.65002 63.6639 7.56279 63.5941 7.48935C63.5243 7.41591 63.44 7.35787 63.3464 7.31898C63.2529 7.28009 63.1522 7.2612 63.0509 7.26352C62.9482 7.26222 62.8462 7.28151 62.751 7.32025C62.6558 7.35898 62.5694 7.41638 62.4967 7.48906C62.424 7.56174 62.3667 7.64823 62.328 7.74343C62.2893 7.83863 62.27 7.94061 62.2714 8.04337Z" fill="white"/>
<path d="M65.1963 6.81596H65.7682V7.29418H65.8126C65.8879 7.12242 66.0149 6.97844 66.176 6.8823C66.337 6.78616 66.524 6.74265 66.711 6.75785C66.8574 6.74683 67.0045 6.76892 67.1413 6.82247C67.2781 6.87601 67.401 6.95965 67.5011 7.06718C67.6012 7.17471 67.6758 7.30338 67.7194 7.44365C67.763 7.58392 67.7744 7.73221 67.7529 7.87751V9.8263H67.1588V8.02671C67.1588 7.54293 66.9486 7.30234 66.5092 7.30234C66.4098 7.29771 66.3105 7.31464 66.2182 7.35196C66.1259 7.38929 66.0428 7.44613 65.9745 7.51859C65.9062 7.59105 65.8544 7.67741 65.8226 7.77176C65.7909 7.86611 65.7799 7.96622 65.7904 8.06522V9.82634H65.1963V6.81596Z" fill="white"/>
<path d="M72.8495 9.01353C72.7688 9.28866 72.5939 9.52665 72.3554 9.68586C72.117 9.84507 71.8301 9.91537 71.5451 9.88446C71.3467 9.88969 71.1496 9.8517 70.9675 9.77313C70.7853 9.69456 70.6224 9.57728 70.4901 9.42944C70.3578 9.2816 70.2592 9.10674 70.2012 8.917C70.1433 8.72725 70.1273 8.52716 70.1544 8.33063C70.128 8.13348 70.1443 7.93297 70.2021 7.74265C70.2599 7.55234 70.358 7.37667 70.4896 7.22754C70.6212 7.0784 70.7833 6.95929 70.965 6.87826C71.1466 6.79722 71.3435 6.75617 71.5424 6.75786C72.3801 6.75786 72.8854 7.33013 72.8854 8.27544V8.48276H70.7597V8.51605C70.7504 8.62652 70.7642 8.73772 70.8004 8.84252C70.8366 8.94731 70.8943 9.04338 70.9698 9.12458C71.0453 9.20578 71.1369 9.27031 71.2388 9.31403C71.3406 9.35775 71.4505 9.3797 71.5614 9.37847C71.7035 9.39553 71.8475 9.36994 71.975 9.30495C72.1025 9.23996 72.2079 9.13852 72.2776 9.01351L72.8495 9.01353ZM70.7596 8.04337H72.2802C72.2877 7.94233 72.2739 7.84085 72.2399 7.74544C72.2058 7.65002 72.1521 7.56279 72.0824 7.48935C72.0126 7.41591 71.9282 7.35787 71.8346 7.31898C71.7411 7.28009 71.6404 7.2612 71.5392 7.26352C71.4364 7.26223 71.3344 7.28152 71.2393 7.32026C71.1441 7.359 71.0576 7.4164 70.985 7.48908C70.9123 7.56176 70.855 7.64824 70.8163 7.74344C70.7776 7.83864 70.7583 7.94062 70.7596 8.04337Z" fill="white"/>
<path d="M73.7119 5.64087H74.306V9.82641H73.7119V5.64087Z" fill="white"/>
</svg>
