<?xml version="1.0" encoding="utf-8"?>
<!-- Generator: Adobe Illustrator 16.0.4, SVG Export Plug-In . SVG Version: 6.00 Build 0)  -->
<!DOCTYPE svg PUBLIC "-//W3C//DTD SVG 1.1//EN" "http://www.w3.org/Graphics/SVG/1.1/DTD/svg11.dtd">
<svg version="1.1" id="Layer_1" xmlns="http://www.w3.org/2000/svg" xmlns:xlink="http://www.w3.org/1999/xlink" x="0px" y="0px"
	 width="198.795px" height="122.198px" viewBox="0 0 198.795 122.198" enable-background="new 0 0 198.795 122.198"
	 xml:space="preserve">
<rect x="88.222" y="88.29" fill="#77BC1F" width="45.275" height="33.908"/>
<rect x="88.222" y="48.901" fill="#008AAB" width="110.573" height="33.884"/>
<rect fill="#AA198D" width="82.783" height="82.785"/>
<g>
	<path fill="#FFFFFF" d="M10.383,70.011l1.822-2.178c1.181,0.929,2.463,1.417,3.829,1.417c0.895,0,1.367-0.304,1.367-0.81v-0.033
		c0-0.506-0.388-0.759-2.007-1.146c-2.513-0.574-4.454-1.282-4.454-3.694v-0.034c0-2.193,1.738-3.778,4.572-3.778
		c2.007,0,3.576,0.54,4.858,1.569l-1.636,2.31c-1.08-0.775-2.26-1.163-3.306-1.163c-0.793,0-1.181,0.32-1.181,0.759v0.033
		c0,0.54,0.405,0.776,2.059,1.147c2.699,0.59,4.386,1.468,4.386,3.678v0.033c0,2.412-1.906,3.847-4.774,3.847
		C13.825,71.967,11.851,71.309,10.383,70.011z"/>
	<path fill="#FFFFFF" d="M22.618,59.957h3.458l2.817,4.572l2.817-4.572h3.458v11.809h-3.256v-6.781l-3.02,4.621h-0.068L25.823,65
		v6.766h-3.205V59.957z"/>
	<path fill="#FFFFFF" d="M41.686,59.873h3.155l5.027,11.893h-3.509l-0.844-2.125h-4.571l-0.843,2.125h-3.424L41.686,59.873z
		 M44.554,67.091l-1.315-3.34l-1.333,3.34H44.554z"/>
	<path fill="#FFFFFF" d="M51.695,59.957h3.272v8.94h5.718v2.868h-8.991V59.957z"/>
	<path fill="#FFFFFF" d="M62.782,59.957h3.273v8.94h5.718v2.868h-8.991V59.957z"/>
</g>
<g>
	<path fill="#FFFFFF" d="M99.232,59.911h6.086c1.492,0,2.543,0.373,3.238,1.052c0.475,0.491,0.763,1.118,0.763,1.933v0.033
		c0,1.374-0.78,2.188-1.831,2.645c1.44,0.476,2.356,1.289,2.356,2.899v0.034c0,2.034-1.662,3.271-4.492,3.271h-6.12V59.911z
		 M106.081,63.573c0-0.661-0.525-1.018-1.491-1.018h-2.154v2.086h2.068c1.001,0,1.577-0.339,1.577-1.034V63.573z M104.945,66.947
		h-2.51v2.187h2.543c1.018,0,1.577-0.39,1.577-1.085v-0.034C106.555,67.371,106.046,66.947,104.945,66.947z"/>
	<path fill="#FFFFFF" d="M111.559,66.574v-6.663h3.322v6.595c0,1.713,0.864,2.526,2.187,2.526c1.339,0,2.204-0.78,2.204-2.441v-6.68
		h3.322v6.578c0,3.814-2.187,5.51-5.56,5.51C113.677,71.999,111.559,70.286,111.559,66.574z"/>
	<path fill="#FFFFFF" d="M123.987,70.015l1.831-2.188c1.187,0.933,2.476,1.424,3.848,1.424c0.899,0,1.374-0.305,1.374-0.813v-0.034
		c0-0.508-0.391-0.763-2.018-1.152c-2.525-0.576-4.476-1.288-4.476-3.713v-0.033c0-2.204,1.746-3.798,4.594-3.798
		c2.018,0,3.595,0.543,4.883,1.577l-1.645,2.322c-1.085-0.78-2.271-1.17-3.322-1.17c-0.797,0-1.188,0.322-1.188,0.763v0.034
		c0,0.542,0.407,0.779,2.068,1.152c2.713,0.594,4.408,1.476,4.408,3.696v0.033c0,2.425-1.916,3.865-4.798,3.865
		C127.445,71.981,125.461,71.32,123.987,70.015z"/>
	<path fill="#FFFFFF" d="M136.365,59.911h3.288v11.867h-3.288V59.911z"/>
	<path fill="#FFFFFF" d="M141.824,59.911h3.069l4.882,6.272v-6.272h3.255v11.867h-2.865l-5.086-6.51v6.51h-3.255V59.911z"/>
	<path fill="#FFFFFF" d="M155.134,59.911h9.544v2.78h-6.289v1.814h5.696v2.594h-5.696v1.882h6.374v2.797h-9.629V59.911z"/>
	<path fill="#FFFFFF" d="M166.24,70.015l1.831-2.188c1.187,0.933,2.475,1.424,3.848,1.424c0.898,0,1.373-0.305,1.373-0.813v-0.034
		c0-0.508-0.39-0.763-2.017-1.152c-2.526-0.576-4.476-1.288-4.476-3.713v-0.033c0-2.204,1.746-3.798,4.595-3.798
		c2.017,0,3.593,0.543,4.882,1.577l-1.645,2.322c-1.085-0.78-2.271-1.17-3.322-1.17c-0.797,0-1.187,0.322-1.187,0.763v0.034
		c0,0.542,0.406,0.779,2.067,1.152c2.713,0.594,4.408,1.476,4.408,3.696v0.033c0,2.425-1.916,3.865-4.798,3.865
		C169.698,71.981,167.714,71.32,166.24,70.015z"/>
	<path fill="#FFFFFF" d="M177.803,70.015l1.831-2.188c1.187,0.933,2.476,1.424,3.848,1.424c0.899,0,1.374-0.305,1.374-0.813v-0.034
		c0-0.508-0.391-0.763-2.018-1.152c-2.525-0.576-4.476-1.288-4.476-3.713v-0.033c0-2.204,1.746-3.798,4.594-3.798
		c2.018,0,3.595,0.543,4.883,1.577l-1.645,2.322c-1.085-0.78-2.271-1.17-3.322-1.17c-0.797,0-1.188,0.322-1.188,0.763v0.034
		c0,0.542,0.407,0.779,2.068,1.152c2.713,0.594,4.408,1.476,4.408,3.696v0.033c0,2.425-1.916,3.865-4.798,3.865
		C181.261,71.981,179.278,71.32,177.803,70.015z"/>
</g>
<g>
	<path fill="#FFFFFF" d="M99.232,99.342h6.074c1.489,0,2.539,0.373,3.233,1.05c0.473,0.49,0.761,1.116,0.761,1.929v0.034
		c0,1.37-0.778,2.183-1.827,2.64c1.438,0.474,2.352,1.286,2.352,2.894v0.034c0,2.03-1.658,3.266-4.484,3.266h-6.108V99.342z
		 M106.069,102.998c0-0.66-0.525-1.015-1.49-1.015h-2.148v2.081h2.064c0.999,0,1.574-0.339,1.574-1.032V102.998z M104.935,106.365
		h-2.505v2.184h2.538c1.016,0,1.573-0.39,1.573-1.083v-0.034C106.542,106.789,106.035,106.365,104.935,106.365z"/>
	<path fill="#FFFFFF" d="M111.285,105.299v-0.034c0-3.452,2.64-6.159,6.227-6.159c2.42,0,3.978,1.015,5.026,2.453l-2.471,1.912
		c-0.677-0.829-1.455-1.388-2.589-1.388c-1.659,0-2.826,1.422-2.826,3.147v0.034c0,1.777,1.167,3.165,2.826,3.165
		c1.235,0,1.963-0.576,2.674-1.438l2.471,1.76c-1.117,1.54-2.623,2.674-5.229,2.674
		C114.008,111.425,111.285,108.835,111.285,105.299z"/>
</g>
</svg>
