<svg width="1614" height="596" xmlns="http://www.w3.org/2000/svg"><g fill="none"><g transform="rotate(14 -277.91 5677.707)"><ellipse fill="#FF6400" cx="56.957" cy="56.625" rx="56.957" ry="56.625"/><ellipse fill="#FF6400" cx="188.043" cy="56.625" rx="56.957" ry="56.625"/><ellipse fill="#FF6400" cx="188.043" cy="180.375" rx="56.957" ry="56.625"/><path d="M.899 178.88c.24-8.66 1.62-17.277 3.096-25.804a44.156 44.156 0 0 1 4.68-12.66c5.215-9.907 14.754-12.747 24.96-13.888 17.743-1.99 34.791 1.45 52.036 5.308 19.335 4.326 24.07 12.597 26.49 29.564 1.779 12.535.551 25-1.193 37.358-2.233 15.826-12.12 27.918-27.878 32.554-12.039 3.538-18.187 4.273-30.387 2.654-6.38-.885-20.545-4.423-26.694-6.325-11.728-3.592-18.045-8.97-21.462-21.329A92.502 92.502 0 0 1 .899 178.88Z" fill="#FFC299"/><path d="m199.254 186.739.043.337-.88-.122a209.654 209.654 0 0 0-79.29 4.302c-.983.244-1.4 1.1-1.141 2.036.26.942 1.077 1.5 2.067 1.255a204.866 204.866 0 0 1 81.059-3.775c1.17.182 2.354-.555 2.221-1.596a556.702 556.702 0 0 1-3.989-104.244l.107-1.758.119-1.76.158-2.113.216-2.65.27-3.099.79-8.845.26-3.142.124-1.632.104-1.403.064-.647.095-.803.082-.663.06-.515.052-.49.044-.467.036-.444.014-.214.021-.412.012-.393c.041-2.299-.461-3.598-1.882-5.011-1.113-1.111-2.634-1.631-4.737-1.78l-.384-.023-.254-.01-.255-.009-.267-.005-.438-.003-.702.005-.734.01-.657.012-.66.02-.332.013-.67.032-.68.04-.691.047-.706.056-.358.031-.73.069-.372.037-.76.081-.782.09-.808.099-.834.107-1.308.178-1.38.198-3.505.534-3.671.563-1.954.286-1.06.146-1.17.15-.558.068-.715.08-1.086.113a551.482 551.482 0 0 1-50.75 2.709c-.676.005-1.347.006-2.017.003l-1.329-.01-.992-.013-1.338-.027-1.02-.027-1.04-.033-1.423-.052-1.474-.064-1.93-.095-1.213-.065-2.124-.124-2.27-.141-1.934-.127-3.112-.213-5.55-.386-3.115-.206-2.408-.15-2.254-.129-1.705-.089-1.628-.077-1.56-.064-1.502-.053-.732-.021-1.431-.034-1.05-.018-1.034-.011-1.021-.005-1.013.002-.673.005-1.008.012-1.01.02-1.017.025c-4.9.139-7.727 1.6-9.245 4.463l-.13.251a11 11 0 0 0-.122.254l-.117.258-.055.13-.107.264c-.035.09-.069.18-.101.27l-.096.278-.045.142-.088.29-.082.3-.078.31-.037.16-.07.328-.067.342-.062.356-.06.37-.054.388-.052.405-.049.422-.046.443-.043.462-.06.734-.057.786-.069 1.134-.064 1.24-.139 2.98a287.194 287.194 0 0 0 2.338 52.497c.132 1.003.984 1.648 1.982 1.652.93.004 1.544-.542 1.47-1.454l-.012-.11-.05-.373h.027l-.142-1.055a290.463 290.463 0 0 1-2.488-38.755l.007-1.44-.008-1.442-.03-2.92v-.801c.01-2.346.115-4.18.372-5.856 1.011-6.53 3.607-12.347 7.604-14.25.759-.362 1.794-.568 3.126-.636l.43-.017.45-.008.47.001c.161.002.324.005.491.01l.51.019.532.027c.09.005.181.01.273.017l.562.04.582.047.3.027.613.06.315.034.646.072.667.08.688.087 1.026.138.981.14 1.058.157 4.346.674 1.12.165.757.104.673.085.404.046.372.037.34.03.312.02.146.008a549.573 549.573 0 0 0 83.743-2.272l1.904-.203 2.247-.252 1.704-.2 3.924-.48 8.01-1.014c.161-.02.327-.043.5-.069l.576-.09 1.546-.267c.36-.063.698-.117 1.015-.164l.46-.063c1.563-.2 2.617-.169 3.666.148 1.741.526 3.032 1.869 3.923 4.255.262.706.278 1.709.098 3.124l-.063.461a30.88 30.88 0 0 1-.076.49l-.088.518-.097.53-.513 2.69-.046.262-.031.206-.022.175-.033.35a527.271 527.271 0 0 0-2.463 41.216 557.924 557.924 0 0 0 4.076 79.315l.218 1.753.154 1.203c.855.122 1.71.25 2.564.382l-2.77-.411-.132-.02Z" fill="#00162E"/></g><g transform="rotate(9 45.763 328.652)"><path d="M2.454 93.45c-7.968 37.015 6.674 73.136-.787 110.27-3.354 16.72 7.826 26.792 23.448 20.28 11.445-4.782 31.56-21.045 52.261-24.487 31.023-5.152 68.627-6.65 76.825-8.004 37.368-6.309 46.495-55.433 50.258-67.79 8.884-29.31 11.545-53.504-10.48-72.278-34.142-29.106-73.834-39.294-117.547-26.145-23.448 7.037-44.35 17.355-62.554 41.186C5.852 76.989 4.47 86.806 2.433 93.478l.021-.029Z" fill="#7E1EFF"/><ellipse fill="#D3ADFF" cx="147.023" cy="60.16" rx="58.987" ry="60.16"/><path d="M106.185 3.363c-.391-.399-.877-.493-1.293-.262l-.054.032-.73.761C86.838 22.016 78.191 40.892 77.501 62.61c-.694 21.215 8.467 40.372 25.827 54.226 8.584 6.849 20.339 11.84 31.555 13.422 1.663.235 3.239.32 4.89.26l.415-.017.46-.027.23-.016.232-.017.47-.041.48-.048.241-.027.243-.028.496-.063c.221-.03.446-.06.673-.095l.345-.052.526-.084.266-.045.544-.095.557-.103.282-.054.87-.173.6-.125.927-.2.64-.143.656-.15 1.02-.24 2.255-.54 1.152-.27.812-.187.772-.172.734-.158.471-.098.457-.093.445-.087.434-.081.424-.077.414-.07.406-.067.4-.062.394-.056.389-.052.48-.06.573-.062.572-.053.479-.038c3.683-.269 6.945.106 10.085 1.187.179.062.354.124.526.188l.34.13c1.174.463 2.217 1.014 3.423 1.82l.35.237c.118.081.238.165.36.251l.372.268.385.284.4.301.418.32 1.513 1.176.41.312.387.29c.503.371.953.687 1.4.979l.19.124.35.22.167.103.328.197.395.23.376.212c.148.08.291.157.429.227l.135.068.272.132c1.325.62 2.294.772 3.239.504 1.564-.447 2.396-1.491 2.647-3.29l.02-.147.03-.3.017-.202.012-.204.007-.208.004-.212v-.215l-.01-.339-.011-.234-.016-.244-.02-.254-.025-.265-.03-.276-.051-.44-.04-.31-.046-.326-.076-.52-.087-.56-.064-.398-.278-1.679-.062-.39-.083-.553-.073-.52-.053-.409-.045-.39-.037-.367-.03-.35-.01-.136-.015-.263-.01-.249a11.83 11.83 0 0 1-.005-.322l.001-.156.006-.221.005-.11.007-.11.017-.205.01-.103.014-.104.028-.19.026-.144.03-.144.043-.176a4.45 4.45 0 0 1 .209-.612l.097-.22c.252-.615.011-1.265-.583-1.618-.59-.352-1.155-.2-1.447.413a12.955 12.955 0 0 0-1.332 5.616l.001.18.007.183.013.2.02.206.025.221.032.236.04.253.071.408.088.457.067.33.298 1.405.093.451.05.255c.057.297.104.57.143.825l.027.187.039.3c.106.915.077 1.59-.105 2.14-.369 1.108-1.342 1.534-2.817 1.259-.582-.107-1.176-.456-1.953-1.142l-.239-.216-.124-.115-.232-.223-.122-.12-.25-.25-.195-.198-1.094-1.13-.327-.33-.213-.21-.188-.18-.17-.155-.153-.135-.096-.08-.092-.072-.089-.068-.088-.063-.089-.06-.086-.056a37.985 37.985 0 0 0-9.388-3.963c-3.668-1.062-6.864-1.047-11.461.035l-.296.07-.549.137-.56.145-.575.154-.59.164-.605.174-.62.182-.526.157-1.468.443-1.182.353-.317.093-.612.176-.59.166-.568.155-.55.144-.534.135c-1.24.306-2.357.532-3.484.704-11.281 1.72-25.818-2.355-37.475-10.265-8.85-5.984-16.634-15.028-22.704-26.22-4.27-7.857-5.97-15.794-5.826-26.763l.006-.408.017-.795.023-.805c.661-21.266 9.188-39.596 26.426-57.524.456-.473.45-1.11.009-1.608l-.058-.062Z" fill="#00162E"/></g><g transform="translate(1394 1)"><ellipse fill="#FFE600" cx="98.845" cy="99.525" rx="98.845" ry="99.525"/><path d="M78.523 34.399c14.219-3.882 27.21-.612 40.26 2.46 9 2.129 17.116 6.153 25.326 10.307 13.314 6.744 20.43 17.464 22.395 32.013 2.532 18.729-3.308 35.105-13.28 50.653-6.32 9.85-14.05 18.09-23.746 24.229-18.04 11.427-36.919 13.011-56.256 3.12-15.907-8.158-27.263-20.83-34.069-37.159-5.354-12.842-8.338-26.513-7.096-40.626 1.243-14.113 7.427-25.643 19.141-33.882 8.494-5.969 17.656-10.259 27.325-11.115Z" fill="#FFF385"/><path d="M50.448 189c-.303-.525-.827-.773-1.367-.609l-.1.034-.161.091a29.63 29.63 0 0 1-13.242 3.735l-.423.014c-.729.012-1.18.543-1.18 1.244 0 .697.445 1.205 1.166 1.193a32.149 32.149 0 0 0 14.91-4.082c.62-.351.746-1.015.397-1.62Zm-31.443-13.037c-.632-.176-1.18.079-1.355.707l-.022.093c-1.178 5.763 1.509 11.628 6.632 14.47.624.355 1.274.125 1.626-.482.285-.49.258-1.024-.093-1.402l-.05-.05-.263-.142c-4.12-2.231-6.352-6.858-5.567-11.489l.04-.217c.146-.711-.272-1.3-.948-1.488ZM34.4 145.987c-.46-.465-1.027-.504-1.453-.03l-.06.071a103.89 103.89 0 0 0-10.095 15.24c-.342.636-.104 1.3.5 1.655.518.303 1.074.25 1.44-.178l-.018-.015.134-.248a100.613 100.613 0 0 1 9.695-14.673c.45-.568.357-1.316-.143-1.822Zm27.782-30.897c-.471-.475-1.146-.567-1.686-.16l-.08.064-.725.638-.705.626-.685.615-.666.604-.646.593c-.107.098-.212.196-.316.294l-.618.58-.6.57-.293.282-.572.559-.555.55c-.455.457-.893.906-1.313 1.35l-.496.53-.241.262-.472.522c-2.167 2.428-3.824 4.722-5.13 7.135-.346.636-.108 1.299.498 1.655.545.32 1.135.245 1.498-.244l.01-.014.076-.143c1.669-3.09 3.94-5.971 7.178-9.237l.534-.532.273-.27.56-.544.577-.552.596-.56.615-.571.633-.58.652-.59.673-.602.692-.613.712-.624c.533-.468.506-1.106.022-1.593Zm25.452-25.1c-.47-.472-1.107-.542-1.604-.106l-.074.069-12.55 12.59c-1.075 1.081.558 2.762 1.653 1.785l.06-.057 12.552-12.597c.507-.507.455-1.19-.037-1.685Z" fill="#00162E"/><path d="M103.416 77.567C120.39 64.02 138.451 51.49 158.024 42.02c12.383-5.976 31.578-14.956 45.162-7.73 1.77.945 3.376-1.754 1.574-2.72-12.775-6.797-29.256-.618-41.442 4.596-22.517 9.647-43.002 23.923-62.116 39.165-1.567 1.25.675 3.453 2.194 2.216l.02.02ZM208.02 40.728c1.594 1.917.81 4.888-.202 6.866-.918 1.788 1.762 3.4 2.7 1.577 1.743-3.399 2.296-7.552-.276-10.66-1.283-1.542-3.47.68-2.201 2.217h-.02Zm-3.382 14.786c-1.195 3.583-4.55 6.363-7.326 8.722-1.525 1.305.676 3.508 2.202 2.216 3.24-2.76 6.751-5.941 8.102-10.102.634-1.917-2.363-2.72-2.998-.836h.02Z" fill="#000"/><path d="m100.89 104.366 34.563 124.91a.802.802 0 0 0 .487.662.792.792 0 0 0 .81-.118l72.189-52.38a.81.81 0 0 0-.101-1.414l-106.752-72.53a.88.88 0 0 0-.83.112.895.895 0 0 0-.366.758Z" fill="#FFE600"/></g><path d="M220.786 227.034-3.291 287.068a.97.97 0 0 0-.428 1.617l164.026 164.034a.97.97 0 0 0 1.617-.428l60.042-224.077a.962.962 0 0 0-1.18-1.18Z" fill="#FF415A"/><path d="M95.979 424.449c-13.82 1.051-25.246-4.254-36.761-9.389-7.941-3.541-14.734-8.676-21.583-13.94-11.127-8.5-15.809-19.643-15.065-33.341.954-17.629 9.227-31.626 21.178-44.12 7.57-7.917 16.173-14.111 26.193-18.033 18.68-7.278 36.389-5.402 52.562 7.1 13.27 10.286 21.526 23.936 24.946 40.133 2.685 12.728 3.041 25.772-.59 38.532-3.63 12.76-11.41 22.254-23.685 27.697-8.887 3.978-18.098 6.29-27.195 5.36Z" fill="#FF99A7"/><path d="m19.675 425.177 16.771-16.092c1.73-1.666-.905-4.294-2.628-2.637l-16.78 16.092c-1.73 1.666.906 4.294 2.637 2.637Zm36.05-35.912a106.66 106.66 0 0 1 22.545-19.408c2.013-1.286.153-4.504-1.876-3.235a109.976 109.976 0 0 0-23.306 20.014c-1.617 1.796 1.052 4.432 2.637 2.629Zm44.313-43.085 19.295-16.561c1.82-1.561-.809-4.19-2.628-2.637l-19.295 16.57c-1.82 1.56.809 4.188 2.628 2.628Z" fill="#000"/><path d="M136.46 307.478a87.27 87.27 0 0 1 15.97-15.939c1.877-1.43 0-4.665-1.883-3.234a90.99 90.99 0 0 0-16.723 16.496c-1.448 1.868 1.164 4.52 2.636 2.628v.049Z" fill="#00162E"/><g transform="rotate(30 -724.13 675.803)"><path d="M20.436 111.462a.816.816 0 0 0 .282 1.123c29.34 17.07 66.893 7.363 84.378-21.81 17.484-29.173 8.443-67.035-20.317-85.073a.816.816 0 0 0-1.123.275l-63.22 105.485Z" fill="#6CF0D2"/><ellipse fill="#5CFFD7" cx="48.399" cy="16.221" rx="16.155" ry="16.221"/><path d="M52.656 52.53c4.767 2.295 9.225 5.207 13.608 8.154 2.246 1.509 4.2 3.615 5.894 5.76 4.234 5.368 3.46 11.396 1.565 17.342-3.272 10.362-9.392 18.983-15.81 27.617-7.186 9.67-12.962 10.24-23.012 7.356-7.436-2.134-14.062-5.93-20.515-9.977-8.27-5.191-12.563-13.703-11.256-23.62 1.002-7.577 2.11-11.18 6.027-17.562 2.047-3.336 7.546-10.319 10.105-13.258 4.9-5.627 9.455-7.8 17.185-6.618 5.678.865 11.067 2.33 16.21 4.806Z" fill="#A3F5E2"/><path d="M15.619 101.025c-2.96-2.09-5.922-4.252-7.71-7.49-.564-1.018-2.117-.11-1.566.912 1.957 3.509 5.147 5.874 8.356 8.138.95.672 1.851-.896.908-1.572l.012.012ZM5.662 86.784a26.352 26.352 0 0 1-2.829-10.457c-.07-1.155-1.875-1.178-1.804 0a28.713 28.713 0 0 0 3.08 11.369c.524 1.037 2.078.121 1.565-.912h-.012ZM1.827 69.651a56.71 56.71 0 0 1 .587-10.142c.172-1.14-1.565-1.63-1.737-.483a59.575 59.575 0 0 0-.654 10.61c.035 1.159 1.835 1.178 1.804 0v.015Z" fill="#000"/><path d="M5.973 42.293c-.33-.193-.687-.135-.891.185l-.03.05a53.623 53.623 0 0 0-3.29 7.477c-.137.385.057.694.44.798.393.108.779-.06.919-.455a50.811 50.811 0 0 1 3.143-7.1c.197-.369.058-.751-.291-.955Z" fill="#00162E"/></g></g></svg>