<svg width="1440" height="255" xmlns="http://www.w3.org/2000/svg"><g fill="none" fill-rule="evenodd"><path d="M351.184 198.494c-11.986 23.73-32.87 29.274-54.693 36.857-13.668 4.75-27.015 13.26-41.037 16.854-32.498 8.34-54.966-6.236-61.316-39.234-1.497-7.795-2.875-15.646-4.903-23.307-5.44-20.564-21.218-30.927-39.42-38.086-39.704-15.623-53.301-63.278-27.29-96.801 13.88-17.889 44.428-23.4 68.314-11.13 9.053 4.653 18.754 10.237 24.793 18.376 15.162 20.449 56.18 43.975 91.04 55.339 11.464 3.74 22.26 11.196 31.786 18.923 21.38 17.32 24.966 39.721 12.726 62.21z" fill="#FFEB33" fill-rule="nonzero"/><path d="m391.155 100.422.927.318 5.114 1.904-4.198-5.088a.4.4 0 0 1-.003-.506l.057-.057a.4.4 0 0 1 .505-.003l.058.057 5.148 6.237.44.533-.682.116-7.973 1.354a.4.4 0 0 1-.212-.767l.078-.022 6.505-1.105-5.108-1.9c-27.276-9.453-63.434-13.237-97.266-9.872-37.067 3.687-68.308 15.443-87.812 34.574l-.588.582-.06.06-2.266 2.25-.353.353-.1.1a321.964 321.964 0 0 0-4.583 4.674c-4.25 4.427-8.335 8.943-12.168 13.547-.474.568-.94 1.135-1.4 1.7l-.251.308.153.138c7.278 6.656 11.894 16.388 12.051 25.766l.004.493c0 16.088-9.765 28.462-22.086 22.932-12.616-5.661-11.878-18.191-1.18-35.395 2.599-4.18 5.736-8.547 9.322-13.051l.632-.791-.034-.031-.393-.334c-8.451-7.075-18.844-8.997-28.699-4.436-6.262 2.898-11.056 5.66-21.67 12.205l-.02.013c-10.835 6.68-15.747 9.503-22.18 12.444-22.576 10.321-63.052 8.815-108.878-.531a.4.4 0 0 1 .16-.784c45.666 9.314 86.014 10.815 108.385.588 6.394-2.924 11.286-5.736 22.092-12.398l.021-.013c8.741-5.39 13.549-8.223 18.48-10.68l.644-.318.323-.158.65-.314c.544-.26 1.095-.52 1.657-.78 10.151-4.699 20.87-2.715 29.548 4.549.133.11.265.222.396.335l.022.02.23-.282c.23-.283.463-.567.698-.852l.708-.855c3.846-4.62 7.943-9.15 12.206-13.589a316.79 316.79 0 0 1 3.677-3.765l.916-.92.212-.211.118-.118.256-.255.418-.416.432-.429 1.185-1.176.106-.105.053-.053c19.61-19.624 51.277-31.646 88.886-35.387 33.563-3.338 69.405.336 96.69 9.597zm-206.695 49.97-.604.756c-3.568 4.481-6.689 8.825-9.271 12.978-10.477 16.85-11.185 28.852.828 34.243 11.63 5.219 20.96-6.601 20.96-22.203 0-9.29-4.544-19.027-11.776-25.65l-.137-.124z" fill="#55DEBF" fill-rule="nonzero"/><path d="M1166.702 138.644c-16.237-23.685-25.298-49.696-22.491-78.665 1.52-15.699 7.282-29.77 17.378-41.705 14.189-16.772 32.827-19.549 53.583-16.555 21.707 3.13 43.554 5.327 65.38 7.534 13.69 1.386 27.37 2.397 39.718 9.367 10.237 5.778 18.39 13.247 21.686 25.17 4.18 15.139.417 26.005-12.575 35.117-6.556 4.598-13.135 9.177-19.505 14.025-9.086 6.916-12.763 16.22-10.28 27.42 1.511 6.818 3.523 13.608 6.112 20.09 12.363 30.958-12.206 61.008-41.34 64.81-26.26 3.428-47.265-7.528-65.081-24.879-12.72-12.388-22.5-27.017-32.585-41.729" fill="#A3F5E2"/><path d="M305 72c0 25.405-20.595 46-46 46s-46-20.595-46-46 20.595-46 46-46 46 20.595 46 46" fill="#DEC2FF"/><path d="M1243.318 74.242c10.628 13.82 13.533 28.34 9.068 44.862-5.283 19.549-20.09 30.806-41.896 35.943-2.192.516-4.31.955-6.422 1.329l-.471.082.319.326c8.716 8.826 19.437 16.084 31.45 20.412l1.166.41c36.851 12.604 82.309 18.251 117.94 12.67 19.488-3.053 37.497-8.915 53.997-16.842 11.637-5.59 20.98-11.374 29.51-17.58a.4.4 0 0 1 .471.647c-8.567 6.232-17.95 12.042-29.634 17.655-16.568 7.959-34.651 13.845-54.22 16.91-35.77 5.604-81.357-.06-118.323-12.703-12.613-4.315-23.86-11.83-32.949-21.04l-.687-.705-.297.05c-7.494 1.201-15.147 1.624-25.985 1.804l-.84.014c-37.16.566-78.303-5.89-100.694-16.932-9.292-4.581-19.639-11.36-28.407-18.827l-.817-.702-4.041-3.697 1.982 6.292a.4.4 0 0 1-.187.47l-.074.031a.4.4 0 0 1-.47-.187l-.032-.074-2.43-7.713-.208-.66.675.149 7.898 1.737a.4.4 0 0 1-.09.79l-.081-.009-6.446-1.418 4.036 3.692c8.877 7.69 19.524 14.714 29.046 19.409 22.257 10.976 63.284 17.413 100.327 16.849 10.965-.167 18.672-.563 26.133-1.718l.331-.052-.32-.339c-17.905-19.124-26.698-44.845-19.734-64.523l.332-.904c5.073-13.271 16.424-21.986 30.087-24.599 12.633-2.416 25.037.955 30.987 8.691zm-30.836-7.905c-13.403 2.563-24.522 11.1-29.49 24.098-7.45 19.489 1.26 45.41 19.262 64.621l.668.704.432-.072a113.52 113.52 0 0 0 6.36-1.282l.592-.138c21.548-5.076 36.113-16.15 41.308-35.372 4.4-16.282 1.546-30.544-8.93-44.166-5.745-7.469-17.842-10.757-30.202-8.393z" fill="#55DEBF" fill-rule="nonzero"/><path d="m1121.996 61.551-17.19 112.686a.66.66 0 0 0 .883.72l105.743-40.389a.656.656 0 0 0 .17-1.122L1123.05 61.15a.647.647 0 0 0-1.053.402" fill="#FFB2BD"/></g></svg>