<svg id="Layer_1" data-name="Layer 1" xmlns="http://www.w3.org/2000/svg" viewBox="0 0 201.01 23.11"><defs><style>.cls-1{fill:#fff;}</style></defs><title>Ivio Agency Text Logo</title><path class="cls-1" d="M0,22.73V.38H4V22.73Z"/><path class="cls-1" d="M18.58,22.73H15.29L6.83.38h4.53L17.17,16.7h0L23.14.38h4.35Z"/><path class="cls-1" d="M30.36,22.73V.38h4V22.73Z"/><path class="cls-1" d="M50.34,23.11A11.46,11.46,0,0,1,38.75,11.56a11.61,11.61,0,0,1,23.21,0A11.46,11.46,0,0,1,50.34,23.11Zm0-19.63c-4.28,0-7.41,3.54-7.41,8.08s3.13,8.07,7.41,8.07,7.44-3.54,7.44-8.07S54.65,3.48,50.34,3.48Z"/><path class="cls-1" d="M81,.38h3.29l8.46,22.35H88.23l-1.56-4.4H78.05l-1.6,4.4H72.11ZM79.26,15h6.23L82.42,6.42h0Z"/><path class="cls-1" d="M106.24,13.47V10.09h9.48v8.59a11.67,11.67,0,0,1-9.52,4.43c-6.8,0-11.94-4.66-11.94-11.55A11.63,11.63,0,0,1,106.2,0a11.8,11.8,0,0,1,9.1,4.21l-2.77,2.37a8.49,8.49,0,0,0-6.33-3.1,7.72,7.72,0,0,0-7.75,8.08c0,4.88,3.16,8.07,7.75,8.07a8.13,8.13,0,0,0,5.56-2.17v-4Z"/><path class="cls-1" d="M120.69,22.73V.38h14V3.77h-10V9.55h10v3.38h-10v6.42h10v3.38Z"/><path class="cls-1" d="M154.21,22.73l-11-15.1v15.1h-4V.38h3.48L153.8,15.52V.38h4V22.73Z"/><path class="cls-1" d="M174.13,19.63A7.77,7.77,0,0,0,179,17.91l2.21,2.87A12.2,12.2,0,0,1,174,23.11c-6.71,0-11.85-4.62-11.85-11.55A11.62,11.62,0,0,1,174.13,0a12.09,12.09,0,0,1,6.52,2L178.76,5a8.05,8.05,0,0,0-4.63-1.56,7.73,7.73,0,0,0-7.76,8.08C166.37,16.44,169.44,19.63,174.13,19.63Z"/><path class="cls-1" d="M189.71,22.73V13.22L182.62.38h4.89L191.85,9h.06l4.5-8.59H201l-7.34,13v9.35Z"/></svg>