<?xml version="1.0" encoding="UTF-8" standalone="no"?>
<!-- Created with Inkscape (http://www.inkscape.org/) -->

<svg
   xmlns:dc="http://purl.org/dc/elements/1.1/"
   xmlns:cc="http://creativecommons.org/ns#"
   xmlns:rdf="http://www.w3.org/1999/02/22-rdf-syntax-ns#"
   xmlns:svg="http://www.w3.org/2000/svg"
   xmlns="http://www.w3.org/2000/svg"
   xmlns:sodipodi="http://sodipodi.sourceforge.net/DTD/sodipodi-0.dtd"
   xmlns:inkscape="http://www.inkscape.org/namespaces/inkscape"
   width="216.57721mm"
   height="50.543991mm"
   viewBox="0 0 767.39956 179.09288"
   id="svg2"
   version="1.1"
   inkscape:version="0.91 r13725"
   sodipodi:docname="logo--red-white.svg">
  <defs
     id="defs4">
    <style
       id="style3340"
       type="text/css"><![CDATA[
    .fil0 {fill:#F14537}
    .fil1 {fill:white}
   ]]></style>
  </defs>
  <sodipodi:namedview
     id="base"
     pagecolor="#ffffff"
     bordercolor="#666666"
     borderopacity="1.0"
     inkscape:pageopacity="0.0"
     inkscape:pageshadow="2"
     inkscape:zoom="0.35"
     inkscape:cx="318.69978"
     inkscape:cy="20.975003"
     inkscape:document-units="px"
     inkscape:current-layer="layer1"
     showgrid="false"
     fit-margin-top="0"
     fit-margin-left="0"
     fit-margin-right="0"
     fit-margin-bottom="0"
     inkscape:window-width="1920"
     inkscape:window-height="1056"
     inkscape:window-x="1920"
     inkscape:window-y="24"
     inkscape:window-maximized="1" />
  <metadata
     id="metadata7">
    <rdf:RDF>
      <cc:Work
         rdf:about="">
        <dc:format>image/svg+xml</dc:format>
        <dc:type
           rdf:resource="http://purl.org/dc/dcmitype/StillImage" />
        <dc:title></dc:title>
      </cc:Work>
    </rdf:RDF>
  </metadata>
  <g
     inkscape:label="Layer 1"
     inkscape:groupmode="layer"
     id="layer1"
     transform="translate(-56.300216,-374.24433)">
    <path
       id="path3344"
       d="m 176.35545,389.90371 c 9.71962,5.30979 19.70922,11.24955 29.69883,17.4593 8.72965,5.30979 15.29939,20.3392 15.29939,28.43887 l 0,55.61779 c -0.89997,9.08964 -3.77985,20.33919 -15.29939,28.43887 -10.61958,7.4697 -22.49911,13.40947 -33.47868,19.70922 -14.03944,7.82968 -21.23915,13.76945 -33.74866,13.76945 -14.39943,0 -21.59914,-7.19972 -37.52851,-15.92937 -9.719614,-5.30979 -19.979207,-10.97956 -29.698821,-17.4593 -9.359629,-5.93977 -15.299393,-19.70922 -15.299393,-28.16888 l 0,-55.97778 c 0.629975,-9.08964 3.419864,-20.33919 15.299393,-28.43887 9.089639,-6.56973 19.349232,-11.87952 29.698821,-17.4593 15.92937,-8.72965 23.12908,-15.65938 37.52851,-15.65938 14.39943,0 21.23916,6.83973 37.52851,15.65938 z"
       class="fil0"
       inkscape:connector-curvature="0"
       style="clip-rule:evenodd;fill:#f14537;fill-rule:evenodd;image-rendering:optimizeQuality;shape-rendering:geometricPrecision;text-rendering:geometricPrecision" />
    <path
       id="path3346"
       d="m 164.74591,459.11096 c 2.06992,-3.95985 4.85981,-6.92973 8.36967,-9.08964 3.50986,-2.06992 7.6497,-3.14988 12.32951,-3.23987 l 0,14.30943 c -6.29975,-0.35999 -11.33955,1.07995 -15.1194,4.40982 -3.77985,3.32987 -5.66977,7.73969 -5.66977,13.40947 l 0,29.33883 -14.75942,0 0,-60.92757 14.75942,0 0,11.69953 z"
       class="fil1"
       inkscape:connector-curvature="0"
       style="clip-rule:evenodd;fill:#ffffff;fill-rule:evenodd;image-rendering:optimizeQuality;shape-rendering:geometricPrecision;text-rendering:geometricPrecision" />
    <path
       id="path3348"
       d="m 135.31708,435.4419 c -2.96988,-1.70993 -6.02976,-3.05988 -9.17963,-4.04984 -3.14988,-0.98996 -6.02977,-1.52994 -8.72966,-1.52994 -2.5199,0 -4.49982,0.44998 -6.02976,1.34995 -1.43994,0.89996 -2.24991,2.24991 -2.24991,4.04983 0,1.88993 0.89996,3.32987 2.78989,4.40983 1.88992,0.98996 4.76981,2.06992 8.81965,3.23987 4.22983,1.25995 7.73969,2.5199 10.43959,3.77985 2.69989,1.25995 5.12979,3.14987 7.10971,5.57978 1.97992,2.4299 2.96989,5.66977 2.96989,9.71961 0,5.93977 -2.24992,10.43959 -6.83973,13.67946 -4.58982,3.14987 -10.2596,4.76981 -17.18932,4.76981 -4.67982,0 -9.26963,-0.71997 -13.76946,-2.24991 -4.499817,-1.52994 -8.279667,-3.59986 -11.339545,-6.29975 l 5.129796,-10.34959 c 2.699893,2.33991 6.029759,4.22983 9.809609,5.48978 3.77985,1.34995 7.37971,1.97992 10.79957,1.97992 2.6999,0 4.94981,-0.44998 6.56974,-1.43994 1.61994,-0.98996 2.42991,-2.33991 2.42991,-4.22983 0,-2.15992 -0.98996,-3.68986 -2.87989,-4.76981 -1.88992,-1.07996 -4.9498,-2.24991 -9.26963,-3.50986 -4.13984,-1.16996 -7.46971,-2.42991 -9.98961,-3.59986 -2.60989,-1.16995 -4.859802,-2.96988 -6.749727,-5.30979 -1.889925,-2.4299 -2.879886,-5.48978 -2.879886,-9.35963 0,-6.02976 2.159914,-10.61957 6.569743,-13.76945 4.31982,-3.14987 9.80961,-4.76981 16.46934,-4.76981 4.04984,0 8.00969,0.53998 11.87953,1.70993 3.86985,1.16996 7.37971,2.6999 10.43959,4.76981 l -5.39979,10.70958 z"
       class="fil1"
       inkscape:connector-curvature="0"
       style="clip-rule:evenodd;fill:#ffffff;fill-rule:evenodd;image-rendering:optimizeQuality;shape-rendering:geometricPrecision;text-rendering:geometricPrecision" />
    <path
       id="path3350"
       d="m 302.26046,454.52114 c -3.14988,-1.79993 -6.29975,-3.23987 -9.62962,-4.31983 -3.32987,-1.07996 -6.38975,-1.52994 -9.17964,-1.52994 -2.60989,0 -4.76981,0.44998 -6.29975,1.34995 -1.52993,0.89996 -2.3399,2.3399 -2.3399,4.22983 0,1.97992 0.98996,3.50986 2.96988,4.58982 1.97992,1.07995 5.0398,2.24991 9.26963,3.41986 4.49982,1.34995 8.18968,2.69989 11.06956,4.04984 2.87989,1.34995 5.39979,3.23987 7.46971,5.84977 2.06991,2.60989 3.14987,6.02976 3.14987,10.25959 0,6.20975 -2.4299,11.06956 -7.19971,14.39943 -4.76981,3.32986 -10.79957,5.0398 -18.08929,5.0398 -4.9498,0 -9.80961,-0.80997 -14.48942,-2.33991 -4.76981,-1.52994 -8.72965,-3.77985 -11.96953,-6.65974 l 5.39979,-10.88956 c 2.87989,2.5199 6.29975,4.40982 10.34959,5.84976 3.95984,1.43995 7.82969,2.06992 11.42955,2.06992 2.87988,0 5.21979,-0.53998 6.92972,-1.52994 1.70993,-0.98996 2.6099,-2.5199 2.6099,-4.49982 0,-2.24991 -0.98996,-3.95984 -2.96988,-5.0398 -1.97993,-1.16995 -5.2198,-2.3399 -9.71962,-3.68985 -4.31983,-1.25995 -7.82969,-2.5199 -10.52958,-3.77985 -2.69989,-1.25995 -5.1298,-3.14988 -7.10972,-5.66978 -1.97992,-2.51989 -2.96988,-5.84976 -2.96988,-9.8996 0,-6.29975 2.33991,-11.15956 6.92972,-14.48942 4.58982,-3.32987 10.34959,-4.94981 17.36931,-4.94981 4.22984,0 8.45967,0.62998 12.50951,1.79993 4.13983,1.16995 7.73969,2.87989 10.97956,5.0398 l -5.66977,11.24955 z"
       class="fil0"
       inkscape:connector-curvature="0"
       style="clip-rule:evenodd;fill:#ffffff;fill-rule:evenodd;image-rendering:optimizeQuality;shape-rendering:geometricPrecision;text-rendering:geometricPrecision" />
    <polygon
       id="polygon3352"
       points="3365,979 3645,1417 3438,1417 3245,1105 3135,1219 3135,1417 2962,1417 2962,427 3135,427 3135,1001 3429,705 3629,705 "
       class="fil0"
       style="clip-rule:evenodd;fill:#ffffff;fill-rule:evenodd;image-rendering:optimizeQuality;shape-rendering:geometricPrecision;text-rendering:geometricPrecision"
       transform="matrix(0.08999643,0,0,0.08999642,55.760237,373.79435)" />
    <path
       id="path3354"
       d="m 401.88651,409.52293 c 2.5199,0 4.67981,0.89996 6.38974,2.60989 1.70994,1.79993 2.5199,3.95985 2.5199,6.74974 0,2.60989 -0.80996,4.8598 -2.5199,6.56974 -1.70993,1.79992 -3.77985,2.60989 -6.38974,2.60989 -2.5199,0 -4.67982,-0.89996 -6.38975,-2.60989 -1.70993,-1.79993 -2.5199,-3.95985 -2.5199,-6.56974 0,-2.6999 0.80997,-4.94981 2.5199,-6.74974 1.70993,-1.79992 3.77985,-2.60989 6.38975,-2.60989 z m -7.6497,27.6289 0,0 15.56938,0 0,64.16745 -15.56938,0 0,-64.16745 z"
       class="fil0"
       inkscape:connector-curvature="0"
       style="clip-rule:evenodd;fill:#ffffff;fill-rule:evenodd;image-rendering:optimizeQuality;shape-rendering:geometricPrecision;text-rendering:geometricPrecision" />
    <polygon
       id="polygon3356"
       points="4330,1417 4156,1417 4156,427 4330,427 "
       class="fil0"
       style="clip-rule:evenodd;fill:#ffffff;fill-rule:evenodd;image-rendering:optimizeQuality;shape-rendering:geometricPrecision;text-rendering:geometricPrecision"
       transform="matrix(0.08999643,0,0,0.08999642,55.760237,373.79435)" />
    <polygon
       id="polygon3358"
       points="4732,1417 4559,1417 4559,427 4732,427 "
       class="fil0"
       style="clip-rule:evenodd;fill:#ffffff;fill-rule:evenodd;image-rendering:optimizeQuality;shape-rendering:geometricPrecision;text-rendering:geometricPrecision"
       transform="matrix(0.08999643,0,0,0.08999642,55.760237,373.79435)" />
    <path
       id="path3360"
       d="m 517.35193,449.48134 c 2.15991,-4.13984 5.12979,-7.37971 8.81965,-9.53962 3.68985,-2.15992 8.09968,-3.32987 13.04948,-3.41987 l 0,15.1194 c -6.65974,-0.35998 -11.96953,1.16996 -15.92937,4.58982 -3.95984,3.50986 -5.93976,8.18967 -5.93976,14.12944 l 0,30.95877 -15.56939,0 0,-64.16745 15.56939,0 0,12.32951 z"
       class="fil0"
       inkscape:connector-curvature="0"
       style="clip-rule:evenodd;fill:#ffffff;fill-rule:evenodd;image-rendering:optimizeQuality;shape-rendering:geometricPrecision;text-rendering:geometricPrecision" />
    <path
       id="path3362"
       d="m 578.5495,449.93132 c -5.39979,0 -9.80961,1.79993 -13.22948,5.39979 -3.32986,3.59985 -5.0398,8.27967 -5.0398,14.03944 0,5.75977 1.70994,10.43958 5.0398,14.03944 3.32987,3.59986 7.7397,5.39978 13.22948,5.39978 5.30979,0 9.62962,-1.79992 12.95948,-5.39978 3.32987,-3.59986 5.0398,-8.27967 5.0398,-14.03944 0,-5.75977 -1.70993,-10.43959 -5.0398,-14.03944 -3.32986,-3.59986 -7.64969,-5.39979 -12.95948,-5.39979 z m 0,-13.31947 0,0 c 6.65973,0 12.5095,1.34995 17.5493,4.04984 5.1298,2.69989 9.08964,6.56974 11.87953,11.42955 2.87989,4.9498 4.22983,10.52958 4.22983,17.00932 0,6.47974 -1.43994,12.23951 -4.22983,17.18931 -2.87988,4.94981 -6.83973,8.81965 -11.87953,11.51955 -5.0398,2.69989 -10.97956,4.04984 -17.5493,4.04984 -6.74973,0 -12.5995,-1.34995 -17.7293,-4.04984 -5.12979,-2.6999 -9.08964,-6.56974 -11.96952,-11.51955 -2.87989,-4.9498 -4.22984,-10.70957 -4.22984,-17.18931 0,-6.38975 1.43995,-12.05952 4.22984,-17.00932 2.87988,-4.94981 6.83973,-8.72966 11.96952,-11.42955 5.1298,-2.69989 11.06956,-4.04984 17.7293,-4.04984 z"
       class="fil0"
       inkscape:connector-curvature="0"
       style="clip-rule:evenodd;fill:#ffffff;fill-rule:evenodd;image-rendering:optimizeQuality;shape-rendering:geometricPrecision;text-rendering:geometricPrecision" />
    <path
       id="path3364"
       d="m 646.31681,489.97973 c 4.49982,0 8.36967,-1.07996 11.51954,-3.14988 3.23988,-2.06991 5.0398,-4.76981 5.39979,-7.82969 l 0,-5.75977 -16.19936,0 c -4.13983,0 -7.19971,0.62998 -9.17963,1.88993 -1.97993,1.25995 -2.96989,3.23987 -2.96989,6.02976 0,2.69989 0.98996,4.85981 3.05988,6.47974 2.06992,1.61994 4.76981,2.4299 8.36967,2.4299 z m 17.00933,11.24955 0,0 0,-7.82969 c -2.24991,2.78989 -5.1298,4.94981 -8.63966,6.38975 -3.50986,1.43994 -7.5597,2.15991 -12.14952,2.15991 -4.49982,0 -8.36967,-0.89996 -11.78953,-2.60989 -3.41987,-1.70994 -6.02976,-4.13984 -7.82969,-7.10972 -1.79993,-3.05988 -2.78989,-6.47974 -2.78989,-10.1696 0,-6.02976 2.15991,-10.70957 6.38975,-14.12943 4.22983,-3.41987 10.25959,-5.1298 17.99928,-5.2198 l 18.71926,0 0,-1.70993 c 0,-3.77985 -1.25995,-6.65973 -3.68985,-8.72965 -2.5199,-2.06992 -6.11976,-3.14988 -10.79958,-3.14988 -6.11975,0 -12.4195,1.97992 -19.07924,6.02976 l -5.66977,-10.79957 c 5.0398,-2.78989 9.62961,-4.8598 13.76945,-6.02976 4.13984,-1.25995 8.90965,-1.88992 14.48943,-1.88992 8.36966,0 14.75941,1.97992 19.34923,6.02976 4.58982,3.95984 6.92972,9.62962 7.01972,16.82933 l 0.09,42.02833 -15.38939,0 z"
       class="fil0"
       inkscape:connector-curvature="0"
       style="clip-rule:evenodd;fill:#ffffff;fill-rule:evenodd;image-rendering:optimizeQuality;shape-rendering:geometricPrecision;text-rendering:geometricPrecision" />
    <path
       id="path3366"
       d="m 724.7937,488.89977 c 5.39978,0 9.71961,-1.79993 13.13948,-5.48978 3.41986,-3.59986 5.12979,-8.36967 5.12979,-14.12944 0,-5.75977 -1.70993,-10.43958 -5.12979,-14.12944 -3.41987,-3.59985 -7.7397,-5.48978 -13.13948,-5.48978 -5.39979,0 -9.71962,1.79993 -13.04948,5.48978 -3.32987,3.68986 -5.1298,8.36967 -5.1298,14.12944 0.09,5.75977 1.79993,10.43959 5.1298,14.12944 3.32986,3.68985 7.73969,5.48978 13.04948,5.48978 z m 33.83866,-76.67695 0,0 0,89.00646 -15.56939,0 0,-10.34959 c -2.3399,3.59986 -5.30979,6.38975 -8.90964,8.18968 -3.59986,1.88992 -7.82969,2.78989 -12.6895,2.78989 -6.11976,0 -11.42955,-1.34995 -16.01936,-4.13984 -4.58982,-2.78989 -8.18968,-6.65973 -10.70958,-11.60954 -2.5199,-5.0398 -3.86985,-10.70957 -3.86985,-17.18931 0,-6.38975 1.25995,-12.05952 3.77985,-17.00933 2.5199,-4.9498 6.11976,-8.72965 10.70958,-11.42954 4.58982,-2.6999 9.89961,-4.04984 15.74937,-4.04984 4.85981,0 9.17964,0.98996 12.86949,2.87988 3.68986,1.88993 6.74974,4.67982 9.08964,8.27967 l 0,-35.36859 15.56939,0 z"
       class="fil0"
       inkscape:connector-curvature="0"
       style="clip-rule:evenodd;fill:#ffffff;fill-rule:evenodd;image-rendering:optimizeQuality;shape-rendering:geometricPrecision;text-rendering:geometricPrecision" />
    <path
       id="path3368"
       d="m 817.22003,454.52114 c -3.14987,-1.79993 -6.29975,-3.23987 -9.62962,-4.31983 -3.32986,-1.07996 -6.38974,-1.52994 -9.17963,-1.52994 -2.6099,0 -4.76981,0.44998 -6.29975,1.34995 -1.52994,0.89996 -2.33991,2.3399 -2.33991,4.22983 0,1.97992 0.98996,3.50986 2.96988,4.58982 1.97992,1.07995 5.0398,2.24991 9.26963,3.41986 4.49983,1.34995 8.18968,2.69989 11.06957,4.04984 2.87988,1.34995 5.39978,3.23987 7.4697,5.84977 2.06992,2.60989 3.14987,6.02976 3.14987,10.25959 0,6.20975 -2.4299,11.06956 -7.19971,14.39943 -4.76981,3.32986 -10.79957,5.0398 -18.08928,5.0398 -4.94981,0 -9.80961,-0.80997 -14.48943,-2.33991 -4.76981,-1.52994 -8.72965,-3.77985 -11.96952,-6.65974 l 5.39978,-10.88956 c 2.87989,2.5199 6.29975,4.40982 10.34959,5.84976 3.95985,1.43995 7.82969,2.06992 11.42955,2.06992 2.87988,0 5.21979,-0.53998 6.92972,-1.52994 1.70994,-0.98996 2.6099,-2.5199 2.6099,-4.49982 0,-2.24991 -0.98996,-3.95984 -2.96988,-5.0398 -1.97992,-1.16995 -5.21979,-2.3399 -9.71962,-3.68985 -4.31982,-1.25995 -7.82969,-2.5199 -10.52958,-3.77985 -2.69989,-1.25995 -5.1298,-3.14988 -7.10972,-5.66978 -1.97992,-2.51989 -2.96988,-5.84976 -2.96988,-9.8996 0,-6.29975 2.33991,-11.15956 6.92973,-14.48942 4.58981,-3.32987 10.34959,-4.94981 17.36931,-4.94981 4.22983,0 8.45966,0.62998 12.5095,1.79993 4.13984,1.16995 7.73969,2.87989 10.97957,5.0398 l -5.66978,11.24955 z"
       class="fil0"
       inkscape:connector-curvature="0"
       style="clip-rule:evenodd;fill:#ffffff;fill-rule:evenodd;image-rendering:optimizeQuality;shape-rendering:geometricPrecision;text-rendering:geometricPrecision" />
  </g>
</svg>
