<svg id="Capa_1" data-name="Capa 1" xmlns="http://www.w3.org/2000/svg" viewBox="0 0 69.37 31.05"><defs><style>.cls-1{fill:#212e44;}</style></defs><path class="cls-1" d="M69.33,22c0-1.71-.06-3.42,0-5.13,0-.85,0-1.71,0-2.56,0-1.1,0-2.19-.08-3.28,0-1.54,0-3.08,0-4.61,0-.41,0-.83.06-1.24a5.15,5.15,0,0,0-.08-1.41,4.74,4.74,0,0,1-.12-1.25c0-.63,0-1.27,0-1.91l0-.33c0-.23,0-.26-.3-.23A5.89,5.89,0,0,1,68,0h-.47L65.4.14c-.4,0-.8,0-1.21-.05l-7,0C50,0,42.85.06,35.68,0H7.15c-.46,0-.92.05-1.39.07-.66,0-1.31.12-2,.11H2.64a2.43,2.43,0,0,1-.38,0,2.58,2.58,0,0,0-.83,0A2.55,2.55,0,0,1,.65.1C.29.05.2.11.22.47a4.28,4.28,0,0,0,0,1.07.57.57,0,0,1,0,.29,4.51,4.51,0,0,0-.07.73c0,1,0,2,0,2.95,0,.52,0,1,0,1.57,0,1.4,0,2.8,0,4.21a10.79,10.79,0,0,0,.07,1.39,5.8,5.8,0,0,1,0,1.5c-.09.68-.12,1.36-.16,2,0,.89-.07,1.79-.09,2.69s0,2,0,2.95c0,2.63,0,5.26,0,7.89,0,.29,0,.57.05.86s0,.19.2.19H2.82c1,0,1.9-.06,2.86-.07.71,0,1.42,0,2.13,0,1,0,2.09,0,3.13,0s2.25,0,3.37.05,2,0,3,0,2.19,0,3.29.05,2,0,3,0c1.19,0,2.37,0,3.58.06,4.47,0,9,0,13.45,0,2.1,0,4.2,0,6.3,0,1.22,0,2.45,0,3.67-.1,1-.06,1.9-.09,2.85-.13l4-.14c.78,0,1.56,0,2.34,0l3,.1,2.36.06h.19c1.16,0,2.32.08,3.48,0a2.85,2.85,0,0,0,.29,0c.18,0,.22-.08.26-.26a2,2,0,0,0,0-.54,1.41,1.41,0,0,1,0-.29,14.63,14.63,0,0,0,.07-1.62C69.35,26,69.35,24,69.33,22ZM19.71,7.2c0-.11,0-.15.15-.15s.44,0,.67,0,.25,0,.25-.23V5.29s0-.1,0-.15,0-.15.14-.15h.95a4.75,4.75,0,0,0,.65,0c.19,0,.23,0,.24.22.05.51,0,1,0,1.53,0,.21,0,.21.23.22L24.59,7c.17,0,.17,0,.17.18,0,.51,0,1,0,1.53,0,.18,0,.19-.2.18-.47,0-.94,0-1.42,0a.75.75,0,0,1-.15,0c-.09,0-.12,0-.12.12a20.51,20.51,0,0,0,0,2.6,1.64,1.64,0,0,0,.2.66.61.61,0,0,0,.59.35h.76c.16,0,.19,0,.19.17a12.18,12.18,0,0,0,0,1.35.43.43,0,0,1,0,.16.15.15,0,0,1-.14.16h-.05a8.11,8.11,0,0,1-2-.08,2.12,2.12,0,0,1-1.59-1.47,3.37,3.37,0,0,1-.16-1.26c0-.58.08-1.15.06-1.73V9.07c0-.16,0-.16-.16-.16h-.77a.14.14,0,0,1-.16-.16C19.71,8.23,19.71,7.72,19.71,7.2Zm-7.56-.15h.11L13.9,7c.21,0,.23,0,.22.24,0,1,0,2.06,0,3.1,0,.43,0,.87,0,1.3a1.14,1.14,0,0,0,.71.94.9.9,0,0,0,.4,0,1.47,1.47,0,0,0,1.1-.58.47.47,0,0,0,.09-.31c.05-.7,0-1.39,0-2.09V8.31a5.09,5.09,0,0,0,0-.78,2.45,2.45,0,0,1,0-.27c0-.1,0-.14.15-.15a15.45,15.45,0,0,1,1.8,0c.15,0,.17,0,.17.19s0,.53,0,.79c0,.7,0,1.39,0,2.09,0,.91,0,1.82,0,2.72,0,.38,0,.75,0,1.13s-.06.42-.44.41l-.78,0c-.12,0-.24,0-.36,0s-.22,0-.23-.22,0-.49,0-.74c0,0,0-.13-.05-.15s-.11,0-.14.09a3.67,3.67,0,0,1-.72.64,2.54,2.54,0,0,1-1,.36,2.37,2.37,0,0,1-1.55-.19,1.9,1.9,0,0,1-1.09-1.64v-.14c0-1.6-.07-3.2-.06-4.81,0-.13,0-.27,0-.4S12,7.05,12.15,7.05ZM3.88,14.27c0-.22,0-.44,0-.65V12h0c0-.71,0-1.42,0-2.13s0-1.58,0-2.36c0-.51,0-1,0-1.53s0-1.26,0-1.89V4c0-.18,0-.17.17-.19.42,0,.85,0,1.28,0q1.25,0,2.49,0a3.16,3.16,0,0,1,1.78.61,2,2,0,0,1,.52.56,4.51,4.51,0,0,1,.47,1,1.46,1.46,0,0,1,.06.55c0,.33,0,.66-.08,1a1.75,1.75,0,0,1-.28.76,1.92,1.92,0,0,1-.52.58c-.08,0-.07.11,0,.16l.31.27a2.76,2.76,0,0,1,.71.95A2.67,2.67,0,0,1,11,11.51a6.1,6.1,0,0,1-.17,1A2.16,2.16,0,0,1,9.63,14a4.37,4.37,0,0,1-1.87.43L5,14.47l-1,0C3.9,14.43,3.88,14.41,3.88,14.27Zm7,11.08a2.17,2.17,0,0,1-1.8,1.37,10,10,0,0,1-1.55.15c-.69,0-1.38,0-2.07,0-.41,0-.82,0-1.23,0-.19,0-.21,0-.21-.2,0-1-.07-2,0-2.92a5.28,5.28,0,0,0,0-.7c0-.75,0-1.49,0-2.23S4,19.66,4,19s0-1.46,0-2.18c0-.44,0-.43.44-.44,1.26,0,2.52-.05,3.78,0a3,3,0,0,1,1.38.32,2,2,0,0,1,.66.57,3,3,0,0,1,.51,1.07,3.22,3.22,0,0,1,.06,1.57,3.64,3.64,0,0,1-.48,1,1.22,1.22,0,0,1-.32.28c-.18.13-.18.13,0,.3l.18.17a3.14,3.14,0,0,1,.93,1.81A3.42,3.42,0,0,1,10.87,25.35Zm7.73-1a3,3,0,0,1-.45,1.23c0,.08-.11.16-.16.25a2.33,2.33,0,0,1-1.79,1c-.32,0-.64.05-1,.06a2.67,2.67,0,0,1-2.11-.78l-.32-.31a1.84,1.84,0,0,1-.48-.83,7.7,7.7,0,0,1-.3-2.53,2.87,2.87,0,0,1,.24-1,3.71,3.71,0,0,1,.59-1,2.49,2.49,0,0,1,1.43-.89A5.19,5.19,0,0,1,16,19.44a2.54,2.54,0,0,1,1.42.62,6.49,6.49,0,0,1,.67.72,2.29,2.29,0,0,1,.37.81,6.86,6.86,0,0,1,.18,1.82C18.63,23.69,18.64,24,18.6,24.32Zm7.31,2.54h-.69c-.41,0-.81,0-1.22,0a.28.28,0,0,1-.29-.19q-.5-1.07-1-2.13l0-.09c0-.05,0-.12-.11-.13s-.11.08-.13.14c-.24.56-.49,1.12-.7,1.7l-.22.54c0,.14-.14.18-.29.19-.62,0-1.24,0-1.87,0a.39.39,0,0,1-.24-.06l.26-.54,1.38-2.82.09-.21a.31.31,0,0,0,0-.32c-.23-.41-.42-.84-.67-1.24a18.53,18.53,0,0,1-1-1.87.21.21,0,0,1-.05-.19,1.3,1.3,0,0,1,.44-.06c.55,0,1.1,0,1.64,0a.23.23,0,0,1,.23.14l.75,1.49c.1.19.2.38.29.57.1,0,.12-.07.15-.11.32-.54.64-1.08.91-1.65a.3.3,0,0,0,0-.08.44.44,0,0,1,.48-.31c.49,0,1,0,1.46,0a1.06,1.06,0,0,1,.25,0c.11,0,.13.1.08.21a2.49,2.49,0,0,1-.15.28L24.7,22.32a5,5,0,0,1-.39.68.21.21,0,0,0,0,.25l.86,1.83a11,11,0,0,0,.63,1.11,3.67,3.67,0,0,1,.25.48C26.1,26.82,26.08,26.86,25.91,26.86ZM20.5,23.11s0,0,.05,0l0,0s0,.05,0,0ZM31,8.84C31,9,31,9,30.78,9c-.51,0-1,0-1.51,0-.17,0-.19,0-.19.16,0,.76-.08,1.51-.06,2.27a3.89,3.89,0,0,0,0,.47,1,1,0,0,0,.86.79c.25,0,.5,0,.74,0s.22,0,.21.19c0,.42,0,.83.05,1.24,0,.23,0,.25-.25.28a6.28,6.28,0,0,1-1.5,0,2.65,2.65,0,0,1-1.5-.6,1.78,1.78,0,0,1-.62-1.12A8.28,8.28,0,0,1,27,10.59c0-.47,0-.94,0-1.41C27,9,27,9,26.8,9l-.68,0C26,9,26,9,26,8.8c0-.51,0-1,0-1.51,0-.17,0-.18.18-.18l.65,0c.2,0,.2,0,.2-.2s0-.55,0-.83h0c0-.28,0-.57,0-.85S27,5,27.24,5c.53,0,1.07,0,1.6,0,.19,0,.2,0,.21.22,0,.43,0,.85,0,1.28,0,.17-.09.38,0,.5s.29,0,.45,0l1.28,0c.18,0,.19,0,.19.19C31,7.85,31,8.34,31,8.84Zm7.54,2.63H35.74c-.46,0-.92.08-1.37,0a.44.44,0,0,0-.16,0,.08.08,0,0,0-.08.11,1.44,1.44,0,0,0,.58,1.16.91.91,0,0,0,.5.19,2.41,2.41,0,0,0,.71-.05.92.92,0,0,0,.71-.71c0-.12.08-.16.19-.15.52.06,1,0,1.55,0,.31,0,.33.05.23.34a4,4,0,0,1-.67,1.24,1.78,1.78,0,0,1-.69.49,4.46,4.46,0,0,1-1.83.39,4.2,4.2,0,0,1-.79-.05,3.1,3.1,0,0,1-1.87-1.14A3.56,3.56,0,0,1,32,11.09V10.6a5.27,5.27,0,0,1,.58-2.31,2.48,2.48,0,0,1,1.79-1.35,3.77,3.77,0,0,1,2.58.28,3,3,0,0,1,1.27,1.27c.08.13.15.28.22.42a2.2,2.2,0,0,1,.2.75,9.78,9.78,0,0,1,.09,1.62C38.7,11.46,38.7,11.47,38.5,11.47Zm5.21-2.42a3,3,0,0,0-.89.08,1.33,1.33,0,0,0-.59.36,1,1,0,0,0-.25.61c0,.88.06,1.75.08,2.63,0,.48,0,1,0,1.44,0,.11,0,.15-.15.15l-.29,0H40.36l-.25,0c-.13,0-.16-.07-.16-.19a2.44,2.44,0,0,0,0-.27c0-1.38,0-2.77-.06-4.15,0-.78,0-1.56-.08-2.34V7.24c0-.08,0-.13.12-.13.52,0,1.05,0,1.57,0,.14,0,.19.07.23.2a2.28,2.28,0,0,0,.18.54l.24-.21A2.93,2.93,0,0,1,43.63,7a.43.43,0,0,1,.16,0c.14,0,.18,0,.17.17,0,.55,0,1.1,0,1.64C44,9,43.94,9.05,43.71,9.05Zm7.91,5.3c-.57,0-1.15,0-1.73,0-.12,0-.16-.07-.15-.17l0-.43c0-.44,0-.88,0-1.33s0-1.06,0-1.59a8.28,8.28,0,0,0-.09-1.23.92.92,0,0,0-1.08-.8l-.2,0a1.06,1.06,0,0,0-.92,1c0,.6,0,1.2,0,1.8s0,1.38,0,2.07c0,.16,0,.33,0,.49s0,.21-.21.21h-1.7c-.25,0-.27,0-.27-.28,0-1,0-1.95.06-2.93s0-1.9,0-2.85c0-.31,0-.62-.07-.92,0,0,0-.06,0-.09,0-.3,0-.3.29-.3a6.37,6.37,0,0,0,1,0,2.16,2.16,0,0,1,.36,0c.27,0,.26,0,.3.25a2.82,2.82,0,0,1,0,.58c0,.06,0,.15,0,.18s.1,0,.14-.09l.1-.09a3.06,3.06,0,0,1,2.9-.73,1.47,1.47,0,0,1,1,.93,4.11,4.11,0,0,1,.27,1.25,14.27,14.27,0,0,1,0,1.73,12.69,12.69,0,0,0,0,1.51c0,.56,0,1.14,0,1.7C51.76,14.3,51.74,14.36,51.62,14.35Zm7.85,0h-.36a5.42,5.42,0,0,0-1.14.08c-.26,0-.36,0-.39-.31s0-.27,0-.4,0-.16-.07-.22a1.48,1.48,0,0,0-.31.25,2.35,2.35,0,0,1-1.45.68,3.68,3.68,0,0,1-.74,0,2.15,2.15,0,0,1-1.79-1.93,7.71,7.71,0,0,1-.08-1.07c0-.71-.06-1.42,0-2.13s0-1.31,0-2V7.22c0-.14.05-.19.19-.19a3.09,3.09,0,0,1,.43,0c.36,0,.72,0,1.08,0h.13c.22,0,.26,0,.26.27,0,.5,0,1,0,1.49s0,1,.08,1.55c0,.24,0,.47,0,.71a2.88,2.88,0,0,0,.15,1.2.6.6,0,0,0,.38.35,1.17,1.17,0,0,0,1.34-.45,2.33,2.33,0,0,0,.35-1.33c0-1.07,0-2.14,0-3.21a2.81,2.81,0,0,1,0-.41c0-.18,0-.21.21-.22h.58c.39,0,.76.08,1.15.07.15,0,.19,0,.17.16a14.77,14.77,0,0,0,0,1.76c0,.78,0,1.57,0,2.36a14.75,14.75,0,0,0,.11,2,2.17,2.17,0,0,1,0,.36,1.6,1.6,0,0,0,0,.43C59.66,14.29,59.63,14.33,59.47,14.34Zm6-5.48c-.48,0-1,0-1.46,0-.19,0-.2,0-.21.19,0,.42,0,.84,0,1.26v.15h0c0,.36,0,.72,0,1.08a4.38,4.38,0,0,0,0,.52.5.5,0,0,0,.39.44,5.62,5.62,0,0,0,1.15.18h.07c.11,0,.16,0,.15.16,0,.28,0,.57,0,.85s0,.43,0,.65,0,.19-.2.19c-.64,0-1.28,0-1.91,0a1.62,1.62,0,0,1-1.49-1.05,1.65,1.65,0,0,1-.1-.62c0-.79,0-1.59,0-2.38a11.06,11.06,0,0,1,0-1.41c0-.15,0-.17-.16-.17h-.79c-.2,0-.2,0-.2-.2,0-.49,0-1,0-1.46V7.13c0-.16,0-.16.16-.17l.83,0c.3,0,.31.06.31-.3,0-.21,0-.42,0-.63s0-.54,0-.81,0-.2.2-.2h1.53c.2,0,.21,0,.21.2,0,.48,0,1,0,1.44V6.8c0,.08,0,.12.11.12h.52c.34,0,.69,0,1,0,.18,0,.18,0,.18.18,0,.5,0,1,0,1.51C65.63,8.85,65.62,8.86,65.42,8.86Zm-56.78,14a1.2,1.2,0,0,0-.9-.45,12,12,0,0,0-1.34,0c-.21,0-.24,0-.27.25a.81.81,0,0,0,0,.16v1h0v1.06c0,.22.08.29.29.26.4-.05.81,0,1.21,0a3.13,3.13,0,0,0,.43,0,.84.84,0,0,0,.7-.52,1.76,1.76,0,0,0,.11-1A1.45,1.45,0,0,0,8.64,22.85ZM6.36,20.6c.23,0,.46,0,.69-.05s.57,0,.85-.08a.75.75,0,0,0,.65-.63,3,3,0,0,0,0-.94.7.7,0,0,0-.66-.6,8.36,8.36,0,0,0-1.66.06.13.13,0,0,0-.15.15,1.77,1.77,0,0,0,0,.23c0,.43,0,.86,0,1.28,0,.13,0,.24,0,.35S6.14,20.63,6.36,20.6Zm-.27-8.09a8.22,8.22,0,0,0,1.41.08,2.54,2.54,0,0,0,.72-.13.74.74,0,0,0,.41-.3,1.5,1.5,0,0,0,.23-1.05,2.22,2.22,0,0,0-.29-.71A.7.7,0,0,0,8,10l-.22,0H7.05v0H6.21c-.16,0-.17,0-.17.18,0,.37,0,.74,0,1.1A11.42,11.42,0,0,0,6,12.4.1.1,0,0,0,6.09,12.51Zm.09-4.38a9.89,9.89,0,0,0,1.44,0,1,1,0,0,0,.85-.64A1.6,1.6,0,0,0,8.3,6a.61.61,0,0,0-.54-.31,10.45,10.45,0,0,0-1.48,0c-.2,0-.21,0-.21.23v1h0c0,.34,0,.69,0,1C6,8.09,6,8.12,6.18,8.13ZM35.4,8.5h-.22a1,1,0,0,0-1,.84,3.29,3.29,0,0,0-.05.54c0,.12.05.15.16.15h2c.15,0,.19,0,.17-.19a2.49,2.49,0,0,0-.18-.7A.93.93,0,0,0,35.4,8.5ZM16.65,22.37a1.12,1.12,0,0,0-.93-1.07,1.24,1.24,0,0,0-1.47.81,2.87,2.87,0,0,0-.07,2,1.8,1.8,0,0,0,.48.82,1,1,0,0,0,1,.27,1.4,1.4,0,0,0,1-1.17,4.61,4.61,0,0,0,0-1.12C16.65,22.76,16.66,22.57,16.65,22.37Z"/></svg>