<svg id="Capa_1" data-name="Capa 1" xmlns="http://www.w3.org/2000/svg" viewBox="0 0 72.77 10.34"><defs><style>.cls-1{fill:#212e44;}</style></defs><path class="cls-1" d="M3.07.33H0V8H3.07A3.71,3.71,0,0,0,6.79,4.16,3.71,3.71,0,0,0,3.07.33Zm0,6H1.75V2H3.07a2,2,0,0,1,2,2.15A2,2,0,0,1,3.07,6.31ZM7.87,8H9.51V2.52H7.87ZM8.69.07a1,1,0,0,0,0,2,1,1,0,0,0,1-1A1,1,0,0,0,8.69.07Zm6.2,3a2,2,0,0,0-1.6-.72A2.71,2.71,0,0,0,10.6,5.15a2.7,2.7,0,0,0,2.69,2.78,2,2,0,0,0,1.6-.71v.5a1.09,1.09,0,0,1-1.24,1.17A1.26,1.26,0,0,1,12.4,8.2L11,9a2.8,2.8,0,0,0,2.6,1.33,2.61,2.61,0,0,0,2.89-2.62V2.52h-1.6ZM13.56,6.42a1.24,1.24,0,0,1-1.32-1.27,1.24,1.24,0,0,1,1.32-1.27,1.24,1.24,0,0,1,1.33,1.27A1.25,1.25,0,0,1,13.56,6.42ZM17.84,8h1.64V2.52H17.84ZM18.66.07a1,1,0,0,0-1,1,1,1,0,1,0,2,0A1,1,0,0,0,18.66.07ZM22.92,1l-1.64.49v1H20.4V4.09h.88V6c0,1.54.62,2.18,2.77,2V6.5c-.72,0-1.13,0-1.13-.47V4.09h1.13V2.52H22.92ZM29,3a2.08,2.08,0,0,0-1.63-.67,2.75,2.75,0,0,0-2.62,2.9,2.75,2.75,0,0,0,2.62,2.89A2.08,2.08,0,0,0,29,7.48V8h1.64V2.52H29ZM27.69,6.59a1.25,1.25,0,0,1-1.3-1.33,1.31,1.31,0,1,1,2.61,0A1.25,1.25,0,0,1,27.69,6.59ZM32,8h1.64V0H32ZM42.69,4a1.91,1.91,0,0,0,.67-1.5A2.24,2.24,0,0,0,40.94.33h-3V8h3.22a2.28,2.28,0,0,0,2.47-2.24A2,2,0,0,0,42.69,4Zm-3-2h1.25a.64.64,0,0,1,.67.68.65.65,0,0,1-.67.68H39.69Zm1.47,4.38H39.69V4.88h1.47a.69.69,0,0,1,.72.74A.69.69,0,0,1,41.16,6.35Zm7.09-.84c0,.77-.41,1.12-1,1.12a.9.9,0,0,1-.95-1V2.52H44.64V5.88a2,2,0,0,0,2,2.27,1.87,1.87,0,0,0,1.56-.67V8h1.64V2.52H48.25ZM53.33,1l-1.64.49v1h-.88V4.09h.88V6c0,1.54.62,2.18,2.77,2V6.5c-.72,0-1.13,0-1.13-.47V4.09h1.13V2.52H53.33ZM58,1l-1.64.49v1h-.88V4.09h.88V6c0,1.54.62,2.18,2.77,2V6.5C58.38,6.55,58,6.5,58,6V4.09h1.13V2.52H58Zm4.74,1.37a2.81,2.81,0,0,0-2.91,2.9A3.05,3.05,0,0,0,65.23,7l-1.32-.76a1.43,1.43,0,0,1-1,.42,1.25,1.25,0,0,1-1.31-.77h3.88a2.76,2.76,0,0,0,.07-.65A2.77,2.77,0,0,0,62.72,2.36Zm-1.2,2.33a1.23,1.23,0,0,1,2.35,0Zm6.71-1.2v-1H66.58V8h1.65V5.52a1.29,1.29,0,0,1,1.64-1.25V2.41A1.64,1.64,0,0,0,68.23,3.49Zm3.5,2.58a1,1,0,1,0,1,1A1,1,0,0,0,71.73,6.07Z"/></svg>