<svg id="Capa_1" data-name="Capa 1" xmlns="http://www.w3.org/2000/svg" viewBox="0 0 69.89 39.19"><defs><style>.cls-1{fill:#212e44;}</style></defs><path class="cls-1" d="M30.82,27a.68.68,0,0,0-.63.71.68.68,0,1,0,1.35-.05A.67.67,0,0,0,30.82,27ZM64.34,13.43c-.73-.34-1.5-.64-2.24-1-.94-.43-1.9-.79-2.81-1.28l-.1,0-.1-.06a.43.43,0,0,1-.22-.06L55.79,9.69l-2.68-1.2-5-2.17A2.31,2.31,0,0,1,47.46,6a.78.78,0,0,1-.38-.15s-.06,0-.08,0a16.37,16.37,0,0,1-1.56-.68c-2.08-.91-4.16-1.8-6.24-2.72a10.63,10.63,0,0,0-3.84-.87,10.17,10.17,0,0,0-4.46.79L29.25,3l-.46.21c-.82.34-1.63.7-2.45,1s-1.88.87-2.83,1.29c-2.28,1-4.57,2-6.85,3s-4.76,2.09-7.14,3.13l-4,1.74a6.31,6.31,0,0,0-1.61,1,6.63,6.63,0,0,0-2.27,6.52,6.39,6.39,0,0,0,3.8,4.85c1,.48,2.06.91,3.08,1.38s1.9.75,2.8,1.26a2.73,2.73,0,0,0,.65.3,2.89,2.89,0,0,1,.8.31.18.18,0,0,1,.17.08,1.55,1.55,0,0,1,.48.19.22.22,0,0,1,.18.08.77.77,0,0,1,.38.17,11.43,11.43,0,0,1,1.35.58c2.1.92,4.2,1.82,6.29,2.75.8.37,1.62.71,2.41,1.11s1.52.6,2.26.94l4.06,1.82.3.1a11.87,11.87,0,0,0,2.93.79,17.12,17.12,0,0,0,2.48,0,.52.52,0,0,1,.37,0l.29,0a.48.48,0,0,1,.26-.09,10.15,10.15,0,0,0,2.2-.67l3.21-1.41c.82-.36,1.62-.75,2.46-1l.37-.19L50.35,32l5-2.22,9.05-4a6,6,0,0,0,1.91-1.28,6.61,6.61,0,0,0,1.94-5.86A6.5,6.5,0,0,0,64.34,13.43ZM12.17,19.68c-.75.05-1.5.12-2.25.16-.22,0-.3.07-.28.3.08.9-.08.75.79.69l.79,0c.31,0,.32,0,.36.33.05.55,0,.57-.52.6a11.46,11.46,0,0,0-1.29.12c0,.57.09,1.12.12,1.67,0,.33,0,.38-.33.41H9.51c-.71,0-.66.1-.71-.59-.09-1.28-.2-2.57-.3-3.86,0-.43,0-.44.39-.47l3.31-.24c.39,0,.39,0,.42.36v.05C12.65,19.66,12.64,19.65,12.17,19.68Zm7,2.72a2.76,2.76,0,0,1-3.44.58,2.34,2.34,0,0,1-1.17-2.41,2.46,2.46,0,0,1,2-2c.2,0,.4,0,.55-.07A2.6,2.6,0,0,1,19.62,20,2.11,2.11,0,0,1,19.21,22.4Zm5.87.56a2.59,2.59,0,0,1-1.51-.07,1.63,1.63,0,0,1-1.19-1.53c0-.86-.07-1.73-.1-2.59,0-.33,0-.34.32-.37h.1c.61,0,.6,0,.62.58s.08,1.51.08,2.26a1,1,0,0,0,1.11.94c.69,0,1-.36,1-1,0-.82-.05-1.63-.07-2.45,0-.38,0-.39.37-.4.64,0,.65,0,.67.58,0,.38,0,.77,0,1.15h.05c0,.34,0,.68,0,1A1.68,1.68,0,0,1,25.08,23ZM28.17,27c-.29,0-.58,0-.87,0-.12,0-.21,0-.22.17s.08.19.2.19h.32c.2,0,.28.06.27.26s-.1.22-.26.23c-.52,0-.52,0-.53.54,0,.36-.06.39-.4.36-.16,0-.21-.08-.2-.23V26.76c0-.17.05-.26.23-.25h1.47c.2,0,.22.1.22.26S28.36,27,28.17,27Zm2.69,1.81a1.21,1.21,0,0,1-1.27-1.17,1.24,1.24,0,0,1,1.27-1.24,1.32,1.32,0,0,1,1.33,1.21A1.29,1.29,0,0,1,30.86,28.84Zm2-6.34c-.23-.4-.46-.8-.67-1.2a.37.37,0,0,0-.4-.23,8.61,8.61,0,0,1-.88,0c-.19,0-.24.08-.23.25,0,.38,0,.77,0,1.15,0,.2-.06.28-.26.28-.79,0-.72.13-.74-.65,0-1.14,0-2.28,0-3.41v-.23c0-.18.09-.25.26-.25h2.35a2,2,0,0,1,.77.12,1.34,1.34,0,0,1,.45,2.3L33,21c.26.42.51.85.76,1.27a2.54,2.54,0,0,1,.16.28c.05.12,0,.22-.13.22h-.74C32.92,22.73,32.87,22.61,32.81,22.5Zm2,6.34a1.22,1.22,0,0,1-1.27-1.18,1.3,1.3,0,0,1,2.59,0A1.23,1.23,0,0,1,34.78,28.84Zm.43-16.22c-.21-.2-.35-.18-.54,0a1.39,1.39,0,0,1-1.35.42c-.18-.05-.27,0-.33.21a2.7,2.7,0,0,1-.24.55.37.37,0,0,1-.52.15.38.38,0,0,1-.18-.51c.07-.21.29-.43.19-.63s-.36-.21-.54-.32a3.94,3.94,0,0,1-1.88-3.59c0-.78.29-.94,1-.6a4,4,0,0,1,2.41,3.55c0,.38.27.54.64.37a2.4,2.4,0,0,0,.26-.18c.26-.21.27-.21.09-.52a4.5,4.5,0,0,1-.09-4.73,4.39,4.39,0,0,1,.42-.61.46.46,0,0,1,.81,0,4.51,4.51,0,0,1,1,3,4.27,4.27,0,0,1-.74,2.34c-.13.21-.1.33.09.45a.92.92,0,0,0,.52.26c.33,0,.4,0,.41-.38a4,4,0,0,1,2.42-3.59c.7-.34,1-.18,1,.61a3.86,3.86,0,0,1-2.17,3.73c-.32.17-.32.17-.18.52a3.07,3.07,0,0,1,.14.34.37.37,0,0,1-.21.46.36.36,0,0,1-.49-.14,2.87,2.87,0,0,1-.24-.54c-.07-.19-.14-.3-.36-.24A1.37,1.37,0,0,1,35.21,12.62Zm3.72,16.14a6.42,6.42,0,0,1-1.24,0c-.15-.37,0-.76-.06-1v-1c0-.17,0-.25.23-.25.34,0,.68,0,1,0a1.09,1.09,0,0,1,1.06,1.12A1.08,1.08,0,0,1,38.93,28.76Zm1.72-10c0,.2-.08.28-.27.27l-.93,0c-.46,0-.46,0-.46.44,0,.94,0,1.88,0,2.81,0,.43,0,.43-.43.43-.66,0-.58,0-.58-.56,0-.93,0-1.85,0-2.77,0-.35,0-.36-.35-.37s-.65,0-1,0-.32,0-.33-.35V18.6c0-.41,0-.41.42-.41h1.75v0h1.85c.3,0,.33,0,.33.35C40.66,18.66,40.65,18.73,40.65,18.81Zm2.5,9.92a1.8,1.8,0,0,1-1.31,0,1.2,1.2,0,0,1-.5-.29c0-.11.09-.17.14-.25s.18-.13.31,0a1.26,1.26,0,0,0,.65.22,1.77,1.77,0,0,0,.32,0,.24.24,0,0,0,.2-.23c0-.13-.1-.19-.22-.2-.27,0-.55-.06-.82-.12a.62.62,0,0,1-.47-.88.63.63,0,0,1,.47-.41,1.83,1.83,0,0,1,1.46.18c-.21.42-.2.41-.6.31a.91.91,0,0,0-.63,0,.24.24,0,0,0-.14.17.16.16,0,0,0,.14.16,1.64,1.64,0,0,0,.32.05,5.58,5.58,0,0,1,.59.1.59.59,0,0,1,.51.57A.69.69,0,0,1,43.15,28.73Zm3.52-5.8h-.09l-3-.09c-.4,0-.4,0-.4-.43V20.62s.06-.05.09-.05c0-.63,0-1.26,0-1.89,0-.38,0-.39.41-.38,1,0,2.06.06,3.09.09.35,0,.36,0,.36.38,0,.06,0,.12,0,.18,0,.22-.09.3-.31.29l-2.07-.06h-.33a.13.13,0,0,0-.14.14c0,.06,0,.12,0,.18,0,.65-.08.54.52.56l.87,0c.21,0,.32.09.29.31a1.31,1.31,0,0,0,0,.28c0,.22-.1.3-.31.29l-1.11,0c-.21,0-.3.05-.32.27-.07.79-.08.8.72.83l1.8.06c.43,0,.44,0,.43.45S47.08,22.93,46.67,22.93ZM51,20c0,.14-.1.36.18.37s.74,0,1.11.05.36,0,.36.39a2,2,0,0,1,0,.23c0,.18-.09.27-.29.26-.37,0-.74,0-1.1-.07s-.34.05-.33.3-.11.54,0,.71.47.08.71.1l1.88.11c.14,0,.31,0,.32.18s0,.44-.1.62-.17.05-.26.05l-3.28-.17c-.35,0-.36,0-.35-.38,0-.6.05-1.2.07-1.8h0c0-.64.05-1.29.08-1.93,0-.44,0-.44.45-.42l3,.14c.14,0,.35-.05.4.13a1,1,0,0,1,0,.64c0,.13-.2.09-.33.09l-1.88-.11h-.42C50.84,19.49,51,19.77,51,20Zm10.38-.21c-.11,1.26-.2,2.52-.3,3.78,0,.43,0,.41-.45.42a.79.79,0,0,1-.73-.38c-.56-.83-1.16-1.63-1.75-2.44a4.08,4.08,0,0,0-.3-.37,1.82,1.82,0,0,0-.1.62l-.12,1.94c0,.35,0,.36-.39.35-.86,0-.74,0-.7-.73.08-1.31.19-2.61.27-3.92,0-.21.09-.3.31-.3a1.07,1.07,0,0,1,1,.5c.56.87,1.19,1.68,1.79,2.52,0,.06.07.14.21.15,0-.4.07-.81.1-1.21s.07-.92.11-1.38c0-.31.06-.36.36-.33C61.5,19.05,61.44,18.94,61.36,19.74Zm-44.19-.37a1.56,1.56,0,1,0,1.55,1.53A1.51,1.51,0,0,0,17.17,19.37Zm52.63-1a7.86,7.86,0,0,0-1-3,8.41,8.41,0,0,0-2-2.31,9.35,9.35,0,0,0-2.2-1.25c-1-.42-2-.87-3-1.31l-3.3-1.43L55.43,7.85,51.66,6.21,48.8,4.94c-1.53-.7-3.08-1.33-4.61-2s-3.06-1.37-4.61-2A12.09,12.09,0,0,0,35.06,0c-.42,0-.83,0-1.24.07a11.73,11.73,0,0,0-2.88.61c-1.22.42-2.38,1-3.56,1.5S25,3.25,23.79,3.77L19,5.85,15,7.63l-5,2.2c-.92.4-1.84.78-2.75,1.2s-2.09.89-3.09,1.44A7.62,7.62,0,0,0,1,15.62a8.27,8.27,0,0,0-.75,6.07,7.8,7.8,0,0,0,3,4.54A10.35,10.35,0,0,0,5.5,27.45c1.37.59,2.73,1.21,4.1,1.8,1.59.7,3.19,1.37,4.77,2.08,1.42.64,2.85,1.24,4.26,1.88,1.79.82,3.62,1.56,5.41,2.36l5.88,2.57a11.81,11.81,0,0,0,5,1,10.7,10.7,0,0,0,1.7-.09,12.6,12.6,0,0,0,3-.81l2.32-1,4.18-1.83,4.06-1.78,4.18-1.83c1.07-.46,2.14-.94,3.21-1.41l3.63-1.59,3.21-1.39a9.56,9.56,0,0,0,3.18-2.09,8.43,8.43,0,0,0,1.17-1.6A8.11,8.11,0,0,0,69.8,18.39Zm-.88,2.26a7.17,7.17,0,0,1-2.72,4.82A9.79,9.79,0,0,1,64,26.69l-7.44,3.25-5.07,2.23L45.08,35a2.85,2.85,0,0,1-.31.12l-1.21.54c-1.39.61-2.78,1.24-4.17,1.84a8.22,8.22,0,0,1-2.38.68l0,0h0a.32.32,0,0,1-.28.06,11.19,11.19,0,0,1-6.48-.89.87.87,0,0,1-.11-.09l-.17-.07s-.06,0-.08,0a22.78,22.78,0,0,1-2.15-.92c-1.1-.51-2.23-1-3.34-1.46L20.4,33,15.63,31c-.55-.25-1.11-.46-1.64-.75l-.1,0a.11.11,0,0,1-.09-.05L11,28.91c-1.4-.61-2.8-1.2-4.19-1.83a21.28,21.28,0,0,1-2.41-1.15,7.16,7.16,0,0,1-3.09-3.84,7.46,7.46,0,0,1,2.29-8.22,7.62,7.62,0,0,1,1.78-1.06l9.43-4.13L22.05,5.5l4.79-2.08A.24.24,0,0,1,27,3.34a1.26,1.26,0,0,1,.46-.2.19.19,0,0,1,.18-.08,2.6,2.6,0,0,1,.66-.29.2.2,0,0,1,.17-.08,1.44,1.44,0,0,1,.48-.2.19.19,0,0,1,.17-.07.07.07,0,0,1,.08,0,11.46,11.46,0,0,1,10.17-.6c.69.28,1.37.6,2.06.91a8,8,0,0,1,.82.44,7,7,0,0,0,.77.26c1.28.57,2.56,1.12,3.84,1.68.39.17.77.36,1.15.54.61.2,1.19.49,1.78.75a17.12,17.12,0,0,1,2.13,1,3.39,3.39,0,0,0,.89.33,4.34,4.34,0,0,1,.54.25A14,14,0,0,1,55,8.65c1.16.5,2.33,1,3.48,1.53l1.07.47c.71.26,1.38.59,2.07.9,1,.44,2,.85,3,1.29a7.18,7.18,0,0,1,2.15,1.42A7.36,7.36,0,0,1,68.92,20.65ZM39.22,9.19a2.91,2.91,0,0,0-1.72,2.72A2.9,2.9,0,0,0,39.22,9.19ZM38.35,27c-.12,0-.12.13-.12.22v.69c0,.34,0,.34.37.34s.69-.2.71-.59A.69.69,0,0,0,38.35,27Zm-3.42-20a3.61,3.61,0,0,0,0,4A3.48,3.48,0,0,0,34.93,7.05ZM30.64,9.21a2.88,2.88,0,0,0,1.74,2.68A2.82,2.82,0,0,0,30.64,9.21ZM34.8,27a.66.66,0,0,0-.67.68.68.68,0,1,0,1.35,0A.66.66,0,0,0,34.8,27ZM32.3,19c-.23,0-.46,0-.69,0h-.79c-.16,0-.22.07-.21.22s0,.52,0,.78,0,.2.18.2c.51,0,1,0,1.52,0a.6.6,0,0,0,.6-.63A.61.61,0,0,0,32.3,19Z"/></svg>