<svg id="Capa_1" data-name="Capa 1" xmlns="http://www.w3.org/2000/svg" viewBox="0 0 69.39 15.42"><defs><style>.cls-1{fill:#212e44;}</style></defs><path class="cls-1" d="M30.52,3.15A3.56,3.56,0,0,0,28.72,3,2.75,2.75,0,0,0,26.87,4.1a2.6,2.6,0,0,0-.57,1.81,1.55,1.55,0,0,1,0,.22,2.74,2.74,0,0,0,.91,2.14A2.82,2.82,0,0,0,28.88,9a3.23,3.23,0,0,0,2.05-.38,2.71,2.71,0,0,0,1.36-2,5.08,5.08,0,0,0,0-1A2.84,2.84,0,0,0,30.52,3.15ZM30.3,7.72a1.81,1.81,0,0,1-2.46-.46,2.1,2.1,0,0,1-.23-2.12,1.83,1.83,0,0,1,2.3-1A1.88,1.88,0,0,1,31.17,6,1.88,1.88,0,0,1,30.3,7.72ZM15.8,2.24H13.56a.6.6,0,0,0-.34.11.71.71,0,0,0-.29.7,4,4,0,0,1-.58,2A7.1,7.1,0,0,1,11.08,6.7c-.53.55-1.1,1.08-1.63,1.64a15,15,0,0,0-1.23,1.4,5.08,5.08,0,0,1-.39-.41C7.56,9,7.3,8.7,7,8.41,6.32,7.71,5.59,7,4.94,6.29A6.55,6.55,0,0,1,3.8,4.58a4.47,4.47,0,0,1-.34-1.65c0-.41-.25-.69-.62-.69-.78,0-1.56,0-2.34,0a.53.53,0,0,0-.5.51A6.57,6.57,0,0,0,.1,4.28c.13.44.2.9.37,1.33A8.94,8.94,0,0,0,1.2,7.1,16.64,16.64,0,0,0,3.63,10,18.56,18.56,0,0,1,5.45,11.9a5.42,5.42,0,0,1,.81,1.52,2.57,2.57,0,0,1,.12.55v1.11a.31.31,0,0,0,.31.32h3a.31.31,0,0,0,.31-.32V13.87s0-.07,0-.1a4.65,4.65,0,0,1,.84-1.8,16.51,16.51,0,0,1,2-2.16A19.61,19.61,0,0,0,14.59,8a8.27,8.27,0,0,0,1.52-2.91,8.16,8.16,0,0,0,.3-2.2A.58.58,0,0,0,15.8,2.24ZM31.48,13.67c-.23-.66-.51-1.3-.76-1.95a.54.54,0,0,0-.49-.36.49.49,0,0,0-.56.34c-.12.32-.24.64-.37,1-.31.75-.54,1.53-.88,2.26a.33.33,0,0,0,0,.38.42.42,0,0,0,.44.09.43.43,0,0,0,.25-.26c.09-.21.18-.42.25-.64a.27.27,0,0,1,.29-.22h1a.27.27,0,0,1,.29.22c.08.24.19.48.29.71a.43.43,0,0,0,.51.19c.19-.05.24-.17.2-.43a1.39,1.39,0,0,0-.06-.19C31.77,14.41,31.61,14,31.48,13.67Zm-1,0a2.3,2.3,0,0,1-.37,0c-.55,0-.58,0-.33-.57.09-.2.15-.41.23-.62s.07-.17.18-.17.1.11.13.18c.12.28.18.59.31.88S30.68,13.65,30.5,13.68Zm-3.45,1.06H25.48c-.26,0-.29-.06-.31-.32a3.43,3.43,0,0,1,0-.56.17.17,0,0,1,.17-.17h1.24A.3.3,0,0,0,27,13.4a.31.31,0,0,0-.24-.35.77.77,0,0,0-.26,0h-.87c-.33,0-.39-.07-.37-.39a1.27,1.27,0,0,0,0-.2c0-.34,0-.35.36-.35h1.47a.29.29,0,0,0,.33-.3c0-.23-.12-.36-.41-.36h-2c-.41,0-.56.16-.56.57v1.37h0c0,.44,0,.89,0,1.33a1.14,1.14,0,0,0,.05.37c.08.3.15.36.46.36H27c.28,0,.42-.14.41-.37S27.33,14.75,27.05,14.74ZM8.33,5.66a2.79,2.79,0,0,0,2.87-2.8,2.84,2.84,0,1,0-5.68,0A2.77,2.77,0,0,0,8.33,5.66ZM21.26,8.85a4.28,4.28,0,0,0,3.18-.2A2.65,2.65,0,0,0,25.6,7.59a.7.7,0,0,0-.3-1c-.28-.13-.44-.09-.58.18a1.77,1.77,0,0,1-.84.78,2.52,2.52,0,0,1-2,.16,2.48,2.48,0,0,1-1.37-1.09,2.92,2.92,0,0,1-.41-1.71,2.34,2.34,0,0,1,.17-1.06A2.59,2.59,0,0,1,21,2.75a2.64,2.64,0,0,1,3-.2,2.1,2.1,0,0,1,.67.59c.13.21.26.25.41.19a.73.73,0,0,0,.37-1.14,2.45,2.45,0,0,0-1.25-.95,4.22,4.22,0,0,0-2.46-.18,3.84,3.84,0,0,0-1.8.9,3.79,3.79,0,0,0-.78,1,4.36,4.36,0,0,0-.48,2.09,4.25,4.25,0,0,0,.4,1.8A3.55,3.55,0,0,0,21.26,8.85ZM23,11.62a.31.31,0,0,0-.27-.26.34.34,0,0,0-.46.36c0,.37,0,.73,0,1.1,0,.22,0,.25-.25.25H20.67c-.23,0-.24,0-.26-.25v-.27c0-.26,0-.51,0-.77a.4.4,0,0,0-.4-.43c-.24,0-.36.13-.37.41a1,1,0,0,0,0,.17V14.3c0,.25,0,.49,0,.74a.36.36,0,0,0,.41.37c.28,0,.36-.09.36-.39s0-.65,0-1,0-.31.3-.31h1.2c.33,0,.37,0,.37.39s0,.6,0,.9.22.44.53.35.2-.2.21-.37c0-1-.05-2.09,0-3.13A.75.75,0,0,0,23,11.62ZM33.27,6.76c0,.49,0,1,0,1.47s.21.7.64.65h.24a.42.42,0,0,0,.38-.36,2.44,2.44,0,0,0,0-.27V5.33A.71.71,0,0,1,34.6,5a1.7,1.7,0,0,1,1.45-.88,1.09,1.09,0,0,1,1,.45,1.5,1.5,0,0,1,.3,1c0,.87,0,1.74,0,2.61,0,.64.17.79.81.74a.44.44,0,0,0,.44-.38.87.87,0,0,0,0-.23c0-1,0-2,0-3a2.67,2.67,0,0,0-.21-1.08,1.79,1.79,0,0,0-1.27-1.09,2.42,2.42,0,0,0-2.34.51c-.18.17-.23.15-.34-.07a.45.45,0,0,0-.06-.12.71.71,0,0,0-.84-.32c-.2.05-.27.19-.27.57V6.76ZM51.76,3.48a.42.42,0,0,0-.29-.36.61.61,0,0,0-.9.57c0,1,0,1.94,0,2.91a1.22,1.22,0,0,1-.53,1,1.75,1.75,0,0,1-1,.34A1.16,1.16,0,0,1,47.84,7a3.22,3.22,0,0,1-.13-.93V3.61a.45.45,0,0,0-.22-.45.7.7,0,0,0-.7,0,.55.55,0,0,0-.28.59V5.8a7.51,7.51,0,0,0,.06,1.5,2,2,0,0,0,.68,1.25A2,2,0,0,0,48.37,9a2.28,2.28,0,0,0,2-.61c.17-.17.2-.17.29.06a.72.72,0,0,0,.73.47c.33,0,.43-.09.43-.43V3.82C51.78,3.71,51.77,3.59,51.76,3.48ZM56.31,3a3.06,3.06,0,0,0-2.12.35A2.83,2.83,0,0,0,53,4.84a3.71,3.71,0,0,0-.17,1.58,2.64,2.64,0,0,0,1.73,2.4,3.7,3.7,0,0,0,2.68,0,1.84,1.84,0,0,0,1-.73.6.6,0,0,0-.33-1,.23.23,0,0,0-.32.08A2,2,0,0,1,55.77,8,1.89,1.89,0,0,1,54,6.75c-.08-.31-.05-.37.26-.37H58c.34,0,.51-.15.5-.48a3.32,3.32,0,0,0-.31-1.49A2.54,2.54,0,0,0,56.31,3Zm.82,2.47h-2.9c-.26,0-.31-.08-.22-.3a1.82,1.82,0,0,1,1.37-1.24,1.55,1.55,0,0,1,1.79.94l.12.35A.18.18,0,0,1,57.13,5.47Zm6-2.45a2.37,2.37,0,0,0-2.25.6c-.13.14-.18.12-.27-.1A.68.68,0,0,0,59.79,3c-.31,0-.38.1-.38.41V5.89h0V8.13c0,.67.13.79.81.74a.46.46,0,0,0,.44-.37,1,1,0,0,0,0-.24v-3a.77.77,0,0,1,.07-.39,1.69,1.69,0,0,1,1.34-.83,1.18,1.18,0,0,1,1,.33,1.3,1.3,0,0,1,.38.93c0,.94,0,1.87,0,2.81,0,.58.19.75.77.73a.45.45,0,0,0,.52-.44,1.51,1.51,0,0,0,0-.3c0-.87,0-1.74,0-2.6a3.54,3.54,0,0,0-.24-1.34A1.82,1.82,0,0,0,63.09,3Zm6.28,4.89a.3.3,0,0,0-.52-.17,1.17,1.17,0,0,1-.44.23.63.63,0,0,1-.81-.38A1.67,1.67,0,0,1,67.48,7c0-.83,0-1.67,0-2.5,0-.33,0-.34.34-.34s.63,0,.94,0a.53.53,0,0,0,.5-.78.49.49,0,0,0-.5-.31c-.33,0-.65,0-1,0s-.3,0-.3-.3,0-.41,0-.61a.39.39,0,0,0-.1-.31.73.73,0,0,0-.71-.17.49.49,0,0,0-.42.48,4,4,0,0,0,0,.6c0,.24,0,.3-.28.31a1,1,0,0,0-.41.09c-.24.1-.24.29-.24.5a.42.42,0,0,0,.25.46,1.4,1.4,0,0,0,.45.06c.21,0,.25.06.23.25-.06.52,0,1,0,1.47s0,.85,0,1.23a2.52,2.52,0,0,0,.12.86,1.35,1.35,0,0,0,.77.9,1.66,1.66,0,0,0,.6.15,1.79,1.79,0,0,0,1.44-.38A.73.73,0,0,0,69.37,7.91Zm-30.29,3.5H36.31a.42.42,0,0,0-.16,0,.32.32,0,0,0-.2.38.27.27,0,0,0,.31.23H37c.18,0,.28,0,.27.25a1.64,1.64,0,0,1,0,.23c-.06.75,0,1.51,0,2.27a.58.58,0,0,0,.12.4.38.38,0,0,0,.48.18c.2-.05.24-.12.24-.38,0-.43,0-.87,0-1.3h0v-1.3c0-.34,0-.35.33-.35h.67c.26,0,.37-.18.3-.44A.27.27,0,0,0,39.08,11.41Zm-3.49,3.35a.7.7,0,0,0-.29,0H34.13c-.29,0-.33,0-.33-.33V11.74c0-.23-.11-.32-.33-.34s-.41.08-.41.37v1.57h0c0,.51,0,1,0,1.51a.48.48,0,0,0,.55.57c.57,0,1.14,0,1.71,0h.2c.18,0,.24-.14.27-.29A.31.31,0,0,0,35.59,14.76Zm4.94-5.94c.12.08.26,0,.39.06a.54.54,0,0,0,.63-.62c0-.61,0-1.23,0-1.84h0c0-.61,0-1.23,0-1.84,0-.41,0-.41.4-.41h.47A.54.54,0,0,0,43,3.59c0-.32-.23-.52-.6-.53h-.63c-.15,0-.23-.07-.23-.22a2.68,2.68,0,0,1,.05-.63.67.67,0,0,1,.69-.59,1.36,1.36,0,0,1,.72.23c.18.11.27.08.37-.11a.67.67,0,0,0-.28-1A2.14,2.14,0,0,0,41.67.61a1.47,1.47,0,0,0-1.07.72,2.25,2.25,0,0,0-.31,1c0,.18,0,.36,0,.54a.16.16,0,0,1-.18.18c-.15,0-.3,0-.44,0a.52.52,0,0,0-.51.3c-.13.36,0,.78.49.81h.2c.45,0,.45,0,.45.46,0,1.23,0,2.45,0,3.68A.6.6,0,0,0,40.53,8.82ZM44.69.66c-.41-.14-.68,0-.68.48,0,2.36,0,4.72,0,7.07,0,.53.16.7.7.67a.54.54,0,0,0,.57-.55c0-.1,0-.2,0-.3V1.89a2.11,2.11,0,0,0-.12-.75A.74.74,0,0,0,44.69.66Zm-1,10.84a.33.33,0,0,0-.39-.12c-.13.06-.28.13-.27.33s0,.69,0,1,0,.33-.34.33h-1c-.52,0-.49.06-.49-.51,0-.25,0-.51,0-.77s-.13-.42-.32-.43a.41.41,0,0,0-.43.38,1.09,1.09,0,0,0,0,.26c0,.91,0,1.83,0,2.74a1.81,1.81,0,0,0,0,.4c.06.23.12.27.35.27s.38-.12.39-.39,0-.65,0-1,.06-.31.31-.32h1.2c.32,0,.35,0,.36.35s0,.64,0,1a.31.31,0,0,0,.21.34c.31.1.51,0,.51-.36,0-.54,0-1.09,0-1.63h0V11.82A.45.45,0,0,0,43.69,11.5Z"/></svg>