<svg id="Capa_1" data-name="Capa 1" xmlns="http://www.w3.org/2000/svg" viewBox="0 0 69.91 27.34"><defs><style>.cls-1{fill:#212e44;}</style></defs><path class="cls-1" d="M69.91,9V8.16H65.36V9l1.06.21c.38.08.48.38.25,1L64.22,16c-.11.24-.24.24-.32,0l-2.29-5.89c-.24-.61-.1-.88.27-1L62.94,9V8.16H53.48V9l1.06.21c.37.08.51.38.27,1l-2.37,6.22c-.11.24-.24.24-.32,0l-2.39-6.22c-.22-.61-.11-.88.26-1L51.06,9v-.8h-6V9l.58.13a1,1,0,0,1,.8.67l4.07,10h1.83l4.07-10c.21-.54.45-.75.88-.75h.15c.35,0,.62.13.83.64l4.25,10.37-1.14,2.71c-.75,1.81-1.3,2.13-2,2.13-.3,0-.63-.05-.93-.05a1.24,1.24,0,0,0-1.33,1.22c0,.72.58,1.22,1.51,1.22,1.33,0,2.64-1.06,3.72-3.61l5.8-13.59a1.48,1.48,0,0,1,1.17-1L69.91,9Zm-24.28,10-1.3-.14a.36.36,0,0,1-.31-.4V0L39.33,1.2v.55l1.33.43a.45.45,0,0,1,.29.46V18.32a.53.53,0,0,1-.58.51l-1.19,0-1.26,0a.52.52,0,0,1-.58-.51V7.71l-4.69,1.2v.55L34,9.89a.43.43,0,0,1,.29.45V18.4a.36.36,0,0,1-.32.4l-1.08.13v.85H45.63v-.84ZM37.39,5c0-1.33-1.2-2.31-3.4-2.31-3,0-5.37,2-5.37,5,0,.24,0,.43,0,.61a6.31,6.31,0,0,0-2.47-.47c-2.39,0-5.27,1.46-5.27,4.62A4.17,4.17,0,0,0,23.16,16c-2.12.29-3.35,1.44-3.35,3.22s1.44,3.1,4.12,2.79l3.88-.48c1.94-.24,2.58.45,2.58,1.46,0,1.76-1.65,3.17-4.28,3.17-2.1,0-2.87-.75-2.87-1.81,0-.16,0-.37,0-.53a1,1,0,0,0-1-1.12A1.18,1.18,0,0,0,21,24c0,1.76,1.68,3.33,5.11,3.33,3.85,0,6.3-2.5,6.3-5.37,0-2.29-1.84-3.54-4.36-3.22l-4.44.56c-1.46.18-1.92-.29-1.92-1s1-1.57,4.28-1.57h.07c2.41,0,5.26-1.46,5.26-4.63a3.92,3.92,0,0,0-1.06-2.68,3.33,3.33,0,0,1-.33-1.65,3.38,3.38,0,0,1,3.25-3.67c.69,0,.9.11.9.58,0,.14,0,.24,0,.4A1.67,1.67,0,1,0,37.39,5m-9,7.31c0,1.87-.85,3.46-2.18,3.46s-2.28-1.41-2.28-3.57c0-1.83.85-3.45,2.2-3.45s2.26,1.41,2.26,3.57m-8.62-1.92c0-5.29-4-9.49-9.83-9.49A9.55,9.55,0,0,0,0,10.58c0,5.3,4,9.5,9.84,9.5a9.55,9.55,0,0,0,9.89-9.71m-3.9.13c0,4.7-2.37,8.43-5.94,8.43s-6-3.57-6-8.48C3.91,5.74,6.28,2,9.84,2s6,3.57,6,8.48"/></svg>