<svg id="Capa_1" data-name="Capa 1" xmlns="http://www.w3.org/2000/svg" viewBox="0 0 72.77 24.04"><defs><style>.cls-1{fill:#212e44;}</style></defs><path class="cls-1" d="M60.43,12c-.08,1.36-.17,2.73-.25,4.1,0,.28,0,.28.24.37a14,14,0,0,0,5.44.78,14.18,14.18,0,0,0,4-.83.18.18,0,0,0,.15-.22c-.11-1.53-.21-3.06-.32-4.59-.08-1.2-.16-2.41-.25-3.62,0-.21,0-.43,0-.65s0-.16-.17-.09a10.49,10.49,0,0,1-2.31.85,5.64,5.64,0,0,1-3.18-.09A4,4,0,0,1,61,3.79,4.12,4.12,0,0,1,68.33,1.5a4.76,4.76,0,0,1,.8,1.17c0,.08,0,.13-.06.17l-2.25,1c-.11.05-.14,0-.18-.08a2,2,0,0,0-1.15-1A1.37,1.37,0,0,0,63.78,3.9,1.34,1.34,0,0,0,65,5.55a4.18,4.18,0,0,0,2-.25,11.88,11.88,0,0,0,2.81-1.45,1.45,1.45,0,0,1,1.17-.26,1.31,1.31,0,0,1,1,1.29c.1,1.29.18,2.59.27,3.88s.2,2.75.29,4.12c.08,1.17.17,2.33.24,3.5a2.46,2.46,0,0,1-1.63,2.52A16.5,16.5,0,0,1,64.23,20a16.11,16.11,0,0,1-5.17-1.11,2.51,2.51,0,0,1-1.63-2.59c.11-1.6.2-3.21.3-4.82L58,7.63c0-.13,0-.17.17-.16.8.06,1.6.11,2.41.15.14,0,.15.06.15.18-.1,1.41-.18,2.82-.27,4.24Z"/><path class="cls-1" d="M7.1,19.46A10.15,10.15,0,0,1,3,18.74,6.94,6.94,0,0,1,.62,17.13C.44,17,.27,16.77.09,16.6s-.11-.19,0-.29l1.41-1.23L2.79,14a.22.22,0,0,1,.34,0c.41.35.77.77,1.22,1.09A4.41,4.41,0,0,0,8,15.78a1.45,1.45,0,0,0,.84-.51,1,1,0,0,0-.17-1.36,3,3,0,0,0-1.19-.51l-2.85-.63A5.37,5.37,0,0,1,1.8,11.26,4,4,0,0,1,.71,8.89,4.71,4.71,0,0,1,1,6.72,4.59,4.59,0,0,1,2.68,4.54,6.44,6.44,0,0,1,6,3.37a9.77,9.77,0,0,1,3.53.31A7.19,7.19,0,0,1,12.06,4.9c.34.27.64.58.95.88.1.1,0,.16,0,.23-.66.66-1.31,1.33-2,2-.14.14-.27.28-.4.43a.19.19,0,0,1-.29,0c-.33-.24-.65-.48-1-.71a4.63,4.63,0,0,0-2-.83,2.89,2.89,0,0,0-1.69.2A.93.93,0,0,0,5,8a.86.86,0,0,0,.42.7,2.09,2.09,0,0,0,.82.33l3,.7a7.05,7.05,0,0,1,2.25.93,4.06,4.06,0,0,1,1.87,3.13,4.56,4.56,0,0,1-1.08,3.52,5.72,5.72,0,0,1-3.4,1.95A9.31,9.31,0,0,1,7.1,19.46Z"/><path class="cls-1" d="M33,16.11V8.47c0-.28,0-.28.27-.28h3.28c.23,0,.23,0,.23.23s0,.26,0,.39,0,.08,0,.1.08,0,.11-.05a3.41,3.41,0,0,1,1.88-.92,5.15,5.15,0,0,1,4.57,1.39A5.38,5.38,0,0,1,45,12.86a6.65,6.65,0,0,1-.24,2.77,5.24,5.24,0,0,1-4.33,3.78,5.67,5.67,0,0,1-2-.06.23.23,0,0,1-.22-.26c0-1,0-2,0-3,0-.2,0-.19.21-.19a3.27,3.27,0,0,0,1.32-.1,2.27,2.27,0,0,0,1.46-2,2.15,2.15,0,0,0-1.13-2.09,2.18,2.18,0,0,0-3.25,1.62,3.9,3.9,0,0,0,0,.59v10a.12.12,0,0,1-.14.14H33.24C33,24,33,24,33,23.76Z"/><path class="cls-1" d="M14.39,11.41V4c0-.29,0-.29.28-.29h3.24c.29,0,.29,0,.29.3v4.9s0,.09,0,.11.07,0,.1-.05a3.36,3.36,0,0,1,.49-.35,5,5,0,0,1,2.22-.7,5.06,5.06,0,0,1,2.35.3,4.37,4.37,0,0,1,2.79,3.5,5.46,5.46,0,0,1,.07.9v6.27c0,.27,0,.27-.28.27H22.69c-.24,0-.24,0-.24-.24,0-1.71,0-3.42,0-5.13a2.94,2.94,0,0,0-.15-1,2,2,0,0,0-2.23-1.32,2.05,2.05,0,0,0-1.86,2.14c0,1.77,0,3.54,0,5.31,0,.26,0,.26-.26.27-1.1,0-2.2,0-3.31,0-.24,0-.24,0-.24-.26Z"/><path class="cls-1" d="M46.19,10.6V5.23c0-.25,0-.25.25-.25H49.8C50,5,50,5,50,5.21V8c0,.22,0,.23.23.23h3c.24,0,.24,0,.24.24v2.66c0,.27,0,.27-.26.27h-3c-.23,0-.24,0-.24.23v2.78c0,.22,0,.43,0,.65,0,.65.47,1,1.16.79a3,3,0,0,0,1-.53c.28-.19.22-.2.4.08.44.69.87,1.38,1.31,2.06a.3.3,0,0,1,0,.35,3,3,0,0,1-1.14,1,5.35,5.35,0,0,1-2.14.59A4.78,4.78,0,0,1,48.18,19a3.1,3.1,0,0,1-2-2.76c0-.32,0-.63,0-1Z"/><path class="cls-1" d="M31.48,13.65v5.22c0,.25,0,.25-.27.25H27.87c-.22,0-.23,0-.23-.23V8.43c0-.24,0-.24.24-.24h3.36c.23,0,.24,0,.24.23Z"/><path class="cls-1" d="M31.75,4.93a2.17,2.17,0,0,1-2.19,2.18,2.19,2.19,0,0,1-2.17-2.2,2.18,2.18,0,0,1,4.36,0Z"/></svg>