<svg id="Capa_1" data-name="Capa 1" xmlns="http://www.w3.org/2000/svg" viewBox="0 0 69.59 21.56"><defs><style>.cls-1{fill:#212e44;}</style></defs><path class="cls-1" d="M33.13,8.12c.28,0,.48.34,1.29.34A1.6,1.6,0,0,0,36,6.87a1.29,1.29,0,0,0-1-1.36C33.81,5,33.52,4.79,33.52,4.4a.74.74,0,0,1,.81-.74c1.05,0,1.16,1,1.27,1s.13-.15.13-.45a1.65,1.65,0,0,0,0-.57,2.79,2.79,0,0,0-1.13-.26A1.41,1.41,0,0,0,33,4.77c0,.83.76,1.12,1.39,1.44.46.22,1.05.4,1.05,1a1,1,0,0,1-1,.94c-1.25,0-1.12-1.53-1.36-1.53s-.15.37-.15.57C32.87,8.11,32.87,8.12,33.13,8.12Zm3.63-1c0,1.18.76,1.33,1.29,1.33.82,0,1.44-.39,1.44-.58s0-.11-.09-.11S39,8,38.42,8a.72.72,0,0,1-.81-.7V4h1.5l.14-.42s-.09,0-.38,0H37.59c0-.83,0-1.07-.14-1.07s-.19-.08-.24.29a1.89,1.89,0,0,1-.72,1.15s-.16.12.27.1ZM69.45,8l-.21,0c-.59,0-.49-.68-.49-1.07V4.58c0-1-1.11-1.18-1.83-1.18-1.29,0-1.92.78-1.94,1.31,0,.21.35.39.56.39s.25-.09.25-.22-.07-.3-.07-.46c0-.63.44-.7,1-.7.72,0,1.18.4,1.18,1l0,.87C65.22,6,65,6.76,65,7.37c0,.81.5,1.09,1.25,1.09A2.64,2.64,0,0,0,68,7.79a.86.86,0,0,0,.9.59c.17,0,.66,0,.66-.29C69.59,8,69.5,8,69.45,8ZM67.93,7.2h0c0,.61-.78.94-1.2.94-.61,0-.94-.26-.94-.9,0-1,1.4-1.2,2.15-1.37ZM19.61,1.15l2.55,6.29c.31.8.4,1.13.57,1.13s.2-.06.29-.3l1.29-3.21A.11.11,0,0,1,24.42,5s.06,0,.08.11l1.27,3c.17.37.2.45.31.45s.26-.22.34-.39l3-7c.38-.9.66-.59.66-.85S30,.21,29.9.21c-.27,0-.61,0-1,0s-.55,0-.81,0c-.07,0-.13.08-.13.17s.74.15.74.64a1.07,1.07,0,0,1-.07.39L26.56,6.58c-.11.25-.16.42-.25.42s-.15-.09-.26-.35l-1-2.38a2.08,2.08,0,0,1-.15-.55A1.06,1.06,0,0,1,25,3.27l.81-1.88c.52-1.21.8-.77.8-1.09a.09.09,0,0,0-.08-.07c-.2,0-.33,0-.84,0-.26,0-.5,0-.76,0-.07,0-.24,0-.24.11s.68.19.66.68a1,1,0,0,1-.11.43L24.7,2.79c-.07.17-.13.3-.16.3s-.06-.07-.15-.3L23.8,1.26a.69.69,0,0,1-.08-.35c0-.38.47-.35.47-.53s0-.13-.08-.13c-.26,0-.57,0-1.12,0-.17,0-.78,0-1.17,0-.11,0-.16,0-.16.13,0,.39.81,0,1.12.74L24,3.88a1.57,1.57,0,0,1,.11.35,2.06,2.06,0,0,1-.13.46l-.85,2c0,.13-.11.21-.17.21s-.15-.17-.2-.3L20.57,1.21a.73.73,0,0,1-.07-.3c0-.38.49-.38.49-.57s0-.13-.09-.13c-.27,0-.55,0-.83,0s-.68,0-1,0c-.11,0-.28,0-.28.19S19.33.47,19.61,1.15ZM28.1,6.08a2.37,2.37,0,0,0,2.32,2.36,2.51,2.51,0,0,0,2-1.09s0-.07,0-.07c-.26,0-.63.59-1.62.59-.7,0-1.87-.58-1.87-2.48l3.08,0c.26,0,.39,0,.39-.2a2.14,2.14,0,0,0-2-1.84C28.92,3.37,28.1,4.6,28.1,6.08Zm2.08-2.44a1.31,1.31,0,0,1,1.27,1.22c0,.17-.07.24-.24.24H29C29,4.47,29.48,3.64,30.18,3.64ZM64,7.61V3.48c0-.11-.08-.19-.13-.19-.28,0-.5.37-1.24.57,0,0-.11.08-.11.13,0,.24.63-.05.63.63V7.35c0,.79-.26.74-.41.76s-.86,0-.86-.67V5.54c0-.88-.34-2.16-1.89-2.16a2.58,2.58,0,0,0-1.67.85V3.48c0-.11-.08-.19-.13-.19-.28,0-.5.37-1.46.57-.06,0-.11.08-.11.13,0,.24.85-.05.85.63V7.48a.52.52,0,0,1-.57.59c-.08,0-.78,0-.78-.46V3.48c0-.11-.07-.19-.13-.19-.27,0-.5.37-1.23.57l0,0A2.52,2.52,0,0,1,54.1,4a1.41,1.41,0,0,1-.35,0c-.09,0-.17-.1-.26-.15a1.89,1.89,0,0,0-1.25-.31A1.87,1.87,0,0,0,50.3,5.38,1.73,1.73,0,0,0,51,6.81a1.65,1.65,0,0,0-.55,1,1,1,0,0,0,.48,1A3.91,3.91,0,0,0,52.46,9c1.25,0,1.51.08,1.51.46,0,.19-.09,1.07-1.84,1.07-.45,0-1.48-.07-1.48-.86a.54.54,0,0,1,.15-.47.17.17,0,0,0,0-.18.22.22,0,0,0-.2-.11h-.06a.67.67,0,0,0-.55.74c0,1,1.32,1.29,2,1.29,1.93,0,2.61-.94,2.61-1.75,0-1.11-1.19-1.11-1.84-1.11h-.52a1.84,1.84,0,0,1-1.21-.26A.3.3,0,0,1,51,7.59.59.59,0,0,1,51.48,7h.13a2.48,2.48,0,0,0,.66.08,1.86,1.86,0,0,0,2-1.85,2.37,2.37,0,0,0-.1-.64.69.69,0,0,0-.05-.13s0-.06,0-.09a3.4,3.4,0,0,0,1-.25c.13,0,.2.1.2.45V7.35c0,1.05-.52.61-.52.9,0,.11.08.13.17.13s.42,0,.79,0,.83,0,1.07,0H57c.13,0,.37,0,1,0s.9,0,1.08,0,.26,0,.26-.16c0-.32-1,0-1-.78V4.8a1.28,1.28,0,0,1,1.36-.9A1.4,1.4,0,0,1,61,5.34V7.48c0,.74-.5.52-.5.74s.06.14.2.14.39,0,.83,0,.85,0,1,0h.28c.13,0,.42,0,.79,0s.83,0,1.07,0,.22,0,.22-.12C64.89,7.94,64,8.2,64,7.61ZM52.37,6.67c-.81,0-1.09-.8-1.09-1.48s.18-1.34,1-1.34,1.09.81,1.09,1.53C53.42,5.76,53.31,6.67,52.37,6.67ZM55.76,2.9c.15,0,.48-.46.48-.59s-.33-.6-.48-.6-.48.48-.48.6S55.63,2.9,55.76,2.9Zm7.89,0c.15,0,.48-.46.48-.59s-.31-.61-.48-.61-.47.48-.47.61S63.53,2.85,63.65,2.85Zm-16,5.26c-.1,0-.85,0-.85-.5V3.46c0-.11-.08-.19-.13-.19-.28,0-.5.37-1.24.58a.14.14,0,0,0-.11.12c0,.24.63-.05.63.63V7.33c0,1.05-.52.61-.52.91,0,.11.08.12.17.12s.42,0,.79,0,.83,0,1.07,0h.2a7.47,7.47,0,0,1,1.06,0c.64,0,.92,0,1.08,0s.19,0,.19-.12c0-.37-1,.18-1-.89V4.79a2.77,2.77,0,0,1,2.32-1.7c.42,0,.35,0,.63-.39.11-.18-.43-.18-.67-.16A2.7,2.7,0,0,0,49,4.25V3.46c0-.11-.07-.19-.13-.19-.27,0-.49.37-1.38.58-.05,0-.15,0-.15.12,0,.24.83-.05.83.63v3A.51.51,0,0,1,47.65,8.11Zm-8-7,2.86,6.77c.11.24.24.72.42.72s.26-.39.39-.67l2.88-6.78c.31-.78.64-.48.64-.74,0-.11-.07-.15-.2-.15s-.33,0-.89,0c-.25,0-.51,0-.75,0s-.17,0-.17.15c0,.27.74,0,.74.57a1.56,1.56,0,0,1-.17.77l-2,5c0,.14-.09.31-.2.31s-.2-.26-.46-.87l-2-4.75A2.46,2.46,0,0,1,40.6.91c0-.42.48-.42.46-.59S41,.21,40.9.21s-.6,0-.91,0-.7,0-1.05,0a.19.19,0,0,0-.17.13v0C38.77.62,39.36.4,39.66,1.08Zm-12.4,9c0-.08-.09-.13-.15-.13l-.63,0-1.35,0S25,10,25,10c0,.44,1.08,0,1.08,1.13v3.76c0,1.37-.5,2.79-2.67,2.79A2.5,2.5,0,0,1,20.67,15s0-4.15,0-4.15c0-.83.78-.52.78-.83,0-.15-.31-.11-.37-.11-.35,0-.72,0-1.09,0s-.6,0-.91,0c-.06,0-.26,0-.26.11,0,.37.95.09.95.78v3.9c0,1.78.57,3.48,3.62,3.48a3,3,0,0,0,3.23-3.42V11.17C26.58,10.11,27.26,10.35,27.26,10Zm6.85,1.4c-.12,0-.48.48-.48.61s.36.6.48.6.49-.47.49-.6S34.26,11.44,34.11,11.44Zm25.82,1.89c0-.09-.07-.13-.22-.13s-.32,0-.59,0-.52,0-.65,0-.35,0-.35.13c0,.26.74.08.74.71a1.61,1.61,0,0,1-.15.59,18.25,18.25,0,0,1-.89,2.61l-1.24-3.15h0a.69.69,0,0,1-.06-.28c0-.46.67-.24.67-.46s-.07-.15-.24-.15-.45,0-.85,0h-.38s-.15,0-.38,0H54.06c0-.83,0-1.07-.15-1.07s-.18-.08-.24.29A1.94,1.94,0,0,1,53,13.58s-.14.12.27.1v3.15c0,1.19.76,1.34,1.29,1.34.82,0,1.45-.39,1.45-.58s0-.11-.09-.11c-.21,0-.38.28-1,.28a.72.72,0,0,1-.81-.71V13.68h1.38a.15.15,0,0,1,.12.08L57.1,17.5a1.92,1.92,0,0,1,.24.78c0,.9-1.09,2.9-2.85,2.66-.06,0-.21,0-.26,0s-.15-.05.2.48a1,1,0,0,0,.78.08,3.68,3.68,0,0,0,2-1.5c.65-.93,2.09-6,2.09-6C59.54,13.3,59.93,13.59,59.93,13.33Zm-8,4V13.13a.18.18,0,0,0-.15-.19c-.28,0-.5.37-1.24.58a.13.13,0,0,0-.11.13c0,.24.63-.06.63.63V17h0c0,1.05-.51.61-.51.9,0,.12.07.13.16.13s.43,0,.8,0,.83,0,1.07,0,.22,0,.22-.13C52.87,17.63,52,17.89,52,17.3Zm.11-5.25c0-.14-.33-.61-.48-.61s-.48.48-.48.61.35.6.48.6S52.08,12.18,52.08,12.05Zm4.52,2,0,0S56.6,14.11,56.6,14.07ZM49.32,15.2c-1.22-.48-1.52-.72-1.52-1.11a.74.74,0,0,1,.82-.74c1.05,0,1.14,1,1.27,1s.13-.15.13-.45a1.65,1.65,0,0,0-.05-.57,2.63,2.63,0,0,0-1.13-.26,1.41,1.41,0,0,0-1.58,1.39c0,.82.74,1.11,1.37,1.43.47.22,1.06.4,1.06,1a1,1,0,0,1-1,.95c-1.26,0-1.13-1.54-1.37-1.54s-.13.37-.13.58c0,.9,0,.92.26.92s.48.34,1.3.34a1.61,1.61,0,0,0,1.57-1.6A1.3,1.3,0,0,0,49.32,15.2Zm10.15,1.65a.78.78,0,0,0-.78.78.79.79,0,1,0,.78-.78Zm0,1.45a.64.64,0,0,1-.64-.63l0,0a.65.65,0,1,1,1.29,0A.63.63,0,0,1,59.5,18.3Zm.34-.89c0-.19-.11-.26-.32-.26h-.35v.9h.13l0-.37h.15l.24.39h.15l-.26-.4A.25.25,0,0,0,59.84,17.41Zm-.52.16V17.3h.18c.1,0,.21,0,.21.12s-.11.15-.22.15Zm-24.85-.24V13.17a.18.18,0,0,0-.13-.19c-.28,0-.5.37-1.24.57-.06,0-.11.08-.11.13,0,.24.62,0,.62.63v2.74c0,.78-.29.75-.42.75s-.87.05-.87-.67V15.22a1.9,1.9,0,0,0-1.89-2.17,2.6,2.6,0,0,0-1.69.86v-.76A.17.17,0,0,0,28.6,13c-.28,0-.5.37-1.47.58a.14.14,0,0,0-.11.13c0,.24.85-.06.85.63v2.9c0,.74-.68.52-.68.74s0,.15.2.15.37,0,1,0,.91,0,1.1,0,.26,0,.26-.17c0-.31-1,0-1-.77V14.5a1.29,1.29,0,0,1,1.37-.91A1.41,1.41,0,0,1,31.43,15V17.2c0,.74-.5.52-.5.74s.05.15.2.15.39,0,.84,0,.85,0,1,0h.31c.13,0,.43,0,.8,0s.83,0,1.07,0,.22,0,.22-.13C35.37,17.67,34.47,17.92,34.47,17.33Zm11.09-.26V14.5a2.77,2.77,0,0,1,2.33-1.7c.43,0,.36,0,.63-.39.11-.19-.42-.19-.66-.17C46.3,12.37,46,13.42,45.58,14v-.8a.17.17,0,0,0-.13-.18c-.26,0-.5.37-1.39.57-.06,0-.15.06-.15.13,0,.24.83,0,.83.63v3c0,.37-.44.49-.57.52a.14.14,0,0,0,0,.26s0,0,0,0h.07a7.57,7.57,0,0,1,1.06,0c.65,0,.92,0,1.09,0s.19,0,.19-.13C46.6,17.59,45.56,18.15,45.56,17.07Zm-5.39-3.74c0-.15-.2-.16-.31-.16s-.39,0-.6,0-.46,0-.7,0-.28,0-.28.14.71,0,.71.61a3.44,3.44,0,0,1-.5,1.45L37.73,17l-1.1-2.74c-.13-.36-.2-.52-.2-.56,0-.35.65-.2.65-.42s-.11-.13-.26-.13-.28,0-.71,0c-.75,0-.75,0-1,0s-.24.05-.24.13.41,0,.63.55l1.72,4c0,.07.08.27.23.27s.16-.13.39-.61l1.74-3.7C39.74,13.41,40.17,13.48,40.17,13.33Zm2.09,4.24c-.7,0-1.87-.57-1.87-2.48l3.11,0c.28,0,.39,0,.39-.2a2.15,2.15,0,0,0-2-1.86c-1.45,0-2.28,1.25-2.28,2.73a2.37,2.37,0,0,0,2.33,2.37,2.47,2.47,0,0,0,2-1.1s0-.07,0-.07C43.63,17,43.26,17.57,42.26,17.57Zm-.61-4.22a1.32,1.32,0,0,1,1.28,1.22c0,.17-.07.24-.24.24H40.43C40.43,14.18,41,13.35,41.65,13.35ZM10.85,8.7a.39.39,0,0,0,.3.18.31.31,0,0,0,.29-.18l3.43-5.45L15,3.1a.73.73,0,0,1,.77-.3h1.72l0-2.8h-3.1a.94.94,0,0,0-.91.45l-2.3,3.41L9,.52,8.9.41A.19.19,0,0,0,8.73.32a.18.18,0,0,0-.16.09L8.49.52,6.36,3.86,4,.45A.93.93,0,0,0,3.08,0H0V2.78H1.72a.79.79,0,0,1,.78.32l.11.15L6.08,8.7a.46.46,0,0,0,.3.18.37.37,0,0,0,.31-.18l2-3Zm2.22-.89-1.87,3L8.79,7.29,6.94,10l3.93,6.16c.13.24.24.26.29.28s.19-.06.32-.28l3.08-5.62a.89.89,0,0,1,.74-.48h2.21V7.31H14A1.13,1.13,0,0,0,13.07,7.81Z"/></svg>