<svg width="68" height="25" viewBox="0 0 68 25" fill="none" xmlns="http://www.w3.org/2000/svg">
<path d="M31.3404 8.18671C31.7423 7.46143 32.131 6.76517 32.5183 6.066C33.5211 4.25377 34.5215 2.44154 35.5195 0.629315C35.545 0.56294 35.5912 0.506586 35.6513 0.468674C35.7115 0.430763 35.7823 0.413331 35.8531 0.418984C36.5397 0.430589 37.2249 0.430589 37.9086 0.418984C38.0928 0.418984 38.1378 0.474105 38.1378 0.651073C38.132 4.76775 38.132 8.88395 38.1378 12.9997C38.1378 13.181 38.087 13.2346 37.9071 13.2303C37.3762 13.2201 36.8468 13.2158 36.3115 13.2303C36.091 13.2303 36.0403 13.1679 36.0403 12.9547C36.048 9.93463 36.048 6.91361 36.0403 3.89162C36.057 3.77031 36.0415 3.64674 35.9953 3.53333C35.917 3.67113 35.8502 3.78282 35.7879 3.89742C34.6622 5.9282 33.5322 7.94447 32.4153 9.97235C32.3815 10.0545 32.3216 10.1233 32.2447 10.1679C32.1678 10.2124 32.0784 10.2304 31.9903 10.2189C31.5247 10.203 31.0576 10.2044 30.5934 10.2189C30.5097 10.2299 30.4247 10.2129 30.3515 10.1707C30.2784 10.1285 30.2211 10.0634 30.1887 9.9854C29.0341 7.89467 27.8736 5.80732 26.7074 3.72335C26.6696 3.6488 26.6131 3.58532 26.5435 3.53913V3.81038C26.5435 6.84882 26.5435 9.88821 26.5435 12.9286C26.5435 13.1592 26.5043 13.2448 26.2534 13.2332C25.7428 13.2114 25.2307 13.2172 24.7187 13.2332C24.5141 13.2332 24.4576 13.181 24.459 12.9735C24.4677 11.3489 24.459 9.7243 24.459 8.09968C24.459 5.63373 24.459 3.16779 24.459 0.701843C24.459 0.475556 24.5141 0.411731 24.7491 0.411731C25.4062 0.426237 26.0648 0.429138 26.7219 0.411731C26.8186 0.40157 26.916 0.423462 26.9991 0.474042C27.0822 0.524622 27.1463 0.60109 27.1817 0.691689C28.5143 3.10928 29.8522 5.52688 31.1954 7.94447C31.2389 8.01845 31.281 8.08662 31.3404 8.18671Z" fill="#5D6A82"/>
<path d="M64.9013 4.82712C64.9013 4.47899 64.9013 4.16132 64.9013 3.8451C64.9013 3.7189 64.9318 3.66958 65.0682 3.67103C65.6165 3.67828 66.1648 3.68118 66.7116 3.67103C66.9089 3.67103 66.877 3.78707 66.877 3.90167V6.52717C66.877 8.67255 66.877 10.8165 66.877 12.9604C66.877 13.1794 66.8175 13.2374 66.6043 13.2302C66.1111 13.2157 65.6179 13.2186 65.1247 13.2302C64.9521 13.2302 64.8839 13.1939 64.8926 13.0054C64.9086 12.6703 64.8926 12.3338 64.8926 11.99C64.7868 11.99 64.7722 12.0756 64.7302 12.1263C63.2492 13.9062 60.3205 13.9192 58.7104 12.151C57.9463 11.2939 57.4971 10.2021 57.4368 9.05549C57.3149 7.52951 57.5949 6.10651 58.6161 4.9069C60.0478 3.22716 62.7139 2.94575 64.34 4.29477C64.5213 4.45143 64.6896 4.62985 64.9013 4.82712ZM64.8622 8.45351C64.8622 8.04301 64.8622 7.6325 64.8622 7.22199C64.8671 7.12347 64.8528 7.02494 64.8201 6.93188C64.1645 5.25649 61.7478 4.72994 60.4061 5.9368C59.1862 7.03487 59.2587 9.49211 60.0057 10.5307C60.0594 10.6047 60.1116 10.6758 60.1696 10.7497C61.024 11.7825 62.7632 11.945 63.9179 11.0892C64.5315 10.6351 64.9623 10.0738 64.8665 9.24842C64.8506 8.9847 64.8491 8.7203 64.8622 8.45641V8.45351Z" fill="#5D6A82"/>
<path d="M45.5295 9.2036C44.443 9.2036 43.3536 9.2036 42.2686 9.2036C42.0655 9.2036 42.0278 9.24856 42.0742 9.44874C42.4209 10.9588 43.593 11.8117 45.1422 11.7087C46.0792 11.6463 46.9089 11.3577 47.6009 10.7151C47.7169 10.6077 47.7691 10.6382 47.8532 10.7441C48.126 11.0864 48.3987 11.4302 48.6902 11.7595C48.8353 11.9161 48.8092 11.9974 48.6554 12.125C47.4108 13.1622 45.9675 13.5451 44.3734 13.4508C41.8407 13.2913 39.9869 11.3142 39.9651 8.59872C39.955 7.34689 40.2204 6.18354 40.9994 5.18411C42.0612 3.82058 43.503 3.32159 45.1886 3.48115C47.2034 3.66828 48.4799 5.12028 48.8976 7.03937C49.0237 7.69397 49.0791 8.3602 49.063 9.02663C49.063 9.23551 48.947 9.20795 48.8179 9.20795L45.5295 9.2036ZM44.546 7.68777C45.3119 7.68777 46.0792 7.68777 46.8466 7.68777C46.9916 7.68777 47.054 7.66601 47.0395 7.49339C46.8944 5.68455 45.0421 4.6387 43.4465 5.48872C42.669 5.90358 42.286 6.60855 42.0757 7.44117C42.0278 7.64135 42.067 7.69212 42.2715 7.68922C43.0302 7.67471 43.7873 7.68777 44.546 7.68777Z" fill="#5D6A82"/>
<path d="M0.331603 6.12107C0.392963 5.66859 0.509387 5.2253 0.678285 4.80107C0.932262 4.07931 1.25226 3.38251 1.6342 2.71952C2.1012 1.92956 2.74153 1.256 3.50687 0.749664C4.11578 0.339583 4.8203 0.0937507 5.55215 0.0359906C6.81269 -0.0916583 7.80342 0.389926 8.73032 1.12536C9.24999 1.55702 9.72172 2.04334 10.1374 2.57591C10.2055 2.6586 10.2549 2.76449 10.3753 2.78915V2.85007C10.706 3.28524 10.983 3.75812 11.3529 4.16427C11.3749 4.22266 11.4011 4.27938 11.4313 4.33399C11.8258 4.92581 12.1942 5.53215 12.5598 6.14138C13.1255 7.08569 13.7028 8.0271 14.2743 8.96416C14.188 9.0798 14.1444 9.2218 14.151 9.36597C14.151 9.60821 14.1162 9.85045 14.1003 10.0912C14.1003 10.171 14.0756 10.2479 13.9813 10.2363C13.7507 10.2073 13.5694 10.3596 13.3619 10.3959C13.0646 10.4466 12.8049 10.4916 12.9036 10.8905C12.9036 10.8905 12.8905 10.9021 12.8833 10.9079C12.489 10.3744 12.1276 9.8173 11.8011 9.23977C11.234 8.28095 10.6697 7.32068 10.0445 6.39668C9.79213 5.84112 9.41063 5.36678 9.09006 4.85474C9.07555 4.83008 9.02623 4.82718 8.99287 4.81412C8.99287 4.78656 8.99287 4.7532 8.98562 4.73434C8.4228 3.93508 7.84548 3.14598 7.00996 2.60057C6.10046 2.00585 5.12424 2.08273 4.31193 2.79495C4.01787 3.05455 3.7585 3.35097 3.54023 3.67689C3.12537 4.28467 2.85992 4.96208 2.59592 5.64094C2.29566 5.64094 1.98088 5.71782 1.89095 5.26815C1.85469 5.08538 1.31073 5.08683 1.23385 5.25944C1.15697 5.43206 0.993056 5.59597 1.05253 5.82661C1.07139 5.90349 1.03367 5.98037 0.930682 5.94991C0.827693 5.91945 0.774022 5.89043 0.807385 5.75698C0.926331 5.287 1.12506 4.82863 1.05688 4.32528C1.112 4.31803 1.16277 4.30643 1.15697 4.23535C1.15697 4.2223 1.13521 4.20054 1.12796 4.20199C1.06268 4.21649 1.06413 4.27452 1.05688 4.32528C0.895869 4.47034 0.911825 4.68357 0.840748 4.85764C0.707067 5.15631 0.609668 5.46994 0.550637 5.7918C0.511472 6.00938 0.478109 6.24582 0.288086 6.40538C0.292438 6.30964 0.372218 6.22261 0.331603 6.12107Z" fill="#3C67DA"/>
<path d="M51.5586 8.07346C51.5586 7.26115 51.5513 6.44884 51.5586 5.63652C51.5586 5.42764 51.4977 5.37397 51.296 5.37978C50.813 5.39283 50.3285 5.37978 49.8455 5.37978C49.6888 5.37978 49.6424 5.33481 49.6468 5.1796C49.6555 4.74443 49.6584 4.30926 49.6468 3.86539C49.6468 3.68117 49.7164 3.66087 49.8716 3.66377C50.3648 3.67102 50.858 3.66377 51.3512 3.67102C51.5252 3.67102 51.5629 3.61735 51.5615 3.45344C51.5528 2.68754 51.5615 1.9202 51.5528 1.15431C51.5528 0.952678 51.5847 0.864194 51.8182 0.872898C52.3288 0.893205 52.8409 0.885953 53.3515 0.872898C53.5212 0.872898 53.5691 0.920766 53.5676 1.08758C53.5589 1.87233 53.5676 2.65708 53.5589 3.44183C53.5589 3.62605 53.614 3.66957 53.7895 3.66667C54.6033 3.65797 55.4156 3.66667 56.2279 3.65797C56.4252 3.65797 56.4745 3.71454 56.4687 3.90456C56.4562 4.32425 56.4562 4.74395 56.4687 5.16364C56.4687 5.33481 56.418 5.37832 56.2526 5.37687C55.449 5.37687 54.6439 5.37687 53.8403 5.37687C53.6416 5.37687 53.5502 5.40734 53.5575 5.63943C53.5705 7.00875 53.5575 8.37808 53.5662 9.74595C53.5599 10.0928 53.6089 10.4385 53.7112 10.77C53.878 11.2792 54.2392 11.5388 54.7556 11.607C55.2463 11.6612 55.7422 11.6441 56.2279 11.5562C56.3918 11.5301 56.4745 11.5461 56.4658 11.7506C56.4499 12.1698 56.4658 12.5905 56.4658 13.0097C56.4658 13.1272 56.4658 13.2142 56.3135 13.2505C55.404 13.4637 54.4887 13.5319 53.5792 13.2766C52.4188 12.9502 51.8385 12.1046 51.6427 10.9659C51.4846 10.0607 51.5818 9.14542 51.5571 8.23447C51.5571 8.18225 51.5586 8.12278 51.5586 8.07346Z" fill="#5D6A82"/>
<path d="M8.98898 4.81421C9.02235 4.82726 9.07166 4.83017 9.08617 4.85482C9.40674 5.36542 9.78824 5.8412 10.0406 6.39387C9.23413 7.75884 8.51175 9.17458 7.63997 10.5004C7.05974 11.3852 6.44181 12.2411 5.56132 12.872C5.41709 12.9931 5.25121 13.0856 5.07248 13.1448L5.01446 13.1781L4.92598 13.2042C4.83459 13.2042 4.71565 13.1462 4.68083 13.3L4.65762 13.3101H4.63151L4.58074 13.3319C4.05129 13.4595 3.51604 13.4001 2.98513 13.3696C2.96047 13.2129 2.84008 13.2042 2.71823 13.1999C2.62735 13.2056 2.53652 13.1881 2.45423 13.1491C2.15771 12.9816 1.87708 12.7874 1.61581 12.5689C1.26958 12.2651 0.963899 11.918 0.706308 11.5361C0.473935 11.1795 0.329743 10.7728 0.285647 10.3495C0.437886 10.1594 0.531616 9.92906 0.55545 9.68663C0.564154 9.6257 0.593165 9.54157 0.491626 9.49806C0.396427 9.59588 0.343317 9.72709 0.343669 9.86359C0.343669 9.94773 0.374131 10.0565 0.236328 10.0739V9.69243L0.305955 7.86763H0.400241C0.400241 8.15774 0.400241 8.44785 0.400241 8.73796C0.400241 8.89172 0.37123 9.07884 0.638132 9.00487C0.716462 8.98311 0.720814 9.04983 0.728067 9.10495C0.735319 9.16008 0.728067 9.23115 0.800594 9.2239C0.873122 9.21665 0.890529 9.14122 0.890529 9.07884C0.890529 8.91493 0.890529 8.75102 0.890529 8.58711C0.890529 8.51603 0.851364 8.39563 0.980463 8.40143C1.08055 8.40143 1.05009 8.51313 1.05154 8.57985C1.05154 8.90768 1.05154 9.2355 1.05154 9.56333C1.05154 9.64456 1.03849 9.76351 1.13712 9.76786C1.26332 9.76786 1.2053 9.64601 1.21255 9.57638C1.22053 9.47646 1.22053 9.37605 1.21255 9.27612C1.20095 9.1006 1.28073 9.02953 1.45625 9.03533C1.66513 9.03533 1.87546 9.03533 2.08434 9.03533C2.13656 9.52416 2.18007 10.0159 2.41216 10.4641C2.54034 10.7454 2.75988 10.975 3.03509 11.1156C3.3103 11.2562 3.62499 11.2996 3.92799 11.2387C4.48211 11.156 4.86505 10.8036 5.20593 10.4076C6.09657 9.3617 6.77689 8.1708 7.52682 7.02776C8.02291 6.28942 8.47113 5.52788 8.98898 4.81421Z" fill="#4A81F5"/>
<path d="M11.3527 4.16133C10.9828 3.75518 10.7057 3.28085 10.375 2.84713C10.684 3.01104 10.5621 2.51205 10.8015 2.57007V2.27996C11.0016 1.91442 11.3237 1.65767 11.6065 1.36466C12.0417 0.909187 12.5349 0.494328 13.1325 0.286898C14.3713 -0.148268 15.5738 -0.04818 16.6878 0.685801C17.4011 1.16665 18.0088 1.78809 18.4735 2.51205C18.5025 2.56775 18.5263 2.62602 18.5445 2.68612C18.4845 2.70044 18.43 2.73217 18.388 2.77733C18.3459 2.82249 18.3181 2.87907 18.3081 2.93997C18.3252 2.99945 18.3629 3.05092 18.4144 3.08519C18.466 3.11947 18.528 3.13431 18.5895 3.12709C18.5895 3.24458 18.5793 3.36353 18.7549 3.34612V3.56515C18.6229 3.61592 18.4531 3.58546 18.3647 3.71891C18.2762 3.85236 18.1471 3.84656 18.0093 3.8219C17.722 3.75197 17.421 3.762 17.1389 3.85091C16.9504 3.57241 16.7749 3.28375 16.5703 3.01975C16.1352 2.46273 15.6159 2.01306 14.9181 1.82739C13.8592 1.54598 13.0904 2.05513 12.4145 2.78476C12.032 3.22087 11.6774 3.68064 11.3527 4.16133V4.16133Z" fill="#4A81F4"/>
<path d="M3.93742 21.0734C4.16454 21.1401 4.37094 21.2635 4.53716 21.432C4.70339 21.6005 4.82397 21.8086 4.88754 22.0366C5.17765 23.0824 4.57422 24.005 3.4834 24.0775C2.58261 24.137 1.67746 24.0993 0.773762 24.1094C0.628706 24.1094 0.608398 24.0485 0.608398 23.9266C0.608398 22.04 0.608398 20.1542 0.608398 18.2695C0.608398 18.1244 0.66497 18.0824 0.802773 18.0838C1.59768 18.0838 2.39838 18.0577 3.18459 18.094C4.51765 18.1549 5.23277 19.4154 4.57132 20.4946C4.49542 20.6211 4.39711 20.7327 4.28121 20.8239C4.17967 20.9008 4.06943 20.9777 3.93742 21.0734ZM2.36212 23.3943V23.3812C2.65223 23.3812 2.94234 23.403 3.23245 23.3812C3.84894 23.3247 4.18837 22.8909 4.12455 22.2759C4.07378 21.7827 3.72129 21.4505 3.15703 21.4215C2.62032 21.3925 2.08216 21.4128 1.54546 21.4041C1.41056 21.4041 1.37574 21.4563 1.37719 21.5811C1.37719 22.128 1.37719 22.6734 1.37719 23.2188C1.37719 23.3638 1.43231 23.4059 1.56867 23.4015C1.83412 23.3957 2.09812 23.4001 2.36212 23.4001V23.3943ZM2.33166 18.7859C2.04155 18.7859 1.7877 18.7859 1.54256 18.7859C1.42796 18.7859 1.37864 18.8221 1.38009 18.9425C1.38009 19.5068 1.38009 20.0711 1.38009 20.6353C1.38009 20.7137 1.38009 20.7891 1.48889 20.7804C2.07926 20.7615 2.67689 20.8529 3.25856 20.7108C3.74015 20.5918 3.98384 20.2408 3.97224 19.7461C3.97728 19.5253 3.90242 19.3101 3.76144 19.1401C3.62046 18.97 3.42283 18.8566 3.20489 18.8207C2.89593 18.7583 2.58841 18.8105 2.33166 18.7917V18.7859Z" fill="#5D6A82"/>
<path d="M37.4487 21.0764C37.4487 20.164 37.4487 19.253 37.4487 18.3406C37.4487 18.1375 37.5053 18.0723 37.7113 18.0752C38.4873 18.0868 39.2634 18.0752 40.0322 18.0752C41.2622 18.0911 41.9643 18.9266 41.7235 20.074C41.5683 20.8138 40.9388 21.2765 40.0568 21.2896C39.5274 21.2969 38.9979 21.2983 38.4685 21.2896C38.3002 21.2896 38.2523 21.3302 38.2552 21.5014C38.2639 22.276 38.2552 23.052 38.2625 23.8223C38.2625 24.0282 38.2204 24.1124 37.9941 24.1124C37.4487 24.1022 37.4473 24.1124 37.4473 23.5641L37.4487 21.0764ZM39.2053 20.6267V20.6107C39.4952 20.6266 39.7858 20.6266 40.0757 20.6107C40.6559 20.5484 40.946 20.1857 40.917 19.6374C40.8865 19.1326 40.5384 18.812 39.9872 18.8004C39.4766 18.7903 38.9718 18.8004 38.4554 18.8004C38.2987 18.8004 38.2509 18.8469 38.2538 19.0021C38.2625 19.475 38.2625 19.9493 38.2538 20.4222C38.2538 20.5846 38.2886 20.6528 38.4641 20.6426C38.7122 20.6165 38.9587 20.6267 39.2053 20.6267V20.6267Z" fill="#5D6A82"/>
<path d="M45.447 20.3917C45.447 20.2655 45.447 20.1959 45.447 20.1263C45.4354 19.9943 45.4978 19.958 45.6225 19.9478C46.239 19.8985 46.2376 19.8956 46.2376 20.5121C46.2376 21.6247 46.2376 22.7373 46.2376 23.8484C46.2376 24.0529 46.181 24.1385 45.975 24.108C45.9388 24.1051 45.9024 24.1051 45.8662 24.108C45.4659 24.108 45.4659 24.108 45.4151 23.699C44.8683 24.2183 44.2155 24.2865 43.5294 24.1748C43.2946 24.1379 43.0695 24.0548 42.867 23.9303C42.6646 23.8058 42.4889 23.6424 42.3501 23.4495C41.6988 22.5792 41.8148 21.1155 42.5662 20.37C43.2132 19.7274 44.6724 19.6099 45.447 20.3917ZM45.447 22.0337C45.4369 21.8608 45.4369 21.6874 45.447 21.5144C45.4804 21.2345 45.3411 21.0488 45.1424 20.8864C44.8743 20.6786 44.547 20.5616 44.2079 20.5525C43.8688 20.5433 43.5356 20.6425 43.2567 20.8356C42.7548 21.2171 42.5778 22.0555 42.8621 22.7054C43.1232 23.303 43.7426 23.6076 44.4461 23.4858C45.1497 23.3639 45.4412 23.0071 45.4412 22.3065L45.447 22.0337Z" fill="#5D6A82"/>
<path d="M24.3091 22.1845C23.8435 22.1845 23.3764 22.1947 22.9123 22.1845C22.7121 22.1845 22.6845 22.2556 22.7048 22.4239C22.7919 23.2072 23.5215 23.6931 24.3831 23.5321C24.7319 23.4881 25.0491 23.3076 25.2651 23.0302C25.3579 22.904 25.4232 22.9243 25.5305 23.0041C25.9265 23.3015 25.9454 23.3798 25.5653 23.6931C24.8081 24.3183 23.9393 24.3763 23.0646 24.0369C22.261 23.7236 21.952 23.0215 21.9041 22.2077C21.8634 21.7503 21.9529 21.2907 22.1623 20.8819C22.3576 20.522 22.658 20.2302 23.0234 20.0454C23.3889 19.8606 23.802 19.7916 24.2076 19.8477C25.091 19.9449 25.6973 20.4134 25.9048 21.1648C25.9724 21.4304 25.9954 21.7054 25.9729 21.9786C25.9613 22.1425 25.9033 22.1961 25.7394 22.1932C25.2578 22.1787 24.7835 22.1845 24.3091 22.1845ZM23.9393 21.613C24.2758 21.613 24.6123 21.5985 24.9546 21.613C25.1925 21.6275 25.207 21.5216 25.1635 21.3389C25.0388 20.8268 24.5601 20.4859 23.9697 20.4932C23.3416 20.5019 22.8296 20.8979 22.7266 21.4404C22.699 21.5855 22.7556 21.6116 22.8804 21.6101C23.2299 21.613 23.5839 21.613 23.9393 21.613Z" fill="#5D6A82"/>
<path d="M62.1138 22.1846C61.6395 22.1846 61.1651 22.1918 60.6894 22.1846C60.5138 22.1846 60.4761 22.2382 60.4979 22.408C60.5231 22.7073 60.6558 22.9874 60.8715 23.1965C61.0872 23.4056 61.3714 23.5294 61.6714 23.5452C62.2168 23.5931 62.7071 23.4698 63.0654 23.0186C63.1495 22.9113 63.2104 22.9258 63.3149 22.9969C63.7109 23.2768 63.7326 23.3697 63.3656 23.6816C62.6142 24.3198 61.7454 24.372 60.8692 24.0384C60.0758 23.7367 59.7581 23.0593 59.6986 22.2455C59.6577 21.8261 59.721 21.4031 59.8828 21.014C60.5138 19.5634 62.4112 19.5823 63.1988 20.3424C63.6862 20.8167 63.8124 21.3984 63.7544 22.0453C63.7384 22.215 63.6166 22.1904 63.5107 22.1904L62.1138 22.1846ZM61.728 21.6131C62.0746 21.6131 62.4213 21.6044 62.768 21.6131C62.9696 21.6131 62.9957 21.5463 62.9551 21.3694C62.8304 20.8327 62.356 20.4816 61.7526 20.499C61.1492 20.5164 60.6183 20.9037 60.5196 21.4303C60.4906 21.5884 60.5472 21.6189 60.6879 21.616C61.0346 21.6131 61.3813 21.6131 61.728 21.6131Z" fill="#5D6A82"/>
<path d="M17.8714 20.3075C18.1765 20.0717 18.5372 19.9184 18.9187 19.8622C20.1662 19.7172 20.9495 20.396 20.9495 21.6493C20.9495 22.3876 20.9495 23.1274 20.9495 23.8658C20.9495 24.0529 20.9016 24.1182 20.7058 24.1182C20.1429 24.1182 20.1429 24.1182 20.1429 23.5568C20.1429 22.9447 20.1429 22.334 20.1429 21.7218C20.1429 21.1097 19.9399 20.7862 19.4975 20.6368C18.9491 20.4526 18.2558 20.6368 17.941 21.0285C17.8778 21.1183 17.8508 21.2286 17.8656 21.3374C17.8656 22.1773 17.8656 23.0157 17.8656 23.8556C17.8656 24.0616 17.8061 24.1211 17.6016 24.1182C17.0576 24.1109 17.0576 24.1182 17.0576 23.5698C17.0576 22.4573 17.0576 21.3447 17.0576 20.2336C17.0576 20.0174 17.1156 19.9275 17.3347 19.9565C17.3978 19.9645 17.4616 19.9645 17.5247 19.9565C17.7684 19.9159 17.9192 19.9841 17.8714 20.3075Z" fill="#5D6A82"/>
<path d="M8.77526 23.7699C8.37283 24.0788 7.87514 24.2374 7.36822 24.2182C6.46307 24.1979 5.8756 23.6844 5.82918 22.7778C5.78276 21.8958 5.81032 21.0095 5.80597 20.1247C5.80597 20.0507 5.80597 19.9622 5.90171 19.9593C6.10169 19.947 6.30225 19.947 6.50224 19.9593C6.63424 19.9709 6.59797 20.0957 6.59797 20.1813C6.59797 20.8007 6.59797 21.4215 6.59797 22.0423C6.59797 22.1511 6.59797 22.2614 6.59797 22.3702C6.61538 22.8271 6.69806 23.2521 7.19125 23.4407C7.44643 23.5306 7.72223 23.5444 7.98514 23.4806C8.24805 23.4167 8.48676 23.2779 8.67227 23.0809C8.75227 22.9813 8.78979 22.8541 8.77671 22.727C8.77671 21.8871 8.77671 21.0487 8.77671 20.2088C8.77671 20.0043 8.83473 19.9419 9.04071 19.9434C9.57451 19.9434 9.57451 19.9434 9.57451 20.4786C9.57451 21.6014 9.57451 22.7241 9.57451 23.8454C9.57451 24.0485 9.52084 24.1355 9.31341 24.105C9.24107 24.0978 9.16818 24.0978 9.09583 24.105C8.86954 24.1282 8.69838 24.1036 8.77526 23.7699Z" fill="#5D6A82"/>
<path d="M55.6287 20.351C55.8627 20.1477 56.139 19.999 56.4375 19.9157C56.7361 19.8324 57.0495 19.8166 57.3549 19.8694C58.0874 19.9681 58.6357 20.4598 58.7025 21.1996C58.7866 22.1163 58.7199 23.0403 58.7315 23.9556C58.7315 24.0383 58.7112 24.1007 58.614 24.1007C58.4312 24.1007 58.2484 24.1007 58.0657 24.1007C57.9046 24.1007 57.9525 23.9629 57.9511 23.8744C57.9511 23.2536 57.9511 22.6342 57.9511 22.0134V21.7668C57.9511 21.2881 57.8568 20.8486 57.3447 20.6469C57.0825 20.55 56.7983 20.5283 56.5244 20.5841C56.2504 20.64 55.9975 20.7713 55.7941 20.9632C55.7456 21.0102 55.7076 21.0669 55.6826 21.1297C55.6576 21.1924 55.6462 21.2598 55.649 21.3272C55.649 22.157 55.649 22.9867 55.6563 23.8164C55.6563 24.0354 55.6142 24.1181 55.3763 24.1065C54.8672 24.0906 54.8672 24.1065 54.8672 23.6061C54.8672 22.4848 54.8744 21.3635 54.8672 20.2422C54.8672 19.9927 54.9441 19.91 55.1776 19.9449C55.2229 19.9507 55.2687 19.9507 55.314 19.9449C55.5664 19.9115 55.7172 19.9869 55.6287 20.351Z" fill="#5D6A82"/>
<path d="M51.6345 21.8697C51.6345 21.523 51.6273 21.1764 51.6345 20.8311C51.6345 20.6658 51.5896 20.6034 51.4198 20.6121C51.1457 20.6237 50.8715 20.6121 50.5988 20.6121C50.4306 20.6193 50.3638 20.5555 50.3812 20.3902C50.3885 20.3265 50.3885 20.2623 50.3812 20.1987C50.358 20.0116 50.4277 19.9332 50.6249 19.9434C50.8889 19.9564 51.1544 19.9434 51.4184 19.9434C51.5852 19.9506 51.6389 19.897 51.6345 19.7287C51.6244 19.2544 51.6345 18.78 51.6273 18.3057C51.6273 18.1331 51.6722 18.0606 51.8579 18.0664C52.5397 18.0852 52.4164 17.9764 52.428 18.6219C52.428 18.9947 52.428 19.369 52.428 19.7432C52.428 19.8984 52.4744 19.9477 52.6296 19.9434C52.985 19.9332 53.3418 19.9434 53.6972 19.9434C53.8901 19.9361 53.9656 20.0029 53.9409 20.1943C53.9322 20.2666 53.9322 20.3396 53.9409 20.4119C53.9598 20.5744 53.8814 20.615 53.7335 20.6121C53.3955 20.6121 53.0575 20.6237 52.7181 20.6121C52.4991 20.6005 52.4149 20.6527 52.428 20.892C52.4468 21.465 52.428 22.0394 52.4352 22.6139C52.4352 23.3188 52.7674 23.6031 53.4753 23.5146C53.9366 23.4566 53.9366 23.4624 53.9032 23.9397C53.9053 23.9892 53.8882 24.0376 53.8555 24.0749C53.8228 24.1121 53.777 24.1354 53.7277 24.1398C53.3988 24.2208 53.0571 24.2356 52.7224 24.1834C52.0581 24.0673 51.6867 23.6525 51.6461 22.9649C51.6258 22.6008 51.6461 22.2396 51.6461 21.8712L51.6345 21.8697Z" fill="#5D6A82"/>
<path d="M12.1636 24.2241C11.6646 24.2241 11.1801 24.1515 10.7478 23.8774C10.6695 23.8266 10.5404 23.786 10.5839 23.6598C10.6195 23.4898 10.6968 23.3313 10.8088 23.1985C10.8697 23.1419 10.9379 23.2333 10.9973 23.2681C11.4631 23.5494 12.015 23.6525 12.5509 23.5582C12.8947 23.5017 13.0818 23.3146 13.0934 23.0404C13.105 22.7662 12.9353 22.5414 12.5901 22.4529C12.21 22.3557 11.8213 22.2876 11.4499 22.1628C10.8349 21.9612 10.5883 21.5608 10.6434 20.9356C10.6855 20.4715 11.0481 20.0653 11.595 19.9275C12.246 19.7514 12.94 19.834 13.5315 20.1581C13.6127 20.2031 13.7461 20.2379 13.6997 20.367C13.6432 20.5266 13.6083 20.7079 13.4734 20.8225C13.4111 20.8762 13.3414 20.792 13.2805 20.7558C12.9405 20.5546 12.5477 20.4606 12.1534 20.486C11.998 20.4911 11.8459 20.5328 11.7096 20.6078C11.6227 20.65 11.5508 20.7178 11.5036 20.8021C11.4564 20.8864 11.4362 20.9831 11.4456 21.0792C11.4466 21.1765 11.4793 21.2707 11.5387 21.3477C11.5981 21.4247 11.681 21.4801 11.7748 21.5057C12.0809 21.5942 12.3942 21.6595 12.7032 21.7364C12.8352 21.7683 12.9701 21.7987 13.0992 21.8422C13.633 22.025 13.9072 22.3833 13.9217 22.9099C13.9328 23.1629 13.8616 23.4127 13.7188 23.6219C13.576 23.8311 13.3693 23.9884 13.1297 24.0703C12.8208 24.1842 12.4926 24.2364 12.1636 24.2241V24.2241Z" fill="#5D6A82"/>
<path d="M18.7592 3.55787V3.33594H18.868C19.0101 3.59894 19.0993 3.88722 19.1306 4.18451C19.1407 4.36148 19.293 4.31361 19.4047 4.32087L19.4207 4.4195C19.4294 4.50654 19.3714 4.62258 19.5208 4.65014L19.5353 4.8097C19.442 4.79598 19.3467 4.81064 19.2619 4.85177C19.177 4.8929 19.1065 4.9586 19.0595 5.04034C19.0919 5.06767 19.1309 5.08606 19.1727 5.09369C19.2144 5.10132 19.2574 5.09793 19.2974 5.08386C19.5048 5.0592 19.4671 5.33916 19.66 5.35656C19.7268 5.35656 19.5962 5.49291 19.6035 5.55964C19.6281 5.76127 19.4265 5.87006 19.4207 6.04848C19.4091 6.32989 19.4207 6.61274 19.4207 6.8956C19.4207 6.95798 19.4134 7.04066 19.5019 7.04066C19.5904 7.04066 19.5832 6.95798 19.5832 6.8956C19.5832 6.6229 19.5832 6.35019 19.5832 6.04268C19.7282 6.21239 19.7282 6.47784 20.0082 6.45608C20.0496 6.60295 20.0715 6.75462 20.0734 6.90721C20.0724 6.9243 20.07 6.94129 20.0662 6.95798C20.0053 7.0102 20.0125 7.05952 20.0662 7.10303V7.70791H19.9023C19.9023 7.57446 19.9023 7.43956 19.9023 7.30611C19.9023 7.24954 19.8733 7.19297 19.8152 7.18861C19.7572 7.18426 19.7442 7.25389 19.7442 7.30611C19.7442 7.43956 19.7442 7.57446 19.5991 8.93508C19.5904 10.0738 19.5832 9.96353 19.5832 9.85619C19.5832 9.63715 19.5832 9.42102 19.5832 9.19908C19.5832 9.12656 19.5556 9.02647 19.6252 8.99456C19.7891 8.92058 19.7427 8.78568 19.7456 8.66528C19.7456 8.40128 19.7456 8.13583 19.7456 7.87183C19.7456 7.81961 19.8138 7.72677 19.6948 7.71081C19.5759 7.69486 19.4642 7.68761 19.4294 7.83411C19.4213 7.88835 19.4184 7.94323 19.4207 7.99802C19.4076 8.37082 19.4207 8.74071 19.3786 9.11495C19.3453 9.45003 19.3003 9.80542 19.6006 8.93508C19.8051 7.70791 19.8588 7.70791 19.9139 7.70791C19.9139 8.0575 19.9139 8.40853 19.9139 8.75812C19.9139 8.87706 19.9139 8.9786 20.0778 8.96845C20.0778 9.29627 20.0778 9.6241 20.0778 9.95192C19.9327 9.96498 19.9124 9.8823 19.9153 9.7648C19.919 9.66511 19.9161 9.56529 19.9066 9.46599C19.9059 9.44277 19.896 9.42079 19.8792 9.40478C19.8624 9.38877 19.8399 9.38001 19.8167 9.3804C19.8076 9.38041 19.7986 9.38246 19.7904 9.38639C19.7822 9.39033 19.7749 9.39606 19.7692 9.40316C19.7635 9.41025 19.7595 9.41854 19.7574 9.4274C19.7553 9.43627 19.7553 9.44549 19.7572 9.45438C19.7819 9.85764 19.6847 10.2667 19.808 10.6656C19.808 10.7555 19.9037 10.8382 19.808 10.9383C19.755 11.009 19.718 11.0904 19.6995 11.1768C19.681 11.2632 19.6814 11.3525 19.7006 11.4387V11.4387C19.5803 11.4286 19.5802 11.5113 19.5788 11.594C19.5121 11.5736 19.4903 11.6708 19.4134 11.6505C18.9913 11.5403 18.9899 11.5432 18.8535 11.9406C18.851 11.9117 18.8425 11.8835 18.8283 11.8581C18.8142 11.8327 18.7949 11.8106 18.7716 11.7932C18.7483 11.7758 18.7216 11.7635 18.6932 11.7572C18.6648 11.7508 18.6354 11.7506 18.6069 11.7564C18.562 11.7564 18.5126 11.7564 18.4996 11.694C18.4865 11.6317 18.5213 11.6099 18.5707 11.5998C18.7737 11.562 18.7563 11.4039 18.7563 11.2589C18.7563 9.52836 18.7563 7.79785 18.7563 6.06733C18.7563 5.84105 18.6766 5.7221 18.4387 5.73516C18.3183 5.73516 18.2312 5.7134 18.2051 5.56834C18.1471 5.24922 18.3328 5.02584 18.5315 4.84307C18.7636 4.63564 18.8448 4.43836 18.6766 4.15405C18.5808 3.99884 18.562 3.87119 18.6969 3.74064C18.719 3.71594 18.736 3.68702 18.7467 3.65562C18.7574 3.62421 18.7617 3.59097 18.7592 3.55787ZM19.5773 10.7758C19.5686 10.6975 19.5773 10.5974 19.4657 10.5974C19.4105 10.5974 19.4047 10.6699 19.4308 10.7004C19.4947 10.7744 19.3946 10.9093 19.4918 10.9325C19.589 10.9557 19.5773 10.8397 19.5773 10.7758Z" fill="#4A81F5"/>
<path d="M28.1708 24.224C27.7017 24.2292 27.2411 24.0982 26.845 23.8469C26.771 23.7961 26.6752 23.7468 26.7362 23.6322C26.8159 23.4871 26.8261 23.2913 26.9828 23.197C27.0103 23.1796 27.093 23.2434 27.1467 23.2739C27.6129 23.5554 28.1653 23.6585 28.7017 23.564C29.0483 23.506 29.2297 23.3232 29.2369 23.0433C29.2456 22.7357 29.0846 22.5501 28.7365 22.463C28.3216 22.3528 27.8923 22.2991 27.4934 22.1381C27.296 22.0745 27.1224 21.9529 26.9954 21.7891C26.8683 21.6252 26.7936 21.4269 26.7811 21.2199C26.7589 21.0142 26.7933 20.8064 26.8804 20.6188C26.9676 20.4312 27.1043 20.2709 27.2758 20.1552C27.5336 19.9801 27.8348 19.8797 28.1461 19.8651C28.685 19.8019 29.2304 19.9057 29.7083 20.1625C29.9013 20.2727 29.8882 20.4221 29.6924 20.7427C29.5822 20.9255 29.4908 20.7804 29.4023 20.7325C28.9978 20.4905 28.5152 20.4151 28.0562 20.5222C27.7515 20.5947 27.5688 20.8051 27.5847 21.0459C27.6036 21.336 27.7835 21.481 28.0518 21.5405C28.4072 21.6217 28.764 21.6986 29.1165 21.7929C29.7388 21.9568 30.0478 22.3267 30.0637 22.904C30.0797 23.4813 29.7591 23.902 29.1702 24.0978C28.8469 24.1975 28.5087 24.2402 28.1708 24.224V24.224Z" fill="#5D6A82"/>
<path d="M32.2832 24.224C31.8139 24.2296 31.3526 24.1018 30.953 23.8555C30.8791 23.8062 30.7761 23.7555 30.8254 23.6452C30.8965 23.49 30.9168 23.3014 31.0633 23.1941C31.1242 23.1491 31.1895 23.242 31.2504 23.2753C31.718 23.5531 32.2706 23.6515 32.8054 23.5524C33.1434 23.49 33.3319 23.2913 33.3319 23.0186C33.3319 22.7459 33.1608 22.5355 32.8359 22.4529C32.4558 22.3557 32.0671 22.2875 31.6957 22.1627C31.014 21.9365 30.7195 21.3664 30.9284 20.7267C30.9821 20.5553 31.0759 20.3992 31.2021 20.2713C31.3282 20.1434 31.483 20.0474 31.6537 19.9913C32.0019 19.8657 32.3729 19.816 32.7419 19.8456C33.1109 19.8751 33.4694 19.9831 33.7932 20.1624C33.9978 20.2669 33.9383 20.3931 33.8701 20.5439C33.725 20.8645 33.7338 20.8601 33.4248 20.7035C33.0373 20.4887 32.5836 20.4266 32.1526 20.5294C31.8408 20.6092 31.6827 20.7992 31.6885 21.0545C31.6943 21.3098 31.8466 21.4708 32.1526 21.5477C32.5066 21.6362 32.8649 21.7073 33.2159 21.8016C33.8295 21.9655 34.1501 22.3528 34.1602 22.9185C34.1704 23.4842 33.8425 23.9136 33.2551 24.105C32.9402 24.1993 32.6115 24.2395 32.2832 24.224V24.224Z" fill="#5D6A82"/>
<path d="M18.7599 3.55798C18.7647 3.59433 18.7613 3.63129 18.75 3.66617C18.7388 3.70105 18.7198 3.73297 18.6946 3.75961C18.5597 3.89016 18.5786 4.01781 18.6743 4.17302C18.8499 4.46313 18.7686 4.6546 18.5293 4.86203C18.3306 5.039 18.1449 5.26239 18.2029 5.58731C18.229 5.73237 18.316 5.76138 18.4364 5.75412C18.6743 5.74107 18.7556 5.86002 18.7541 6.0863C18.7541 7.81682 18.7541 9.54733 18.7541 11.2778C18.7541 11.4229 18.7715 11.581 18.5684 11.6187C18.5191 11.6289 18.4858 11.6564 18.4974 11.713C18.509 11.7696 18.5597 11.7797 18.6047 11.7754C18.6332 11.7695 18.6626 11.7698 18.691 11.7761C18.7193 11.7825 18.7461 11.7947 18.7694 11.8122C18.7926 11.8296 18.812 11.8517 18.8261 11.8771C18.8402 11.9025 18.8488 11.9306 18.8513 11.9596C18.9877 11.5622 18.9891 11.5593 19.4112 11.6695C19.4881 11.6898 19.5099 11.5926 19.5766 11.6129H19.6274C19.5785 11.7566 19.501 11.8888 19.3996 12.0017L19.3604 12.0553C19.299 12.0427 19.235 12.0509 19.1788 12.0788C19.1225 12.1067 19.0772 12.1525 19.05 12.2091C18.9441 12.3701 18.8441 12.5485 18.6308 12.6153C18.4974 12.6573 18.5307 12.7603 18.5888 12.8618C18.5888 12.8778 18.5786 12.8836 18.5641 12.8807C18.4364 12.856 18.1869 12.9474 18.348 12.6515C18.0999 12.5065 18.348 12.4238 18.3842 12.3121C18.4132 12.2352 18.654 12.3121 18.5293 12.1482C18.448 12.0466 18.332 12.1206 18.2508 12.2091C18.2189 12.2439 18.2058 12.3164 18.1289 12.2831C18.0491 12.0945 18.1986 11.8943 18.1391 11.729C18.0187 11.391 18.0622 11.0501 18.0491 10.7136C18.0491 10.641 18.0578 10.5685 17.9824 10.5192C18.3886 9.51542 18.2856 8.47827 18.184 7.44402C18.0549 6.19374 17.7011 4.97704 17.1396 3.85245C17.4217 3.76354 17.7227 3.7535 18.01 3.82344C18.155 3.84809 18.2696 3.86405 18.3654 3.72045C18.4611 3.57684 18.6279 3.60875 18.7599 3.55798ZM18.2348 4.48489C18.2682 4.36159 18.303 4.2644 18.2145 4.18317C18.2074 4.17836 18.1994 4.17512 18.191 4.17368C18.1826 4.17224 18.1739 4.17264 18.1657 4.17484C18.1574 4.17705 18.1497 4.181 18.1431 4.18645C18.1365 4.19189 18.1312 4.19869 18.1275 4.20638C18.084 4.31227 18.1144 4.40076 18.2348 4.48489V4.48489Z" fill="#487FF4"/>
<path d="M17.9826 10.5105C18.058 10.5569 18.0464 10.6323 18.0493 10.7049C18.0623 11.0458 18.0188 11.3866 18.1392 11.7203C18.1987 11.8856 18.0493 12.0858 18.1291 12.2744C18.2059 12.3077 18.219 12.2352 18.2509 12.2004C18.3321 12.1119 18.4482 12.0379 18.5294 12.1395C18.6614 12.3063 18.4206 12.2265 18.3844 12.3034C18.3423 12.4151 18.0942 12.5007 18.3481 12.6428C18.1871 12.9329 18.4366 12.8473 18.5642 12.872C18.2314 13.1672 17.8111 13.3455 17.3675 13.3797C16.9537 13.4297 16.5353 13.4297 16.1215 13.3797C15.9235 13.183 15.6638 13.0606 15.3861 13.033C15.2976 13.033 15.167 13.0867 15.1453 12.9329C15.1235 12.7792 15.2381 12.7879 15.3309 12.7415C15.5761 12.6341 15.5804 12.5326 15.3687 12.3701C15.2352 12.2671 15.0974 12.1511 15.3541 12.0118C15.407 11.9847 15.451 11.9429 15.4808 11.8914C15.5107 11.84 15.5251 11.7811 15.5224 11.7217C15.5224 11.4098 15.4861 11.0922 15.6283 10.7948C16.3956 11.4925 17.4647 11.4345 17.9826 10.5105Z" fill="#4679ED"/>
<path d="M15.6341 10.7905C15.489 11.0806 15.5238 11.4055 15.5282 11.7174C15.5309 11.7768 15.5164 11.8357 15.4866 11.8871C15.4568 11.9386 15.4128 11.9803 15.3599 12.0075C15.1032 12.1526 15.241 12.2628 15.3744 12.3658C15.5862 12.5283 15.5819 12.6298 15.3367 12.7371C15.2439 12.7778 15.1307 12.7952 15.151 12.9286C15.1714 13.0621 15.2961 13.0243 15.3918 13.0287C15.6695 13.0563 15.9293 13.1787 16.1273 13.3754C15.8985 13.3958 15.669 13.3452 15.4702 13.2303C15.4368 13.0853 15.3251 13.1462 15.2381 13.1404C14.9153 13.0237 14.6193 12.8431 14.3677 12.6095C13.9916 12.3101 13.6609 11.9578 13.3857 11.5636C13.3857 11.4839 13.3857 11.4026 13.3857 11.3228C13.3857 11.0879 13.2116 10.9646 12.9505 10.9994C12.9311 10.9902 12.9148 10.9756 12.9035 10.9573C12.8921 10.939 12.8863 10.9179 12.8867 10.8964C12.894 10.8964 12.9085 10.8833 12.907 10.879C12.8084 10.4801 13.068 10.4351 13.3654 10.3843C13.5728 10.3481 13.7542 10.1958 13.9848 10.2248C14.0791 10.2378 14.0979 10.1609 14.1037 10.0797C14.1197 9.83748 14.1531 9.59523 14.1545 9.35444C14.1479 9.21027 14.1915 9.06827 14.2778 8.95264C14.7188 9.57347 15.1119 10.232 15.6341 10.7905Z" fill="#4170E4"/>
<path d="M48.2388 20.4351C48.616 20 49.0714 19.8723 49.5878 19.8868C49.8315 19.8941 49.9461 19.9724 49.9041 20.2263C49.8961 20.2806 49.8961 20.3358 49.9041 20.3902C49.9287 20.5918 49.8721 20.66 49.6473 20.6223C49.4668 20.5895 49.2814 20.5954 49.1033 20.6397C48.9253 20.6839 48.7587 20.7655 48.6145 20.879C48.4823 20.9684 48.3751 21.0901 48.303 21.2325C48.2309 21.3749 48.1964 21.5333 48.2025 21.6928C48.2214 22.4035 48.2025 23.1158 48.2025 23.8265C48.2025 24.0325 48.1648 24.1167 47.9342 24.1167C47.4091 24.105 47.4091 24.1167 47.4091 23.6017C47.4091 22.4978 47.4207 21.394 47.4004 20.2901C47.4004 20 47.4889 19.9361 47.7572 19.9492C48.1793 19.9666 48.1808 19.9507 48.2388 20.4351Z" fill="#5D6A82"/>
<path d="M65.5607 20.4366C65.9378 19.9797 66.4093 19.868 66.9344 19.8898C67.1273 19.8985 67.2549 19.9463 67.2143 20.1799C67.2056 20.2342 67.2056 20.2895 67.2143 20.3438C67.2535 20.6005 67.1665 20.6571 66.9025 20.6194C66.7165 20.592 66.5268 20.6061 66.3469 20.6608C66.1671 20.7155 66.0016 20.8093 65.8624 20.9356C65.7522 21.0236 65.6638 21.136 65.6042 21.2638C65.5446 21.3916 65.5153 21.5315 65.5186 21.6725C65.5331 22.3978 65.5085 23.1114 65.5186 23.8309C65.5186 24.0659 65.4446 24.121 65.2285 24.121C64.7324 24.1094 64.7324 24.121 64.7324 23.638C64.7324 22.4993 64.7324 21.3606 64.7324 20.2219C64.7324 20.0203 64.7817 19.9318 64.9906 19.9608C64.9998 19.9616 65.009 19.9616 65.0182 19.9608C65.4838 19.9478 65.4838 19.9478 65.5607 20.4366Z" fill="#5D6A82"/>
<path d="M0.292774 6.40541C0.482797 6.24585 0.516159 6.00941 0.555324 5.79183C0.614356 5.46997 0.711755 5.15635 0.845436 4.85767C0.923766 4.6836 0.900557 4.46747 1.06157 4.32532C1.12974 4.82866 0.931018 5.28704 0.812073 5.75702C0.77871 5.89047 0.845436 5.92383 0.93537 5.94994C1.0253 5.97605 1.08043 5.90352 1.05722 5.82664C0.997744 5.596 1.15731 5.43934 1.23854 5.25948C1.31977 5.07961 1.85937 5.08541 1.89564 5.26818C1.98557 5.71785 2.30034 5.64677 2.60061 5.64097L2.20896 7.283C1.97252 7.283 1.73608 7.283 1.49964 7.283C1.44593 7.27769 1.39188 7.28868 1.34452 7.31456C1.29717 7.34044 1.25872 7.37999 1.23418 7.42806C1.18922 7.51509 1.2835 7.70511 1.1312 7.68626C0.978887 7.6674 1.08333 7.48608 1.05432 7.38164C1.05432 7.37294 1.05432 7.36278 1.05432 7.35408C1.0224 7.20902 0.887502 7.15825 0.793216 7.09443C0.698929 7.0306 0.638006 7.19597 0.565478 7.25254C0.49295 7.30911 0.565478 7.39759 0.565478 7.48028C0.565478 7.56296 0.613347 7.69206 0.455236 7.71382C0.331939 7.72977 0.31018 7.65869 0.285521 7.55571C0.260924 7.47808 0.227333 7.40359 0.185433 7.33377L0.173828 7.04366C0.173828 6.95372 0.186883 6.86379 0.192685 6.77386C0.266656 6.66585 0.30193 6.536 0.292774 6.40541V6.40541ZM0.896205 6.68537C0.861392 6.60414 0.952777 6.44748 0.819326 6.44458C0.685874 6.44168 0.72649 6.58963 0.730842 6.68682C0.735193 6.78401 0.67427 6.92907 0.809172 6.92907C0.944073 6.92907 0.865743 6.77241 0.896205 6.68537V6.68537Z" fill="#4170E4"/>
<path d="M0.179778 7.33814C0.223691 7.40769 0.259235 7.48219 0.285669 7.56008C0.304526 7.66306 0.332087 7.73414 0.455384 7.71819C0.613494 7.69643 0.562725 7.57313 0.565626 7.48465C0.568527 7.39616 0.488747 7.32944 0.565626 7.25691C0.642506 7.18438 0.710682 7.04368 0.790462 7.10025C0.870243 7.15682 1.01965 7.22065 1.05156 7.3599C1.05156 7.3686 1.05156 7.37876 1.05156 7.38746C1.08057 7.4919 0.986287 7.67757 1.12844 7.69208C1.2706 7.70658 1.18646 7.52091 1.23143 7.43388C1.25596 7.38581 1.29442 7.34626 1.34177 7.32038C1.38913 7.29451 1.44318 7.28351 1.49688 7.28882C1.73332 7.28882 1.96976 7.28882 2.2062 7.28882C2.16124 7.86904 2.08436 8.44927 2.09016 9.04109C1.88128 9.04109 1.67095 9.04109 1.46207 9.04109C1.28655 9.04109 1.20677 9.10637 1.21838 9.28189C1.22636 9.38181 1.22636 9.48222 1.21838 9.58215C1.21838 9.65178 1.26915 9.77943 1.14295 9.77362C1.04431 9.77362 1.05736 9.65033 1.05736 9.5691C1.05736 9.24127 1.05736 8.91344 1.05736 8.58562C1.05736 8.51889 1.08638 8.41155 0.986287 8.4072C0.857188 8.4072 0.899254 8.52179 0.896353 8.59287C0.896353 8.75678 0.896353 8.9207 0.896353 9.08461C0.896353 9.14989 0.883298 9.22967 0.806418 9.22967C0.729539 9.22967 0.741143 9.16149 0.733891 9.11072C0.726638 9.05995 0.722286 8.98887 0.643956 9.01063C0.377054 9.08461 0.407515 8.89749 0.406065 8.74373C0.406065 8.45362 0.406065 8.16351 0.406065 7.8734H0.304526L0.234899 9.69239H0.0898438C0.0898438 8.9236 0.0898438 8.15577 0.0898438 7.38891L0.179778 7.33814Z" fill="#4679ED"/>
<path d="M14.936 22.0481C14.936 21.4374 14.936 20.8268 14.936 20.2161C14.936 20.0377 14.9708 19.9492 15.1753 19.9535C15.8745 19.9709 15.7367 19.8795 15.7411 20.512C15.7498 21.6144 15.7411 22.7183 15.7411 23.8222C15.7411 24.0368 15.7033 24.1282 15.4611 24.1224C14.9331 24.1079 14.9316 24.1224 14.9316 23.5814L14.936 22.0481Z" fill="#5D6A82"/>
<path d="M15.9276 18.3798C15.9295 18.4572 15.9154 18.5342 15.8864 18.606C15.8573 18.6778 15.8139 18.7429 15.7587 18.7973C15.7035 18.8516 15.6378 18.8941 15.5655 18.9221C15.4933 18.9501 15.4161 18.963 15.3387 18.96C15.256 18.9739 15.1712 18.9698 15.0902 18.9478C15.0092 18.9258 14.934 18.8864 14.8696 18.8325C14.8053 18.7786 14.7535 18.7114 14.7176 18.6355C14.6818 18.5597 14.6629 18.4769 14.6621 18.393C14.6614 18.3091 14.6789 18.226 14.7133 18.1495C14.7478 18.073 14.7985 18.0048 14.8618 17.9498C14.9252 17.8948 14.9997 17.8541 15.0803 17.8307C15.1609 17.8073 15.2456 17.8016 15.3286 17.8141C15.4058 17.8089 15.4832 17.8197 15.556 17.8458C15.6288 17.872 15.6955 17.9129 15.7517 17.966C15.808 18.0191 15.8526 18.0833 15.8829 18.1545C15.9132 18.2257 15.9284 18.3024 15.9276 18.3798V18.3798Z" fill="#5D6A82"/>
<path d="M0.0871075 9.69238H0.232163C0.232163 9.82003 0.232163 9.94623 0.232163 10.0739C0.243768 10.1667 0.194449 10.2726 0.285834 10.3495C0.324644 10.7735 0.463869 11.1823 0.691989 11.5418C0.94958 11.9237 1.25526 12.2708 1.60149 12.5746C1.86276 12.7931 2.14339 12.9873 2.43991 13.1549C2.52403 13.1926 2.61644 13.2081 2.70826 13.1998C2.82866 13.1998 2.9505 13.2129 2.97516 13.3695C2.38583 13.3124 1.83342 13.0567 1.40856 12.6443C0.683286 11.964 0.278581 11.0994 0.103064 10.1275C0.0868506 9.9831 0.0815168 9.83763 0.0871075 9.69238V9.69238Z" fill="#4A81F4"/>
<path d="M20.0131 6.46193C19.7404 6.48079 19.7375 6.21824 19.5881 6.04852C19.5881 6.35604 19.5881 6.62875 19.5881 6.90145C19.5881 6.96382 19.5881 7.04651 19.5069 7.04651C19.4256 7.04651 19.4256 6.96237 19.4256 6.90145C19.4256 6.61134 19.4169 6.33573 19.4256 6.05433C19.4256 5.87591 19.6331 5.76421 19.6084 5.56549C19.6012 5.49876 19.7317 5.36821 19.665 5.36241C19.4721 5.345 19.5098 5.06505 19.3023 5.08971C19.2623 5.10378 19.2193 5.10717 19.1776 5.09954C19.1359 5.09191 19.0969 5.07352 19.0645 5.04619C19.1115 4.96445 19.182 4.89875 19.2668 4.85762C19.3517 4.81649 19.4469 4.80183 19.5402 4.81555C19.6853 4.91274 19.6853 5.08245 19.723 5.22316C19.8517 5.62793 19.9487 6.0421 20.0131 6.46193V6.46193Z" fill="#4A81F4"/>
<path d="M20.0742 7.71965C20.0742 7.51803 20.0742 7.3164 20.0742 7.11477V6.96971C20.0781 6.95302 20.0805 6.93604 20.0815 6.91895C20.1428 7.10044 20.1694 7.29187 20.1598 7.48321C20.2166 8.32921 20.2089 9.17831 20.1366 10.0231C20.1435 10.0962 20.1239 10.1693 20.0815 10.2291V9.96511C20.0815 9.63729 20.0815 9.30946 20.0815 8.98164L20.0742 7.71965Z" fill="#4A81F4"/>
<path d="M20.0706 9.96511V10.2233C20.0755 10.3429 20.0527 10.4621 20.0039 10.5714L19.9705 10.6309L19.7965 10.6817C19.6732 10.2828 19.7704 9.87373 19.7457 9.47048C19.7438 9.46158 19.7438 9.45236 19.7459 9.4435C19.748 9.43463 19.752 9.42635 19.7577 9.41925C19.7634 9.41215 19.7707 9.40642 19.7789 9.40249C19.7871 9.39855 19.7961 9.3965 19.8052 9.3965C19.8284 9.3961 19.8509 9.40486 19.8677 9.42087C19.8845 9.43688 19.8944 9.45887 19.8951 9.48208C19.9046 9.58139 19.9075 9.68121 19.9038 9.78089C19.9053 9.89549 19.9299 9.97817 20.0706 9.96511Z" fill="#4679ED"/>
<path d="M18.5938 12.8575C18.5358 12.7632 18.5024 12.6529 18.6358 12.6109C18.8491 12.5441 18.9492 12.3657 19.0551 12.2047C19.0822 12.1481 19.1276 12.1023 19.1838 12.0744C19.24 12.0465 19.304 12.0383 19.3655 12.051C19.1814 12.3813 18.9157 12.659 18.5938 12.8575V12.8575Z" fill="#4170E4"/>
<path d="M19.4049 4.32528C19.2932 4.31803 19.1409 4.3659 19.1307 4.18893C19.1 3.89015 19.0108 3.60033 18.8682 3.336L18.9189 3.28088C19.1233 3.6077 19.2865 3.95849 19.4049 4.32528V4.32528Z" fill="#4679ED"/>
<path d="M12.9473 11.008C13.2142 10.9732 13.3824 11.0965 13.3824 11.3315C13.3824 11.4113 13.3824 11.4925 13.3824 11.5723C13.2111 11.406 13.0646 11.216 12.9473 11.008V11.008Z" fill="#3C67DA"/>
<path d="M18.5939 3.1198C18.5324 3.12703 18.4704 3.11218 18.4188 3.07791C18.3673 3.04364 18.3296 2.99217 18.3125 2.93268C18.3225 2.87179 18.3503 2.81521 18.3924 2.77005C18.4344 2.72489 18.4889 2.69316 18.5489 2.67883C18.6479 2.76808 18.7211 2.88231 18.7607 3.00956V3.00956C18.6737 3.00811 18.5997 3.01246 18.5939 3.1198Z" fill="#487FF4"/>
<path d="M10.8063 2.27271V2.56282C10.567 2.50479 10.6889 2.99798 10.3799 2.83987V2.77895C10.4926 2.58748 10.6368 2.41635 10.8063 2.27271V2.27271Z" fill="#4679ED"/>
<path d="M19.8013 10.6787L19.9754 10.6279C19.9477 10.9225 19.8529 11.2068 19.6984 11.4591C19.6791 11.3729 19.6787 11.2835 19.6972 11.1971C19.7157 11.1107 19.7527 11.0294 19.8057 10.9587C19.8971 10.8513 19.7941 10.7686 19.8013 10.6787Z" fill="#4A81F4"/>
<path d="M0.292414 6.4054C0.301224 6.53862 0.263825 6.6708 0.186523 6.77965C0.227139 6.55771 0.186523 6.31837 0.331579 6.12109C0.372195 6.22263 0.292414 6.30967 0.292414 6.4054Z" fill="#4A81F4"/>
<path d="M0.179439 7.3381L0.0895048 7.38887C0.0895048 7.26992 0.043087 7.14082 0.167835 7.04944C0.170736 7.14518 0.175088 7.24091 0.179439 7.3381Z" fill="#4A81F4"/>
<path d="M18.9193 3.2852L18.8686 3.34032H18.7598V3.17786H18.8628C18.8813 3.18866 18.8964 3.20445 18.9064 3.22343C18.9164 3.2424 18.9209 3.2638 18.9193 3.2852V3.2852Z" fill="#487FF4"/>
<path d="M4.67285 13.3C4.70766 13.1462 4.82661 13.2115 4.918 13.2042C4.85196 13.267 4.76395 13.3014 4.67285 13.3V13.3Z" fill="#4A81F4"/>
<path d="M19.5208 4.65459C19.3758 4.62703 19.4295 4.50953 19.4208 4.42395C19.5034 4.47907 19.4904 4.57626 19.5208 4.65459Z" fill="#4679ED"/>
<path d="M15.2373 13.1491C15.3243 13.1491 15.436 13.094 15.4694 13.239C15.4263 13.2449 15.3823 13.2398 15.3417 13.224C15.3011 13.2083 15.2652 13.1825 15.2373 13.1491Z" fill="#4679ED"/>
<path d="M19.6318 11.6043H19.5781C19.5781 11.5216 19.5781 11.4389 19.7 11.4491C19.7004 11.4783 19.6945 11.5073 19.6827 11.5341C19.671 11.5609 19.6536 11.5848 19.6318 11.6043V11.6043Z" fill="#4A81F4"/>
<path d="M18.8628 3.17642H18.7598C18.7612 3.15904 18.7612 3.14158 18.7598 3.1242V3.01831C18.7874 3.03555 18.811 3.05864 18.8288 3.08596C18.8466 3.11327 18.8582 3.14415 18.8628 3.17642Z" fill="#4679ED"/>
<path d="M4.57324 13.3304L4.62401 13.3086L4.57324 13.3304Z" fill="#4A81F4"/>
<path d="M5.00684 13.178L5.06486 13.1447L5.00684 13.178Z" fill="#4A81F4"/>
<path d="M19.3643 12.051L19.4034 11.9973L19.3643 12.051Z" fill="#4170E4"/>
<path d="M19.9707 10.6308L20.0041 10.5713L19.9707 10.6308Z" fill="#4A81F4"/>
<path d="M1.05664 4.32532C1.05664 4.27455 1.05664 4.21653 1.12772 4.20203C1.13497 4.20203 1.15528 4.22233 1.15673 4.23539C1.15673 4.30647 1.11176 4.31807 1.05664 4.32532Z" fill="#4170E4"/>
<path d="M0.285291 10.3494C0.193906 10.2725 0.243225 10.1666 0.231621 10.0738C0.376676 10.0564 0.337511 9.9476 0.338962 9.86346C0.33977 9.72635 0.394478 9.59505 0.49127 9.49792C0.592809 9.53709 0.563798 9.62557 0.555095 9.6865C0.531261 9.92893 0.43753 10.1592 0.285291 10.3494V10.3494Z" fill="#4679ED"/>
<path d="M18.7557 3.01544V3.12133C18.7484 3.12133 18.7354 3.13438 18.7368 3.13728C18.7427 3.14984 18.7495 3.16196 18.7572 3.17355V3.17355V3.33601C18.5816 3.35342 18.5889 3.23447 18.5918 3.11697C18.5947 2.99948 18.6745 3.00818 18.7557 3.01544Z" fill="#4A81F5"/>
<path d="M19.4489 10.1754C19.2965 9.81855 19.3415 9.46316 19.3749 9.12808C19.414 8.75384 19.4039 8.38394 19.4169 8.01115C19.4171 7.95613 19.4224 7.90125 19.4329 7.84724C19.4677 7.70218 19.5925 7.71379 19.6983 7.72394C19.8042 7.7341 19.7477 7.83273 19.7491 7.88495C19.7578 8.14896 19.7564 8.41441 19.7491 8.67841C19.7491 8.7988 19.7926 8.93371 19.6287 9.00768C19.5591 9.0396 19.5867 9.13968 19.5867 9.21221C19.5867 9.43125 19.5867 9.64738 19.5867 9.86931C19.5972 9.92827 19.5897 9.98904 19.5651 10.0436C19.5405 10.0983 19.5 10.1442 19.4489 10.1754Z" fill="#487FF4"/>
<path d="M20.0742 7.7196V8.98159C19.9147 8.99174 19.9089 8.8902 19.9103 8.77126C19.9103 8.42167 19.9103 8.07064 19.9103 7.72105L20.0742 7.7196Z" fill="#4679ED"/>
<path d="M19.91 7.72105H19.7461C19.7461 7.5876 19.7461 7.4527 19.7461 7.31924C19.7461 7.26702 19.7461 7.19885 19.8172 7.20175C19.8882 7.20465 19.9028 7.26267 19.9042 7.31924C19.91 7.4527 19.9086 7.5876 19.91 7.72105Z" fill="#487FF4"/>
<path d="M19.5775 10.776C19.5659 10.8398 19.5949 10.9573 19.4919 10.9326C19.3889 10.908 19.4919 10.7745 19.431 10.7005C19.4049 10.6701 19.4107 10.5961 19.4658 10.5976C19.5862 10.5976 19.5775 10.6976 19.5775 10.776Z" fill="#4679ED"/>
<path d="M20.0635 6.9624V7.10746C20.0127 7.06539 20.0025 7.01607 20.0635 6.9624Z" fill="#4679ED"/>
<path d="M18.2343 4.48491C18.1139 4.40078 18.0892 4.31229 18.1211 4.2093C18.1244 4.20046 18.1297 4.19252 18.1366 4.18612C18.1435 4.17972 18.1518 4.17506 18.1609 4.17251C18.1699 4.16996 18.1795 4.1696 18.1887 4.17146C18.1979 4.17331 18.2066 4.17734 18.214 4.18319C18.3024 4.26442 18.272 4.36161 18.2343 4.48491Z" fill="#4A81F4"/>
<path d="M0.896067 6.68534C0.867056 6.77237 0.948287 6.93048 0.809033 6.92903C0.66978 6.92758 0.736506 6.77382 0.730703 6.68679C0.724901 6.59975 0.698791 6.44019 0.819187 6.44455C0.939583 6.4489 0.865605 6.60411 0.896067 6.68534Z" fill="#4679ED"/>
<path d="M18.7566 3.17356C18.749 3.16197 18.7422 3.14985 18.7363 3.13729C18.7363 3.13729 18.7479 3.12714 18.7552 3.12134C18.7571 3.13867 18.7576 3.15614 18.7566 3.17356Z" fill="#487FF4"/>
<g style="mix-blend-mode:color">
<g style="mix-blend-mode:color">
<path d="M18.9974 3.45642C18.4404 2.3656 17.7326 1.41113 16.7114 0.713415C15.622 -0.0321709 14.4325 -0.156919 13.2039 0.253589C12.5715 0.462469 12.0435 0.88458 11.5677 1.35601C11.0919 1.82744 10.7191 2.33224 10.2724 2.80657C9.87884 2.3023 9.44983 1.82676 8.98861 1.38357C7.87749 0.368183 6.61695 -0.200435 5.07211 0.0650163C4.11039 0.228929 3.359 0.758382 2.66129 1.37922C2.16227 1.83329 1.74947 2.37386 1.44282 2.97483C1.15271 3.51009 0.94963 4.07145 0.698684 4.61686C0.514464 5.01721 0.430331 5.44078 0.308485 5.85128C0.16828 6.2279 0.0994141 6.62732 0.105407 7.02913C-0.0396488 7.17419 0.00821956 7.35696 0.00531845 7.52377C0.00531845 8.13591 0.0212746 8.74949 0.00531845 9.36163C-0.0176801 9.92764 0.0715505 10.4926 0.267869 11.024C0.630508 12.006 1.22669 12.7907 2.20871 13.2346C2.73526 13.4725 3.29228 13.4261 3.84784 13.4449C4.45614 13.459 5.05095 13.2645 5.53339 12.8937C6.39357 12.2816 6.99555 11.4432 7.56417 10.5728C8.45191 9.22963 9.18444 7.79503 10.0011 6.40975C10.5248 7.15098 10.9715 7.93283 11.4342 8.70308C12.0943 9.80405 12.7209 10.9268 13.5753 11.8943C14.0583 12.4455 14.5791 12.9532 15.2826 13.223C15.3018 13.1933 15.3137 13.1595 15.3174 13.1244C15.3137 13.1595 15.3018 13.1933 15.2826 13.223C15.3869 13.278 15.4975 13.3204 15.6119 13.3492C16.0963 13.5131 16.5924 13.4159 17.0827 13.4362C17.5703 13.4427 18.0474 13.2939 18.4448 13.0112C19.5211 12.3019 19.9824 11.2183 20.1086 10.0086C20.345 7.73411 20.0578 5.52926 18.9974 3.45642ZM7.47713 7.0712C6.72865 8.20699 6.04688 9.39209 5.1664 10.435C4.97959 10.6584 4.76172 10.8538 4.51945 11.0153C3.67668 11.5766 2.68885 11.2865 2.29575 10.3538C2.00564 9.67785 2.00564 8.96563 2.05931 8.2505C2.08106 7.9691 2.10717 7.68769 2.13183 7.40628H1.7895H2.13183C2.25647 6.70007 2.43245 6.00389 2.65839 5.32328C2.92545 4.47919 3.37795 3.70552 3.98274 3.05896C4.33958 2.66731 4.75734 2.34819 5.28824 2.251C5.99466 2.12045 6.62566 2.32933 7.18702 2.76015C7.89199 3.30121 8.41854 4.00328 8.92769 4.7184C8.94118 4.75162 8.94855 4.787 8.94945 4.82284C8.42289 5.55392 7.97322 6.32416 7.47713 7.0712ZM18.2011 9.65609C18.1666 9.99339 18.065 10.3204 17.9023 10.6178C17.7993 10.8075 17.6505 10.9684 17.4693 11.0858C17.2881 11.2031 17.0804 11.2731 16.8651 11.2894C16.3531 11.3518 15.9745 11.1168 15.6075 10.8223C15.5091 10.9266 15.4528 11.0635 15.4494 11.2067C15.4528 11.0635 15.5091 10.9266 15.6075 10.8223C14.55 9.60677 13.7754 8.20118 12.9385 6.84201C12.4235 6.01084 11.9419 5.15792 11.3951 4.35141C11.3646 4.29646 11.3384 4.23924 11.3168 4.18024C11.6421 3.69293 11.9983 3.22684 12.3829 2.78481C13.0574 2.05953 13.8219 1.54893 14.8779 1.82309C15.5828 2.00586 16.1079 2.45698 16.546 3.01545C17.4352 4.14833 17.8515 5.48139 18.0836 6.87102C18.2568 7.78886 18.2964 8.72693 18.2011 9.65609V9.65609Z" fill="#7B818D"/>
</g>
</g>
</svg>
