<svg width="19" height="19" viewBox="0 0 19 19" fill="none" xmlns="http://www.w3.org/2000/svg">
<path fill-rule="evenodd" clip-rule="evenodd" d="M4.31934 18.9906C3.89561 18.9756 3.3495 18.9424 3.10128 18.8923C2.72239 18.8158 2.36457 18.6998 2.067 18.5481C1.71738 18.37 1.40404 18.1426 1.13347 17.8725C0.862286 17.6018 0.634044 17.2882 0.455152 16.938C0.303912 16.6421 0.187968 16.2864 0.111128 15.9097C0.0600211 15.659 0.0262206 15.1088 0.0108981 14.6823C0.00468457 14.508 0.00149646 14.2824 0.00149646 14.1784L0 4.82306C0 4.71944 0.00315558 4.4938 0.00933661 4.3193C0.0243988 3.89561 0.0575486 3.3495 0.10768 3.10128C0.184162 2.72242 0.300203 2.36457 0.451833 2.067C0.630042 1.71735 0.857342 1.40407 1.12749 1.13347C1.39815 0.862319 1.71182 0.634076 2.06193 0.455152C2.35793 0.303944 2.71357 0.187968 3.09029 0.111128C3.34101 0.0600211 3.89122 0.0262206 4.31768 0.0109307C4.49192 0.00468457 4.71753 0.00149646 4.82156 0.00149646L14.1769 0C14.2806 0 14.5062 0.00312305 14.6806 0.00933661C15.1044 0.0244313 15.6505 0.0575486 15.8987 0.10768C16.2776 0.184195 16.6354 0.300235 16.933 0.451833C17.2826 0.630042 17.5959 0.857374 17.8665 1.12749C18.1376 1.39818 18.3659 1.71179 18.5448 2.06193C18.696 2.35793 18.812 2.71354 18.8888 3.09029C18.94 3.34101 18.9737 3.89125 18.9891 4.31768C18.9953 4.49195 18.9985 4.71753 18.9985 4.82156L19 14.1769C19 14.2806 18.9968 14.5062 18.9906 14.6807C18.9755 15.1044 18.9424 15.6505 18.8923 15.8987C18.8158 16.2776 18.6998 16.6354 18.5481 16.933C18.37 17.2826 18.1426 17.5959 17.8725 17.8665C17.6018 18.1376 17.2881 18.3659 16.938 18.5448C16.642 18.6961 16.2864 18.812 15.9097 18.8888C15.659 18.9399 15.1087 18.9737 14.6823 18.989C14.508 18.9953 14.2824 18.9985 14.1784 18.9985L4.82306 19C4.71941 19 4.49377 18.9968 4.31934 18.9906Z" fill="#161722"/>
<mask id="mask0_2772_27734" style="mask-type:alpha" maskUnits="userSpaceOnUse" x="0" y="0" width="19" height="19">
<path fill-rule="evenodd" clip-rule="evenodd" d="M4.31934 18.9906C3.89561 18.9756 3.3495 18.9424 3.10128 18.8923C2.72239 18.8158 2.36457 18.6998 2.067 18.5481C1.71738 18.37 1.40404 18.1426 1.13347 17.8725C0.862286 17.6018 0.634044 17.2882 0.455152 16.938C0.303912 16.6421 0.187968 16.2864 0.111128 15.9097C0.0600211 15.659 0.0262206 15.1088 0.0108981 14.6823C0.00468457 14.508 0.00149646 14.2824 0.00149646 14.1784L0 4.82306C0 4.71944 0.00315558 4.4938 0.00933661 4.3193C0.0243988 3.89561 0.0575487 3.3495 0.10768 3.10128C0.184162 2.72242 0.300203 2.36457 0.451833 2.067C0.630042 1.71735 0.857342 1.40407 1.12749 1.13347C1.39815 0.862319 1.71182 0.634076 2.06193 0.455152C2.35793 0.303944 2.71357 0.187968 3.09029 0.111128C3.34101 0.0600211 3.89122 0.0262206 4.31768 0.0109307C4.49192 0.00468457 4.71753 0.00149646 4.82156 0.00149646L14.1769 0C14.2806 0 14.5062 0.00312305 14.6806 0.00933661C15.1044 0.0244313 15.6505 0.0575487 15.8987 0.10768C16.2776 0.184195 16.6354 0.300235 16.933 0.451833C17.2826 0.630042 17.5959 0.857374 17.8665 1.12749C18.1376 1.39818 18.3659 1.71179 18.5448 2.06193C18.696 2.35793 18.812 2.71354 18.8888 3.09029C18.94 3.34101 18.9737 3.89125 18.9891 4.31768C18.9953 4.49195 18.9985 4.71753 18.9985 4.82156L19 14.1769C19 14.2806 18.9968 14.5062 18.9906 14.6807C18.9755 15.1044 18.9424 15.6505 18.8923 15.8987C18.8158 16.2776 18.6998 16.6354 18.5481 16.933C18.37 17.2826 18.1426 17.5959 17.8725 17.8665C17.6018 18.1376 17.2881 18.3659 16.938 18.5448C16.642 18.6961 16.2864 18.812 15.9097 18.8888C15.659 18.9399 15.1088 18.9737 14.6823 18.989C14.508 18.9953 14.2824 18.9985 14.1784 18.9985L4.82306 19C4.71941 19 4.49377 18.9968 4.31934 18.9906Z" fill="white"/>
</mask>
<g mask="url(#mask0_2772_27734)">
<path d="M7.86885 7.95133V7.36863C7.66671 7.33646 7.46249 7.31901 7.25782 7.31642C6.29431 7.31412 5.35526 7.61975 4.57767 8.18871C3.80008 8.75768 3.22462 9.56022 2.93525 10.4793C2.64588 11.3983 2.65772 12.3858 2.96906 13.2976C3.2804 14.2094 3.87494 14.9979 4.66596 15.5481C4.07116 14.9109 3.67345 14.1153 3.52082 13.2571C3.36819 12.399 3.46715 11.515 3.80578 10.7118C4.1444 9.90869 4.7082 9.22068 5.42917 8.73085C6.15013 8.24102 6.99744 7.97029 7.86885 7.95133Z" fill="#65D2E9"/>
<path d="M7.98005 14.5356C8.51223 14.535 9.02365 14.3291 9.40784 13.9608C9.79203 13.5926 10.0194 13.0903 10.0425 12.5586V2.70388H11.8434C11.8067 2.49801 11.789 2.28919 11.7906 2.08008H9.3282V11.9248C9.30838 12.459 9.08244 12.9647 8.69779 13.3359C8.31315 13.7071 7.79969 13.9149 7.26515 13.9157C6.93328 13.9128 6.60682 13.8313 6.3125 13.6779C6.50322 13.9422 6.75369 14.1576 7.04348 14.3066C7.33327 14.4557 7.65418 14.5341 7.98005 14.5356Z" fill="#65D2E9"/>
<path d="M15.2063 6.04735V5.49964C14.5436 5.49963 13.8957 5.30409 13.3438 4.9375C13.8275 5.50025 14.4813 5.89022 15.2063 6.04846V6.04735Z" fill="#65D2E9"/>
<path d="M13.3441 4.9364C12.8005 4.31716 12.5008 3.52127 12.5009 2.69727H11.8438C11.9287 3.15274 12.1055 3.58616 12.3633 3.97112C12.6212 4.35607 12.9547 4.6845 13.3435 4.9364H13.3441Z" fill="#E6436D"/>
<path d="M7.25962 9.7809C6.79859 9.78348 6.35164 9.94003 5.98978 10.2257C5.62791 10.5114 5.37187 10.9098 5.26234 11.3576C5.15281 11.8054 5.19606 12.277 5.38522 12.6975C5.57439 13.1179 5.89862 13.4631 6.30642 13.6781C6.08339 13.3701 5.94986 13.0064 5.92057 12.6272C5.89127 12.248 5.96736 11.8682 6.14042 11.5295C6.31348 11.1909 6.57678 10.9066 6.90123 10.7082C7.22568 10.5098 7.59866 10.405 7.97896 10.4053C8.18614 10.4075 8.39193 10.4394 8.58999 10.5002V7.99448C8.3877 7.96424 8.1835 7.94846 7.97896 7.94727H7.86787V9.85256C7.66964 9.79945 7.46476 9.77531 7.25962 9.7809Z" fill="#E6436D"/>
<path d="M15.2015 6.04883V7.95412C13.9746 7.95145 12.7796 7.56278 11.7859 6.84316V11.8497C11.7834 13.0495 11.305 14.1993 10.4557 15.0467C9.60648 15.8942 8.45571 16.3702 7.25593 16.3702C6.32798 16.372 5.42236 16.0857 4.66406 15.5509C5.28239 16.216 6.08669 16.6795 6.97219 16.881C7.8577 17.0824 8.78335 17.0126 9.62859 16.6805C10.4738 16.3484 11.1995 15.7694 11.711 15.0191C12.2225 14.2687 12.4961 13.3816 12.4963 12.4735V7.48252C13.4935 8.19739 14.6901 8.58078 15.917 8.57848V6.12493C15.6765 6.1244 15.4367 6.0989 15.2015 6.04883Z" fill="#E6436D"/>
<path d="M11.789 11.8482V6.8417C12.7866 7.55709 13.9842 7.94033 15.2118 7.9371V6.03181C14.487 5.87885 13.8315 5.49439 13.3443 4.9364C12.9554 4.6845 12.6219 4.35607 12.3641 3.97112C12.1062 3.58616 11.9294 3.15274 11.8445 2.69727H10.0409V12.5581C10.0233 12.9873 9.87251 13.4004 9.60942 13.74C9.34633 14.0795 8.98401 14.3287 8.5728 14.4529C8.16158 14.5771 7.7219 14.5701 7.31484 14.4329C6.90778 14.2957 6.55355 14.0352 6.30137 13.6874C5.89345 13.4725 5.56906 13.1275 5.37976 12.7071C5.19046 12.2867 5.14711 11.8151 5.2566 11.3672C5.36609 10.9193 5.62215 10.5209 5.98406 10.2353C6.34597 9.94965 6.79297 9.79317 7.25402 9.79074C7.46124 9.79243 7.66709 9.82443 7.86505 9.88572V7.97987C6.98886 7.99477 6.13593 8.26427 5.41025 8.75551C4.68457 9.24676 4.11748 9.93852 3.77814 10.7465C3.43879 11.5544 3.34184 12.4436 3.4991 13.3057C3.65636 14.1678 4.06105 14.9655 4.66382 15.6016C5.42936 16.1181 6.33571 16.3856 7.25902 16.3676C8.45861 16.3676 9.60922 15.8918 10.4584 15.0446C11.3077 14.1973 11.7862 13.0478 11.789 11.8482Z" fill="white"/>
</g>
</svg>
