<?xml version="1.0" encoding="utf-8"?>
<!-- Generator: Adobe Illustrator 24.1.2, SVG Export Plug-In . SVG Version: 6.00 Build 0)  -->
<svg version="1.1" id="Layer_1" xmlns="http://www.w3.org/2000/svg" xmlns:xlink="http://www.w3.org/1999/xlink" x="0px" y="0px"
	 viewBox="0 0 150 80" style="enable-background:new 0 0 150 80;" xml:space="preserve">
<style type="text/css">
	.st0{fill:#1C3D70;}
	.st1{fill-rule:evenodd;clip-rule:evenodd;fill:#1C3D70;}
	.st2{fill:#30AFDD;}
</style>
<path class="st0" d="M68.41,20.72h5.49l11.59,22.41h-6.22l-2.47-4.99H65.36l-2.47,4.99h-6.07L68.41,20.72z M74.67,33.82l-3.59-7.21
	l-3.59,7.21H74.67z"/>
<path class="st0" d="M87.31,20.72h12.45c3.45,0,6.1,0.76,7.94,2.27c1.56,1.28,2.33,2.99,2.33,5.12v0.06c0,1.81-0.54,3.29-1.62,4.43
	c-1.08,1.14-2.48,2.24-4.22,2.77l6.65,7.74h-7l-5.84-6.91h-0.08H93.3v6.91h-5.99V20.72z M99.37,31.61c1.48,0,2.61-0.29,3.4-0.86
	c0.79-0.58,1.19-1.35,1.19-2.31v-0.06c0-1.07-0.42-1.87-1.24-2.4c-0.83-0.53-1.99-0.8-3.46-0.8H93.3v6.43H99.37z"/>
<polygon class="st0" points="114.05,20.72 120.04,20.72 120.04,30.52 131.1,20.72 138.33,20.72 127.24,30.23 138.84,43.13 
	131.64,43.13 123.2,33.59 120.04,36.28 120.04,43.13 114.05,43.13 "/>
<path class="st0" d="M23.81,22.09H10.61c-1.12,2.83-1.74,5.92-1.74,9.15c0,10.22,6.14,18.99,14.93,22.85V22.09z"/>
<path class="st1" d="M26.48,43.13v11.96c2.32,0.72,4.79,1.1,7.35,1.1c9.47,0,17.72-5.28,21.94-13.06h-7.59V28.14l-8.07,9.94h-0.42
	l-8.07-9.94v14.99H26.48z M26.48,7.39v12.03h5.87l7.55,9.92h0.01l5.43-7.14l2.11-2.78h8.36C51.59,11.6,43.33,6.29,33.83,6.29
	C31.27,6.29,28.8,6.67,26.48,7.39z"/>
<path class="st2" d="M23.81,19.42V8.39c-5.11,2.24-9.33,6.15-11.96,11.04H23.81z"/>
<path class="st2" d="M137.8,49.07h0.24c0.29,0.17,0.44,0.39,0.44,0.64v0.08c-0.34,1.29-1.22,2.76-2.66,4.41
	c-1.12,1.1-2.01,1.71-2.67,1.83c-1.01,0.34-1.8,0.51-2.4,0.51c-1.75,0-2.93-0.84-3.55-2.52c-0.61-1.89-0.98-2.92-1.09-3.1
	c-0.13-0.14-0.27-0.22-0.43-0.23h-0.2c-0.62,0-1.26,0.44-1.93,1.33c-0.4,0.46-1.46,1.91-3.18,4.34c-0.26,0.26-0.47,0.39-0.66,0.39
	h-0.09c-0.37,0-0.6-0.25-0.69-0.73c0.6-2.61,1.2-4.74,1.8-6.42c0.24-0.31,0.48-0.47,0.74-0.47c0.29,0.12,0.47,0.27,0.54,0.46v0.35
	c-0.23,0.66-0.49,1.65-0.79,2.96v0.28c-0.01-0.11-0.08-0.16-0.18-0.16H121c0.17-0.14,0.71-0.82,1.64-2.04
	c0.87-1.04,1.79-1.56,2.76-1.56h0.17c1.1,0,1.84,0.65,2.21,1.94c0.65,2.16,1.14,3.27,1.46,3.34c0.39,0.38,0.92,0.57,1.59,0.57h0.04
	c1.32,0,2.61-0.66,3.9-1.96c1.23-1.45,1.94-2.6,2.12-3.43C137.17,49.33,137.47,49.07,137.8,49.07 M110.18,68.14
	c0,1.88,0.69,3.77,2.08,5.68c0.6,0.69,1.34,1.03,2.21,1.03c1.54,0,2.69-1.25,3.43-3.74c0.49-1.51,0.74-3.22,0.74-5.11
	c0-3.38-1.11-7-3.31-10.86c-0.12-0.24-0.21-0.36-0.25-0.36c-0.15,0.03-0.69,0.95-1.63,2.78c-0.92,1.91-1.66,3.68-2.23,5.31
	C110.52,65.19,110.18,66.94,110.18,68.14z M107.71,52.26v0.08c0,0.84,0.28,1.42,0.84,1.74c0.17,0.11,0.39,0.17,0.66,0.17h0.12
	c0.86,0,1.53-0.77,2.02-2.33c0.12-0.16,0.26-0.72,0.4-1.68c-0.11-1.27-0.32-1.9-0.63-1.9c0-0.06-0.05-0.08-0.16-0.08h-0.25
	c-0.73,0-1.48,0.57-2.25,1.71C107.96,50.85,107.71,51.61,107.71,52.26z M110.92,47.07c1.15,0,1.92,0.51,2.33,1.53
	c0.77,1.46,1.42,2.62,1.95,3.48c0,0,0.05,0.03,0.14,0.08c0.04,0,0.38-0.33,1.04-1.01c1.13-1.04,2.34-1.73,3.63-2.07
	c0.26-0.06,0.53-0.11,0.79-0.14c0.44,0.1,0.66,0.35,0.66,0.72c0,0.35-0.69,0.68-2.07,1c-0.64,0.2-1.54,0.86-2.68,1.97
	c-0.37,0.42-0.56,0.68-0.56,0.78v0.12c0,0.17,0.27,0.68,0.79,1.56c0,0.15,0.58,1.39,1.73,3.71c0.34,0.74,0.59,1.6,0.76,2.56
	c0.4,1.19,0.6,2.46,0.6,3.79c-0.11,2.42-0.25,3.93-0.43,4.52c-0.27,1.39-0.56,2.37-0.86,2.95c-0.43,0.74-1.05,1.62-1.85,2.62
	c-0.83,0.49-1.66,0.73-2.47,0.73c-1.3,0-2.45-0.53-3.45-1.59c-0.33-0.35-0.9-1.41-1.72-3.18c-0.35-0.97-0.52-2.04-0.52-3.19
	c0-0.61,0.17-1.69,0.52-3.25c0.08-0.11,0.17-0.6,0.27-1.45c1.02-2.98,2.13-5.54,3.34-7.67c0.92-1.42,1.38-2.18,1.38-2.29v-0.05
	c-0.08-0.4-0.51-1.12-1.29-2.15h0.19l-0.52,1.39c-0.68,1.42-1.21,2.2-1.58,2.34c-0.51,0.35-1.07,0.53-1.67,0.53h-0.21
	c-1.08,0-1.98-0.58-2.69-1.75c-0.13-0.24-0.2-0.53-0.2-0.89V52.6c0-1.84,0.87-3.49,2.62-4.94
	C109.61,47.27,110.29,47.07,110.92,47.07z M99.19,49.1h0.07c0.44,0.09,0.66,0.32,0.66,0.68v0.29c-0.35,1.07-0.69,1.75-1.01,2.05
	c-0.44,0.78-0.66,1.5-0.66,2.13c0,0.3,0.24,0.45,0.7,0.45c1.28,0,3.07-1.04,5.37-3.11c0.07-0.17,0.29-0.36,0.65-0.55
	c0.53-0.5,1.1-1.11,1.71-1.81h0.43c0.41,0.06,0.62,0.27,0.62,0.64v0.08c0,0.23-0.34,0.69-1.03,1.38c-0.34,0.44-0.8,0.86-1.37,1.25
	c-2.56,2.35-4.72,3.52-6.48,3.52c-1.34,0-2.01-0.63-2.01-1.89c0-0.55,0.19-1.34,0.56-2.4c0.85-1.75,1.29-2.62,1.32-2.62
	C98.73,49.14,98.88,49.11,99.19,49.1z M101.96,44.17c0.36,0,0.57,0.25,0.64,0.74c0,0.56-0.32,0.96-0.97,1.21
	c-0.1,0.07-0.32,0.12-0.68,0.16c-0.61-0.12-0.92-0.42-0.92-0.89c0-0.56,0.5-0.95,1.49-1.17C101.65,44.19,101.79,44.17,101.96,44.17z
	 M88.76,57.31v0.31c0.05,0.31,0.22,0.47,0.49,0.47c0.81,0,1.66-0.46,2.56-1.37c0.35-0.5,0.52-1.17,0.52-2.03
	c-0.15-0.98-0.34-1.47-0.56-1.47c-0.67,0.34-1.48,1.15-2.44,2.45C88.95,56.17,88.76,56.72,88.76,57.31z M89.64,47.65v0.09
	c0,0.45,0.26,0.98,0.78,1.59l-0.02-0.01h-0.15c0.64-0.91,0.96-1.61,0.96-2.12c0-0.29-0.25-0.48-0.76-0.57
	C90.09,46.63,89.82,46.96,89.64,47.65z M90.43,45.22c1.45,0.17,2.17,0.86,2.17,2.06c0,0.82-0.46,1.83-1.38,3.05v-0.15
	c0.53,0.59,0.76,0.89,0.69,0.89v-0.2l0.41,0.2c0.02,0,0.92-0.37,2.68-1.11c0.89-0.31,2.05-0.6,3.44-0.87
	c0.39,0.11,0.58,0.38,0.58,0.81c-0.26,0.46-0.68,0.69-1.27,0.69c-2.01,0.47-3.53,1.06-4.57,1.76l0.62,1.96l0.1,0.57h0.06l-0.08-0.18
	l-0.04,0.09l0.02,0.03c-0.05,0.42-0.04,0.55,0.04,0.38h-0.02c-0.4,1.57-0.93,2.56-1.59,2.97c-0.41,0.47-1.24,0.83-2.49,1.07
	c0,0-0.14,0.06-0.41,0.2V59.4c0.17-0.09,0.14-0.11-0.11-0.08c-0.47-0.06-0.65-0.05-0.53,0.02v-0.05c-0.99-0.43-1.48-1.05-1.48-1.86
	c0-1.49,1.13-3.21,3.39-5.17c0.13-0.12,0.2-0.21,0.2-0.26v-0.04c0-0.08-0.4-0.52-1.19-1.33c-0.89-1.05-1.38-1.91-1.48-2.58
	c0-0.21,0.01-0.32,0.04-0.32c0,0.19-0.01,0.26-0.04,0.2c0-0.58,0.2-1.19,0.6-1.81C89.27,45.52,89.82,45.22,90.43,45.22z"/>
</svg>
