<?xml version="1.0" encoding="UTF-8" standalone="no"?>
<svg
   xmlns:dc="http://purl.org/dc/elements/1.1/"
   xmlns:cc="http://creativecommons.org/ns#"
   xmlns:rdf="http://www.w3.org/1999/02/22-rdf-syntax-ns#"
   xmlns:svg="http://www.w3.org/2000/svg"
   xmlns="http://www.w3.org/2000/svg"
   xmlns:sodipodi="http://sodipodi.sourceforge.net/DTD/sodipodi-0.dtd"
   xmlns:inkscape="http://www.inkscape.org/namespaces/inkscape"
   width="128.75mm"
   height="32.88604mm"
   viewBox="0 0 128.75 32.88604"
   version="1.1"
   id="svg8"
   sodipodi:docname="power-bi.svg"
   inkscape:version="1.0.1 (3bc2e813f5, 2020-09-07)">
  <defs
     id="defs2" />
  <sodipodi:namedview
     id="base"
     pagecolor="#ffffff"
     bordercolor="#666666"
     borderopacity="1.0"
     inkscape:pageopacity="0.0"
     inkscape:pageshadow="2"
     inkscape:zoom="0.98994949"
     inkscape:cx="117.28811"
     inkscape:cy="343.37471"
     inkscape:document-units="mm"
     inkscape:current-layer="g74"
     inkscape:document-rotation="0"
     showgrid="false"
     fit-margin-top="0"
     fit-margin-left="0"
     fit-margin-right="0"
     fit-margin-bottom="0"
     inkscape:window-width="2560"
     inkscape:window-height="1369"
     inkscape:window-x="-8"
     inkscape:window-y="189"
     inkscape:window-maximized="1" />
  <metadata
     id="metadata5">
    <rdf:RDF>
      <cc:Work
         rdf:about="">
        <dc:format>image/svg+xml</dc:format>
        <dc:type
           rdf:resource="http://purl.org/dc/dcmitype/StillImage" />
        <dc:title></dc:title>
      </cc:Work>
    </rdf:RDF>
  </metadata>
  <g
     inkscape:label="Layer 1"
     inkscape:groupmode="layer"
     id="layer1"
     transform="translate(-18.142858,-24.997456)">
    <g
       id="g74"
       transform="matrix(0.26458333,0,0,0.26458333,12.745358,-29.18921)">
      <path
         class="st0"
         d="m 20.4,204.8 h 600 v 233.9 h -600 z m 161.5,124.4 v 27 c 0,5.5 -3.3,7.8 -8.7,6 -2.5,-0.8 -5,-1.6 -7.5,-2.3 -1.6,-0.4 -3,0.2 -3.6,1.8 -0.5,1.6 -0.1,3.2 1.5,3.7 3.9,1.4 7.9,3 12,3.5 7.2,0.9 12.5,-4.8 12.6,-13.1 0.1,-17.7 0.1,-35.3 0,-53 0,-7.8 -3,-11.4 -10.4,-13.6 -22.4,-6.8 -44.8,-13.6 -67.2,-20.4 -3.9,-1.2 -7.8,-2.5 -11.7,-3.6 -9.2,-2.7 -16.4,2.5 -16.5,12.1 -0.1,12 0,23.9 0,35.9 0,0.9 0,1.9 0.4,2.5 0.7,0.9 1.8,1.8 2.8,1.8 0.9,0 2.2,-0.9 2.8,-1.8 0.5,-0.8 0.4,-2 0.4,-3.1 0,-12 0,-24.1 0,-36.2 0,-4.4 3.3,-6.9 7.5,-5.6 27.1,8.2 54.2,16.4 81.2,24.6 3.1,0.9 4.4,2.8 4.4,6 0,9.4 0,18.6 0,27.8 M 521.4,321 c 7.9,-3.5 9.8,-9.5 9.4,-14.4 -0.5,-6.1 -5.4,-10.9 -12.6,-11.6 -6.8,-0.7 -13.8,-0.3 -20.7,-0.6 -2.4,-0.1 -3.1,0.6 -3.1,3.1 0.1,17 0,34.1 0.1,51.1 0,0.9 0.1,1.7 0.1,2.6 0.5,0.1 0.8,0.3 1.1,0.3 6.1,0 12.2,0.1 18.3,0 2.6,-0.1 5.4,-0.6 7.9,-1.4 7,-2.3 11.7,-8.7 11.4,-15.3 -0.1,-7.4 -4.1,-11.9 -11.9,-13.8 m -158.6,1.3 c 2.1,7.8 4,14.9 5.9,21.9 1.9,7.2 1.9,7.1 9.5,7.2 2.1,0 2.8,-0.8 3.3,-2.6 2.6,-9 5.3,-18.1 7.9,-27.1 1,-3.6 2.1,-7.1 3.3,-11.1 -2.5,0 -4.6,0.1 -6.6,-0.1 -2.1,-0.2 -2.9,0.5 -3.4,2.6 -2.2,9.4 -4.6,18.8 -7,28.5 -2.1,-8.4 -4,-16.4 -6,-24.4 -1.7,-7 -1.8,-7 -9,-6.5 -0.7,0.1 -1.8,0.9 -2.1,1.6 -1.3,4.2 -2.5,8.3 -3.7,12.6 -1.5,5.1 -2.9,10.2 -4.4,15.4 -0.7,-1 -1,-1.9 -1.2,-2.8 -2.1,-8.3 -4.2,-16.6 -6.3,-24.8 -0.2,-0.7 -1,-1.9 -1.5,-1.9 -2.9,-0.2 -5.7,-0.1 -8.8,-0.1 0.2,1 0.3,1.7 0.5,2.3 3.1,10.7 6.2,21.4 9.4,32.1 1.9,6.5 2,6.4 8.9,6.4 2.3,0 3.1,-0.7 3.7,-2.9 2.4,-8.6 4.9,-17.1 7.6,-26.3 m -116.7,29.1 c 2.6,0 5,-0.2 7.3,0 2.1,0.2 2.7,-0.5 2.7,-2.6 -0.1,-5.1 0,-10.1 -0.1,-15.2 0,-1.9 0.6,-2.6 2.5,-2.6 3.9,-0.1 7.9,-0.1 11.7,-0.9 8.6,-1.8 14.4,-9.7 14.2,-18.6 -0.3,-9.1 -5.8,-15.5 -15.3,-16.5 -6.6,-0.7 -13.2,-0.3 -19.9,-0.6 -2.5,-0.1 -3.3,0.7 -3.3,3.2 0.1,17 0,34.1 0.1,51.1 -0.1,0.7 0,1.5 0.1,2.7 M 140,341.2 v 29.9 c 0,2.6 0.7,4.8 2.8,6.5 2.4,1.8 5,2.1 7.6,0.8 3.1,-1.4 4.2,-4.1 4.2,-7.3 0,-19.9 0.1,-39.9 -0.1,-59.8 0,-1.8 -0.8,-3.8 -1.8,-5.3 -1.8,-2.5 -5.1,-3.2 -8,-2.2 -2.9,1 -4.7,3.7 -4.7,7.1 0,10.2 0,20.2 0,30.3 m 167.6,11.1 c 13.4,0 21.4,-8.1 21.4,-21.5 0,-13.1 -7.6,-21.2 -19.9,-21.2 -13.8,0 -22.3,8.4 -22.2,21.9 -0.1,12.5 8.1,20.8 20.7,20.8 m 98.5,-18.4 h 2.9 c 7.2,0 14.3,-0.1 21.5,0 2,0 3,-0.6 2.8,-2.7 -0.2,-2 -0.2,-4 -0.5,-6 -0.9,-6.7 -3.9,-12.2 -10.6,-14.5 -7.2,-2.5 -13.9,-1.2 -19.7,3.9 -8.6,7.7 -8.3,23.1 -2.7,30.6 1.8,2.3 4.4,4.5 7,5.6 7.1,2.8 14.4,2.1 21.4,-0.9 0.7,-0.3 1.7,-1.2 1.8,-2 0.2,-2.1 0.1,-4.2 0.1,-6.4 -0.6,0 -0.8,-0.1 -1,0 -0.3,0.1 -0.6,0.3 -0.9,0.5 -3.9,2.5 -8.3,3.2 -12.8,2.7 -5.6,-0.6 -9.5,-4.9 -9.3,-10.8 m -271.8,7.9 c 0,-7.6 0,-15.2 0,-22.8 -0.1,-4.5 -3,-7.7 -7.1,-7.8 -4.3,-0.1 -7.4,2.9 -7.4,7.7 -0.1,15.1 -0.1,30.2 0,45.3 0,1.9 1,4.1 2.2,5.6 2,2.4 4.9,2.6 7.7,1.5 3.1,-1.2 4.6,-3.7 4.6,-7 0.1,-7.5 0,-15.1 0,-22.5 m -20.4,-0.4 c 0,-5 0,-10 0,-14.9 0,-4.4 -3.2,-7.5 -7.4,-7.4 -4.1,0.1 -7,3.1 -7,7.5 v 29.6 c 0,4.3 3.2,7.7 7.2,7.6 4.1,-0.1 7.2,-3.3 7.2,-7.7 0.1,-5 0.1,-9.9 0,-14.7 m 439.6,9.8 v -3.7 c 0,-9.9 0,-19.7 0,-29.6 0,-7.1 0.1,-14.1 0,-21.2 0,-0.8 -0.6,-2.2 -1,-2.2 -3,-0.2 -6,-0.1 -9,-0.1 v 56.8 z m -102.3,0.2 v -3.1 c 0,-6.1 -0.1,-12.2 0,-18.3 0.1,-7.1 4.6,-11.8 10.6,-11.2 1.1,0.1 2.2,0.5 3.6,0.8 0,-2.7 0.1,-5.2 -0.1,-7.7 -0.1,-0.6 -1.1,-1.5 -1.8,-1.6 -3.8,-0.7 -7.1,0.2 -9.7,3.2 -0.9,1 -1.6,2.2 -2.7,3.8 v -6.4 h -9.4 v 40.4 c 0.7,0.1 1.2,0.1 1.7,0.1 2.4,0 4.8,0 7.8,0 M 93.5,341.6 v -8.1 c 0,-4.2 -2.8,-7.3 -6.8,-7.5 -3.7,-0.2 -7.5,2.9 -7.6,6.8 -0.2,5.8 -0.2,11.5 0,17.3 0.1,3.9 3.9,7.1 7.5,6.9 4,-0.3 6.8,-3.3 6.8,-7.5 v -7.9"
         id="path12"
         style="opacity:0" />
      <path
         class="st1"
         d="m 126.8,274.5 c 0,-9.2 0,-18.3 0,-27.5 0,-3.2 -1.4,-5.1 -4.4,-6 -27.1,-8.2 -54.1,-16.5 -81.2,-24.6 -4.2,-1.3 -7.5,1.2 -7.5,5.6 0,12.1 0,24.1 0,36.2 0,1 0.1,2.3 -0.4,3.1 -0.6,0.9 -1.8,1.8 -2.8,1.8 -0.9,0 -2.1,-1 -2.8,-1.8 -0.5,-0.6 -0.5,-1.6 -0.5,-2.5 0,-12 -0.1,-23.9 0,-35.9 0.1,-9.6 7.3,-14.8 16.5,-12.1 3.9,1.1 7.8,2.4 11.7,3.6 22.4,6.8 44.8,13.6 67.2,20.4 7.4,2.2 10.4,5.8 10.4,13.6 0.1,17.7 0.1,35.3 0,53 0,8.2 -5.3,14 -12.5,13.1 -4.1,-0.5 -8.1,-2.2 -12,-3.5 -1.6,-0.5 -2,-2.1 -1.5,-3.7 0.6,-1.7 2,-2.2 3.6,-1.8 2.5,0.7 5,1.4 7.5,2.3 5.3,1.8 8.6,-0.5 8.6,-6 v -27.3 z"
         id="path14" />
      <path
         class="st1"
         d="m 466.4,266.3 c 7.9,2 11.8,6.5 12.1,13.7 0.3,6.5 -4.5,13 -11.4,15.2 -2.5,0.8 -5.3,1.3 -7.9,1.4 -6.1,0.2 -12.2,0.1 -18.3,0 -0.3,0 -0.7,-0.2 -1.1,-0.3 -0.1,-0.9 -0.1,-1.8 -0.1,-2.6 0,-17 0.1,-34.1 -0.1,-51.1 0,-2.5 0.7,-3.1 3.1,-3 6.9,0.3 13.8,0 20.6,0.6 7.2,0.7 12,5.5 12.6,11.6 0.3,5 -1.7,11 -9.5,14.5 m -17,4.8 c 0,5.7 0,10.9 0.1,16.1 0,0.5 1,1.5 1.5,1.5 3.2,0 6.5,0.1 9.6,-0.4 4.4,-0.6 7.1,-4 7.1,-8.3 0,-4.4 -2.3,-7.3 -7,-8 -3.5,-0.6 -7.2,-0.7 -11.3,-0.9 m 0,-15.6 v 0 c 0,2 -0.1,4 0.1,6 0,0.6 0.9,1.6 1.4,1.6 2.9,0 5.8,0.1 8.6,-0.5 5.4,-1.3 7.8,-8.4 4.4,-12.3 -1.9,-2.2 -10.5,-4.2 -13.3,-2.3 -1.3,0.9 -0.8,4.3 -1.1,6.6 -0.1,0.4 -0.1,0.6 -0.1,0.9"
         id="path16" />
      <path
         class="st1"
         d="m 307.8,267.6 c -2.7,9.2 -5.2,17.7 -7.6,26.3 -0.6,2.1 -1.4,2.9 -3.7,2.9 -6.9,0 -7,0.2 -8.9,-6.4 -3.2,-10.7 -6.3,-21.4 -9.4,-32.1 -0.2,-0.6 -0.3,-1.3 -0.5,-2.3 3.1,0 5.9,-0.1 8.8,0.1 0.6,0 1.4,1.2 1.6,1.9 2.2,8.3 4.2,16.5 6.3,24.8 0.2,0.9 0.5,1.8 1.2,2.8 1.5,-5.1 2.9,-10.3 4.4,-15.4 1.2,-4.2 2.3,-8.4 3.7,-12.6 0.2,-0.7 1.3,-1.6 2,-1.6 7.3,-0.5 7.3,-0.5 9.1,6.5 2,8 4,16 6,24.4 2.4,-9.7 4.8,-19 7,-28.4 0.5,-2 1.3,-2.7 3.3,-2.6 2.1,0.2 4.1,0 6.6,0 -1.1,4 -2.2,7.5 -3.3,11.1 -2.7,9 -5.4,18 -7.9,27.1 -0.5,1.8 -1.2,2.7 -3.3,2.6 -7.6,-0.1 -7.6,0 -9.5,-7.2 -1.9,-7 -3.8,-14.1 -5.9,-21.9"
         id="path18" />
      <path
         class="st1"
         d="m 191.1,296.7 c -0.1,-1.2 -0.2,-2 -0.2,-2.7 0,-17 0,-34.1 -0.1,-51.1 0,-2.5 0.8,-3.3 3.3,-3.2 6.6,0.3 13.3,-0.1 19.9,0.6 9.5,1 15.1,7.4 15.3,16.5 0.3,8.9 -5.6,16.8 -14.2,18.6 -3.8,0.8 -7.8,0.8 -11.7,0.9 -1.9,0.1 -2.5,0.7 -2.5,2.6 0.1,5.1 0,10.1 0.1,15.2 0,2.1 -0.6,2.8 -2.7,2.6 -2.3,-0.2 -4.6,0 -7.2,0 m 9.9,-28.4 c 3.9,-0.3 7.5,-0.3 10.9,-1 4.5,-0.9 6.8,-4.7 6.8,-9.8 0,-4.9 -2.1,-8 -6.7,-8.9 -3.1,-0.6 -6.4,-0.4 -9.6,-0.4 -0.4,0 -1.3,0.9 -1.3,1.4 -0.1,6 -0.1,12 -0.1,18.7"
         id="path20" />
      <path
         class="st1"
         d="m 85,286.5 c 0,-10.1 0,-20.1 0,-30.2 0,-3.4 1.8,-6.1 4.7,-7.1 2.9,-1.1 6.3,-0.4 8,2.1 1,1.5 1.8,3.5 1.8,5.3 0.2,19.9 0.1,39.9 0.1,59.7 0,3.2 -1.1,5.9 -4.2,7.3 -2.7,1.2 -5.3,1 -7.6,-0.8 -2.1,-1.6 -2.8,-3.9 -2.8,-6.5 z"
         id="path22" />
      <path
         class="st1"
         d="m 252.5,297.6 c -12.5,0 -20.7,-8.2 -20.7,-20.8 0,-13.5 8.5,-21.8 22.3,-21.9 12.4,0 19.9,8 19.9,21.2 0,13.4 -8,21.5 -21.5,21.5 m 11.9,-21 c -0.1,0 -0.3,-0.1 -0.4,-0.1 -0.1,-1.4 -0.1,-2.8 -0.3,-4.2 -0.5,-4.5 -3.7,-8.4 -7.6,-9.3 -5,-1.1 -9.7,0.5 -12.1,4.6 -3.1,5.5 -3.1,11.4 -0.3,17 1.9,3.8 5.5,5.3 9.6,5.3 4,0 7.4,-1.7 9,-5.6 1.1,-2.4 1.4,-5.1 2.1,-7.7"
         id="path24" />
      <path
         class="st1"
         d="m 351.1,279.2 c -0.2,5.9 3.7,10.3 9.3,10.8 4.5,0.5 8.9,-0.3 12.8,-2.8 0.3,-0.2 0.6,-0.4 0.9,-0.5 0.2,0 0.3,0 1,0 0,2.1 0.2,4.3 -0.1,6.4 -0.1,0.7 -1,1.7 -1.8,2 -7,3.1 -14.2,3.7 -21.4,0.9 -2.7,-1 -5.3,-3.2 -7,-5.6 -5.7,-7.5 -6,-22.9 2.7,-30.6 5.8,-5.2 12.5,-6.4 19.7,-4 6.8,2.3 9.7,7.8 10.6,14.6 0.3,2 0.2,4 0.4,6 0.2,2.1 -0.7,2.7 -2.7,2.7 -7.2,-0.1 -14.3,0 -21.5,0 h -2.9 z m 17.4,-7.1 c 0.5,-5.7 -2.6,-9.6 -7.7,-9.9 -5,-0.3 -9.7,4.5 -9.7,9.9 z"
         id="path26" />
      <path
         class="st1"
         d="m 79.3,287 c 0,7.5 0,15 0,22.5 0,3.2 -1.5,5.7 -4.6,7 -2.8,1.1 -5.7,0.9 -7.7,-1.5 -1.2,-1.5 -2.2,-3.7 -2.2,-5.6 -0.2,-15.1 -0.1,-30.2 0,-45.3 0,-4.7 3.1,-7.8 7.4,-7.7 4.1,0.1 7.1,3.3 7.1,7.8 0,7.6 0,15.3 0,22.8"
         id="path28" />
      <path
         class="st1"
         d="m 58.9,286.7 c 0,4.9 0,9.8 0,14.6 0,4.4 -3.2,7.7 -7.2,7.7 -4,0.1 -7.2,-3.3 -7.2,-7.7 0,-9.8 0,-19.7 0,-29.5 0,-4.4 2.9,-7.4 7,-7.5 4.2,-0.1 7.4,3.1 7.4,7.4 0.1,5 0,10 0,15"
         id="path30" />
      <path
         class="st1"
         d="m 498.5,296.5 h -10.1 v -56.8 c 3,0 6,-0.1 9,0.1 0.4,0 1,1.4 1,2.2 0.1,7.1 0,14.2 0,21.2 v 29.6 3.7 z"
         id="path32" />
      <path
         class="st1"
         d="m 396.2,296.7 c -2.9,0 -5.4,0 -7.8,0 -0.5,0 -1,-0.1 -1.7,-0.1 v -40.4 h 9.4 v 6.4 c 1.2,-1.6 1.9,-2.8 2.8,-3.8 2.5,-3 5.9,-4 9.7,-3.2 0.7,0.1 1.7,1 1.8,1.6 0.2,2.5 0.1,5 0.1,7.7 -1.4,-0.3 -2.5,-0.7 -3.6,-0.8 -6,-0.6 -10.4,4.1 -10.5,11.2 -0.1,6.1 0,12.2 0,18.4 v 3 z"
         id="path34" />
      <path
         class="st1"
         d="m 38.5,286.9 v 7.9 c 0,4.2 -2.8,7.2 -6.8,7.5 -3.6,0.2 -7.4,-2.9 -7.5,-6.9 -0.2,-5.8 -0.2,-11.5 0,-17.3 0.1,-3.9 3.9,-7 7.6,-6.8 4,0.2 6.7,3.3 6.8,7.5 v 8.1 z"
         id="path36" />
      <path
         class="st0"
         d="m 449.4,271 c 4.1,0.3 7.8,0.3 11.4,0.9 4.7,0.7 7,3.6 7,8 0,4.3 -2.7,7.7 -7.1,8.4 -3.2,0.4 -6.4,0.4 -9.6,0.3 -0.5,0 -1.5,-1 -1.5,-1.5 -0.2,-5.1 -0.2,-10.3 -0.2,-16.1"
         id="path38"
         style="opacity:0" />
      <path
         class="st0"
         d="m 449.4,255.5 c 0,-0.3 0,-0.5 0,-0.8 0.3,-2.3 -0.2,-5.8 1.1,-6.6 2.9,-2 11.4,0 13.3,2.3 3.4,3.9 1,11 -4.4,12.3 -2.7,0.6 -5.7,0.5 -8.6,0.5 -0.5,0 -1.3,-1 -1.4,-1.6 -0.1,-2.1 0,-4.1 0,-6.1"
         id="path40"
         style="opacity:0" />
      <path
         class="st0"
         d="m 201,268.3 c 0,-6.7 0,-12.7 0.1,-18.7 0,-0.5 0.9,-1.4 1.3,-1.4 3.2,0 6.5,-0.2 9.6,0.4 4.6,0.9 6.7,4 6.7,8.9 0,5.1 -2.3,8.9 -6.8,9.8 -3.4,0.7 -7,0.7 -10.9,1"
         id="path42"
         style="opacity:0" />
      <path
         class="st0"
         d="m 264.4,276.6 c -0.6,2.6 -0.9,5.3 -2,7.7 -1.6,3.8 -5.1,5.5 -9,5.6 -4.1,0 -7.7,-1.5 -9.6,-5.3 -2.9,-5.6 -2.9,-11.5 0.3,-17 2.4,-4.2 7.1,-5.8 12.1,-4.6 3.9,0.9 7.1,4.8 7.6,9.3 0.2,1.4 0.2,2.8 0.3,4.2 0,0.1 0.2,0.1 0.3,0.1"
         id="path44"
         style="opacity:0" />
      <path
         class="st0"
         d="m 368.5,272.1 h -17.4 c 0,-5.4 4.7,-10.2 9.7,-9.9 5.1,0.3 8.2,4.2 7.7,9.9"
         id="path46"
         style="opacity:0" />
    </g>
  </g>
  <style
     type="text/css"
     id="style10">
	.st0{fill:#F3CF00;}
	.st1{fill:#231815;}
</style>
</svg>
