<?xml version="1.0" encoding="UTF-8"?>
<svg width="1155px" height="350px" viewBox="0 0 1155 350" version="1.1" xmlns="http://www.w3.org/2000/svg" xmlns:xlink="http://www.w3.org/1999/xlink">
    <title>aar-logo</title>
    <g id="Page-1" stroke="none" stroke-width="1" fill="none" fill-rule="evenodd">
        <g id="aar-logo" fill="#000203" fill-rule="nonzero">
            <path d="M148,208.535752 L148,0 L2.02771411,105.768383 C0.709314441,106.721147 0,108.240941 0,109.857168 L0,115.855339 C0,117.876587 1.35309439,119.269088 3.03771619,120.090703 L3.03771619,344.939164 C3.03771619,347.743454 5.30443842,350 8.08387164,350 L148,350 L148,244.555634 C139.950823,244.320336 127.56095,243.317426 118.948948,238.738759 C109.14576,233.527486 102.962388,222.707635 101.177537,214.29091 C99.1652428,204.778699 99.897687,194.421729 99.905397,184.78994 C99.9208168,167.420318 99.8899771,150.054554 99.8899771,132.684932 L99.8899771,101.733601 C99.8899771,91.1760492 107.580642,82.5780286 117.025318,82.5780286 C126.493124,82.5780286 134.187643,91.1760492 134.179933,101.992043 L134.164513,200.176887 C134.511461,203.386197 136.801313,208.616756 148,208.535752" id="Fill-9"></path>
            <path d="M295.964138,105.706486 L185,25 L185,183.601761 C190.620833,183.733054 194.847082,182.524387 197.230625,180.103193 C199.733924,177.550705 199.594851,174.434431 199.625756,174.13323 L199.625756,134.741513 C199.625756,124.168578 207.309494,115.568896 216.754812,115.568896 C226.184677,115.568896 233.852962,124.14927 233.852962,135.116084 L233.852962,140.387106 C233.841373,147.909414 233.814331,155.435583 233.822057,162.950168 C233.822057,170.318014 233.455061,177.651106 232.921951,184.984197 C232.415883,191.819149 230.565451,197.117201 226.690746,202.809132 C223.615705,207.319428 219.621244,211.258213 214.76917,213.830008 C206.046255,218.490905 193.259342,219.560555 185,219.772941 L185,350 L290.053571,350 C292.846604,350 295.110389,347.744852 295.110389,344.933641 L295.110389,119.955622 C296.717446,119.109941 298,117.735228 298,115.792866 L298,109.792011 C298,108.181743 297.266008,106.66029 295.964138,105.706486" id="Fill-11"></path>
            <path d="M1143.70435,270 L1140,270 L1140,266 L1143.8795,266 C1145.27329,266 1146,266.664944 1146,267.981051 C1146,269.341947 1145.22857,270 1143.70435,270 L1143.70435,270 Z M1149,267.349404 C1149,264.456121 1147.41001,263 1144.23003,263 L1137,263 L1137,277 L1139.95284,277 L1139.95284,272.400325 L1143.7796,272.400325 C1145.16554,272.400325 1145.85467,273.082882 1145.85467,274.383532 L1145.85467,277 L1148.81906,277 L1148.81906,273.875406 C1148.81906,272.351029 1148.15688,271.456121 1146.79018,271.126219 C1148.26468,270.716685 1149,269.427411 1149,267.349404 L1149,267.349404 Z M1149.9568,277.77292 C1147.88515,279.941114 1145.45059,281 1142.51701,281 C1139.60612,281 1137.14131,279.941114 1135.06967,277.77292 C1133.0207,275.647391 1132,273.037024 1132,270.003879 C1132,266.959097 1133.0207,264.352609 1135.06967,262.199929 C1137.14131,260.074401 1139.60612,259 1142.51701,259 C1145.45059,259 1147.88515,260.074401 1149.9568,262.223202 C1152.00576,264.383639 1153,266.959097 1153,270.003879 C1153,273.037024 1152.00576,275.647391 1149.9568,277.77292 L1149.9568,277.77292 Z M1151.30024,261.674461 C1148.90225,259.22229 1145.94093,258 1142.51142,258 C1139.05527,258 1136.0711,259.22229 1133.64647,261.674461 C1131.18377,264.111449 1130,267.041907 1130,270.496204 C1130,273.942909 1131.18377,276.884756 1133.64647,279.336927 C1136.0711,281.77771 1139.05527,283 1142.51142,283 C1145.94093,283 1148.90225,281.758731 1151.30024,279.321743 C1153.75914,276.884756 1155,273.942909 1155,270.496204 C1155,267.041907 1153.75914,264.111449 1151.30024,261.674461 L1151.30024,261.674461 Z M1084.25561,293.123277 C1070.24442,292.354489 1067.61635,291.329438 1067.20995,291.138198 C1067.20995,291.080825 1066.21523,289.914257 1066.21523,284.723983 C1066.21523,282.983692 1066.4552,279.92384 1067.98792,279.00206 C1068.76202,278.531607 1071.55651,277.44536 1080.81474,277.44536 C1088.97374,277.44536 1090.69224,278.47806 1090.8548,278.585155 C1090.88577,278.611928 1092.11272,279.514585 1092.51912,284.819603 C1092.49589,284.555691 1092.65071,286.609617 1092.65071,286.609617 C1092.75909,288.395805 1094.26084,289.673294 1096.08771,289.673294 L1111.47293,289.673294 C1113.37722,289.673294 1114.93316,288.177791 1114.95638,286.276858 L1114.95638,283.121385 C1114.95638,273.387231 1112.28187,266.624958 1106.95994,263.014333 C1101.967,259.629371 1093.08421,258 1079.73874,258 C1065.65401,258 1056.36869,259.778539 1051.32544,263.469486 C1045.92222,267.363147 1043.29416,274.603522 1043.29416,285.561617 C1043.29416,296.171654 1045.49647,303.09457 1050.06365,306.689896 C1054.37926,310.093981 1063.02594,312.071411 1077.22292,312.901395 L1085.91605,313.452169 C1091.77211,313.788753 1093.21968,314.787029 1093.43255,315.005044 C1093.46352,315.016518 1094.47759,315.968897 1094.47759,320.386559 C1094.47759,326.647781 1093.08421,327.906145 1092.89456,328.017065 C1092.44171,328.395721 1090.2394,329.55464 1081.5153,329.55464 C1069.33485,329.55464 1067.02029,328.288626 1066.83838,328.154758 C1066.78419,328.131809 1065.33663,327.041737 1065.33663,320.413332 L1065.2747,318.516224 C1065.19342,316.691787 1063.66845,315.211584 1061.79125,315.211584 L1046.49119,315.211584 C1045.55066,315.211584 1044.69528,315.613189 1044.01794,316.274882 C1043.37544,316.925101 1043,317.816283 1043,318.726589 L1043.08128,321.763492 C1043.08128,332.583894 1045.65903,339.717174 1050.91516,343.591711 C1055.8036,347.225286 1064.98441,349 1078.96464,349 C1094.64015,349 1104.25059,347.23676 1109.24353,343.473142 C1114.44934,339.510634 1117,331.658289 1117,319.457128 C1117,309.309894 1114.77059,302.670015 1110.18406,299.112937 C1105.94199,295.800647 1097.67849,293.892065 1084.25561,293.123277 L1084.25561,293.123277 Z M989.260928,298.30235 C988.766258,298.784722 987.007862,300 981.083422,300 L962,300 L962,279 L982.18097,279 C988.024254,279 989.415512,280.155449 989.604877,280.379808 C989.713086,280.491987 991,282.137286 991,289.286859 C991,295.711004 989.759462,297.719017 989.260928,298.30235 L989.260928,298.30235 Z M1010.57642,305.472847 C1012.91969,301.737279 1014,295.624177 1014,286.219105 C1014,275.747841 1011.73057,268.576328 1007.09845,264.264859 C1002.51684,260.04678 994.810881,258 983.599741,258 L942.509067,258 C940.593264,258 939,259.560378 939,261.48653 L939,345.501796 C939,347.420166 940.593264,349 942.509067,349 L958.348446,349 C960.264249,349 961.826425,347.420166 961.826425,345.501796 L961.826425,320.652484 L981.09715,320.652484 C987.61399,320.652484 990.287565,323.415248 990.287565,330.158727 L990.287565,345.501796 C990.287565,347.420166 991.849741,349 993.765544,349 L1009.60492,349 C1011.54404,349 1013.10622,347.420166 1013.10622,345.501796 L1013.10622,326.956256 C1013.10622,318.804156 1009.41839,313.967374 1004.24223,310.803814 C1006.99352,309.406867 1009.17358,307.698623 1010.57642,305.472847 L1010.57642,305.472847 Z M883.674877,326.320267 C883.339901,326.776556 881.101478,329 868.561576,329 C854.922167,329 852.569458,326.799757 852.35665,326.536811 C851.966502,326.076655 850,323.01797 850,307.094245 C850,285.474638 851.670936,281.321632 852.187192,280.571461 C852.254187,280.428387 854.027586,278 868.17931,278 C881.893596,278 883.781281,280.312382 883.860099,280.41292 C884.191133,280.896277 886,284.283645 886,303.231253 C886,321.649102 884.218719,325.566229 883.674877,326.320267 L883.674877,326.320267 Z M868.880594,258 C850.693773,258 839.382927,260.864786 834.327176,266.781775 C829.329271,272.591669 827,285.114114 827,306.119998 C827,323.756221 829.464245,335.012651 834.512283,340.543334 C839.641306,346.249958 850.076747,349 866.339221,349 C884.283089,349 895.485955,346.192586 900.618835,340.432414 C905.566606,334.802286 908,322.348689 908,302.379329 C908,284.027867 905.597458,272.350706 900.676681,266.678505 C895.597791,260.841838 885.197058,258 868.880594,258 L868.880594,258 Z M798.564019,258 L734.474501,258 C732.556207,258 731,259.560378 731,261.48653 L731,275.763405 C731,277.693449 732.556207,279.26161 734.474501,279.26161 L754.832303,279.26161 L754.832303,345.501796 C754.832303,347.420166 756.349989,349 758.275987,349 L773.926649,349 C775.8565,349 777.40115,347.420166 777.40115,345.501796 L777.40115,279.26161 L798.564019,279.26161 C800.478461,279.26161 802,277.693449 802,275.763405 L802,261.48653 C802,259.560378 800.478461,258 798.564019,258 L798.564019,258 Z M714.509432,327.753955 L679.54969,327.753955 L679.54969,261.48653 C679.54969,259.560378 677.962717,258 676.066844,258 L660.482846,258 C658.556083,258 657,259.560378 657,261.48653 L657,345.501796 C657,347.420166 658.556083,349 660.482846,349 L714.509432,349 C716.474807,349 718,347.420166 718,345.501796 L718,331.232703 C718,329.314333 716.474807,327.753955 714.509432,327.753955 L714.509432,327.753955 Z M576,314 C577.764922,308.582375 582.061112,295.292324 585.420656,285 C588.826645,295.292324 593.200244,308.551351 595,314 L576,314 Z M600.863858,260.369751 C600.383932,258.937783 599.074695,258 597.585006,258 L573.988028,258 C572.502179,258 571.169905,258.965022 570.720695,260.369751 L543.180648,344.39669 C542.831263,345.462884 542.988678,346.630249 543.652895,347.556359 C544.294076,348.443556 545.334554,349 546.447981,349 L563.076441,349 C564.573809,349 565.906082,348.011631 566.386008,346.583554 C566.386008,346.583554 569.630304,336.384675 570.747571,332.890362 L601.474323,332.890362 C602.614626,336.353545 605.970265,346.610793 605.970265,346.610793 C606.427154,348.023305 607.759428,349 609.218401,349 L625.535869,349 C626.660815,349 627.697454,348.443556 628.36551,347.52912 C629.002851,346.610793 629.190982,345.45121 628.787845,344.388908 L600.863858,260.369751 Z M512.528036,328.582785 L474.698013,328.582785 L474.698013,311.803857 L510.024178,311.803857 C511.956503,311.803857 513.527246,310.231805 513.527246,308.301762 L513.527246,296.585307 C513.527246,294.666937 511.956503,293.087103 510.024178,293.087103 L474.698013,293.087103 L474.698013,278.405542 L512.17423,278.405542 C514.118219,278.405542 515.685074,276.845164 515.685074,274.91512 L515.685074,261.48653 C515.685074,259.560378 514.118219,258 512.17423,258 L455.47974,258 C453.555191,258 452,259.560378 452,261.48653 L452,345.501796 C452,347.420166 453.555191,349 455.47974,349 L512.528036,349 C514.440921,349 516,347.420166 516,345.501796 L516,332.080989 C516,330.154836 514.440921,328.582785 512.528036,328.582785 L512.528036,328.582785 Z M396.272291,298.30235 C395.893509,298.672543 394.212182,300 388.097561,300 L369,300 L369,279 L389.19139,279 C395.186192,279 396.446222,280.222756 396.57377,280.361111 C396.73224,280.518162 398,282.137286 398,289.286859 C398,295.729701 396.778622,297.719017 396.272291,298.30235 L396.272291,298.30235 Z M417.609692,305.472847 C419.864784,301.764517 421,295.480202 421,286.219105 C421,275.747841 418.752578,268.576328 414.15035,264.264859 C409.655507,260.04678 402.065665,258 390.970459,258 L350.42866,258 C348.530241,258 347,259.560378 347,261.48653 L347,345.501796 C347,347.420166 348.530241,349 350.42866,349 L366.049391,349 C367.936305,349 369.493392,347.420166 369.493392,345.501796 L369.493392,320.652484 L388.504431,320.652484 C394.951386,320.652484 397.597668,323.415248 397.597668,330.158727 L397.597668,345.501796 C397.597668,347.420166 399.131744,349 401.033998,349 L416.650894,349 C418.568489,349 420.094895,347.420166 420.094895,345.501796 L420.094895,326.956256 C420.094895,318.804156 416.474475,313.967374 411.33532,310.803814 C414.06214,309.410759 416.244364,307.714188 417.609692,305.472847 L417.609692,305.472847 Z M1016,176 C1017.74308,170.572193 1022.05248,157.301203 1025.40724,147 C1028.80838,157.289572 1033.20281,170.556684 1035,176 L1016,176 Z M1048.22791,211 L1064.54423,211 C1065.63454,211 1066.69798,210.472761 1067.33911,209.560677 C1067.98025,208.660139 1068.16453,207.505602 1067.84972,206.454973 L1039.8394,123.347558 C1039.35567,121.950569 1038.03117,121 1036.56462,121 L1013.00002,121 C1011.51428,121 1010.20513,121.950569 1009.73292,123.359104 L982.16794,206.466518 C981.826257,207.505602 982.014374,208.671684 982.65551,209.57992 C983.315841,210.472761 984.356246,211 985.44656,211 L1002.0892,211 C1003.54807,211 1004.88025,210.049431 1005.33327,208.613957 C1005.33327,208.613957 1008.61189,198.531001 1009.73292,195.075088 L1040.45366,195.075088 C1041.59389,198.500214 1044.95313,208.644745 1044.95313,208.644745 C1045.42534,210.049431 1046.73832,211 1048.22791,211 L1048.22791,211 Z M947,207.540238 L947,124.467459 C947,122.547079 945.419894,121 943.52762,121 L927.784364,121 C925.857405,121 924.30813,122.547079 924.30813,124.467459 L924.30813,172.315317 C924.30813,172.315317 924.358231,175.382537 924.358231,178.349696 C923.853368,177.322159 917.868233,165.022492 917.868233,165.022492 L896.301707,122.881895 C895.68508,121.731207 894.486511,121 893.203157,121 L866.476234,121 C864.576253,121 863,122.547079 863,124.467459 L863,207.540238 C863,209.460617 864.576253,211 866.476234,211 L882.273445,211 C884.192696,211 885.741971,209.460617 885.741971,207.540238 L885.741971,159.880954 C885.741971,159.880954 885.695724,156.971521 885.645623,154.077482 C887.2951,157.618062 890.050651,163.548533 890.050651,163.548533 L913.779226,209.148892 C914.365021,210.291884 915.54432,211 916.823821,211 L943.52762,211 C945.419894,211 947,209.460617 947,207.540238 L947,207.540238 Z M800.713645,188.293199 C800.533647,188.58708 798.488565,191 786.057227,191 C772.806325,191 770.523799,188.78429 770.336142,188.532944 C769.91487,188.080522 768,185.014103 768,169.074911 C768,146.902343 769.777,143.07802 770.121676,142.544393 C770.179122,142.439988 771.929314,140 785.708721,140 C799.043878,140 800.851515,142.304648 800.901302,142.405186 C801.245979,142.896277 803,146.295246 803,165.208052 C803,183.67617 801.245979,187.539161 800.713645,188.293199 L800.713645,188.293199 Z M786.889772,120 C768.712865,120 757.398077,122.903513 752.32088,128.861321 C747.324639,134.749538 745,147.388132 745,168.663809 C745,186.444444 747.459569,197.845856 752.505925,203.467305 C757.664081,209.189276 768.0999,212 784.326115,212 C802.287135,212 813.486269,209.173811 818.598163,203.359052 C823.625244,197.590688 826,185.358043 826,164.871071 C826,146.324929 823.594403,134.536897 818.598163,128.776265 C813.540241,122.868717 803.169959,120 786.889772,120 L786.889772,120 Z M708.547662,211 C710.447218,211 712,209.460617 712,207.540238 L712,194.278457 C712,192.37732 710.447218,190.83024 708.547662,190.83024 L669.1964,190.83024 C676.085665,182.348243 710.66299,139.865133 710.66299,139.865133 C711.16774,139.253228 711.464425,138.483537 711.464425,137.686907 L711.464425,124.467459 C711.464425,122.547079 709.884672,121 707.988969,121 L644.482899,121 C642.583342,121 641.007442,122.547079 641.007442,124.467459 L641.007442,137.733088 C641.007442,139.641923 642.583342,141.181305 644.482899,141.181305 L680.894278,141.181305 C674.028133,149.674848 639.801436,191.919353 639.801436,191.919353 C639.292832,192.542803 639,193.293252 639,194.086034 L639,207.540238 C639,209.460617 640.583606,211 642.475457,211 L708.547662,211 Z M585.487027,211 L599.493514,211 C601.435508,211 603,209.460617 603,207.540238 L603,124.467459 C603,122.547079 601.435508,121 599.493514,121 L585.487027,121 C583.568384,121 582,122.547079 582,124.467459 L582,207.540238 C582,209.460617 583.568384,211 585.487027,211 L585.487027,211 Z M519.264098,161.218227 C518.892948,161.617658 517.17251,163 511.091055,163 L492,163 L492,141 L512.181309,141 C518.166111,141 519.445807,142.304023 519.584989,142.448914 C519.739635,142.629049 521,144.305091 521,151.804201 C521,158.727661 519.666178,160.760057 519.264098,161.218227 L519.264098,161.218227 Z M534.218744,173.238946 C536.963405,171.845805 539.202675,170.140939 540.551679,167.981955 C542.895915,164.283588 544,158.052938 544,148.912854 C544,138.568203 541.733516,131.47165 537.103359,127.230651 C532.488752,123.04353 524.814586,121 513.59491,121 L472.479422,121 C470.535611,121 469,122.547079 469,124.467459 L469,207.540238 C469,209.460617 470.535611,211 472.479422,211 L488.333143,211 C490.269179,211 491.812565,209.460617 491.812565,207.540238 L491.812565,182.987086 L511.06018,182.987086 C517.606936,182.987086 520.277732,185.700248 520.277732,192.37732 L520.277732,207.540238 C520.277732,209.460617 521.813342,211 523.753266,211 L539.583662,211 C541.523585,211 543.086409,209.460617 543.086409,207.540238 L543.086409,189.221586 C543.086409,181.135979 539.424269,176.348499 534.218744,173.238946 L534.218744,173.238946 Z M382,176 C383.782096,170.571467 388.069176,157.298703 391.436216,147 C394.818718,157.28707 399.202442,170.555957 401,176 L382,176 Z M433.803561,206.454973 L405.85575,123.347558 C405.394946,121.950569 404.066292,121 402.595556,121 L379.013871,121 C377.512416,121 376.199122,121.950569 375.726797,123.359104 L348.170671,206.466518 C347.825067,207.505602 348.013229,208.671684 348.654516,209.57992 C349.303483,210.472761 350.340293,211 351.434705,211 L368.065918,211 C369.575053,211 370.880667,210.049431 371.364512,208.613957 C371.364512,208.613957 374.613186,198.531001 375.734477,195.075088 L406.454797,195.075088 C407.606808,198.500214 410.959163,208.644745 410.959163,208.644745 C411.419968,210.049431 412.744782,211 414.234717,211 L430.543367,211 C431.664658,211 432.705309,210.472761 433.338916,209.560677 C434.003243,208.660139 434.183725,207.505602 433.803561,206.454973 L433.803561,206.454973 Z" id="Fill-13"></path>
        </g>
    </g>
</svg>