<?xml version="1.0" encoding="UTF-8"?>
<svg width="109px" height="50px" viewBox="0 0 109 50" version="1.1" xmlns="http://www.w3.org/2000/svg" xmlns:xlink="http://www.w3.org/1999/xlink">
    <title>asu-seeklogo.com</title>
    <g id="Page-1" stroke="none" stroke-width="1" fill="none" fill-rule="evenodd">
        <g id="asu-seeklogo.com" fill="#000000" fill-rule="nonzero">
            <g id="Shape-2">
                <path d="M64.5791677,0.00376468412 L64.5805194,0.0173175469 L78.9431598,0.0173175469 L78.9458631,34.6772584 C78.9458631,37.1235501 80.269805,38.5481066 82.5574738,38.6286708 C84.1544492,38.6843881 87.0348168,37.8486283 87.2179655,34.5726001 L87.2179655,34.5726001 L87.2179655,0.00376468412 L101.963123,0.00376468412 L101.963123,43.2306207 C101.963123,43.2306207 101.877293,45.1430802 103.393845,46.9508815 C104.615062,48.4078143 105.349008,49.317362 105.349008,49.3181149 C105.54297,49.6102544 105.408481,49.7307243 105.041508,49.7307243 L105.041508,49.7307243 L91.267511,49.7307243 C89.8408437,49.7307243 88.8392705,48.8332236 88.3465938,47.6194894 L88.3465938,47.6194894 L87.7775489,45.6068893 C86.5407885,48.0275812 83.6617725,49.55529 80.7286904,49.8361354 C72.3112856,50.6432837 67.5392828,48.4447082 65.3205481,43.7689705 C62.3462407,48.899482 56.3327467,49.7375007 48.9392173,49.7375007 L48.9392173,49.7375007 L30.9176584,49.7375007 L28.8597702,40.5607067 L15.6554944,40.5607067 L13.6820843,49.7359948 L-1.96463429e-14,49.7359948 L9.39599992,7.9743539 C9.39599992,7.9743539 10.084666,4.99799464 8.33089916,2.77306632 C7.0684574,1.17006382 6.37370893,0.426915179 6.37370893,0.426915179 C6.18042288,0.135528628 6.31356048,0.00677643141 6.68256112,0.00677643141 L6.68256112,0.00677643141 L11.2214042,0.00677643141 L30.4371466,0.00527055777 L32.3652763,0.00527055777 C33.5898718,0.00527055777 34.8306872,0.916324115 35.1949571,2.18050504 L35.1949571,2.18050504 L36.6790695,8.61811489 C39.1789475,1.35603922 46.6001858,0.0173175469 54.4580072,0.0173175469 C58.5825693,0.0173175469 61.2196399,0.00376468412 64.5791677,0.00376468412 L64.5791677,0.00376468412 Z M28.0996092,20.6543999 C28.0867531,20.7247782 28.1009739,20.7979339 28.1388172,20.8560966 C28.1820728,20.9228116 28.2471319,20.967946 28.3199851,20.9817808 L37.3270041,23.5564244 C37.3547201,23.5624452 37.38852,23.5737342 37.401364,23.59857 C37.4108838,23.6148244 37.4151732,23.6341915 37.413532,23.6535098 C37.410152,23.7069444 37.3655361,23.7378009 37.3141601,23.7332853 L27.9880693,24.7063968 C27.8447573,24.7146754 27.7183454,24.8396069 27.7183454,24.9908795 C27.7188687,25.0619972 27.7452005,25.1298573 27.7913534,25.1790294 C27.8407013,25.236227 27.9143853,25.2693414 27.9873933,25.2731044 L37.3026681,26.2469684 C37.3513401,26.2492262 37.393252,26.2763198 37.397984,26.322981 C37.4006569,26.3489179 37.3938343,26.3749603 37.379056,26.3952306 C37.3648601,26.4132929 37.3479601,26.4200663 37.3256521,26.4253345 L28.2983531,29.0044938 C28.2324697,29.0192101 28.1747058,29.0628969 28.1381412,29.1256623 C28.1001318,29.1837482 28.0854466,29.2567748 28.0975812,29.3273591 C28.1239452,29.4726108 28.2733411,29.5674384 28.412597,29.5561494 L37.7481518,28.9028928 C37.7988518,28.893109 37.8461718,28.9164396 37.8590158,28.9631008 C37.8647784,28.9880249 37.8616279,29.0144661 37.8502278,29.0368556 C37.8394311,29.0571502 37.8219826,29.0719892 37.8015558,29.0782486 L29.3853605,33.1693806 C29.3176512,33.2004922 29.2622339,33.2576485 29.2292046,33.330437 C29.2020967,33.3945339 29.2008669,33.4684685 29.2258246,33.5336389 C29.2765245,33.6713646 29.4374124,33.738346 29.5780204,33.7052316 L38.6472313,31.4414117 C38.7276753,31.4233493 38.7587713,31.4474325 38.7790513,31.4940936 C38.7877155,31.5119807 38.7887081,31.5332536 38.7817553,31.5520438 C38.7732081,31.5780351 38.7549603,31.5986251 38.7317313,31.6084888 L31.1706755,37.085157 C31.1062832,37.1238891 31.0585494,37.1897752 31.0381796,37.2680387 C31.0210162,37.3393211 31.0318268,37.4153638 31.0679235,37.4772614 C31.1416075,37.6044508 31.3214234,37.6518645 31.4437793,37.5818728 L39.9742186,33.7857598 C40.0141026,33.7579136 40.0735906,33.7676974 40.1013065,33.8083378 C40.1179694,33.8313419 40.12465,33.8613678 40.1195585,33.8903712 C40.1177058,33.9094234 40.1082787,33.9265474 40.0938705,33.9370323 L33.5995421,40.6381802 C33.5474877,40.6929273 33.5134469,40.7655432 33.5028742,40.8443926 C33.4967902,40.9196525 33.5211262,40.9851287 33.5670942,41.0415737 C33.6617341,41.1522058 33.847634,41.1695156 33.9557939,41.0784511 L41.6959897,35.8614298 C41.7335868,35.8265656 41.7881844,35.8265656 41.8257816,35.8614298 C41.8676936,35.904328 41.8616096,35.9284112 41.8602576,35.938195 C41.8589056,35.964536 41.8386256,35.9953926 41.8386256,35.9953926 L36.5962485,43.7449119 C36.5579301,43.7962566 36.5407587,43.8631667 36.5489285,43.9292988 C36.5565123,44.0058644 36.593491,44.0750281 36.6503284,44.1189539 C36.7605164,44.2130289 36.9389803,44.1896983 37.0336202,44.0888499 L43.7490005,37.6119768 C43.7780685,37.5713364 43.8436405,37.5555318 43.8814964,37.5848832 C43.9139444,37.609719 43.9288164,37.6383178 43.9308444,37.6639061 C43.930249,37.685444 43.92466,37.7064443 43.9146204,37.7248667 L40.1148265,46.2284909 C40.0830374,46.2919182 40.0738663,46.3663462 40.0891385,46.4369611 C40.1082116,46.5141692 40.1555567,46.578896 40.2196065,46.6153272 C40.3453424,46.6883294 40.5224543,46.6394104 40.5947863,46.5152314 C40.5947863,46.5152314 46.1183792,38.9215003 46.1312232,38.9275211 C47.2385106,39.4949813 48.324166,39.8577343 49.1914735,39.9503041 C51.807592,40.2310238 54.2533587,39.5770146 55.574262,38.2419027 C56.2597256,37.5472532 56.6078654,36.7163831 56.6078654,35.7711179 C56.6085414,32.2068056 53.0189834,30.8340637 48.8642897,29.2453257 C44.584536,27.6099265 39.7328867,25.7540156 37.414208,21.0811239 L37.401364,21.0540303 L28.413273,20.4241044 C28.2713131,20.4067946 28.1252972,20.507643 28.0996092,20.6543999 Z M66.7607038,40.659253 L66.7316358,40.7616066 C66.6106064,41.1874415 66.471418,41.6066133 66.314544,42.0176955 L66.298996,42.0560781 L68.4209588,44.1106753 C68.5291312,44.2122181 68.6855061,44.218735 68.8001946,44.1264799 C68.8560989,44.0793684 68.8918593,44.0084694 68.8988906,43.930804 C68.9031922,43.8591966 68.8828946,43.7884445 68.8421066,43.7328703 L66.7607038,40.659253 Z M67.4603634,36.1143033 L67.4522514,36.2317089 C67.413481,36.8884404 67.3496541,37.5430404 67.2609435,38.1937363 L67.2555355,38.2291085 L71.5082491,41.0965135 C71.6164091,41.1868254 71.788113,41.161237 71.8820769,41.0498523 C71.9291647,40.9948899 71.9527973,40.9200698 71.9469729,40.8443926 C71.9407483,40.7727031 71.9100117,40.7064197 71.8611209,40.659253 L67.4603634,36.1143033 Z M67.3582874,32.0796162 L67.3738354,32.20229 C67.4637434,32.8766193 67.5083593,33.5818053 67.5083593,34.3035484 L67.5043033,34.6903847 L74.0202637,37.5976774 C74.1446477,37.6608957 74.3109436,37.613482 74.3846275,37.4877978 C74.4199805,37.4258507 74.4305161,37.3502916 74.4136955,37.2793277 C74.3946071,37.206229 74.351697,37.1436956 74.2933676,37.103972 L67.3582874,32.0796162 Z M64.8692568,3.48007431 L59.2354759,11.1904584 C57.6772968,10.3452889 55.0726702,9.84556274 53.8633069,9.84556274 C53.8416749,9.84556274 53.8044949,9.84481014 53.756499,9.84255234 C51.2803123,9.77481836 49.4382134,10.3181954 48.4289459,11.4147332 C47.8455582,12.0476695 47.5494704,12.866498 47.5494704,13.8456302 C47.5494704,15.1927837 48.232906,16.2960949 49.6971212,17.3181253 C51.0072085,18.232534 52.8256475,18.9956701 54.7529224,19.8069726 C57.265613,20.86287 60.1149514,22.0610088 62.4478261,23.8521961 C65.1254607,25.9060407 66.7005398,28.4182186 67.2710835,31.534734 L67.2764915,31.5701062 L75.9049507,33.7210362 C76.0373886,33.7602292 76.1755873,33.6852233 76.2294305,33.5449279 C76.2547117,33.4780797 76.2527391,33.402316 76.2240225,33.3372104 C76.1913077,33.2702252 76.1383991,33.2182513 76.0746266,33.1904534 L67.6604593,29.0940531 C67.6405188,29.0879177 67.6235314,29.0733282 67.6131393,29.0534128 C67.6004391,29.0301631 67.5970099,29.0020752 67.6036753,28.975895 C67.6171953,28.9292338 67.6658673,28.9021402 67.7145392,28.915687 L77.052798,29.5742118 C77.198138,29.5877586 77.3326619,29.489168 77.3590259,29.3416585 C77.3713535,29.2711787 77.356915,29.198162 77.3191419,29.1399617 C77.2772098,29.0754954 77.2148871,29.0311215 77.144734,29.0157828 L68.141771,26.4418917 C68.1177291,26.4400221 68.0953476,26.4275633 68.079579,26.4072721 C68.0662382,26.3903629 68.0600808,26.3678784 68.062679,26.345559 C68.0693337,26.293115 68.1120184,26.2558953 68.159347,26.2612678 L77.4712418,25.2881564 C77.5462778,25.2828882 77.6179337,25.2505264 77.6666057,25.1963392 C77.7152777,25.142152 77.7402897,25.0751706 77.7402897,25.0059315 C77.7402897,24.9366923 77.7152777,24.8689583 77.6659297,24.8155237 C77.6145658,24.7601932 77.5472797,24.72687 77.4759738,24.7214488 L68.153263,23.7475847 C68.105943,23.7521003 68.067411,23.7174808 68.063355,23.6693144 C68.0614139,23.644036 68.0679123,23.6188483 68.081607,23.59857 C68.0951717,23.5816493 68.1140373,23.5711476 68.134335,23.5692186 L77.141354,20.998338 C77.2137185,20.9831634 77.2780869,20.9376337 77.3211699,20.8711486 C77.3585714,20.8127637 77.3729746,20.7399255 77.3610539,20.6694519 C77.3346899,20.5234475 77.193406,20.4293726 77.0440101,20.4406616 L67.7003432,21.0954233 C67.6530233,21.1082175 67.6077313,21.0818765 67.5948873,21.0344628 C67.5880109,21.0102136 67.590973,20.9838317 67.6029993,20.9622132 C67.6121351,20.9437079 67.6278336,20.9303267 67.6462633,20.9253358 L76.0766546,16.8289355 C76.1443215,16.8031087 76.1993755,16.7472646 76.2287545,16.6746526 C76.256866,16.6093818 76.258831,16.5339091 76.2341625,16.4669351 C76.1841385,16.3284567 76.0191946,16.2667435 75.8819667,16.3028683 L66.7890957,18.5629253 C66.7431278,18.5862559 66.6795838,18.5727091 66.6613318,18.5320687 C66.65166,18.5099243 66.6506807,18.4843034 66.6586278,18.4613243 C66.6686399,18.4398358 66.6835625,18.4216648 66.7018918,18.4086423 L74.2960716,12.911654 C74.3572598,12.8716429 74.4026425,12.8074113 74.4231595,12.7317827 C74.4391677,12.6605905 74.428167,12.5852018 74.3927395,12.5233125 C74.3204076,12.3968758 74.1534357,12.3524724 74.0216157,12.4164434 L65.4485885,16.2291136 C65.4073525,16.2584649 65.3559765,16.2516915 65.3296125,16.2125564 C65.314645,16.1918302 65.3080394,16.1651374 65.3113606,16.1388016 C65.3144314,16.119059 65.3250336,16.1017655 65.3404285,16.0913878 L71.8665289,9.35562032 C71.9163042,9.30592655 71.94864,9.23819329 71.9577889,9.16445999 C71.9628976,9.08911193 71.9393515,9.01483838 71.8928929,8.95975287 C71.798929,8.84836811 71.638041,8.82277972 71.5298811,8.91309168 L63.7254654,14.1624747 C63.6883316,14.1973016 63.6338238,14.1963384 63.5977015,14.1602169 C63.5835055,14.1444123 63.5740415,14.1278551 63.5740415,14.1067823 C63.5740415,14.0857096 63.5821535,14.0593686 63.5963495,14.0420588 L68.8475146,6.28200307 C68.8896234,6.22427778 68.9116954,6.15162673 68.9097066,6.07729594 C68.9046238,5.99935024 68.8687149,5.92794154 68.8116866,5.88237262 C68.6981187,5.78829765 68.5149228,5.80560745 68.4236628,5.91398181 L61.6771866,12.420959 C61.6467666,12.4631046 61.5926866,12.4826722 61.5528026,12.4540734 C61.5304947,12.4390214 61.5156227,12.4224642 61.5115667,12.3968758 C61.5095994,12.3758733 61.5123882,12.3546568 61.5196787,12.3351626 L65.3471885,3.77133041 C65.3802157,3.70862972 65.3892281,3.63378416 65.3722005,3.56361288 C65.3531134,3.48613601 65.3051248,3.42147636 65.2403806,3.38599935 C65.1146447,3.31374978 64.9409128,3.35514276 64.8692568,3.48007431 Z M22.3083192,11.155512 L17.7485255,31.5691351 L26.8931184,31.5691351 L22.3083192,11.155512 Z M29.2292046,16.4503779 C29.2040071,16.5176992 29.2057278,16.5937765 29.2339366,16.6596006 C29.2630045,16.7273346 29.3170845,16.7815217 29.3853605,16.8056049 L37.1918041,20.6092439 L37.1336682,20.4730234 C36.800848,19.6839511 36.545858,18.8570288 36.3731686,18.0067541 L36.3664086,17.9721345 L29.5672044,16.2848059 C29.4299765,16.2449181 29.2792285,16.3126521 29.2292046,16.4503779 Z M31.0733315,12.5090131 C31.0372784,12.5706349 31.0262338,12.6463244 31.0429116,12.7174833 C31.0617383,12.7926833 31.1070909,12.856205 31.1686475,12.8935916 L36.1433287,16.4977917 L36.1318367,16.3818913 C36.0716353,15.7414412 36.0450009,15.0976302 36.0520688,14.4537308 L31.4410753,12.3998862 C31.3139874,12.338173 31.1456635,12.3810712 31.0733315,12.5090131 Z M33.5752062,8.94319567 C33.528527,8.99813146 33.5049454,9.07251715 33.5103102,9.1479028 C33.5170702,9.22165757 33.5542502,9.29089674 33.6029221,9.34132092 L36.1940287,12.0160603 L36.2061967,11.9099438 C36.2596007,11.4711781 36.3299046,11.0331651 36.4150806,10.6026781 L36.4225166,10.5642955 L33.9557939,8.90406049 C33.8364884,8.8156724 33.6779518,8.83197445 33.5752062,8.94319567 Z M105.962658,0 L106.814198,2.51556193 L107.652221,0 L108.294931,0 L108.294931,3.02831191 L107.905655,3.02831191 L107.905655,0.407338822 L107.897546,0.407338822 L106.998698,3.02831191 L106.616181,3.02831191 L105.717333,0.407338822 L105.709223,0.407338822 L105.709223,3.02831191 L105.319948,3.02831191 L105.319948,0 L105.962658,0 Z M104.927969,0 L104.927969,0.38173897 L104.083187,0.38173897 L104.083187,3.02831191 L103.693236,3.02831191 L103.693236,0.38173897 L102.848454,0.38173897 L102.848454,0 L104.927969,0 Z" id="Combined-Shape"></path>
            </g>
        </g>
    </g>
</svg>