<?xml version="1.0" encoding="UTF-8"?>
<svg width="114px" height="91px" viewBox="0 0 114 91" version="1.1" xmlns="http://www.w3.org/2000/svg" xmlns:xlink="http://www.w3.org/1999/xlink">
    <title>gannett</title>
    <g id="Page-1" stroke="none" stroke-width="1" fill="none" fill-rule="evenodd">
        <g id="gannett" fill="#000000" fill-rule="nonzero">
            <g id="Group-44" transform="translate(0.000000, 67.241379)">
                <path d="M113.793103,0.660040113 L113.793103,5.46994569 L108.97878,5.46994569 L108.97878,22.7586207 L104.164456,22.7586207 L104.164456,5.46994569 L99.7877984,5.46994569 L99.7877984,22.7586207 L94.9734748,22.7586207 L94.9734748,5.46994569 L84.0318302,5.46994569 L84.0318302,9.18950875 L91.2533156,9.18950875 L91.2533156,14.0067076 L84.0318302,14.0067076 L84.0318302,17.9450685 L91.2533156,17.9450685 L91.2533156,22.7586207 L79.2175066,22.7586207 L79.2175066,0.660040113 L113.793103,0.660040113 Z M34.5755968,0.660040113 L41.7970822,21.0082381 L41.7970822,0.660040113 L46.3925729,0.660040113 L57.1153846,14.0067076 L57.1153846,0.660040113 L61.7108753,0.660040113 L72.433687,14.0067076 L72.433687,0.660040113 L77.2480106,0.660040113 L77.2480106,22.7586207 L73.5278515,22.7586207 L61.9297082,8.7519131 L61.9297082,22.7586207 L57.9907162,22.7586207 L46.6114058,8.5367619 L46.6114058,22.7586207 L37.2015915,22.7586207 L35.8885942,18.5978153 L27.1352785,18.5978153 L25.8222812,22.7586207 L20.5702918,22.7586207 L28.6671088,0.660040113 L34.5755968,0.660040113 Z M11.5981432,0 C16.4188983,0.0701705127 20.6910786,3.12123893 22.3209549,7.65792396 L16.6312997,7.65792396 C15.4570042,6.04339932 13.5943753,5.07174864 11.5981432,5.03235003 C7.9801061,5.06881634 5.12433687,7.92412799 5.0331565,11.377487 C5.12433687,14.9767113 7.98375332,17.8320229 11.5981432,17.9414219 C14.1511936,17.8320229 16.1462202,16.0634072 17.0689655,13.7842631 L9.84748011,13.7842631 L9.84748011,9.18950875 L22.7586207,9.18950875 C22.8425066,9.95530115 22.9154509,10.6955671 22.9774536,11.377487 C22.9190981,17.7554437 17.8093501,22.8607263 11.5981432,22.7549741 C5.2045756,22.8607263 0.0948275862,17.7517971 0,11.377487 C0.0948275862,5.14904221 5.2045756,0.040112935 11.5981432,0 Z M31.5517241,6.72413793 L29.137931,13.7931034 L33.9655172,13.7931034 L31.5517241,6.72413793 Z" id="Combined-Shape"></path>
            </g>
            <path d="M50.5795179,63.0281368 C53.9410178,64.2711479 57.4873206,64.9377572 61.0696575,65 C67.5771639,64.9339011 73.9080236,62.8692693 79.2088571,59.0844103 C77.3731712,58.0222158 75.4757269,57.0711002 73.5266982,56.2361634 C70.5508496,59.686924 67.8991754,61.5455877 67.6259947,61.7135613 C66.4968477,62.7725249 65.6773056,61.9509152 66.5332718,61.0562735 C68.6177973,59.4400651 70.5228139,57.6036973 72.2154307,55.5788756 C70.7440636,54.851093 69.2074304,54.2642321 67.6259947,53.8261083 C65.9349994,55.6589991 64.0267855,57.277715 61.9438358,58.6462184 L61.9438358,62.1517531 C61.8527755,63.5941345 60.2136912,63.4553738 60.1954792,62.1517531 L60.1954792,59.5226021 C57.2557564,61.3230062 53.9861439,62.5149557 50.5795179,63.0281368 L50.5795179,63.0281368 Z M82.9241149,31.4819764 C82.7492792,22.5173019 78.6770653,14.6298489 74.8379656,9.79148076 C76.8209516,8.94403836 78.7228553,7.91735277 80.5201246,6.72413793 C87.9902064,12.8051152 92.4563332,21.8398565 92.7586207,31.4819764 L82.9241149,31.4819764 Z M45.7715373,49.8860334 C52.5792008,49.5062671 57.7368527,44.7810985 60.1954792,38.7121417 L46.427171,38.7121417 L46.427171,33.2347438 L40.7450121,33.2347438 C40.8178603,35.9515331 41.3642217,43.5359034 45.7715373,49.8860334 Z M43.5860916,49.8860334 C40.8360723,45.4091735 38.9055953,38.8107348 38.9966555,33.2347438 L27.4137931,33.2347438 C27.821743,42.02049 34.749606,49.1338041 43.5860916,49.8860334 L43.5860916,49.8860334 Z M60.1954792,26.2236745 L46.427171,26.2236745 L46.427171,31.4819764 L40.7450121,31.4819764 C40.8178603,28.8309159 41.4662092,22.07911 45.7715373,14.8306868 C51.2861454,15.0424795 56.1633318,18.0806096 59.1027563,22.279948 L60.1954792,22.279948 L60.1954792,26.2236745 L60.1954792,26.2236745 Z" id="Shape"></path>
            <path d="M61.9438358,22.3022401 L74.6194211,22.3022401 C73.2353054,18.607834 71.4213855,15.1939695 68.9372621,12.2464601 C70.3578019,11.8201825 71.7127782,11.2335953 73.3081536,10.4976288 C80.3161496,19.5624044 81.2486065,28.2919873 81.1757583,31.4836044 L76.1492331,31.4836044 C76.1601261,29.7252388 76.0138475,27.9694193 75.7121439,26.2371105 L61.9438358,26.2371105 L61.9438358,22.3022401 L61.9438358,22.3022401 Z M43.5860916,14.8697071 C41.0619017,19.1944211 39.0403644,25.9529254 38.9966555,31.4836044 L27.4137931,31.4836044 C27.7862998,22.633338 34.7513046,15.4781476 43.5860916,14.8697071 L43.5860916,14.8697071 Z M80.5201246,57.9310345 C88.0273187,51.893466 92.5024796,42.8607787 92.7586207,33.2287923 L82.9241149,33.2287923 C82.7492792,42.8910853 78.7317015,50.0175728 74.8379656,54.8705797 C76.5353285,55.6757708 78.4220966,56.6959224 80.5201246,57.9310345 L80.5201246,57.9310345 Z M61.9438358,6.12555054 C64.0127244,7.51368538 65.9140622,9.08399016 67.6259947,10.9348366 C69.2166755,10.5263468 70.7562189,9.93969483 72.2154307,9.18600532 C70.5075413,7.18005514 68.6040864,5.34931306 66.5332718,3.7209075 C65.6773056,2.86470884 66.4968477,2.04494416 67.6259947,3.06509576 C67.8991754,3.26912608 70.6382674,5.17462352 73.7452428,8.74879749 C75.4644601,7.86345164 77.5588456,6.82872646 79.2088571,5.90694663 C73.9800539,1.98968599 67.6017951,-0.0857326415 61.0696575,0.00464097835 C57.6564086,-0.0550975218 54.2575882,0.462254711 51.0166071,1.53486837 C54.2320309,2.24125751 57.3251879,3.41992299 60.1954792,5.03253097 L60.1954792,2.62788793 C60.2136912,1.35998524 61.8527755,1.22517949 61.9438358,2.62788793 L61.9438358,6.12555054 L61.9438358,6.12555054 Z" id="Shape"></path>
            <path d="M73.3360254,54.3103448 C80.4053223,45.2757423 81.2757818,36.5150263 81.20294,33.2758621 L76.1768557,33.2758621 C76.0430065,40.3408354 73.4977567,47.1463006 68.9655172,52.5574713 C70.2511751,52.9847342 71.8791893,53.67858 73.3360254,54.3103448 L73.3360254,54.3103448 Z" id="Path"></path>
        </g>
    </g>
</svg>