<?xml version="1.0" encoding="UTF-8"?>
<svg width="1793px" height="286px" viewBox="0 0 1793 286" version="1.1" xmlns="http://www.w3.org/2000/svg" xmlns:xlink="http://www.w3.org/1999/xlink">
    <title>logo-yellowtail</title>
    <g id="Page-1" stroke="none" stroke-width="1" fill="none" fill-rule="evenodd">
        <g id="logo-yellowtail" fill="#000000" fill-rule="nonzero">
            <path d="M0,273.488744 L0,29.5510783 L50.856029,29.5510783 L50.856029,50.6578545 L24.4829871,50.6578545 L24.4829871,252.238709 L50.856029,252.238709 L50.856029,273.488744 L0,273.488744 Z M213.695806,235.206846 C199.500458,274.045861 187.530112,286 160.160205,286 C154.652809,285.897229 149.164464,285.322076 143.755807,284.280896 L145.717636,260.706887 C151.108678,262.752303 155.957426,263.492473 161.62759,263.492473 C173.829209,263.492473 180.623836,257.682538 188.287729,236.504132 L193.104577,223.196995 L147.687439,98.8803117 L176.9793,98.8803117 L196.781012,155.706247 C200.75252,166.729206 203.639439,177.648699 206.342935,188.162293 L206.582182,188.162293 C209.06238,178.189898 214.198225,161.93004 218.608353,149.410825 L235.937842,98.8723529 L264.07334,98.8723529 L213.695806,235.206846 L213.695806,235.206846 Z M356.71792,116.07931 C342.052053,116.07931 331.772388,127.173897 329.587261,143.919243 L381.153058,143.919243 C381.663452,126.871462 372.109505,116.07931 356.71792,116.07931 M406.561135,162.638375 L329.100792,162.638375 C328.3352,191.457242 340.799991,204.446028 365.035756,204.446028 C377.492572,204.446028 390.403959,201.469431 400.420451,196.37579 L402.908624,217.785001 C390.659156,222.966189 375.769991,225.664227 360.848926,225.664227 C322.984032,225.664227 302.169506,205.647809 302.169506,161.914123 C302.169506,124.388312 322.186541,96.3971615 357.714785,96.3971615 C392.389712,96.3971615 407.302802,120.623793 407.302802,150.174871 C407.294827,153.644914 407.127354,157.934715 406.561135,162.646334 M493.886448,223.204953 L467.712779,223.204953 L467.712779,61.3385836 C460.647502,60.1875268 453.531044,59.3747969 446.387857,58.9031863 L446.387857,42.3249757 C460.080785,40.7968833 477.960544,39.8259079 493.886448,40.6058717 L493.886448,223.204953 L493.886448,223.204953 Z M591.666873,223.204953 L565.557003,223.204953 L565.557003,61.3385836 C558.490981,60.1928931 551.37478,59.3801924 544.232082,58.9031863 L544.232082,42.3249757 C557.89311,40.7889244 575.764893,39.8259079 591.666873,40.6058717 L591.666873,223.204953 L591.666873,223.204953 Z M707.287181,118.976318 C691.417102,118.976318 675.985642,131.360234 675.985642,159.884625 C675.985642,187.939446 686.767727,202.742841 707.087809,202.742841 C723.898928,202.742841 738.054401,189.212857 738.054401,160.433783 C738.054401,133.946848 728.125633,118.96836 707.287181,118.96836 M704.647485,225.688104 C670.833848,225.688104 648.862959,206.427772 648.862959,162.654292 C648.862959,125.048894 672.500605,96.4051204 709.472308,96.4051204 C742.009959,96.4051204 764.945812,114.901405 764.945812,158.70672 C764.945812,197.012495 740.574474,225.688104 704.647485,225.688104 M955.187395,223.204953 L926.405929,223.204953 L905.336205,158.181439 C902.640684,149.959983 900.447583,141.404258 898.214607,131.909392 L897.999284,131.909392 C895.626935,142.450894 892.860364,152.900162 889.705373,163.235286 L871.39497,223.196995 L843.722017,223.196995 L806.319668,98.8803117 L834.917711,98.8803117 L851.074888,156.637429 C854.240929,168.416474 857.694067,180.219396 860.142365,191.449283 L860.357688,191.449283 C862.750162,179.152915 865.73278,168.145874 868.922746,157.43331 L886.993902,98.864394 L913.422768,98.864394 L931.812921,156.374788 C936.398497,171.448783 938.87072,180.688966 941.287119,191.449283 L941.526367,191.449283 C943.887237,180.067052 946.750359,168.794359 950.107374,157.664116 L966.990268,98.864394 L994.104977,98.864394 L955.187395,223.204953 L955.187395,223.204953 Z M1169.40157,225.425463 C1143.47512,225.425463 1135.62781,215.198386 1135.62781,187.422123 L1135.62781,119.613024 L1112.40486,119.613024 L1112.40486,98.8882705 L1135.62781,98.8882705 L1135.62781,59.3329623 L1161.54628,52.0904411 L1161.54628,98.8882705 L1193.60544,98.8882705 L1193.60544,119.613024 L1161.80148,119.613024 L1161.80148,179.176791 C1161.80148,197.720829 1165.46994,202.766718 1177.66358,202.766718 C1183.07057,202.766718 1188.95606,201.94696 1193.60544,200.681508 L1193.60544,222.695589 C1186.49979,224.175929 1177.44028,225.425463 1169.40157,225.425463 M1314.07449,166.928176 C1275.9544,166.928176 1267.66847,178.675386 1267.66847,189.411827 C1267.66847,198.644052 1274.0484,204.692751 1284.33604,204.692751 C1302.15199,204.692751 1314.08247,187.207235 1314.08247,169.467038 L1314.08247,166.928176 L1314.07449,166.928176 Z M1315.8529,223.196995 C1315.8529,215.198386 1316.09215,206.968972 1317.10496,200.196021 L1316.78596,199.981133 C1310.91643,214.76861 1295.80396,225.688104 1276.44885,225.688104 C1255.67419,225.688104 1242.49166,213.686211 1242.49166,193.924475 C1242.49166,165.400083 1270.35601,148.965131 1314.06652,148.965131 L1314.06652,140.950605 C1314.06652,125.367246 1307.79026,117.368638 1288.68236,117.368638 C1277.45369,117.368638 1262.75592,120.870516 1252.50018,127.436538 L1250.08378,104.610658 C1263.71189,99.2603052 1278.21667,96.4807073 1292.86122,96.4130792 C1330.0004,96.4130792 1340.30399,112.887825 1340.30399,138.43562 L1340.30399,202.4802 C1346.12567,203.41934 1354.49136,204.453986 1361.55713,204.971309 L1361.55713,221.485849 C1347.87218,222.966189 1330.00837,224.024711 1315.8529,223.204953 L1315.8529,223.196995 Z M1433.66631,80.328315 C1424.47362,80.2541325 1417.0558,72.8051351 1417.03861,63.6307221 C1417.03861,54.3348268 1424.65465,46.813747 1433.66631,46.813747 C1443.02088,46.813747 1450.5173,54.1199388 1450.5173,63.6307221 C1450.5173,72.9027411 1443.02088,80.328315 1433.66631,80.328315 L1433.66631,80.328315 Z M1446.67339,223.204953 L1420.75492,223.204953 L1420.75492,119.605065 C1413.69959,118.500108 1406.60103,117.690254 1399.47785,117.177626 L1399.47785,100.655127 C1413.12293,99.1031585 1430.77939,98.1242243 1446.68934,98.8882705 L1446.68934,223.204953 L1446.67339,223.204953 Z M1544.42192,223.204953 L1518.24027,223.204953 L1518.24027,61.3385836 C1511.21221,60.1891885 1504.133,59.3764578 1497.027,58.9031863 L1497.027,42.3249757 C1510.70398,40.7889244 1528.52791,39.8259079 1544.43787,40.6058717 L1544.43787,223.204953 L1544.42989,223.204953 L1544.42192,223.204953 Z M1650.77538,273.488744 L1650.77538,252.238709 L1677.14842,252.238709 L1677.14842,50.6578545 L1650.77538,50.6578545 L1650.77538,29.5590372 L1701.62343,29.5590372 L1701.62343,273.488744 L1650.77538,273.488744 Z M1758.2533,29.2725198 L1762.00948,29.2725198 C1766.37176,29.2725198 1770.08807,27.6489217 1770.08807,23.4864617 C1770.08807,20.5019062 1767.98269,17.5173508 1762.00948,17.5173508 C1760.34273,17.5173508 1759.15446,17.6526506 1758.26127,17.8118269 L1758.26127,29.2725198 L1758.2533,29.2725198 Z M1758.2533,47.9359399 L1752.96593,47.9359399 L1752.96593,14.1666899 C1755.73323,13.7448727 1758.38887,13.3150967 1762.32848,13.3150967 C1767.32078,13.3150967 1770.57454,14.3815778 1772.57624,15.9017114 C1774.56997,17.3979686 1775.59076,19.6821483 1775.59076,22.9213858 C1775.59076,27.378322 1772.70384,30.0604425 1769.13108,31.1030472 L1769.13108,31.3895645 C1772.04193,31.8750522 1774.07553,34.6526784 1774.69757,39.6348963 C1775.46316,44.8558787 1776.30053,46.813747 1776.77902,47.9200223 L1771.24443,47.9200223 C1770.45492,46.813747 1769.71325,43.7973563 1769.00348,39.3324614 C1768.22992,35.0347015 1766.10859,33.4588563 1761.93771,33.4588563 L1758.26925,33.4588563 L1758.26925,47.9438987 L1758.2533,47.9438987 L1758.2533,47.9359399 Z M1763.75599,4.69570057 C1750.67713,4.69570057 1740.07049,16.1563935 1740.07049,30.3310422 C1740.07049,44.7205788 1750.67713,56.0698483 1763.85169,56.0698483 C1777.0741,56.2210658 1787.59301,44.7205788 1787.59301,30.4822596 C1787.59301,16.1563935 1777.0741,4.69570057 1763.85169,4.69570057 L1763.74801,4.69570057 L1763.75599,4.69570057 Z M1763.85169,0 C1780.06469,0 1793,13.4503965 1793,30.3310422 C1793,47.4504522 1780.06469,60.7894254 1763.76396,60.7894254 C1747.56691,60.7894254 1734.41628,47.4504522 1734.41628,30.3310422 C1734.41628,13.4503965 1747.56691,0 1763.76396,0 L1763.85169,0 Z" id="Shape"></path>
        </g>
    </g>
</svg>