<?xml version="1.0" encoding="UTF-8"?>
<svg width="127px" height="80px" viewBox="0 0 127 80" version="1.1" xmlns="http://www.w3.org/2000/svg" xmlns:xlink="http://www.w3.org/1999/xlink">
    <title>pulte-homes-1</title>
    <g id="Page-1" stroke="none" stroke-width="1" fill="none" fill-rule="evenodd">
        <g id="pulte-homes-1" fill="#000000" fill-rule="nonzero">
            <path d="M77.3277395,0.538720539 C60.7402619,0.538720539 47.2675671,13.8041303 46.8510638,30.3056204 L72.4239347,17.8479708 L88.8718585,25.865099 L88.8603489,21.6311972 L95.1647269,21.6311972 L95.1647269,28.9075185 L107.583575,35.016835 C107.748306,33.7288822 107.838225,32.4142921 107.838225,31.0730646 C107.838225,14.2094502 94.1792183,0.538720539 77.3277395,0.538720539 L77.3277395,0.538720539 Z" id="Path"></path>
            <path d="M55.6667948,8.82146616 C49.853314,14.4977442 46.5392414,22.0888593 46.3341359,30.1971097 L46.3125459,31.0424823 L72.4329078,18.3539933 L89.4055657,26.6037377 L89.394051,22.0709032 L94.6692198,22.0709032 L94.6692198,29.1369824 L108.026984,35.6902357 L108.118382,34.9770199 C108.289663,33.6382141 108.376742,32.2915076 108.376742,30.9771221 C108.376742,13.8958562 94.4525997,0 77.3381672,0 C69.190802,0 61.4932296,3.13297797 55.6667948,8.82146616 L55.6667948,8.82146616 Z M56.3879024,9.55551097 C62.0200268,4.05663905 69.4606776,1.02780639 77.3388868,1.02780639 C93.885501,1.02780639 107.346897,14.4625503 107.346897,30.9771221 C107.346897,32.0113927 107.277809,33.0672106 107.165541,34.1230285 C103.343838,32.2472564 99.5219194,30.3719227 95.6997849,28.4970275 L95.6997849,21.0430968 L88.3613269,21.0430968 L88.3714023,24.9589602 L72.4336275,17.2105497 C72.4336275,17.2105497 48.9357369,28.625593 47.4273121,29.3574831 C47.8324854,21.8475295 50.975277,14.8403463 56.3879024,9.55551097 Z" id="Shape"></path>
            <path d="M75.5860728,23.973064 L80.8512667,26.485086 L80.8512667,36.3121159 L87.7784299,36.3121159 L87.7784299,38.4092954 L80.8512667,38.4092954 L80.8512667,53.6730587 C80.8512667,57.347788 81.1168056,58.9698365 85.1867129,58.9698365 C85.8227038,58.9698365 86.5107895,58.9210315 87.1453332,58.7609798 L87.1453332,60.8595947 C85.9826059,61.0698869 84.7641661,61.2794613 83.5999917,61.2794613 C78.5250886,61.2794613 75.5650902,60.4928395 75.5650902,54.5142272 L75.5650902,38.4092954 L72.5652971,38.4092954 L72.5652971,36.3121159 L75.5650902,36.3121159 L75.5650902,23.973064 L75.5860728,23.973064 L75.5860728,23.973064 Z" id="Path"></path>
            <path d="M92.8606134,43.5847109 C92.8606134,41.5866582 93.9643934,37.4278283 97.9070811,37.4278283 C102.47824,37.4278283 102.583944,42.375079 102.583944,43.5847109 L92.8606134,43.5847109 Z M107.365073,57.5285992 C106.471982,57.897969 104.630431,58.4257429 102.425748,58.4257429 C95.0156809,58.4257429 92.8598944,50.9519455 92.8598944,45.6900465 L107.838225,45.6900465 C107.838225,42.1641134 107.102611,35.6393011 98.1156128,35.6393011 C91.0737123,35.6393011 87.0806894,39.271797 87.0806894,47.5829765 C87.0806894,56.3736887 91.9164681,61.2654979 99.9564445,61.2654979 C103.581301,61.2654979 106.366278,60.2135501 107.365073,59.8456204 L107.365073,57.5285992 L107.365073,57.5285992 Z M69.2699232,23.8396294 L64.0990556,26.359696 L64.0990556,60.7082032 L69.2699232,60.7082032 L69.2699232,23.8396294 Z M49.5780571,37.3241456 L49.5780571,38.3760934 C52.7326387,38.4812161 53.6242915,39.3747597 53.6242915,43.057657 L53.6242915,48.8466099 C53.6242915,53.2149653 51.3117467,57.6891635 47.897579,57.6891635 C45.3750643,57.6891635 43.5881632,56.2656859 43.5881632,51.4768394 L43.5881632,35.6393011 L36.5275667,36.9180549 C36.5275667,36.8669335 36.5311621,36.8201323 36.5311621,36.7690109 C36.5311621,23.671145 27.1328532,20.4713805 18.0883291,20.4713805 L0,20.4713805 L0,21.7429341 C6.42709145,22.7163998 7.47334543,23.8389094 7.47334543,28.40311 L7.47334543,70.8417508 L13.9773779,70.8417508 L13.9773779,52.9939194 L16.1036824,52.9939194 C24.7541534,52.9939194 35.368418,50.1066432 36.4369633,38.6929017 C37.8887755,39.196195 38.3331638,40.3971867 38.3331638,43.057657 L38.3331638,50.5307344 C38.3331638,54.4245972 38.3331638,61.2654979 45.3750643,61.2654979 C50.4718672,61.2654979 52.6276537,57.0569868 53.5193066,54.7435657 L53.6242915,54.7435657 L53.6242915,60.6866026 L58.8814481,60.6866026 L58.8814481,35.6393011 L49.5780571,37.3241456 L49.5780571,37.3241456 Z M15.9533957,50.1606446 L13.9773779,50.1606446 L13.9773779,28.4880722 C13.9773779,24.1477976 13.6005826,23.4745798 19.0101831,23.4745798 C25.6630641,23.4745798 29.2066652,29.4449775 29.2066652,36.8546932 C29.2073843,46.5087082 22.9054118,50.1606446 15.9533957,50.1606446 L15.9533957,50.1606446 Z" id="Shape"></path>
            <path d="M122.550769,53.0993745 C121.413172,52.3374732 120.060024,51.7972551 118.550438,51.5282222 C114.057726,50.7318847 109.824542,52.289406 107.565209,53.8641454 L107.568093,53.8670151 C105.318132,55.3456201 103.607413,58.0452758 103.02708,59.4743787 C105.049233,56.652044 106.547284,55.3341413 108.008569,54.3835583 L108.010011,54.386428 C110.148951,52.8949095 114.15577,51.4213264 118.409861,52.1767709 C121.432637,52.7134019 123.787129,54.41369 124.867053,56.8450303 C126.029881,59.4643348 125.512988,62.4911346 123.449023,65.1484625 C118.784013,71.1518426 109.816612,73.1147069 103.8828,74.4139566 C103.407,74.5187 102.956431,74.6169867 102.52821,74.7124038 C103.835941,73.3514558 104.32616,71.0191197 104.543154,67.8904461 C104.764473,64.7424022 105.956859,63.3900633 106.552331,62.7164049 C106.949552,62.2637121 106.16376,61.1639055 105.352736,61.8978274 C104.360043,62.796756 104.065912,64.5128274 103.657155,65.3084475 C101.570121,68.164501 98.1630993,70.9294421 93.7698728,73.3198893 C90.0088846,75.3666918 88.4106268,75.4348468 87.9658253,75.0546136 C87.7163904,74.7805588 87.7207158,74.4491102 87.9110361,73.763973 C90.0795338,72.7782364 92.2674961,71.4775518 93.6047844,70.3390045 C96.7782309,67.6386313 96.464635,66.3099674 95.9938806,65.7589879 C95.5598927,65.2503363 94.7027306,65.0903514 93.7554546,65.2654022 C92.0980822,65.5337177 90.1465785,66.6916354 88.7768492,68.3438563 C87.5476974,69.8253309 86.4144266,71.9797466 86.619886,73.7187755 C84.4672483,74.5868551 82.5705338,75.0251994 81.9325283,74.6177042 C81.8099736,74.5402227 81.7551844,74.4189785 81.7407662,74.278364 C81.7508589,73.4138715 83.290723,71.9331143 84.510503,70.6804969 C86.7309062,68.4019674 87.293937,67.5633021 87.293937,66.5746958 C87.293937,66.0617396 86.8786928,65.1319619 85.5983564,65.2101608 C85.2141113,65.217335 84.7664261,65.3443185 84.2834163,65.55811 L84.2978345,65.5480661 C83.5163679,65.8917108 82.2771233,66.595501 81.1892699,67.309335 C81.2808255,67.0553679 81.3219174,66.8150318 81.3219174,66.5703912 C81.3219174,66.0574351 80.9275795,65.0996779 79.6537313,65.1721374 C79.2341616,65.1649632 78.717269,65.312752 78.13982,65.5746107 L78.1527964,65.5660016 C78.1293274,65.5781156 78.1057772,65.5900728 78.0821472,65.6018727 C77.8118059,65.726704 77.5284882,65.876645 77.2343569,66.0466738 C76.3352912,66.5366149 75.4501492,67.0514456 74.5799657,67.5905641 C74.6556613,67.409774 74.721985,67.2426148 74.8012851,67.0833474 C75.7629793,65.1046998 74.9166308,64.4676299 74.4026218,64.5049358 C74.1279551,64.5243061 74.024144,64.6570291 73.9376348,64.9016697 C73.5079723,65.7640099 72.3646088,66.6658082 71.2508027,67.3452061 C70.5778106,67.7368316 69.8823878,68.0889687 69.1680933,68.3998151 C68.2965129,68.7800483 67.5049536,68.965143 66.8417162,69.0146451 C66.9217373,68.7865051 66.9938283,68.5554955 67.0515011,68.3266382 C67.8553159,65.0831772 65.1396474,64.6685078 63.0021488,65.2453144 C60.7810246,65.8407739 56.0237386,69.270047 56.1426888,73.4088495 C56.2176634,76.0546987 59.2490906,75.8114929 60.2107847,75.5503516 C62.5796955,74.9075423 65.407105,72.3571101 66.6254432,69.5634722 C67.4746753,69.5383625 68.455834,69.3095051 69.4290627,68.8840744 C70.5270089,68.4048371 71.9565737,67.6730675 73.2643047,66.6686779 C73.0869608,66.9814735 72.8548277,67.3308576 72.5462782,67.7125257 C71.2681045,69.2937219 68.9561457,71.4373762 67.6743674,73.0200073 C66.1864089,74.8580402 66.3406837,75.0280691 66.9044354,75.2978194 C67.7305984,75.6938359 68.0254507,76.0740691 68.5279251,75.3580828 C69.6222667,73.7984092 71.0568778,72.0751636 72.4958145,70.5908193 C72.7027157,70.3784626 72.8843851,70.179737 73.0509153,69.9910552 C75.355665,67.8115298 78.1830746,65.8092074 79.4900847,65.7066162 C79.7308687,65.7030291 79.9968845,65.8544049 79.5066656,66.7232019 C78.6408526,68.2534612 75.4940798,71.143951 73.9376348,73.06377 C72.4496762,74.9025204 72.6464847,75.0273516 73.2080737,75.297102 C74.0356786,75.6931184 74.3305308,76.0733517 74.834447,75.3573654 C75.925905,73.7991266 77.0959421,72.2423228 78.5110887,70.7386081 C78.5716452,70.6769098 78.6235507,70.6195161 78.6797817,70.5592528 C81.3759856,67.9650579 84.1918607,65.8142294 85.5341954,65.7432047 C85.7468639,65.7496615 85.9112314,65.8974502 85.4721971,66.677287 C84.606384,68.2089811 83.0110099,69.556298 81.5425159,70.9954448 C80.0783474,72.4338742 78.4620668,74.4878509 80.1035792,75.6185066 C81.2664073,76.4227357 84.7419151,75.1772926 86.3171038,74.4275876 L86.3098947,74.428305 C86.4504722,74.3759332 86.5932124,74.3206918 86.732348,74.2640155 C86.8376009,74.6026383 87.005573,74.9168688 87.2477988,75.1995327 C87.309797,75.2719922 87.3761208,75.3336905 87.4410027,75.3896493 C87.4438863,75.392519 87.4482118,75.3932364 87.4510954,75.3968235 C87.5606738,75.5395903 87.9413143,75.6644216 87.9413143,75.6644216 C89.0666551,76.0374806 91.0852035,75.4212158 94.0841897,73.7890827 C95.4366904,73.0572941 96.747613,72.2518422 98.0109872,71.3763955 C100.131184,70.0240566 101.974551,68.8022884 102.8209,67.8057904 C102.720693,68.2405476 102.695461,68.4923625 102.543349,69.1566944 C101.875787,72.0730114 101.226967,73.8292583 99.4023438,74.7002076 C97.6267421,75.5503516 95.4034552,74.7231651 96.2144791,73.8766081 C96.1110553,73.8699549 96.0073854,73.8851123 95.9102551,73.9210882 C94.7207533,75.0208948 96.7270463,76.4679333 99.8608427,76.0059141 C100.149207,75.9621514 100.419548,75.9011706 100.67475,75.8251239 L100.680517,75.8401898 C101.624189,75.5862227 102.750251,75.3394298 104.054377,75.0538962 C106.156551,74.5947467 108.630715,74.0516589 111.170481,73.2782789 C119.995863,71.1116671 124.973027,66.7605078 126.175505,62.624575 C127.235243,58.9872498 126.065205,55.3944047 122.550769,53.0993745 L122.550769,53.0993745 Z M88.1568665,73.0429648 C88.8864275,71.2092363 90.1703685,69.5727987 90.7420502,68.9429029 C91.3094065,68.3165943 93.9594722,65.3292527 95.2873887,65.903907 C95.3803861,65.9548439 95.4604071,66.0143899 95.5224054,66.0890017 C95.5565861,66.1294105 95.5854174,66.1740154 95.6081937,66.2217246 C95.8295131,66.873143 94.3256946,68.387619 93.1455647,69.4379235 C91.9488538,70.5025765 90.5423581,71.6475806 89.3708791,72.4396136 C88.9693322,72.6519702 88.5627389,72.854283 88.1554246,73.0472693 L88.1568665,73.0429648 L88.1568665,73.0429648 Z M60.842302,74.401043 C58.5779232,75.8724737 57.344446,75.0316562 57.9665914,73.140534 C58.8944028,70.3217864 61.9222254,67.2462019 64.7143104,65.958431 C64.0690958,66.7856176 63.7821736,68.2032417 64.5535474,68.9443378 C64.6285221,69.0218193 64.7099849,69.0949962 64.8073078,69.1595641 C64.9875353,69.2815257 65.2030875,69.374073 65.4438715,69.4422281 C64.3106007,71.4101142 62.9942188,73.0006369 60.842302,74.401043 L60.842302,74.401043 Z" id="Shape"></path>
            <path d="M73.5195687,51.3189753 C71.8890439,49.4187028 68.2228816,49.0705832 65.8576852,49.1748752 C63.4392413,49.281325 61.7497125,49.6697229 60.1911438,50.2890017 C57.9417966,51.1276534 55.7586491,52.3475104 52.9818639,55.0353675 C47.1951559,53.4918456 40.6586654,51.7785794 34.1020272,52.2827774 C23.9619762,53.0631694 20.4210174,59.0293922 20.4893757,64.35332 C20.5354276,68.0035407 22.8984653,70.9352253 26.5099411,71.8220671 C29.0758949,72.4521348 32.2959296,71.9608834 34.5647049,69.7110528 C35.2931299,69.038415 35.874906,68.2228053 36.2736618,67.3152134 C36.5773165,66.6369556 36.3405809,66.221226 36.0585131,66.0284656 C35.6685111,65.7637797 35.4137866,66.1780707 35.2727527,66.5866077 C33.974665,70.3346472 30.6848329,71.3322543 28.343382,71.3027648 C26.9618253,71.2847834 25.3327396,70.9755036 23.8900201,70.007386 C23.1480212,69.4726746 22.5213063,68.7941237 22.0472249,68.0121718 C20.1101672,64.3058491 21.3370184,58.7229894 26.4883543,55.8452489 C31.1050564,53.2652801 36.8507496,52.9826128 42.582771,53.6472047 C45.3710692,53.9715889 49.5416437,54.8864816 52.4062153,55.6071754 C51.4409963,56.5897226 50.5149214,57.60994 49.6301497,58.665449 C48.7688354,59.6867916 47.7708045,60.9807319 46.6763525,62.4019803 C46.5505128,62.3228242 46.4218682,62.2482132 46.2906679,62.1782919 C43.3678119,60.657067 40.5169119,61.9855315 39.4390098,62.9284752 C37.6861597,64.4583313 37.5357715,66.5743804 37.7833004,68.0869743 C37.7811417,68.049573 37.7804221,68.010014 37.778983,67.9711742 C37.8300718,68.3682031 37.9200169,68.7659513 38.0531357,69.1579455 C38.3182951,69.9321078 38.7217888,70.6517518 39.2440088,71.2819064 C37.4012136,73.1483739 35.5058904,74.7228238 33.6472648,75.6391551 C32.3234906,76.2982443 30.9049811,76.7469368 29.442871,76.9690581 C26.7265289,77.2977578 24.2879373,76.9690581 22.1753067,75.9786436 C21.5615213,75.7117998 20.338268,75.1658851 18.7134996,73.6345905 C19.0970255,74.7940301 20.983714,76.0779008 21.9004345,76.4670179 L21.8997149,76.4691757 C23.4985791,77.2229553 25.2701378,77.6149494 27.194963,77.6473159 C27.219428,77.6487544 27.2417344,77.6509122 27.2661995,77.6516314 C30.8740774,77.8033943 33.5163047,76.8748357 35.395078,76.0577616 C37.2184451,75.264423 38.9756127,73.9877449 40.5766355,72.5521113 C43.2087889,74.4682074 46.7583824,74.2639389 49.1624351,73.703639 C48.397542,75.4097126 47.6304901,77.4883605 48.6278014,80 C49.0465858,77.7336265 50.4022384,75.3507337 52.0255676,72.9822259 C53.4776413,72.4255223 54.5210045,71.8371715 54.7829247,71.2890989 C54.2626822,71.6264297 53.2855186,72.0033195 52.5472492,72.2342004 C53.6661663,70.6539965 54.8735893,69.0853007 55.9723587,67.5698297 C58.7908784,63.6786585 61.0646906,60.2334256 63.5666035,57.786519 C69.3597877,58.1684436 73.2022424,56.3803749 73.9836855,54.1787344 C74.3765657,53.0710812 74.1621366,52.0698778 73.5195687,51.3189753 L73.5195687,51.3189753 Z M39.648402,70.8640191 C39.5613473,70.7535039 39.4771312,70.6407838 39.3958362,70.5259691 C38.1625089,68.7573203 37.9631906,66.6312016 38.8777524,64.9769144 C39.6433651,63.5923479 41.0321175,62.7781509 42.6871073,62.7421881 C43.8146591,62.7184527 44.7982988,63.1082891 45.6459414,63.7333219 C43.8211352,66.0874446 41.7747042,68.652309 39.648402,70.8640191 L39.648402,70.8640191 Z M49.332971,73.0901142 C47.0778674,73.6712725 43.5808019,73.9719213 41.0105306,72.1550823 C43.6635514,69.6880366 45.8495771,66.8520129 47.1383105,65.2027605 C47.8657865,66.1190918 48.4471917,67.1728008 48.8911607,68.1445147 C49.4761636,69.8549039 49.7611097,71.1999113 49.332971,73.0901142 L49.332971,73.0901142 Z M58.1080152,61.4475285 C56.5134684,63.3032072 53.9324038,66.3967243 51.5377054,69.7858554 C51.5247533,68.1826353 50.1691007,65.5638267 48.3335011,63.7297256 C50.935433,60.6103154 52.734335,58.0972373 54.3569447,56.0890765 C55.5521352,56.3767786 56.994135,56.7076361 58.3231639,56.9629717 C59.5500151,57.239885 60.7322535,57.4664504 61.8576466,57.6153363 C60.6012934,58.6942192 59.3672466,59.9816862 58.1080152,61.4475285 L58.1080152,61.4475285 Z M73.5195687,53.9643963 C72.9079421,55.8718614 69.3130162,57.4758007 64.1271414,57.2571471 C64.447346,56.969445 64.7697092,56.693251 65.0999876,56.4386346 C67.624207,54.4908912 69.9865251,54.1183169 71.3781558,53.9032596 C67.9753527,53.7838632 65.1467591,54.9655997 62.4462474,57.1276812 C62.3447893,57.1161731 62.2454899,57.1061035 62.1425927,57.0931569 C59.915552,56.8162436 57.4402628,56.2091921 54.8232201,55.5223033 C56.9423267,52.9826128 58.8585171,51.318256 62.045452,50.2947557 C63.1125607,49.999861 64.3710725,49.8106969 65.8584047,49.7452447 C68.2782878,49.6380756 71.759523,49.9516709 73.1274081,51.6397632 C73.6066356,52.2331488 73.8052344,53.0710812 73.5195687,53.9643963 L73.5195687,53.9643963 Z" id="Shape"></path>
            <path d="M111.600191,34.8821549 L111.600191,35.175525 L110.897515,35.175525 L110.897515,37.1717172 L110.55326,37.1717172 L110.55326,35.175525 L109.857667,35.175525 L109.857667,34.8821549 L111.600191,34.8821549 L111.600191,34.8821549 Z M113.812347,37.1710085 L113.720971,35.7906101 C113.708221,35.612037 113.720971,35.393781 113.713888,35.169856 L113.697596,35.169856 C113.639512,35.3817344 113.570094,35.6240836 113.502801,35.8253327 L113.025378,37.141955 L112.761166,37.141955 L112.295076,35.7906101 C112.233655,35.5853905 112.17838,35.37838 112.129324,35.169856 L112.111615,35.169856 C112.105948,35.388112 112.111615,35.5829835 112.100282,35.7906101 L112.013155,37.1710085 L111.680943,37.1710085 L111.858028,34.8821549 L112.312076,34.8821549 L112.761874,36.1243717 C112.818542,36.2965672 112.864584,36.4864783 112.922668,36.699774 L112.934002,36.699774 C112.986419,36.4871869 113.03742,36.2859379 113.096212,36.1187028 L113.544594,34.8821549 L113.991558,34.8821549 L114.165811,37.1710085 L113.812347,37.1710085 L113.812347,37.1710085 Z" id="Shape"></path>
        </g>
    </g>
</svg>