<?xml version="1.0" encoding="UTF-8"?>
<svg width="2167px" height="404px" viewBox="0 0 2167 404" version="1.1" xmlns="http://www.w3.org/2000/svg" xmlns:xlink="http://www.w3.org/1999/xlink">
    <title>Taylor Morrison Color Logo</title>
    <g id="Page-1" stroke="none" stroke-width="1" fill="none" fill-rule="evenodd">
        <g id="Taylor-Morrison-Color-Logo" fill-rule="nonzero">
            <path d="M807.793103,33.5484716 L833.065724,23 L833.065724,57.2393013 L871.249042,57.2393013 L871.249042,74.7336245 L833.065724,74.7336245 L833.065724,149.091703 C833.065724,163.041048 836.936045,170.505677 852.648394,170.505677 C859.12514,170.390047 865.588296,169.870255 872,168.949345 L872,186.472489 C863.959098,187.452185 855.867699,187.962224 847.767168,188 C822.234601,188 807.793103,179.699563 807.793103,150.907424 L807.793103,74.7336245 L774,74.7336245 L774,57.2393013 L807.793103,57.2393013 L807.793103,33.5484716 Z" id="Path" fill="#000000"></path>
            <path d="M919.302826,90.6960764 C922.394137,59.9931493 955.647406,52 983.78701,52 C1019.64045,52 1045.93104,65.7066639 1045.93104,97.91011 L1045.93104,161.393606 C1045.83362,169.659778 1046.19048,177.925061 1047,186.152169 L1023.25179,186.152169 C1022.53904,180.148049 1022.20133,174.105423 1022.24062,168.059373 L1021.72058,168.059373 C1007.04407,187.392983 990.489667,191 965.210249,191 C932.477014,191 910,172.964916 910,148.725763 C910,121.42786 930.656896,107.259498 976.448756,105.989828 C995.54555,105.499273 1008.69085,105.499273 1020.59384,105.499273 L1020.59384,102.007681 C1020.59384,77.2779738 1005.0795,69.5445298 980.146774,69.5445298 C962.350063,69.5445298 947.413539,76.4988582 946.084563,90.6960764 L919.302826,90.6960764 Z M1020.70941,123.159228 C1012.04218,123.159228 999.792493,123.159228 980.435681,123.909487 C954.145086,124.948308 936.839519,129.334441 936.839519,148.14864 C936.839519,160.98962 947.442429,173.657463 971.941797,173.657463 C1003.14382,173.657463 1020.70941,160.239361 1020.70941,129.045879 L1020.70941,123.159228 Z" id="Shape" fill="#000000"></path>
            <polygon id="Path" fill="#000000" points="1241 57 1147.70955 236 1119.44321 236 1146.18398 186.515161 1075 57 1104.76314 57 1159.77024 162.176935 1214.28802 57"></polygon>
            <polygon id="Path" fill="#000000" points="1273 0 1298 0 1298 186 1273 186"></polygon>
            <path d="M1424,191 C1371.29214,191 1343,165.80589 1343,121.5 C1343,79.586686 1369.84571,52 1424,52 C1476.70786,52 1505,77.2517628 1505,121.5 C1505,165.748237 1476.70786,191 1424,191 Z M1369.73,121.5 C1369.73,150.873911 1388.62036,173.531315 1424,173.531315 C1459.37964,173.531315 1478.35679,150.96039 1478.35679,121.5 C1478.35679,92.0396101 1459.52429,69.6128163 1424.14464,69.6128163 C1388.765,69.6128163 1369.73,92.1260888 1369.73,121.5 L1369.73,121.5 Z" id="Shape" fill="#000000"></path>
            <path d="M1548.01381,86.1506819 C1548.01381,76.3530576 1547.49242,67.0741311 1547,56.7866256 L1570.75211,56.7866256 C1571.30246,64.5382754 1571.79488,73.7883854 1571.79488,82.5486142 L1572.31627,82.5486142 C1583.90266,61.6566212 1595.48905,55 1624.45504,55 L1633,55 L1633,77.6209855 C1629.07012,76.431821 1624.96779,75.9058476 1620.86325,76.0648922 C1590.36207,76.0648922 1573.53284,97.5043995 1573.53284,123.439287 L1573.53284,186 L1548.18761,186 L1548.01381,86.1506819 Z" id="Path" fill="#000000"></path>
            <path d="M784.011561,299.112234 C784.011561,289.345302 783.520231,280.039346 783,269.753816 L806.757225,269.753816 C807.248555,276.236293 807.797688,283.640722 807.797688,292.802623 L808.289017,292.802623 C823,273.00946 841.612717,265 862.739884,265 C884.445087,265 902.479769,275.516018 909.965318,297.412384 C920.482704,277.670505 940.982333,265.236926 963.404624,265 C1000.31214,265 1023,282.978069 1023,324.898086 L1023,399 L997.710983,399 L997.710983,334.319286 C997.710983,302.972909 988.693642,282.459471 961.092486,282.459471 C938.895954,282.459471 916.179191,297.642873 916.179191,340.081488 L916.179191,399 L890.861272,399 L890.861272,332.734681 C890.861272,298.017416 879.011561,282.315416 855.745665,282.315416 C833.578035,282.315416 809.32948,298.276715 809.32948,336.336057 L809.32948,399 L784.011561,399 L784.011561,299.112234 Z" id="Path" fill="#000000"></path>
            <path d="M1150.07226,404 C1097.41142,404 1069,378.748237 1069,334.471174 C1069,292.529034 1095.87957,265 1150.07226,265 C1202.70419,265 1231,290.251763 1231,334.471174 C1231,378.690585 1202.70419,404 1150.07226,404 Z M1095.87957,334.471174 C1095.87957,363.873911 1114.69527,386.358358 1150.07226,386.358358 C1185.44924,386.358358 1204.26494,363.72978 1204.26494,334.471174 C1204.26494,305.212567 1185.39144,282.58399 1150.07226,282.58399 C1114.75308,282.58399 1095.87957,305.183741 1095.87957,334.471174 L1095.87957,334.471174 Z" id="Shape" fill="#000000"></path>
            <path d="M1280.01176,299.136983 C1280.01176,289.372471 1279.49143,280.068821 1279,269.78584 L1302.87765,269.78584 C1303.42689,277.534081 1303.91832,286.780123 1303.91832,295.5365 L1304.43866,295.5365 C1316.00168,274.682498 1327.56471,268 1356.47227,268 L1365,268 L1365,290.639842 C1361.07582,289.463587 1356.98225,288.947642 1352.88773,289.113237 C1322.41916,289.113237 1305.62387,310.4281 1305.62387,336.409191 L1305.62387,399 L1280.30084,399 L1280.01176,299.136983 Z" id="Path" fill="#000000"></path>
            <path d="M1404.98518,299.136983 C1404.98518,289.372471 1404.52156,280.068821 1404,269.78584 L1427.81806,269.78584 C1428.28167,277.534081 1428.80323,286.780123 1428.80323,295.5365 L1429.35377,295.5365 C1440.94407,274.682498 1452.53437,268 1481.51011,268 L1490,268 L1490,290.639842 C1486.05788,289.457738 1481.94414,288.941702 1477.83019,289.113237 C1447.34771,289.113237 1430.48383,310.4281 1430.48383,336.409191 L1430.48383,399 L1405.13005,399 L1404.98518,299.136983 Z" id="Path" fill="#000000"></path>
            <path d="M1529,213 L1554,213 L1554,238.751628 L1529,238.751628 L1529,213 Z M1529,269.636279 L1554,269.636279 L1554,399 L1529,399 L1529,269.636279 Z" id="Shape" fill="#000000"></path>
            <path d="M1622.91695,362.230817 C1625.26133,380.2472 1641.75881,386.41601 1664.7974,386.41601 C1693.21938,386.41601 1707.16988,377.768146 1707.16988,364.018042 C1707.16988,333.89465 1602.25168,356.753837 1602.25168,305.356698 C1602.25168,276.761095 1629.37122,265 1665.28943,265 C1692.26426,265 1726.82215,271.716508 1728.35612,303.36769 L1703.75461,303.36769 C1700.13674,287.138532 1685.66527,282.497511 1666.27349,282.497511 C1643.55327,282.497511 1627.48993,290.251763 1627.48993,302.099336 C1627.48993,311.064289 1635.76762,316.714226 1655.1594,320.346329 L1698.0818,328.302364 C1722.33599,332.943384 1734,342.974907 1734,362.317296 C1734,389.817503 1710.84564,404 1661.9031,404 C1627.17156,404 1597.76552,392.469515 1596,362.317296 L1622.91695,362.230817 Z" id="Path" fill="#000000"></path>
            <path d="M1845,404 C1792.29214,404 1764,378.748237 1764,334.471174 C1764,292.529034 1790.87464,265 1845,265 C1897.70786,265 1926,290.251763 1926,334.471174 C1926,378.690585 1897.70786,404 1845,404 Z M1790.75893,334.471174 C1790.75893,363.873911 1809.62036,386.358358 1845,386.358358 C1880.37964,386.358358 1899.24107,363.72978 1899.24107,334.471174 C1899.24107,305.212567 1880.35071,282.58399 1845,282.58399 C1809.64929,282.58399 1790.75893,305.183741 1790.75893,334.471174 L1790.75893,334.471174 Z" id="Shape" fill="#000000"></path>
            <path d="M1965.9504,299.112234 C1965.9504,289.345302 1965.4896,280.039346 1965,269.753816 L1988.616,269.753816 C1989.1344,276.236293 1989.6528,283.640722 1989.6528,292.802623 L1990.2,292.802623 C2004.8304,273.00946 2023.32,265 2046.4464,265 C2082.7344,265 2109,285.311761 2109,325.733606 L2109,399 L2083.7424,399 L2083.7424,326.972479 C2083.7424,298.161471 2066.4624,282.488282 2042.328,282.488282 C2018.1936,282.488282 1991.1792,297.153085 1991.1792,338.064717 L1991.1792,399 L1965.9504,399 L1965.9504,299.112234 Z" id="Path" fill="#000000"></path>
            <path d="M316.150309,76.4750653 C326.480469,79.3338172 338.589713,70.2143987 343.20959,56.4638021 C347.829467,42.7132055 343.20959,29.1627216 332.793345,26.4754948 C322.3771,23.788268 310.411331,32.7647489 305.791454,46.486758 C301.171577,60.2087671 305.791454,73.759251 316.150309,76.4750653 Z" id="Path" fill="#000000"></path>
            <path d="M639.122894,76.4750653 C649.468563,79.3338172 661.538511,70.2143987 666.194062,56.4638021 C670.849613,42.7132055 666.194062,29.1627216 655.790917,26.4754948 C645.387771,23.788268 633.289086,32.7647489 628.748486,46.486758 C624.207887,60.2087671 628.805962,73.759251 639.122894,76.4750653 Z" id="Path" fill="#000000"></path>
            <path d="M477.141344,76.4750653 C487.503043,79.3338172 499.586909,70.2143987 504.208054,56.4638021 C508.8292,42.7132055 504.208054,29.1627216 493.846355,26.4754948 C483.484656,23.788268 471.372088,32.7647489 466.779645,46.486758 C462.187202,60.2087671 466.779645,73.759251 477.141344,76.4750653 Z" id="Path" fill="#000000"></path>
            <path d="M638.679715,90.691627 C620.987255,83.3019584 610.048523,87.8050377 596.858548,99.3513948 L555.181691,137.512105 C544.127511,147.268777 529.60988,159.912038 514.053214,173.132617 L514.053214,173.132617 C515.265422,155.091434 517.141458,107.087454 477.715844,90.6050293 C459.936797,83.2153607 449.05579,87.71844 435.865815,99.2647971 L394.131234,137.540971 C383.596571,146.864654 353.204791,172.959421 353.002757,173.161483 C354.214965,155.091434 356.062138,107.11632 316.636524,90.6338952 C298.915202,83.2442266 288.005332,87.7473059 274.815357,99.293663 L233.080776,137.569837 C222.517252,146.922386 191.952299,173.190348 191.952299,173.190348 L191.952299,173.190348 C193.164507,155.149166 195.011681,107.145186 155.557205,90.6627611 C137.864744,83.2730925 126.926012,87.7761718 113.7649,99.3225289 L71.8860084,137.512105 C62.5924157,145.738884 50.701235,156.10174 37.8864674,167.070779 L16.4419352,186.151134 C15.7791436,186.642975 15.5084243,187.505737 15.7713815,188.288137 C16.0343387,189.070538 16.771152,189.594589 17.5964187,189.586176 L56.6756874,189.586176 C58.6026337,190.854272 59.7037204,193.056736 59.5618964,195.359354 C59.5618964,195.359354 60.1391381,198.794395 56.2427561,206.010869 L56.2427561,206.010869 C54.3089961,209.994362 51.7402702,215.305686 50.4703383,218.278873 L50.4703383,218.278873 C47.9881986,223.619063 44.4381616,231.326257 40.5706417,240.361281 L40.2820208,241.082928 C32.3677821,259.030003 25.6663506,277.487888 20.2228688,296.332247 C20.2228688,296.332247 0.192578972,367.833063 0.0194064376,395.226796 C0.0194064376,395.226796 -0.528973256,402.616464 4.20440937,402.876257 C9.65934422,403.655636 11.3333454,397.276274 11.3333454,397.276274 C18.5904354,374.319979 28.6015475,352.327524 41.1478835,331.779563 C41.1478835,331.779563 71.1644562,281.870435 91.3679186,262.039566 L99.3049931,294.513696 C102.184221,305.893305 102.084822,317.822729 99.0163722,329.152767 C93.912151,350.80572 87.1579275,372.036077 78.8129098,392.657731 C78.1170583,393.87836 77.977757,395.33876 78.4302958,396.668958 C78.8828346,397.999156 79.8837964,399.071531 81.1796011,399.614411 C82.6804298,400.336059 86.2304667,400.942242 91.1081598,394.101026 C91.1081598,394.101026 116.131591,361.800092 133.24681,334.319762 C133.24681,334.319762 149.698201,311.082718 148.890062,291.367313 C148.890062,291.367313 148.283958,271.161189 144.15668,241.63138 C143.614931,237.893669 143.344843,234.121593 143.348541,230.344816 L143.348541,230.344816 C143.348541,228.266472 143.521714,226.072664 143.521714,223.763393 C143.521714,201.247996 159.309276,191.433593 191.952299,188.604735 L191.952299,188.604735 C197.49382,188.104393 203.535618,187.815734 210.077691,187.738758 C211.896003,187.738758 220.872113,186.67072 220.900975,194.955232 C220.792439,198.926769 219.615963,202.795692 217.495248,206.155198 L217.495248,206.155198 C215.503764,210.138691 212.9639,215.450016 211.72283,218.423202 L211.72283,218.423202 C209.240691,223.763393 205.690654,231.470586 201.794272,240.50561 L201.794272,240.50561 C193.869054,258.68137 187.120643,277.348006 181.590809,296.389979 C181.590809,296.389979 161.589382,367.890795 161.387347,395.284527 C161.387347,395.284527 160.896691,402.674196 165.601212,402.933989 C171.056147,403.713368 172.75901,397.334006 172.75901,397.334006 C180.744928,373.796579 191.264359,351.196664 204.132101,329.932146 C204.132101,329.932146 233.196225,280.080749 252.851307,261.924103 L260.817244,294.398232 C263.680959,305.779703 263.581594,317.705145 260.528623,329.037304 C255.416272,350.688007 248.662244,371.917751 240.325161,392.542268 C239.627708,393.759182 239.484276,395.216427 239.931085,396.545997 C240.377894,397.875568 241.372231,398.950359 242.66299,399.498948 C244.163819,400.220595 247.713856,400.826779 252.591549,393.985562 C252.591549,393.985562 277.61498,361.684628 294.730199,334.204298 C294.730199,334.204298 311.18159,310.967255 310.373451,291.25185 C310.373451,291.25185 309.767347,271.045725 305.640069,241.515917 C305.079172,237.779965 304.799386,234.007184 304.803068,230.229353 C304.803068,230.229353 304.803068,225.928335 304.97624,223.647929 C306.736828,201.190264 320.792665,191.318129 353.435688,188.489272 C358.977209,187.998551 364.980524,187.709893 371.532218,187.623295 C373.379392,187.623295 382.326639,186.555257 382.384364,194.839768 C382.384364,194.839768 382.817295,198.650066 378.892051,205.866539 L378.892051,205.866539 C376.958291,209.850032 374.418427,215.161357 373.119633,218.134544 L373.119633,218.134544 C370.608631,223.474734 367.058594,231.181927 363.191074,240.216952 L363.191074,240.216952 C355.253289,258.387701 348.504581,277.055159 342.987612,296.10132 C342.987612,296.10132 322.986184,367.602136 322.784149,394.995869 C322.784149,394.995869 322.293494,402.385537 326.969152,402.64533 C332.452949,403.424709 334.155813,397.045347 334.155813,397.045347 C342.119153,373.397972 352.639129,350.690413 365.528904,329.325962 C365.528904,329.325962 393.929199,281.581776 414.24811,261.635444 L422.214047,294.109573 C425.078646,305.492278 424.96932,317.420373 421.896564,328.748645 C416.769253,350.395205 410.015581,371.623827 401.693101,392.253609 C400.99725,393.474238 400.857948,394.934637 401.310487,396.264835 C401.763026,397.595033 402.763988,398.667408 404.059793,399.210289 C405.502897,399.931936 409.081796,400.53812 413.959489,393.696903 C413.959489,393.696903 438.954058,361.395969 456.127001,333.915639 C456.127001,333.915639 472.54953,310.678596 471.770254,290.963191 C471.770254,290.963191 471.16415,270.757066 467.008009,241.227258 C466.46626,237.489546 466.196172,233.717471 466.19987,229.940694 L466.19987,229.940694 C466.144803,227.745367 466.202603,225.548661 466.373043,223.35927 C466.373043,200.843874 482.189468,191.02947 514.803629,188.200613 C520.374012,187.709893 526.348464,187.421234 532.957883,187.30577 C534.747332,187.30577 543.69458,186.237732 543.752304,194.551109 C543.752304,194.551109 544.329546,198.015016 540.462026,205.202624 L540.462026,205.202624 C538.499404,209.186117 535.901816,214.497441 534.545298,217.441762 L534.545298,217.441762 C527.474086,232.56749 511.975144,267.091098 504.18238,295.870393 C504.18238,295.870393 484.180952,367.371209 483.978917,394.764941 C483.978917,394.764941 483.4594,402.15461 488.16392,402.414403 C493.618855,403.193782 495.321718,396.81442 495.321718,396.81442 C503.22456,373.263341 513.707498,350.658646 526.579361,329.41256 C526.579361,329.41256 551.718241,286.691039 575.442878,261.404517 L583.379952,293.878646 C586.259553,305.256876 586.170112,317.183965 583.120194,328.517717 C578.000863,350.166488 571.247001,371.395708 562.916731,392.022682 C562.22088,393.243311 562.081578,394.70371 562.534117,396.033908 C562.986656,397.364106 563.987618,398.436481 565.283423,398.979362 C566.755389,399.701009 570.305426,400.307193 575.183119,393.465976 C575.183119,393.465976 600.20655,361.165042 617.350631,333.684712 C617.350631,333.684712 633.77316,310.447669 632.993884,290.732264 C632.993884,290.732264 632.358918,270.526139 628.260501,240.996331 C627.460352,235.608518 627.247449,230.149745 627.625535,224.715967 C628.289363,207.136638 638.391094,200.930471 645.606617,198.736664 C646.814924,198.356901 648.049771,198.067445 649.300964,197.870687 L656.054693,196.860381 C658.977242,196.269091 661.867302,195.527211 664.71332,194.637707 C666.251153,194.024093 667.646239,193.100464 668.811736,191.924313 C673.066259,187.320972 675.551273,181.358197 675.825224,175.095497 L675.825224,174.200655 C676.084983,158.613073 679.519571,107.693638 638.679715,90.691627 Z" id="Path" fill="#000000"></path>
            <path d="M155.141499,76.4750653 C165.445924,79.3338172 177.587349,70.2143987 182.208554,56.4638021 C186.829758,42.7132055 182.208554,29.1627216 171.81802,26.4754948 C161.427485,23.788268 149.372169,32.7647489 144.779668,46.486758 C140.187166,60.2087671 144.779668,73.759251 155.141499,76.4750653 Z" id="Path" fill="#000000"></path>
            <path d="M2167,378.999786 C2167,385.878136 2162.85504,392.078657 2156.49915,394.708211 C2150.14327,397.337764 2142.82914,395.878095 2137.9695,391.010278 C2133.10986,386.142461 2131.66249,378.825889 2134.30274,372.474447 C2136.94298,366.123004 2143.15047,361.988488 2150.02882,362.000024 C2159.37401,362.093184 2166.92258,369.654458 2167,378.999786 L2167,378.999786 Z M2135.05761,378.999786 C2135.07338,387.264413 2141.78319,393.95291 2150.04783,393.942413 C2158.31247,393.931891 2165.00525,387.22635 2165,378.96171 C2164.99475,370.69707 2158.29347,364.000017 2150.02882,364.000017 C2141.75583,364.015776 2135.05761,370.726787 2135.05761,378.999786 Z M2143.82891,369.685644 L2150.28596,369.685644 C2151.65737,369.685644 2156.48587,369.685644 2156.48587,374.285573 C2156.56071,376.373787 2155.1283,378.215456 2153.08592,378.656934 C2154.9716,379.171212 2155.57159,379.9712 2155.94302,382.199737 C2156.09195,384.13883 2156.45608,386.055345 2157.02872,387.913934 L2154.40018,387.913934 C2153.94614,386.358363 2153.65882,384.758918 2153.54305,383.142579 C2153.22877,380.285481 2152.5145,379.599777 2149.57168,379.599777 L2146.42887,379.599777 L2146.42887,387.913934 L2143.91462,387.913934 L2143.82891,369.685644 Z M2146.34316,377.514095 L2150.28596,377.514095 C2151.54308,377.514095 2153.85733,377.514095 2153.85733,374.656996 C2153.85733,371.799897 2151.65737,371.799897 2150.28596,371.799897 L2146.34316,371.799897 L2146.34316,377.514095 Z" id="Shape" fill="#231F20"></path>
        </g>
    </g>
</svg>