<?xml version="1.0" encoding="UTF-8"?>
<svg width="2016px" height="302px" viewBox="0 0 2016 302" version="1.1" xmlns="http://www.w3.org/2000/svg" xmlns:xlink="http://www.w3.org/1999/xlink">
    <title>USA_Today_(2020-01-29)</title>
    <g id="Page-1" stroke="none" stroke-width="1" fill="none" fill-rule="evenodd">
        <g id="USA_Today_(2020-01-29)" fill="#000000" fill-rule="nonzero">
            <path d="M302,151 C302,234.395126 234.398909,302 150.99155,302 C67.6010907,302 0,234.395126 0,151 C0,67.6048737 67.6010907,0 150.99155,0 C234.398909,0 302,67.6048737 302,151" id="path6918"></path>
            <path d="M443,215.803721 C419.218983,215.803721 405.947386,201.226923 405.947386,175.515357 L405.947386,45 L347,45 L347,175.177878 C347,232.337387 381.829472,265 443,265 C504.170528,265 539,232.337387 539,175.177878 L539,45 L480.052614,45 L480.052614,175.515357 C480.052614,201.226923 466.781017,215.803721 443,215.803721 L443,215.803721 Z" id="path42590"></path>
            <path d="M642.055255,265 C693.630363,265 727.453418,237.413168 727.453418,196.471287 C727.453418,167.265653 710.037608,144.737468 663.84191,132.057013 L647.70368,127.605245 C624.639457,121.264963 616.09963,114.317658 616.09963,104.13275 C616.09963,93.3408263 625.580756,87.3378436 642.32427,87.3378436 C662.631597,87.3378436 684.418239,98.7367877 699.61493,111.754661 L729,74.6572754 C705.935778,53.6804435 674.936872,41 642.055255,41 C592.362997,41 557.598529,67.9798146 557.598529,109.52884 C557.598529,141.567326 578.443632,162.54417 617.041055,172.661616 L630.355136,176.168935 C659.13491,183.790717 668.952305,189.523983 668.952305,200.922928 C668.952305,212.659175 658.798768,218.662156 641.719113,218.662156 C616.435771,218.662156 595.523415,209.489033 578.443632,194.245467 L550,230.128688 C573.73676,252.31943 606.954645,265 642.055255,265 L642.055255,265 Z" id="path42586"></path>
            <path d="M896.119204,261 L956,261 L877.145641,46 L808.787205,46 L730,261 L788.198952,261 L801.857039,220.876393 L882.52817,220.876393 L896.119204,261 Z M816.726514,177.190911 L842.36083,101.984633 L867.658961,177.190911 L816.726514,177.190911 Z" id="path42582"></path>
            <polygon id="path42578" points="1069.99495 261 1128.93767 261 1128.93767 93.4491422 1193 93.4491422 1193 46 1006 46 1006 93.4491422 1069.99495 93.4491422"></polygon>
            <path d="M1303.03376,265 C1367.71784,265 1415,218.99946 1415,153.303446 C1415,87.6751483 1367.71784,41 1303.03376,41 C1238.28217,41 1191,87.6751483 1191,153.303446 C1191,218.99946 1238.28217,265 1303.03376,265 Z M1303.03376,216.166493 C1272.27679,216.166493 1250.96262,190.738021 1250.96262,153.303446 C1250.96262,115.869 1272.27679,89.9009685 1303.03376,89.9009685 C1333.79073,89.9009685 1355.03727,115.869 1355.03727,153.303446 C1355.03727,190.738021 1333.79073,216.166493 1303.03376,216.166493 Z" id="path42570"></path>
            <path d="M1435,261 L1519.90452,261 C1583.65024,261 1629,216.709542 1629,153.533546 C1629,90.2903304 1583.65024,46 1519.90452,46 L1435,46 L1435,261 Z M1493.01811,214.558896 L1493.01811,92.5081952 L1519.90452,92.5081952 C1550.96869,92.5081952 1570.03861,116.837744 1570.03861,153.533546 C1570.03861,190.162256 1550.96869,214.558896 1519.90452,214.558896 L1493.01811,214.558896 Z" id="path42566"></path>
            <path d="M1784.119,261 L1844,261 L1765.14542,46 L1696.78716,46 L1618,261 L1676.1988,261 L1689.85699,220.876393 L1770.52797,220.876393 L1784.119,261 Z M1704.72634,177.190911 L1730.36078,101.984633 L1755.65876,177.190911 L1704.72634,177.190911 Z" id="path42558"></path>
            <polygon id="path42562" points="1939.89238 183.575754 2016 46 1949.69971 46 1910.20155 131.354631 1870.3676 46 1804 46 1880.17493 183.575754 1880.17493 261 1939.89238 261"></polygon>
        </g>
    </g>
</svg>