<?xml version="1.0" encoding="UTF-8"?>
<svg width="1190px" height="264px" viewBox="0 0 1190 264" version="1.1" xmlns="http://www.w3.org/2000/svg" xmlns:xlink="http://www.w3.org/1999/xlink">
    <title>Walgreens_Logo</title>
    <g id="Page-1" stroke="none" stroke-width="1" fill="none" fill-rule="evenodd">
        <g id="Walgreens_Logo" fill="#000000" fill-rule="nonzero">
            <path d="M130.403919,194.672112 C189.483078,205.607194 232.729431,148.249183 260.434126,98.6145354 C271.521653,78.728015 288.360441,26.6633494 269.500999,6.98804031 C252.232007,-12.0449253 238.886996,12.9324398 228.649013,21.2698411 L236.551293,30.6502343 C252.334126,50.6194973 238.606711,88.5613148 229.250864,108.835419 C215.210574,133.795364 188.707408,171.565164 157.734902,166.308835 C151.012423,164.728016 145.445846,158.195709 143.094934,151.328077 C159.777284,134.78392 179.531898,105.719508 190.634634,86.3860564 C199.927472,70.6584383 216.051427,40.2657904 201.181147,27.745535 C188.837773,19.1729707 164.118432,31.5168538 150.871195,42.7241155 C142.808131,49.9967509 137.374091,55.9520375 131.11658,64.4266172 C114.069209,87.5836461 97.836617,127.291364 99.5313595,157.856029 C91.3531403,163.800429 81.9994653,169.723054 70.8923835,166.308835 C59.8830753,163.835268 57.9015302,154.446165 56.3393253,147.077722 C49.3256986,102.790857 93.6214883,46.8677756 118.471194,14.7375342 C118.471194,14.7375342 98.8664992,20.063542 84.5589612,20.6623369 C51.6657469,22.073315 27.2375543,6.73545788 9.44710333,28.7689298 C4.09345514,36.609876 1.00163626,44.8492927 0,54.6455761 C7.28956565,48.4006903 18.0902902,49.8965888 28.4086648,50.4888513 C46.2621256,52.0544275 55.055232,54.2122664 71.1487677,49.8791693 C56.8108114,70.1445636 32.9236326,110.102686 28.5325113,135.036503 C26.2054995,151.58066 26.4075649,177.661985 40.5217284,189.372234 C63.9091754,204.971383 87.1380115,194.066785 107.885571,179.704419 C114.045309,186.855118 121.64775,193.108714 130.403919,194.672112 Z M170.084795,56.2938949 C176.307542,53.24113 174.441152,62.5017641 174.441152,62.5017641 C173.550326,73.0078916 165.947885,85.523792 160.531227,95.1262834 C154.968995,104.944341 135.477283,128.094838 126.986189,133.072456 C127.353383,119.062834 142.31709,88.4763947 149.965159,76.8075168 C153.880449,69.9464169 163.870739,59.3488372 170.084795,56.2938949 Z" id="path2303"></path>
            <path d="M1111.15646,83.7643333 L1111.15646,83.7643333 C1107.90554,88.072559 1096.80982,100.187534 1093.2112,103.969781 C1093.05039,104.120372 1091.35974,105.744141 1091.35974,105.744141 C1061.43649,135.895173 1038.56704,153.389974 1025.32431,156.209745 C1016.29735,158.200171 1012.15547,158.728333 1007.93101,150.548378 C1007.85713,150.395604 1007.75717,150.103151 1007.75717,150.103151 C1007.75717,150.042042 1007.32255,146.275072 1007.32255,146.275072 C1007.32255,135.401931 1021.39104,111.025755 1040.20119,94.7356861 C1047.38103,88.4348516 1048.22853,85.6456355 1048.32849,84.9516052 C1045.64692,80.7241314 1044.02146,78.7380701 1040.37069,77.2081478 C1035.14227,76.9331546 1027.11927,82.5137691 1021.83001,86.2327238 C1018.08797,88.8058738 1007.47032,98.6074145 996.209441,108.939299 C986.830445,117.586305 977.138527,126.523582 971.727568,130.993312 C971.727568,130.993312 964.186995,137.187204 962.557188,138.549075 C962.626726,136.955861 962.822303,133.756338 962.822303,133.756338 C963.022226,128.153898 968.889531,118.804132 977.28195,106.222105 C980.31991,101.584324 987.817022,88.4348514 988.716675,86.1039573 L988.834021,85.872614 L988.699291,85.6456355 C986.265446,81.6385927 981.602025,78.5176391 977.877373,78.3430403 C977.494911,78.4892668 974.543874,80.9183729 974.543874,80.9183729 C968.22457,86.1039576 954.729768,98.3084144 941.700006,110.150579 C929.730704,121.019355 918.439402,131.250845 915.631788,133.298016 C893.657645,149.679749 874.6215,160.360832 855.841778,167.004317 C852.477857,167.986435 840.99967,170.753826 835.314904,164.332955 C835.314904,164.332955 834.024097,162.88815 833.350443,162.058805 C834.202289,161.674688 836.058096,160.880263 836.058096,160.880263 C852.477857,153.861391 873.161193,144.210442 888.164109,131.294495 C888.390109,131.093706 911.185674,111.455705 911.185674,92.0948791 C911.185674,91.23498 911.129174,90.4209131 911.063982,89.5762913 C909.647137,82.6272587 903.718986,80.4971532 895.287451,79.4037281 C867.689388,79.5848744 842.894592,96.6453608 830.016945,111.182894 L827.7526,113.67311 C821.776641,120.19874 803.609727,140.033165 796.229961,157.641455 C796.229961,157.641455 795.912692,158.42715 795.804038,158.566829 C795.764923,158.523179 795.130385,158.793807 795.130385,158.793807 C782.691698,164.075422 769.175167,169.156247 754.15052,170.745096 C746.040601,171.757769 734.549376,172.4518 728.112725,166.545995 C728.112725,166.545995 726.539418,165.153569 725.839688,164.494458 C727.095726,163.813523 757.214557,147.641308 757.214557,147.641308 C782.039776,132.507956 798.672498,109.467461 798.672498,97.465975 L798.672498,97.465975 C798.159652,83.5417197 785.18639,80.3902113 774.373164,80.2396199 C758.314133,80.3356493 743.493756,86.2829213 724.783573,100.119877 C713.939924,108.147057 691.24432,134.192835 685.172746,160.928278 C685.172746,160.928278 685.011938,161.805637 684.894592,162.198484 C684.407823,162.346893 682.538978,162.78339 682.538978,162.78339 C670.652253,165.75157 650.681686,170.605417 647.000495,158.959676 C641.085383,140.033165 659.965066,121.802867 675.098366,107.182399 C675.098366,107.162756 683.62117,98.7776487 683.62117,98.7776487 C684.807669,97.4354204 686.259284,94.312284 685.855092,91.8482584 C685.69863,90.6762638 685.120592,89.8032698 684.068823,89.1768966 C675.967596,85.5954384 668.196677,88.3562822 659.965066,91.311367 C653.79353,93.5003997 647.395995,95.7418119 640.62469,95.2616651 C640.62469,95.2616651 639.30346,95.1023436 638.503768,95.0477816 C638.581999,94.334109 638.699345,92.8696614 638.699345,92.8696614 C639.042691,88.8735312 641.35919,86.4815275 643.432304,84.3797943 C643.475766,84.3623344 644.105958,83.6704866 644.105958,83.6704866 C644.462342,83.2361722 644.666611,82.4046451 644.666611,81.4508991 C644.666611,80.6150074 644.527535,79.6721738 644.145073,78.8493769 C643.610496,77.5857179 642.797766,76.8196657 641.798151,76.7432787 C637.060846,76.1496428 628.872696,80.8528983 621.436431,88.3890194 C614.291357,95.6937972 609.801782,103.579116 609.801782,108.993862 L609.871321,110.111294 C609.910436,110.253156 609.893052,110.547791 609.893052,110.547791 C609.019475,122.822087 598.371403,134.585682 583.594487,150.897576 L577.177394,158.008113 C577.214337,158.008113 574.710953,160.565985 574.710953,160.565985 C565.853496,169.645124 560.249134,176.450112 558.519365,180.208352 L558,181.299594 L559.212576,180.976586 C565.486246,179.082189 583.537988,170.317329 615.86901,129.452477 C615.86901,129.452477 616.351433,128.871936 616.555702,128.511826 C616.977279,128.562023 617.750894,128.684243 617.750894,128.684243 C619.263355,128.871936 621.119162,128.086242 623.07493,127.320189 C626.364967,126.004151 630.13308,124.535338 633.688232,126.892422 C633.688232,126.892422 635.052924,127.769781 635.635308,128.195366 C635.013809,128.959236 629.289927,136.301115 629.289927,136.301115 C620.271662,147.654403 611.010013,159.308874 611.010013,173.294239 C611.010013,175.9656 611.344666,178.732992 612.126974,181.600777 C613.84805,189.793826 622.192661,193.66992 628.829235,194.534184 C642.258844,196.865078 659.100181,189.400979 673.968367,182.853524 L681.495901,179.540511 C685.69863,178.396889 686.893822,180.976586 687.784783,182.818604 C688.827859,185.062199 690.305551,188.213707 696.781317,191.042208 C718.481653,200.907041 750.330253,196.035734 791.470925,176.559236 C791.470925,176.559236 792.705232,175.9656 793.474501,175.603308 C793.770039,176.336623 794.313308,177.777063 794.313308,177.777063 C797.277384,185.778053 802.853496,190.723565 811.949992,193.368737 C847.384167,198.10473 876.603345,177.742143 904.844639,158.069222 C904.879408,158.051762 917.730979,148.221849 919.847554,146.602445 C920.369093,147.121877 922.668207,149.6361 922.989822,150.042042 C922.52913,150.727342 910.572867,167.606682 910.572867,167.606682 C906.400561,173.74383 902.502063,179.514321 900.05518,185.987572 C900.05518,185.935192 899.346757,188.702584 899.346757,188.702584 L899.655334,190.129929 C900.272487,191.234266 901.780602,191.989406 903.997139,192.316779 C925.506244,189.326774 946.228696,171.696659 959.897343,160.077109 L963.995764,156.593862 C969.871761,151.443197 975.500028,146.619905 977.729603,146.126663 C977.729603,146.126663 978.585795,145.882225 979.02041,145.764371 C979.337679,146.126663 980.006987,146.903628 980.006987,146.903628 C980.080871,146.982198 980.080871,147.113146 980.080871,147.226636 C980.080871,148.291689 978.503218,150.788452 977.355834,152.53444 L975.200143,156.026416 C973.366067,159.88505 969.710953,167.453908 969.710953,174.158503 C969.710953,176.594156 970.206415,178.964335 971.545029,180.985316 C977.98168,190.994193 983.596908,191.304106 989.655444,191.648938 L991.819827,191.766793 C1017.19266,190.129929 1042.1048,168.012624 1066.23464,146.602445 L1084.18859,130.993312 C1084.18859,130.993312 1098.70039,118.241051 1101.64708,115.606791 C1102.05127,116.514705 1102.65973,118.241051 1102.65973,118.241051 C1104.47208,122.900657 1104.85889,127.149955 1104.85889,129.880244 L1104.40689,134.95234 C1104.13743,137.187204 1100.13027,152.896732 1094.64108,157.353367 C1094.6237,157.353367 1093.4937,157.990653 1093.4937,157.990653 C1093.45459,157.990653 1089.99939,158.863647 1089.99939,158.863647 C1076.73059,162.281419 1061.69725,166.113862 1056.09941,179.413927 C1056.07768,179.466307 1055.5996,182.443216 1055.5996,182.443216 C1055.5996,184.232854 1056.27326,186.799457 1059.27645,188.807343 C1068.64241,191.234267 1078.34736,188.903373 1086.90493,186.843106 L1097.90504,184.477292 C1106.88419,184.529672 1115.61127,185.59909 1124.04715,186.611763 C1135.79914,188.021648 1146.85575,189.374789 1158.59905,188.161327 C1173.80624,184.180474 1185.91462,166.860272 1189.66535,152.53444 L1190,151.351533 L1188.87435,151.923344 C1170.01205,161.29057 1148.23783,161.692148 1130.58376,153.014587 C1130.58376,153.014587 1129.35814,152.399126 1128.79315,152.097943 C1129.03218,151.508672 1129.5798,150.151166 1129.5798,150.151166 C1129.71888,149.871808 1140.47125,123.481198 1140.47125,89.2882032 C1140.47125,87.7342738 1140.45387,86.1497895 1140.41041,84.5674878 L1140.47125,84.5674878 C1140.2496,83.7403259 1140.15399,82.9655437 1140.15399,82.2016738 C1140.15399,79.0545303 1141.74033,76.4704679 1143.19195,74.1264787 C1144.64791,71.7890372 1145.90394,69.7484135 1145.90394,67.3236726 C1145.90394,66.9570151 1145.87352,66.6209124 1145.86048,66.2258826 C1145.7866,66.1909629 1145.7866,66.0927511 1145.7866,66.0185466 C1145.7866,65.7304585 1145.87352,65.3376113 1145.87352,65.3376113 C1145.90394,65.2939614 1145.90394,65.2437644 1145.90394,65.1935673 C1145.90394,64.346763 1144.58271,63.918996 1143.94383,63.7400323 C1129.1843,60.0014351 1120.80057,71.0055253 1111.15646,83.7643333 Z M722.462729,142.774366 L722.462729,142.774366 C723.41019,134.690441 735.453376,119.031111 741.881335,112.490203 C747.726909,106.571303 755.337021,101.772018 762.673325,99.3363646 C766.563131,98.4088084 769.674975,99.1617658 771.304782,101.425003 C771.93932,102.378749 772.287013,103.480904 772.287013,104.659446 C772.287013,106.115163 771.76982,107.662545 770.822359,109.188102 C762.777633,121.863976 742.042143,139.727617 725.12692,145.100895 C725.12692,145.100895 723.16246,145.729451 722.036806,146.126663 C722.171537,145.044151 722.462729,142.774366 722.462729,142.774366 Z M836.16675,139.710157 L836.16675,139.710157 C837.874788,127.623555 855.415856,109.648607 855.585356,109.467461 C861.43093,103.563838 869.045388,98.7776487 876.416461,96.2983455 C879.441383,94.9888545 882.361997,95.26603 884.152611,97.0032883 C884.834957,97.7256909 885.773726,99.0482769 885.773726,101.259134 C885.773726,102.503151 885.473841,103.987241 884.717611,105.859813 C882.848766,110.547791 868.706388,124.312725 864.69489,127.824343 C860.214007,132.097649 847.962206,140.635531 838.574518,142.176366 C838.574518,142.176366 836.80998,142.464454 835.723442,142.617228 C835.866866,141.691854 836.16675,139.710157 836.16675,139.710157 Z" id="path2305"></path>
            <path d="M491.533385,27.0195001 L491.502972,27.0195001 C472.41648,28.7742888 454.45745,39.4204418 433.252892,61.493379 C424.59163,69.6976141 384.546058,119.562316 377.94638,157.480539 C377.94638,157.480539 377.833417,158.206808 377.766073,158.515581 C377.483664,158.654747 376.855848,158.993963 376.855848,158.993963 C371.05126,162.116486 353.581015,169.631418 342.514934,166.835063 C339.197716,166.00442 336.719035,164.290946 335.226613,161.751177 C333.521298,158.445999 332.702313,155.079936 332.702313,151.52252 C332.702313,143.250877 337.270819,135.866413 341.215853,129.256056 C341.254956,129.238661 343.340436,125.757351 343.483813,125.518161 C343.553329,125.589918 344.2398,125.372472 344.2398,125.372472 C354.482551,122.443475 370.532062,102.871166 374.616129,90.9312102 L374.735609,90.5898202 L374.429304,90.3832466 C362.476893,83.0596675 346.433899,83.2249263 335.122339,84.6318016 C316.463805,86.8019121 295.226661,95.0300663 278.275614,106.600364 C257.887868,120.542998 240.269902,148.921867 236.58338,166.678502 C234.593484,176.833228 233.279197,187.131467 240.298143,191.90658 C254.881301,200.39132 283.543625,184.98745 303.114557,166.239261 C303.114557,166.239261 305.673615,163.799518 307.194278,162.333932 C307.044384,164.408366 306.559945,169.988029 306.559945,169.988029 C306.312294,172.414726 306.086367,175.189336 306.086367,177.937853 C306.086367,183.117415 306.953145,188.327419 310.370292,191.549968 C326.504525,204.361883 359.724494,190.323573 378.063689,177.776943 C378.063689,177.776943 379.132498,177.02458 379.692971,176.667968 C380.14048,177.202885 380.939914,178.233579 380.939914,178.233579 C386.772743,185.448435 393.654829,193.211255 401.486243,194.533326 C421.963056,197.399264 437.986499,185.587601 452.241628,172.401679 C452.241628,172.401679 454.099009,170.692554 455.028786,169.805375 C455.315539,171.310101 456.414761,176.402684 456.414761,176.402684 C457.459674,181.677923 458.411174,186.670481 462.499586,189.958264 C472.842266,197.968972 496.010652,187.074931 509.047078,177.803036 C509.047078,177.803036 512.057991,175.69381 513.789374,174.428275 C513.352727,176.25917 512.353434,180.055776 512.353434,180.055776 C510.124577,188.679682 506.00358,196.942628 502.004236,204.927242 L498.428506,212.233426 L497.833275,213.198886 L496.770983,214.921058 C491.214046,223.818945 480.919158,240.501398 470.887128,241.962634 L470.191967,242.067008 C467.60684,241.118944 465.964524,239.670754 465.095574,237.748532 L464.354794,234.012811 C464.354794,229.516029 466.718339,224.393003 468.788613,219.870127 L469.223088,218.97425 L468.254208,219.043833 C463.59229,219.757055 459.430019,221.731465 454.854996,224.062485 C445.578952,229.563867 436.029188,241.988728 436.029188,253.156751 C436.029188,255.479074 436.407182,257.662231 437.206616,259.693176 C439.124824,263.950768 444.171252,264.089933 446.282801,263.976861 C509.855202,258.02754 545.512576,185.857234 571.563704,133.135292 L576.677477,122.732679 C578.250277,120.653895 578.506617,119.394883 578.506617,118.666439 L578.458825,118.040195 C578.356723,117.970612 577.492117,116.855115 577.492117,116.855115 C577.559461,116.931221 576.846922,113.069381 576.846922,113.069381 C577.911386,107.972448 590.230928,97.2567125 590.359098,97.1305939 C590.359098,97.1588619 591.925381,95.9629092 591.925381,95.9629092 C593.185359,95.1431379 593.969587,94.2994478 594,93.6166676 C594,92.8838747 593.174497,91.9118914 591.925381,91.1182138 C589.424977,89.5134629 586.716024,88.3588249 576.384206,85.4798406 C557.286852,80.1241473 524.436187,84.1577693 494.637711,113.028066 C491.516007,116.02882 485.754867,123.298038 481.060363,129.134287 L475.034193,136.649218 C460.511862,153.610001 445.548538,171.197029 420.807352,166.282751 C417.555306,164.943284 414.131642,162.22086 412.815182,158.872193 C412.104816,156.95432 412.15478,155.027749 412.965076,153.288181 L413.271381,152.670635 C426.987761,143.03778 441.086479,130.534638 455.565363,115.36561 C479.878591,89.354727 509.653171,45.5980812 505.745067,34.7301332 C502.836256,27.1586655 494.157615,26.8933816 491.533385,27.0195001 Z M290.564743,112.482277 C304.042161,105.880618 320.882417,106.356825 333.438748,113.699974 C333.438748,113.699974 334.881206,114.530617 335.604607,114.974207 C335.018065,115.807025 326.356804,127.881798 326.356804,127.881798 C312.099502,145.225286 284.59071,162.403515 272.84033,161.333681 L272.84033,161.307587 C267.359426,160.833555 263.527355,158.141574 262.57151,154.049242 L262.380341,150.600549 C262.380341,138.867166 277.967136,120.732175 286.137441,115.18513 C286.048374,115.24384 290.564743,112.482277 290.564743,112.482277 Z M450.038838,70.4999897 C456.577689,62.4740602 467.302708,55.3896716 470.509134,53.8871202 C472.976953,52.7172611 474.295585,54.1132639 474.645337,54.5459813 C475.186259,55.2091915 475.366566,56.1159409 475.366566,57.020516 C475.366566,58.086001 475.047227,59.1384395 474.675751,59.5950759 L474.795231,59.6146461 C469.077538,79.5783575 432.93138,121.936826 412.137401,136.779685 C412.137401,136.779685 409.645686,138.5323 408.157608,139.602134 C408.370501,138.014778 408.794114,134.813974 408.794114,134.813974 L408.794114,134.813974 C410.562428,120.610406 437.452094,85.9777915 450.038838,70.4999897 Z M490.690504,161.129282 L490.340751,160.907487 C484.727332,156.845596 482.956846,151.113722 485.281288,144.377247 C487.384148,136.544844 509.114421,112.504021 526.30443,109.155354 C541.906432,106.126332 548.14115,111.416791 551.14989,113.932641 C551.14989,113.978305 552.785689,115.265584 553.572089,115.939667 C552.909514,116.648541 545.125892,125.002814 545.125892,125.002814 C533.657921,141.193838 504.960839,167.778778 490.690504,161.129282 Z" id="path2307"></path>
        </g>
    </g>
</svg>