<svg width="44" height="40" viewBox="0 0 44 40" fill="none" xmlns="http://www.w3.org/2000/svg">
<g clip-path="url(#clip0_3710_94978)">
<path d="M34.0576 21.3233C28.9245 21.3233 24.764 25.1682 24.764 29.911C24.764 34.6544 28.9245 38.5 34.0576 38.5C39.1899 38.5 43.3503 34.6544 43.3503 29.911C43.3503 25.1682 39.1899 21.3233 34.0576 21.3233ZM9.913 21.3237C4.78075 21.3242 0.619873 25.1682 0.619873 29.9115C0.619873 34.6544 4.78075 38.4996 9.913 38.4996C15.0457 38.4996 19.2066 34.6544 19.2066 29.9115C19.2066 25.1681 15.0457 21.3237 9.91255 21.3237H9.913ZM31.2782 10.5881C31.2782 15.331 27.1178 19.1771 21.9856 19.1771C16.8524 19.1771 12.692 15.331 12.692 10.5881C12.692 5.84522 16.8524 2 21.9855 2C27.1178 2 31.2778 5.84522 31.2778 10.5881H31.2782Z" fill="url(#paint0_radial_3710_94978)"/>
</g>
<defs>
<radialGradient id="paint0_radial_3710_94978" cx="0" cy="0" r="1" gradientUnits="userSpaceOnUse" gradientTransform="translate(21.9909 21.9708) scale(28.3303 24.1995)">
<stop stop-color="#FFB900"/>
<stop offset="0.6" stop-color="#F95D8F"/>
<stop offset="0.999" stop-color="#F95353"/>
</radialGradient>
<clipPath id="clip0_3710_94978">
<rect width="43.2713" height="40" fill="white" transform="translate(0.364258)"/>
</clipPath>
</defs>
</svg>
