<svg width="40" height="40" viewBox="0 0 40 40" fill="none" xmlns="http://www.w3.org/2000/svg">
<g clip-path="url(#clip0_3785_43454)">
<path fill-rule="evenodd" clip-rule="evenodd" d="M20 0C8.95922 0 0.402588 8.18841 0.402588 19.2475C0.402588 25.0324 2.74477 30.0309 6.55785 33.4844C6.87728 33.7759 7.07042 34.1791 7.08619 34.6143L7.1927 38.1435C7.22818 39.2694 8.37561 40 9.39301 39.5488L13.2809 37.8122C13.6099 37.6647 13.9789 37.6365 14.3259 37.7323C16.1121 38.2314 18.0167 38.4948 20 38.4948C31.0408 38.4948 39.5974 30.3064 39.5974 19.2474C39.5974 8.18841 31.0408 0 20 0Z" fill="url(#paint0_linear_3785_43454)"/>
<path fill-rule="evenodd" clip-rule="evenodd" d="M8.23376 24.8768L13.9907 15.6304C14.9055 14.1612 16.8692 13.7939 18.2414 14.8359L22.8193 18.3133C23.0239 18.4682 23.2725 18.5516 23.5278 18.5509C23.7831 18.5502 24.0313 18.4654 24.235 18.3093L30.4179 13.5583C31.2419 12.9236 32.3224 13.9257 31.7664 14.812L26.0133 24.0544C25.0985 25.5236 23.1349 25.891 21.7627 24.8489L17.1847 21.3715C16.9802 21.2166 16.7315 21.1332 16.4762 21.1339C16.2209 21.1347 15.9727 21.2194 15.7691 21.3755L9.58226 26.1305C8.75819 26.7653 7.67769 25.7632 8.23376 24.8768Z" fill="white"/>
</g>
<defs>
<linearGradient id="paint0_linear_3785_43454" x1="20" y1="0" x2="20" y2="39.6845" gradientUnits="userSpaceOnUse">
<stop stop-color="#00B2FF"/>
<stop offset="1" stop-color="#006AFF"/>
</linearGradient>
<clipPath id="clip0_3785_43454">
<rect width="39.4667" height="40" fill="white" transform="translate(0.266602)"/>
</clipPath>
</defs>
</svg>
