<svg width="40" height="40" viewBox="0 0 40 40" fill="none" xmlns="http://www.w3.org/2000/svg">
<g clip-path="url(#clip0_3710_94980)">
<path fill-rule="evenodd" clip-rule="evenodd" d="M20 0C31.0457 0 40 8.95432 40 20C40 31.0457 31.0457 40 20 40C8.95432 40 0 31.0457 0 20C0 8.95432 8.95432 0 20 0Z" fill="url(#paint0_linear_3710_94980)"/>
<path d="M22.3567 39.8318V24.3647H26.5827L27.1429 18.921H22.3567L22.3638 16.1962C22.3638 14.7763 22.4946 14.0159 24.4711 14.0159H27.1133V8.57129H22.8863C17.809 8.57129 16.0222 11.2119 16.0222 15.6533V18.9214H12.8572V24.3656H16.0222V39.6125C17.2552 39.8659 18.53 39.9999 19.8351 39.9999C20.6783 39.9999 21.5206 39.9437 22.3567 39.8318Z" fill="white"/>
</g>
<defs>
<linearGradient id="paint0_linear_3710_94980" x1="20" y1="-0.36442" x2="20" y2="41.7056" gradientUnits="userSpaceOnUse">
<stop stop-color="#00B2FF"/>
<stop offset="1" stop-color="#006AFF"/>
</linearGradient>
<clipPath id="clip0_3710_94980">
<rect width="40" height="40" fill="white"/>
</clipPath>
</defs>
</svg>
