<svg width="40" height="40" viewBox="0 0 40 40" fill="none" xmlns="http://www.w3.org/2000/svg">
<g clip-path="url(#clip0_3785_43458)">
<path d="M2.95758 35.6018H9.23633V20.1473L0.266602 13.3291V32.8746C0.266602 34.3814 1.4708 35.602 2.95758 35.602V35.6018Z" fill="#4285F4"/>
<path d="M30.7634 35.6018H37.0423C38.529 35.6018 39.7332 34.3814 39.7332 32.8746V13.3291L30.7634 20.1473V35.6018Z" fill="#34A853"/>
<path d="M30.7634 8.32932V20.1475L39.7332 13.3293V9.693C39.7332 6.32253 35.9368 4.39753 33.275 6.42026L30.7634 8.32932Z" fill="#FBBC04"/>
<path fill-rule="evenodd" clip-rule="evenodd" d="M9.23633 20.1473V8.3291L19.9999 16.511L30.7635 8.3291V20.1473L19.9999 28.3291L9.23633 20.1473Z" fill="#EA4335"/>
<path d="M0.266602 9.693V13.3293L9.23633 20.1475V8.32933L6.7248 6.42027C4.06296 4.39753 0.266602 6.32253 0.266602 9.69284V9.693Z" fill="#C5221F"/>
</g>
<defs>
<clipPath id="clip0_3785_43458">
<rect width="39.4667" height="40" fill="white" transform="translate(0.266602)"/>
</clipPath>
</defs>
</svg>
