<svg width="142" height="40" viewBox="0 0 142 40" fill="none" xmlns="http://www.w3.org/2000/svg">
<g clip-path="url(#clip0_3710_94539)">
<path d="M15.728 22.6383H5.36629V33.5535H0.445801V6.62109H5.36629V17.9045H15.728V6.62109H20.6474V33.5535H15.728V22.6383Z" fill="#213343"/>
<path d="M36.3913 24.8484C36.3913 27.0915 34.5641 28.9166 32.3215 28.9166C30.0783 28.9166 28.2523 27.0915 28.2523 24.8484V13.313H23.593V24.8484C23.593 29.661 27.5087 33.5757 32.3215 33.5757C37.1334 33.5757 41.049 29.661 41.049 24.8484V13.313H36.3913V24.8484Z" fill="#213343"/>
<path d="M70.9648 14.5007C70.9648 12.1356 72.5302 11.3856 74.2441 11.3856C75.6241 11.3856 77.4502 12.4359 78.6417 13.7121L81.6972 10.1103C80.1703 8.04731 77.0773 6.62109 74.5427 6.62109C69.473 6.62109 65.8203 9.58536 65.8203 14.5007C65.8203 23.6176 76.9654 20.7277 76.9654 25.8316C76.9654 27.4055 75.4377 28.795 73.6865 28.795C70.9274 28.795 70.0325 27.4443 68.7657 26.0184L65.3733 29.5445C67.5363 32.2086 70.2192 33.5601 73.4248 33.5601C78.2329 33.5601 82.1095 30.5584 82.1095 25.8678C82.1095 15.738 70.9648 18.89 70.9648 14.5007Z" fill="#213343"/>
<path d="M139.913 29.2512C137.156 29.2512 136.373 28.0591 136.373 26.232V18.1444H140.658V14.0449H136.373V8.63965L131.641 10.7639V27.2386C131.641 31.4508 134.547 33.5758 138.533 33.5758C139.13 33.5758 139.951 33.5373 140.398 33.4268L141.554 29.178C141.032 29.214 140.436 29.2512 139.913 29.2512Z" fill="#213343"/>
<path d="M54.1513 13.4483C51.8402 13.4483 50.227 14.1191 48.6691 15.6483V6.78223H43.9949V23.2137C43.9949 29.3638 48.4414 33.576 53.4375 33.576C58.9913 33.576 63.8574 29.2889 63.8574 23.5125C63.8574 17.8093 59.3703 13.4483 54.1513 13.4483ZM54.1223 28.8718C51.1941 28.8718 48.8207 26.4983 48.8207 23.5703C48.8207 20.6424 51.1941 18.2688 54.1223 18.2688C57.05 18.2688 59.4236 20.6424 59.4236 23.5703C59.4236 26.4982 57.05 28.8718 54.1223 28.8718Z" fill="#213343"/>
<path d="M104.897 23.2695C104.897 17.4931 100.031 13.2061 94.4773 13.2061C89.4812 13.2061 85.0347 17.4182 85.0347 23.5684V39.9998H89.7089V31.1338C91.2668 32.663 92.88 33.3338 95.1911 33.3338C100.41 33.3338 104.897 28.9727 104.897 23.2695ZM100.463 23.2118C100.463 26.1396 98.0898 28.5132 95.162 28.5132C92.2339 28.5132 89.8605 26.1396 89.8605 23.2118C89.8605 20.2838 92.2339 17.9103 95.162 17.9103C98.0898 17.9103 100.463 20.2838 100.463 23.2118Z" fill="#213343"/>
<path d="M120.001 12.9798V8.28464C121.226 7.70567 122.085 6.46585 122.085 5.02693V4.91844C122.085 2.93278 120.46 1.3081 118.475 1.3081H118.366C116.381 1.3081 114.756 2.93278 114.756 4.91844V5.02693C114.756 6.46585 115.615 7.70585 116.84 8.28473V12.9799C115.016 13.2618 113.348 14.0144 111.973 15.1219L99.0815 5.09375C99.1663 4.76718 99.2259 4.43071 99.2262 4.07763C99.2291 1.8285 97.4082 0.00291159 95.159 3.25357e-06C92.9098 -0.00280925 91.0842 1.81815 91.0813 4.06728C91.0786 6.31641 92.8995 8.142 95.1487 8.14482C95.8817 8.14573 96.5601 7.93755 97.1548 7.59936L109.836 17.4643C108.757 19.0921 108.126 21.0421 108.126 23.1412C108.126 25.3389 108.82 27.3715 109.993 29.0436L106.137 32.9001C105.832 32.8087 105.515 32.7447 105.181 32.7447C103.332 32.7447 101.834 34.243 101.834 36.0912C101.834 37.9394 103.332 39.4377 105.181 39.4377C107.029 39.4377 108.527 37.9394 108.527 36.0912C108.527 35.7565 108.463 35.44 108.372 35.1351L112.186 31.3204C113.918 32.6423 116.074 33.4362 118.421 33.4362C124.107 33.4362 128.716 28.8269 128.716 23.1412C128.716 17.9941 124.935 13.7418 120.001 12.9798ZM118.421 28.4193C115.506 28.4193 113.142 26.0562 113.142 23.1411C113.142 20.2262 115.506 17.863 118.421 17.863C121.336 17.863 123.699 20.2262 123.699 23.1411C123.699 26.0562 121.336 28.4193 118.421 28.4193Z" fill="#FF5C35"/>
</g>
<defs>
<clipPath id="clip0_3710_94539">
<rect width="141.108" height="40" fill="white" transform="translate(0.445801)"/>
</clipPath>
</defs>
</svg>
