<svg width="40" height="40" viewBox="0 0 40 40" fill="none" xmlns="http://www.w3.org/2000/svg">
<g clip-path="url(#clip0_3785_43550)">
<path d="M20.0064 0C11.7679 0 9.35844 0.00861719 8.89009 0.0479999C7.19942 0.190473 6.14739 0.460347 5.00123 1.03884C4.11796 1.48351 3.42135 1.99893 2.73384 2.72146C1.48178 4.03911 0.722947 5.66016 0.448244 7.5871C0.314696 8.52256 0.275838 8.71334 0.267947 13.4916C0.264919 15.0844 0.267947 17.1805 0.267947 19.9921C0.267947 28.3375 0.277046 30.7777 0.316516 31.2516C0.453106 32.9194 0.711102 33.9687 1.25747 35.1165C2.30162 37.3136 4.29582 38.963 6.64517 39.5784C7.45864 39.7907 8.3571 39.9077 9.51052 39.9631C9.99921 39.9846 14.9802 40 19.9642 40C24.9482 40 29.9322 39.9938 30.4087 39.9692C31.7443 39.9055 32.5198 39.8 33.3773 39.5753C35.7418 38.9568 37.6996 37.3321 38.765 35.1042C39.3007 33.9841 39.5724 32.8948 39.6953 31.314C39.722 30.9694 39.7333 25.4745 39.7333 19.9869C39.7333 14.4985 39.7211 9.01368 39.6944 8.66903C39.57 7.06274 39.2983 5.98266 38.7453 4.84102C38.2915 3.90647 37.7876 3.20856 37.0561 2.49499C35.7506 1.23087 34.154 0.461571 32.2515 0.183398C31.3297 0.0483024 31.146 0.00829984 26.4291 0H20.0064Z" fill="url(#paint0_radial_3785_43550)"/>
<path d="M20.0064 0C11.7679 0 9.35844 0.00861719 8.89009 0.0479999C7.19942 0.190473 6.14739 0.460347 5.00123 1.03884C4.11796 1.48351 3.42135 1.99893 2.73384 2.72146C1.48178 4.03911 0.722947 5.66016 0.448244 7.5871C0.314696 8.52256 0.275838 8.71334 0.267947 13.4916C0.264919 15.0844 0.267947 17.1805 0.267947 19.9921C0.267947 28.3375 0.277046 30.7777 0.316516 31.2516C0.453106 32.9194 0.711102 33.9687 1.25747 35.1165C2.30162 37.3136 4.29582 38.963 6.64517 39.5784C7.45864 39.7907 8.3571 39.9077 9.51052 39.9631C9.99921 39.9846 14.9802 40 19.9642 40C24.9482 40 29.9322 39.9938 30.4087 39.9692C31.7443 39.9055 32.5198 39.8 33.3773 39.5753C35.7418 38.9568 37.6996 37.3321 38.765 35.1042C39.3007 33.9841 39.5724 32.8948 39.6953 31.314C39.722 30.9694 39.7333 25.4745 39.7333 19.9869C39.7333 14.4985 39.7211 9.01368 39.6944 8.66903C39.57 7.06274 39.2983 5.98266 38.7453 4.84102C38.2915 3.90647 37.7876 3.20856 37.0561 2.49499C35.7506 1.23087 34.154 0.461571 32.2515 0.183398C31.3297 0.0483024 31.146 0.00829984 26.4291 0H20.0064Z" fill="url(#paint1_radial_3785_43550)"/>
<path d="M20.0064 0C11.7679 0 9.35844 0.00861719 8.89009 0.0479999C7.19942 0.190473 6.14739 0.460347 5.00123 1.03884C4.11796 1.48351 3.42135 1.99893 2.73384 2.72146C1.48178 4.03911 0.722947 5.66016 0.448244 7.5871C0.314696 8.52256 0.275838 8.71334 0.267947 13.4916C0.264919 15.0844 0.267947 17.1805 0.267947 19.9921C0.267947 28.3375 0.277046 30.7777 0.316516 31.2516C0.453106 32.9194 0.711102 33.9687 1.25747 35.1165C2.30162 37.3136 4.29582 38.963 6.64517 39.5784C7.45864 39.7907 8.3571 39.9077 9.51052 39.9631C9.99921 39.9846 14.9802 40 19.9642 40C24.9482 40 29.9322 39.9938 30.4087 39.9692C31.7443 39.9055 32.5198 39.8 33.3773 39.5753C35.7418 38.9568 37.6996 37.3321 38.765 35.1042C39.3007 33.9841 39.5724 32.8948 39.6953 31.314C39.722 30.9694 39.7333 25.4745 39.7333 19.9869C39.7333 14.4985 39.7211 9.01368 39.6944 8.66903C39.57 7.06274 39.2983 5.98266 38.7453 4.84102C38.2915 3.90647 37.7876 3.20856 37.0561 2.49499C35.7506 1.23087 34.154 0.461571 32.2515 0.183398C31.3297 0.0483024 31.146 0.00829984 26.4291 0H20.0064Z" fill="url(#paint2_radial_3785_43550)"/>
<path d="M20.0064 0C11.7679 0 9.35844 0.00861719 8.89009 0.0479999C7.19942 0.190473 6.14739 0.460347 5.00123 1.03884C4.11796 1.48351 3.42135 1.99893 2.73384 2.72146C1.48178 4.03911 0.722947 5.66016 0.448244 7.5871C0.314696 8.52256 0.275838 8.71334 0.267947 13.4916C0.264919 15.0844 0.267947 17.1805 0.267947 19.9921C0.267947 28.3375 0.277046 30.7777 0.316516 31.2516C0.453106 32.9194 0.711102 33.9687 1.25747 35.1165C2.30162 37.3136 4.29582 38.963 6.64517 39.5784C7.45864 39.7907 8.3571 39.9077 9.51052 39.9631C9.99921 39.9846 14.9802 40 19.9642 40C24.9482 40 29.9322 39.9938 30.4087 39.9692C31.7443 39.9055 32.5198 39.8 33.3773 39.5753C35.7418 38.9568 37.6996 37.3321 38.765 35.1042C39.3007 33.9841 39.5724 32.8948 39.6953 31.314C39.722 30.9694 39.7333 25.4745 39.7333 19.9869C39.7333 14.4985 39.7211 9.01368 39.6944 8.66903C39.57 7.06274 39.2983 5.98266 38.7453 4.84102C38.2915 3.90647 37.7876 3.20856 37.0561 2.49499C35.7506 1.23087 34.154 0.461571 32.2515 0.183398C31.3297 0.0483024 31.146 0.00829984 26.4291 0H20.0064Z" fill="url(#paint3_radial_3785_43550)"/>
<path d="M20.008 5.13623C16.0228 5.13623 15.5226 5.15387 13.9574 5.22602C12.3952 5.29846 11.3289 5.54894 10.3959 5.91646C9.43078 6.29603 8.61209 6.80379 7.79647 7.63013C6.98024 8.45618 6.47886 9.28531 6.10284 10.2624C5.73905 11.2077 5.49142 12.2879 5.42111 13.8694C5.35111 15.4546 5.33276 15.9614 5.33276 19.9975C5.33276 24.0336 5.3505 24.5385 5.42141 26.1237C5.49327 27.7058 5.74058 28.7858 6.10314 29.7307C6.47825 30.7081 6.97961 31.5372 7.79554 32.3633C8.61088 33.1899 9.42956 33.699 10.3941 34.0785C11.3277 34.446 12.3943 34.6965 13.9562 34.769C15.5214 34.8411 16.0212 34.8587 20.0061 34.8587C23.9917 34.8587 24.4903 34.8411 26.0555 34.769C27.6177 34.6965 28.6852 34.446 29.6188 34.0785C30.5837 33.699 31.4011 33.1899 32.2165 32.3633C33.0327 31.5372 33.5341 30.7081 33.9101 29.731C34.2708 28.7858 34.5184 27.7055 34.5918 26.124C34.6621 24.5388 34.6805 24.0336 34.6805 19.9975C34.6805 15.9614 34.6621 15.4549 34.5918 13.8697C34.5184 12.2876 34.2708 11.2077 33.9101 10.2628C33.5341 9.28531 33.0327 8.45617 32.2165 7.63013C31.4002 6.80347 30.584 6.29571 29.6179 5.91645C28.6825 5.54894 27.6155 5.29846 26.0534 5.22602C24.4881 5.15387 23.9898 5.13623 20.0034 5.13623H20.008ZM18.6916 7.81436C19.0823 7.81374 19.5182 7.81436 20.008 7.81436C23.9259 7.81436 24.3903 7.8286 25.9375 7.89981C27.3682 7.96607 28.1447 8.20817 28.662 8.41158C29.3468 8.68094 29.835 9.00294 30.3483 9.52308C30.8619 10.0432 31.1798 10.5386 31.4464 11.2321C31.6472 11.7554 31.8866 12.5418 31.9517 13.9908C32.022 15.5574 32.0373 16.028 32.0373 19.9941C32.0373 23.9602 32.022 24.4308 31.9517 25.9974C31.8863 27.4464 31.6472 28.2328 31.4464 28.756C31.1804 29.4496 30.8619 29.9434 30.3483 30.4632C29.8347 30.9834 29.3471 31.3053 28.662 31.5747C28.1453 31.7791 27.3682 32.0205 25.9375 32.0868C24.3906 32.158 23.9259 32.1735 20.008 32.1735C16.0897 32.1735 15.6254 32.158 14.0785 32.0868C12.6478 32.0199 11.8713 31.7778 11.3537 31.5744C10.6689 31.305 10.1798 30.983 9.66618 30.4629C9.15259 29.9428 8.83466 29.4486 8.56807 28.7548C8.36722 28.2316 8.12785 27.4451 8.06274 25.9962C7.99243 24.4295 7.97836 23.9589 7.97836 19.9904C7.97836 16.0218 7.99243 15.5537 8.06274 13.987C8.12817 12.5381 8.36722 11.7517 8.56807 11.2278C8.83403 10.5343 9.15259 10.0389 9.66618 9.51876C10.1798 8.99861 10.6689 8.67662 11.3537 8.40664C11.871 8.20229 12.6478 7.96081 14.0785 7.89423C15.4321 7.8323 15.9567 7.81374 18.6916 7.81062L18.6916 7.81436ZM27.8409 10.2819C26.8687 10.2819 26.08 11.0798 26.08 12.0647C26.08 13.0492 26.8687 13.848 27.8409 13.848C28.813 13.848 29.6017 13.0492 29.6017 12.0647C29.6017 11.0801 28.813 10.2813 27.8408 10.2813L27.8409 10.2819ZM20.008 12.3656C15.8464 12.3656 12.4723 15.7828 12.4723 19.9975C12.4723 24.2122 15.8464 27.6278 20.008 27.6278C24.1696 27.6278 27.5425 24.2122 27.5425 19.9975C27.5425 15.7828 24.1693 12.3656 20.0077 12.3656H20.008ZM20.008 15.0437C22.7092 15.0437 24.8993 17.2615 24.8993 19.9975C24.8993 22.7332 22.7092 24.9512 20.008 24.9512C17.3064 24.9512 15.1167 22.7332 15.1167 19.9975C15.1167 17.2615 17.3064 15.0437 20.008 15.0437Z" fill="white"/>
</g>
<defs>
<radialGradient id="paint0_radial_3785_43550" cx="0" cy="0" r="1" gradientUnits="userSpaceOnUse" gradientTransform="translate(38.4589 18.7485) rotate(164.048) scale(25.2422 18.3947)">
<stop stop-color="#FF005F"/>
<stop offset="1" stop-color="#FC01D8"/>
</radialGradient>
<radialGradient id="paint1_radial_3785_43550" cx="0" cy="0" r="1" gradientUnits="userSpaceOnUse" gradientTransform="translate(10.7496 43.0808) rotate(-90) scale(31.9288 33.4241)">
<stop stop-color="#FFCC00"/>
<stop offset="0.1242" stop-color="#FFCC00"/>
<stop offset="0.5672" stop-color="#FE4A05"/>
<stop offset="0.6942" stop-color="#FF0F3F"/>
<stop offset="1" stop-color="#FE0657" stop-opacity="0"/>
</radialGradient>
<radialGradient id="paint2_radial_3785_43550" cx="0" cy="0" r="1" gradientUnits="userSpaceOnUse" gradientTransform="translate(20.9972 39.4359) rotate(-60.2031) scale(13.1587 17.0163)">
<stop stop-color="#FFCC00"/>
<stop offset="1" stop-color="#FFCC00" stop-opacity="0"/>
</radialGradient>
<radialGradient id="paint3_radial_3785_43550" cx="0" cy="0" r="1" gradientUnits="userSpaceOnUse" gradientTransform="translate(5.62138 1.62879) rotate(164.072) scale(24.9622 8.60232)">
<stop stop-color="#780CFF"/>
<stop offset="1" stop-color="#820BFF" stop-opacity="0"/>
</radialGradient>
<clipPath id="clip0_3785_43550">
<rect width="39.4667" height="40" fill="white" transform="translate(0.266602)"/>
</clipPath>
</defs>
</svg>
