<svg width="40" height="40" viewBox="0 0 40 40" fill="none" xmlns="http://www.w3.org/2000/svg">
<path d="M36.1472 4.28467H19.178C19.178 6.34373 19.985 8.31846 21.4216 9.77443C22.8582 11.2304 24.8066 12.0484 26.8382 12.0484H29.9641V15.1073C29.9669 19.3912 33.3926 22.8633 37.6193 22.8661V5.77664C37.6193 4.95288 36.9604 4.28467 36.1472 4.28467Z" fill="#2684FF"/>
<path d="M27.7509 12.8545H10.7817C10.7844 17.1384 14.2101 20.6105 18.437 20.6133H21.5629V23.682C21.5683 27.9659 24.9963 31.4356 29.2231 31.4356V14.3467C29.2231 13.5227 28.5639 12.8545 27.7509 12.8545Z" fill="url(#paint0_linear_3785_43503)"/>
<path d="M19.3496 21.4189H2.38037C2.38037 25.7067 5.81008 29.1826 10.0406 29.1826H13.1763V32.2414C13.179 36.5214 16.5988 39.992 20.8218 40.0001V22.9111C20.8218 22.087 20.1627 21.4189 19.3496 21.4189Z" fill="url(#paint1_linear_3785_43503)"/>
<defs>
<linearGradient id="paint0_linear_3785_43503" x1="28.86" y1="12.8844" x2="21.5849" y2="20.3744" gradientUnits="userSpaceOnUse">
<stop offset="0.18" stop-color="#0052CC"/>
<stop offset="1" stop-color="#2684FF"/>
</linearGradient>
<linearGradient id="paint1_linear_3785_43503" x1="20.9445" y1="21.5035" x2="12.5357" y2="29.6663" gradientUnits="userSpaceOnUse">
<stop offset="0.18" stop-color="#0052CC"/>
<stop offset="1" stop-color="#2684FF"/>
</linearGradient>
</defs>
</svg>
