<svg width="40" height="40" viewBox="0 0 40 40" fill="none" xmlns="http://www.w3.org/2000/svg">
<g clip-path="url(#clip0_3785_43469)">
<path d="M38.1477 36.1801C38.0069 36.3064 37.8307 36.3695 37.6194 36.3695C37.4081 36.3695 37.232 36.3064 37.0911 36.1801C36.9502 36.0538 36.8798 35.896 36.8798 35.7066C36.8798 35.5171 36.9502 35.3435 37.1087 35.2172C37.2496 35.0909 37.4257 35.0436 37.6194 35.0436C37.8307 35.0436 38.0069 35.1067 38.1477 35.233C38.2886 35.3593 38.3591 35.5171 38.3591 35.7066C38.3767 35.896 38.3062 36.0538 38.1477 36.1801ZM37.1968 35.3119C37.0735 35.4224 37.0207 35.5487 37.0207 35.6908C37.0207 35.8486 37.0735 35.9749 37.1968 36.0854C37.32 36.1959 37.4609 36.2433 37.637 36.2433C37.8131 36.2433 37.954 36.1959 38.0773 36.0854C38.2006 35.9749 38.2534 35.8486 38.2534 35.6908C38.2534 35.5487 38.2006 35.4066 38.0773 35.3119C37.954 35.2014 37.8131 35.1383 37.637 35.1383C37.4609 35.1541 37.32 35.2014 37.1968 35.3119ZM37.866 36.0381C37.7955 36.0854 37.7251 36.1012 37.6546 36.1012C37.549 36.1012 37.4433 36.0696 37.3553 35.9907C37.2672 35.9118 37.232 35.8171 37.232 35.7066C37.232 35.5961 37.2672 35.5014 37.3377 35.4224C37.4081 35.3435 37.5138 35.3119 37.637 35.3119C37.7075 35.3119 37.7779 35.3277 37.8484 35.3593C37.9364 35.4066 38.0069 35.4856 38.0245 35.6119H37.8307C37.8131 35.5645 37.7955 35.5171 37.7603 35.5014C37.7251 35.4856 37.6899 35.4698 37.6546 35.4698C37.6018 35.4698 37.549 35.4856 37.5138 35.5329C37.4785 35.5803 37.4609 35.6434 37.4609 35.7223C37.4609 35.8013 37.4785 35.8644 37.5138 35.896C37.549 35.9276 37.6018 35.9591 37.6546 35.9591C37.7075 35.9591 37.7427 35.9433 37.7779 35.9276L37.8307 35.8328H38.0069C37.9892 35.9276 37.9364 35.9907 37.866 36.0381ZM39.7327 29.0294C39.7327 28.9662 39.7151 28.9031 39.7151 28.8399C39.7151 28.7926 39.6975 28.761 39.6975 28.7295C39.6799 28.6347 39.6623 28.5558 39.627 28.4611C39.5566 28.2875 39.4509 28.1138 39.31 27.9718C39.1692 27.8297 39.0107 27.7192 38.8522 27.6403C38.6761 27.5613 38.5 27.514 38.3591 27.4824C38.3062 27.4824 38.271 27.4666 38.2358 27.4666C38.4295 26.7089 38.183 26.1249 38.0245 25.8565L38.0597 25.825C38.271 25.6355 38.4471 25.4619 38.6056 25.2882L38.6408 25.2567C38.7641 25.0988 38.8346 24.941 38.8874 24.7989C38.9226 24.6726 38.9578 24.5621 38.9578 24.4516V24.3569V24.2938V24.1517C38.9402 23.9149 38.905 23.615 38.7289 23.2835C38.6408 23.1257 38.5176 22.952 38.3591 22.7942C38.2006 22.6363 38.0069 22.4942 37.7779 22.3838C37.7603 22.368 37.7427 22.368 37.7251 22.3522C37.2496 21.7366 36.7213 21.2472 36.2458 20.8841C35.9992 20.6947 35.7703 20.5369 35.5766 20.4106C35.3829 20.2843 35.2244 20.1896 35.1363 20.1265C34.925 19.9844 34.7665 19.9055 34.6961 19.8739C34.5199 19.7792 34.3967 19.7002 34.3262 19.6529C34.2734 19.6055 34.2382 19.5898 34.2206 19.574C34.2206 19.574 34.2206 19.5582 34.203 19.5266C34.1853 19.4793 34.1853 19.4161 34.1853 19.3056C34.1853 19.1478 34.1853 18.911 34.203 18.5953C34.2382 18.0901 34.291 17.4114 34.3615 16.48C34.3791 16.1801 34.3791 15.896 34.3791 15.6434C34.3615 15.2172 34.291 14.8384 34.203 14.4911C34.1853 14.4122 34.1501 14.3332 34.1325 14.2543C34.1149 14.1912 34.0973 14.1596 34.0797 14.128C34.0621 14.0807 34.0445 14.0333 34.0092 13.9702C33.9916 13.9386 33.9916 13.907 33.9564 13.8755C33.9212 13.7965 33.886 13.7176 33.8331 13.6387L33.8155 13.6229L33.7979 13.5755L33.7803 13.544C33.6922 13.4019 33.5866 13.2756 33.4809 13.1651C33.4281 12.9441 33.34 12.6284 33.1815 12.2654C33.0407 11.9497 32.8645 11.6024 32.6004 11.2551C32.5123 11.1288 32.4067 11.0183 32.301 10.9078L32.3362 10.8763C32.3891 10.8289 33.6218 9.66078 34.608 8.14539C36.4219 5.31982 35.8231 3.59922 34.9954 2.6521L34.9778 2.62053L34.9602 2.58896C34.1677 1.79969 33.0759 1.32614 31.7551 1.16828C28.9902 0.852576 25.8555 2.08383 25.0278 2.43111L23.5133 0.947288C23.3724 0.821005 23.2315 0.694723 23.073 0.600011C22.9145 0.505299 22.7384 0.410587 22.5623 0.33166C22.2101 0.189592 21.8227 0.0948804 21.4 0.0475244C20.5723 -0.0471875 19.6213 0.0475244 18.5999 0.284304C17.0678 0.631581 15.3596 1.32614 13.5633 2.28904C11.767 3.25194 9.90028 4.49898 8.08638 5.9828C5.86744 7.78233 4.03593 9.69236 2.69753 11.5235C2.02832 12.4232 1.48239 13.3072 1.07735 14.1596C0.672302 14.9962 0.408143 15.8013 0.302479 16.5274C0.232036 17.0641 0.232036 17.5692 0.355311 18.027C0.408143 18.2322 0.478585 18.4216 0.584249 18.6111C0.707523 18.8478 0.866019 19.0688 1.05974 19.2583L2.62708 20.7263L2.80319 20.8841L2.78558 20.8999L2.73275 20.9946C2.69753 21.042 2.67991 21.0894 2.64469 21.1209L2.59186 21.2156C2.57425 21.263 2.53903 21.3104 2.52142 21.3577L2.46859 21.4524C2.45098 21.4998 2.41576 21.5471 2.39814 21.5945C2.38053 21.6261 2.36292 21.6576 2.36292 21.6892L2.31009 21.8313C2.29248 21.8628 2.29248 21.8944 2.27487 21.926C2.25726 21.9733 2.23965 22.0207 2.22204 22.0838C2.22204 22.0996 2.20443 22.1154 2.20443 22.1312C2.20443 22.147 2.18682 22.1628 2.18682 22.1785C2.16921 22.2259 2.1516 22.289 2.13399 22.3364C2.13399 22.368 2.11637 22.3995 2.11637 22.4311C2.11637 22.4469 2.09876 22.4785 2.09876 22.4942C2.09876 22.5258 2.08115 22.5574 2.08115 22.589C2.08115 22.6205 2.06354 22.6521 2.06354 22.6837C2.04593 22.7468 2.04593 22.81 2.02832 22.8889C2.02832 22.9047 2.02832 22.9205 2.01071 22.952V22.9678C2.01071 23.0152 1.9931 23.0625 1.9931 23.0941C1.9931 23.1572 1.97549 23.2362 1.97549 23.2993V24.0886C1.97549 24.1201 1.97549 24.1517 1.9931 24.1833C1.9931 24.2148 1.9931 24.2622 2.01071 24.3096V24.3569C2.01071 24.3885 2.02832 24.4358 2.02832 24.4674C2.02832 24.499 2.04593 24.5306 2.04593 24.5779C2.04593 24.5937 2.04593 24.6095 2.06354 24.6253C2.06354 24.6411 2.08115 24.6726 2.08115 24.6884V24.72C2.08115 24.7516 2.09876 24.7831 2.11637 24.8463C2.11637 24.862 2.11637 24.862 2.13399 24.8778C2.1516 24.9094 2.1516 24.941 2.1516 24.9568L2.16921 24.9883C2.16921 25.0041 2.16921 25.0041 2.18682 25.0199L2.20443 25.0515V25.0988C2.20443 25.1146 2.20443 25.1146 2.22204 25.1304L2.23965 25.162C2.23965 25.1935 2.25726 25.2093 2.25726 25.2409C2.27487 25.2725 2.27487 25.304 2.29248 25.3672C2.29248 25.383 2.29248 25.383 2.31009 25.3987C2.3277 25.4461 2.34531 25.4777 2.34531 25.4935C2.36292 25.525 2.38053 25.5566 2.39814 25.6197L2.41576 25.6355C2.43337 25.6671 2.43337 25.6987 2.45098 25.7145L2.46859 25.746C2.46859 25.7618 2.4862 25.7776 2.4862 25.7934C2.4862 25.8092 2.50381 25.8407 2.52142 25.8565L2.53903 25.8881C2.55664 25.9039 2.55664 25.9354 2.57425 25.9512C2.59186 25.967 2.59186 25.9828 2.59186 25.9986C2.60947 26.0302 2.62708 26.0617 2.64469 26.1091L2.6623 26.1249C2.67991 26.1407 2.67991 26.1564 2.69753 26.1722C2.71514 26.188 2.71514 26.2196 2.73275 26.2354C2.75036 26.2512 2.76797 26.2827 2.78558 26.3301L2.80319 26.3459C2.8208 26.3617 2.8208 26.3774 2.83841 26.3932C2.85602 26.4248 2.87363 26.4406 2.87363 26.4564C2.89124 26.4722 2.90885 26.5037 2.92646 26.5353V26.5511C2.94407 26.5669 2.94407 26.5826 2.96169 26.5984C2.9793 26.63 2.99691 26.6458 3.01452 26.6616C3.03213 26.6774 3.04974 26.7089 3.08496 26.7563C3.10257 26.7721 3.12018 26.7879 3.12018 26.8036C3.13779 26.8352 3.1554 26.851 3.17301 26.8668C3.19062 26.8826 3.20823 26.9141 3.22584 26.9457C3.24346 26.9615 3.26107 26.9931 3.27868 27.0089C3.29629 27.0404 3.3139 27.0562 3.34912 27.072L3.40195 27.1193L3.41956 27.1351C3.45478 27.1667 3.47239 27.1983 3.50761 27.2298L3.54284 27.2614L3.59567 27.3088L3.70133 27.4035L3.73655 27.4351L3.78939 27.4824L3.807 27.4982C3.84222 27.5298 3.89505 27.5613 3.93027 27.6087L3.94788 27.6245C3.96549 27.6403 3.9831 27.6403 4.00071 27.6718C4.05354 27.7192 4.10638 27.7508 4.15921 27.7981L4.19443 27.8139L4.21204 27.8297L4.24726 27.8455C4.30009 27.877 4.33531 27.9086 4.38815 27.9402L4.40576 27.956C4.42337 27.9718 4.44098 27.9718 4.44098 27.9718L4.4762 28.0033C4.51142 28.0349 4.54664 28.0507 4.58186 28.0823L4.61709 28.098L4.65231 28.1296L4.66992 28.1454C4.70514 28.1612 4.75797 28.1927 4.79319 28.2085C4.8108 28.2243 4.82841 28.2401 4.86363 28.2401L4.89886 28.2559L4.91647 28.2717H4.93408C5.00452 28.3032 5.05735 28.3348 5.11018 28.3664L5.1454 28.3822L5.35673 28.4769H5.37434L5.40956 28.4927L5.51523 28.54C5.53284 28.54 5.55045 28.5558 5.56806 28.5558C5.58567 28.5716 5.60328 28.5716 5.6385 28.5874H5.65611C5.69133 28.6032 5.72656 28.619 5.76178 28.619H5.77939C5.81461 28.6347 5.84983 28.6505 5.90266 28.6663H5.92027L5.95549 28.6821C5.9731 28.6821 5.99071 28.6979 6.00833 28.6979H6.02594C6.07877 28.7137 6.1316 28.7295 6.20204 28.7452H6.21965C6.30771 28.7768 6.39576 28.7926 6.48381 28.8084H6.50142C6.57187 28.8242 6.65992 28.8399 6.73036 28.8557H6.8008C6.87125 28.8715 6.94169 28.8873 7.01213 28.8873H7.08257C7.13541 28.8873 7.17063 28.9031 7.22346 28.9031C7.22346 28.9189 7.24107 28.9347 7.24107 28.9504C7.36434 29.2504 7.48762 29.5503 7.6285 29.8344C9.70656 34.9962 15.4652 39.0057 22.034 39.7476C28.6028 40.4737 35.6294 36.559 38.4823 31.2709C38.6056 31.0657 38.7113 30.8763 38.8169 30.671C39.0987 30.4027 39.3277 30.1343 39.4685 29.8502C39.6975 29.6766 39.7503 29.3293 39.7327 29.0294Z" fill="#664F44"/>
<path d="M34.1148 3.20459C33.7978 2.88888 33.428 2.6521 33.0229 2.47846C32.9525 2.44689 32.8821 2.4311 32.794 2.41532C32.7588 2.39953 32.7236 2.36796 32.6883 2.35218C32.3361 2.2259 31.9663 2.14697 31.5789 2.09961C29.6769 1.87862 27.4932 2.51003 26.2605 2.95202C26.19 2.98359 26.1196 2.99938 26.0491 3.03095C25.9435 3.0783 25.8378 3.10987 25.7321 3.15723C25.556 3.22037 25.3799 3.2993 25.1862 3.37822C25.151 3.39401 25.1334 3.39401 25.0982 3.40979L24.7635 3.06252L24.6051 2.90466L24.4642 2.7626L24.4113 2.69946L23.1258 1.37349L23.0201 1.26299L22.8792 1.12092H22.8616L22.4918 1.19985L22.0691 1.27878C21.8402 1.18406 21.5584 1.12092 21.2414 1.07357C20.6074 0.994641 19.7973 1.07357 18.8816 1.27878C17.9658 1.48399 16.9268 1.84705 15.835 2.33639C13.6336 3.31508 11.2034 4.81469 8.84353 6.7405C8.01583 7.40348 7.25857 8.09803 6.55415 8.7768C5.86733 9.43979 5.25096 10.1186 4.68742 10.7658C3.54273 12.1075 2.67981 13.4019 2.11627 14.57C1.74644 15.3435 1.51751 16.0538 1.42945 16.6695C1.35901 17.1115 1.37662 17.5061 1.46467 17.8218C1.4999 17.9323 1.53512 18.0112 1.57034 18.1059C1.65839 18.2954 1.76405 18.4532 1.90494 18.5953L3.3314 19.937L3.4899 20.0791L3.50751 20.0633C3.54273 20.016 3.59556 19.9686 3.64839 19.937L3.666 19.9212L3.71884 19.8739C3.75406 19.8265 3.80689 19.795 3.84211 19.7476C3.87733 19.716 3.89494 19.7002 3.93016 19.6845C3.96538 19.6687 3.983 19.6371 4.01822 19.6213L4.05344 19.5897C4.08866 19.574 4.10627 19.5424 4.14149 19.5266C4.17671 19.495 4.22954 19.4635 4.26477 19.4319C4.28238 19.4161 4.3176 19.4003 4.33521 19.3845H4.35282C4.40565 19.353 4.44087 19.3214 4.4937 19.2898C4.52892 19.274 4.54654 19.2583 4.58176 19.2267C4.63459 19.1951 4.66981 19.1635 4.72264 19.132C4.75786 19.1162 4.77547 19.1004 4.81069 19.0846C4.86353 19.053 4.91636 19.0215 4.96919 19.0057C5.00441 18.9899 5.02202 18.9741 5.05724 18.9583C5.11008 18.9268 5.16291 18.911 5.21574 18.8794C5.25096 18.8636 5.26857 18.8478 5.30379 18.8321L5.33901 18.8163C5.39185 18.8005 5.42707 18.7689 5.4799 18.7531C5.49751 18.7373 5.53273 18.7373 5.55034 18.7216C5.58556 18.7058 5.62078 18.69 5.67362 18.6742L5.77928 18.6268L5.8145 18.6111L6.07866 18.5163C6.11388 18.5006 6.13149 18.5006 6.16671 18.4848C6.20194 18.469 6.21955 18.469 6.25477 18.4532L6.28999 18.4374C6.3076 18.4374 6.32521 18.4216 6.34282 18.4216C6.37804 18.4058 6.41326 18.4058 6.46609 18.3901H6.50132C6.55415 18.3743 6.58937 18.3743 6.6422 18.3585C6.67742 18.3427 6.73025 18.3427 6.76548 18.3269C6.81831 18.3111 6.87114 18.3111 6.92397 18.2954C6.94158 18.2954 6.95919 18.2796 6.99441 18.2796C7.01202 18.2796 7.04725 18.2796 7.06486 18.2638C7.11769 18.248 7.17052 18.248 7.22335 18.248C7.27618 18.248 7.31141 18.2322 7.36424 18.2322C7.39946 18.2322 7.43468 18.2164 7.4699 18.2164H7.61079C7.78689 18.2164 7.99822 18.2164 8.20955 18.2322H8.24477C8.4561 18.248 8.70265 18.2796 8.94919 18.3269C9.00203 18.3427 9.07247 18.3427 9.1253 18.3585C9.14291 18.3427 9.14291 18.3111 9.16052 18.2954C9.30141 18.0901 9.42468 17.8691 9.56557 17.6639C10.358 16.48 11.2034 15.4382 12.0663 14.5227C12.3657 14.207 12.665 13.9228 12.9644 13.6387C14.2148 12.4706 15.4651 11.5708 16.5922 10.8763C16.8388 10.7184 17.1029 10.5763 17.3319 10.4343C17.6665 10.2448 17.9835 10.087 18.2828 9.92913C18.5294 9.80285 18.7583 9.69235 18.9873 9.59764C19.3571 9.424 19.6917 9.28193 19.9911 9.17144L20.2552 9.07672C20.3785 9.02937 20.5018 8.98201 20.6074 8.95044C20.5194 8.93466 20.4137 8.93466 20.3257 8.93466H19.9735C19.8854 8.93466 19.7797 8.93466 19.6917 8.95044C19.5156 8.96623 19.3219 8.98201 19.1281 8.9978C19.0577 9.01358 19.0049 9.01358 18.9344 9.02937C19.4099 8.80837 19.8854 8.65052 20.3257 8.52424C20.625 8.44531 20.9244 8.38217 21.2062 8.33481C21.5936 8.27167 21.9635 8.22432 22.2981 8.20853C22.527 8.19275 22.7383 8.19275 22.932 8.19275C23.1258 8.19275 23.3195 8.20853 23.478 8.20853C24.0591 8.2401 24.4113 8.31903 24.4113 8.31903C24.3233 8.20853 24.2176 8.12961 24.112 8.05068C23.9006 7.90861 23.6717 7.8139 23.4604 7.73497C23.3723 7.7034 23.3019 7.68762 23.2314 7.65605C23.1786 7.64026 23.1258 7.62448 23.0905 7.62448C23.1962 7.60869 23.2843 7.5929 23.3723 7.5929C23.478 7.57712 23.566 7.57712 23.6717 7.56133C24.4994 7.49819 25.239 7.56133 25.785 7.64026C26.4366 7.75076 26.8416 7.89283 26.8416 7.89283C26.7535 7.73497 26.6127 7.5929 26.4542 7.46662C26.3485 7.38769 26.2252 7.30877 26.1196 7.24563C26.3485 7.29298 26.5422 7.34034 26.7535 7.40348C27.2819 7.54555 27.7221 7.71919 28.0743 7.86125L28.3913 8.00332C28.4266 8.01911 28.4442 8.03489 28.4618 8.03489C28.7788 8.19275 28.9549 8.30324 28.9549 8.30324C28.902 8.1296 28.7964 7.97175 28.6555 7.82968C28.6203 7.79811 28.5851 7.75076 28.5498 7.71919H28.5674C28.5851 7.71919 28.6027 7.73497 28.6379 7.73497C28.6555 7.73497 28.6907 7.75076 28.7259 7.76654C28.8668 7.8139 29.0782 7.89283 29.3247 8.00332C29.3423 8.00332 29.3423 8.01911 29.3599 8.01911L29.4656 8.06646C29.5536 8.11382 29.6417 8.14539 29.7297 8.20853L29.9939 8.3506C30.0467 8.38217 30.082 8.39796 30.1348 8.42953C30.2228 8.49267 30.3285 8.55581 30.4166 8.63474C30.5222 8.71366 30.6103 8.79259 30.6983 8.87152L30.7512 8.91887C30.8216 8.98201 30.892 9.04515 30.9449 9.1083C31.0682 9.23458 31.1738 9.37665 31.2795 9.51871C31.4028 9.69235 31.4908 9.89756 31.5789 10.1028C31.5789 10.1186 31.5789 10.1343 31.5965 10.1343C31.6493 10.087 31.755 9.99227 31.8782 9.86599C32.8997 8.79259 35.9639 5.31982 34.1148 3.20459Z" fill="#132134"/>
<path d="M38.6759 29.1398C38.6759 29.1398 38.7112 28.903 38.5703 28.682C38.5703 28.6662 38.5527 28.6504 38.5527 28.6504L38.5351 28.6346L38.4822 28.5873C38.447 28.5557 38.4118 28.5242 38.359 28.4926C38.3413 28.4768 38.3061 28.461 38.2709 28.4452C38.1828 28.4137 38.0948 28.3821 37.9715 28.3663C37.8835 28.3505 37.7954 28.3505 37.6898 28.3505H37.5489V28.3821C37.5489 28.3979 37.5665 28.4137 37.5665 28.4452C37.5665 28.461 37.5665 28.4768 37.5841 28.4768C37.6017 28.5242 37.6193 28.6031 37.6369 28.6662C37.6369 28.6662 37.6369 28.682 37.6193 28.7136V28.7294C37.5665 28.8399 37.4256 29.0924 37.1086 29.4081C37.0558 29.4713 37.0029 29.5186 36.9325 29.5818C36.052 30.4026 34.15 31.5549 30.1348 32.2021C28.7788 32.3758 27.5108 32.3916 26.4542 32.2653C24.8692 32.0916 23.6893 31.6339 23.1258 31.0182C23.0729 30.9709 23.0377 30.9077 22.9849 30.8604C22.9496 30.813 22.932 30.7815 22.8968 30.7341C22.8792 30.7183 22.8792 30.7025 22.8616 30.6867C22.6327 30.3079 22.527 29.8975 22.527 29.5028C22.527 29.0135 22.7031 28.5557 22.9849 28.2084C23.2138 27.9243 23.5132 27.7033 23.883 27.6086C24.0591 27.5612 24.2528 27.5297 24.4466 27.5455C24.4818 27.5455 24.5346 27.5455 24.605 27.5612C24.7283 27.577 24.922 27.5928 25.151 27.6244C25.1686 27.6244 25.2038 27.6244 25.2214 27.6402C25.9787 27.7191 27.1762 27.8296 28.6203 27.7507C31.2619 27.6086 34.7312 26.8667 37.8835 24.3095V24.2937C37.9011 24.0727 37.8659 23.6938 37.5665 23.3939C37.5136 23.3466 37.4608 23.2992 37.3904 23.2519C37.3552 23.2203 37.3023 23.2045 37.2671 23.1729C37.2143 23.1571 37.179 23.1256 37.1438 23.1098L36.9853 23.0151V22.9993C36.9677 22.9677 36.9501 22.9362 36.9149 22.9046C36.1048 21.7996 34.9777 21.1524 34.5198 20.8525C34.3085 20.7104 34.1676 20.6473 34.1676 20.6473C33.199 20.1106 33.0582 19.9369 33.1462 18.5005C33.1814 17.9796 33.2343 17.3008 33.3047 16.3695C33.3047 16.2432 33.3223 16.1327 33.3223 16.0222V15.9433V15.5644C33.3223 15.4855 33.3047 15.4066 33.3047 15.3434C33.3047 15.3118 33.3047 15.2803 33.2871 15.2487C33.2695 15.1698 33.2695 15.0908 33.2519 15.0119C33.2519 14.9803 33.2343 14.933 33.2343 14.9014C33.2343 14.8541 33.2167 14.8225 33.199 14.7751C33.1814 14.7436 33.1814 14.6962 33.1638 14.6646C33.1462 14.6173 33.1286 14.5699 33.1286 14.5226C33.1286 14.5068 33.111 14.491 33.111 14.4752C33.111 14.4594 33.0934 14.4436 33.0934 14.4279V14.4121L33.0758 14.3647C33.0582 14.3332 33.0405 14.3016 33.0405 14.27V14.2542L33.0229 14.2227L33.0053 14.1911C32.9701 14.1279 32.9525 14.0648 32.9173 14.0174L32.8997 13.9701C32.8644 13.9227 32.8292 13.8596 32.794 13.8122L32.7764 13.7964L32.7588 13.7807C32.7236 13.7491 32.7059 13.7175 32.6707 13.686L32.6355 13.6386C32.6003 13.5912 32.5651 13.5597 32.5298 13.5281V13.4018C32.5122 13.3387 32.4946 13.2597 32.477 13.1808C32.477 13.165 32.4594 13.1335 32.4594 13.1177V13.1019C32.4594 13.0703 32.4418 13.0545 32.4418 13.023C32.4242 12.9598 32.4066 12.8967 32.3713 12.8335C32.3713 12.8178 32.3537 12.7862 32.3537 12.7704L32.3009 12.6283C32.2833 12.5968 32.2833 12.5652 32.2657 12.5494C32.2481 12.5021 32.2305 12.4547 32.1952 12.4073L32.1424 12.3126C32.1248 12.2653 32.0896 12.2179 32.072 12.1706L32.0191 12.0758C31.9839 12.0285 31.9663 11.9811 31.9311 11.9338L31.8782 11.8391C31.843 11.7917 31.8078 11.7444 31.7726 11.6812C31.755 11.6496 31.7374 11.6339 31.7197 11.6023C31.7021 11.5865 31.6845 11.5549 31.6669 11.5391C31.6141 11.4918 31.5789 11.4444 31.526 11.3971L31.4908 11.3813C31.4204 11.3182 31.3675 11.255 31.2971 11.2077L31.2795 11.1919C31.2443 11.1761 31.209 11.1445 31.1914 11.1287H31.1738C31.1386 11.1129 31.121 11.0972 31.0858 11.0814L31.0682 11.0656C31.0329 11.0498 30.9801 11.0182 30.9097 10.9867C30.892 10.9709 30.8568 10.9709 30.8216 10.9551C30.6631 10.9077 30.4694 10.8446 30.2228 10.7815C30.2052 10.7815 30.1876 10.7815 30.17 10.7657C29.9763 10.7183 29.7474 10.671 29.5008 10.6394C29.4128 10.6236 29.3423 10.6236 29.2543 10.6078C29.219 10.6078 29.1838 10.6078 29.131 10.592H29.0781C28.8844 10.5762 28.7083 10.5605 28.5146 10.5605H28.497C28.2505 10.5605 28.0039 10.5762 27.775 10.6236C27.8278 10.5447 27.9863 10.45 28.1272 10.371C28.3209 10.2763 28.497 10.2132 28.497 10.2132C28.3913 10.2132 28.2857 10.229 28.18 10.2448C28.1448 10.2448 28.1096 10.2605 28.0743 10.2605C28.0567 10.2605 28.0215 10.2605 28.0039 10.2763H27.9863C27.9687 10.2763 27.9511 10.2763 27.9335 10.2921C27.3875 10.4026 26.8592 10.5762 26.5598 10.6867L26.4542 10.7341H26.4366C26.4013 10.7341 26.3837 10.7341 26.3485 10.7499C26.5598 10.3868 26.8768 10.1974 27.1234 10.1027C27.1586 10.0869 27.2114 10.0711 27.2466 10.0553C27.2643 10.0553 27.2643 10.0553 27.2819 10.0395C27.3171 10.0238 27.3523 10.0238 27.3699 10.008C27.4227 9.99219 27.458 9.99219 27.458 9.99219H27.1762C26.5774 10.0553 26.0315 10.229 25.5736 10.4657C25.2566 10.6236 24.9749 10.7972 24.7283 10.9709C24.6579 10.9867 24.605 11.0024 24.5346 11.0024C23.8654 11.1287 23.1081 11.2866 22.3157 11.5076C22.0163 11.5865 21.7169 11.6812 21.4175 11.7759C21.1886 11.8549 20.942 11.9338 20.7131 12.0127C20.537 12.0758 20.3785 12.139 20.2024 12.2021C18.9873 12.6915 17.7721 13.3387 16.7683 14.2069L16.6627 14.3016L16.3985 14.5384L16.2928 14.6331C16.2576 14.6804 16.2048 14.7278 16.1696 14.7594C15.9758 14.9488 15.7997 15.154 15.6236 15.375C15.5003 15.5328 15.3771 15.7065 15.2714 15.8801L15.2538 15.8959C15.0249 16.259 14.8135 16.6378 14.655 17.064C14.567 17.2692 14.4965 17.4902 14.4261 17.7112C14.4085 17.7744 14.3909 17.8217 14.3733 17.8848L14.3557 17.9164C14.2852 18.1532 14.2324 18.4058 14.1972 18.6583C14.1972 18.7057 14.1796 18.753 14.1796 18.8162C14.1619 18.9425 14.1443 19.0687 14.1443 19.2108C14.1267 19.3371 14.1267 19.4476 14.1267 19.5739V20.0632C14.1267 20.2053 14.1267 20.3474 14.1443 20.4894V20.5052C14.1443 20.6473 14.1619 20.7893 14.1796 20.9472C14.1796 21.0103 14.1972 21.0735 14.1972 21.1366V21.184C14.1972 21.2155 14.1972 21.2471 14.2148 21.2945C14.2324 21.4523 14.2676 21.626 14.2852 21.7996C14.2852 21.847 14.3028 21.8943 14.3028 21.9417C14.338 22.0837 14.3557 22.2416 14.3909 22.3837C14.3909 22.3837 14.3557 22.1942 14.3733 21.9101C14.3733 21.847 14.3909 21.768 14.3909 21.7049C14.4085 21.547 14.4437 21.3576 14.5142 21.184L14.567 21.0419C14.567 21.0261 14.5846 21.0103 14.6022 20.9788C14.6374 20.8998 14.6903 20.8051 14.7431 20.7262C14.7607 20.7893 14.7607 20.8525 14.7783 20.8998V21.7365C14.7959 22.2732 14.8488 22.9204 14.972 23.4728C14.972 23.4728 14.9896 22.4784 15.1834 22.3521C15.1834 22.3521 15.518 24.2148 15.8173 24.9093C15.8526 25.004 15.9054 25.0672 15.9406 25.1145V24.9251L15.9054 23.8991V23.7886C16.1343 24.2148 16.3985 24.641 16.6979 25.0987C16.7859 25.225 16.8564 25.3513 16.9444 25.4776C16.3809 25.9196 15.8526 26.5668 15.4651 27.3245C15.4123 27.4508 15.3419 27.577 15.289 27.7033C15.2538 27.7822 15.2362 27.8454 15.201 27.9243C15.201 27.9401 15.1834 27.9717 15.1834 27.9875C15.1657 28.0348 15.1481 28.0979 15.1305 28.1453C15.1305 28.1769 15.1129 28.1927 15.1129 28.2242C15.0953 28.2716 15.0777 28.3347 15.0601 28.3821C15.0601 28.4137 15.0425 28.4294 15.0425 28.461L14.9896 28.6978C14.972 28.7767 14.9544 28.8556 14.9544 28.9346C14.9544 28.9661 14.9544 28.9819 14.9368 29.0135C14.9368 29.0766 14.9192 29.124 14.9192 29.1871C14.9192 29.2187 14.9192 29.2503 14.9016 29.2818C14.9016 29.345 14.884 29.3923 14.884 29.4555V30.008C14.884 30.0711 14.884 30.1343 14.9016 30.2132V30.2605C14.9016 30.3395 14.9192 30.4184 14.9368 30.5131C14.9368 30.5447 14.9368 30.5605 14.9544 30.592C14.9544 30.6552 14.972 30.7025 14.9896 30.7657C14.9896 30.7972 15.0072 30.8288 15.0072 30.8604C15.0249 30.9077 15.0249 30.9709 15.0425 31.0182C15.0425 31.0498 15.0601 31.0814 15.0601 31.1129C15.0777 31.1603 15.0953 31.2077 15.0953 31.2708C15.1129 31.3024 15.1129 31.3339 15.1305 31.3813C15.1481 31.4287 15.1657 31.4918 15.1834 31.5392C15.201 31.5707 15.201 31.6023 15.2186 31.6339C15.2362 31.6812 15.2538 31.7444 15.2714 31.7917C15.289 31.8233 15.289 31.8549 15.3066 31.8864C15.3242 31.9496 15.3595 32.0127 15.3771 32.0601C15.3947 32.0916 15.3947 32.1074 15.4123 32.139L15.6765 32.6599C15.6941 32.6915 15.7117 32.7073 15.7293 32.7388L15.835 32.9283C15.8526 32.9598 15.8702 32.9914 15.9054 33.023C15.9406 33.0703 15.9758 33.1335 16.0111 33.1808C16.0287 33.2124 16.0639 33.244 16.0815 33.2755C16.1167 33.3229 16.1519 33.386 16.2048 33.4334C16.24 33.465 16.2576 33.4965 16.2928 33.5439C16.328 33.5912 16.3809 33.6544 16.4161 33.7017C16.4513 33.7333 16.4689 33.7649 16.5042 33.8122C16.557 33.8596 16.5922 33.9227 16.645 33.9701C16.6803 34.0017 16.6979 34.0332 16.7331 34.0648C16.7859 34.1279 16.8388 34.1753 16.9092 34.2384L16.9973 34.3174C17.0853 34.3963 17.1734 34.491 17.2614 34.5699C17.2614 34.5699 17.2086 34.5068 17.1381 34.3805C17.1205 34.3647 17.1029 34.3332 17.1029 34.3016L17.0501 34.2069C17.0325 34.1753 17.0149 34.1437 16.9973 34.0964C16.8564 33.8122 16.7331 33.4018 16.7507 32.9598L16.9092 33.1493C16.962 33.2597 17.0501 33.4018 17.1381 33.5597C17.1734 33.607 17.2086 33.6702 17.2262 33.7175C17.3671 33.9385 17.508 34.1911 17.6841 34.4279C17.8954 34.7278 18.1067 35.0119 18.3357 35.2803C18.3357 35.2803 18.0715 34.7751 17.9834 34.4436C17.9658 34.3489 17.9482 34.27 17.9658 34.2227C17.9834 34.2384 18.0011 34.27 18.0363 34.2858C18.0539 34.3016 18.0715 34.3332 18.1067 34.3489C18.1419 34.3963 18.1948 34.4594 18.2652 34.5384L18.3004 34.5699C18.3357 34.6015 18.3533 34.6489 18.3885 34.6804C18.4237 34.7278 18.4589 34.7751 18.5118 34.8225C18.8816 35.2487 19.3923 35.817 19.7445 36.1169C19.8678 36.2116 19.9735 36.2905 20.0439 36.3221L19.5332 35.5013C20.6955 36.3537 25.5208 37.4429 30.2581 36.2274C30.8392 36.0853 31.4028 35.8959 31.9663 35.6749C32.3009 35.5486 32.6355 35.3908 32.9701 35.2329L33.0229 35.2013C33.2519 35.0908 33.4808 34.9646 33.7097 34.8383C33.8859 34.7436 34.062 34.6331 34.2205 34.5384C34.5022 34.3647 34.784 34.1753 35.0658 33.9701C35.0834 33.9543 35.101 33.9385 35.1186 33.9385C35.3828 33.7333 35.6469 33.5123 35.8759 33.2913C36.1928 32.9914 36.4746 32.6915 36.7212 32.3916L36.7388 32.3758C36.8092 32.2968 36.8621 32.2337 36.9149 32.1548L36.9325 32.139C36.9501 32.1074 36.9677 32.0916 36.9853 32.0601C37.0734 31.9496 37.1438 31.8549 37.2319 31.7444C37.2495 31.7128 37.2671 31.697 37.2847 31.6654C37.3199 31.6023 37.3551 31.5549 37.408 31.4918C37.4432 31.4444 37.4608 31.4129 37.496 31.3655C37.5313 31.3182 37.5665 31.2708 37.5841 31.2234C37.6369 31.1445 37.6898 31.0498 37.7426 30.9709L37.7954 30.8762L37.9011 30.6867L37.9539 30.592L37.9715 30.5605C38.0067 30.4815 38.0596 30.4026 38.0948 30.3237V30.3079C38.2533 30.1816 38.359 30.0553 38.4646 29.9448C38.4822 29.929 38.4998 29.9133 38.4998 29.8975C38.6055 29.5976 38.6759 29.3608 38.6759 29.1398ZM10.3404 26.0774C10.3404 26.0616 10.3404 26.0459 10.3228 26.0143C10.27 25.7459 10.2172 25.4618 10.1995 25.1777V25.1145C10.1467 25.1303 10.0939 25.1935 10.0234 25.2724C10.0058 25.3039 9.97061 25.3355 9.953 25.3829C9.7945 25.6512 9.65361 26.0301 9.65361 26.0301C9.67123 25.9038 9.68884 25.7775 9.68884 25.6512V25.6039C9.70645 25.4776 9.72406 25.3355 9.74167 25.2092V25.1619C9.75928 25.004 9.7945 24.862 9.82972 24.7199C9.82972 24.7041 9.82972 24.6883 9.84733 24.6567V24.641C9.84733 24.6252 9.84733 24.6094 9.86494 24.5936C9.86494 24.562 9.88255 24.5463 9.88255 24.5147C9.90016 24.4042 9.93539 24.2937 9.953 24.1832C9.97061 24.0885 9.98822 23.9938 10.0058 23.9148V23.8833C10.0058 23.8675 10.0058 23.8517 10.0234 23.8517V23.8201C10.0234 23.8043 10.041 23.7728 10.041 23.757C10.041 23.7412 10.041 23.7254 10.0587 23.7096C10.0587 23.6781 10.0763 23.6465 10.0763 23.6307C10.0763 23.6149 10.0939 23.5833 10.0939 23.5676C10.0939 23.536 10.1115 23.5044 10.1115 23.4886C10.1115 23.4729 10.1115 23.4571 10.1291 23.4413C10.1291 23.4255 10.1291 23.4097 10.1467 23.4097C10.1467 23.3781 10.1643 23.3624 10.1643 23.3466V23.2992L10.1291 23.3308C10.0939 23.3466 10.0763 23.3781 10.041 23.3939L10.0058 23.4255C9.97061 23.4571 9.93539 23.4886 9.91777 23.5202L9.90016 23.536L9.7945 23.6781L9.77689 23.6938C9.77689 23.7096 9.75928 23.7096 9.75928 23.7254L9.70645 23.8201V23.8517C9.68884 23.8991 9.65361 23.9464 9.636 23.9938C9.58317 24.12 9.53034 24.2463 9.49512 24.3568C9.47751 24.3884 9.47751 24.4358 9.4599 24.4515C9.44229 24.5147 9.42468 24.5778 9.42468 24.5936C9.42468 24.5463 9.42468 24.5147 9.44229 24.4673C9.44229 24.3884 9.4599 24.2937 9.4599 24.2148C9.4599 24.1516 9.47751 24.0727 9.49512 24.0096C9.49512 23.9938 9.49512 23.9622 9.51273 23.9464C9.51273 23.9148 9.53034 23.8833 9.53034 23.8517C9.53034 23.8201 9.54795 23.7886 9.54795 23.757V23.7096C9.54795 23.6781 9.56556 23.6307 9.56556 23.5991V23.5202V23.4886C9.56556 23.4729 9.56556 23.4571 9.58317 23.4413C9.60078 23.3939 9.61839 23.3308 9.61839 23.2834V23.2676C9.636 23.2361 9.636 23.1887 9.65361 23.1571V23.1414C9.67123 23.0624 9.70645 22.9835 9.72406 22.9046V22.873C9.72406 22.8572 9.72406 22.8414 9.74167 22.8257C9.77689 22.6994 9.82972 22.5731 9.86494 22.4626V22.4468C9.90016 22.3521 9.953 22.2416 9.98822 22.1469V22.1311C10.0058 22.0837 10.0234 22.0522 10.041 22.0048C10.0763 21.9417 10.0939 21.8785 10.1291 21.8154C10.1291 21.7996 10.1467 21.768 10.1819 21.7049C10.1995 21.6891 10.1995 21.6575 10.2172 21.6418C10.2348 21.6102 10.2524 21.5786 10.27 21.5313L10.2876 21.4997L10.587 21.0103C10.6046 20.9946 10.6046 20.963 10.6222 20.9472V20.9314L10.6398 20.8998C10.675 20.8525 10.7103 20.7893 10.7455 20.742C10.7983 20.6631 10.8335 20.5841 10.8864 20.521C10.9744 20.3789 11.0449 20.2526 11.0977 20.1895C11.1153 20.1421 11.1329 20.1264 11.1505 20.1106C11.1329 20.1106 11.0449 20.0474 10.904 19.9685C10.7279 19.8738 10.4813 19.7475 10.1819 19.6212C10.0763 19.5739 9.98822 19.5423 9.88255 19.495C9.75928 19.4476 9.61839 19.4002 9.47751 19.3529C9.44229 19.3371 9.40707 19.3371 9.37184 19.3213C9.24857 19.2897 9.14291 19.2582 9.01963 19.2266C8.93158 19.2108 8.84353 19.195 8.77308 19.1792C8.70264 19.1635 8.6322 19.1635 8.56176 19.1477C8.52653 19.1477 8.49131 19.1477 8.45609 19.1319C8.42087 19.1319 8.38565 19.1319 8.35043 19.1161C8.26237 19.1161 8.15671 19.1003 8.06866 19.1003H7.92777C7.71644 19.1003 7.52273 19.1161 7.32901 19.1477H7.29379C6.94158 19.195 6.60697 19.274 6.27237 19.3845C6.16671 19.416 6.06104 19.4634 5.93777 19.5107C5.90255 19.5265 5.88494 19.5423 5.84972 19.5423L5.74405 19.5897C5.42706 19.7317 5.12768 19.9212 4.84591 20.1264H4.8283C4.58175 20.3 4.37042 20.5052 4.17671 20.7104L4.01821 20.8998C3.94777 20.9788 3.89494 21.0577 3.8421 21.1366C3.73644 21.2787 3.63078 21.4365 3.54272 21.5944C3.5075 21.6575 3.47228 21.7049 3.45467 21.768C3.45467 21.7838 3.43706 21.7838 3.43706 21.7996C3.26095 22.1785 3.12007 22.5731 3.06724 22.9993C3.04963 23.0782 3.04963 23.1571 3.03201 23.2519V23.2834C3.03201 23.3466 3.0144 23.4097 3.0144 23.4886V23.7728C3.0144 23.8359 3.0144 23.8991 3.03201 23.9622V24.0411C3.03201 24.0885 3.04963 24.1358 3.04963 24.1832V24.199C3.04963 24.2305 3.04963 24.2463 3.06724 24.2779C3.06724 24.3253 3.08485 24.3726 3.08485 24.4042C3.08485 24.4358 3.10246 24.4673 3.10246 24.4989C3.12007 24.5463 3.12007 24.5778 3.13768 24.6252C3.13768 24.6567 3.15529 24.6883 3.1729 24.7199V24.7357L3.19051 24.7672V24.7988L3.20812 24.8304C3.22573 24.862 3.22573 24.8935 3.24334 24.9251C3.26095 24.9567 3.26095 25.004 3.27856 25.0356C3.29617 25.0672 3.31378 25.0987 3.31378 25.1461L3.3314 25.1777C3.34901 25.2092 3.34901 25.225 3.36662 25.2566C3.38423 25.2882 3.40184 25.3197 3.41945 25.3671L3.47228 25.4618C3.48989 25.4776 3.48989 25.4934 3.5075 25.5092C3.52511 25.5249 3.52511 25.5407 3.54272 25.5565L3.59556 25.6512C3.61317 25.6828 3.63078 25.7302 3.666 25.7617C3.68361 25.7933 3.70122 25.8249 3.71883 25.8406C3.73644 25.8722 3.77166 25.9196 3.78927 25.9511C3.80688 25.9827 3.82449 25.9985 3.8421 26.0301C3.85971 26.0616 3.89494 26.109 3.93016 26.1406C3.94777 26.1721 3.96538 26.1879 3.98299 26.2037C4.01821 26.2353 4.03582 26.2826 4.07104 26.3142C4.08865 26.33 4.10626 26.3616 4.12387 26.3773C4.1591 26.4089 4.19432 26.4563 4.22954 26.4878C4.24715 26.5036 4.26476 26.5194 4.28237 26.551C4.31759 26.5826 4.35281 26.6299 4.38803 26.6615L4.44087 26.7088C4.47609 26.7404 4.51131 26.7878 4.56414 26.8193L4.61697 26.8667L4.74025 26.9772C4.75786 26.993 4.77547 27.0088 4.79308 27.0088C4.8283 27.0403 4.88113 27.0719 4.93396 27.1193C4.95157 27.135 4.96919 27.135 4.9868 27.1508C5.03963 27.1824 5.07485 27.214 5.12768 27.2455C5.14529 27.2613 5.1629 27.2613 5.1629 27.2771L5.3214 27.3718L5.35662 27.3876L5.51511 27.4823L5.55034 27.4981C5.60317 27.5297 5.67361 27.5612 5.72644 27.5928L5.76166 27.6086C5.8145 27.6402 5.88494 27.6717 5.93777 27.6875L5.97299 27.7033C6.04343 27.7349 6.09627 27.7507 6.16671 27.7822L6.18432 27.798C6.25476 27.8296 6.3252 27.8454 6.37804 27.877H6.39565C6.46609 27.8927 6.53653 27.9243 6.60697 27.9401H6.62458C6.65981 27.9559 6.69503 27.9559 6.73025 27.9717C6.76547 27.9875 6.80069 27.9875 6.85352 28.0032H6.87113C6.94158 28.019 7.02963 28.0348 7.10007 28.0506C7.17052 28.0664 7.25857 28.0822 7.32901 28.0822C7.57556 28.1137 7.82211 28.1295 8.06866 28.1453H8.24476C8.33282 28.1453 8.40326 28.1453 8.49131 28.1295C8.59698 28.1137 8.72025 28.1137 8.84353 28.0979C8.94919 28.0822 9.05485 28.0664 9.14291 28.0506C9.3014 28.019 9.4599 27.9875 9.60078 27.9401C10.0587 27.8296 10.4461 27.6717 10.6926 27.4981C10.6926 27.4981 10.5341 26.8667 10.4109 26.2353C10.3757 26.2037 10.358 26.1406 10.3404 26.0774Z" fill="#90694C"/>
<path d="M21.6464 2.6202L21.5936 1.98879L21.9458 1.29423L22.0867 1.26266C21.8578 1.16795 21.576 1.10481 21.259 1.05745C20.625 0.978527 19.8149 1.05745 18.8992 1.26266C17.9834 1.46787 16.9444 1.83093 15.8525 2.32028C13.6512 3.29897 11.2209 4.79857 8.86111 6.72438C8.03341 7.38737 7.27615 8.08192 6.57173 8.76069C5.88491 9.42367 5.26854 10.1024 4.705 10.7496C3.56031 12.0914 2.69739 13.3858 2.13385 14.5539C1.76402 15.3274 1.53508 16.0377 1.44703 16.6533C1.37659 17.0953 1.3942 17.49 1.48225 17.8057C1.51747 17.9162 1.55269 17.9951 1.58792 18.0898C1.67597 18.2792 1.78163 18.4371 1.92252 18.5792L3.34898 19.9209L3.50748 20.063L3.52509 20.0472C3.56031 19.9998 3.61314 19.9525 3.66597 19.9209L3.68358 19.9051L3.73641 19.8578C3.77163 19.8104 3.82447 19.7788 3.85969 19.7315C3.89491 19.6999 3.91252 19.6841 3.94774 19.6683C3.98296 19.6526 4.00057 19.621 4.03579 19.6052L4.07102 19.5736C4.10624 19.5578 4.12385 19.5263 4.15907 19.5105C4.19429 19.4789 4.24712 19.4474 4.28234 19.4158C4.29995 19.4 4.33518 19.3842 4.35279 19.3684H4.3704C4.42323 19.3369 4.45845 19.3053 4.51128 19.2737C4.5465 19.2579 4.56411 19.2421 4.59933 19.2106C4.65217 19.179 4.68739 19.1474 4.74022 19.1159C4.77544 19.1001 4.79305 19.0843 4.82827 19.0685C4.8811 19.0369 4.93394 19.0054 4.98677 18.9896C5.02199 18.9738 5.0396 18.958 5.07482 18.9422C5.12765 18.9107 5.18049 18.8949 5.23332 18.8633C5.26854 18.8475 5.28615 18.8317 5.32137 18.8159L5.35659 18.8002C5.69119 17.9635 6.2019 17.0322 6.87111 16.0851C7.6812 14.917 8.72022 13.6857 9.95297 12.4545C10.7278 11.681 11.5731 10.9075 12.4889 10.1656C13.6688 9.20268 14.8839 8.33449 16.0815 7.57679C16.8916 7.07166 17.684 6.61389 18.4589 6.21925C18.5293 6.18768 18.5998 6.14033 18.6878 6.10876C18.8992 5.99826 19.0929 5.90355 19.3042 5.80884C19.7445 5.60363 20.1847 5.4142 20.6074 5.25635L20.3961 5.03535L20.3609 5.00378L20.0967 4.73543L18.635 3.1569L18.6526 2.02036L18.635 2.00457L19.674 1.72044L21.6464 2.6202Z" fill="#2F83C1"/>
<path d="M38.6759 29.1396C38.6759 29.1396 38.7111 28.9028 38.5703 28.6818C38.5703 28.6661 38.5526 28.6503 38.5526 28.6503L38.535 28.6345L38.4822 28.5871C38.447 28.5556 38.4118 28.524 38.3589 28.4924C38.3413 28.4766 38.3061 28.4609 38.2709 28.4451C38.1828 28.4135 38.0948 28.3819 37.9715 28.3661C37.8834 28.3504 37.7954 28.3504 37.6897 28.3504H37.5488V28.3819C37.5488 28.3977 37.5665 28.4135 37.5665 28.4451C37.5665 28.4609 37.5664 28.4766 37.5841 28.4766C37.6017 28.524 37.6193 28.6029 37.6369 28.6661C37.6369 28.6661 37.6369 28.6818 37.6193 28.7134V28.7292C37.5665 28.8397 37.4256 29.0923 37.1086 29.408C37.0557 29.4711 37.0029 29.5185 36.9325 29.5816C36.0519 30.4024 34.15 31.5548 30.1348 32.202C28.7787 32.3756 27.5108 32.3914 26.4541 32.2651C24.8692 32.0915 23.6893 31.6337 23.1257 31.0181C23.0729 30.9707 23.0377 30.9076 22.9848 30.8602C22.9496 30.8129 22.932 30.7813 22.8968 30.7339C22.8792 30.7182 22.8792 30.7024 22.8616 30.6866C22.6326 30.3077 22.527 29.8973 22.527 29.5027C22.527 29.0133 22.7031 28.5556 22.9848 28.2083C23.2138 27.9242 23.5132 27.7032 23.883 27.6084C24.0591 27.5611 24.2528 27.5295 24.4465 27.5453C24.4817 27.5453 24.5346 27.5453 24.605 27.5611C24.7283 27.5769 24.922 27.5927 25.1509 27.6242C25.1686 27.6242 25.2038 27.6242 25.2214 27.64C25.9786 27.7189 27.1762 27.8294 28.6202 27.7505C31.2618 27.6084 34.7311 26.8665 37.8834 24.3093V24.2935C37.9011 24.0725 37.8658 23.6937 37.5665 23.3938C37.5136 23.3464 37.4608 23.2991 37.3903 23.2517C37.3551 23.2201 37.3023 23.2043 37.2671 23.1728C37.2142 23.157 37.179 23.1254 37.1438 23.1096L36.9853 23.0149V22.9991C36.9677 22.9676 36.9501 22.936 36.9149 22.9044C36.1048 21.7994 34.9777 21.1523 34.5198 20.8523C34.3085 20.7103 34.1676 20.6471 34.1676 20.6471C33.199 20.1104 33.0581 19.9368 33.1462 18.5003C33.1814 17.9794 33.2342 17.3006 33.3047 16.3693C33.3047 16.243 33.3223 16.1325 33.3223 16.022V15.9431V15.5642C33.3223 15.4853 33.3047 15.4064 33.3047 15.3433C33.3047 15.3117 33.3047 15.2801 33.2871 15.2485C33.2695 15.1696 33.2695 15.0907 33.2518 15.0118C33.2518 14.9802 33.2342 14.9328 33.2342 14.9013C33.2342 14.8539 33.2166 14.8223 33.199 14.775C33.1814 14.7434 33.1814 14.6961 33.1638 14.6645C33.1462 14.6171 33.1286 14.5698 33.1286 14.5224C33.1286 14.5066 33.111 14.4908 33.111 14.4751C33.111 14.4593 33.0933 14.4435 33.0933 14.4277V14.4119L33.0757 14.3646C33.0581 14.333 33.0405 14.3014 33.0405 14.2699V14.2541L33.0229 14.2225L33.0053 14.1909C32.9701 14.1278 32.9525 14.0646 32.9172 14.0173L32.8996 13.9699C32.8644 13.9226 32.8292 13.8594 32.794 13.8121L32.7764 13.7963L32.7587 13.7805C32.7235 13.7489 32.7059 13.7174 32.6707 13.6858L32.6355 13.6384C32.6003 13.5911 32.565 13.5595 32.5298 13.5279L32.3889 13.4017C32.3361 13.3701 32.2833 13.3385 32.2304 13.3227C32.2128 13.3069 32.1952 13.3069 32.1776 13.3069L32.0719 13.2596C32.0543 13.2596 32.0367 13.2438 32.0191 13.2438C31.9839 13.228 31.9487 13.228 31.931 13.2122C31.9134 13.2122 31.8958 13.1964 31.8606 13.1964C31.8254 13.1964 31.8078 13.1807 31.7725 13.1807H31.3851C31.3675 13.1807 31.3499 13.1807 31.3323 13.1964C31.3147 13.1964 31.2971 13.1964 31.2795 13.2122C31.2442 13.2122 31.209 13.228 31.1562 13.2438H31.121C31.0153 13.2754 30.9272 13.3069 30.8216 13.3385L30.7864 13.3543C30.7511 13.3701 30.7159 13.3859 30.6631 13.4017L30.6102 13.4174L30.5046 13.4648L30.4517 13.4964L30.3461 13.5437L30.2933 13.5753C30.258 13.5911 30.2228 13.6227 30.1876 13.6384L30.1524 13.6542C30.1171 13.6858 30.0643 13.7016 30.0291 13.7332L30.0115 13.7489C29.9587 13.7805 29.9234 13.8121 29.8706 13.8279C29.7825 13.8752 29.6945 13.9384 29.6064 13.9857C29.536 14.0331 29.4656 14.0804 29.3775 14.1278L29.3423 14.1436C29.2718 14.1909 29.1838 14.2383 29.1133 14.2699L29.0781 14.2856C29.0077 14.333 28.9196 14.3646 28.8492 14.4119L28.814 14.4277C28.7435 14.4751 28.6555 14.5066 28.5674 14.5382L28.5322 14.554C28.4441 14.5856 28.3737 14.6171 28.2856 14.6487L28.2504 14.6645C28.1624 14.6961 28.0743 14.7118 27.9863 14.7434H27.9687C27.8806 14.7592 27.7749 14.775 27.6869 14.7908C27.5284 14.8066 27.3523 14.8223 27.1938 14.8223C26.9296 14.8223 26.6655 14.8066 26.3837 14.775L26.1195 14.7276C26.0843 14.7276 26.0491 14.7118 26.0315 14.7118C25.8025 14.6645 25.556 14.6171 25.3271 14.5698C25.2214 14.554 25.1333 14.5224 25.0277 14.5066C24.8692 14.4751 24.7107 14.4435 24.5346 14.4119C24.4994 14.4119 24.4641 14.3961 24.4465 14.3961C24.4289 14.3961 24.3937 14.3803 24.3761 14.3803C24.3409 14.3803 24.3056 14.3646 24.2704 14.3646C24.2352 14.3646 24.2 14.3488 24.1648 14.3488H24.1295C24.0943 14.3488 24.0591 14.333 24.0415 14.333C23.971 14.3172 23.9006 14.3014 23.8125 14.3014C23.7949 14.3014 23.7597 14.3014 23.7421 14.2856C23.6893 14.2856 23.6364 14.2699 23.5836 14.2699C23.5484 14.2699 23.5308 14.2699 23.4955 14.2541C23.4427 14.2541 23.4075 14.2383 23.3547 14.2383H22.5446C22.4565 14.2383 22.3861 14.2541 22.298 14.2541H22.2276C22.1747 14.2541 22.1219 14.2699 22.0691 14.2699H22.0515C22.0163 14.2699 21.9986 14.2856 21.9634 14.2856C21.9106 14.3014 21.8578 14.3014 21.8049 14.3172C21.7697 14.3172 21.7345 14.333 21.7169 14.333C21.664 14.3488 21.6112 14.3646 21.5584 14.3646C21.5232 14.3646 21.5055 14.3803 21.4703 14.3961C21.4175 14.4119 21.3471 14.4277 21.2942 14.4435C21.259 14.4593 21.2414 14.4593 21.2238 14.4751C21.1357 14.5066 21.0477 14.5382 20.9772 14.5698C20.308 14.917 19.7269 15.3906 19.2866 15.9273C19.1281 16.1167 18.9872 16.3062 18.8639 16.4956C18.7231 16.7008 18.6174 16.9218 18.5117 17.1428C18.4765 17.2059 18.4589 17.2691 18.4237 17.3322C18.3885 17.4427 18.3356 17.5532 18.3004 17.6637C18.3004 17.6795 18.3004 17.6953 18.2828 17.6953C18.2476 17.8215 18.2124 17.9478 18.1771 18.0899C18.1419 18.232 18.1243 18.3582 18.1067 18.5003C18.0891 18.5792 18.0891 18.6424 18.0891 18.7213C18.0715 18.9265 18.0715 19.1159 18.0891 19.3212V19.3685C18.0891 19.4159 18.0891 19.4632 18.1067 19.5264C18.1243 19.6684 18.1419 19.8105 18.1771 19.9526C18.1947 19.9999 18.2124 20.0473 18.2124 20.1104C18.23 20.1578 18.23 20.2051 18.2476 20.2525C18.3532 20.6155 18.5117 20.947 18.7055 21.2312C19.4275 22.3519 20.625 23.0307 21.5055 23.3938C21.8401 23.52 22.1924 23.6463 22.5622 23.7568L22.527 23.7884C22.4565 23.8042 22.3861 23.82 22.298 23.8358C22.1747 23.8673 22.0163 23.9147 21.8578 23.962C21.6817 24.0094 21.4703 24.0883 21.259 24.1672C20.6955 24.3725 20.0615 24.6724 19.4979 25.0828C19.4275 25.1301 19.357 25.1933 19.2866 25.2406C19.1633 25.3354 19.0577 25.4301 18.952 25.5406L18.9168 25.5721L18.8639 25.6195C18.8287 25.6669 18.7759 25.6984 18.7407 25.7458L18.6878 25.7931C18.635 25.8563 18.5822 25.9194 18.547 25.9826C18.4941 26.0457 18.4589 26.1088 18.4061 26.172C18.0715 26.6929 17.8778 27.3243 17.9306 28.082V28.0504C17.9306 28.0346 17.9306 28.0189 17.9482 28.0031V27.9873C17.9482 27.9715 17.9658 27.9557 17.9658 27.9242V27.9084C17.9658 27.8926 17.9834 27.861 17.9834 27.8294C17.9834 27.7979 18.001 27.7821 18.0186 27.7505V27.7347C18.0363 27.7032 18.0363 27.6716 18.0539 27.64V27.6242C18.0715 27.5927 18.0715 27.5611 18.0891 27.5295V27.5137C18.1067 27.4822 18.1243 27.4506 18.1419 27.4032L18.1595 27.3875C18.1771 27.3559 18.1947 27.3085 18.23 27.277C18.2652 27.2138 18.3004 27.1665 18.3356 27.1033C18.3532 27.0875 18.3709 27.056 18.3885 27.0402L18.4061 27.0244L18.5117 26.8823C18.547 26.8508 18.5822 26.8034 18.6174 26.7718L18.6526 26.7403C18.6878 26.7087 18.7055 26.6771 18.7407 26.6613L18.7759 26.6298C18.8111 26.5982 18.864 26.5666 18.8992 26.5193C18.8992 26.5193 18.1419 28.0662 18.4765 29.2817V29.2659V29.2343V29.187V29.1238V29.0449C18.4765 29.0133 18.4765 28.9818 18.4941 28.9502C18.4941 28.9186 18.4941 28.8871 18.5117 28.8555V28.8397C18.5117 28.8081 18.5293 28.7608 18.5293 28.7292V28.6976C18.547 28.6503 18.547 28.6187 18.5646 28.5714V28.5556C18.5822 28.5082 18.5998 28.4609 18.5998 28.4293C18.5998 28.4135 18.6174 28.3977 18.6174 28.3819L18.635 28.3504C18.6526 28.3188 18.6702 28.2714 18.6878 28.2399C18.7055 28.1925 18.7407 28.1451 18.7759 28.0978C18.7759 28.082 18.7935 28.0662 18.7935 28.0662L18.8992 27.9242C18.8992 27.9242 18.8639 28.303 18.8639 28.7608C18.8639 28.8397 18.8639 28.9028 18.8816 28.9818C18.8816 29.0291 18.8816 29.0765 18.8992 29.1238C18.8816 29.4395 18.8816 29.7552 18.9168 30.0867C18.9696 30.6392 19.1281 31.2391 19.3923 31.8547C19.3923 31.8547 19.1457 31.1444 19.4979 30.434L19.6036 30.6234C19.6388 30.8286 19.674 31.1286 19.7445 31.4601C19.8149 32.0126 20.0967 33.67 21.3647 34.8223C21.3647 34.8223 20.8892 34.2698 20.9596 33.5595C21.0124 33.6542 21.0653 33.7331 21.1005 33.8121C21.3118 34.1751 21.7345 34.8381 22.21 35.3117C22.21 35.3117 21.8401 34.6645 21.9282 34.5224C21.9282 34.5224 23.1609 35.8957 23.5484 36.022L23.0377 35.2643L23.0201 35.2485C24.7987 36.4167 27.2642 36.8429 30.2933 36.0852C30.8216 35.9589 31.3499 35.7852 31.9134 35.58C32.248 35.4537 32.5826 35.2959 32.9172 35.138L32.9701 35.1065C33.199 34.996 33.4279 34.8697 33.6569 34.7434C33.833 34.6487 34.0091 34.5382 34.1676 34.4435C34.4494 34.2698 34.7311 34.0804 35.0129 33.8752C35.0305 33.8594 35.0481 33.8436 35.0657 33.8436C35.3299 33.6384 35.5941 33.4174 35.823 33.1964C36.14 32.8965 36.4218 32.5966 36.6683 32.2967L36.6859 32.2809C36.7564 32.202 36.8092 32.1388 36.862 32.0599L36.8796 32.0441C36.8972 32.0125 36.9149 31.9968 36.9325 31.9652C37.0205 31.8547 37.091 31.76 37.179 31.6495C37.1966 31.6179 37.2142 31.6021 37.2318 31.5706C37.2671 31.5074 37.3023 31.4601 37.3551 31.3969C37.3903 31.3496 37.408 31.318 37.4432 31.2706C37.4784 31.2233 37.5136 31.1759 37.5312 31.1286C37.5841 31.0496 37.6369 30.9549 37.6897 30.876L37.7426 30.7813L37.8482 30.5919L37.9011 30.4972L37.9187 30.4656C37.9539 30.3867 38.0067 30.3077 38.0419 30.2288V30.213C38.2004 30.0867 38.3061 29.9605 38.4118 29.85C38.4294 29.8342 38.447 29.8184 38.447 29.8026C38.6055 29.5974 38.6759 29.3606 38.6759 29.1396ZM10.1995 25.1144C10.1467 25.1302 10.0939 25.1933 10.0234 25.2722C10.0058 25.3038 9.97058 25.3354 9.95297 25.3827C9.79447 25.6511 9.65359 26.0299 9.65359 26.0299C9.6712 25.9036 9.68881 25.7773 9.68881 25.6511V25.6037C9.70642 25.4774 9.72403 25.3354 9.74164 25.2091V25.1617C9.75925 25.0039 9.79447 24.8618 9.82969 24.7197C9.82969 24.7039 9.82969 24.6882 9.8473 24.6566V24.6408C9.8473 24.625 9.8473 24.6092 9.86491 24.5934C9.86491 24.5619 9.88253 24.5461 9.88253 24.5145C9.90014 24.404 9.93536 24.2935 9.95297 24.183C9.97058 24.0883 9.98819 23.9936 10.0058 23.9147V23.8831C10.0058 23.8673 10.0058 23.8515 10.0234 23.8515V23.82C10.0234 23.8042 10.041 23.7726 10.041 23.7568C10.041 23.741 10.041 23.7253 10.0586 23.7095C10.0586 23.6779 10.0762 23.6463 10.0762 23.6305C10.0762 23.6148 10.0939 23.5832 10.0939 23.5674C10.0939 23.5358 10.1115 23.5043 10.1115 23.4885C10.1115 23.4727 10.1115 23.4569 10.1291 23.4411C10.1291 23.4253 10.1291 23.4096 10.1467 23.4096C10.1467 23.378 10.1643 23.3622 10.1643 23.3464V23.2991L10.1291 23.3306C10.0939 23.3464 10.0762 23.378 10.041 23.3938L10.0058 23.4253C9.97058 23.4569 9.93536 23.4885 9.91775 23.52L9.90014 23.5358L9.79447 23.6779L9.77686 23.6937C9.77686 23.7095 9.75925 23.7095 9.75925 23.7253L9.70642 23.82V23.8515C9.68881 23.8989 9.65359 23.9463 9.63598 23.9936C9.58314 24.1199 9.53031 24.2462 9.49509 24.3567C9.47748 24.3882 9.47748 24.4356 9.45987 24.4514C9.44226 24.5145 9.42465 24.5777 9.42465 24.5934C9.42465 24.5461 9.42465 24.5145 9.44226 24.4672C9.44226 24.3882 9.45987 24.2935 9.45987 24.2146C9.45987 24.1515 9.47748 24.0725 9.49509 24.0094C9.49509 23.9936 9.49509 23.962 9.5127 23.9463C9.5127 23.9147 9.53031 23.8831 9.53031 23.8515C9.53031 23.82 9.54792 23.7884 9.54792 23.7568V23.7095C9.54792 23.6779 9.56553 23.6305 9.56553 23.599V23.52V23.4885C9.56553 23.4727 9.56553 23.4569 9.58315 23.4411C9.60076 23.3938 9.61837 23.3306 9.61837 23.2833V23.2675C9.63598 23.2359 9.63598 23.1886 9.65359 23.157V23.1412C9.6712 23.0623 9.70642 22.9833 9.72403 22.9044V22.8728C9.72403 22.8571 9.72403 22.8413 9.74164 22.8255C9.77686 22.6992 9.82969 22.5729 9.86491 22.4624V22.4466C9.90014 22.3519 9.95297 22.2414 9.98819 22.1467V22.1309C10.0058 22.0836 10.0234 22.052 10.041 22.0047C10.0762 21.9415 10.0939 21.8784 10.1291 21.8152C10.1291 21.7994 10.1467 21.7679 10.1819 21.7047C10.1995 21.689 10.1995 21.6574 10.2171 21.6416C10.2347 21.61 10.2523 21.5785 10.27 21.5311L10.2876 21.4995C10.27 21.4837 10.2347 21.4837 10.2171 21.468H10.1995L10.1643 21.4522C10.0058 21.389 9.82969 21.3259 9.65359 21.2785H9.61837C9.49509 21.247 9.38943 21.2312 9.26615 21.2154C9.19571 21.2154 9.12527 21.1996 9.05483 21.1996H8.87872C8.79067 21.1996 8.70261 21.2154 8.61456 21.2154C8.57934 21.2154 8.56173 21.2154 8.52651 21.2312C8.49129 21.2312 8.43845 21.247 8.40323 21.247C8.38562 21.247 8.36801 21.247 8.3504 21.2627C8.31518 21.2627 8.29757 21.2785 8.26235 21.2785C8.20952 21.2943 8.13907 21.3101 8.08624 21.3259C8.06863 21.3259 8.03341 21.3417 8.0158 21.3417C7.94536 21.3732 7.8573 21.389 7.78686 21.4206C7.75164 21.4364 7.73403 21.4522 7.69881 21.4522L7.59314 21.4995L7.55792 21.5153C7.5227 21.5311 7.48748 21.5469 7.45226 21.5785C7.41704 21.5942 7.38182 21.61 7.34659 21.6416C7.31137 21.6574 7.27615 21.689 7.24093 21.7047C7.22332 21.7205 7.1881 21.7363 7.17049 21.7521C7.11766 21.7994 7.04721 21.8468 6.99438 21.8942L6.90633 21.9731C6.8535 22.0204 6.81827 22.0678 6.76544 22.1152L6.74783 22.1309C6.73022 22.1625 6.695 22.1783 6.67739 22.2099L6.62456 22.2572C6.5365 22.3677 6.44845 22.494 6.37801 22.6203C6.3604 22.6361 6.3604 22.6519 6.34279 22.6676C6.30757 22.7308 6.28996 22.7939 6.25473 22.8571C6.23712 22.8886 6.23712 22.9044 6.21951 22.936C6.2019 22.9991 6.16668 23.0623 6.14907 23.1412V23.2043C6.13146 23.2517 6.13146 23.2991 6.11385 23.3464C6.11385 23.378 6.11385 23.3938 6.09624 23.4253C6.09624 23.4569 6.09624 23.4727 6.07863 23.5043V23.5674C6.07863 23.6463 6.06102 23.7253 6.07863 23.8042C6.07863 23.8673 6.07863 23.9305 6.09624 23.9936V24.0252C6.09624 24.0567 6.11385 24.0883 6.11385 24.1199C6.13146 24.2462 6.16668 24.3567 6.2019 24.483C6.23712 24.5777 6.27234 24.6566 6.30757 24.7355C6.37801 24.8934 6.46606 25.0354 6.57173 25.1775C6.78305 25.4616 7.06482 25.7142 7.39943 25.9036C7.57553 26.0141 7.78686 26.0931 7.99819 26.1562C8.1919 26.2193 8.40323 26.2667 8.63217 26.2825C8.685 26.2825 8.73783 26.2983 8.77306 26.2983H9.00199C9.07244 26.2983 9.14288 26.2825 9.21332 26.2825C9.24854 26.2825 9.30137 26.2825 9.3366 26.2667C9.44226 26.2509 9.53031 26.2351 9.63598 26.2193H9.65359C9.68881 26.2036 9.72403 26.2036 9.77686 26.1878C9.90014 26.1562 10.0234 26.1088 10.1291 26.0615L10.1467 26.0457C10.1819 26.0299 10.2171 26.0141 10.2347 26.0141C10.1819 25.7458 10.1291 25.4616 10.1115 25.1775C10.1995 25.1459 10.1995 25.1302 10.1995 25.1144Z" fill="#FCE9CD"/>
<path d="M37.6018 28.4927C37.6018 28.477 37.6018 28.4612 37.5842 28.4612C37.5666 28.4296 37.5666 28.4138 37.5666 28.398C37.4786 28.1455 37.3729 27.956 37.2672 27.814C37.144 27.6403 37.0383 27.5456 37.0383 27.5456L37.0911 27.3562C37.1087 27.2773 37.1264 27.1983 37.1264 27.1194C37.1968 26.5511 37.0383 26.1092 36.8974 25.8566C36.8798 25.8092 36.8622 25.7777 36.8446 25.7461C36.7389 25.8092 36.6509 25.8724 36.5452 25.9355C34.6433 27.0878 32.5124 27.8298 30.2054 28.1455C28.6204 28.3665 26.9474 28.3822 25.204 28.1928L25.2392 28.2086C25.2392 28.2086 24.1825 28.3349 23.9008 29.2346L23.9184 29.2504L23.8303 29.8503C23.8655 30.6711 24.2706 31.1762 24.7461 31.4446C25.2392 31.6182 25.8379 31.7445 26.5071 31.8234C27.6518 31.9497 28.9902 31.9182 30.3286 31.7287C32.1249 31.5077 34.6609 30.6553 36.4748 29.5504C36.8798 29.2978 37.2672 29.0294 37.5842 28.7611L37.6018 28.7453L37.6195 28.7295C37.6195 28.619 37.6018 28.5559 37.6018 28.4927Z" fill="white"/>
<path d="M34.1679 20.6946C33.1993 20.1579 33.0584 19.9842 33.1465 18.5478C33.1817 18.0268 33.2345 17.3481 33.305 16.4167C33.305 16.2905 33.3226 16.18 33.3226 16.0695V15.9905V15.6117C33.3226 15.5328 33.305 15.4538 33.305 15.3907C33.305 15.3591 33.305 15.3276 33.2874 15.296C33.2697 15.2171 33.2697 15.1381 33.2521 15.0592C33.2521 15.0276 33.2345 14.9803 33.2345 14.9487C33.2345 14.9014 33.2169 14.8698 33.1993 14.8224C33.1817 14.7909 33.1817 14.7435 33.1641 14.7119C33.0232 14.5225 32.8647 14.3647 32.671 14.2226L32.6358 14.191L32.6005 14.1752H32.5829C32.5477 14.1594 32.5301 14.1437 32.4949 14.1279C32.4597 14.1121 32.4244 14.0963 32.4068 14.0805C32.125 13.9227 31.7904 13.828 31.4558 13.7806C31.2621 13.749 31.0684 13.749 30.8747 13.749C30.7866 13.749 30.681 13.7648 30.5929 13.7648C30.3464 13.7964 30.0998 13.8437 29.8357 13.9069C29.7476 13.9542 29.6596 14.0174 29.5715 14.0647C29.5011 14.1121 29.4306 14.1594 29.3426 14.2068L29.3073 14.2226C29.2369 14.2699 29.1489 14.3173 29.0784 14.3489L29.0432 14.3647C28.9727 14.412 28.8847 14.4436 28.8143 14.4909L28.779 14.5067C28.7086 14.5541 28.6205 14.5856 28.5325 14.6172L28.4973 14.633C28.4092 14.6646 28.3388 14.6961 28.2507 14.7277L28.2155 14.7435C28.1274 14.7751 28.0394 14.7909 27.9513 14.8224H27.9337C27.8457 14.8382 27.74 14.854 27.6519 14.8698C27.4935 14.8856 27.3173 14.9014 27.1588 14.9014C26.8947 14.9014 26.6305 14.8856 26.3488 14.854L26.0846 14.8066C26.0494 14.8066 26.0142 14.7909 25.9965 14.7909C25.7676 14.7435 25.5211 14.6961 25.2921 14.6488C25.1865 14.633 25.0984 14.6014 24.9927 14.5856C24.8342 14.5541 24.6758 14.5225 24.4996 14.4909C24.4644 14.4909 24.4292 14.4751 24.4116 14.4751C24.2707 14.4751 24.1298 14.4909 24.0065 14.5067H23.9713C23.5663 14.5541 23.1788 14.633 22.7738 14.7593C22.7562 14.7593 22.7386 14.7751 22.7034 14.7751C22.6329 14.7909 22.5801 14.8224 22.5096 14.8382C22.4216 14.8698 22.3511 14.9014 22.2631 14.9329C21.6819 15.1539 21.136 15.4696 20.6077 15.8643C20.3964 16.0221 20.2026 16.1957 20.0089 16.3694C19.7272 16.6377 19.4806 16.9219 19.2517 17.2218C19.2341 17.2376 19.2341 17.2534 19.2165 17.2692C19.0932 17.427 18.9875 17.6006 18.8995 17.7585C18.8642 17.8216 18.829 17.8848 18.7938 17.9321V17.9479C18.6881 18.1531 18.6001 18.3426 18.5296 18.5478C18.5296 18.5635 18.5296 18.5793 18.512 18.5793C18.4944 18.6109 18.4944 18.6425 18.4768 18.674C18.4416 18.7688 18.4064 18.8635 18.3888 18.9582C18.3535 19.0529 18.3359 19.1476 18.3183 19.2581C18.3183 19.2739 18.3007 19.3055 18.3007 19.3212C18.2831 19.3844 18.2831 19.4475 18.2655 19.4949C18.2303 19.7159 18.2126 19.9369 18.195 20.1579V20.3157C18.3007 20.6788 18.4592 21.0103 18.6529 21.2944C19.3749 22.4152 20.5725 23.0939 21.453 23.457C21.7876 23.5833 22.1398 23.7096 22.5096 23.8201L22.5273 23.8358L22.5449 23.8201C22.5977 23.7885 22.6329 23.7569 22.6857 23.7253C22.7034 23.7096 22.721 23.7096 22.7386 23.6938L22.8971 23.5991C22.9147 23.5833 22.9323 23.5833 22.9499 23.5675L23.1084 23.4728C23.126 23.457 23.1436 23.457 23.1612 23.4412C23.2141 23.4096 23.2669 23.3781 23.3373 23.3465C23.355 23.3307 23.3726 23.3307 23.3902 23.3149C23.443 23.2834 23.5134 23.2518 23.5663 23.2202C23.5839 23.2044 23.6015 23.2044 23.6191 23.1886C23.6719 23.1571 23.7424 23.1255 23.7952 23.0939C23.8128 23.0781 23.848 23.0781 23.8657 23.0624C23.9185 23.0308 23.9889 22.9992 24.0418 22.9677C24.0594 22.9519 24.0946 22.9361 24.1122 22.9361C24.165 22.9045 24.2355 22.8729 24.3059 22.8414C24.3411 22.8256 24.3588 22.8098 24.394 22.8098C24.4644 22.7782 24.5173 22.7467 24.5877 22.7309C24.6229 22.7151 24.6405 22.6993 24.6758 22.6993C24.7462 22.6677 24.799 22.6519 24.8695 22.6204L24.9751 22.573C25.0456 22.5414 25.0984 22.5257 25.1688 22.4941C25.2041 22.4783 25.2393 22.4625 25.2921 22.4467C25.3626 22.4309 25.4154 22.3994 25.4858 22.3836C25.5211 22.3678 25.5739 22.352 25.6091 22.3362C25.6796 22.3205 25.7324 22.2889 25.8028 22.2731C25.8557 22.2573 25.8909 22.2415 25.9437 22.2257C26.0142 22.21 26.067 22.1784 26.1374 22.1626L26.2959 22.1152C26.3488 22.0995 26.4192 22.0837 26.472 22.0521C26.5249 22.0363 26.5953 22.0205 26.6481 22.0047C26.701 21.989 26.7714 21.9732 26.8242 21.9574C26.8947 21.9416 26.9651 21.9258 27.018 21.91C27.0708 21.8942 27.1236 21.8785 27.1941 21.8627C27.2645 21.8469 27.335 21.8311 27.423 21.7995C27.4582 21.7838 27.4935 21.7838 27.5287 21.768C27.8104 21.1208 28.6734 19.5107 30.135 19.337C30.2935 19.3212 30.4344 19.3055 30.5753 19.3055H30.681C30.6634 19.2107 30.6458 19.116 30.6458 19.0055C30.5929 18.311 30.8395 17.7269 31.1741 17.7111C31.4382 17.6954 31.6496 18.0426 31.6848 18.1531C31.7904 18.3583 31.8609 18.6267 31.8785 18.9266C31.8961 19.195 31.8609 19.4475 31.8081 19.6685C31.8433 19.7001 31.8609 19.7317 31.8961 19.7474C32.2307 20.1263 32.2835 20.6314 32.2659 21.0103C32.3892 20.9945 32.5301 20.9945 32.671 20.9787C32.7062 20.9787 32.7414 20.9787 32.7766 20.9629H32.8471C33.0056 20.9471 33.1817 20.9313 33.3578 20.9313C33.7452 20.8998 34.1327 20.884 34.5377 20.8682C34.3088 20.7577 34.1679 20.6946 34.1679 20.6946ZM37.8485 30.4183C37.2145 30.9235 36.5453 31.3339 35.8761 31.6654C35.5415 31.8232 35.2069 31.9653 34.8899 32.0916C34.1679 32.3757 33.4811 32.5651 32.8647 32.7072C31.5087 33.0071 30.5753 33.0071 30.5753 33.0071C31.315 33.3702 32.2483 33.3702 32.8823 33.3228C33.3226 33.2913 33.622 33.2123 33.622 33.2123C33.6043 33.4491 33.5691 33.6701 33.5339 33.8911C33.4811 34.1279 33.4106 34.3331 33.3226 34.5225V34.5383C33.2169 34.7751 33.076 34.9803 32.9351 35.1697C32.9175 35.1855 32.8999 35.2171 32.8823 35.2328L32.9351 35.2013C33.1641 35.0908 33.393 34.9645 33.622 34.8382C33.7981 34.7435 33.9742 34.633 34.1327 34.5383C34.4144 34.3647 34.6962 34.1752 34.978 33.97C34.9956 33.9542 35.0132 33.9384 35.0308 33.9384C35.295 33.7332 35.5591 33.5122 35.7881 33.2912C36.1051 32.9913 36.3868 32.6914 36.6334 32.3915L36.651 32.3757C36.7214 32.2968 36.7743 32.2336 36.8271 32.1547L36.8447 32.1389C36.8623 32.1074 36.8799 32.0916 36.8975 32.06C36.9856 31.9495 37.056 31.8548 37.1441 31.7443C37.1617 31.7127 37.1793 31.6969 37.1969 31.6654C37.2321 31.6022 37.2674 31.5549 37.3202 31.4917C37.3554 31.4444 37.373 31.4128 37.4082 31.3654C37.4435 31.3181 37.4787 31.2707 37.4963 31.2234C37.5491 31.1444 37.602 31.0497 37.6548 30.9708L37.7076 30.8761L37.8133 30.6867L37.8661 30.592L37.8837 30.5604C37.919 30.4815 37.9718 30.4025 38.007 30.3236C37.9366 30.3394 37.9013 30.371 37.8485 30.4183ZM21.7876 24.0568C21.6115 24.1042 21.4002 24.1831 21.1888 24.262C20.6253 24.4673 19.9913 24.7672 19.4278 25.1776C19.3573 25.225 19.2869 25.2881 19.2165 25.3354C19.0932 25.4302 18.9875 25.5249 18.8818 25.6354L18.8466 25.6669L18.7938 25.7143C18.7586 25.7617 18.7057 25.7932 18.6705 25.8406L18.6177 25.8879C18.5649 25.9511 18.512 26.0142 18.4768 26.0774C18.424 26.1405 18.3888 26.2036 18.3359 26.2668C18.0013 26.7877 17.8076 27.4191 17.8604 28.1768V28.1452C17.8604 28.1295 17.8604 28.1137 17.878 28.0979V28.0821C17.878 28.0663 17.8957 28.0505 17.8957 28.019V28.0032C17.8957 27.9874 17.9133 27.9558 17.9133 27.9242C17.9133 27.8927 17.9309 27.8769 17.9485 27.8453V27.8295C17.9661 27.798 17.9661 27.7664 17.9837 27.7348V27.719C18.0013 27.6875 18.0013 27.6559 18.0189 27.6243V27.6085C18.0365 27.577 18.0541 27.5454 18.0718 27.498L18.0894 27.4823C18.107 27.4507 18.1246 27.4033 18.1598 27.3718C18.195 27.3086 18.2303 27.2613 18.2655 27.1981C18.2831 27.1823 18.3007 27.1508 18.3183 27.135L18.3359 27.1192L18.4416 26.9771C18.4768 26.9455 18.512 26.8982 18.5472 26.8666L18.5825 26.8351C18.6177 26.8035 18.6353 26.7719 18.6705 26.7561L18.7057 26.7246C18.741 26.693 18.7938 26.6614 18.829 26.6141C18.829 26.6141 18.0718 28.161 18.4064 29.3765V29.3607V29.3291V29.2818V29.2186V29.1397C18.4064 29.1081 18.4064 29.0766 18.424 29.045C18.424 29.0134 18.424 28.9819 18.4416 28.9503V28.9345C18.4416 28.9029 18.4592 28.8556 18.4592 28.824V28.7924C18.4768 28.7451 18.4768 28.7135 18.4944 28.6662V28.6504C18.512 28.603 18.5296 28.5557 18.5296 28.5241C18.5296 28.5083 18.5472 28.4925 18.5472 28.4767L18.5649 28.4452C18.5825 28.4136 18.6001 28.3662 18.6177 28.3347C18.6353 28.2873 18.6705 28.2399 18.7057 28.1926C18.7057 28.1768 18.7234 28.161 18.7234 28.161L18.829 28.019C18.829 28.019 18.7938 28.3978 18.7938 28.8556C18.7938 28.9345 18.7938 28.9976 18.8114 29.0766C18.8114 29.1239 18.8114 29.1713 18.829 29.2186C18.8642 28.7293 18.9699 28.2715 19.1108 27.8453C19.146 27.7348 19.1988 27.6085 19.2341 27.498C19.2341 27.4823 19.2517 27.4665 19.2517 27.4507C19.3045 27.3402 19.3397 27.2455 19.3926 27.135C19.4102 27.1192 19.4102 27.1034 19.4278 27.0718C19.4806 26.9771 19.5334 26.8666 19.5863 26.7719C19.6039 26.7561 19.6039 26.7403 19.6039 26.7246C19.7272 26.5193 19.8504 26.3299 19.9737 26.1563C19.9913 26.1405 19.9913 26.1247 20.0089 26.1089C20.0618 26.0458 20.1146 25.9826 20.1674 25.9037C20.185 25.8879 20.185 25.8722 20.2026 25.8564C20.2203 25.8406 20.2203 25.8248 20.2379 25.809C20.3083 25.7301 20.3611 25.6512 20.4316 25.5722C20.4492 25.5564 20.4492 25.5407 20.4668 25.5407C20.5372 25.4617 20.6077 25.3828 20.6781 25.3197C20.7662 25.225 20.8542 25.146 20.9423 25.0513C21.0127 24.9882 21.0656 24.925 21.136 24.8777L21.2065 24.8145C21.3473 24.6882 21.4882 24.562 21.6291 24.4515C22.0165 24.1358 22.3335 23.9306 22.4392 23.8674C22.3688 23.8832 22.2983 23.899 22.2103 23.9148C22.1046 23.9621 21.9637 24.0095 21.7876 24.0568Z" fill="#F2D2AC"/>
<path d="M31.9312 20.6314C31.9312 20.6314 31.9312 20.5999 31.9136 20.5367C31.8432 20.3157 31.5966 19.779 30.628 19.858C29.6066 19.9527 29.2544 20.6946 29.1664 20.9471C29.1487 20.9945 29.1487 21.0261 29.1487 21.0261L29.184 21.0419C29.3072 20.9471 29.5538 20.9471 29.7827 21.0892C29.8884 21.1523 29.9588 21.2155 30.0293 21.2944C30.1173 21.4207 30.1349 21.547 30.0821 21.6417L30.0293 21.689C30.0293 21.689 30.0645 21.7048 30.1349 21.7206C30.4167 21.7995 31.2092 21.9416 31.6318 21.4523C31.6495 21.4207 31.6671 21.4049 31.6847 21.3733C31.5966 21.3418 31.5614 21.2313 31.5614 21.0892C31.5614 21.0261 31.579 20.9629 31.5966 20.884C31.6495 20.6946 31.8079 20.5841 31.9312 20.6314ZM26.8417 27.3875C26.1725 27.5138 25.5914 27.6085 25.1511 27.6717C25.1687 27.6717 25.204 27.6717 25.2216 27.6875C25.9788 27.7664 27.1764 27.8769 28.6204 27.798C31.262 27.6559 34.7313 26.914 37.8836 24.3568V24.341C37.9012 24.12 37.866 23.7411 37.5666 23.4412C37.5138 23.3939 37.461 23.3465 37.3905 23.2992C37.3729 23.2992 37.3729 23.2834 37.3553 23.2834C37.2673 23.236 37.1968 23.2044 37.1264 23.1571L36.9679 23.0624V23.0466C36.7742 23.2992 36.5452 23.5359 36.2987 23.7569C36.2106 23.8359 36.1226 23.9148 36.0169 23.9937C35.154 24.6883 34.0269 25.2881 32.8118 25.7617C30.8041 26.5509 28.55 27.0718 26.8417 27.3875ZM10.1469 23.2676C10.1116 23.2834 10.094 23.3149 10.0588 23.3307L10.0236 23.3623C9.98837 23.3939 9.95315 23.4254 9.93554 23.457L9.91793 23.4728L9.81226 23.6149L9.79465 23.6306C9.79465 23.6464 9.77704 23.6464 9.77704 23.6622L9.72421 23.7569V23.7885C9.7066 23.8359 9.67138 23.8832 9.65377 23.9306C9.60094 24.0568 9.5481 24.1831 9.51288 24.2936C9.49527 24.3252 9.49527 24.3726 9.47766 24.3883C9.46005 24.4515 9.44244 24.5146 9.44244 24.5304C9.44244 24.483 9.44244 24.4515 9.46005 24.4041C9.46005 24.3252 9.47766 24.2305 9.47766 24.1516C9.47766 24.0884 9.49527 24.0095 9.51288 23.9463C9.51288 23.9306 9.51288 23.899 9.53049 23.8832C9.53049 23.8516 9.5481 23.8201 9.5481 23.7885C9.5481 23.7569 9.56571 23.7254 9.56571 23.6938V23.6464C9.56571 23.6149 9.58333 23.5675 9.58333 23.5359V23.457V23.4254C9.58333 23.4096 9.58333 23.3939 9.60094 23.3781C9.61855 23.3307 9.63616 23.2676 9.63616 23.2202V23.2044C9.65377 23.1729 9.65377 23.1255 9.67138 23.0939V23.0782C9.68899 22.9992 9.72421 22.9203 9.74182 22.8414V22.8098C9.74182 22.794 9.74182 22.7782 9.75943 22.7624C9.79465 22.6362 9.84748 22.5099 9.88271 22.3994V22.3836C9.91793 22.2889 9.97076 22.1784 10.006 22.0837V22.0679C10.0236 22.0205 10.0412 21.989 10.0588 21.9416C10.094 21.8785 10.1116 21.8153 10.1469 21.7522C10.1469 21.7364 10.1645 21.7048 10.1997 21.6417C10.2173 21.6259 10.2173 21.5943 10.2349 21.5786C10.2525 21.547 10.2701 21.5154 10.2878 21.4681L10.3054 21.4365C10.2878 21.4207 10.2525 21.4207 10.2349 21.4049H10.2173L10.1821 21.3891C10.0236 21.326 9.84749 21.2628 9.67138 21.2155H9.63616C9.51288 21.1839 9.40722 21.1681 9.28394 21.1523C9.2135 21.1523 9.14306 21.1366 9.07262 21.1366H8.89651C8.80846 21.1366 8.7204 21.1523 8.63235 21.1523C8.59713 21.1523 8.57952 21.1523 8.5443 21.1681C8.50908 21.1681 8.45624 21.1839 8.42102 21.1839C8.40341 21.1839 8.3858 21.1839 8.36819 21.1997C8.33297 21.1997 8.31536 21.2155 8.28014 21.2155C8.22731 21.2313 8.15686 21.2471 8.10403 21.2628C8.08642 21.2628 8.0512 21.2786 8.03359 21.2786C7.96315 21.3102 7.87509 21.326 7.80465 21.3576C7.76943 21.3733 7.75182 21.3891 7.7166 21.3891L7.61093 21.4365L7.57571 21.4523C7.54049 21.4681 7.50527 21.4838 7.47005 21.5154C7.43483 21.5312 7.39961 21.547 7.36439 21.5786C7.32916 21.5943 7.29394 21.6259 7.25872 21.6417C7.24111 21.6575 7.20589 21.6733 7.18828 21.689C7.13545 21.7364 7.065 21.7838 7.01217 21.8311L6.92412 21.91C6.87129 21.9574 6.83607 22.0048 6.78323 22.0521L6.76562 22.0679C6.74801 22.0995 6.71279 22.1153 6.69518 22.1468L6.64235 22.1942C6.5543 22.3047 6.46624 22.431 6.3958 22.5572C6.37819 22.573 6.37819 22.5888 6.36058 22.6046C6.32536 22.6677 6.30775 22.7309 6.27253 22.794C6.25491 22.8256 6.25492 22.8414 6.2373 22.8729C6.2373 22.8887 6.25492 22.9045 6.25492 22.9203C6.27253 22.9834 6.29014 23.0308 6.30775 23.0939V23.1255C6.32536 23.1729 6.36058 23.236 6.37819 23.2834C6.44863 23.4412 6.51907 23.5833 6.60713 23.7096C6.62474 23.7254 6.62474 23.7411 6.64235 23.7569V23.7727L6.65996 23.7885C6.71279 23.8832 6.76562 23.9621 6.81846 24.0253C6.90651 24.1358 6.97695 24.2147 7.02978 24.2778L7.065 24.3094C7.065 24.3252 7.08262 24.3252 7.08262 24.3252L7.11784 24.3568C7.11784 24.3252 7.10023 24.2936 7.10023 24.2778C7.04739 24.0726 7.02978 23.8832 7.02978 23.678V23.6464C7.02978 23.5201 7.02978 23.3939 7.04739 23.2834L7.10023 23.4254C7.11784 23.4886 7.15306 23.5517 7.17067 23.6149V23.6464C7.27633 23.9148 7.39961 24.1358 7.52288 24.3094C7.66377 24.5304 7.78704 24.6725 7.87509 24.7672C7.8927 24.783 7.91032 24.7988 7.91032 24.8145L7.94554 24.8461C7.8927 24.6251 7.85748 24.4199 7.85748 24.2147V24.0095C7.85748 23.9148 7.85748 23.8359 7.87509 23.7569C7.91032 23.899 7.96315 24.0411 8.01598 24.1673V24.1831C8.2097 24.6409 8.43863 24.9724 8.59713 25.1776L8.61474 25.1934C8.64996 25.225 8.66757 25.2565 8.68518 25.2881C8.70279 25.3039 8.7204 25.3197 8.7204 25.3355L8.75563 25.367L8.77324 25.3828V25.3512C8.77324 25.3197 8.75563 25.2881 8.75563 25.2565C8.73802 25.146 8.7204 25.0355 8.70279 24.9408C8.70279 24.8777 8.68518 24.7988 8.68518 24.7356V24.5462V24.5146V24.3883C8.68518 24.3094 8.70279 24.2147 8.70279 24.1358C8.7204 24.1831 8.73802 24.2463 8.75563 24.2936C8.77324 24.3252 8.79085 24.3726 8.80846 24.4041V24.4199L8.82607 24.4357C8.84368 24.4831 8.86129 24.5304 8.8789 24.562C8.91412 24.6409 8.94934 24.7198 9.00217 24.783C9.05501 24.8777 9.09023 24.9566 9.14306 25.0198C9.17828 25.0671 9.19589 25.0987 9.2135 25.1302C9.24872 25.1776 9.28394 25.225 9.30156 25.2565C9.33678 25.2881 9.35439 25.3197 9.372 25.3512L9.38961 25.367C9.40722 25.3986 9.44244 25.4144 9.46005 25.446C9.47766 25.4617 9.49527 25.4775 9.49527 25.4933C9.53049 25.5249 9.5481 25.5565 9.56571 25.5565L9.58333 25.5722V25.5249C9.60094 25.3986 9.61855 25.2565 9.63616 25.1302V25.0829C9.65377 24.925 9.68899 24.783 9.72421 24.6409C9.72421 24.6251 9.72421 24.6093 9.74182 24.5778V24.562C9.74182 24.5462 9.74182 24.5304 9.75943 24.5146C9.75943 24.4831 9.77704 24.4673 9.77704 24.4357C9.79465 24.3252 9.82987 24.2147 9.84749 24.1042C9.8651 24.0095 9.88271 23.9148 9.90032 23.8359V23.8043C9.90032 23.7885 9.90032 23.7727 9.91793 23.7727V23.7411C9.91793 23.7254 9.93554 23.6938 9.93554 23.678C9.93554 23.6622 9.93554 23.6464 9.95315 23.6306C9.95315 23.5991 9.97076 23.5675 9.97076 23.5517C9.97076 23.5359 9.98837 23.5044 9.98837 23.4886C9.98837 23.457 10.006 23.4254 10.006 23.4096C10.006 23.3939 10.006 23.3781 10.0236 23.3623C10.0236 23.3465 10.0236 23.3307 10.0412 23.3307C10.0412 23.2992 10.0588 23.2834 10.0588 23.2676V23.2202L10.1469 23.2676ZM31.491 29.8658C31.7375 29.7869 31.9488 29.7238 32.1249 29.6606C32.4595 29.5344 32.6357 29.4396 32.6357 29.4081C32.618 29.3765 32.4243 29.3923 32.0721 29.4712C31.896 29.5028 31.6847 29.5344 31.4205 29.5975C31.2972 29.6291 31.1564 29.6448 31.0155 29.6606C30.8746 29.6764 30.7161 29.708 30.5576 29.7238C30.2406 29.7711 29.8884 29.8027 29.501 29.8343L28.9198 29.8816C28.7261 29.8974 28.5148 29.8974 28.3034 29.9132C27.4581 29.929 26.5248 29.8974 25.5738 29.7396C25.0807 29.6606 24.3939 29.4554 23.9184 29.2186L23.9008 29.2029C24.1825 28.3031 25.2392 28.1768 25.2392 28.1768L25.204 28.161H25.1511C24.9926 28.1452 24.8694 28.1295 24.7461 28.1137C24.658 28.0979 24.5876 28.0979 24.5348 28.0821C24.4819 28.0821 24.4291 28.0663 24.4115 28.0663C23.7775 28.0347 23.4253 28.5083 23.3196 28.7135L23.2668 28.8082C23.1787 28.9977 23.1083 29.2029 23.0907 29.4396C23.0555 29.8658 23.1787 30.3236 23.5486 30.7183C23.7951 30.9866 24.2178 31.2234 24.7637 31.4128C24.2882 31.1445 23.8656 30.6235 23.8479 29.8185C24.3939 30.0237 25.0102 30.15 25.4857 30.2289C26.4895 30.4025 27.4757 30.4183 28.3387 30.371C28.55 30.3552 28.7789 30.3394 28.9726 30.3236C29.184 30.292 29.3777 30.2763 29.5714 30.2605C29.9588 30.1973 30.2934 30.15 30.628 30.0868C30.7865 30.0553 30.945 30.0237 31.0859 29.9763C31.2444 29.9448 31.3677 29.9132 31.491 29.8658Z" fill="#F2D2AC"/>
<path d="M30.6632 19.3213C31.1915 19.337 31.5437 19.4791 31.7903 19.7001C31.8431 19.4949 31.8783 19.2423 31.8607 18.9582C31.8431 18.6583 31.7727 18.3899 31.667 18.1847C31.6318 18.0584 31.4205 17.7269 31.1563 17.7427C30.8217 17.7585 30.5752 18.3426 30.628 19.0371C30.628 19.1318 30.6456 19.2266 30.6632 19.3213ZM31.5437 21.105C31.5437 21.2313 31.5966 21.3418 31.667 21.3891C31.7903 21.4523 31.9488 21.326 32.0192 21.1208C32.0192 21.105 32.0368 21.0892 32.0368 21.0734C32.0897 20.884 32.0368 20.6946 31.9136 20.6472C31.7903 20.5841 31.6318 20.7104 31.5614 20.9156C31.5614 20.9787 31.5437 21.0419 31.5437 21.105ZM29.1487 21.4523C29.2015 21.5312 29.2896 21.6101 29.3952 21.6733C29.6242 21.7996 29.8707 21.8153 30.0116 21.7048L30.0645 21.6575C30.1173 21.5628 30.0997 21.4365 30.0116 21.3102C29.9588 21.2313 29.8707 21.1524 29.7651 21.105C29.5361 20.9787 29.2896 20.9629 29.1663 21.0576C29.1487 21.0734 29.1311 21.0892 29.1135 21.1208C29.0606 21.1997 29.0783 21.326 29.1487 21.4523ZM37.9012 24.341C37.8836 24.341 37.8836 24.341 37.9012 24.341V24.341ZM37.6194 28.7135C37.2848 28.9977 36.915 29.266 36.4923 29.5186C34.6784 30.6236 32.1425 31.4917 30.3462 31.697C28.9902 31.8864 27.6694 31.9179 26.5247 31.7917C25.8555 31.7127 25.2744 31.5865 24.7637 31.4128C24.2177 31.2234 23.7951 30.9866 23.5485 30.7183C23.1787 30.3236 23.073 29.8501 23.0906 29.4397C23.1083 29.2187 23.1611 28.9977 23.2667 28.8082L23.3196 28.7135C23.4429 28.5083 23.7775 28.019 24.4114 28.0663C24.429 28.0663 24.4819 28.0663 24.5347 28.0821C24.5875 28.0821 24.6756 28.0979 24.746 28.1137C24.8693 28.1295 24.9926 28.1453 25.1511 28.161H25.2039C26.9474 28.3505 28.6204 28.3347 30.2053 28.1137C32.5123 27.798 34.6432 27.0561 36.5452 25.9037C36.6508 25.8406 36.7389 25.7775 36.8445 25.7143L37.8836 24.3252C34.7313 26.8982 31.262 27.6401 28.6204 27.7822C27.1763 27.8611 25.9788 27.7664 25.2215 27.6717C25.1863 27.6717 25.1687 27.6717 25.1511 27.6559C24.9221 27.6243 24.746 27.6086 24.6052 27.5928C24.5347 27.5928 24.4819 27.577 24.4467 27.577C24.2529 27.5612 24.0592 27.5928 23.8831 27.6401C23.5309 27.7348 23.2139 27.9558 22.985 28.24C22.7032 28.5872 22.5271 29.0608 22.5271 29.5344C22.5271 29.929 22.6328 30.3394 22.8617 30.7183C22.8793 30.734 22.8793 30.7498 22.8969 30.7656C22.9321 30.813 22.9498 30.8445 22.985 30.8919C23.0202 30.9393 23.073 31.0024 23.1259 31.0498C23.6718 31.6654 24.8693 32.1074 26.4543 32.2968C27.5285 32.4231 28.7789 32.4073 30.1349 32.2337C34.1501 31.5865 36.0521 30.4183 36.9326 29.6133C37.003 29.5502 37.0559 29.5028 37.1087 29.4397C37.4257 29.1082 37.5666 28.8556 37.6194 28.7609V28.7451C37.637 28.7135 37.637 28.6977 37.637 28.6977L37.6194 28.7135Z" fill="#664F44"/>
<path d="M24.8516 16.2432C24.7283 16.18 24.5875 16.1327 24.4466 16.1011C24.3585 16.0853 24.2705 16.0695 24.1648 16.0537C24.1296 16.0537 24.0944 16.0537 24.0591 16.038C23.5837 16.0064 23.1786 16.0695 23.1786 16.0695C23.0906 16.0853 23.0025 16.1011 22.9321 16.1327C22.2981 16.3063 21.8578 16.6062 21.5408 16.9535C21.2943 17.2376 21.1182 17.5376 21.0301 17.8375C21.0125 17.8691 21.0125 17.8848 21.0125 17.9164C20.9949 17.9953 20.9597 18.0743 20.9421 18.1374C20.8892 18.39 20.854 18.611 20.854 18.8004C20.854 19.053 20.8716 19.2108 20.8716 19.2108C20.9773 18.9898 21.1006 18.8004 21.2238 18.611C21.5232 18.1532 21.8402 17.7743 22.1748 17.4744C22.8088 16.8904 23.4604 16.5747 23.9535 16.4168C24.4818 16.259 24.8516 16.2432 24.8516 16.2432ZM32.477 15.4381L32.4594 15.4065C32.389 15.3276 32.3009 15.2487 32.1953 15.1855C31.9487 15.0435 31.6141 14.9646 31.1562 15.0435C31.1562 15.0435 30.6103 15.154 30.2933 15.4855C30.2933 15.4855 31.2443 15.1224 32.2657 15.7696C32.3538 15.8327 32.4594 15.8959 32.5475 15.9748C32.6355 16.0537 32.7412 16.1327 32.8292 16.2432C32.8292 16.2432 32.794 15.8485 32.5299 15.5013C32.5122 15.4697 32.4946 15.4539 32.477 15.4381Z" fill="#E9B784"/>
<path d="M24.9748 21.7204C25.3447 21.6257 25.7321 21.5309 26.1724 21.4362C26.2428 21.1363 26.2604 20.7733 26.2076 20.3786C26.0843 19.4631 25.6264 18.7527 25.1686 18.8001C24.7107 18.8474 24.4465 19.6367 24.5698 20.5523C24.6402 21.0258 24.7811 21.4362 24.9748 21.7204Z" fill="#664F44"/>
<path d="M22.8793 1.08936L21.9283 1.27878L22.122 2.82574L19.6037 1.67341L18.5647 1.95755L18.5823 1.97333L21.6466 5.09883L21.6818 5.08304L21.717 5.06726C21.8051 5.0199 21.9107 4.95676 21.9988 4.9094C22.034 4.89362 22.0692 4.87783 22.1044 4.84626C22.2453 4.76734 22.3862 4.68841 22.5271 4.62527L21.2239 3.28351L23.3196 4.19906C23.39 4.16749 23.4428 4.13592 23.5133 4.10435L23.3196 2.7626L24.2705 3.75707H24.2882C24.3762 3.7255 24.4467 3.67815 24.5347 3.64658L24.5699 3.63079L24.6051 3.61501C24.6228 3.61501 24.6404 3.59922 24.6404 3.59922L24.746 3.55187C24.746 3.55187 24.7636 3.55187 24.7636 3.53608C24.8693 3.48872 24.9926 3.44137 25.0982 3.39401L22.8793 1.08936Z" fill="#FFD250"/>
<path d="M21.9459 1.27861L22.0868 1.24704C21.8578 1.15233 21.576 1.08918 21.259 1.04183C20.6251 0.962902 19.815 1.04183 18.8992 1.24704C17.9835 1.45225 16.9444 1.81531 15.8526 2.30465C13.6513 3.28334 11.221 4.78295 8.86116 6.70876C8.03346 7.37174 7.2762 8.0663 6.57178 8.74507L9.4247 11.9021C10.1996 11.1444 11.0273 10.3867 11.943 9.64483C13.1582 8.65035 14.3909 7.76638 15.606 7.00868C16.7859 6.26677 17.9659 5.63536 19.0753 5.13023L18.5822 3.10971L18.5998 1.97316L18.5822 1.95738L19.6213 1.67324L21.6465 2.60458L21.5937 1.97316L21.9459 1.27861Z" fill="#4D9ED7"/>
<path d="M21.9459 1.27881L21.5937 1.97336L21.6465 2.62056L22.1396 2.84156L21.9459 1.27881ZM21.2239 3.28354L23.3372 4.21488L22.5271 4.6253L21.2239 3.28354ZM23.3372 2.76263L23.5309 4.10438L24.2881 3.7571L23.3372 2.76263Z" fill="#132134"/>
<path d="M31.2973 2.27291H31.6847C32.0369 2.27291 32.3715 2.32027 32.6885 2.38341C32.7061 2.38341 32.7237 2.38341 32.7413 2.39919H32.759L32.7942 2.41498H32.8294C32.7942 2.39919 32.759 2.36762 32.7237 2.35184C32.3715 2.22556 32.0017 2.14663 31.6143 2.09927C29.7123 1.87828 27.5286 2.50969 26.2958 2.95168C26.2254 2.98325 26.155 2.99904 26.0845 3.03061C25.9789 3.07796 25.8732 3.10953 25.7675 3.15689C25.5914 3.22003 25.4153 3.29896 25.2216 3.37788C25.1864 3.39367 25.1688 3.39367 25.1335 3.40946C25.0279 3.45681 24.9046 3.50417 24.7989 3.55152C24.7989 3.55152 24.7813 3.55152 24.7813 3.56731L24.6757 3.61466C24.6581 3.61466 24.6404 3.63045 24.6404 3.63045H24.57L24.5524 3.64624C24.4643 3.67781 24.3939 3.70938 24.3058 3.75673H24.2882C24.2706 3.77252 24.253 3.77252 24.2354 3.7883H24.2178C24.2002 3.7883 24.1826 3.80409 24.1826 3.80409C24.0593 3.86723 23.936 3.91459 23.8127 3.97773C23.7247 4.02508 23.6366 4.05665 23.5486 4.10401H23.531C23.4605 4.13558 23.4077 4.16715 23.3373 4.19872C23.1259 4.29343 22.9322 4.40393 22.7209 4.51443C22.7033 4.53021 22.6857 4.53021 22.6504 4.546C22.6328 4.56178 22.6152 4.56178 22.5976 4.57757C22.58 4.59335 22.5624 4.59335 22.5448 4.60914L22.5272 4.62492C22.3863 4.70385 22.2454 4.76699 22.1045 4.84592C22.0693 4.8617 22.0341 4.87749 21.9989 4.90906C21.9108 4.95642 21.8051 5.01956 21.7171 5.06691L21.6819 5.0827L21.6466 5.09848L20.8542 5.57204C20.4139 5.84039 19.9912 6.10875 19.5686 6.39288C19.5158 6.42445 19.4629 6.47181 19.4101 6.50338C18.3006 7.24529 17.244 8.05034 16.2226 8.87118C15.1483 9.75515 14.1093 10.6549 13.1407 11.5705C12.6124 12.044 12.1545 12.4702 11.8023 12.8175C11.0626 13.5278 10.6576 13.9698 10.6752 13.9856C10.6752 13.9856 10.7457 13.9383 10.8689 13.8278C10.7809 13.9225 10.6752 14.033 10.5872 14.1277C12.2073 12.5807 13.986 11.0022 15.9056 9.51837C17.0679 8.61861 18.283 7.75042 19.5334 6.94537C20.0793 6.59809 20.6428 6.25081 21.2064 5.91932C21.3825 5.80882 21.5762 5.71411 21.7523 5.60361C21.8404 5.55626 21.9284 5.5089 22.0341 5.46155C22.0869 5.42998 22.1397 5.39841 22.1926 5.38262C22.2982 5.33526 22.3863 5.27212 22.492 5.22477C22.58 5.17741 22.6857 5.13005 22.7737 5.06691C22.8266 5.03534 22.8794 5.01956 22.9322 4.98799L23.302 4.79856C23.3725 4.76699 23.4429 4.71964 23.5134 4.68807C23.7423 4.57757 23.9712 4.46707 24.2178 4.35657C24.2354 4.34079 24.253 4.34079 24.2706 4.325L24.3763 4.27765C24.4291 4.26186 24.4643 4.23029 24.5172 4.21451C24.5348 4.19872 24.5524 4.19872 24.57 4.18294L24.6757 4.13558C24.6757 4.13558 24.6933 4.13558 24.6933 4.11979H24.7109C24.8166 4.07244 24.9222 4.02508 25.0103 3.99351C25.0279 3.99351 25.0455 3.97773 25.0631 3.96194L25.1688 3.91459C25.292 3.86723 25.3977 3.81987 25.521 3.77252C25.5562 3.75673 25.5914 3.74095 25.609 3.72516C25.6266 3.72516 25.6443 3.70938 25.6619 3.70938C25.6971 3.69359 25.7323 3.67781 25.7675 3.67781C25.9084 3.63045 26.0317 3.56731 26.1726 3.51995C26.2958 3.4726 26.4015 3.42524 26.5248 3.37788C27.194 3.12532 27.8104 2.92011 28.3915 2.74647C29.4834 2.47812 30.452 2.30448 31.2973 2.27291Z" fill="white"/>
</g>
<defs>
<clipPath id="clip0_3785_43469">
<rect width="39.4667" height="40" fill="white" transform="translate(0.266602)"/>
</clipPath>
</defs>
</svg>
