<svg width="40" height="40" viewBox="0 0 40 40" fill="none" xmlns="http://www.w3.org/2000/svg">
<g clip-path="url(#clip0_3710_94986)">
<path d="M0.402588 0H39.5971V40H0.402588V0Z" fill="#47B972"/>
<path d="M29.1453 14.6664H29.0364C28.111 13.8887 26.9406 13.472 25.743 13.4998C24.0555 13.472 22.4224 14.222 21.3064 15.4998L22.9123 17.3331C23.6472 16.5276 24.6815 16.0831 25.7702 16.0553C27.7572 16.1109 29.3358 17.7776 29.3086 19.8053C29.3086 19.8887 29.3086 19.972 29.3086 20.0553C29.4719 22.0831 28.0021 23.8609 26.0424 24.0276C25.9335 24.0276 25.8247 24.0553 25.7158 24.0553C20.2721 24.0553 21.7963 13.6109 14.5018 13.6109C11.1267 13.5276 8.35045 16.2498 8.2688 19.6942C8.2688 19.7776 8.2688 19.8887 8.2688 19.972V31.3053H10.8818V25.3053H10.9906C11.9161 26.0831 13.0865 26.4998 14.2841 26.472C15.9988 26.5276 17.6591 25.8053 18.8023 24.4998L17.1148 22.6387C16.3799 23.4442 15.3456 23.8887 14.2568 23.9164C12.2699 23.8887 10.6912 22.222 10.7185 20.1942C10.7185 20.1109 10.7185 20.0276 10.7457 19.9165C10.5824 17.8887 12.0522 16.1109 14.0119 15.9442C14.1208 15.9442 14.2296 15.9164 14.3385 15.9164C19.7822 15.9164 18.2579 26.3609 25.5525 26.3609C28.9276 26.4442 31.7038 23.722 31.7855 20.2776C31.7855 20.1387 31.7855 20.0276 31.7855 19.8887V8.63867H29.1725V14.6664H29.1453Z" fill="white"/>
</g>
<defs>
<clipPath id="clip0_3710_94986">
<rect width="39.4667" height="40" fill="white" transform="translate(0.266602)"/>
</clipPath>
</defs>
</svg>
