<svg width="164" height="40" viewBox="0 0 164 40" fill="none" xmlns="http://www.w3.org/2000/svg">
<g clip-path="url(#clip0_3785_2041)">
<path d="M14.3104 8.19336C11.0733 8.19336 9.19632 9.75117 8.29865 10.7897C8.18984 9.86656 7.61859 8.68378 5.38801 8.68378H0.518799V14.0496H2.50457C2.83099 14.0496 2.9398 14.165 2.9398 14.5111V39.0611H8.70668V29.8873V29.195C9.60436 30.0604 11.3181 31.272 14.0111 31.272C19.642 31.272 23.5863 26.5409 23.5863 19.7327C23.6135 12.8379 19.8596 8.19336 14.3104 8.19336ZM13.1407 25.9351C10.0396 25.9351 8.62508 22.7906 8.62508 19.8481C8.62508 15.2324 10.9917 13.588 13.2223 13.588C15.9425 13.588 17.7922 16.069 17.7922 19.7904C17.765 24.06 15.4256 25.9351 13.1407 25.9351Z" fill="#203232"/>
<path d="M31.3662 24.9834V11.9728C31.3662 9.78028 30.3597 8.71289 28.3196 8.71289H23.1511V14.0787H25.1369C25.4633 14.0787 25.5721 14.1941 25.5721 14.5403V27.4932C25.5721 29.7145 26.5514 30.753 28.6188 30.753H33.7872V25.4161H31.8014C31.5022 25.4449 31.3662 25.3007 31.3662 24.9834Z" fill="#203232"/>
<path d="M46.4363 8.19336C43.1993 8.19336 41.3223 9.75117 40.3974 10.7897C40.2886 9.86656 39.7174 8.68378 37.4868 8.68378H32.6448V14.0496H34.6305C34.957 14.0496 35.0658 14.165 35.0658 14.5111V39.0611H40.8871V29.8873V29.195C41.7847 30.0604 43.5257 31.272 46.1915 31.272C51.8224 31.272 55.7667 26.5409 55.7667 19.7327C55.7667 12.8379 52.0128 8.19336 46.4363 8.19336ZM45.2666 25.9351C42.1656 25.9351 40.7511 22.7906 40.7511 19.8481C40.7511 15.2324 43.1176 13.588 45.3482 13.588C48.0685 13.588 49.9182 16.069 49.9182 19.7904C49.9182 24.06 47.5788 25.9351 45.2666 25.9351Z" fill="#203232"/>
<path d="M66.6204 8.19336C60.3911 8.19336 56.0659 12.9533 56.0659 19.7327C56.0659 26.4255 60.7447 31.272 67.2188 31.272C72.3057 31.272 75.4067 28.0699 75.5427 27.9545L75.7876 27.7237L73.285 23.3099L72.9041 23.6849C72.8769 23.7138 70.5919 25.9351 67.5725 25.9351C64.689 25.9351 62.5673 24.06 62.0504 21.1174H75.7332L75.7604 20.7135C75.7604 20.6558 75.8964 19.3577 75.8964 18.723C75.8964 12.4341 72.1697 8.19336 66.6204 8.19336ZM62.268 16.5594C62.8937 14.3958 64.4714 13.1553 66.6204 13.1553C68.3613 13.1553 69.6943 14.5688 69.9391 16.5594H62.268Z" fill="#203232"/>
<path d="M96.8963 24.9831V3.66416C96.8963 1.47169 95.8899 0.404297 93.8225 0.404297H88.6541V5.77009H90.6398C90.9662 5.77009 91.0751 5.88548 91.0751 6.23167V10.0973C90.2318 9.28959 88.5724 8.2222 85.689 8.2222C80.0853 8.2222 76.1682 12.9822 76.1682 19.7615C76.1682 26.6563 79.9221 31.3009 85.4714 31.3009C88.6541 31.3009 90.5038 29.7431 91.4015 28.6468C91.5103 29.5988 92.1087 30.8105 94.2577 30.8105H99.2629V25.4735H97.3316C97.0051 25.4447 96.8963 25.3004 96.8963 24.9831ZM86.5867 25.9351C83.8393 25.9351 82.0711 23.5118 82.0711 19.7327C82.0711 16.069 83.9209 13.6168 86.6683 13.6168C89.7965 13.6168 91.1839 16.6748 91.1839 19.7038C91.1839 24.3196 88.8173 25.9351 86.5867 25.9351Z" fill="#203232"/>
<path d="M112.13 8.39551C109.736 8.39551 107.505 9.86677 106.2 12.2035V11.7131C106.2 9.72253 105.166 8.68399 103.126 8.68399H98.175V14.0498H100.161C100.487 14.0498 100.596 14.1652 100.596 14.5114V30.753H106.363V21.9254C106.363 20.7714 106.499 19.6464 106.771 18.6078C107.641 15.5499 109.954 14.4825 111.803 14.4825C112.456 14.4825 112.946 14.5691 112.946 14.5691L113.436 14.6556V8.5686L113.082 8.5109C113.082 8.48205 112.592 8.39551 112.13 8.39551Z" fill="#203232"/>
<path d="M121.65 24.9834V11.9728C121.65 9.78028 120.644 8.71289 118.604 8.71289H113.925V14.0787H115.421C115.748 14.0787 115.856 14.1941 115.856 14.5403V27.4932C115.856 29.7145 116.836 30.753 118.903 30.753H124.071V25.4161H122.086C121.787 25.4449 121.65 25.3007 121.65 24.9834Z" fill="#203232"/>
<path d="M143.439 8.71289H140.366C138.57 8.71289 137.591 9.3764 137.02 10.9919L133.266 22.1274C133.13 22.5313 133.021 22.9928 132.912 23.4544C132.803 23.0217 132.667 22.5313 132.531 22.1274L128.777 10.9919C128.206 9.34755 127.281 8.71289 125.432 8.71289H122.167V14.0787H123.011C123.473 14.0787 123.609 14.2518 123.718 14.5403L129.539 30.7819H136.04L141.862 14.5403C141.97 14.2518 142.107 14.0787 142.569 14.0787H143.467V8.71289H143.439Z" fill="#203232"/>
<path d="M153.396 8.19336C147.166 8.19336 142.841 12.9533 142.841 19.7327C142.841 26.4255 147.52 31.272 153.994 31.272C159.081 31.272 162.182 28.0699 162.318 27.9545L162.563 27.7237L160.06 23.3099L159.679 23.6849C159.652 23.7138 157.367 25.9351 154.375 25.9351C151.491 25.9351 149.37 24.06 148.853 21.1174H162.536L162.563 20.7135C162.563 20.6558 162.672 19.3577 162.672 18.723C162.672 12.4341 158.945 8.19336 153.396 8.19336ZM149.043 16.5594C149.669 14.3958 151.247 13.1553 153.396 13.1553C155.136 13.1553 156.469 14.5688 156.714 16.5594H149.043Z" fill="#203232"/>
<path d="M30.9581 0.375488H25.8169V6.11631H30.9581V0.375488Z" fill="#203232"/>
<path d="M121.27 0.375488H116.128V6.11631H121.27V0.375488Z" fill="#203232"/>
</g>
<defs>
<clipPath id="clip0_3785_2041">
<rect width="163.871" height="40" fill="white" transform="translate(0.0644531)"/>
</clipPath>
</defs>
</svg>
