<svg width="182" height="40" viewBox="0 0 182 40" fill="none" xmlns="http://www.w3.org/2000/svg">
<path fill-rule="evenodd" clip-rule="evenodd" d="M0.468018 27.7998L1.44145 25.1669C1.59667 24.7158 1.94658 24.8644 2.08864 24.949C2.35963 25.1054 2.55431 25.2464 2.90422 25.4464C5.77189 27.2127 8.42909 27.2307 9.25782 27.2307C11.4046 27.2307 12.7359 26.1232 12.7359 24.6286V24.5517C12.7359 22.9264 10.6838 22.3111 8.31333 21.6035L7.78715 21.4395C4.53274 20.5371 1.05207 19.2322 1.05207 15.2176V15.1355C1.05207 11.326 4.20651 8.66756 8.72112 8.66756L9.21573 8.66244C11.8677 8.66244 14.4301 9.41357 16.2876 10.5108C16.4559 10.6133 16.6191 10.8031 16.5243 11.0543L15.5246 13.6871C15.3483 14.1357 14.8669 13.8384 14.8669 13.8384C12.929 12.8544 10.7847 12.3184 8.6001 12.272C6.68481 12.272 5.45355 13.2615 5.45355 14.6049V14.6895C5.45355 16.2558 7.56353 16.9249 10.0103 17.7017L10.4312 17.8299C13.6751 18.8297 17.1373 20.2141 17.1373 24.021V24.1005C17.1373 28.2151 14.0697 30.771 9.1368 30.771C6.71375 30.771 4.39594 30.407 1.94395 29.138C1.48091 28.8765 1.02313 28.6509 0.570621 28.3304C0.523265 28.2638 0.315425 28.1843 0.465386 27.7998H0.468018ZM72.7044 27.7998L73.6804 25.1669C73.8225 24.7363 74.2355 24.8952 74.325 24.949C74.5933 25.1105 74.7933 25.2464 75.1406 25.4464C78.0135 27.2127 80.6654 27.2307 81.5021 27.2307C83.641 27.2307 84.9748 26.1232 84.9748 24.6286V24.5517C84.9748 22.9264 82.9254 22.3111 80.5549 21.6035L80.0288 21.4395C76.7691 20.5371 73.2884 19.2322 73.2884 15.2176V15.1355C73.2884 11.326 76.4455 8.66756 80.9601 8.66756L81.4521 8.66244C84.104 8.66244 86.6691 9.41357 88.5292 10.5108C88.6923 10.6133 88.858 10.8031 88.7659 11.0543C88.6739 11.2876 87.853 13.441 87.7662 13.6871C87.5847 14.1357 87.1085 13.8384 87.1085 13.8384C85.1699 12.854 83.0246 12.3181 80.8391 12.272C78.9238 12.272 77.6925 13.2615 77.6925 14.6049V14.6895C77.6925 16.2558 79.7999 16.9249 82.2492 17.7017L82.6702 17.8299C85.9141 18.8297 89.3737 20.2141 89.3737 24.021V24.1005C89.3737 28.2151 86.3087 30.771 81.3758 30.771C78.9501 30.771 76.6323 30.407 74.1829 29.138C73.7199 28.8765 73.2621 28.6509 72.807 28.3304C72.7596 28.2638 72.5518 28.1843 72.7044 27.7998ZM126.138 15.4201C126.543 16.7429 126.743 18.1965 126.743 19.7321C126.743 21.2703 126.543 22.7187 126.138 24.0415C125.767 25.3171 125.131 26.5047 124.27 27.5306C123.406 28.5269 122.324 29.3208 121.102 29.8532C119.839 30.4172 118.356 30.6992 116.688 30.6992C115.02 30.6992 113.531 30.4172 112.273 29.8532C111.051 29.3208 109.969 28.5269 109.105 27.5306C108.245 26.5048 107.608 25.3183 107.235 24.0441C106.821 22.6426 106.617 21.1903 106.63 19.7321C106.63 18.1939 106.832 16.7429 107.235 15.4201C107.64 14.087 108.269 12.9129 109.103 11.9336C109.968 10.9332 111.051 10.1328 112.273 9.59046C113.533 9.01621 115.014 8.72653 116.688 8.72653C118.361 8.72653 119.842 9.01621 121.102 9.59046C122.36 10.1621 123.428 10.9492 124.27 11.9336C125.106 12.9129 125.738 14.087 126.138 15.4201ZM122.023 19.7321C122.023 17.4069 121.581 15.5791 120.702 14.2972C119.834 13.0257 118.519 12.4104 116.688 12.4104C114.856 12.4104 113.552 13.0257 112.694 14.2972C111.834 15.5791 111.394 17.4069 111.394 19.7321C111.394 22.0547 111.834 23.8954 112.699 25.1875C113.552 26.4744 114.856 27.0974 116.688 27.0974C118.519 27.0974 119.834 26.4718 120.702 25.1875C121.576 23.8954 122.023 22.0547 122.023 19.7321ZM159.966 26.4744L160.976 29.1969C161.108 29.5302 160.81 29.6763 160.81 29.6763C159.25 30.266 157.085 30.6864 154.978 30.6864C151.405 30.6864 148.669 29.684 146.843 27.7049C145.028 25.7309 144.101 23.0469 144.101 19.7167C144.101 18.176 144.33 16.7173 144.778 15.397C145.225 14.064 145.896 12.8898 146.78 11.9105C147.698 10.9038 148.83 10.1041 150.097 9.56739C151.413 8.9957 152.96 8.70858 154.686 8.70858C155.851 8.70858 156.888 8.7778 157.777 8.90598C158.727 9.04954 159.992 9.38281 160.526 9.58533C160.623 9.62122 160.894 9.74941 160.784 10.0596C160.395 11.1286 160.129 11.8259 159.768 12.8001C159.611 13.2154 159.29 13.077 159.29 13.077C157.935 12.6617 156.635 12.472 154.938 12.472C152.899 12.472 151.368 13.1334 150.368 14.428C149.358 15.7329 148.792 17.4428 148.784 19.7167C148.777 22.2111 149.418 24.0595 150.555 25.2028C151.689 26.3436 153.273 26.9205 155.267 26.9205C156.075 26.9205 156.838 26.8692 157.524 26.7641C158.203 26.659 158.84 26.4539 159.44 26.2257C159.44 26.2257 159.826 26.0847 159.966 26.4744ZM181.039 14.6638C181.936 17.7248 181.468 20.3679 181.452 20.514C181.418 20.8626 181.05 20.8678 181.05 20.8678L167.109 20.8575C167.195 22.9212 167.703 24.3825 168.729 25.3746C169.737 26.3462 171.336 26.9692 173.502 26.9717C176.811 26.9794 178.224 26.3308 179.226 25.9694C179.226 25.9694 179.608 25.8361 179.753 26.2052L180.66 28.6945C180.844 29.1124 180.697 29.2585 180.542 29.3431C179.668 29.8122 177.551 30.689 173.52 30.6992C171.565 30.7069 169.863 30.4352 168.461 29.9045C167.128 29.4236 165.928 28.6488 164.954 27.6408C164.023 26.6519 163.331 25.4718 162.931 24.1877C162.499 22.7807 162.287 21.3184 162.302 19.85C162.302 18.3119 162.505 16.8506 162.912 15.515C163.32 14.1691 163.954 12.9821 164.799 11.9849C165.674 10.967 166.771 10.1525 168.011 9.60071C169.29 9.01365 170.873 8.72653 172.615 8.72653C174.107 8.72653 175.47 9.03929 176.603 9.51612C177.477 9.88015 178.356 10.539 179.255 11.4824C179.824 12.0772 180.689 13.3795 181.039 14.6638ZM167.174 17.5018H177.119C177.017 16.2558 176.767 15.1381 176.193 14.2972C175.32 13.0257 174.115 12.3258 172.286 12.3258C170.455 12.3258 169.155 13.0257 168.295 14.2972C167.732 15.1381 167.369 16.2097 167.172 17.5018H167.174ZM69.371 14.6638C70.2655 17.7248 69.8051 20.3679 69.7893 20.514C69.7525 20.8626 69.3842 20.8678 69.3842 20.8678L55.4405 20.8575C55.5299 22.9212 56.035 24.3825 57.0637 25.3746C58.0714 26.3462 59.6683 26.9692 61.8335 26.9717C65.1432 26.9794 66.5612 26.3308 67.561 25.9694C67.561 25.9694 67.9425 25.8361 68.0845 26.2052L68.9948 28.6945C69.179 29.1124 69.0316 29.2585 68.8791 29.3431C68.0003 29.8122 65.8798 30.689 61.8546 30.6992C59.8972 30.7069 58.195 30.4352 56.7954 29.9045C55.4624 29.4229 54.2615 28.6483 53.2858 27.6408C52.3572 26.6509 51.6677 25.471 51.2679 24.1877C50.8332 22.7812 50.6195 21.3188 50.6338 19.85C50.6338 18.3119 50.839 16.8506 51.2442 15.515C51.6233 14.2263 52.2658 13.0255 53.1332 11.9849C54.0082 10.9679 55.1046 10.1535 56.3429 9.60071C57.6267 9.01365 59.2105 8.72653 60.9469 8.72653C62.3193 8.72337 63.678 8.992 64.9406 9.51612C65.8141 9.88015 66.6928 10.539 67.5899 11.4824C68.1582 12.0772 69.0238 13.3795 69.371 14.6638ZM55.5036 17.5018H65.4536C65.3484 16.2558 65.0985 15.1381 64.5276 14.2972C63.6594 13.0257 62.4492 12.3258 60.6207 12.3258C58.7896 12.3258 57.4873 13.0257 56.6323 14.2972C56.064 15.1381 55.7036 16.2097 55.501 17.5018H55.5036ZM30.9153 16.8532C30.9153 16.8532 32.015 16.948 33.2147 17.1172V16.543C33.2147 14.7305 32.828 13.8768 32.0676 13.3051C31.2889 12.7258 30.126 12.4258 28.6212 12.4258C28.6212 12.4258 25.2273 12.3848 22.5438 13.805C22.4202 13.8768 22.3176 13.9178 22.3176 13.9178C22.3176 13.9178 21.9808 14.0332 21.8598 13.6974L20.8732 11.1132C20.7206 10.7415 20.9969 10.5723 20.9969 10.5723C22.2518 9.61866 25.2931 9.04185 25.2931 9.04185C26.5277 8.83046 27.7781 8.71814 29.0316 8.70602C31.8151 8.70602 33.9698 9.33666 35.4352 10.5851C36.9032 11.8387 37.6504 13.8589 37.6504 16.5814L37.6583 29.0098C37.6583 29.0098 37.6872 29.3687 37.3373 29.4507C37.3373 29.4507 36.8243 29.5892 36.3639 29.6943C35.8982 29.7994 34.2197 30.1327 32.849 30.3583C31.4493 30.5868 30.0325 30.7017 28.6133 30.7018C27.2584 30.7018 26.0166 30.5787 24.9221 30.3352C23.9022 30.127 22.9363 29.7188 22.0834 29.1354C21.3061 28.5854 20.6821 27.8549 20.2681 27.0102C19.8393 26.1565 19.6235 25.1131 19.6235 23.9082C19.6235 22.7264 19.8787 21.6728 20.3707 20.7755C20.8653 19.8834 21.5441 19.1271 22.3965 18.5349C23.2771 17.9308 24.2617 17.4853 25.3036 17.2198C26.3902 16.9378 27.5451 16.7916 28.7396 16.7916C29.6156 16.7916 30.347 16.8096 30.9153 16.8532ZM25.3668 26.4001C25.3589 26.3975 26.6164 27.3614 29.4552 27.1922C31.4494 27.0743 33.2173 26.7051 33.2173 26.7051V20.5268C33.2173 20.5268 31.4336 20.2423 29.4315 20.2141C26.5928 20.1807 25.3825 21.1985 25.3904 21.1959C24.5538 21.7753 24.146 22.6341 24.146 23.8236C24.146 24.585 24.2855 25.1798 24.567 25.5951C24.7432 25.8694 24.8195 25.9719 25.3668 26.4001ZM143.375 9.85195C143.244 10.2237 142.568 12.0849 142.323 12.7027C142.234 12.9385 142.086 13.1 141.815 13.0718C141.815 13.0718 141.015 12.8924 140.284 12.8924C139.782 12.8924 139.063 12.9539 138.416 13.1488C137.767 13.3431 137.176 13.689 136.696 14.1562C136.185 14.6356 135.772 15.3099 135.472 16.1559C135.167 17.007 135.009 18.3606 135.009 19.7193V29.8404C135.009 29.8945 134.999 29.9481 134.978 29.9982C134.957 30.0482 134.926 30.0938 134.887 30.1321C134.848 30.1705 134.801 30.2009 134.75 30.2217C134.699 30.2425 134.644 30.2532 134.588 30.2532H130.929C130.873 30.2538 130.817 30.2438 130.765 30.2235C130.713 30.2033 130.666 30.1732 130.626 30.1351C130.586 30.0971 130.554 30.0517 130.532 30.0015C130.51 29.9514 130.498 29.8975 130.497 29.843V9.57765C130.497 9.34948 130.668 9.16747 130.902 9.16747H134.472C134.709 9.16747 134.878 9.34948 134.878 9.57765V11.2337C135.412 10.5364 136.369 9.92117 137.235 9.54176C138.103 9.15721 139.074 8.87521 140.829 8.97776C141.742 9.03159 142.928 9.27514 143.167 9.36487C143.214 9.38313 143.257 9.41031 143.293 9.44482C143.329 9.47933 143.357 9.52048 143.376 9.56584C143.396 9.61121 143.406 9.65988 143.406 9.70901C143.405 9.75814 143.395 9.80673 143.375 9.85195ZM108.99 0.461446C109.087 0.4999 109.353 0.625517 109.247 0.93315L108.177 3.78645C108.087 4.00179 108.029 4.12997 107.574 3.99667C106.972 3.81218 106.345 3.71711 105.714 3.71467C105.162 3.71467 104.662 3.78389 104.22 3.92745C103.778 4.06543 103.377 4.30656 103.052 4.62988C102.619 5.03706 102.285 5.53263 102.073 6.08088C101.56 7.5165 101.363 9.04698 101.336 9.14439H105.793C106.169 9.14439 106.288 9.31359 106.251 9.58277L105.73 12.4079C105.646 12.818 105.264 12.8027 105.264 12.8027H100.671L97.5321 30.1224C97.2622 31.6757 96.852 33.2027 96.3061 34.6856C95.8141 35.9392 95.3063 36.8544 94.4908 37.7286C93.7947 38.5109 92.9094 39.1119 91.9151 39.477C90.9496 39.8231 89.7762 40 88.495 40C87.8846 40 87.2269 39.9872 86.4508 39.8077C86.0183 39.7115 85.5922 39.5899 85.1748 39.4437C85.0038 39.3847 84.8643 39.172 84.9643 38.9002C85.059 38.631 85.8851 36.4289 85.9956 36.1392C86.1377 35.7906 86.5008 35.9239 86.5008 35.9239C86.7481 36.0264 86.9217 36.0931 87.2505 36.1571C87.5847 36.2212 88.0319 36.2776 88.3713 36.2776C88.979 36.2776 89.5315 36.2059 90.013 36.0469C90.5918 35.8649 90.9338 35.5342 91.2863 35.0933C91.6547 34.6292 91.9546 34.0011 92.2624 33.1577C92.5702 32.304 92.8517 31.1761 93.0938 29.8096L96.2193 12.8052H93.1411C92.7728 12.8052 92.6465 12.636 92.6886 12.3643L93.2043 9.53919C93.2858 9.12901 93.6778 9.14439 93.6778 9.14439H96.8375L97.0085 8.22662C97.4821 5.49894 98.4213 3.42498 99.8104 2.0637C101.207 0.69217 103.194 0 105.714 0C106.435 0 107.072 0.0461409 107.611 0.140994C108.14 0.238412 108.542 0.328138 108.99 0.461446ZM46.7006 29.8404C46.7006 30.0711 46.5375 30.2532 46.3008 30.2532H42.6044C42.3676 30.2532 42.2071 30.0686 42.2071 29.843V0.840862C42.2071 0.617828 42.3702 0.433247 42.6017 0.433247H46.3008C46.5375 0.433247 46.7006 0.617826 46.7006 0.843424V29.8404Z" fill="#00A1E0"/>
</svg>
