<svg width="40" height="40" viewBox="0 0 40 40" fill="none" xmlns="http://www.w3.org/2000/svg">
<g clip-path="url(#clip0_3785_43507)">
<path d="M11.8813 23.1345C18.0732 23.1345 23.0928 18.0472 23.0928 11.7716C23.0928 5.49604 18.0732 0.408691 11.8813 0.408691C5.68944 0.408691 0.669922 5.49604 0.669922 11.7716C0.669922 18.0472 5.68944 23.1345 11.8813 23.1345Z" fill="#28A8EA"/>
<path d="M28.1186 39.5911C34.3105 39.5911 39.3301 34.5037 39.3301 28.2282C39.3301 21.9526 34.3105 16.8652 28.1186 16.8652C21.9267 16.8652 16.9072 21.9526 16.9072 28.2282C16.9072 34.5037 21.9267 39.5911 28.1186 39.5911Z" fill="#28A8EA"/>
<path d="M19.9999 38.8076C30.2486 38.8076 38.5568 30.3871 38.5568 20C38.5568 9.61283 30.2486 1.19238 19.9999 1.19238C9.75129 1.19238 1.44312 9.61283 1.44312 20C1.44312 30.3871 9.75129 38.8076 19.9999 38.8076Z" fill="#28A8EA"/>
<path fill-rule="evenodd" clip-rule="evenodd" d="M15.1874 19.6425C14.462 19.1582 13.8569 18.5105 13.4191 17.75C12.9961 16.9472 12.7871 16.0463 12.8129 15.1366C12.7807 13.9819 13.1694 12.8556 13.9047 11.973C14.6689 11.0865 15.6512 10.421 16.7516 10.0444C17.9484 9.61611 19.2093 9.40109 20.4784 9.40887C21.3092 9.40086 22.1391 9.46536 22.9589 9.60164C23.5454 9.69345 24.1214 9.84413 24.6785 10.0515C25.1899 10.2272 25.6516 10.5263 26.0238 10.9229C26.2985 11.2491 26.4463 11.6656 26.4398 12.0944C26.4497 12.317 26.4162 12.5394 26.3412 12.7489C26.2663 12.9584 26.1513 13.1509 26.003 13.3154C25.8624 13.4669 25.6917 13.5867 25.5022 13.6666C25.3127 13.7466 25.1087 13.785 24.9035 13.7793C24.6211 13.7772 24.3424 13.7139 24.0862 13.5936C23.4554 13.3075 22.8056 13.0666 22.1416 12.8726C21.5301 12.7095 20.8997 12.6304 20.2674 12.6375C19.4441 12.6065 18.6295 12.8171 17.9215 13.244C17.6224 13.4281 17.3776 13.6903 17.2127 14.0031C17.0479 14.3159 16.969 14.6679 16.9843 15.0221C16.9797 15.4869 17.1539 15.9353 17.4699 16.2721C17.8459 16.6671 18.2901 16.989 18.7805 17.2219C19.3305 17.4982 20.1501 17.8647 21.2393 18.3213C21.3602 18.3602 21.478 18.4081 21.5918 18.4647C22.6553 18.8909 23.6749 19.4219 24.6359 20.05C25.3951 20.5517 26.0351 21.2176 26.5102 21.9998C26.9778 22.8215 27.2119 23.7583 27.1867 24.7065C27.2259 25.8677 26.8975 27.0111 26.2496 27.9696C25.5898 28.8774 24.6768 29.5641 23.6285 29.9413C22.3654 30.3983 21.0307 30.6185 19.6898 30.5909C17.8469 30.6567 16.0128 30.3055 14.3207 29.5628C13.8879 29.3674 13.5084 29.0684 13.215 28.6913C12.9716 28.346 12.8454 27.9299 12.8555 27.5057C12.8433 27.2819 12.8791 27.0582 12.9606 26.8498C13.042 26.6414 13.167 26.4535 13.3271 26.2989C13.6633 26.0004 14.0999 25.8444 14.5464 25.8632C15.0431 25.8702 15.5309 25.9976 15.9691 26.2346C16.514 26.511 16.9439 26.7181 17.2588 26.856C17.6186 27.0086 17.9913 27.1279 18.3722 27.2126C18.8419 27.3174 19.3218 27.3678 19.8027 27.3631C20.6526 27.4241 21.4983 27.1951 22.205 26.7126C22.4697 26.5028 22.6812 26.232 22.8221 25.9228C22.963 25.6136 23.0292 25.2748 23.0153 24.9345C23.0162 24.4517 22.8347 23.9868 22.5081 23.6352C22.0763 23.1842 21.5709 22.812 21.0143 22.535C20.3565 22.1829 19.4313 21.7545 18.2385 21.2498C17.1711 20.8189 16.1489 20.28 15.1874 19.6425Z" fill="white"/>
<path opacity="0.1" fill-rule="evenodd" clip-rule="evenodd" d="M15.3838 0.980692C14.8936 0.814336 14.3923 0.6834 13.8838 0.588867C10.8309 1.58187 8.05562 3.29854 5.78841 5.59638C3.5212 7.89423 1.82742 10.707 0.847656 13.8012C0.940946 14.3166 1.07014 14.8246 1.23426 15.3215C1.37133 15.7713 1.54459 16.209 1.7523 16.6302C2.42388 12.8689 4.21273 9.40511 6.87954 6.70226C9.54635 3.99942 12.9639 2.1864 16.6751 1.50574C16.2596 1.29524 15.8277 1.11964 15.3838 0.980692Z" fill="black"/>
<path opacity="0.1" fill-rule="evenodd" clip-rule="evenodd" d="M15.384 0.980469C11.9597 1.83652 8.83148 3.62505 6.33758 6.15264C3.84369 8.68024 2.07901 11.8507 1.23438 15.3213C1.37144 15.7711 1.54471 16.2088 1.75242 16.63C2.424 12.8686 4.21285 9.40488 6.87966 6.70204C9.54646 3.9992 12.964 2.18617 16.6752 1.50551C16.2597 1.29502 15.8278 1.11942 15.384 0.980469ZM38.7656 24.678C38.6285 24.2282 38.4552 23.7905 38.2475 23.3693C37.5759 27.1306 35.7871 30.5944 33.1203 33.2973C30.4535 36.0001 27.0359 37.8131 23.3247 38.4938C23.7403 38.7043 24.1721 38.8799 24.616 39.0188C25.1062 39.1852 25.6075 39.3161 26.116 39.4107C29.1689 38.4176 31.9442 36.701 34.2114 34.4031C36.4786 32.1053 38.1724 29.2925 39.1522 26.1983C39.0589 25.6829 38.9297 25.1749 38.7656 24.678Z" fill="black"/>
<path opacity="0.1" fill-rule="evenodd" clip-rule="evenodd" d="M38.2475 23.3696C37.5759 27.1309 35.7871 30.5947 33.1203 33.2975C30.4534 36.0004 27.0359 37.8134 23.3247 38.4941C23.7402 38.7046 24.1721 38.8802 24.616 39.0191C28.0402 38.1631 31.1684 36.3745 33.6623 33.8469C36.1562 31.3193 37.9209 28.1489 38.7655 24.6783C38.6285 24.2285 38.4552 23.7908 38.2475 23.3696Z" fill="black"/>
</g>
<defs>
<clipPath id="clip0_3785_43507">
<rect width="39.4667" height="40" fill="white" transform="translate(0.266602)"/>
</clipPath>
</defs>
</svg>
