<svg width="40" height="40" viewBox="0 0 40 40" fill="none" xmlns="http://www.w3.org/2000/svg">
<g clip-path="url(#clip0_3785_43590)">
<path fill-rule="evenodd" clip-rule="evenodd" d="M14.7369 0C12.5552 0.00163099 10.7895 1.79246 10.7912 3.99918C10.7895 6.20591 12.5568 7.99674 14.7385 7.99837H18.6858V4.00082C18.6874 1.79409 16.9201 0.00326198 14.7369 0C14.7385 0 14.7385 0 14.7369 0ZM14.7369 10.6667H4.21392C2.03225 10.6683 0.264994 12.4591 0.266606 14.6659C0.263381 16.8726 2.03064 18.6634 4.2123 18.6667H14.7369C16.9185 18.665 18.6858 16.8742 18.6842 14.6675C18.6858 12.4591 16.9185 10.6683 14.7369 10.6667Z" fill="#36C5F0"/>
<path fill-rule="evenodd" clip-rule="evenodd" d="M39.7332 14.6659C39.7349 12.4591 37.9676 10.6683 35.7859 10.6667C33.6043 10.6683 31.837 12.4591 31.8386 14.6659V18.6667H35.7859C37.9676 18.665 39.7349 16.8742 39.7332 14.6659ZM29.2087 14.6659V3.99918C29.2103 1.79409 27.4447 0.00326198 25.263 0C23.0813 0.00163099 21.3141 1.79246 21.3157 3.99918V14.6659C21.3125 16.8726 23.0797 18.6634 25.2614 18.6667C27.443 18.665 29.2103 16.8742 29.2087 14.6659Z" fill="#2EB67D"/>
<path fill-rule="evenodd" clip-rule="evenodd" d="M25.2615 39.9998C27.4432 39.9982 29.2104 38.2074 29.2088 36.0007C29.2104 33.7939 27.4432 32.0031 25.2615 32.0015H21.3142V36.0007C21.3126 38.2058 23.0799 39.9966 25.2615 39.9998ZM25.2615 29.3315H35.7861C37.9677 29.3299 39.735 27.5391 39.7334 25.3324C39.7366 23.1256 37.9693 21.3348 35.7877 21.3315H25.2631C23.0815 21.3332 21.3142 23.124 21.3158 25.3307C21.3142 27.5391 23.0799 29.3299 25.2615 29.3315Z" fill="#ECB22E"/>
<path fill-rule="evenodd" clip-rule="evenodd" d="M0.266603 25.3327C0.26499 27.5394 2.03225 29.3302 4.21391 29.3319C6.39558 29.3302 8.16284 27.5394 8.16123 25.3327V21.3335H4.21391C2.03225 21.3351 0.26499 23.126 0.266603 25.3327ZM10.7912 25.3327V35.9993C10.7879 38.2061 12.5552 39.9969 14.7369 40.0002C16.9185 39.9985 18.6858 38.2077 18.6842 36.001V25.3359C18.6874 23.1292 16.9201 21.3384 14.7385 21.3351C12.5552 21.3351 10.7895 23.126 10.7912 25.3327Z" fill="#E01E5A"/>
</g>
<defs>
<clipPath id="clip0_3785_43590">
<rect width="39.4667" height="40" fill="white" transform="translate(0.266602)"/>
</clipPath>
</defs>
</svg>
