<svg width="40" height="40" viewBox="0 0 40 40" fill="none" xmlns="http://www.w3.org/2000/svg">
<g clip-path="url(#clip0_3785_43494)">
<path d="M19.9999 40C30.8983 40 39.7333 31.0457 39.7333 20C39.7333 8.95432 30.8983 0 19.9999 0C9.10153 0 0.266602 8.95432 0.266602 20C0.266602 31.0457 9.10153 40 19.9999 40Z" fill="#34AADF"/>
<path d="M8.47929 19.8265C8.47929 19.8265 18.346 15.7225 21.7679 14.2774C23.0797 13.6994 27.5282 11.8496 27.5282 11.8496C27.5282 11.8496 29.5814 11.0404 29.4103 13.0057C29.3532 13.815 28.897 16.6473 28.4407 19.7109C27.7563 24.0462 27.0149 28.786 27.0149 28.786C27.0149 28.786 26.9008 30.1155 25.9313 30.3467C24.9618 30.5779 23.3648 29.5375 23.0797 29.3062C22.8515 29.1329 18.8022 26.5317 17.3193 25.26C16.9201 24.9132 16.4639 24.2196 17.3763 23.4103C19.4296 21.5028 21.8819 19.1329 23.3648 17.63C24.0492 16.9363 24.7336 15.3178 21.8819 17.2831C17.8327 20.1155 13.8404 22.7745 13.8404 22.7745C13.8404 22.7745 12.9278 23.3525 11.2169 22.8322C9.50582 22.3121 7.50967 21.6184 7.50967 21.6184C7.50967 21.6184 6.14097 20.7514 8.47929 19.8265Z" fill="white"/>
</g>
<defs>
<clipPath id="clip0_3785_43494">
<rect width="39.4667" height="40" fill="white" transform="translate(0.266602)"/>
</clipPath>
</defs>
</svg>
