<svg width="40" height="40" viewBox="0 0 40 40" fill="none" xmlns="http://www.w3.org/2000/svg">
<g clip-path="url(#clip0_3785_43580)">
<path d="M35.8791 0H4.12077C1.99217 0 0.266602 1.74889 0.266602 3.90625V36.0938C0.266602 38.2511 1.99217 40 4.12077 40H35.8791C38.0077 40 39.7333 38.2511 39.7333 36.0938V3.90625C39.7333 1.74889 38.0077 0 35.8791 0Z" fill="url(#paint0_linear_3785_43580)"/>
<path d="M32.7525 5.2002H24.4152C23.3935 5.2002 22.5652 6.03966 22.5652 7.0752V20.8252C22.5652 21.8607 23.3935 22.7002 24.4152 22.7002H32.7525C33.7742 22.7002 34.6025 21.8607 34.6025 20.8252V7.0752C34.6025 6.03966 33.7742 5.2002 32.7525 5.2002Z" fill="white"/>
<path d="M15.5845 5.2002H7.24722C6.22549 5.2002 5.39722 6.03966 5.39722 7.0752V30.8252C5.39722 31.8607 6.22549 32.7002 7.24722 32.7002H15.5845C16.6063 32.7002 17.4345 31.8607 17.4345 30.8252V7.0752C17.4345 6.03966 16.6063 5.2002 15.5845 5.2002Z" fill="white"/>
</g>
<defs>
<linearGradient id="paint0_linear_3785_43580" x1="19.9999" y1="0" x2="19.9999" y2="40" gradientUnits="userSpaceOnUse">
<stop stop-color="#0091E6"/>
<stop offset="1" stop-color="#0079BF"/>
</linearGradient>
<clipPath id="clip0_3785_43580">
<rect width="39.4667" height="40" fill="white" transform="translate(0.266602)"/>
</clipPath>
</defs>
</svg>
