<svg width="40" height="40" viewBox="0 0 40 40" fill="none" xmlns="http://www.w3.org/2000/svg">
<g clip-path="url(#clip0_3785_43497)">
<path d="M19.9784 34.735C11.9609 34.735 5.4614 28.1477 5.4614 20.0221C5.4614 11.8963 11.9609 5.3091 19.9784 5.3091C27.9956 5.3091 34.495 11.8963 34.495 20.0221C34.495 28.1477 27.9956 34.735 19.9784 34.735ZM19.9784 0.0439453C9.09187 0.0439453 0.266602 8.98863 0.266602 20.0221C0.266602 31.0557 9.09187 40 19.9784 40C30.8647 40 39.6899 31.0557 39.6899 20.0221C39.6899 8.98863 30.8648 0.0439453 19.9784 0.0439453Z" fill="#CF272D"/>
<path d="M20.7886 15.0465C20.7886 12.7524 22.6236 10.8926 24.8872 10.8926C27.1509 10.8926 28.9858 12.7524 28.9858 15.0465C28.9858 17.3409 27.1509 19.2005 24.8872 19.2005C22.6236 19.2005 20.7886 17.3409 20.7886 15.0465ZM20.7886 24.9974C20.7886 22.7034 22.6236 20.8434 24.8872 20.8434C27.1509 20.8434 28.9858 22.7034 28.9858 24.9974C28.9858 27.2916 27.1509 29.1515 24.8872 29.1515C22.6236 29.1515 20.7886 27.2916 20.7886 24.9974ZM10.9705 24.9974C10.9705 22.7034 12.8057 20.8434 15.0691 20.8434C17.3328 20.8434 19.1678 22.7034 19.1678 24.9974C19.1678 27.2916 17.3328 29.1515 15.0691 29.1515C12.8057 29.1515 10.9705 27.2916 10.9705 24.9974ZM10.9705 15.0466C10.9705 12.7524 12.8057 10.8927 15.0691 10.8927C17.3328 10.8927 19.1678 12.7524 19.1678 15.0466C19.1678 17.341 17.3328 19.2007 15.0691 19.2007C12.8057 19.2007 10.9705 17.341 10.9705 15.0466Z" fill="#CF272D"/>
</g>
<defs>
<clipPath id="clip0_3785_43497">
<rect width="39.4667" height="40" fill="white" transform="translate(0.266602)"/>
</clipPath>
</defs>
</svg>
