<svg width="40" height="40" viewBox="0 0 40 40" fill="none" xmlns="http://www.w3.org/2000/svg">
<g clip-path="url(#clip0_3785_43517)">
<path d="M39.7333 7.59431C38.2819 8.2461 36.7227 8.6865 35.0837 8.88556C36.7558 7.87089 38.0386 6.26069 38.6434 4.34401C37.0791 5.28478 35.3461 5.96826 33.502 6.33468C32.0245 4.74222 29.9213 3.74512 27.5922 3.74512C23.1217 3.74512 19.4959 7.41989 19.4959 11.9544C19.4961 12.5828 19.5661 13.2092 19.7044 13.8218C12.9726 13.4782 7.00891 10.2103 3.01464 5.24602C2.31945 6.46155 1.91959 7.87089 1.91959 9.37179C1.91959 12.2186 3.35016 14.7325 5.52106 16.2035C4.2353 16.162 2.97793 15.8099 1.85355 15.1764V15.2821C1.85355 19.2581 4.64332 22.5753 8.34906 23.3293C7.6537 23.5195 6.93655 23.6154 6.21633 23.6147C5.70488 23.6151 5.19452 23.5668 4.69201 23.4703C5.72273 26.7293 8.71238 29.104 12.2565 29.1674C9.48406 31.3694 5.99214 32.6819 2.19945 32.6819C1.5459 32.6819 0.901025 32.6431 0.266602 32.5673C3.85073 34.8981 8.10575 36.2545 12.6771 36.2545C27.5731 36.2545 35.7164 23.7503 35.7164 12.9056C35.7164 12.5534 35.7076 12.1974 35.692 11.8452C37.2738 10.686 38.6469 9.24319 39.7297 7.59957L39.7333 7.59431Z" fill="#1DA1F2"/>
</g>
<defs>
<clipPath id="clip0_3785_43517">
<rect width="39.4667" height="40" fill="white" transform="translate(0.266602)"/>
</clipPath>
</defs>
</svg>
