<svg width="40" height="40" viewBox="0 0 40 40" fill="none" xmlns="http://www.w3.org/2000/svg">
<g clip-path="url(#clip0_3785_43557)">
<path d="M34.8535 3.89948C33.8348 2.98031 29.7102 0.0655572 20.5292 0.0292742C20.5292 0.0292742 9.69594 -0.611713 4.3787 4.10508C1.43433 6.97143 0.403183 11.1561 0.291372 16.3445C0.179561 21.533 0.042902 31.2568 9.67109 33.8934V37.9208C9.67109 37.9208 9.6711 39.5536 10.7147 39.8801C12.044 40.2913 12.8267 39.0456 14.1063 37.7152C14.802 36.9775 15.771 35.9011 16.4916 35.0787C20.5879 35.4512 24.7193 35.1569 28.7163 34.2079C30.0456 33.7846 37.5742 32.8533 38.8041 23.1174C40.1086 13.0912 38.2327 6.75374 34.8535 3.89948ZM35.9716 22.4038C34.928 30.5191 28.8281 31.027 27.71 31.3778C24.2709 32.203 20.7207 32.5009 17.1873 32.2607C17.1873 32.2607 13.013 37.0984 11.7085 38.4288C11.636 38.5122 11.5441 38.5777 11.4404 38.6198C11.3367 38.6618 11.2242 38.6793 11.1122 38.6707C10.8886 38.6102 10.8265 38.3562 10.8265 37.9813C10.8265 37.6064 10.8265 31.2931 10.8265 31.2931C2.67668 29.0799 3.14877 20.8073 3.24816 16.4776C3.34755 12.1478 4.17992 8.59207 6.66461 6.19739C11.1246 2.26673 20.3304 2.84726 20.3304 2.84726C28.0951 2.84726 31.8221 5.15728 32.6794 5.91923C35.574 8.3139 37.0276 14.0224 35.9716 22.4038Z" fill="#7360F2"/>
<path fill-rule="evenodd" clip-rule="evenodd" d="M21.1743 12.487C21.6704 12.4632 22.166 12.5427 22.628 12.7202C23.09 12.8977 23.5078 13.1692 23.8534 13.5165C24.1991 13.8637 24.4646 14.2788 24.6323 14.7339C24.8001 15.189 24.8661 15.6738 24.826 16.1557C24.8027 16.4353 24.551 16.6437 24.2638 16.621C23.9765 16.5984 23.7625 16.3534 23.7858 16.0737C23.8139 15.7358 23.7676 15.396 23.6501 15.0769C23.5325 14.7579 23.3463 14.4669 23.104 14.2234C22.8617 13.98 22.5688 13.7897 22.2449 13.6652C21.921 13.5408 21.5735 13.485 21.2257 13.5017C20.9379 13.5156 20.6931 13.2996 20.6789 13.0194C20.6647 12.7392 20.8865 12.5009 21.1743 12.487Z" fill="#7360F2"/>
<path fill-rule="evenodd" clip-rule="evenodd" d="M19.9455 10.2726C19.9527 9.9921 20.1921 9.77046 20.4802 9.77751C22.4316 9.82524 24.2879 10.6077 25.6588 11.9604C25.664 11.9654 25.669 11.9706 25.6739 11.9758C26.3026 12.6505 26.7867 13.4406 27.0978 14.2997C27.4089 15.1589 27.5407 16.0699 27.4855 16.9792C27.4685 17.2593 27.2215 17.4729 26.9338 17.4564C26.6461 17.4398 26.4267 17.1994 26.4437 16.9193C26.4907 16.1449 26.3785 15.3691 26.1136 14.6375C25.8499 13.9092 25.4402 13.2392 24.9083 12.6663C23.7278 11.5055 22.1317 10.8341 20.454 10.7931C20.1659 10.7861 19.9382 10.553 19.9455 10.2726Z" fill="#7360F2"/>
<path fill-rule="evenodd" clip-rule="evenodd" d="M19.4864 7.15299C20.8957 7.12214 22.2971 7.36628 23.6079 7.87105C24.9188 8.37581 26.1125 9.13098 27.1188 10.092C27.122 10.0951 27.1252 10.0982 27.1283 10.1013C28.1723 11.1512 28.985 12.3977 29.5165 13.7644C30.048 15.131 30.287 16.5889 30.219 18.0487C30.206 18.3289 29.962 18.5458 29.6741 18.5331C29.3863 18.5204 29.1635 18.2829 29.1765 18.0026C29.2381 16.6811 29.0217 15.3613 28.5405 14.1241C28.0602 12.8889 27.3261 11.7622 26.3832 10.8126C25.4774 9.94877 24.4033 9.26983 23.2241 8.81575C22.0428 8.36087 20.7799 8.14085 19.5098 8.16866C19.2217 8.17496 18.9829 7.95271 18.9765 7.67224C18.97 7.39177 19.1983 7.1593 19.4864 7.15299Z" fill="#7360F2"/>
<path d="M21.3119 22.8877C21.5178 22.9026 21.7246 22.8736 21.9177 22.8025C22.1109 22.7315 22.2857 22.6202 22.43 22.4765L23.2003 21.5331C23.464 21.2506 23.8218 21.0678 24.2104 21.0169C24.599 20.966 24.9937 21.0503 25.3247 21.2549C25.9838 21.6251 26.6225 22.0288 27.2379 22.4644C27.8218 22.8877 29.0021 23.8431 29.0021 23.8552C29.2801 24.0741 29.4655 24.3851 29.5228 24.7287C29.5801 25.0724 29.5053 25.4245 29.3127 25.7178C28.8899 26.4327 28.3531 27.0777 27.7224 27.6287C27.2674 28.031 26.7019 28.2957 26.095 28.3906C26.0169 28.4037 25.937 28.4037 25.8589 28.3906C25.6273 28.394 25.3967 28.3613 25.1756 28.2939C23.6272 27.7727 22.1371 27.1 20.728 26.2862C19.4166 25.5857 18.1696 24.7764 17.001 23.8673C16.4139 23.4151 15.8539 22.9306 15.3238 22.416H15.2617C14.7363 21.8928 14.2387 21.3438 13.7709 20.7712C12.8412 19.6306 12.0101 18.417 11.2862 17.1429C10.4499 15.773 9.76289 14.3219 9.23632 12.8131C9.16292 12.5944 9.1252 12.3659 9.12452 12.1358C9.11702 12.0594 9.11702 11.9825 9.12452 11.906C9.22008 11.3182 9.49243 10.771 9.90719 10.3338C10.3851 9.62925 10.9766 9.00442 11.6589 8.48333C11.9621 8.295 12.3258 8.22174 12.6809 8.27749C13.0359 8.33324 13.3575 8.51411 13.5845 8.78569C13.5845 8.78569 14.5784 9.99512 15.0008 10.5031C15.4232 11.011 15.945 11.8939 16.2432 12.3656C16.448 12.6925 16.5303 13.0783 16.4759 13.4576C16.4216 13.8368 16.234 14.186 15.945 14.4458L14.976 15.1836C14.828 15.3264 14.7136 15.4988 14.6407 15.6888C14.5678 15.8788 14.5381 16.0819 14.5536 16.2842C15.027 17.8453 15.8929 19.2667 17.073 20.4198C18.2531 21.5729 19.7101 22.4211 21.3119 22.8877Z" fill="#7360F2"/>
</g>
<defs>
<clipPath id="clip0_3785_43557">
<rect width="39.4667" height="40" fill="white" transform="translate(0.266602)"/>
</clipPath>
</defs>
</svg>
