<svg width="50" height="40" viewBox="0 0 50 40" fill="none" xmlns="http://www.w3.org/2000/svg">
<g clip-path="url(#clip0_3710_94984)">
<path fill-rule="evenodd" clip-rule="evenodd" d="M0.251953 14.8738C0.251953 19.336 2.68484 23.4129 6.4444 26.112C6.77595 26.3324 6.94218 26.6631 6.94218 27.1036C6.94218 27.2138 6.88662 27.3791 6.88662 27.4893C6.61018 28.5911 6.1124 30.4093 6.05729 30.464C6.00218 30.6293 5.94662 30.7396 5.94662 30.9049C5.94662 31.2356 6.22306 31.5107 6.55506 31.5107C6.66529 31.5107 6.77595 31.4556 6.88662 31.4004L10.812 29.1418C11.0884 28.9769 11.4204 28.8662 11.752 28.8662C11.9182 28.8662 12.1391 28.8662 12.3048 28.9218C14.1297 29.4729 16.12 29.748 18.1657 29.748C28.0622 29.748 36.0795 23.0822 36.0795 14.8738C36.0795 6.66533 28.0622 0 18.1657 0C8.26884 0 0.251953 6.66578 0.251953 14.8738Z" fill="url(#paint0_linear_3710_94984)"/>
<path fill-rule="evenodd" clip-rule="evenodd" d="M34.8564 38.5014C36.5661 38.5014 38.2208 38.2792 39.7097 37.8356C39.8204 37.7801 39.9857 37.7801 40.151 37.7801C40.4266 37.7801 40.7026 37.8912 40.9235 38.0023L44.1777 39.8889C44.2879 39.9445 44.343 40.0001 44.4532 40.0001C44.7288 40.0001 44.9497 39.7778 44.9497 39.5005C44.9497 39.3894 44.8946 39.2783 44.8946 39.1121C44.8946 39.0565 44.4532 37.5578 44.2324 36.6143C44.1777 36.5032 44.1777 36.3921 44.1777 36.2814C44.1777 35.9481 44.343 35.6707 44.619 35.4489C47.7626 33.1734 49.7479 29.7876 49.7479 26.0134C49.7479 19.1312 43.0746 13.5254 34.8564 13.5254C26.6381 13.5254 19.9644 19.0756 19.9644 26.0134C19.9644 32.8956 26.6381 38.5014 34.8564 38.5014Z" fill="url(#paint1_linear_3710_94984)"/>
<path fill-rule="evenodd" clip-rule="evenodd" d="M14.4963 10.0722C14.4963 11.3571 13.4794 12.3745 12.1941 12.3745C10.9087 12.3745 9.89185 11.3571 9.89185 10.0722C9.89185 8.78735 10.9096 7.77002 12.1941 7.77002C13.4785 7.77002 14.4963 8.78735 14.4963 10.0722ZM26.4385 10.0722C26.4385 11.3571 25.4216 12.3745 24.1367 12.3745C22.8518 12.3745 21.8345 11.3571 21.8345 10.0722C21.8345 8.78735 22.8518 7.77002 24.1367 7.77002C25.4216 7.77002 26.439 8.78735 26.439 10.0722" fill="#168743"/>
<path fill-rule="evenodd" clip-rule="evenodd" d="M37.9497 22.1583C37.9497 23.2774 38.8453 24.1725 39.9644 24.1725C41.0835 24.1725 41.9786 23.2774 41.9786 22.1583C41.9786 21.0392 41.0835 20.144 39.9644 20.144C38.8453 20.144 37.9497 21.0392 37.9497 22.1583ZM28.0217 22.1583C28.0217 23.2774 28.9168 24.1725 30.036 24.1725C31.1551 24.1725 32.0506 23.2774 32.0506 22.1583C32.0506 21.0392 31.1551 20.144 30.036 20.144C28.9168 20.144 28.0217 21.0392 28.0217 22.1583Z" fill="#919191"/>
</g>
<defs>
<linearGradient id="paint0_linear_3710_94984" x1="18.1858" y1="29.6673" x2="18.1858" y2="0.137703" gradientUnits="userSpaceOnUse">
<stop stop-color="#05CD66"/>
<stop offset="1" stop-color="#9EEE69"/>
</linearGradient>
<linearGradient id="paint1_linear_3710_94984" x1="34.8826" y1="38.2885" x2="34.8826" y2="13.5159" gradientUnits="userSpaceOnUse">
<stop stop-color="#E4E6E6"/>
<stop offset="1" stop-color="#F0F0F0"/>
</linearGradient>
<clipPath id="clip0_3710_94984">
<rect width="49.776" height="40" fill="white" transform="translate(0.112061)"/>
</clipPath>
</defs>
</svg>
