<svg width="40" height="40" viewBox="0 0 40 40" fill="none" xmlns="http://www.w3.org/2000/svg">
<g clip-path="url(#clip0_3670_106804)">
<path d="M10.6595 34.5909L11.3043 34.9151C13.9337 36.4879 16.9397 37.3099 19.999 37.2928C29.417 37.2712 37.1552 29.4711 37.1552 20.0001C37.1552 15.4229 35.3474 11.0273 32.1329 7.7871C28.9226 4.51338 24.5366 2.66846 19.9657 2.66846C10.5907 2.66846 2.8772 10.4264 2.8772 19.8531C2.8772 19.9277 2.8772 20.0012 2.87827 20.0758C2.90651 23.2808 3.7979 26.4182 5.45768 29.1544L5.88756 29.8029L4.16798 36.1796L10.6595 34.5909Z" fill="#00E676"/>
<path d="M34.0459 5.84195C30.3864 2.08724 25.3662 -0.0191967 20.1386 0.00558735H20.1053C9.33963 0.00562121 0.480497 8.91466 0.480497 19.741C0.480497 19.7918 0.481574 19.8415 0.481574 19.8923C0.522125 23.3344 1.40821 26.713 3.06098 29.7275L0.266602 39.9951L10.6809 37.2931C13.5579 38.8815 16.7923 39.7002 20.0742 39.6709C30.8797 39.6114 39.7378 30.6516 39.7313 19.7842C39.7571 14.5629 37.7097 9.54151 34.0459 5.84195ZM20.1386 36.3204C17.2295 36.3356 14.3715 35.5508 11.8739 34.0507L11.229 33.7265L5.02772 35.3477L6.63983 29.1871L6.20995 28.5387C4.61309 25.9457 3.76708 22.9563 3.76704 19.9063C3.76704 10.912 11.1269 3.51063 20.071 3.51063C29.015 3.51063 36.3748 10.912 36.3748 19.9063C36.3748 25.5697 33.4569 30.8462 28.6721 33.8345C26.1415 35.4647 23.1977 36.3277 20.1924 36.3204M29.6394 24.3235L28.4572 23.7832C28.4572 23.7832 26.7376 23.0266 25.6629 22.4862C25.5554 22.4862 25.4479 22.3781 25.3404 22.3781C25.0755 22.3847 24.8165 22.4591 24.5881 22.5943C24.3592 22.7294 24.4806 22.7024 22.976 24.4316C22.8739 24.6338 22.6643 24.7602 22.4386 24.7559H22.3311C22.1696 24.7287 22.0198 24.6534 21.9013 24.5397L21.3639 24.3235C20.2108 23.8327 19.1551 23.1371 18.2471 22.2701C18.0322 22.0539 17.7097 21.8377 17.4948 21.6215C16.6991 20.8551 16.012 19.9823 15.4528 19.0277L15.3453 18.8115C15.2519 18.6794 15.1794 18.5336 15.1303 18.3792C15.1022 18.192 15.1403 18.0007 15.2378 17.8388C15.3356 17.6767 15.6677 17.2984 15.9901 16.9741C16.3126 16.6499 16.3126 16.4338 16.5275 16.2176C16.638 16.0633 16.7143 15.887 16.7514 15.7006C16.7885 15.5142 16.7854 15.3219 16.7424 15.1368C16.2416 13.7383 15.6676 12.3674 15.0229 11.0298C14.8501 10.7595 14.5808 10.5661 14.2705 10.4894H13.0883C12.8734 10.4894 12.6584 10.5974 12.4435 10.5974L12.336 10.7055C12.1211 10.8136 11.9061 11.0298 11.6911 11.1378C11.4762 11.2459 11.3687 11.5702 11.1538 11.7863C10.4025 12.7411 9.98673 13.9193 9.97156 15.1368C9.98346 15.9932 10.1662 16.8385 10.5089 17.6226L10.6164 17.9468C11.5814 20.0217 12.9311 21.8925 14.593 23.4589L15.0229 23.8912C15.3357 24.1518 15.6236 24.4413 15.8827 24.7559C18.1095 26.7045 20.7545 28.1096 23.6101 28.8629C23.9325 28.971 24.3624 28.971 24.6848 29.0791H25.7596C26.3213 29.0512 26.8708 28.9038 27.3717 28.6467C27.635 28.5268 27.8865 28.382 28.124 28.2144L28.339 27.9982C28.5539 27.7821 28.7689 27.674 28.9838 27.4579C29.1939 27.2697 29.375 27.0511 29.5212 26.8094C29.7276 26.3252 29.8726 25.8172 29.9511 25.2963V24.5397C29.8545 24.4524 29.7459 24.3796 29.6287 24.3235" fill="white"/>
</g>
<defs>
<clipPath id="clip0_3670_106804">
<rect width="39.4667" height="40" fill="white" transform="translate(0.266602)"/>
</clipPath>
</defs>
</svg>
