<svg width="40" height="40" viewBox="0 0 40 40" fill="none" xmlns="http://www.w3.org/2000/svg">
<g clip-path="url(#clip0_3785_43519)">
<mask id="mask0_3785_43519" style="mask-type:luminance" maskUnits="userSpaceOnUse" x="0" y="0" width="40" height="40">
<path d="M0.266846 0H39.7332V40H0.266846V0Z" fill="white"/>
</mask>
<g mask="url(#mask0_3785_43519)">
<path d="M3.07178 19.9994C3.07178 26.7909 6.96585 32.6595 12.6125 35.4411L4.53741 13.0169C3.56939 15.2139 3.06995 17.5933 3.07178 19.9994ZM31.4283 19.1336C31.4283 17.0132 30.6768 15.5447 30.0323 14.4017C29.1742 12.9885 28.3702 11.7916 28.3702 10.3783C28.3702 8.80117 29.5501 7.33303 31.2125 7.33303C31.2876 7.33303 31.3588 7.3425 31.4322 7.34674C28.4201 4.55021 24.4075 2.84277 20.0003 2.84277C14.0862 2.84277 8.88308 5.91811 5.85616 10.5762C6.25333 10.5883 6.62795 10.5964 6.94555 10.5964C8.71623 10.5964 11.4571 10.3787 11.4571 10.3787C12.3697 10.3241 12.4773 11.6826 11.566 11.792C11.566 11.792 10.6486 11.9013 9.62814 11.9555L15.7928 30.5398L19.4978 19.2789L16.86 11.9552C15.9484 11.901 15.0848 11.7916 15.0848 11.7916C14.1726 11.7374 14.2795 10.3238 15.1917 10.3783C15.1917 10.3783 17.9874 10.5961 19.6508 10.5961C21.4211 10.5961 24.1624 10.3783 24.1624 10.3783C25.0756 10.3238 25.1828 11.6823 24.2709 11.7916C24.2709 11.7916 23.3519 11.901 22.3334 11.9552L28.451 30.3987L30.1392 24.68C30.8714 22.3069 31.4283 20.6024 31.4283 19.1336Z" fill="#00749A"/>
<path d="M20.2971 21.5004L15.218 36.4586C16.7708 36.9224 18.3813 37.1579 20.0002 37.1579C21.9715 37.1579 23.862 36.8122 25.6217 36.1854C25.5745 36.1105 25.5342 36.0314 25.5013 35.949L20.2971 21.5004ZM34.8542 11.7681C34.927 12.3146 34.9683 12.9016 34.9683 13.5323C34.9683 15.2734 34.6474 17.2306 33.6811 19.6778L28.5102 34.8302C33.5429 31.8557 36.928 26.3296 36.928 19.9997C36.9325 17.1225 36.2192 14.2909 34.8542 11.7681Z" fill="#00749A"/>
<path d="M20.0003 0C9.11957 0 0.266846 8.9717 0.266846 19.9995C0.266846 31.0286 9.11925 40.0003 20.0003 40.0003C30.8808 40.0003 39.7348 31.029 39.7348 19.9995C39.7345 8.9717 30.8808 0 20.0003 0ZM20.0003 39.0833C9.61853 39.0833 1.17167 30.5223 1.17167 19.9995C1.17167 9.47773 9.61821 0.917379 20.0003 0.917379C30.3818 0.917379 38.828 9.47773 38.828 19.9995C38.828 30.5223 30.3815 39.0833 20.0003 39.0833Z" fill="#00749A"/>
</g>
</g>
<defs>
<clipPath id="clip0_3785_43519">
<rect width="39.4667" height="40" fill="white" transform="translate(0.266602)"/>
</clipPath>
</defs>
</svg>
