<svg width="40" height="40" viewBox="0 0 40 40" fill="none" xmlns="http://www.w3.org/2000/svg">
<g clip-path="url(#clip0_3785_43466)">
<path d="M19.9999 40C30.8984 40 39.7333 31.0457 39.7333 20C39.7333 8.9543 30.8984 0 19.9999 0C9.10152 0 0.266602 8.9543 0.266602 20C0.266602 31.0457 9.10152 40 19.9999 40Z" fill="#4A8CFF"/>
<path d="M7.33862 13.7385V23.1373C7.34349 24.1567 7.74749 25.1325 8.46184 25.8501C9.1762 26.5678 10.1425 26.9686 11.1483 26.9646H24.6659C24.8486 26.9655 25.0242 26.8929 25.1542 26.7627C25.2842 26.6326 25.358 26.4555 25.3593 26.2703V16.8714C25.3544 15.852 24.9504 14.8763 24.2361 14.1586C23.5217 13.441 22.5555 13.0401 21.5496 13.0442H8.03622C7.94539 13.0432 7.85526 13.0603 7.77099 13.0947C7.68672 13.1291 7.60998 13.18 7.54517 13.2445C7.48036 13.309 7.42875 13.3859 7.3933 13.4706C7.35786 13.5554 7.33928 13.6464 7.33862 13.7385ZM26.2198 17.4049L31.8006 13.2728C32.2852 12.8655 32.6611 12.968 32.6611 13.7046V26.3041C32.6611 27.1424 32.2016 27.0408 31.8006 26.7351L26.2198 22.6123V17.4049Z" fill="white"/>
</g>
<defs>
<clipPath id="clip0_3785_43466">
<rect width="39.4667" height="40" fill="white" transform="translate(0.266602)"/>
</clipPath>
</defs>
</svg>
