<svg width="87" height="87" viewBox="0 0 87 87" fill="none" xmlns="http://www.w3.org/2000/svg">
<path d="M72.0469 25.8281H62.5312V24.4688C62.5312 22.9713 61.3099 21.75 59.8125 21.75V17.6719C59.8125 13.923 56.7645 10.875 53.0156 10.875H33.9844C30.2355 10.875 27.1875 13.923 27.1875 17.6719V21.75C25.6901 21.75 24.4688 22.9713 24.4688 24.4688V25.8281H14.9531C11.2042 25.8281 8.15625 28.8761 8.15625 32.625V69.3281C8.15625 73.077 11.2042 76.125 14.9531 76.125H72.0469C75.7958 76.125 78.8438 73.077 78.8438 69.3281V32.625C78.8438 28.8761 75.7958 25.8281 72.0469 25.8281ZM51.6562 25.8281V24.4688H59.8125V25.8281H51.6562ZM35.3438 21.75V19.0312H51.6562V21.75C50.1588 21.75 48.9375 22.9713 48.9375 24.4688V25.8281H38.0625V24.4688C38.0625 22.9713 36.8412 21.75 35.3438 21.75ZM29.9062 17.6719C29.9062 15.4257 31.7382 13.5938 33.9844 13.5938H53.0156C55.2618 13.5938 57.0938 15.4257 57.0938 17.6719V21.75H54.375V19.0312C54.375 17.5338 53.1537 16.3125 51.6562 16.3125H35.3438C33.8463 16.3125 32.625 17.5338 32.625 19.0312V21.75H29.9062V17.6719ZM27.1875 24.4688H35.3438V25.8281H27.1875V24.4688ZM14.9531 28.5469H72.0469C74.293 28.5469 76.125 30.3788 76.125 32.625V33.6658L69.6149 46.686C68.9193 48.072 67.5227 48.9375 65.9669 48.9375H57.0938V44.8594C57.0938 43.3619 55.8724 42.1406 54.375 42.1406H51.6562C50.1588 42.1406 48.9375 43.3619 48.9375 44.8594V48.9375H38.0625V44.8594C38.0625 43.3619 36.8412 42.1406 35.3438 42.1406H32.625C31.1276 42.1406 29.9062 43.3619 29.9062 44.8594V48.9375H21.0331C19.4773 48.9375 18.0807 48.072 17.3851 46.686L10.875 33.6658V32.625C10.875 30.3788 12.707 28.5469 14.9531 28.5469ZM54.375 44.8594V54.375C54.375 55.1237 53.7643 55.7344 53.0156 55.7344C52.2669 55.7344 51.6562 55.1237 51.6562 54.375V44.8594H54.375ZM35.3438 44.8594V54.375C35.3438 55.1237 34.7331 55.7344 33.9844 55.7344C33.2357 55.7344 32.625 55.1237 32.625 54.375V44.8594H35.3438ZM72.0469 73.4062H14.9531C12.707 73.4062 10.875 71.5743 10.875 69.3281V39.7405L14.9531 47.902C16.1107 50.2172 18.4418 51.6562 21.0331 51.6562H29.9062V54.375C29.9062 56.6212 31.7382 58.4531 33.9844 58.4531C36.2305 58.4531 38.0625 56.6212 38.0625 54.375V51.6562H48.9375V54.375C48.9375 56.6212 50.7695 58.4531 53.0156 58.4531C55.2618 58.4531 57.0938 56.6212 57.0938 54.375V51.6562H65.9669C68.5582 51.6562 70.8893 50.2172 72.0469 47.902L76.125 39.7405V69.3281C76.125 71.5743 74.293 73.4062 72.0469 73.4062Z" fill="#0075B0"/>
<path d="M35.3438 31.2656H51.6562V33.9844H35.3438V31.2656Z" fill="#0075B0"/>
</svg>
