<svg width="87" height="87" viewBox="0 0 87 87" fill="none" xmlns="http://www.w3.org/2000/svg">
<path d="M43.5 20.3906C39.7511 20.3906 36.7031 17.3427 36.7031 13.5938C36.7031 9.84485 39.7511 6.79688 43.5 6.79688C47.2489 6.79688 50.2969 9.84485 50.2969 13.5938C50.2969 17.3427 47.2489 20.3906 43.5 20.3906ZM43.5 9.51562C41.2538 9.51562 39.4219 11.3476 39.4219 13.5938C39.4219 15.8399 41.2538 17.6719 43.5 17.6719C45.7462 17.6719 47.5781 15.8399 47.5781 13.5938C47.5781 11.3476 45.7462 9.51562 43.5 9.51562Z" fill="#0075B0"/>
<path d="M51.6562 23.1094H35.3438C31.5948 23.1094 28.5469 26.1573 28.5469 29.9062V51.6562C28.5469 53.9024 30.3788 55.7344 32.625 55.7344C33.1029 55.7344 33.5596 55.6388 33.9844 55.4848V73.4062C33.9844 76.4064 36.4217 78.8438 39.4219 78.8438C41.0521 78.8438 42.5017 78.1057 43.5 76.964C44.4983 78.1057 45.9479 78.8438 47.5781 78.8438C50.5783 78.8438 53.0156 76.4064 53.0156 73.4062V55.4848C53.4404 55.6388 53.8971 55.7344 54.375 55.7344C56.6212 55.7344 58.4531 53.9024 58.4531 51.6562V29.9062C58.4531 26.1573 55.4052 23.1094 51.6562 23.1094ZM50.2969 73.4062C50.2969 74.9037 49.0756 76.125 47.5781 76.125C46.0807 76.125 44.8594 74.9037 44.8594 73.4062V55.7344H42.1406V73.4062C42.1406 74.9037 40.9193 76.125 39.4219 76.125C37.9244 76.125 36.7031 74.9037 36.7031 73.4062V50.2969H50.2969V73.4062ZM55.7344 51.6562C55.7344 52.405 55.1237 53.0156 54.375 53.0156C53.6263 53.0156 53.0156 52.405 53.0156 51.6562V35.3438H50.2969V47.5781H36.7031V35.3438H33.9844V51.6562C33.9844 52.405 33.3737 53.0156 32.625 53.0156C31.8763 53.0156 31.2656 52.405 31.2656 51.6562V29.9062C31.2656 27.6601 33.0976 25.8281 35.3438 25.8281H51.6562C53.9024 25.8281 55.7344 27.6601 55.7344 29.9062V51.6562Z" fill="#0075B0"/>
</svg>
