<svg width="87" height="87" viewBox="0 0 87 87" fill="none" xmlns="http://www.w3.org/2000/svg">
<path d="M53.0156 38.0625C53.0156 38.8112 52.405 39.4219 51.6562 39.4219H35.3438C34.595 39.4219 33.9844 38.8112 33.9844 38.0625C33.9844 37.3138 34.595 36.7031 35.3438 36.7031H51.6562C52.405 36.7031 53.0156 37.3138 53.0156 38.0625Z" fill="#0075B0"/>
<path d="M76.0507 55.9627L73.5815 21.4526C73.4328 19.3286 71.638 17.6719 69.5193 17.6719H69.3281V16.3125C69.3281 14.0663 67.4962 12.2344 65.25 12.2344H59.8125C57.5663 12.2344 55.7344 14.0663 55.7344 16.3125V17.6719H55.5432C53.4245 17.6719 51.6297 19.3286 51.481 21.4633L50.7748 31.2656H36.2252L35.519 21.4526C35.3703 19.3286 33.5755 17.6719 31.4568 17.6719H31.2656V16.3125C31.2656 14.0663 29.4337 12.2344 27.1875 12.2344H21.75C19.5038 12.2344 17.6719 14.0663 17.6719 16.3125V17.6719H17.4807C15.362 17.6719 13.5672 19.3286 13.4185 21.4633L10.9493 55.9627C9.32977 56.5043 8.15625 58.0177 8.15625 59.8125V70.6875C8.15625 72.9337 9.98822 74.7656 12.2344 74.7656H36.7031C38.9493 74.7656 40.7812 72.9337 40.7812 70.6875V59.8125C40.7812 58.0177 39.6077 56.5043 37.9882 55.9627L37.197 44.8594H49.8083L49.0118 55.9627C47.3923 56.5043 46.2188 58.0177 46.2188 59.8125V70.6875C46.2188 72.9337 48.0507 74.7656 50.2969 74.7656H74.7656C77.0118 74.7656 78.8438 72.9337 78.8438 70.6875V59.8125C78.8438 58.0177 77.6702 56.5043 76.0507 55.9627ZM58.4531 16.3125C58.4531 15.5638 59.0638 14.9531 59.8125 14.9531H65.25C65.9987 14.9531 66.6094 15.5638 66.6094 16.3125V17.6719H58.4531V16.3125ZM55.5432 20.3906H69.5193C70.2255 20.3906 70.8256 20.9482 70.8787 21.6544L70.9796 23.1094H54.0829L54.1838 21.6544C54.2369 20.9482 54.837 20.3906 55.5432 20.3906ZM54.375 33.9844C55.1237 33.9844 55.7344 34.595 55.7344 35.3438V40.7812C55.7344 41.53 55.1237 42.1406 54.375 42.1406H32.625C31.8763 42.1406 31.2656 41.53 31.2656 40.7812V35.3438C31.2656 34.595 31.8763 33.9844 32.625 33.9844H54.375ZM20.3906 16.3125C20.3906 15.5638 21.0013 14.9531 21.75 14.9531H27.1875C27.9362 14.9531 28.5469 15.5638 28.5469 16.3125V17.6719H20.3906V16.3125ZM17.4807 20.3906H31.4568C32.163 20.3906 32.7631 20.9482 32.8162 21.6544L32.9171 23.1094H16.0204L16.1213 21.6544C16.1744 20.9482 16.7745 20.3906 17.4807 20.3906ZM38.0625 70.6875C38.0625 71.4362 37.4518 72.0469 36.7031 72.0469H12.2344C11.4857 72.0469 10.875 71.4362 10.875 70.6875V69.3281H24.4688V66.6094H10.875V63.8906H19.0312V61.1719H10.875V59.8125C10.875 59.0638 11.4857 58.4531 12.2344 58.4531H36.7031C37.4518 58.4531 38.0625 59.0638 38.0625 59.8125V70.6875ZM35.2429 55.7344H13.6946L15.824 25.8281H33.1082L33.4958 31.2656H32.625C30.3788 31.2656 28.5469 33.0976 28.5469 35.3438V40.7812C28.5469 43.0274 30.3788 44.8594 32.625 44.8594H34.4623L35.2429 55.7344ZM54.375 44.8594C56.6212 44.8594 58.4531 43.0274 58.4531 40.7812V35.3438C58.4531 33.0976 56.6212 31.2656 54.375 31.2656H53.5042L53.8918 25.8281H71.176L73.3054 55.7344H51.7571L52.5377 44.8594H54.375ZM74.7656 72.0469H50.2969C49.5482 72.0469 48.9375 71.4362 48.9375 70.6875V59.8125C48.9375 59.0638 49.5482 58.4531 50.2969 58.4531H74.7656C75.5143 58.4531 76.125 59.0638 76.125 59.8125V61.1719H67.9688V63.8906H76.125V66.6094H62.5312V69.3281H76.125V70.6875C76.125 71.4362 75.5143 72.0469 74.7656 72.0469Z" fill="#0075B0"/>
</svg>
