<svg width="87" height="87" viewBox="0 0 87 87" fill="none" xmlns="http://www.w3.org/2000/svg">
<path d="M69.3281 10.875H17.6719C13.923 10.875 10.875 13.923 10.875 17.6719V69.3281C10.875 73.077 13.923 76.125 17.6719 76.125H69.3281C73.077 76.125 76.125 73.077 76.125 69.3281V17.6719C76.125 13.923 73.077 10.875 69.3281 10.875ZM13.5938 17.6719C13.5938 15.4257 15.4257 13.5938 17.6719 13.5938H42.1406V20.1888C41.2698 19.8755 40.3564 19.7109 39.4219 19.7109C36.9686 19.7109 34.6747 20.7995 33.1135 22.6952C31.5577 24.5909 30.947 27.0813 31.4302 29.5239C32.0409 32.6038 34.5313 35.1367 37.6218 35.8217C39.167 36.1668 40.7122 36.0659 42.1406 35.5455V42.1406H30.5435L32.1896 44.3177C32.9171 45.2842 33.3047 46.4152 33.3047 47.5781C33.3047 49.2136 32.5772 50.7429 31.3134 51.7837C30.0337 52.8351 28.4088 53.2333 26.7361 52.9041C24.6971 52.4952 23.0191 50.8438 22.5624 48.7888C22.212 47.2064 22.5624 45.6187 23.5448 44.3177L25.1909 42.1406H13.5938V17.6719ZM42.1406 73.4062H17.6719C15.4257 73.4062 13.5938 71.5743 13.5938 69.3281V44.8594H20.1888C19.6685 46.2878 19.5676 47.833 19.9127 49.3782C20.5977 52.4687 23.1306 54.9591 26.2104 55.5698C26.7574 55.6813 27.3096 55.7344 27.8513 55.7344C29.7416 55.7344 31.5683 55.0919 33.0392 53.8865C34.9349 52.3253 36.0234 50.0314 36.0234 47.5781C36.0234 46.6436 35.8641 45.7302 35.5455 44.8594H42.1406V56.4565L44.3177 54.8104C45.6187 53.8281 47.2064 53.4829 48.7888 53.8281C50.8438 54.2847 52.4952 55.9627 52.9041 58.0071C53.2333 59.6744 52.8351 61.2993 51.7837 62.579C50.0048 64.7455 46.6382 65.2075 44.3177 63.4552L42.1406 61.8091V73.4062ZM73.4062 69.3281C73.4062 71.5743 71.5743 73.4062 69.3281 73.4062H44.8594V66.8112C45.7302 67.1245 46.6436 67.2891 47.5781 67.2891C50.0314 67.2891 52.3253 66.2005 53.8865 64.3048C55.4423 62.4091 56.053 59.9187 55.5698 57.4761C54.9591 54.3962 52.4687 51.8633 49.3782 51.1783C47.833 50.8332 46.2878 50.9341 44.8594 51.4545V44.8594H56.4565L54.8104 42.6823C53.8281 41.3813 53.4776 39.7936 53.8281 38.2112C54.2847 36.1562 55.9627 34.5048 58.0071 34.0959C59.6744 33.7614 61.2993 34.1649 62.579 35.2163C63.8428 36.2571 64.5703 37.7864 64.5703 39.4219C64.5703 40.5901 64.1827 41.7158 63.4552 42.6823L61.8091 44.8594H73.4062V69.3281ZM66.8112 42.1406C67.1245 41.2698 67.2891 40.3564 67.2891 39.4219C67.2891 36.9686 66.2005 34.6747 64.3048 33.1135C62.4091 31.5577 59.924 30.947 57.4761 31.4302C54.3962 32.0409 51.8633 34.5313 51.1783 37.6218C50.8332 39.167 50.9341 40.7122 51.4545 42.1406H44.8594V30.5435L42.6823 32.1896C41.3813 33.1719 39.7936 33.5224 38.2112 33.1719C36.1562 32.7153 34.5048 31.0373 34.0959 28.9929C33.7667 27.3256 34.1649 25.7007 35.2163 24.421C36.9952 22.2491 40.3564 21.7925 42.6823 23.5448L44.8594 25.1909V13.5938H69.3281C71.5743 13.5938 73.4062 15.4257 73.4062 17.6719V42.1406H66.8112Z" fill="#0075B0"/>
</svg>
