<svg width="51" height="52" viewBox="0 0 51 52" fill="none" xmlns="http://www.w3.org/2000/svg">
<path d="M25.0517 0.142258C24.6234 0.335228 24.474 0.660225 24.4242 1.48288L24.3843 2.20398L23.2388 2.3157C17.7603 2.90476 12.8894 5.26101 9.02455 9.20163C5.1597 13.1423 2.84876 18.1087 2.27103 23.6946L2.16146 24.8626L1.44427 24.9032C1.00599 24.9337 0.637437 25.0149 0.478062 25.1266C0.109507 25.3704 -0.0498677 25.8985 0.0995463 26.3454C0.258921 26.843 0.617515 27.036 1.44427 27.0969L2.16146 27.1376L2.27103 28.3055C2.84876 33.8915 5.1597 38.8579 9.02455 42.7985C12.8894 46.7391 17.7603 49.0954 23.2388 49.6844L24.3843 49.7962L24.4242 50.5274C24.454 50.9743 24.5337 51.3501 24.6433 51.5126C24.8824 51.8884 25.4003 52.0509 25.8386 51.8985C26.3267 51.736 26.516 51.3704 26.5757 50.5274L26.6156 49.7962L27.7611 49.6844C33.2396 49.0954 38.1105 46.7391 41.9753 42.7985C45.8402 38.8579 48.1511 33.8915 48.7288 28.3055L48.8384 27.1376L49.5556 27.0969C49.9939 27.0665 50.3624 26.9852 50.5218 26.8735C50.8904 26.6298 51.0497 26.1016 50.9003 25.6548C50.7409 25.1571 50.3824 24.9641 49.5556 24.9032L48.8384 24.8626L48.7288 23.6946C48.1511 18.1087 45.8402 13.1423 41.9753 9.20163C38.1105 5.26101 33.2396 2.90476 27.7611 2.3157L26.6156 2.20398L26.5757 1.47272C26.5259 0.65007 26.3267 0.274288 25.8785 0.11179C25.49 -0.0303993 25.4202 -0.0202408 25.0517 0.142258ZM24.4042 5.91101C24.4042 7.64773 24.4939 8.12507 24.8724 8.42976C25.4402 8.88679 26.2968 8.57195 26.496 7.84069C26.5458 7.63757 26.5956 6.76413 26.5956 5.91101V4.34695L26.8745 4.40788C27.024 4.4282 27.4622 4.48913 27.8408 4.5196C34.0165 5.09851 39.9931 8.93757 43.4993 14.5743C45.113 17.1743 46.2984 20.6782 46.5673 23.6133C46.5972 23.9993 46.657 24.4462 46.6769 24.5985L46.7367 24.8829H45.2027C44.3659 24.8829 43.5093 24.9337 43.3101 24.9844C42.2742 25.279 42.2742 26.7212 43.3101 27.0157C43.5093 27.0665 44.3659 27.1173 45.2027 27.1173H46.7367L46.6769 27.3915C46.657 27.554 46.5972 27.9907 46.5673 28.3868C45.9995 34.6837 42.2343 40.7774 36.706 44.3524C34.156 45.9977 30.7195 47.2063 27.8408 47.4805C27.4622 47.511 27.024 47.5719 26.8745 47.5923L26.5956 47.6532V46.0891C26.5956 45.236 26.5458 44.3626 26.496 44.1594C26.2072 43.1032 24.7927 43.1032 24.5038 44.1594C24.454 44.3626 24.4042 45.236 24.4042 46.0891V47.6532L24.1353 47.5923C23.9759 47.5719 23.5476 47.511 23.1591 47.4805C16.9833 46.9016 11.0068 43.0626 7.50052 37.4259C5.88685 34.8259 4.7015 31.3219 4.43255 28.3868C4.40267 27.9907 4.34291 27.554 4.32298 27.3915L4.26322 27.1173H5.7972C6.63392 27.1173 7.49056 27.0665 7.68978 27.0157C8.72572 26.7212 8.72572 25.279 7.68978 24.9844C7.49056 24.9337 6.63392 24.8829 5.7972 24.8829H4.26322L4.32298 24.5985C4.34291 24.4462 4.40267 23.9993 4.43255 23.6133C4.85091 18.9821 7.10208 14.2087 10.5187 10.7251C14.1943 6.97741 18.7763 4.86491 24.2847 4.37741C24.3743 4.36726 24.4042 4.74304 24.4042 5.91101Z" fill="#0075B0"/>
<path d="M24.7031 15.2344C23.8664 15.3665 23.0795 15.7016 22.422 16.2094C19.1648 18.6977 19.5732 23.5727 23.1791 25.4313C26.6255 27.1985 30.7693 24.568 30.7793 20.6172C30.7793 18.7383 29.823 16.9813 28.2392 15.9555C27.3029 15.3563 25.8586 15.0618 24.7031 15.2344ZM26.5957 17.5602C27.283 17.8243 27.7412 18.2001 28.1297 18.8196C29.3847 20.7899 28.3089 23.3188 26.0179 23.7657C24.2947 24.0907 22.5615 22.7602 22.3423 20.9219C22.2328 19.9266 22.7607 18.6368 23.5476 18.0274C24.3843 17.3774 25.6295 17.1844 26.5957 17.5602Z" fill="#0075B0"/>
<path d="M24.0058 27.1782C23.0695 27.3508 21.7447 27.6962 21.0872 27.9399C19.6827 28.468 17.9894 29.4126 17.4116 29.9915C16.3757 31.0376 15.8876 32.4188 15.9573 34.1251C16.0171 35.4555 16.3657 36.1055 17.332 36.6235C17.6607 36.8063 18.0591 36.8165 25.4999 36.8165H33.3193L33.7177 36.593C34.1859 36.3391 34.5743 35.9329 34.8234 35.4454C35.0824 34.9376 35.1322 33.3735 34.923 32.4594C34.5445 30.804 33.6978 29.7985 31.8949 28.854C29.5142 27.6149 28.0599 27.2188 25.7988 27.168C24.9521 27.1477 24.1452 27.1477 24.0058 27.1782ZM27.1036 29.4126C28.2691 29.6157 29.4345 30.0321 30.7294 30.6821C31.865 31.261 32.373 31.718 32.6519 32.3883C32.871 32.9063 33.0304 34.0844 32.9208 34.4196L32.8611 34.6329H25.4999H18.1388L18.079 34.4196C17.9695 34.0844 18.1288 32.9063 18.348 32.3883C18.6269 31.718 19.1349 31.261 20.2704 30.6821C22.7607 29.4227 24.8724 29.0266 27.1036 29.4126Z" fill="#0075B0"/>
</svg>
