<svg width="41" height="42" viewBox="0 0 41 42" fill="none" xmlns="http://www.w3.org/2000/svg">
<path d="M35.5959 0.5214C34.8766 0.755119 32.6476 1.94789 29.5491 3.76122C25.9843 5.8405 25.1148 6.32406 23.3443 7.2267C20.9414 8.4517 18.9021 9.27375 16.8707 9.84595L15.8906 10.12H12.3495C10.405 10.12 8.46056 10.1603 8.01792 10.2006C6.04186 10.4101 4.36615 11.2402 3.03033 12.6667C1.56804 14.2382 0.817139 16.1241 0.817139 18.2598C0.817139 20.4842 1.68661 22.5554 3.25165 24.0786C4.65861 25.4487 6.31851 26.1982 8.14439 26.2949L9.02967 26.3432L9.06919 26.714C9.0929 26.9154 9.13242 27.4071 9.15614 27.81C9.22727 28.8658 9.54344 30.6388 9.85961 31.8074C10.7686 35.1681 12.5787 38.2709 14.7444 40.181C16.3253 41.5752 17.1236 41.8573 18.333 41.4543C18.9653 41.2448 19.574 40.7129 19.8585 40.1407C20.0561 39.7377 20.7359 36.5221 20.7359 35.9821C20.7359 35.6436 20.5383 34.9183 20.3565 34.6281C20.2853 34.5153 19.9929 34.1607 19.7083 33.8544C18.5148 32.573 17.7481 30.9692 17.337 28.9061C17.2106 28.2452 17.013 26.722 17.0604 26.6656C17.092 26.6172 19.2183 27.2297 20.064 27.536C23.4866 28.7529 26.4428 30.3648 32.7899 34.4589C34.0546 35.2729 35.2797 36.0224 35.5168 36.1272C36.2836 36.4495 37.2005 36.3448 38.2043 35.829C39.0975 35.3696 39.7456 34.5959 40.0302 33.653C40.1804 33.1372 40.1804 32.8632 40.1646 18.1389L40.1408 3.14872L39.8879 2.60069C39.1133 0.940483 37.1767 -0.00244904 35.5959 0.5214ZM37.0108 3.10842C37.1847 3.19707 37.3981 3.35826 37.485 3.47915L37.651 3.69675V18.292C37.651 32.4844 37.6431 32.8954 37.5008 33.1372C37.3506 33.387 36.7815 33.7336 36.5207 33.7336C36.4496 33.7336 35.1374 32.9276 33.604 31.9363C29.2251 29.1076 27.2727 27.9631 24.8461 26.7784C22.5697 25.6663 20.0798 24.7314 18.1196 24.2639C17.6216 24.1431 17.1711 24.0302 17.1236 24.0141C17.0446 23.9899 17.0209 22.7649 17.0209 18.2356V12.4813L17.5584 12.3363C19.2973 11.8608 21.6291 10.942 23.7948 9.87013C25.6602 8.95943 26.9802 8.2341 30.6162 6.10646C33.9992 4.13195 36.2045 2.94724 36.5049 2.94724C36.6155 2.94724 36.8448 3.01977 37.0108 3.10842ZM14.4915 18.2195V23.7401H11.235C7.76499 23.7401 7.48043 23.7159 6.62677 23.3291C5.44904 22.8052 4.49262 21.8784 3.93142 20.7179C3.47297 19.783 3.32279 19.0254 3.37022 17.9777C3.48088 15.3262 5.48065 13.118 8.08116 12.7795C8.32619 12.7473 9.86752 12.715 11.5116 12.707L14.4915 12.6989V18.2195ZM14.531 27.0202C14.7919 30.5663 15.9143 33.516 17.756 35.4824L18.2144 35.974L17.922 37.4811C17.7402 38.3999 17.59 39.0043 17.5267 39.0285C17.4003 39.0768 16.681 38.5208 16.0328 37.876C13.9777 35.8451 12.5392 32.8712 11.9226 29.3816C11.7329 28.3258 11.5511 26.5044 11.6223 26.3755C11.6381 26.3432 12.2941 26.3191 13.0687 26.3191H14.4757L14.531 27.0202Z" fill="#0075B0"/>
</svg>
