<svg width="43" height="44" viewBox="0 0 43 44" fill="none" xmlns="http://www.w3.org/2000/svg">
<path d="M36.2992 0.531338C30.7873 0.925526 26.38 2.47975 23.1877 5.14897C22.4255 5.79093 19.5536 8.71918 17.9188 10.5212L17.0793 11.4447L14.7265 11.1744C11.9429 10.8478 11.4459 10.8365 10.8936 11.0618C10.3413 11.2983 4.96193 16.7493 4.67473 17.3688C4.27708 18.236 4.47591 19.351 5.13866 20.0267C5.45899 20.3534 6.07757 20.6574 8.62917 21.6936L11.722 22.955L11.0593 26.9757C10.4628 30.6022 10.4186 31.0415 10.5291 31.5032C10.7831 32.4605 11.5674 33.1701 12.4621 33.2714C12.7603 33.3052 14.4062 33.08 16.77 32.6858C18.8798 32.3254 20.614 32.0551 20.6361 32.0776C20.6582 32.1001 21.1994 33.4854 21.8511 35.1635C22.5028 36.8304 23.1546 38.3621 23.3092 38.5536C23.8725 39.3194 25.2864 39.646 26.137 39.2181C26.5788 38.9928 31.914 33.6093 32.157 33.1476C32.5215 32.438 32.5325 32.1902 32.2233 29.3521L31.925 26.5703L33.4052 25.1399C35.9789 22.6509 38.0776 20.4209 38.7403 19.4749C41.2367 15.9159 42.5843 10.9942 42.6175 5.31791L42.6285 2.95278L42.3192 2.31081C41.9547 1.54496 41.314 0.948051 40.5961 0.700275C39.9554 0.475025 38.1107 0.407452 36.2992 0.531338ZM39.9223 3.00909C40.2868 3.21181 40.3972 3.93262 40.3089 5.65578C40.1211 9.83417 39.4252 13.0665 38.1549 15.792C37.2933 17.6391 36.741 18.3374 33.8028 21.3219C32.2785 22.8762 30.6658 24.4642 30.235 24.8696L29.4286 25.5904L29.7821 28.7777L30.1356 31.965L27.6613 34.4878C26.2916 35.8843 25.1539 36.9768 25.1097 36.9318C25.0765 36.8867 24.5242 35.5127 23.8946 33.8684C22.8453 31.1654 22.7017 30.85 22.2377 30.3657C21.3762 29.476 21.3209 29.476 16.7811 30.2531C14.6602 30.6135 12.8929 30.8951 12.8708 30.8725C12.8487 30.85 13.1138 29.0705 13.4562 26.9307C14.1079 22.9437 14.1411 22.4932 13.7987 21.8175C13.4673 21.153 12.9371 20.8602 9.88841 19.6213C8.24257 18.9455 6.89496 18.3712 6.89496 18.3374C6.89496 18.2923 7.99956 17.1435 9.3582 15.7582L11.8104 13.258L14.9474 13.6071L18.0845 13.9675L18.5926 13.3593C19.4431 12.3457 22.6354 8.94443 23.7621 7.85197C26.5346 5.17149 30.0803 3.65105 34.8411 3.07666C36.3655 2.8852 39.624 2.85141 39.9223 3.00909Z" fill="#0075B0"/>
<path d="M30.2129 7.35659C28.545 7.81835 27.1642 9.24869 26.7776 10.9155C26.5125 12.1206 26.7776 13.6073 27.4404 14.6322C28.2799 15.9161 29.5612 16.6594 31.0966 16.727C32.654 16.8058 33.836 16.3328 34.8411 15.2178C36.2329 13.6861 36.4428 11.2084 35.3492 9.45142C34.2557 7.70573 32.1238 6.82725 30.2129 7.35659ZM32.7424 10.0934C33.9354 11.0732 34.0569 12.6049 33.0186 13.6636C32.4552 14.2267 31.925 14.4294 31.1297 14.3619C30.0693 14.2718 29.1967 13.4046 29.031 12.2783C28.8984 11.3773 29.4507 10.3299 30.3123 9.86813C31.0413 9.48521 32.1238 9.57531 32.7424 10.0934Z" fill="#0075B0"/>
<path d="M15.0469 18.315C14.7376 18.5965 14.6824 18.7204 14.6824 19.1596C14.6824 19.8467 14.9143 20.0719 16.4718 20.8603C19.3438 22.3131 21.4535 24.5093 22.8564 27.5052C23.1215 28.0795 23.4749 28.6539 23.6406 28.7891C24.3586 29.3635 25.4521 28.8567 25.4521 27.9331C25.4521 27.3475 24.3696 25.1288 23.4418 23.7998C21.8291 21.4797 19.4763 19.5313 16.8695 18.3713C15.8091 17.8982 15.5108 17.887 15.0469 18.315Z" fill="#0075B0"/>
<path d="M3.78011 26.4015C2.32205 27.8769 1.06281 29.2171 0.974444 29.3861C0.532607 30.2533 1.0849 31.1655 2.06799 31.1655C2.37728 31.1655 2.73075 30.8389 5.26026 28.2598C8.09907 25.3653 8.11011 25.3541 8.11011 24.881C8.11011 24.4869 8.04384 24.3179 7.78978 24.0589C7.52468 23.7886 7.37004 23.7323 6.93924 23.7323H6.42009L3.78011 26.4015Z" fill="#0075B0"/>
<path d="M9.15953 33.1026C8.71769 33.2152 3.51507 38.5198 3.34938 39.0154C3.19473 39.4884 3.44879 40.0966 3.90167 40.3331C4.31037 40.5583 4.60861 40.5583 4.99522 40.3556C5.50333 40.074 10.5182 34.8595 10.5955 34.5104C10.706 34.0824 10.5845 33.6657 10.2531 33.3616C9.93275 33.0575 9.60137 32.9787 9.15953 33.1026Z" fill="#0075B0"/>
<path d="M18.0956 35.738C17.9079 35.8281 16.5823 37.1121 15.1574 38.5762C13.1912 40.5922 12.5395 41.3355 12.4733 41.6058C12.3076 42.4054 13.1029 43.2163 13.8871 43.0361C14.1522 42.9798 14.8592 42.3491 16.7149 40.4683C19.3438 37.8216 19.8188 37.2585 19.8188 36.8305C19.8188 36.4138 19.5206 35.9182 19.156 35.7268C18.7584 35.5128 18.5264 35.5128 18.0956 35.738Z" fill="#0075B0"/>
</svg>
