<?xml version="1.0" encoding="utf-8"?>
<!-- Generator: Adobe Illustrator 27.7.0, SVG Export Plug-In . SVG Version: 6.00 Build 0)  -->
<svg version="1.1" id="Layer_1" xmlns="http://www.w3.org/2000/svg" xmlns:xlink="http://www.w3.org/1999/xlink" x="0px" y="0px"
	 viewBox="0 0 200 200" style="enable-background:new 0 0 200 200;" xml:space="preserve">
<style type="text/css">
	.st0{display:none;fill:#FFFFFF;}
	.st1{display:none;}
	.st2{display:inline;fill:#E9FFF2;}
	.st3{display:inline;}
	.st4{fill:#50AD75;}
	.st5{fill:none;stroke:#50AD75;stroke-width:7.3848;stroke-miterlimit:10;}
	.st6{display:inline;fill:#193523;}
	.st7{display:inline;fill:#CDBEF5;}
	.st8{fill:#241A42;}
	.st9{fill:#CDBEF5;}
</style>
<path class="st0" d="M94,89.9H50l3,3v-44l-3,3h44l-3-3v44c0,3.9,6,3.9,6,0v-44c0-1.7-1.3-3-3-3H50c-1.7,0-3,1.3-3,3v44
	c0,1.7,1.3,3,3,3h44C97.8,95.9,97.8,89.9,94,89.9z"/>
<path class="st0" d="M154,89.9h-44l3,3v-44l-3,3h44l-3-3v44c0,3.9,6,3.9,6,0v-44c0-1.7-1.3-3-3-3h-44c-1.7,0-3,1.3-3,3v44
	c0,1.7,1.3,3,3,3h44C157.9,95.9,157.9,89.9,154,89.9z"/>
<path class="st0" d="M94,148.1H50l3,3v-44l-3,3h44l-3-3v44c0,3.9,6,3.9,6,0v-44c0-1.7-1.3-3-3-3H50c-1.7,0-3,1.3-3,3v44
	c0,1.7,1.3,3,3,3h44C97.8,154.1,97.8,148.1,94,148.1z"/>
<path class="st0" d="M154,148.1h-44l3,3v-44l-3,3h44l-3-3v44c0,3.9,6,3.9,6,0v-44c0-1.7-1.3-3-3-3h-44c-1.7,0-3,1.3-3,3v44
	c0,1.7,1.3,3,3,3h44C157.9,154.1,157.9,148.1,154,148.1z"/>
<g class="st1">
	<path class="st2" d="M173,197.2H27c-13.4,0-24.3-10.9-24.3-24.3V27C2.8,13.6,13.6,2.8,27,2.8H173c13.4,0,24.3,10.9,24.3,24.3V173
		C197.2,186.4,186.4,197.2,173,197.2z"/>
	<g class="st3">
		<path class="st4" d="M85.1,36.3v47.4H37.7V36.3H85.1 M86.6,28.9H36.2c-3.3,0-5.9,2.6-5.9,5.9v50.3c0,3.3,2.6,5.9,5.9,5.9h50.3
			c3.3,0,5.9-2.6,5.9-5.9V34.9C92.5,31.6,89.8,28.9,86.6,28.9L86.6,28.9z"/>
	</g>
	<g class="st3">
		<path class="st4" d="M162.3,111.6V159h-47.4v-47.4H162.3 M163.8,104.3h-50.3c-3.3,0-5.9,2.6-5.9,5.9v50.3c0,3.3,2.6,5.9,5.9,5.9
			h50.3c3.3,0,5.9-2.6,5.9-5.9v-50.3C169.7,106.9,167,104.3,163.8,104.3L163.8,104.3z"/>
	</g>
	<g class="st3">
		<path class="st5" d="M151.6,86.1l-38.1,0V48c0-7.8,6.4-14.5,14.2-14.3c7.6,0.1,13.7,6.3,13.7,14v10.5h10.5c7.6,0,13.8,6.1,14,13.7
			C166,79.7,159.4,86.1,151.6,86.1z"/>
	</g>
	<g class="st3">
		<path class="st4" d="M85,111.6C85.1,111.6,85.1,111.7,85,111.6l0.1,47.3c0,0,0,0.1-0.1,0.1H55.4h-1.4l-1.3,0.5l-14.9,6v-6.6v-47.2
			c0,0,0-0.1,0.1-0.1H85 M85,104.3H37.8c-4.1,0-7.5,3.3-7.5,7.5v47.2v17.6l25-10.1H85c4.1,0,7.5-3.3,7.5-7.5v-47.2
			C92.5,107.6,89.1,104.3,85,104.3L85,104.3z"/>
	</g>
</g>
<g class="st1">
	<path class="st6" d="M173,197.2H27c-13.4,0-24.3-10.9-24.3-24.3V27C2.8,13.6,13.6,2.8,27,2.8H173c13.4,0,24.3,10.9,24.3,24.3V173
		C197.2,186.4,186.4,197.2,173,197.2z"/>
	<g class="st3">
		<path class="st4" d="M85.1,36.3v47.4H37.7V36.3H85.1 M86.6,28.9H36.2c-3.3,0-5.9,2.6-5.9,5.9v50.3c0,3.3,2.6,5.9,5.9,5.9h50.3
			c3.3,0,5.9-2.6,5.9-5.9V34.9C92.5,31.6,89.8,28.9,86.6,28.9L86.6,28.9z"/>
	</g>
	<g class="st3">
		<path class="st4" d="M162.3,111.6V159h-47.4v-47.4H162.3 M163.8,104.3h-50.3c-3.3,0-5.9,2.6-5.9,5.9v50.3c0,3.3,2.6,5.9,5.9,5.9
			h50.3c3.3,0,5.9-2.6,5.9-5.9v-50.3C169.7,106.9,167,104.3,163.8,104.3L163.8,104.3z"/>
	</g>
	<g class="st3">
		<path class="st5" d="M151.6,86.1l-38.1,0V48c0-7.8,6.4-14.5,14.2-14.3c7.6,0.1,13.7,6.3,13.7,14v10.5h10.5c7.6,0,13.8,6.1,14,13.7
			C166,79.7,159.4,86.1,151.6,86.1z"/>
	</g>
	<g class="st3">
		<path class="st4" d="M85,111.6C85.1,111.6,85.1,111.7,85,111.6l0.1,47.3c0,0,0,0.1-0.1,0.1H55.4h-1.4l-1.3,0.5l-14.9,6v-6.6v-47.2
			c0,0,0-0.1,0.1-0.1H85 M85,104.3H37.8c-4.1,0-7.5,3.3-7.5,7.5v47.2v17.6l25-10.1H85c4.1,0,7.5-3.3,7.5-7.5v-47.2
			C92.5,107.6,89.1,104.3,85,104.3L85,104.3z"/>
	</g>
</g>
<g class="st1">
	<path class="st7" d="M173,197.2H27c-13.4,0-24.3-10.9-24.3-24.3V27C2.8,13.6,13.6,2.8,27,2.8H173c13.4,0,24.3,10.9,24.3,24.3V173
		C197.2,186.4,186.4,197.2,173,197.2z"/>
	<g class="st3">
		<path class="st8" d="M83.1,38.3v43.5H39.7V38.3H83.1 M85,28.9H37.8c-4.1,0-7.5,3.3-7.5,7.5v47.2c0,4.1,3.3,7.5,7.5,7.5H85
			c4.1,0,7.5-3.3,7.5-7.5V36.4C92.5,32.3,89.1,28.9,85,28.9L85,28.9z"/>
		<path class="st8" d="M160.3,113.6v43.5h-43.5v-43.5H160.3 M162.2,104.3H115c-4.1,0-7.5,3.3-7.5,7.5v47.2c0,4.1,3.3,7.5,7.5,7.5
			h47.2c4.1,0,7.5-3.3,7.5-7.5v-47.2C169.7,107.6,166.3,104.3,162.2,104.3L162.2,104.3z"/>
		<path class="st8" d="M83.1,113.6v43.5H39.7v-43.5H83.1 M85,104.3H37.8c-4.1,0-7.5,3.3-7.5,7.5v47.2c0,4.1,3.3,7.5,7.5,7.5H85
			c4.1,0,7.5-3.3,7.5-7.5v-47.2C92.5,107.6,89.1,104.3,85,104.3L85,104.3z"/>
		<path class="st8" d="M160.3,38.3v43.5h-43.5V38.3H160.3 M162.2,28.9H115c-4.1,0-7.5,3.3-7.5,7.5v47.2c0,4.1,3.3,7.5,7.5,7.5h47.2
			c4.1,0,7.5-3.3,7.5-7.5V36.4C169.7,32.3,166.3,28.9,162.2,28.9L162.2,28.9z"/>
		<path class="st8" d="M134,73.7l-10-10c-1.8-1.8-1.8-4.8,0-6.6c1.8-1.8,4.8-1.8,6.6,0l3.4,3.4l12.7-12.7c1.8-1.8,4.8-1.8,6.6,0
			c1.8,1.8,1.8,4.8,0,6.6L134,73.7z"/>
		<polygon class="st8" points="59.3,146.9 37.1,146.9 37.1,137.5 52.9,137.5 57.5,126.2 73.2,126 81,108.8 89.5,112.7 79.3,135.3 
			63.8,135.4 		"/>
	</g>
</g>
<g>
	<path class="st8" d="M173,197.2H27c-13.4,0-24.3-10.9-24.3-24.3V27C2.8,13.6,13.6,2.8,27,2.8H173c13.4,0,24.3,10.9,24.3,24.3V173
		C197.2,186.4,186.4,197.2,173,197.2z"/>
	<g>
		<path class="st9" d="M83.1,38.3v43.5H39.7V38.3H83.1 M85,28.9H37.8c-4.1,0-7.5,3.3-7.5,7.5v47.2c0,4.1,3.3,7.5,7.5,7.5H85
			c4.1,0,7.5-3.3,7.5-7.5V36.4C92.5,32.3,89.1,28.9,85,28.9L85,28.9z"/>
		<path class="st9" d="M160.3,113.6v43.5h-43.5v-43.5H160.3 M162.2,104.3H115c-4.1,0-7.5,3.3-7.5,7.5v47.2c0,4.1,3.3,7.5,7.5,7.5
			h47.2c4.1,0,7.5-3.3,7.5-7.5v-47.2C169.7,107.6,166.3,104.3,162.2,104.3L162.2,104.3z"/>
		<path class="st9" d="M83.1,113.6v43.5H39.7v-43.5H83.1 M85,104.3H37.8c-4.1,0-7.5,3.3-7.5,7.5v47.2c0,4.1,3.3,7.5,7.5,7.5H85
			c4.1,0,7.5-3.3,7.5-7.5v-47.2C92.5,107.6,89.1,104.3,85,104.3L85,104.3z"/>
		<path class="st9" d="M160.3,38.3v43.5h-43.5V38.3H160.3 M162.2,28.9H115c-4.1,0-7.5,3.3-7.5,7.5v47.2c0,4.1,3.3,7.5,7.5,7.5h47.2
			c4.1,0,7.5-3.3,7.5-7.5V36.4C169.7,32.3,166.3,28.9,162.2,28.9L162.2,28.9z"/>
		<path class="st9" d="M134,73.7l-10-10c-1.8-1.8-1.8-4.8,0-6.6c1.8-1.8,4.8-1.8,6.6,0l3.4,3.4l12.7-12.7c1.8-1.8,4.8-1.8,6.6,0
			c1.8,1.8,1.8,4.8,0,6.6L134,73.7z"/>
		<polygon class="st9" points="59.3,146.9 37.1,146.9 37.1,137.5 52.9,137.5 57.5,126.2 73.2,126 81,108.8 89.5,112.7 79.3,135.3 
			63.8,135.4 		"/>
	</g>
</g>
</svg>
