<svg width="19" height="19" viewBox="0 0 19 19" fill="none" xmlns="http://www.w3.org/2000/svg">
<circle cx="9.5" cy="9.5" r="9.5" fill="white"/>
<path d="M19 9.49513C19 4.25577 14.7421 0 9.5 0C4.25795 0 0 4.25577 0 9.49513C0 14.2378 3.47847 18.1625 8.01898 18.8734V12.2317H5.59282V9.48539H8.01898V7.39159C8.01898 5.01538 9.4318 3.69093 11.5949 3.69093C12.6374 3.69093 13.7092 3.89544 13.7092 3.89544V6.21322H12.5205C11.3415 6.21322 10.9615 6.95336 10.9615 7.70323V9.48539H13.6021L13.1831 12.2317H10.9713V18.8734C15.5215 18.1625 19 14.2378 19 9.49513Z" fill="#1877F2"/>
</svg>
