<svg width="19" height="19" viewBox="0 0 19 19" fill="none" xmlns="http://www.w3.org/2000/svg">
<g clip-path="url(#clip0_3096_155)">
<path d="M6.33384 9.5C6.33384 7.75116 7.75116 6.33308 9.5 6.33308C11.2488 6.33308 12.6669 7.75116 12.6669 9.5C12.6669 11.2488 11.2488 12.6669 9.5 12.6669C7.75116 12.6669 6.33384 11.2488 6.33384 9.5ZM4.62186 9.5C4.62186 12.1942 6.8058 14.3781 9.5 14.3781C12.1942 14.3781 14.3781 12.1942 14.3781 9.5C14.3781 6.8058 12.1942 4.62186 9.5 4.62186C6.8058 4.62186 4.62186 6.8058 4.62186 9.5ZM13.4313 4.42844C13.4312 4.65391 13.4979 4.87435 13.6231 5.06187C13.7483 5.24939 13.9263 5.39558 14.1346 5.48195C14.3428 5.56832 14.5721 5.59098 14.7932 5.54708C15.0144 5.50319 15.2175 5.39469 15.377 5.23532C15.5365 5.07596 15.6452 4.87287 15.6893 4.65175C15.7333 4.43063 15.7108 4.2014 15.6246 3.99306C15.5384 3.78472 15.3924 3.60662 15.205 3.48128C15.0176 3.35594 14.7972 3.28899 14.5717 3.2889H14.5713C14.269 3.28904 13.9792 3.40913 13.7655 3.62279C13.5517 3.83646 13.4315 4.12622 13.4313 4.42844ZM5.662 17.2328C4.73579 17.1906 4.23236 17.0363 3.89781 16.906C3.45428 16.7333 3.13781 16.5276 2.80508 16.1954C2.47236 15.8631 2.2664 15.5469 2.09448 15.1034C1.96407 14.769 1.80979 14.2654 1.76768 13.3392C1.72163 12.3378 1.71243 12.037 1.71243 9.50008C1.71243 6.96312 1.72239 6.66315 1.76768 5.66094C1.80986 4.73472 1.96528 4.23214 2.09448 3.89675C2.26716 3.45321 2.47281 3.13675 2.80508 2.80402C3.13736 2.47129 3.45352 2.26533 3.89781 2.09342C4.23221 1.963 4.73579 1.80872 5.662 1.76662C6.66338 1.72056 6.96418 1.71137 9.5 1.71137C12.0358 1.71137 12.3369 1.72132 13.3391 1.76662C14.2654 1.8088 14.7679 1.96422 15.1033 2.09342C15.5469 2.26533 15.8633 2.47175 16.1961 2.80402C16.5288 3.13629 16.734 3.45321 16.9067 3.89675C17.0371 4.23115 17.1914 4.73472 17.2335 5.66094C17.2795 6.66315 17.2887 6.96312 17.2887 9.50008C17.2887 12.037 17.2795 12.337 17.2335 13.3392C17.1913 14.2654 17.0362 14.7689 16.9067 15.1034C16.734 15.5469 16.5283 15.8634 16.1961 16.1954C15.8638 16.5273 15.5469 16.7333 15.1033 16.906C14.7689 17.0364 14.2654 17.1907 13.3391 17.2328C12.3378 17.2788 12.037 17.288 9.5 17.288C6.96304 17.288 6.66307 17.2788 5.662 17.2328ZM5.58334 0.057532C4.57201 0.103588 3.88094 0.263948 3.27742 0.498788C2.6524 0.741304 2.12329 1.06666 1.59456 1.59456C1.06582 2.12245 0.741304 2.6524 0.498788 3.27742C0.263948 3.88132 0.103588 4.57201 0.057532 5.58334C0.010716 6.59627 0 6.9201 0 9.5C0 12.0799 0.010716 12.4037 0.057532 13.4167C0.103588 14.4281 0.263948 15.1187 0.498788 15.7226C0.741304 16.3472 1.0659 16.8778 1.59456 17.4054C2.12321 17.9331 2.6524 18.258 3.27742 18.5012C3.88208 18.7361 4.57201 18.8964 5.58334 18.9425C6.5968 18.9885 6.9201 19 9.5 19C12.0799 19 12.4037 18.9893 13.4167 18.9425C14.4281 18.8964 15.1187 18.7361 15.7226 18.5012C16.3472 18.258 16.8767 17.9333 17.4054 17.4054C17.9342 16.8775 18.258 16.3472 18.5012 15.7226C18.7361 15.1187 18.8972 14.428 18.9425 13.4167C18.9885 12.403 18.9992 12.0799 18.9992 9.5C18.9992 6.9201 18.9885 6.59627 18.9425 5.58334C18.8964 4.57193 18.7361 3.88094 18.5012 3.27742C18.258 2.65278 17.9333 2.12329 17.4054 1.59456C16.8775 1.06582 16.3472 0.741304 15.7233 0.498788C15.1187 0.263948 14.428 0.102828 13.4174 0.057532C12.4045 0.011476 12.0807 0 9.50076 0C6.92086 0 6.5968 0.010716 5.58334 0.057532Z" fill="url(#paint0_radial_3096_155)"/>
<path d="M6.33384 9.5C6.33384 7.75116 7.75116 6.33308 9.5 6.33308C11.2488 6.33308 12.6669 7.75116 12.6669 9.5C12.6669 11.2488 11.2488 12.6669 9.5 12.6669C7.75116 12.6669 6.33384 11.2488 6.33384 9.5ZM4.62186 9.5C4.62186 12.1942 6.8058 14.3781 9.5 14.3781C12.1942 14.3781 14.3781 12.1942 14.3781 9.5C14.3781 6.8058 12.1942 4.62186 9.5 4.62186C6.8058 4.62186 4.62186 6.8058 4.62186 9.5ZM13.4313 4.42844C13.4312 4.65391 13.4979 4.87435 13.6231 5.06187C13.7483 5.24939 13.9263 5.39558 14.1346 5.48195C14.3428 5.56832 14.5721 5.59098 14.7932 5.54708C15.0144 5.50319 15.2175 5.39469 15.377 5.23532C15.5365 5.07596 15.6452 4.87287 15.6893 4.65175C15.7333 4.43063 15.7108 4.2014 15.6246 3.99306C15.5384 3.78472 15.3924 3.60662 15.205 3.48128C15.0176 3.35594 14.7972 3.28899 14.5717 3.2889H14.5713C14.269 3.28904 13.9792 3.40913 13.7655 3.62279C13.5517 3.83646 13.4315 4.12622 13.4313 4.42844ZM5.662 17.2328C4.73579 17.1906 4.23236 17.0363 3.89781 16.906C3.45428 16.7333 3.13781 16.5276 2.80508 16.1954C2.47236 15.8631 2.2664 15.5469 2.09448 15.1034C1.96407 14.769 1.80979 14.2654 1.76768 13.3392C1.72163 12.3378 1.71243 12.037 1.71243 9.50008C1.71243 6.96312 1.72239 6.66315 1.76768 5.66094C1.80986 4.73472 1.96528 4.23214 2.09448 3.89675C2.26716 3.45321 2.47281 3.13675 2.80508 2.80402C3.13736 2.47129 3.45352 2.26533 3.89781 2.09342C4.23221 1.963 4.73579 1.80872 5.662 1.76662C6.66338 1.72056 6.96418 1.71137 9.5 1.71137C12.0358 1.71137 12.3369 1.72132 13.3391 1.76662C14.2654 1.8088 14.7679 1.96422 15.1033 2.09342C15.5469 2.26533 15.8633 2.47175 16.1961 2.80402C16.5288 3.13629 16.734 3.45321 16.9067 3.89675C17.0371 4.23115 17.1914 4.73472 17.2335 5.66094C17.2795 6.66315 17.2887 6.96312 17.2887 9.50008C17.2887 12.037 17.2795 12.337 17.2335 13.3392C17.1913 14.2654 17.0362 14.7689 16.9067 15.1034C16.734 15.5469 16.5283 15.8634 16.1961 16.1954C15.8638 16.5273 15.5469 16.7333 15.1033 16.906C14.7689 17.0364 14.2654 17.1907 13.3391 17.2328C12.3378 17.2788 12.037 17.288 9.5 17.288C6.96304 17.288 6.66307 17.2788 5.662 17.2328ZM5.58334 0.057532C4.57201 0.103588 3.88094 0.263948 3.27742 0.498788C2.6524 0.741304 2.12329 1.06666 1.59456 1.59456C1.06582 2.12245 0.741304 2.6524 0.498788 3.27742C0.263948 3.88132 0.103588 4.57201 0.057532 5.58334C0.010716 6.59627 0 6.9201 0 9.5C0 12.0799 0.010716 12.4037 0.057532 13.4167C0.103588 14.4281 0.263948 15.1187 0.498788 15.7226C0.741304 16.3472 1.0659 16.8778 1.59456 17.4054C2.12321 17.9331 2.6524 18.258 3.27742 18.5012C3.88208 18.7361 4.57201 18.8964 5.58334 18.9425C6.5968 18.9885 6.9201 19 9.5 19C12.0799 19 12.4037 18.9893 13.4167 18.9425C14.4281 18.8964 15.1187 18.7361 15.7226 18.5012C16.3472 18.258 16.8767 17.9333 17.4054 17.4054C17.9342 16.8775 18.258 16.3472 18.5012 15.7226C18.7361 15.1187 18.8972 14.428 18.9425 13.4167C18.9885 12.403 18.9992 12.0799 18.9992 9.5C18.9992 6.9201 18.9885 6.59627 18.9425 5.58334C18.8964 4.57193 18.7361 3.88094 18.5012 3.27742C18.258 2.65278 17.9333 2.12329 17.4054 1.59456C16.8775 1.06582 16.3472 0.741304 15.7233 0.498788C15.1187 0.263948 14.428 0.102828 13.4174 0.057532C12.4045 0.011476 12.0807 0 9.50076 0C6.92086 0 6.5968 0.010716 5.58334 0.057532Z" fill="url(#paint1_radial_3096_155)"/>
</g>
<defs>
<radialGradient id="paint0_radial_3096_155" cx="0" cy="0" r="1" gradientUnits="userSpaceOnUse" gradientTransform="translate(2.52426 19.0898) scale(24.8029 24.8029)">
<stop offset="0.09" stop-color="#FA8F21"/>
<stop offset="0.78" stop-color="#D82D7E"/>
</radialGradient>
<radialGradient id="paint1_radial_3096_155" cx="0" cy="0" r="1" gradientUnits="userSpaceOnUse" gradientTransform="translate(11.5227 19.941) scale(19.5481)">
<stop offset="0.64" stop-color="#8C3AAA" stop-opacity="0"/>
<stop offset="1" stop-color="#8C3AAA"/>
</radialGradient>
<clipPath id="clip0_3096_155">
<rect width="19" height="19" fill="white"/>
</clipPath>
</defs>
</svg>
