<svg width="19" height="19" viewBox="0 0 19 19" fill="none" xmlns="http://www.w3.org/2000/svg">
<g clip-path="url(#clip0_2772_27747)">
<path d="M17.5944 0H1.40143C0.6283 0 0 0.613336 0 1.36995V17.629C0 18.3856 0.6283 19 1.40143 19H17.5944C18.3691 19 19 18.3856 19 17.629V1.36995C19 0.613336 18.3691 0 17.5944 0Z" fill="#2668B2"/>
<path d="M2.81353 7.12248H5.63443V16.1895H2.81353V7.12248ZM4.22476 2.61523C4.54797 2.61536 4.86388 2.71132 5.13255 2.89097C5.40122 3.07063 5.61059 3.32591 5.73418 3.62454C5.85777 3.92318 5.89004 4.25175 5.82689 4.56872C5.76375 4.88569 5.60804 5.17682 5.37945 5.4053C5.15085 5.63378 4.85964 5.78935 4.54263 5.85234C4.22563 5.91534 3.89706 5.88292 3.59847 5.75919C3.29989 5.63546 3.0447 5.42598 2.86516 5.15723C2.68563 4.88848 2.58982 4.57254 2.58984 4.24934C2.58989 4.03469 2.63221 3.82216 2.7144 3.62387C2.79658 3.42558 2.91702 3.24542 3.06884 3.09368C3.22066 2.94193 3.40088 2.82158 3.59921 2.73949C3.79755 2.6574 4.01011 2.61518 4.22476 2.61523" fill="white"/>
<path d="M7.40625 7.12343H10.1076V8.36297H10.1462C10.522 7.65015 11.4415 6.89844 12.8125 6.89844C15.6659 6.89844 16.1932 8.77585 16.1932 11.2178V16.1905H13.3754V11.7812C13.3754 10.7297 13.3573 9.37704 11.9111 9.37704C10.4447 9.37704 10.221 10.5231 10.221 11.7059V16.1905H7.40625V7.12343Z" fill="white"/>
</g>
<defs>
<clipPath id="clip0_2772_27747">
<rect width="19" height="19" fill="white"/>
</clipPath>
</defs>
</svg>
