<svg width="19" height="19" viewBox="0 0 19 19" fill="none" xmlns="http://www.w3.org/2000/svg">
<g clip-path="url(#clip0_2772_27748)">
<path d="M9.5 19C14.7467 19 19 14.7467 19 9.5C19 4.25329 14.7467 0 9.5 0C4.25329 0 0 4.25329 0 9.5C0 14.7467 4.25329 19 9.5 19Z" fill="#1DA1F2"/>
<path d="M7.76247 14.51C11.9757 14.51 14.2795 11.0187 14.2795 7.993C14.2795 7.89325 14.2795 7.7935 14.2747 7.6985C14.7212 7.3755 15.1107 6.97175 15.4195 6.511C15.011 6.6915 14.5692 6.815 14.1037 6.872C14.5787 6.587 14.9397 6.1405 15.1107 5.60375C14.669 5.865 14.1797 6.055 13.6572 6.1595C13.2392 5.713 12.6455 5.4375 11.9852 5.4375C10.7217 5.4375 9.69573 6.4635 9.69573 7.727C9.69573 7.9075 9.71473 8.08325 9.75748 8.2495C7.85272 8.1545 6.16647 7.2425 5.03597 5.8555C4.84122 6.19275 4.72722 6.587 4.72722 7.005C4.72722 7.79825 5.13097 8.50125 5.74847 8.90975C5.37322 8.90025 5.02172 8.79575 4.71297 8.62475C4.71297 8.63425 4.71297 8.64375 4.71297 8.65325C4.71297 9.76475 5.50147 10.6862 6.55122 10.9C6.36122 10.9522 6.15697 10.9807 5.94797 10.9807C5.80072 10.9807 5.65822 10.9665 5.51572 10.938C5.80547 11.85 6.65097 12.5102 7.65322 12.5292C6.86947 13.142 5.88147 13.5077 4.80797 13.5077C4.62272 13.5077 4.44222 13.4983 4.26172 13.4745C5.26397 14.13 6.47047 14.51 7.76247 14.51Z" fill="white"/>
</g>
<defs>
<clipPath id="clip0_2772_27748">
<rect width="19" height="19" fill="white"/>
</clipPath>
</defs>
</svg>
