<svg width="19" height="19" viewBox="0 0 19 19" fill="none" xmlns="http://www.w3.org/2000/svg">
<path d="M9.50086 19C4.24275 19.0013 -0.015344 14.7221 4.15629e-05 9.46105C0.0152994 4.24373 4.2706 0.000612941 9.50504 6.61745e-08C14.7598 -0.00061542 19.0368 4.29231 18.9998 9.57186C18.9636 14.7321 14.7666 18.9978 9.50086 19ZM9.49568 13.9357C9.62284 13.9357 9.74999 13.9357 9.87714 13.9357C10.6992 13.9355 11.5208 13.9167 12.342 13.8793C12.9649 13.8516 13.588 13.8243 14.2047 13.7252C14.898 13.6137 15.3605 13.2284 15.564 12.5512C15.6373 12.3075 15.6714 12.0544 15.7001 11.8016C15.8263 10.6792 15.8597 9.54818 15.8002 8.4202C15.769 7.81273 15.7299 7.20613 15.6084 6.60847C15.464 5.8978 15.0482 5.44229 14.3352 5.27564C14.1116 5.22338 13.8823 5.20129 13.6538 5.18046C12.7638 5.09935 11.8711 5.07113 10.9781 5.0532C10.3517 5.04062 9.72508 5.03204 9.09821 5.03892C8.32277 5.04743 7.54756 5.05938 6.77279 5.09232C6.11272 5.12038 5.4523 5.14697 4.79845 5.25084C4.10529 5.36095 3.64105 5.74369 3.43612 6.42102C3.36241 6.66467 3.32796 6.91766 3.29918 7.17038C3.1726 8.29283 3.13884 9.42381 3.19825 10.5518C3.2294 11.1592 3.27135 11.7652 3.38867 12.3638C3.50143 12.939 3.8062 13.3641 4.34883 13.604C4.61073 13.7198 4.89364 13.7476 5.17364 13.7779C5.89868 13.8566 6.62715 13.8858 7.3556 13.9065C8.06873 13.9267 8.78234 13.9227 9.49568 13.9357Z" fill="#FE0101"/>
<path d="M9.49382 13.9364C8.78048 13.9233 8.06687 13.9274 7.35373 13.9071C6.62529 13.8864 5.89682 13.8572 5.17178 13.7785C4.89178 13.7482 4.60887 13.7204 4.34697 13.6046C3.80434 13.3647 3.49957 12.9396 3.38681 12.3644C3.26949 11.7659 3.22754 11.1599 3.19639 10.5524C3.13699 9.42444 3.17075 8.29346 3.29732 7.17102C3.3261 6.91829 3.36055 6.6653 3.43426 6.42165C3.63919 5.74432 4.10343 5.36158 4.79659 5.25147C5.45044 5.1476 6.11086 5.12101 6.77093 5.09295C7.54571 5.06001 8.32092 5.04806 9.09635 5.03955C9.72322 5.03267 10.3498 5.04126 10.9763 5.05384C11.8692 5.07177 12.762 5.09998 13.652 5.1811C13.8805 5.20192 14.1097 5.22401 14.3333 5.27627C15.0464 5.44292 15.4621 5.89844 15.6066 6.60911C15.7281 7.20676 15.7671 7.81337 15.7983 8.42083C15.8579 9.54881 15.8244 10.6798 15.6982 11.8023C15.6695 12.0551 15.6354 12.3082 15.5622 12.5518C15.3587 13.2291 14.8961 13.6144 14.2029 13.7258C13.5861 13.8249 12.963 13.8523 12.3401 13.88C11.5189 13.9165 10.6973 13.9353 9.87528 13.9363C9.74813 13.9364 9.62098 13.9364 9.49382 13.9364V13.9364ZM8.20856 7.61713V11.3608C9.3101 10.7353 10.4021 10.1152 11.5049 9.48896L8.20856 7.61713Z" fill="white"/>
<path d="M8.21094 7.61719L11.5073 9.48901C10.4045 10.1152 9.31248 10.7354 8.21094 11.3609V7.61719Z" fill="#FE0101"/>
</svg>
