<?xml version="1.0" encoding="UTF-8" standalone="no"?>
<svg width="177px" height="177px" viewBox="0 0 177 177" version="1.1" xmlns="http://www.w3.org/2000/svg" xmlns:xlink="http://www.w3.org/1999/xlink">
    <!-- Generator: Sketch 45.2 (43514) - http://www.bohemiancoding.com/sketch -->
    <title>Group 2</title>
    <desc>Created with Sketch.</desc>
    <defs>
        <rect id="path-1" x="0.75072429" y="0.051774713" width="26.5123463" height="126.575805"></rect>
        <rect id="path-3" x="0.164620071" y="0.850063988" width="38.0981934" height="38.0981934"></rect>
        <rect id="path-5" x="0.0241573171" y="0.289504263" width="16.5145152" height="16.5145152"></rect>
    </defs>
    <g id="Landing" stroke="none" stroke-width="1" fill="none" fill-rule="evenodd">
        <g id="Artboard-Copy" transform="translate(-207.000000, -87.000000)">
            <g id="Group-2" transform="translate(207.000000, 86.000000)">
                <g id="Group" opacity="0.15" transform="translate(148.804751, 50.749128)">
                    <g transform="translate(0.000000, 0.000000)" id="Clipped">
                        <g transform="translate(0.000000, 0.000000)">
                            <mask id="mask-2" fill="white">
                                <use xlink:href="#path-1"></use>
                            </mask>
                            <g id="SVGID_9_"></g>
                            <path d="M11.554626,0.051774713 L0.752143429,0.051774713 C9.42591821,0.051774713 16.4563306,7.0836062 16.4563306,15.757381 L16.4563306,110.921974 C16.4563306,119.595748 9.42591821,126.62758 0.752143429,126.62758 L11.554626,126.62758 C20.2284008,126.62758 27.2602323,119.595748 27.2602323,110.921974 L27.2602323,15.757381 C27.2602323,7.0836062 20.2284008,0.051774713 11.554626,0.051774713" id="Shape" fill="#FFFFFF" fill-rule="nonzero" mask="url(#mask-2)"></path>
                        </g>
                    </g>
                </g>
                <rect id="Rectangle" stroke="#FFFFFF" stroke-width="2" x="1.8702439" y="51.7491278" width="173" height="124" rx="15"></rect>
                <path d="M123.976923,115.685336 C124.5091,105.142556 139.854245,105.097143 140.38926,115.685336 C140.480085,117.503252 143.318362,117.514605 143.227537,115.685336 C142.925261,109.712182 138.413819,104.613217 132.183801,104.6416 C125.949525,104.668563 121.442341,109.671027 121.138646,115.685336 C121.047821,117.511767 123.886098,117.506091 123.976923,115.685336" id="Shape" fill="#FFFFFF" fill-rule="nonzero"></path>
                <path d="M33.9283246,115.685336 C34.4605015,105.142556 49.8056466,105.097143 50.3406619,115.685336 C50.4314867,117.503252 53.2697638,117.514605 53.1789389,115.685336 C52.8766624,109.712182 48.365221,104.613217 42.1352028,104.6416 C35.9009272,104.668563 31.3937431,109.671027 31.0900475,115.685336 C30.9992226,117.511767 33.8374997,117.506091 33.9283246,115.685336" id="Shape" fill="#FFFFFF" fill-rule="nonzero"></path>
                <g id="Group" opacity="0.15" transform="translate(69.332993, 5.676554)">
                    <g id="Clipped">
                        <g>
                            <mask id="mask-4" fill="white">
                                <use xlink:href="#path-3"></use>
                            </mask>
                            <g id="SVGID_11_"></g>
                            <path d="M38.2613943,19.8991607 C38.2613943,30.4192347 29.7323716,38.9482574 19.2122976,38.9482574 C8.69222359,38.9482574 0.163200933,30.4192347 0.163200933,19.8991607 C0.163200933,9.37908664 8.69222359,0.850063988 19.2122976,0.850063988 C29.7323716,0.850063988 38.2613943,9.37908664 38.2613943,19.8991607" id="Shape" fill="#D24F58" fill-rule="nonzero" mask="url(#mask-4)"></path>
                        </g>
                    </g>
                </g>
                <path d="M96.5336215,138.287955 C91.8589791,142.965436 84.9151342,143.152762 80.0304593,138.665446 C78.6865351,137.430796 76.6741967,139.4332 78.0237974,140.672108 C84.0381066,146.196815 92.7501981,146.08896 98.5402834,140.294617 C99.8345377,139.000363 97.8278758,136.993701 96.5336215,138.287955" id="Shape" fill="#FFFFFF" fill-rule="nonzero"></path>
                <path d="M88.2586246,49.7961524 L88.2586246,33.01342" id="Shape" stroke="#FFFFFF" stroke-width="2"></path>
                <g id="Group" opacity="0.5" transform="translate(80.264585, 17.029663)">
                    <g id="Clipped">
                        <g>
                            <mask id="mask-6" fill="white">
                                <use xlink:href="#path-5"></use>
                            </mask>
                            <g id="SVGID_13_"></g>
                            <path d="M8.28212451,16.8026004 C3.72101323,16.8026004 0.0255764557,13.1057445 0.0255764557,8.54605232 C0.0255764557,3.98636017 3.72101323,0.288085125 8.28212451,0.288085125 C12.8432358,0.288085125 16.5386726,3.98636017 16.5386726,8.54605232 C16.5386726,13.1057445 12.8432358,16.8026004 8.28212451,16.8026004 Z" id="Shape" fill="#FFFFFF" fill-rule="nonzero" mask="url(#mask-6)"></path>
                        </g>
                    </g>
                </g>
                <circle id="Oval" stroke="#FFFFFF" stroke-width="2" cx="88.5467098" cy="25.5757148" r="8.25654805"></circle>
                <path d="M87.3702439,2.36428482 L87.3702439,9.00727234 C87.3702439,10.8337036 90.208521,10.8365419 90.208521,9.00727234 L90.208521,2.36428482 C90.208521,0.537853508 87.3702439,0.535015231 87.3702439,2.36428482" id="Shape" fill="#E56069" fill-rule="nonzero"></path>
                <path d="M98.4352671,10.5598099 C97.9641131,11.1728778 98.3458614,12.1435685 98.9447379,12.5026106 C99.6727559,12.9382861 100.422061,12.5976929 100.886119,11.9931398 L104.936341,6.72813584 C105.407495,6.11506799 105.025747,5.14437722 104.428289,4.78533517 C103.700271,4.34965964 102.950966,4.69025289 102.485489,5.29480591 L98.4352671,10.5598099 Z" id="Shape" fill="#E56069" fill-rule="nonzero"></path>
                <path d="M73.0525551,6.72813584 L77.1027765,11.9931398 C77.5739305,12.6062077 78.3175591,12.9155799 79.0441581,12.5026106 C79.6458728,12.1605982 80.0205254,11.1672012 79.5536288,10.561229 C78.204028,8.80575467 76.8530081,7.05028029 75.5034074,5.29480591 C75.0336725,4.6831572 74.2886248,4.37236586 73.5620259,4.78533517 C72.958892,5.1287667 72.5856585,6.12074454 73.0525551,6.72813584" id="Shape" fill="#E56069" fill-rule="nonzero"></path>
                <path d="M161.04766,59.789726 C164.721809,59.6733567 166.840583,62.3597859 166.481541,65.9175663 C166.298472,67.7326445 169.138169,67.7198722 169.319818,65.9175663 C169.830708,60.8455651 166.149463,56.7910863 161.04766,56.9514489 C159.225486,57.0096336 159.216971,59.8479107 161.04766,59.789726" id="Shape" fill="#FFFFFF" fill-rule="nonzero"></path>
            </g>
        </g>
    </g>
</svg>