<svg width="42" height="45" viewBox="0 0 42 45" fill="none" xmlns="http://www.w3.org/2000/svg">
<path d="M35.7626 12.9885L35.6091 12.8269C34.8196 11.9962 34.5961 10.9157 35.1106 10.4264L37.3049 8.35932C38.0978 7.60651 39.3926 7.66953 40.1821 8.50141L40.3356 8.66297C41.1251 9.4937 41.1217 10.7908 40.3276 11.5436L38.1333 13.6107C37.6189 14.0999 36.5521 13.8192 35.7626 12.9885Z" stroke="#461048" stroke-width="2" stroke-miterlimit="10"/>
<path d="M16.9526 43.1193C16.9526 43.1193 18.2841 41.7455 19.25 40.8334C26.722 41.3811 29.5041 36.2054 30.25 35.3334" stroke="#461048" stroke-width="2" stroke-miterlimit="10" stroke-linejoin="round"/>
<path d="M36.3321 30.145L36.1774 30.0121C35.3856 29.3292 35.0911 28.361 35.522 27.8614L37.361 25.7462C38.0256 24.9762 39.2173 24.9051 40.0091 25.5881L40.1637 25.721C40.9555 26.4039 41.0598 27.5933 40.3952 28.3633L38.5561 30.4785C38.1242 30.9781 37.1239 30.8291 36.3321 30.145Z" stroke="#461048" stroke-width="2" stroke-miterlimit="10"/>
<path d="M17.4167 37.1667C19.407 31.481 17.4602 26.3763 15.6601 24.103C16.4141 21.832 16.7246 20.2106 16.9767 17.5397C17.121 16.0043 16.4702 14.6877 15.7907 13.7355C15.0963 12.7627 13.4017 12.9861 13.0613 14.0747C11.5626 18.8711 11.2819 20.1762 10.3549 22.5859C9.31791 25.2809 9.9126 29.061 9.39697 30.1668C9.2927 30.3879 7.33333 33.5 7.33333 33.5" stroke="#461048" stroke-width="2" stroke-miterlimit="10" stroke-linecap="round" stroke-linejoin="round"/>
<path d="M36.3458 24.3826L36.1888 24.2474C35.3833 23.553 35.0831 22.5676 35.522 22.0588L37.392 19.907C38.068 19.1232 39.2803 19.051 40.0858 19.7454L40.2428 19.8806C41.0483 20.575 41.1549 21.785 40.4788 22.5687L38.6077 24.7206C38.17 25.2305 37.1514 25.0781 36.3458 24.3826Z" stroke="#461048" stroke-width="2" stroke-miterlimit="10"/>
<path d="M36.3458 18.7646L36.1888 18.6294C35.3833 17.935 35.0831 16.9496 35.522 16.4409L37.3931 14.289C38.0692 13.5052 39.2815 13.4331 40.087 14.1286L40.244 14.2638C41.0495 14.9582 41.1549 16.1682 40.4788 16.9519L38.6077 19.1038C38.17 19.6125 37.1514 19.4601 36.3458 18.7646Z" stroke="#461048" stroke-width="2" stroke-miterlimit="10"/>
<path d="M25.6667 32.5834H27.5" stroke="#461048" stroke-width="2" stroke-miterlimit="10" stroke-linecap="round"/>
<path d="M36.6667 8.95971V3.25002C36.6667 2.2371 35.8462 1.41669 34.8333 1.41669H16.5C15.4871 1.41669 14.6667 2.2371 14.6667 3.25002V13.1191" stroke="#461048" stroke-width="2" stroke-miterlimit="10"/>
<path d="M17.9311 35.3334H34.8333C35.8462 35.3334 36.6667 34.513 36.6667 33.5V30.3948" stroke="#461048" stroke-width="2" stroke-miterlimit="10"/>
<path d="M17.4167 43.5834L5.5 31.6667L0.916664 36.25L8.25 43.5834" stroke="#461048" stroke-width="2" stroke-miterlimit="10" stroke-linecap="round" stroke-linejoin="round"/>
<path d="M5.5 36.25L6.41667 37.1667" stroke="#461048" stroke-width="2" stroke-miterlimit="10" stroke-linecap="round"/>
<path d="M25.6667 6.87885C27.1849 6.87885 28.4167 8.03499 28.4167 9.46041V10.7518C28.4167 12.1783 27.1849 13.3333 25.6667 13.3333C24.1484 13.3333 22.9167 12.1772 22.9167 10.7518V9.46041C22.9167 8.03385 24.1484 6.87885 25.6667 6.87885Z" stroke="#461048" stroke-width="2" stroke-miterlimit="10" stroke-linecap="round" stroke-linejoin="round"/>
<path d="M21.0833 17V16.0833C21.0833 14.6568 23.1355 13.3333 25.6667 13.3333C28.1978 13.3333 30.25 14.6568 30.25 16.0833V17" stroke="#461048" stroke-width="2" stroke-miterlimit="10" stroke-linecap="round" stroke-linejoin="round"/>
<path d="M21.0833 21.5833H30.25" stroke="#461048" stroke-width="2" stroke-miterlimit="10" stroke-linecap="round" stroke-linejoin="round"/>
<path d="M21.0833 25.25H27.5" stroke="#461048" stroke-width="2" stroke-miterlimit="10" stroke-linecap="round" stroke-linejoin="round"/>
</svg>
