<?xml version="1.0" encoding="UTF-8" standalone="no"?>
<svg width="396px" height="364px" viewBox="0 0 396 364" version="1.1" xmlns="http://www.w3.org/2000/svg" xmlns:xlink="http://www.w3.org/1999/xlink">
    <!-- Generator: Sketch 45.2 (43514) - http://www.bohemiancoding.com/sketch -->
    <title>Group 4</title>
    <desc>Created with Sketch.</desc>
    <defs>
        <rect id="path-1" x="0.241253553" y="0.519404707" width="9.20027518" height="34.2878064"></rect>
        <rect id="path-3" x="0.898314699" y="0.439763079" width="9.18040724" height="147.602036"></rect>
        <rect id="path-5" x="0.106435391" y="0.0255764557" width="20.6640763" height="60.0508475"></rect>
        <rect id="path-7" x="0.0390024661" y="0.335129693" width="9.71826075" height="138.159378"></rect>
        <rect id="path-9" x="0.75072429" y="0.051774713" width="26.5123463" height="126.575805"></rect>
        <rect id="path-11" x="0.164620071" y="0.850063988" width="38.0981934" height="38.0981934"></rect>
        <rect id="path-13" x="0.0241573171" y="0.289504263" width="16.5145152" height="16.5145152"></rect>
        <rect id="path-15" x="0.447028642" y="0.19085029" width="39.0816564" height="10.1326492"></rect>
        <rect id="path-17" x="0.447028642" y="0.0496698491" width="39.0816564" height="10.1312301"></rect>
        <rect id="path-19" x="0.970690764" y="0.6627377" width="9.60189139" height="34.2878064"></rect>
    </defs>
    <g id="Landing" stroke="none" stroke-width="1" fill="none" fill-rule="evenodd">
        <g id="Artboard" transform="translate(-125.000000, -91.000000)">
            <g id="Group-4" transform="translate(126.000000, 90.000000)">
                <g id="Group-3">
                    <g id="Group" opacity="0.15" transform="translate(12.772247, 173.171270)">
                        <g id="Clipped">
                            <g>
                                <mask id="mask-2" fill="white">
                                    <use xlink:href="#path-1"></use>
                                </mask>
                                <g id="SVGID_15_"></g>
                                <rect id="Rectangle-path" fill="#FFFFFF" fill-rule="nonzero" mask="url(#mask-2)" x="0.241253553" y="0.517985569" width="9.20027518" height="34.2892255"></rect>
                            </g>
                        </g>
                    </g>
                    <rect id="Rectangle-path" stroke="#FFFFFF" stroke-width="2" x="0.92669747" y="173.689256" width="21.2870782" height="34.2892255"></rect>
                    <g id="Group" opacity="0.05" transform="translate(120.626776, 177.088826)">
                        <g transform="translate(0.000000, 0.000000)" id="Clipped">
                            <g transform="translate(0.000000, 0.000000)">
                                <mask id="mask-4" fill="white">
                                    <use xlink:href="#path-3"></use>
                                </mask>
                                <g id="SVGID_3_"></g>
                                <polyline id="Shape" fill="#FFFFFF" fill-rule="nonzero" mask="url(#mask-4)" points="10.0787219 148.041799 10.0787219 0.439763079 0.898314699 0.439763079 0.898314699 147.907623"></polyline>
                            </g>
                        </g>
                    </g>
                    <g id="Group" opacity="0.15" transform="translate(112.000000, 160.000000)" fill-rule="nonzero" fill="#FFFFFF">
                        <g transform="translate(0.000000, -0.000000)" id="Shape">
                            <path d="M0.0610229574,14.9733627 C0.0581846803,15.4289062 0.0596038189,15.9071559 0.273893739,16.3101913 C0.871351066,17.4284724 2.48491159,17.2141825 3.75220231,17.2439844 C5.36292456,17.2823012 6.87288797,17.9762599 8.41691071,18.4374799 C11.6525466,19.4039133 15.1862016,19.3457286 18.3877781,18.2756981 C18.9341465,17.5420035 18.3154021,16.5287386 17.7136873,15.8390373 C13.2916516,10.7670361 8.59288389,5.85255932 3.54784636,1.39362601 C-0.0752143429,-1.80795054 0.14617127,1.17933609 0.123465053,4.70731451 C0.105016252,8.12885754 0.0823100356,11.5504006 0.0610229574,14.9733627"></path>
                        </g>
                    </g>
                    <g id="Group-Copy" opacity="0.15" transform="translate(364.000000, 123.000000)" fill-rule="nonzero" fill="#FFFFFF">
                        <g id="Group" transform="translate(0.000000, -0.000000)">
                            <path d="M0.0610229574,14.9733627 C0.0581846803,15.4289062 0.0596038189,15.9071559 0.273893739,16.3101913 C0.871351066,17.4284724 2.48491159,17.2141825 3.75220231,17.2439844 C5.36292456,17.2823012 6.87288797,17.9762599 8.41691071,18.4374799 C11.6525466,19.4039133 15.1862016,19.3457286 18.3877781,18.2756981 C18.9341465,17.5420035 18.3154021,16.5287386 17.7136873,15.8390373 C13.2916516,10.7670361 8.59288389,5.85255932 3.54784636,1.39362601 C-0.0752143429,-1.80795054 0.14617127,1.17933609 0.123465053,4.70731451 C0.105016252,8.12885754 0.0823100356,11.5504006 0.0610229574,14.9733627" id="Shape"></path>
                        </g>
                    </g>
                    <g id="Group" opacity="0.15" transform="translate(204.355950, 198.257880)">
                        <g transform="translate(0.000000, 0.000000)" id="Clipped">
                            <g transform="translate(0.000000, 0.000000)">
                                <mask id="mask-6" fill="white">
                                    <use xlink:href="#path-5"></use>
                                </mask>
                                <g id="SVGID_5_"></g>
                                <path d="M20.7690926,60.0778431 L20.7690926,10.971392 C20.7690926,4.92586185 15.8688072,0.0255764557 9.82327701,0.0255764557 L0.103597114,0.0255764557 C6.15054645,0.0255764557 11.0508318,4.92586185 11.0508318,10.971392 L11.0508318,60.0778431 L20.7690926,60.0778431 Z" id="Shape" fill="#FFFFFF" fill-rule="nonzero" mask="url(#mask-6)"></path>
                            </g>
                        </g>
                    </g>
                    <g id="Group" opacity="0.15" transform="translate(215.125043, 257.663086)">
                        <g transform="translate(0.000000, 0.000000)" id="Clipped">
                            <g transform="translate(0.000000, 0.000000)">
                                <mask id="mask-8" fill="white">
                                    <use xlink:href="#path-7"></use>
                                </mask>
                                <g id="SVGID_7_"></g>
                                <rect id="Rectangle-path" fill="#FFFFFF" fill-rule="nonzero" mask="url(#mask-8)" x="0.0390024661" y="0.339050109" width="9.71967989" height="138.155457"></rect>
                            </g>
                        </g>
                    </g>
                    <g id="Group" opacity="0.15" transform="translate(222.804751, 50.749128)">
                        <g transform="translate(0.000000, 0.000000)" id="Clipped">
                            <g transform="translate(0.000000, 0.000000)">
                                <mask id="mask-10" fill="white">
                                    <use xlink:href="#path-9"></use>
                                </mask>
                                <g id="SVGID_9_"></g>
                                <path d="M11.554626,0.051774713 L0.752143429,0.051774713 C9.42591821,0.051774713 16.4563306,7.0836062 16.4563306,15.757381 L16.4563306,110.921974 C16.4563306,119.595748 9.42591821,126.62758 0.752143429,126.62758 L11.554626,126.62758 C20.2284008,126.62758 27.2602323,119.595748 27.2602323,110.921974 L27.2602323,15.757381 C27.2602323,7.0836062 20.2284008,0.051774713 11.554626,0.051774713" id="Shape" fill="#FFFFFF" fill-rule="nonzero" mask="url(#mask-10)"></path>
                            </g>
                        </g>
                    </g>
                    <path d="M75.5960911,157.032334 L75.5960911,66.5065088 C75.5960911,62.1696214 77.3529846,58.242865 80.1955192,55.4003305 C83.0380537,52.5592151 86.96481,50.8009025 91.3016974,50.8009025 L234.359378,50.8009025 C238.697684,50.8009025 242.623021,52.5592151 245.465556,55.4003305 C248.30809,58.242865 250.064984,62.1696214 250.064984,66.5065088 C250.064984,102.612991 250.064984,129.610821 250.064984,147.5 C250.064984,150.758509 250.064984,155.482209 250.064984,161.671101 C250.064984,165.918583 248.379047,169.772963 245.64011,172.598468 C242.784803,175.546019 238.785671,177.376708 234.359378,177.376708 L130.184674,177.376708" id="Shape" stroke="#FFFFFF" stroke-width="2"></path>
                    <path d="M225.125043,398.335723 C225.125043,333.221235 225.125043,284.385369 225.125043,251.828125 C225.125043,242.361713 225.125043,228.162096 225.125043,209.229272 C225.125043,206.206507 223.900326,203.468989 221.919209,201.489291 C219.938092,199.509592 217.201993,198.283457 214.179227,198.283457 L130.183255,198.283457" id="Shape" stroke="#FFFFFF" stroke-width="2"></path>
                    <path d="M197.976923,115.685336 C198.5091,105.142556 213.854245,105.097143 214.38926,115.685336 C214.480085,117.503252 217.318362,117.514605 217.227537,115.685336 C216.925261,109.712182 212.413819,104.613217 206.183801,104.6416 C199.949525,104.668563 195.442341,109.671027 195.138646,115.685336 C195.047821,117.511767 197.886098,117.506091 197.976923,115.685336" id="Shape" fill="#FFFFFF" fill-rule="nonzero"></path>
                    <path d="M107.928325,115.685336 C108.460502,105.142556 123.805647,105.097143 124.340662,115.685336 C124.431487,117.503252 127.269764,117.514605 127.178939,115.685336 C126.876662,109.712182 122.365221,104.613217 116.135203,104.6416 C109.900927,104.668563 105.393743,109.671027 105.090048,115.685336 C104.999223,117.511767 107.8375,117.506091 107.928325,115.685336" id="Shape" fill="#FFFFFF" fill-rule="nonzero"></path>
                    <g id="Group" opacity="0.15" transform="translate(143.332993, 5.676554)">
                        <g id="Clipped">
                            <g>
                                <mask id="mask-12" fill="white">
                                    <use xlink:href="#path-11"></use>
                                </mask>
                                <g id="SVGID_11_"></g>
                                <path d="M38.2613943,19.8991607 C38.2613943,30.4192347 29.7323716,38.9482574 19.2122976,38.9482574 C8.69222359,38.9482574 0.163200933,30.4192347 0.163200933,19.8991607 C0.163200933,9.37908664 8.69222359,0.850063988 19.2122976,0.850063988 C29.7323716,0.850063988 38.2613943,9.37908664 38.2613943,19.8991607" id="Shape" fill="#D24F58" fill-rule="nonzero" mask="url(#mask-12)"></path>
                            </g>
                        </g>
                    </g>
                    <path d="M170.533621,138.287955 C165.858979,142.965436 158.915134,143.152762 154.030459,138.665446 C152.686535,137.430796 150.674197,139.4332 152.023797,140.672108 C158.038107,146.196815 166.750198,146.08896 172.540283,140.294617 C173.834538,139.000363 171.827876,136.993701 170.533621,138.287955" id="Shape" fill="#FFFFFF" fill-rule="nonzero"></path>
                    <path d="M162.258625,49.7961524 L162.258625,33.01342" id="Shape" stroke="#FFFFFF" stroke-width="2"></path>
                    <g id="Group" opacity="0.5" transform="translate(154.264585, 17.029663)">
                        <g id="Clipped">
                            <g>
                                <mask id="mask-14" fill="white">
                                    <use xlink:href="#path-13"></use>
                                </mask>
                                <g id="SVGID_13_"></g>
                                <path d="M8.28212451,16.8026004 C3.72101323,16.8026004 0.0255764557,13.1057445 0.0255764557,8.54605232 C0.0255764557,3.98636017 3.72101323,0.288085125 8.28212451,0.288085125 C12.8432358,0.288085125 16.5386726,3.98636017 16.5386726,8.54605232 C16.5386726,13.1057445 12.8432358,16.8026004 8.28212451,16.8026004 Z" id="Shape" fill="#FFFFFF" fill-rule="nonzero" mask="url(#mask-14)"></path>
                            </g>
                        </g>
                    </g>
                    <circle id="Oval" stroke="#FFFFFF" stroke-width="2" cx="162.54671" cy="25.5757148" r="8.25654805"></circle>
                    <polyline id="Shape" stroke="#E56069" stroke-width="2" points="130.705498 274.780877 130.705498 325.663383 10.0645306 325.663383 10.0645306 208.252375"></polyline>
                    <polyline id="Shape" stroke="#E56069" stroke-width="2" points="10.0645306 173.449421 10.0645306 158.108534 111.92178 158.108534 111.92178 177.381854 130.705498 177.381854 130.705498 275.733832"></polyline>
                    <path d="M112,158 L130.785137,177.273321" id="Shape" stroke="#E56069" stroke-width="2"></path>
                    <path d="M363,120 L381.785137,139.273321" id="Shape-Copy" stroke="#FF7E20" stroke-width="2"></path>
                    <path d="M161.370244,2.36428482 L161.370244,9.00727234 C161.370244,10.8337036 164.208521,10.8365419 164.208521,9.00727234 L164.208521,2.36428482 C164.208521,0.537853508 161.370244,0.535015231 161.370244,2.36428482" id="Shape" fill="#E56069" fill-rule="nonzero"></path>
                    <path d="M172.435267,10.5598099 C171.964113,11.1728778 172.345861,12.1435685 172.944738,12.5026106 C173.672756,12.9382861 174.422061,12.5976929 174.886119,11.9931398 L178.936341,6.72813584 C179.407495,6.11506799 179.025747,5.14437722 178.428289,4.78533517 C177.700271,4.34965964 176.950966,4.69025289 176.485489,5.29480591 L172.435267,10.5598099 Z" id="Shape" fill="#E56069" fill-rule="nonzero"></path>
                    <path d="M147.052555,6.72813584 L151.102777,11.9931398 C151.573931,12.6062077 152.317559,12.9155799 153.044158,12.5026106 C153.645873,12.1605982 154.020525,11.1672012 153.553629,10.561229 C152.204028,8.80575467 150.853008,7.05028029 149.503407,5.29480591 C149.033673,4.6831572 148.288625,4.37236586 147.562026,4.78533517 C146.958892,5.1287667 146.585659,6.12074454 147.052555,6.72813584" id="Shape" fill="#E56069" fill-rule="nonzero"></path>
                    <path d="M235.04766,59.789726 C238.721809,59.6733567 240.840583,62.3597859 240.481541,65.9175663 C240.298472,67.7326445 243.138169,67.7198722 243.319818,65.9175663 C243.830708,60.8455651 240.149463,56.7910863 235.04766,56.9514489 C233.225486,57.0096336 233.216971,59.8479107 235.04766,59.789726" id="Shape" fill="#FFFFFF" fill-rule="nonzero"></path>
                    <path d="M100.198277,211.083321 L44.128113,211.083321 L36.1539736,211.083321 C34.3275423,211.083321 34.324704,213.921598 36.1539736,213.921598 L92.2241375,213.921598 L100.198277,213.921598 C102.024708,213.921598 102.027547,211.083321 100.198277,211.083321" id="Shape" fill="#E56069" fill-rule="nonzero"></path>
                    <path d="M50.5,228.073247 L44.128113,228.073247 L36.1539736,228.073247 C34.3275423,228.073247 34.324704,230.911525 36.1539736,230.911525 L92.2241375,230.911525 L100.198277,230.911525 C102.024708,230.911525 102.027547,228.073247 100.198277,228.073247 L50.5,228.073247 Z" id="Shape" fill="#E56069" fill-rule="nonzero"></path>
                    <path d="M100.198277,245.066012 L44.128113,245.066012 L36.1539736,245.066012 C34.3275423,245.066012 34.324704,247.904289 36.1539736,247.904289 L92.2241375,247.904289 L100.198277,247.904289 C102.024708,247.904289 102.027547,245.066012 100.198277,245.066012" id="Shape" fill="#E56069" fill-rule="nonzero"></path>
                    <path d="M100.198277,262.057358 L44.128113,262.057358 L36.1539736,262.057358 C34.3275423,262.057358 34.324704,264.895635 36.1539736,264.895635 L92.2241375,264.895635 L100.198277,264.895635 C102.024708,264.895635 102.027547,262.057358 100.198277,262.057358" id="Shape" fill="#E56069" fill-rule="nonzero"></path>
                    <path d="M38.4373675,281.178456 L38.4373675,307.693641 C38.4373675,309.520072 41.2756446,309.52291 41.2756446,307.693641 L41.2756446,281.178456 C41.2756446,279.350606 38.4373675,279.349186 38.4373675,281.178456" id="Shape" fill="#E56069" fill-rule="nonzero"></path>
                    <g id="Group" opacity="0.15" transform="translate(143.332993, 177.052458)">
                        <g transform="translate(0.000000, -0.000000)" id="Clipped">
                            <g transform="translate(0.000000, -0.000000)">
                                <mask id="mask-16" fill="white">
                                    <use xlink:href="#path-15"></use>
                                </mask>
                                <g id="SVGID_19_"></g>
                                <path d="M35.5366483,10.3234995 L4.44048451,10.3234995 C2.23514321,10.3234995 0.44844778,8.53538493 0.44844778,6.33146277 L0.44844778,4.18430615 C0.44844778,1.97896486 2.23656235,0.192269429 4.44048451,0.192269429 L35.5366483,0.192269429 C37.7419896,0.192269429 39.528685,1.980384 39.528685,4.18430615 L39.528685,6.33146277 C39.5272659,8.53538493 37.7405705,10.3234995 35.5366483,10.3234995" id="Shape" fill="#FFFFFF" fill-rule="nonzero" mask="url(#mask-16)"></path>
                            </g>
                        </g>
                    </g>
                    <g id="Group" opacity="0.15" transform="translate(143.332993, 187.326288)">
                        <g id="Clipped">
                            <g>
                                <mask id="mask-18" fill="white">
                                    <use xlink:href="#path-17"></use>
                                </mask>
                                <g id="SVGID_21_"></g>
                                <path d="M4.44048451,10.1823191 C2.23514321,10.1823191 0.44844778,8.39420449 0.44844778,6.19028233 L0.44844778,4.04170657 C0.44844778,1.83636528 2.23656235,0.0496698491 4.44048451,0.0496698491 L35.5366483,0.0496698491 C37.7419896,0.0496698491 39.528685,1.83778442 39.528685,4.04170657 L39.528685,6.19028233 C39.5272659,8.39420449 37.7405705,10.1823191 35.5366483,10.1823191 L4.44048451,10.1823191 Z" id="Shape" fill="#FFFFFF" fill-rule="nonzero" mask="url(#mask-18)"></path>
                            </g>
                        </g>
                    </g>
                    <path d="M178.869641,187.375958 L147.773478,187.375958 C145.568136,187.375958 143.781441,185.587843 143.781441,183.383921 L143.781441,181.236764 C143.781441,179.031423 145.569555,177.244728 147.773478,177.244728 L178.869641,177.244728 C181.074983,177.244728 182.861678,179.032842 182.861678,181.236764 L182.861678,183.383921 C182.860259,185.587843 181.073563,187.375958 178.869641,187.375958 Z" id="Shape" stroke="#FFFFFF" stroke-width="2"></path>
                    <path d="M178.869641,197.508607 L147.773478,197.508607 C145.568136,197.508607 143.781441,195.720492 143.781441,193.51657 L143.781441,191.367994 C143.781441,189.162653 145.569555,187.375958 147.773478,187.375958 L178.869641,187.375958 C181.074983,187.375958 182.861678,189.164072 182.861678,191.367994 L182.861678,193.51657 C182.860259,195.720492 181.073563,197.508607 178.869641,197.508607 Z" id="Shape" stroke="#FFFFFF" stroke-width="2"></path>
                    <path d="M93.7308879,290.370888 L93.7308879,307.783718 C93.7308879,309.610149 96.569165,309.612988 96.569165,307.783718 L96.569165,290.370888 C96.569165,288.544457 93.7308879,288.541618 93.7308879,290.370888" id="Shape" fill="#E56069" fill-rule="nonzero"></path>
                    <path d="M80.0990177,281.178456 L80.0990177,307.693641 C80.0990177,309.520072 82.9372948,309.52291 82.9372948,307.693641 L82.9372948,281.178456 C82.9372948,279.350606 80.0990177,279.349186 80.0990177,281.178456" id="Shape" fill="#E56069" fill-rule="nonzero"></path>
                    <path d="M66.2127471,289.268965 L66.2127471,307.692221 C66.2127471,309.518653 69.0510242,309.520072 69.0510242,307.692221 L69.0510242,289.268965 C69.0510242,287.442534 66.2127471,287.439695 66.2127471,289.268965" id="Shape" fill="#E56069" fill-rule="nonzero"></path>
                    <path d="M52.3250573,296.349047 L52.3250573,307.692221 C52.3250573,309.518653 55.1633344,309.521491 55.1633344,307.692221 L55.1633344,296.349047 C55.1633344,294.522616 52.3250573,294.519777 52.3250573,296.349047" id="Shape" fill="#E56069" fill-rule="nonzero"></path>
                    <path d="M233.214133,239.410092 L225.252765,239.410092 L225.252765,208.661617 L233.214133,208.661617 C235.812575,208.661617 237.918577,210.767618 237.918577,213.366061 L237.918577,234.705647 C237.919996,237.30409 235.813995,239.410092 233.214133,239.410092 Z" id="Shape" stroke="#FFFFFF" stroke-width="2"></path>
                    <path d="M41.432,195 L39.496,191.688 C39.4106662,191.698667 39.2773342,191.704 39.096,191.704 L36.568,191.704 L36.568,195 L34.424,195 L34.424,183.8 L39.096,183.8 C40.5466739,183.8 41.6666627,184.135997 42.456,184.808 C43.2453373,185.480003 43.64,186.429327 43.64,187.656 C43.64,188.530671 43.4506686,189.27733 43.072,189.896 C42.6933314,190.51467 42.141337,190.978665 41.416,191.288 L43.88,195 L41.432,195 Z M36.568,189.816 L39.096,189.816 C39.9066707,189.816 40.5253312,189.640002 40.952,189.288 C41.3786688,188.935998 41.592,188.413337 41.592,187.72 C41.592,187.03733 41.3786688,186.525335 40.952,186.184 C40.5253312,185.842665 39.9066707,185.672 39.096,185.672 L36.568,185.672 L36.568,189.816 Z M45.992,183.8 L54.2,183.8 L54.2,185.672 L48.136,185.672 L48.136,188.44 L53.576,188.44 L53.576,190.312 L48.136,190.312 L48.136,193.128 L54.392,193.128 L54.392,195 L45.992,195 L45.992,183.8 Z M61.84,185.864 C61.2373303,185.671999 60.706669,185.576 60.248,185.576 C59.7359974,185.576 59.3306682,185.671999 59.032,185.864 C58.7333318,186.056001 58.584,186.322665 58.584,186.664 C58.584,186.973335 58.687999,187.231999 58.896,187.44 C59.104001,187.648001 59.3653318,187.818666 59.68,187.952 C59.9946682,188.085334 60.4239973,188.231999 60.968,188.392 C61.7253371,188.616001 62.3466642,188.839999 62.832,189.064 C63.3173358,189.288001 63.730665,189.618664 64.072,190.056 C64.413335,190.493336 64.584,191.06933 64.584,191.784 C64.584,192.46667 64.4000018,193.061331 64.032,193.568 C63.6639982,194.074669 63.1573366,194.461332 62.512,194.728 C61.8666634,194.994668 61.1280042,195.128 60.296,195.128 C59.421329,195.128 58.5680042,194.965335 57.736,194.64 C56.9039958,194.314665 56.1786698,193.880003 55.56,193.336 L56.456,191.512 C57.0213362,192.034669 57.6559965,192.445332 58.36,192.744 C59.0640035,193.042668 59.719997,193.192 60.328,193.192 C60.9253363,193.192 61.394665,193.077334 61.736,192.848 C62.077335,192.618666 62.248,192.306669 62.248,191.912 C62.248,191.591998 62.144001,191.328001 61.936,191.12 C61.727999,190.911999 61.4640016,190.744001 61.144,190.616 C60.8239984,190.487999 60.3866694,190.344001 59.832,190.184 C59.0746629,189.959999 58.4560024,189.741334 57.976,189.528 C57.4959976,189.314666 57.085335,188.992002 56.744,188.56 C56.402665,188.127998 56.232,187.560004 56.232,186.856 C56.232,186.20533 56.4053316,185.637336 56.752,185.152 C57.0986684,184.666664 57.5893302,184.290668 58.224,184.024 C58.8586698,183.757332 59.5919958,183.624 60.424,183.624 C61.149337,183.624 61.8666631,183.730666 62.576,183.944 C63.2853369,184.157334 63.9173306,184.445332 64.472,184.808 L63.608,186.68 C63.0319971,186.327998 62.4426697,186.056001 61.84,185.864 Z M69.304,192.472 C69.8053358,192.973336 70.4773291,193.224 71.32,193.224 C72.1626709,193.224 72.8266642,192.973336 73.312,192.472 C73.7973358,191.970664 74.04,191.277338 74.04,190.392 L74.04,183.8 L76.184,183.8 L76.184,190.392 C76.184,191.362672 75.9866686,192.207996 75.592,192.928 C75.1973314,193.648004 74.6346703,194.199998 73.904,194.584 C73.1733297,194.968002 72.312005,195.16 71.32,195.16 C70.3173283,195.16 69.445337,194.968002 68.704,194.584 C67.962663,194.199998 67.3946686,193.648004 67,192.928 C66.6053314,192.207996 66.408,191.362672 66.408,190.392 L66.408,183.8 L68.552,183.8 L68.552,190.392 C68.552,191.277338 68.8026642,191.970664 69.304,192.472 Z M78.712,183.8 L81.16,183.8 L84.872,191.016 L88.552,183.8 L91,183.8 L91,195 L89.032,195 L89.032,186.968 L85.544,193.848 L84.168,193.848 L80.664,186.968 L80.664,195 L78.712,195 L78.712,183.8 Z M93.752,183.8 L101.96,183.8 L101.96,185.672 L95.896,185.672 L95.896,188.44 L101.336,188.44 L101.336,190.312 L95.896,190.312 L95.896,193.128 L102.152,193.128 L102.152,195 L93.752,195 L93.752,183.8 Z" id="RESUME" fill="#D35C69"></path>
                    <path d="M239.5,216 L263.5,216" id="Line" stroke="#FFFFFF" stroke-width="2" stroke-linecap="square"></path>
                    <path d="M238.5,231 L262.5,231" id="Line-Copy-3" stroke="#FFFFFF" stroke-width="2" stroke-linecap="square"></path>
                    <path d="M284.248,152.96 C283.709331,152.703999 283.162669,152.576 282.608,152.576 C281.914663,152.576 281.280003,152.741332 280.704,153.072 C280.127997,153.402668 279.674668,153.858664 279.344,154.44 C279.013332,155.021336 278.848,155.658663 278.848,156.352 C278.848,157.045337 279.013332,157.682664 279.344,158.264 C279.674668,158.845336 280.127997,159.303998 280.704,159.64 C281.280003,159.976002 281.914663,160.144 282.608,160.144 C283.141336,160.144 283.677331,160.026668 284.216,159.792 C284.754669,159.557332 285.231998,159.232002 285.648,158.816 L286.912,160.224 C286.32533,160.821336 285.642671,161.293332 284.864,161.64 C284.085329,161.986668 283.296004,162.16 282.496,162.16 C281.418661,162.16 280.432004,161.904003 279.536,161.392 C278.639996,160.879997 277.936003,160.184004 277.424,159.304 C276.911997,158.423996 276.656,157.450672 276.656,156.384 C276.656,155.317328 276.917331,154.346671 277.44,153.472 C277.962669,152.597329 278.674662,151.909336 279.576,151.408 C280.477338,150.906664 281.477328,150.656 282.576,150.656 C283.376004,150.656 284.159996,150.815998 284.928,151.136 C285.696004,151.456002 286.351997,151.898664 286.896,152.464 L285.648,154.032 C285.253331,153.573331 284.786669,153.216001 284.248,152.96 Z M296.568,151.408 C297.480005,151.909336 298.197331,152.597329 298.72,153.472 C299.242669,154.346671 299.504,155.317328 299.504,156.384 C299.504,157.450672 299.242669,158.423996 298.72,159.304 C298.197331,160.184004 297.480005,160.879997 296.568,161.392 C295.655995,161.904003 294.645339,162.16 293.536,162.16 C292.426661,162.16 291.416005,161.904003 290.504,161.392 C289.591995,160.879997 288.874669,160.184004 288.352,159.304 C287.829331,158.423996 287.568,157.450672 287.568,156.384 C287.568,155.317328 287.829331,154.346671 288.352,153.472 C288.874669,152.597329 289.591995,151.909336 290.504,151.408 C291.416005,150.906664 292.426661,150.656 293.536,150.656 C294.645339,150.656 295.655995,150.906664 296.568,151.408 Z M291.664,153.08 C291.07733,153.416002 290.613335,153.874664 290.272,154.456 C289.930665,155.037336 289.76,155.679996 289.76,156.384 C289.76,157.088004 289.933332,157.73333 290.28,158.32 C290.626668,158.90667 291.090664,159.370665 291.672,159.712 C292.253336,160.053335 292.88533,160.224 293.568,160.224 C294.240003,160.224 294.863997,160.053335 295.44,159.712 C296.016003,159.370665 296.471998,158.90667 296.808,158.32 C297.144002,157.73333 297.312,157.088004 297.312,156.384 C297.312,155.679996 297.144002,155.037336 296.808,154.456 C296.471998,153.874664 296.016003,153.416002 295.44,153.08 C294.863997,152.743998 294.240003,152.576 293.568,152.576 C292.88533,152.576 292.25067,152.743998 291.664,153.08 Z M309.2,150.8 L311.28,150.8 L311.28,162 L309.248,162 L303.488,154.288 L303.488,162 L301.392,162 L301.392,150.8 L303.424,150.8 L309.2,158.528 L309.2,150.8 Z M312.784,150.8 L321.92,150.8 L321.92,152.704 L318.432,152.704 L318.432,162 L316.272,162 L316.272,152.704 L312.784,152.704 L312.784,150.8 Z M330.448,162 L328.512,158.688 C328.426666,158.698667 328.293334,158.704 328.112,158.704 L325.584,158.704 L325.584,162 L323.44,162 L323.44,150.8 L328.112,150.8 C329.562674,150.8 330.682663,151.135997 331.472,151.808 C332.261337,152.480003 332.656,153.429327 332.656,154.656 C332.656,155.530671 332.466669,156.27733 332.088,156.896 C331.709331,157.51467 331.157337,157.978665 330.432,158.288 L332.896,162 L330.448,162 Z M325.584,156.816 L328.112,156.816 C328.922671,156.816 329.541331,156.640002 329.968,156.288 C330.394669,155.935998 330.608,155.413337 330.608,154.72 C330.608,154.03733 330.394669,153.525335 329.968,153.184 C329.541331,152.842665 328.922671,152.672 328.112,152.672 L325.584,152.672 L325.584,156.816 Z M343.296,162 L342.304,159.632 L336.832,159.632 L335.84,162 L333.616,162 L338.528,150.8 L340.752,150.8 L345.6,162 L343.296,162 Z M337.6,157.792 L341.536,157.792 L339.584,153.088 L337.6,157.792 Z M353.384,152.96 C352.845331,152.703999 352.298669,152.576 351.744,152.576 C351.050663,152.576 350.416003,152.741332 349.84,153.072 C349.263997,153.402668 348.810668,153.858664 348.48,154.44 C348.149332,155.021336 347.984,155.658663 347.984,156.352 C347.984,157.045337 348.149332,157.682664 348.48,158.264 C348.810668,158.845336 349.263997,159.303998 349.84,159.64 C350.416003,159.976002 351.050663,160.144 351.744,160.144 C352.277336,160.144 352.813331,160.026668 353.352,159.792 C353.890669,159.557332 354.367998,159.232002 354.784,158.816 L356.048,160.224 C355.46133,160.821336 354.778671,161.293332 354,161.64 C353.221329,161.986668 352.432004,162.16 351.632,162.16 C350.554661,162.16 349.568004,161.904003 348.672,161.392 C347.775996,160.879997 347.072003,160.184004 346.56,159.304 C346.047997,158.423996 345.792,157.450672 345.792,156.384 C345.792,155.317328 346.053331,154.346671 346.576,153.472 C347.098669,152.597329 347.810662,151.909336 348.712,151.408 C349.613338,150.906664 350.613328,150.656 351.712,150.656 C352.512004,150.656 353.295996,150.815998 354.064,151.136 C354.832004,151.456002 355.487997,151.898664 356.032,152.464 L354.784,154.032 C354.389331,153.573331 353.922669,153.216001 353.384,152.96 Z M356.56,150.8 L365.696,150.8 L365.696,152.704 L362.208,152.704 L362.208,162 L360.048,162 L360.048,152.704 L356.56,152.704 L356.56,150.8 Z" id="Contract" fill="#FF7E20"></path>
                    <polygon id="Line-3" fill="#FF7E20" fill-rule="nonzero" points="383 190.5 383 281 385 281 385 190.5"></polygon>
                    <path d="M383.5,190.5 L385,192" id="Line-2" stroke="#979797" stroke-linecap="square"></path>
                    <g id="Group-2" transform="translate(372.000000, 155.000000)">
                        <g id="Group" opacity="0.15" transform="translate(10.000000, 0.000000)">
                            <g id="Clipped">
                                <g>
                                    <mask id="mask-20" fill="white">
                                        <use xlink:href="#path-19"></use>
                                    </mask>
                                    <g id="SVGID_17_"></g>
                                    <rect id="Rectangle-path" fill="#FFFFFF" fill-rule="nonzero" mask="url(#mask-20)" x="0.970690764" y="0.6627377" width="9.60331053" height="34.2878064"></rect>
                                </g>
                            </g>
                        </g>
                        <rect id="Rectangle-path" stroke="#FFFFFF" stroke-width="2" x="0" y="0" width="21.1465835" height="34.2878064"></rect>
                    </g>
                    <path d="M370.482201,261.839059 C370.224323,261.541506 370.045791,261.124933 370.045791,260.688523 L370.045791,258.78419 C370.045791,256.10622 367.863742,253.904334 365.165936,253.904334 L363.261602,253.904334 C362.825192,253.904334 362.428456,253.725803 362.111067,253.42825 C361.198574,252.515757 359.968691,252 358.659462,252 C357.350232,252 356.140187,252.515757 355.207856,253.42825 C354.910304,253.725803 354.493731,253.904334 354.057321,253.904334 L352.152987,253.904334 C349.475018,253.904334 347.273132,256.086383 347.273132,258.78419 L347.273132,260.688523 C347.273132,261.124933 347.094601,261.541506 346.797048,261.839059 C344.892714,263.743392 344.892714,266.837935 346.797048,268.722432 C347.094601,269.019984 347.273132,269.436557 347.273132,269.872967 L347.273132,271.777301 C347.273132,274.455271 349.455181,276.657157 352.152987,276.657157 L352.152987,290.780966 L358.639625,286.456542 L365.126262,290.780966 L365.126262,276.657157 C367.804232,276.657157 370.006118,274.475107 370.006118,271.777301 L370.006118,269.872967 C370.006118,269.436557 370.184649,269.019984 370.482201,268.722432 C372.386535,266.818098 372.386535,263.723556 370.482201,261.839059 Z M355.426061,284.710902 L355.426061,277.311771 C355.505409,277.391119 355.604593,277.450629 355.703777,277.51014 C355.842634,277.609324 355.961655,277.708508 356.100513,277.807692 C356.160023,277.847365 356.219534,277.867202 356.279044,277.906876 C356.993169,278.323449 357.806479,278.561491 358.659462,278.561491 C359.512445,278.561491 360.325754,278.323449 361.039879,277.906876 C361.099389,277.867202 361.178737,277.847365 361.238247,277.807692 C361.377105,277.728345 361.496126,277.609324 361.634983,277.51014 C361.734167,277.450629 361.813515,277.391119 361.912699,277.311771 L361.912699,284.69781 L358.679298,282.54869 L355.426061,284.710902 Z M368.220805,266.441199 C367.308311,267.353692 366.792554,268.583574 366.792554,269.892804 L366.792554,271.797138 C366.792554,272.689794 366.058592,273.423756 365.165936,273.423756 L363.261602,273.423756 C361.952372,273.423756 360.742327,273.939514 359.809997,274.852007 C359.195056,275.466948 358.123868,275.466948 357.508927,274.852007 C356.596433,273.939514 355.366551,273.423756 354.057321,273.423756 L352.152987,273.423756 C351.260331,273.423756 350.526369,272.689794 350.526369,271.797138 L350.526369,269.892804 C350.526369,268.583574 350.010612,267.373529 349.098119,266.441199 C348.463341,265.806421 348.463341,264.774907 349.098119,264.140129 C350.010612,263.227635 350.526369,261.997753 350.526369,260.688523 L350.526369,258.78419 C350.526369,257.891533 351.260331,257.157571 352.152987,257.157571 L354.057321,257.157571 C355.366551,257.157571 356.576596,256.641814 357.508927,255.729321 C358.123868,255.114379 359.195056,255.114379 359.809997,255.729321 C360.72249,256.641814 361.952372,257.157571 363.261602,257.157571 L365.165936,257.157571 C366.058592,257.157571 366.792554,257.891533 366.792554,258.78419 L366.792554,260.688523 C366.792554,261.997753 367.308311,263.207798 368.220805,264.140129 C368.855583,264.774907 368.855583,265.806421 368.220805,266.441199 Z" id="Shape" fill="#FF7E20" fill-rule="nonzero"></path>
                    <path d="M294.5,179.5 L347.5,179.5" id="Line-Copy-4" stroke="#FF7E20" stroke-width="3" stroke-linecap="round" stroke-linejoin="round"></path>
                    <path d="M280.5,205.5 L360.5,205.5" id="Line-Copy-6" stroke="#FF7E20" stroke-width="3" stroke-linecap="round" stroke-linejoin="round"></path>
                    <path d="M280.5,218.5 L360.5,218.5" id="Line-Copy-10" stroke="#FF7E20" stroke-width="3" stroke-linecap="round" stroke-linejoin="round"></path>
                    <path d="M280.5,193.5 L360.5,193.5" id="Line-Copy-9" stroke="#FF7E20" stroke-width="3" stroke-linecap="round" stroke-linejoin="round"></path>
                    <path d="M280.5,253.5 L302.5,253.5" id="Line-Copy-7" stroke="#FF7E20" stroke-width="3" stroke-linecap="round" stroke-linejoin="round"></path>
                    <path d="M280.5,263.5 L302.5,263.5" id="Line-Copy-8" stroke="#FF7E20" stroke-width="3" stroke-linecap="round" stroke-linejoin="round"></path>
                    <path d="M104,327 L104,397" id="Path-7" stroke="#FFFFFF" stroke-width="2"></path>
                    <path d="M266,282 L264,280 L266,280 L266,282 Z M266,120 L264,122 L266,122 L266,120 Z M362.5,122 L362.5,120 L364.5,122 L362.5,122 Z M381,139.5 L383,141.5 L381,141.5 L381,139.5 Z M266,122 L362.5,122 L362.5,141.5 L381,141.5 L381,153.5 L383,153.5 L383,139.5 L364.5,139.5 L364.5,120 L264,120 L264,282 L351.5,282 L351.5,280 L266,280 L266,122 Z M381,139.5 L383,141.5 L381,141.5 L381,139.5 Z M362.5,120 L364.5,122 L362.5,122 L362.5,120 Z M266,120 L264,122 L266,122 L266,120 Z M266,282 L264,280 L266,280 L266,282 Z M381,153.5 L383,153.5 L383,139.5 L364.5,139.5 L364.5,120 L264,120 L264,282 L351.5,282 L351.5,280 L266,280 L266,122 L362.5,122 L362.5,141.5 L381,141.5 L381,153.5 Z" id="Path-2" fill="#FF7E20" fill-rule="nonzero"></path>
                </g>
                <polygon id="Path-8" fill="#FF7E20" fill-rule="nonzero" points="385 279.5 363.5 279.5 363.5 281.5 385 281.5"></polygon>
            </g>
        </g>
    </g>
</svg>