<svg width="496" height="496" viewBox="0 0 496 496" fill="none" xmlns="http://www.w3.org/2000/svg">
<g clip-path="url(#clip0_5033_128257)">
<path d="M212.482 235.781C207.779 235.781 203.237 234.684 199.809 233.727L200.091 232.719C203.666 233.712 208.458 234.861 213.319 234.72L213.35 235.766C213.057 235.781 212.77 235.781 212.482 235.781ZM226.661 232.583L226.274 231.611C230.743 229.818 234.464 227.555 237.647 224.681L238.347 225.454C235.07 228.417 231.245 230.748 226.661 232.583ZM173.777 230.508L173.338 229.557C175.434 228.59 177.712 228.12 180.304 228.12C182.275 228.12 184.459 228.397 186.999 228.966L186.769 229.985C184.308 229.431 182.196 229.165 180.304 229.165C177.869 229.17 175.732 229.609 173.777 230.508ZM246.97 214.855L246.103 214.27L246.192 214.139C247.984 211.479 249.678 208.971 251.815 206.624L252.589 207.33C250.503 209.619 248.831 212.096 247.059 214.725L246.97 214.855Z" fill="#AAB7D4"/>
<path d="M155.399 171.123V176.203H66.537V171.123C66.537 168.745 68.2251 166.812 70.3051 166.812H151.636C153.716 166.817 155.399 168.745 155.399 171.123Z" fill="#3D8FEC"/>
<path d="M155.922 176.726H66.0145V171.123C66.0145 168.458 67.9378 166.289 70.3053 166.289H151.636C153.998 166.289 155.922 168.458 155.922 171.123V176.726ZM67.0598 175.681H154.876V171.123C154.876 169.033 153.423 167.334 151.636 167.334H70.3053C68.5179 167.334 67.0598 169.033 67.0598 171.123V175.681Z" fill="#555555"/>
<path d="M155.399 176.203V238.244C155.399 240.627 153.711 242.555 151.636 242.555H70.305C68.2249 242.555 66.5369 240.627 66.5369 238.244V176.203H155.399Z" fill="white"/>
<path d="M151.636 243.078H70.3052C67.9377 243.078 66.0144 240.909 66.0144 238.244V176.203C66.0144 175.916 66.2496 175.681 66.537 175.681H155.399C155.686 175.681 155.921 175.916 155.921 176.203V238.244C155.921 240.909 153.998 243.078 151.636 243.078ZM67.0597 176.726V238.244C67.0597 240.334 68.5126 242.033 70.3052 242.033H151.636C153.423 242.033 154.876 240.334 154.876 238.244V176.726H67.0597Z" fill="#555555"/>
<path d="M147.942 187.115H73.9905V188.16H147.942V187.115Z" fill="#555555"/>
<path d="M147.942 192.933H73.9905V193.978H147.942V192.933Z" fill="#555555"/>
<path d="M147.942 198.744H73.9905V199.789H147.942V198.744Z" fill="#555555"/>
<path d="M138.848 211.449H83.0894V212.494H138.848V211.449Z" fill="#555555"/>
<path d="M138.848 216.706H83.0894V217.751H138.848V216.706Z" fill="#555555"/>
<path d="M87.0247 227.545H73.9905V228.591H87.0247V227.545Z" fill="#555555"/>
<path d="M147.947 227.545H134.913V228.591H147.947V227.545Z" fill="#555555"/>
<path d="M264.055 93.9576V100.72H128.643V93.9576C128.643 90.7905 131.214 88.2192 134.381 88.2192H258.316C261.483 88.2192 264.055 90.7905 264.055 93.9576Z" fill="#555555"/>
<path d="M264.577 101.243H128.12V93.9573C128.12 90.508 130.932 87.6963 134.381 87.6963H258.316C261.766 87.6963 264.577 90.5028 264.577 93.9573V101.243ZM129.16 100.197H263.527V93.9573C263.527 91.0829 261.185 88.7415 258.311 88.7415H134.381C131.507 88.7415 129.165 91.0829 129.165 93.9573V100.197H129.16Z" fill="#555555"/>
<path d="M264.055 100.721V183.306C264.055 186.478 261.483 189.044 258.316 189.044H134.381C131.209 189.044 128.643 186.473 128.643 183.306V100.721H264.055Z" fill="#CCD9EF"/>
<path d="M258.316 189.567H134.381C130.927 189.567 128.12 186.755 128.12 183.306V100.198H264.577V183.306C264.577 186.755 261.766 189.567 258.316 189.567ZM129.16 101.243V183.306C129.16 186.18 131.501 188.522 134.376 188.522H258.311C261.185 188.522 263.527 186.18 263.527 183.306V101.243H129.16Z" fill="#555555"/>
<path d="M335.22 447.026C335.22 447.026 335.444 464.931 334.723 468.909C334.002 472.891 323.983 472.734 323.983 472.734L319.327 462.188L320.837 447.601L335.22 447.026Z" fill="white"/>
<path d="M324.276 473.262C324.145 473.262 324.041 473.262 323.973 473.262C323.769 473.257 323.586 473.137 323.502 472.949L318.846 462.402C318.809 462.319 318.794 462.23 318.804 462.136L320.314 447.544C320.34 447.283 320.555 447.084 320.816 447.074L335.204 446.499C335.345 446.488 335.481 446.546 335.585 446.64C335.69 446.739 335.747 446.87 335.747 447.011C335.758 447.743 335.967 465.01 335.24 468.998C334.509 473.027 326.215 473.262 324.276 473.262ZM319.86 462.11L324.323 472.217C327.197 472.212 333.699 471.611 334.206 468.82C334.838 465.318 334.728 450.58 334.702 447.57L321.307 448.103L319.86 462.11Z" fill="#555555"/>
<path d="M335.151 462.271C335.151 462.271 337.801 463.938 338.004 467.367C338.125 469.034 338.156 480.918 338.067 482.1C338.553 482.863 338.281 486.375 336.755 487.373C335.24 488.366 328.597 488.167 324.39 487.979C321.746 487.859 316.551 488.69 310.185 488.946C304.337 489.181 296.916 489.474 287.278 487.984C285.648 487.733 284.409 485.815 284.451 484.279C284.493 482.789 284.901 481.666 285.93 481.284C287.158 479.204 287.174 475.927 297.365 473.706C301.233 471.772 314.91 461.398 317.941 461.027C321.092 461.79 320.946 464.644 323.131 468.741C324.573 471.454 330.949 470.743 332.141 470.168C335.25 466.06 335.151 462.271 335.151 462.271Z" fill="#CCD9EF"/>
<path d="M302.539 489.657C298.16 489.657 293.111 489.411 287.195 488.491C285.267 488.193 283.876 486.009 283.923 484.253C283.97 482.481 284.519 481.337 285.559 480.856C285.69 480.621 285.81 480.359 285.941 480.088C286.918 478.002 288.256 475.149 297.182 473.194C298.682 472.431 301.682 470.393 304.86 468.234C311.325 463.844 316.039 460.719 317.873 460.494C317.936 460.489 317.998 460.489 318.061 460.505C320.507 461.095 321.207 462.872 322.096 465.125C322.488 466.118 322.932 467.241 323.591 468.48C324.772 470.696 330.395 470.283 331.806 469.729C334.696 465.867 334.634 462.318 334.634 462.282C334.628 462.088 334.728 461.911 334.895 461.811C335.062 461.717 335.271 461.723 335.433 461.822C335.548 461.895 338.313 463.672 338.527 467.33C338.653 469.029 338.679 480.197 338.6 481.979C339.128 483.208 338.7 486.72 337.043 487.801C335.794 488.617 331.885 488.826 324.369 488.491C323.057 488.434 321.077 488.617 318.579 488.847C316.122 489.071 313.337 489.333 310.211 489.458C307.891 489.557 305.351 489.657 302.539 489.657ZM317.91 461.55C316.075 461.879 310.19 465.883 305.45 469.102C302.064 471.407 299.137 473.393 297.595 474.161C297.559 474.182 297.517 474.192 297.475 474.203C288.993 476.048 287.827 478.535 286.892 480.532C286.725 480.882 286.573 481.216 286.38 481.535C286.317 481.64 286.223 481.718 286.113 481.76C285.397 482.026 285.016 482.873 284.974 484.279C284.937 485.544 285.998 487.247 287.362 487.457C296.973 488.946 304.29 488.648 310.17 488.413C313.269 488.288 316.039 488.031 318.485 487.807C321.03 487.571 323.037 487.389 324.422 487.446C331.414 487.76 335.47 487.582 336.478 486.923C337.78 486.077 337.973 482.894 337.639 482.371C337.576 482.277 337.55 482.162 337.56 482.053C337.644 480.96 337.618 469.06 337.498 467.398C337.377 465.37 336.348 464.022 335.616 463.311C335.433 464.769 334.796 467.534 332.564 470.471C332.512 470.539 332.449 470.591 332.376 470.628C330.97 471.302 324.317 472.055 322.676 468.977C321.991 467.686 321.537 466.531 321.134 465.517C320.267 463.353 319.749 462.036 317.91 461.55Z" fill="#555555"/>
<path d="M302.873 485.758C301.029 485.758 298.938 485.706 296.482 485.575C285.527 484.99 285.381 481.63 285.397 481.248C285.413 480.961 285.658 480.746 285.946 480.752C286.228 480.767 286.447 481.002 286.442 481.279C286.453 481.373 286.797 484.008 296.534 484.53C303.793 484.922 307.859 484.609 311.789 484.305C313.409 484.18 314.936 484.065 316.645 483.997C330.337 483.48 337.853 481.603 337.931 481.583C338.208 481.509 338.495 481.682 338.563 481.959C338.637 482.241 338.464 482.523 338.187 482.591C338.114 482.612 330.505 484.509 316.686 485.037C314.998 485.1 313.477 485.22 311.868 485.34C309.239 485.554 306.542 485.758 302.873 485.758Z" fill="#555555"/>
<path d="M313.733 469.348C313.508 469.348 313.305 469.207 313.237 468.982C312.479 466.557 310.838 465.58 310.822 465.569C310.571 465.423 310.488 465.104 310.629 464.858C310.77 464.608 311.089 464.524 311.339 464.665C311.423 464.712 313.346 465.836 314.235 468.674C314.324 468.951 314.167 469.243 313.89 469.327C313.838 469.343 313.785 469.348 313.733 469.348Z" fill="#555555"/>
<path d="M308.737 472.51C308.512 472.51 308.309 472.369 308.241 472.144C307.488 469.745 306.077 469.003 306.019 468.972C305.763 468.841 305.659 468.527 305.784 468.271C305.91 468.015 306.223 467.906 306.479 468.031C306.552 468.068 308.345 468.967 309.239 471.825C309.328 472.102 309.171 472.395 308.894 472.479C308.842 472.505 308.789 472.51 308.737 472.51Z" fill="#555555"/>
<path d="M303.841 474.794C303.622 474.794 303.418 474.653 303.345 474.433C302.571 472.071 301.557 471.527 301.547 471.522C301.296 471.391 301.186 471.083 301.306 470.827C301.432 470.571 301.73 470.456 301.986 470.576C302.132 470.639 303.418 471.297 304.338 474.109C304.426 474.381 304.28 474.679 304.003 474.768C303.951 474.788 303.893 474.794 303.841 474.794Z" fill="#555555"/>
<path d="M318.261 448.406C318.261 448.406 318.511 468.533 317.701 473.011C316.891 477.485 305.629 477.313 305.629 477.313L300.392 465.459L302.091 449.06L318.261 448.406Z" fill="white"/>
<path d="M305.854 477.83C305.733 477.83 305.655 477.83 305.618 477.83C305.415 477.825 305.232 477.704 305.148 477.516L299.911 465.663C299.875 465.58 299.859 465.491 299.87 465.397L301.568 448.997C301.594 448.735 301.808 448.537 302.07 448.526L318.245 447.884C318.386 447.873 318.522 447.931 318.626 448.025C318.731 448.124 318.789 448.255 318.789 448.396C318.799 449.221 319.034 468.626 318.224 473.1C317.398 477.637 307.552 477.83 305.854 477.83ZM300.925 465.365L305.969 476.785C309.193 476.785 316.609 476.11 317.184 472.912C317.905 468.94 317.775 452.174 317.738 448.944L302.556 449.551L300.925 465.365Z" fill="#555555"/>
<path d="M318.187 465.543C318.187 465.543 321.166 467.414 321.396 471.271C321.532 473.142 321.568 486.511 321.469 487.833C322.018 488.69 321.709 492.641 319.995 493.76C318.291 494.873 310.823 494.654 306.093 494.445C303.125 494.314 297.282 495.239 290.122 495.532C283.547 495.798 275.206 496.127 264.367 494.45C262.533 494.168 261.142 492.014 261.184 490.279C261.231 488.607 261.691 487.342 262.846 486.908C264.231 484.572 264.242 480.882 275.697 478.39C280.046 476.215 295.421 464.55 298.834 464.132C302.377 464.989 302.215 468.198 304.666 472.803C306.292 475.85 313.457 475.05 314.795 474.407C318.297 469.803 318.187 465.543 318.187 465.543Z" fill="#CCD9EF"/>
<path d="M281.524 496.268C276.601 496.268 270.93 495.991 264.283 494.962C262.145 494.632 260.609 492.207 260.661 490.263C260.713 488.288 261.325 487.018 262.48 486.495C262.631 486.223 262.772 485.925 262.919 485.612C264.011 483.281 265.511 480.088 275.524 477.898C277.212 477.041 280.594 474.741 284.168 472.311C290.262 468.172 296.565 463.886 298.771 463.62C298.833 463.615 298.896 463.615 298.959 463.63C301.676 464.289 302.418 466.175 303.448 468.789C303.887 469.907 304.389 471.172 305.131 472.567C306.479 475.097 312.892 474.621 314.465 473.994C317.721 469.646 317.669 465.606 317.669 465.564C317.663 465.371 317.768 465.193 317.935 465.099C318.102 465.005 318.306 465.01 318.474 465.109C318.604 465.193 321.682 467.174 321.923 471.25C322.064 473.163 322.09 485.774 322.006 487.728C322.607 489.072 322.137 493.002 320.287 494.209C318.897 495.118 314.517 495.354 306.077 494.977C304.593 494.909 302.371 495.118 299.555 495.374C296.795 495.631 293.665 495.918 290.153 496.059C287.534 496.153 284.681 496.268 281.524 496.268ZM298.802 464.665C296.738 465.026 290.1 469.536 284.749 473.168C281.101 475.645 277.651 477.987 275.927 478.854C275.89 478.875 275.848 478.886 275.807 478.896C266.237 480.976 264.92 483.788 263.859 486.046C263.676 486.438 263.499 486.814 263.29 487.169C263.227 487.274 263.133 487.352 263.023 487.394C262.192 487.702 261.748 488.68 261.701 490.289C261.659 491.737 262.877 493.686 264.439 493.927C275.247 495.599 283.479 495.27 290.09 495.003C293.576 494.862 296.691 494.575 299.44 494.324C302.298 494.063 304.551 493.854 306.108 493.922C313.984 494.272 318.552 494.073 319.702 493.321C321.191 492.348 321.405 488.711 321.024 488.11C320.961 488.016 320.935 487.901 320.946 487.791C321.04 486.558 321.008 473.173 320.872 471.308C320.731 468.956 319.477 467.383 318.646 466.588C318.463 468.182 317.773 471.355 315.212 474.72C315.16 474.788 315.097 474.841 315.024 474.877C313.509 475.609 305.998 476.414 304.206 473.048C303.438 471.6 302.925 470.304 302.476 469.165C301.504 466.714 300.913 465.219 298.802 464.665Z" fill="#555555"/>
<path d="M281.901 491.883C279.827 491.883 277.48 491.826 274.72 491.674C262.465 491.016 262.303 487.3 262.324 486.877C262.339 486.589 262.59 486.359 262.873 486.38C263.155 486.396 263.374 486.631 263.369 486.913C263.374 487.007 263.714 490.039 274.778 490.634C282.947 491.073 287.52 490.723 291.936 490.384C293.754 490.242 295.474 490.112 297.397 490.039C312.799 489.453 321.255 487.347 321.339 487.326C321.616 487.253 321.903 487.425 321.971 487.702C322.044 487.985 321.872 488.267 321.595 488.335C321.511 488.356 312.961 490.493 297.434 491.079C295.531 491.152 293.822 491.282 292.014 491.418C289.051 491.654 286.02 491.883 281.901 491.883Z" fill="#555555"/>
<path d="M294.104 473.435C293.879 473.435 293.676 473.294 293.608 473.069C292.745 470.315 290.885 469.207 290.864 469.197C290.613 469.05 290.529 468.731 290.671 468.486C290.812 468.235 291.13 468.151 291.381 468.292C291.47 468.345 293.613 469.594 294.606 472.761C294.695 473.038 294.538 473.331 294.261 473.414C294.209 473.425 294.156 473.435 294.104 473.435Z" fill="#555555"/>
<path d="M288.492 476.988C288.267 476.988 288.063 476.847 287.995 476.622C287.143 473.894 285.534 473.053 285.46 473.022C285.204 472.891 285.1 472.577 285.225 472.321C285.351 472.065 285.659 471.955 285.92 472.081C286.004 472.123 287.995 473.121 288.988 476.309C289.077 476.586 288.92 476.878 288.643 476.962C288.596 476.978 288.544 476.988 288.492 476.988Z" fill="#555555"/>
<path d="M282.989 479.56C282.769 479.56 282.565 479.418 282.492 479.199C281.614 476.507 280.449 475.896 280.438 475.891C280.182 475.76 280.072 475.452 280.198 475.196C280.323 474.94 280.621 474.825 280.882 474.945C281.039 475.018 282.466 475.744 283.49 478.875C283.579 479.152 283.433 479.445 283.156 479.533C283.093 479.549 283.041 479.56 282.989 479.56Z" fill="#555555"/>
<path d="M323.34 119.363C323.34 119.363 328.503 115.354 330.034 116.013C331.566 116.671 345.258 138.292 349 151.854C353.427 167.893 351.227 183.013 347.892 201.55C343.983 223.292 343.419 238.411 344.234 245.158C344.234 245.158 323.841 237.34 318.411 237.643C312.981 237.946 297.057 237.904 289.432 240.444C289.432 236.399 286.348 224.358 291.183 199.742C294.235 184.199 305.137 135.407 307.87 130.536C310.603 125.655 323.34 119.363 323.34 119.363Z" fill="white"/>
<path d="M344.239 245.675C344.176 245.675 344.114 245.665 344.051 245.639C343.847 245.56 323.731 237.862 318.442 238.16C317.387 238.217 315.929 238.264 314.246 238.322C307.3 238.541 295.682 238.912 289.599 240.935C289.442 240.987 289.264 240.961 289.128 240.862C288.992 240.763 288.909 240.606 288.909 240.439C288.909 239.681 288.794 238.588 288.642 237.204C288.031 231.476 286.756 219.554 290.665 199.632C293.55 184.946 304.593 135.297 307.41 130.269C310.133 125.414 322.075 119.404 323.057 118.913C324.374 117.894 328.566 114.81 330.238 115.526C332.025 116.294 345.812 138.344 349.502 151.707C353.934 167.768 351.843 182.532 348.404 201.639C344.474 223.479 343.941 238.4 344.751 245.09C344.772 245.273 344.699 245.451 344.553 245.565C344.464 245.639 344.354 245.675 344.239 245.675ZM318.73 237.109C324.034 237.109 339.833 242.937 343.628 244.363C342.948 237.235 343.591 222.528 347.38 201.456C350.793 182.49 352.868 167.836 348.498 151.99C344.809 138.626 331.315 117.371 329.815 116.483C329.057 116.159 326.031 117.935 323.663 119.775C323.637 119.796 323.606 119.817 323.574 119.833C323.449 119.895 310.948 126.109 308.33 130.787C305.743 135.396 294.956 183.237 291.7 199.841C287.822 219.607 289.081 231.423 289.693 237.099C289.803 238.144 289.897 239.022 289.938 239.738C296.304 237.852 307.457 237.496 314.22 237.277C315.897 237.224 317.35 237.177 318.395 237.12C318.495 237.115 318.61 237.109 318.73 237.109Z" fill="#555555"/>
<path d="M349.116 253.661C347.203 248.069 344.24 239.989 344.24 239.989L314.837 231.915L289.537 241.562C288.465 266.392 294.11 460.819 294.11 460.819C304.797 463.113 311.853 463.035 323.466 460.819L323.748 459.313L324.051 457.772C330.547 459.319 337.007 459.204 343.44 457.772C343.44 446.906 347.24 283.795 347.24 283.795C351.483 270.066 351.483 260.591 349.116 253.661Z" fill="#3D8FEC"/>
<path d="M308.294 463.024C303.7 463.024 299.268 462.459 294 461.325C293.765 461.273 293.592 461.069 293.587 460.829C293.529 458.885 287.958 266.099 289.014 241.536C289.024 241.327 289.155 241.144 289.348 241.071L314.649 231.423C314.753 231.381 314.868 231.376 314.973 231.407L344.37 239.482C344.532 239.529 344.663 239.649 344.72 239.806C344.752 239.884 347.705 247.954 349.602 253.488C352.267 261.27 351.661 271.216 347.752 283.879C347.652 288.091 343.952 447.12 343.952 457.766C343.952 458.012 343.78 458.221 343.545 458.278C337.012 459.737 330.589 459.773 324.448 458.399L323.967 460.907C323.925 461.116 323.763 461.284 323.549 461.325C317.638 462.459 312.882 463.024 308.294 463.024ZM294.616 460.39C304.677 462.512 311.685 462.506 323.016 460.369L323.533 457.667C323.559 457.526 323.643 457.406 323.763 457.327C323.883 457.249 324.03 457.223 324.166 457.259C330.186 458.691 336.489 458.717 342.917 457.348C343.001 443.394 346.68 285.394 346.717 283.785C346.717 283.738 346.727 283.691 346.738 283.644C350.595 271.163 351.211 261.411 348.619 253.833C346.921 248.863 344.355 241.839 343.837 240.423L314.863 232.468L290.044 241.928C289.071 267.265 294.329 450.397 294.616 460.39Z" fill="#555555"/>
<path d="M310.202 125.555C310.202 125.555 304.359 131.581 304.73 132.527C305.101 133.473 306.329 137.137 306.329 137.137L312.177 131.581L310.202 125.555Z" fill="white"/>
<path d="M306.329 137.659C306.287 137.659 306.245 137.654 306.204 137.643C306.031 137.601 305.89 137.471 305.833 137.304C305.822 137.267 304.604 133.64 304.244 132.715C303.915 131.879 305.791 129.344 309.825 125.189C309.951 125.058 310.144 125.001 310.317 125.043C310.494 125.085 310.641 125.215 310.698 125.388L312.674 131.414C312.736 131.607 312.684 131.816 312.538 131.957L306.695 137.518C306.59 137.612 306.465 137.659 306.329 137.659ZM305.242 132.396C305.524 133.133 306.193 135.093 306.564 136.196L311.576 131.429L309.977 126.548C307.677 128.968 305.373 131.706 305.242 132.396Z" fill="#555555"/>
<path d="M329.094 117.23L310.818 135.099C310.818 135.099 307.729 130.672 304.782 121.704C302.519 114.81 329.935 99.7222 329.935 99.7222C329.935 99.7222 326.47 106.365 329.094 117.23Z" fill="white"/>
<path d="M310.823 135.621C310.807 135.621 310.792 135.621 310.776 135.621C310.624 135.605 310.483 135.527 310.395 135.402C310.269 135.219 307.227 130.813 304.29 121.871C301.959 114.774 326.847 100.835 329.69 99.2673C329.894 99.1575 330.139 99.1889 330.307 99.3509C330.474 99.5129 330.51 99.7638 330.406 99.9676C330.374 100.03 327.061 106.589 329.601 117.11C329.643 117.287 329.591 117.476 329.46 117.606L311.184 135.475C311.09 135.569 310.959 135.621 310.823 135.621ZM328.885 100.914C320.675 105.581 303.632 116.514 305.283 121.542C307.604 128.613 310.039 132.867 310.912 134.278L328.519 117.063C326.659 109.082 328.007 103.422 328.885 100.914Z" fill="#555555"/>
<path d="M211.248 139.003C211.849 138.867 213.197 138.741 213.568 139.217C213.934 139.693 213.464 157.117 213.307 157.812C213.15 158.507 211.953 161.847 211.666 162.401C211.373 162.955 210.621 158.246 210.558 157.577C210.495 156.908 210.647 139.133 211.248 139.003Z" fill="white"/>
<path d="M211.613 162.97C211.577 162.97 211.54 162.965 211.504 162.96C211.101 162.881 210.908 162.63 210.469 160.32C210.249 159.171 210.067 157.958 210.035 157.624C209.999 157.221 210.03 152.35 210.129 148.075C210.349 138.668 210.626 138.605 211.133 138.49C211.352 138.443 213.312 138.036 213.981 138.893C214.613 139.708 213.85 157.775 213.819 157.922C213.657 158.653 212.439 162.05 212.131 162.641C212.021 162.85 211.823 162.97 211.613 162.97ZM211.613 139.462C211.164 141.59 211.002 156.667 211.075 157.53C211.117 158.016 211.41 159.798 211.671 161.005C212.115 159.824 212.695 158.141 212.795 157.697C212.946 156.814 213.338 141.171 213.098 139.499C212.889 139.389 212.246 139.363 211.613 139.462Z" fill="#555555"/>
<path d="M231.186 162.918C231.186 162.918 229.362 160.399 228.113 158.256C226.859 156.113 221.648 148.838 219.046 147.552C216.438 146.267 211.87 144.61 210.381 144.945C208.891 145.279 208.588 146.91 208.619 147.584C208.619 147.584 206.283 147.349 205.233 148.734C204.182 150.119 205.233 151.78 205.233 151.78C205.233 151.78 203.221 151.681 202.609 153.641C201.998 155.601 202.813 156.824 207.062 159.055C207.062 159.055 205.269 158.867 203.911 158.935C202.39 159.014 201.162 161.846 205.055 163.827C207.752 165.196 212.508 169.544 216.809 171.206C220.797 172.743 224.293 173.401 224.293 173.401L231.186 162.918Z" fill="white"/>
<path d="M224.292 173.924C224.261 173.924 224.23 173.918 224.198 173.913C224.052 173.887 220.608 173.228 216.62 171.692C213.924 170.652 211.127 168.635 208.661 166.852C207.14 165.755 205.828 164.804 204.819 164.292C201.71 162.713 201.867 160.732 201.987 160.163C202.196 159.175 202.98 158.459 203.889 158.412C204.197 158.396 204.527 158.396 204.851 158.396C202.159 156.714 201.511 155.417 202.112 153.478C202.541 152.104 203.596 151.524 204.459 151.325C204.208 150.604 204.025 149.459 204.819 148.409C205.703 147.244 207.286 147.05 208.122 147.035C208.248 146.005 208.854 144.745 210.265 144.421C212.131 143.993 217.237 146.062 219.275 147.066C222.092 148.456 227.355 155.903 228.567 157.973C229.79 160.069 231.599 162.567 231.614 162.593C231.74 162.771 231.745 163.006 231.63 163.189L224.737 173.673C224.632 173.84 224.465 173.924 224.292 173.924ZM204.558 159.447C204.344 159.447 204.135 159.452 203.936 159.463C203.508 159.483 203.116 159.875 203.006 160.388C202.786 161.412 203.644 162.525 205.29 163.367C206.372 163.915 207.715 164.887 209.267 166.011C211.681 167.757 214.42 169.732 216.991 170.725C220.179 171.953 223.08 172.617 224.047 172.826L230.553 162.928C230.036 162.196 228.662 160.231 227.658 158.517C226.404 156.374 221.266 149.23 218.81 148.017C215.951 146.606 211.697 145.179 210.495 145.451C209.319 145.718 209.121 147.092 209.142 147.557C209.147 147.709 209.089 147.855 208.979 147.96C208.87 148.064 208.723 148.116 208.567 148.101C208.546 148.101 206.507 147.913 205.65 149.047C204.83 150.134 205.666 151.482 205.677 151.498C205.781 151.665 205.786 151.874 205.687 152.041C205.588 152.208 205.405 152.313 205.211 152.297C205.143 152.297 203.591 152.256 203.116 153.792C202.63 155.36 203.105 156.374 207.312 158.59C207.532 158.705 207.642 158.966 207.568 159.201C207.495 159.442 207.265 159.593 207.014 159.572C206.994 159.577 205.734 159.447 204.558 159.447Z" fill="#555555"/>
<path d="M306.465 133.483C306.465 133.483 303.444 136.353 302.232 139.305C301.275 141.647 302.315 148.023 302.315 148.023C302.315 148.023 309.151 142.206 310.071 138.145C310.996 134.09 306.465 133.483 306.465 133.483Z" fill="#555555"/>
<path d="M306.946 131.847C308.937 128.638 314.765 120.198 330.888 113.832C333.725 116.351 334.039 117.919 333.736 119.09C333.427 120.26 321.757 121.849 315.413 134.486C310.793 137.277 310.542 139.765 310.542 139.765C310.542 139.765 307.986 136.551 306.857 134.345C306.444 133.551 306.476 132.605 306.946 131.847Z" fill="white"/>
<path d="M310.531 140.288C310.374 140.288 310.228 140.22 310.123 140.094C310.019 139.964 307.521 136.812 306.381 134.586C305.895 133.629 305.937 132.474 306.502 131.575C311.237 123.95 319.379 117.815 330.694 113.346C330.877 113.273 331.086 113.31 331.232 113.44C333.736 115.661 334.692 117.501 334.237 119.226C334.096 119.764 333.412 120.046 331.917 120.663C328.238 122.184 320.581 125.346 315.872 134.727C315.83 134.816 315.763 134.889 315.674 134.941C311.393 137.528 311.054 139.812 311.048 139.833C311.022 140.042 310.871 140.214 310.672 140.272C310.625 140.282 310.578 140.288 310.531 140.288ZM307.39 132.124C307.019 132.72 306.993 133.478 307.317 134.11C308.08 135.605 309.543 137.606 310.359 138.683C310.855 137.638 312.068 135.929 315.01 134.121C319.896 124.499 327.741 121.254 331.52 119.696C332.272 119.388 333.046 119.064 333.244 118.897C333.432 118.097 333.328 116.775 330.778 114.439C319.829 118.808 311.963 124.76 307.39 132.124Z" fill="#555555"/>
<path d="M323.743 459.831C323.733 459.831 323.722 459.831 323.712 459.831C323.424 459.815 323.205 459.564 323.22 459.277L332.669 300.827C332.669 300.796 332.675 300.765 332.685 300.739L336.359 285.52C336.511 284.887 336.835 284.312 337.289 283.847L340.566 280.534C340.77 280.33 341.099 280.325 341.303 280.529C341.507 280.733 341.512 281.062 341.308 281.266L338.032 284.579C337.708 284.903 337.483 285.316 337.373 285.76L333.709 300.932L324.266 459.334C324.25 459.616 324.02 459.831 323.743 459.831Z" fill="#555555"/>
<path d="M323.554 110.995C317.69 117.444 309.244 122.55 303.407 121.614C293.503 120.026 287.336 108.016 287.336 93.2569C287.336 78.498 291.146 68.1553 305.476 68.1553C326.355 68.1553 330.494 80.1234 330.494 94.8823C330.494 97.3909 330.134 99.4657 329.261 101.77" fill="white"/>
<path d="M304.88 122.252C304.347 122.252 303.83 122.216 303.323 122.132C293.445 120.543 286.813 108.941 286.813 93.2571C286.813 81.3256 288.935 67.6328 305.476 67.6328C315.37 67.6328 322.158 70.2616 326.23 75.6708C329.496 80.0033 331.017 86.1076 331.017 94.8877C331.017 97.4903 330.641 99.607 329.752 101.959C329.653 102.231 329.35 102.366 329.078 102.262C328.806 102.157 328.67 101.859 328.775 101.588C329.616 99.3613 329.972 97.3544 329.972 94.8877C329.972 81.9266 327.061 68.6781 305.476 68.6781C293.289 68.6781 287.859 76.2561 287.859 93.2571C287.859 108.408 294.141 119.597 303.49 121.097C308.717 121.939 316.807 117.637 323.167 110.645C323.36 110.43 323.695 110.415 323.904 110.608C324.118 110.802 324.134 111.131 323.941 111.345C318.976 116.807 311.152 122.252 304.88 122.252Z" fill="#555555"/>
<path d="M336.044 89.2379C336.044 89.2379 339.379 77.2228 337.821 71.5628C335.914 64.6223 329.543 65.5265 329.543 65.5265C329.543 65.5265 318.808 56.3858 303.527 54.405C284.404 51.9226 278.634 67.7685 283.186 75.7124C284.723 78.3935 288.282 83.0291 296.607 80.3794C301.368 78.8638 310.091 73.6794 313.342 73.8989C318.249 74.2334 321.421 79.5903 323.282 82.1198C324.897 84.3148 330.348 90.5288 330.348 90.5288L336.044 89.2379Z" fill="#555555"/>
<path d="M330.051 91.3548C330.234 90.8322 330.354 90.5186 330.354 90.5186C330.354 90.5186 331.943 86.8132 335.575 87.9211C339.38 89.0814 337.864 94.6578 335.962 97.6942C334.054 100.731 331.274 102.8 328.431 101.833" fill="white"/>
<path d="M329.857 102.591C329.324 102.591 328.791 102.502 328.268 102.33C327.996 102.236 327.85 101.938 327.939 101.666C328.033 101.394 328.331 101.248 328.603 101.337C330.902 102.116 333.489 100.652 335.522 97.412C336.891 95.2275 337.9 91.9872 337.163 90.0221C336.86 89.2068 336.29 88.6842 335.423 88.4229C332.298 87.4717 330.892 90.5813 330.829 90.7277C330.829 90.7277 330.714 91.0308 330.536 91.5325C330.442 91.8043 330.139 91.9454 329.873 91.8513C329.601 91.7572 329.455 91.4594 329.554 91.1876C329.742 90.6545 329.862 90.3357 329.862 90.3357C330.484 88.888 332.496 86.4422 335.726 87.4247C336.891 87.7801 337.728 88.5536 338.141 89.6615C339.034 92.0499 337.864 95.6456 336.405 97.9765C334.534 100.955 332.172 102.591 329.857 102.591Z" fill="#555555"/>
<path d="M300.564 109.516C298.468 109.516 297 109.087 296.963 109.077C296.686 108.993 296.529 108.7 296.613 108.423C296.697 108.146 296.984 107.99 297.266 108.073C297.611 108.178 305.795 110.524 310.677 103.067C310.834 102.826 311.158 102.758 311.398 102.915C311.638 103.072 311.706 103.396 311.55 103.636C308.346 108.538 303.742 109.516 300.564 109.516Z" fill="#555555"/>
<path d="M294.422 102.236C294.355 102.236 294.281 102.22 294.213 102.194C293.947 102.079 293.827 101.771 293.942 101.504L298.781 90.3778C298.896 90.1113 299.204 89.9911 299.471 90.1061C299.738 90.221 299.858 90.5294 299.743 90.7959L294.903 101.923C294.814 102.121 294.626 102.236 294.422 102.236Z" fill="#555555"/>
<path d="M301.086 102.016C301.049 102.016 301.007 102.011 300.971 102.006L300.223 101.839C299.941 101.776 299.763 101.494 299.826 101.217C299.889 100.935 300.171 100.762 300.448 100.82L301.195 100.987C301.478 101.05 301.655 101.332 301.593 101.609C301.54 101.854 301.326 102.016 301.086 102.016Z" fill="#555555"/>
<path d="M294.422 94.3656C295.106 94.3656 295.661 93.4694 295.661 92.364C295.661 91.2585 295.106 90.3623 294.422 90.3623C293.738 90.3623 293.184 91.2585 293.184 92.364C293.184 93.4694 293.738 94.3656 294.422 94.3656Z" fill="#555555"/>
<path d="M311.277 94.3656C311.961 94.3656 312.516 93.4694 312.516 92.364C312.516 91.2585 311.961 90.3623 311.277 90.3623C310.593 90.3623 310.039 91.2585 310.039 92.364C310.039 93.4694 310.593 94.3656 311.277 94.3656Z" fill="#555555"/>
<path d="M316.827 88.4432C316.644 88.4432 316.472 88.3491 316.373 88.1819C315.468 86.6088 314.23 85.6106 312.698 85.2134C309.385 84.3615 305.706 86.567 305.669 86.5879C305.424 86.7394 305.1 86.661 304.953 86.4154C304.802 86.1698 304.88 85.8458 305.126 85.6994C305.293 85.6001 309.213 83.2431 312.955 84.2047C314.773 84.6699 316.231 85.8353 317.282 87.6645C317.428 87.9153 317.339 88.2341 317.089 88.3805C317.005 88.4223 316.916 88.4432 316.827 88.4432Z" fill="#555555"/>
<path d="M289.74 88.4435C289.635 88.4435 289.525 88.4121 289.437 88.3442C289.201 88.177 289.149 87.8477 289.316 87.6125C292.238 83.5361 297.229 85.1092 297.276 85.1248C297.548 85.2137 297.699 85.5064 297.61 85.7833C297.522 86.0603 297.224 86.2067 296.952 86.1178C296.779 86.0603 292.64 84.7747 290.163 88.2188C290.058 88.3703 289.902 88.4435 289.74 88.4435Z" fill="#555555"/>
<path d="M303.406 112.902C303.046 112.902 302.811 112.881 302.774 112.876C302.487 112.845 302.278 112.589 302.309 112.306C302.335 112.019 302.602 111.81 302.879 111.836C302.91 111.836 305.863 112.113 306.856 110.524C307.007 110.279 307.331 110.206 307.577 110.357C307.823 110.509 307.896 110.833 307.744 111.078C306.736 112.693 304.509 112.902 303.406 112.902Z" fill="#555555"/>
<path d="M306.131 137.873C306.131 137.873 286.883 168.75 284.949 212.624C284.657 219.324 288.09 225.956 288.378 227.602C291.435 225.825 293.426 214.516 293.39 211.945C292.82 171.807 302.076 147.819 308.441 137.962L306.131 137.873Z" fill="#555555"/>
<path d="M329.094 132.564C329.094 132.564 319.619 127.03 306.491 143.043C293.357 159.056 284.054 167.204 281.446 167.408C278.332 167.653 278.332 167.653 276.502 169.279C274.673 170.904 250.512 171.442 232.78 163.054C230.48 161.361 222.897 168.129 222.155 180.719C222.155 180.719 240.123 197.333 273.529 199.737C288.962 199.737 322.023 184.644 329.099 175.707" fill="white"/>
<path d="M273.529 200.26C240.29 197.871 221.982 181.267 221.799 181.1C221.684 180.996 221.622 180.844 221.632 180.687C222.249 170.266 227.345 164.099 230.407 162.662C231.452 162.171 232.388 162.15 233.041 162.599C250.993 171.076 274.595 170.271 276.152 168.886C278.076 167.177 278.17 167.141 281.4 166.885C283.406 166.728 291.883 160.023 306.078 142.708C319.342 126.533 328.948 131.874 329.35 132.109C329.601 132.256 329.685 132.574 329.538 132.825C329.392 133.076 329.073 133.16 328.828 133.013C328.739 132.961 319.541 127.939 306.888 143.372C295.249 157.566 284.802 167.663 281.483 167.925C278.541 168.155 278.541 168.155 276.847 169.665C274.783 171.5 250.549 172.038 232.55 163.519C232.518 163.503 232.492 163.488 232.466 163.467C232.132 163.221 231.557 163.268 230.846 163.597C227.815 165.019 223.31 171.191 222.683 180.489C224.663 182.208 242.501 196.977 273.555 199.209C288.831 199.209 321.845 184.006 328.676 175.377C328.854 175.153 329.183 175.111 329.413 175.294C329.638 175.471 329.68 175.801 329.497 176.025C322.389 185.025 289.411 200.26 273.529 200.26Z" fill="#555555"/>
<path d="M213.422 150.307C213.349 150.307 213.276 150.291 213.202 150.26L208.394 148.059C208.133 147.939 208.018 147.631 208.138 147.364C208.258 147.103 208.567 146.988 208.833 147.108L213.641 149.308C213.903 149.429 214.018 149.737 213.897 150.004C213.809 150.197 213.62 150.307 213.422 150.307Z" fill="#555555"/>
<path d="M210.02 154.76C209.942 154.76 209.858 154.739 209.78 154.702L204.815 152.131C204.559 152 204.46 151.681 204.59 151.425C204.721 151.169 205.04 151.07 205.296 151.201L210.261 153.772C210.517 153.903 210.616 154.221 210.486 154.477C210.392 154.655 210.209 154.76 210.02 154.76Z" fill="#555555"/>
<path d="M273.121 188.825C273.116 188.825 273.11 188.825 273.1 188.825C272.813 188.814 272.588 188.574 272.598 188.286C272.619 187.628 273.241 172.095 279.398 169.252C279.659 169.132 279.972 169.247 280.093 169.508C280.213 169.77 280.098 170.083 279.837 170.203C274.255 172.78 273.649 188.171 273.643 188.328C273.633 188.6 273.403 188.825 273.121 188.825Z" fill="#555555"/>
<path d="M314.837 186.509C314.607 186.509 314.393 186.352 314.33 186.122C314.257 185.845 314.424 185.558 314.701 185.485C314.795 185.459 324.035 183.002 325.666 182.218C325.927 182.093 326.236 182.203 326.361 182.464C326.487 182.725 326.377 183.039 326.115 183.159C324.396 183.985 315.355 186.389 314.968 186.493C314.926 186.499 314.884 186.509 314.837 186.509Z" fill="#555555"/>
<path d="M308.434 463.008C308.147 463.008 307.912 462.773 307.912 462.486L308.074 300.864C308.058 300.728 306.25 282.243 306.046 276.353C305.837 270.458 307.77 235.923 307.854 234.455C307.87 234.167 308.1 233.942 308.403 233.963C308.69 233.979 308.91 234.225 308.894 234.512C308.873 234.873 306.877 270.469 307.086 276.317C307.295 282.17 309.098 300.624 309.114 300.812L308.952 462.486C308.957 462.773 308.722 463.008 308.434 463.008Z" fill="#555555"/>
<path d="M305.582 262.017C303.868 262.017 300.952 261.453 297.549 258.448C292.276 253.796 290.928 240.396 290.875 239.827C290.849 239.539 291.058 239.283 291.346 239.257C291.628 239.226 291.889 239.44 291.915 239.727C291.931 239.863 293.279 253.284 298.239 257.664C303.1 261.955 306.727 260.867 306.878 260.82C307.155 260.732 307.448 260.883 307.537 261.155C307.625 261.427 307.479 261.719 307.207 261.813C307.139 261.834 306.554 262.017 305.582 262.017Z" fill="#555555"/>
<path d="M288.532 239.486C288.428 241.049 288.391 243.725 289.133 245.194C289.133 245.194 308.983 236.387 319.085 235.582C327.792 234.887 341.025 239.419 344.5 240.678C344.913 240.83 345.336 240.506 345.31 240.067C345.2 238.41 344.897 235.086 344.197 234.652C343.256 234.072 327.808 228.992 318.803 229.51C311.042 229.959 294.255 236.131 289.771 237.825C289.06 238.096 288.579 238.744 288.532 239.486Z" fill="#555555"/>
<path d="M293.415 98.9428H287.536C286.177 98.9428 285.038 97.8453 284.891 96.3924L284.588 93.3925C284.546 92.9796 284.677 92.572 284.949 92.2741C285.2 91.9971 285.539 91.8403 285.905 91.8403H295.778C296.154 91.8403 296.52 92.0128 296.771 92.3107C297.042 92.6347 297.157 93.0685 297.084 93.497L296.635 96.0684C296.337 97.7355 294.983 98.9428 293.415 98.9428ZM285.905 92.8856C285.822 92.8856 285.759 92.9326 285.722 92.9744C285.649 93.0528 285.613 93.1678 285.628 93.288L285.931 96.2879C286.025 97.2077 286.715 97.8975 287.536 97.8975H293.415C294.476 97.8975 295.396 97.0509 295.6 95.8854L296.049 93.3141C296.07 93.1939 296.039 93.0685 295.966 92.9796C295.929 92.9378 295.866 92.8803 295.772 92.8803H285.905V92.8856Z" fill="#555555"/>
<path d="M310.776 98.9433H304.343C302.88 98.9433 301.662 97.8458 301.5 96.3929L301.171 93.393C301.129 92.9958 301.254 92.5986 301.521 92.306C301.787 92.0081 302.169 91.8408 302.566 91.8408H313.369C313.787 91.8408 314.179 92.0237 314.451 92.3478C314.717 92.6718 314.827 93.0899 314.748 93.5028L314.257 96.0741C313.928 97.736 312.47 98.9433 310.776 98.9433ZM302.561 92.8861C302.425 92.8861 302.336 92.9592 302.294 93.0063C302.252 93.0481 302.19 93.1474 302.205 93.2833L302.535 96.2831C302.634 97.2029 303.413 97.898 304.338 97.898H310.771C311.963 97.898 312.987 97.0514 313.212 95.8807L313.703 93.3094C313.729 93.1683 313.667 93.0638 313.63 93.0167C313.588 92.9697 313.499 92.8861 313.353 92.8861H302.561Z" fill="#555555"/>
<path d="M301.856 95.4048C301.777 95.4048 301.694 95.3839 301.615 95.3473C300.675 94.8665 297.957 93.8265 296.708 94.7777C296.478 94.9501 296.149 94.9083 295.976 94.6784C295.804 94.4484 295.846 94.1192 296.076 93.9467C298.103 92.405 301.929 94.3334 302.091 94.4171C302.347 94.5477 302.452 94.8613 302.316 95.1226C302.232 95.3003 302.049 95.4048 301.856 95.4048Z" fill="#555555"/>
<path d="M314.227 93.9311C313.991 93.9311 313.782 93.7743 313.72 93.5391C313.646 93.2569 313.819 92.9746 314.096 92.9015C314.733 92.7395 329.675 88.9452 331.123 88.6996C331.41 88.6525 331.677 88.8407 331.724 89.1281C331.771 89.4156 331.583 89.6821 331.295 89.7292C329.89 89.9696 314.504 93.8736 314.352 93.9154C314.31 93.9258 314.268 93.9311 314.227 93.9311Z" fill="#555555"/>
<path d="M285.231 93.2934C285.064 93.2934 284.902 93.215 284.803 93.0687C284.635 92.8335 284.698 92.5043 284.933 92.3423L287.066 90.8632C287.301 90.696 287.63 90.7587 287.792 90.9939C287.959 91.2291 287.897 91.5583 287.661 91.7203L285.529 93.1994C285.435 93.2621 285.33 93.2934 285.231 93.2934Z" fill="#555555"/>
<path d="M229.356 186.473C229.346 186.473 229.336 186.473 229.32 186.473C229.032 186.452 228.813 186.206 228.834 185.919C229.963 168.421 237.029 164.737 237.326 164.585C237.588 164.454 237.896 164.564 238.027 164.82C238.152 165.076 238.048 165.39 237.792 165.521C237.724 165.557 230.961 169.174 229.874 185.987C229.863 186.264 229.633 186.473 229.356 186.473Z" fill="#555555"/>
<path d="M228.803 36.1395C229.629 36.0611 230.46 35.9723 231.286 35.9096C231.395 35.8991 231.573 35.988 231.62 36.0821C231.887 36.6256 232.122 37.19 232.378 37.7388C232.462 37.9217 232.435 38.0628 232.294 38.1935C231.646 38.784 231.003 39.385 230.34 39.9599C230.157 40.1167 230.099 40.2474 230.167 40.4826C230.314 40.9947 230.444 41.5173 230.538 42.04C230.585 42.3065 230.721 42.3744 230.951 42.4372C231.793 42.6514 232.629 42.8971 233.465 43.1218C233.679 43.1793 233.763 43.3256 233.768 43.5347C233.789 44.1043 233.82 44.674 233.847 45.2437C233.857 45.4736 233.773 45.6356 233.538 45.714C232.697 46.0015 231.861 46.3046 231.019 46.5763C230.831 46.6391 230.768 46.7279 230.747 46.9056C230.669 47.47 230.596 48.0345 230.486 48.5937C230.434 48.8498 230.512 48.9804 230.711 49.1268C231.401 49.6389 232.07 50.1825 232.749 50.7103C232.927 50.8514 232.969 51.0082 232.885 51.2277C232.671 51.7765 232.482 52.3357 232.263 52.8792C232.221 52.9785 232.064 53.0987 231.96 53.0987C231.244 53.0987 230.512 53.1301 229.807 53.0203C229.19 52.9262 228.782 52.9994 228.542 53.6422C228.406 54.0028 228.155 54.3269 227.925 54.6457C227.795 54.8286 227.8 54.954 227.915 55.1422C228.354 55.8686 228.767 56.616 229.195 57.3476C229.347 57.6037 229.315 57.8075 229.106 58.0218C228.725 58.4086 228.364 58.811 227.998 59.2186C227.852 59.3806 227.69 59.4172 227.497 59.3284C226.687 58.9416 225.877 58.5549 225.072 58.1577C224.915 58.0793 224.805 58.0793 224.664 58.1786C224.173 58.5392 223.687 58.8998 223.185 59.2448C223.039 59.3493 223.007 59.4486 223.033 59.621C223.159 60.52 223.263 61.4189 223.378 62.3178C223.405 62.5164 223.331 62.6418 223.133 62.7307C222.6 62.9606 222.077 63.2167 221.554 63.4676C221.372 63.5564 221.22 63.5512 221.079 63.3892C220.488 62.7254 219.887 62.0722 219.312 61.398C219.15 61.2098 219.014 61.1628 218.785 61.2255C218.225 61.3823 217.661 61.5234 217.096 61.6593C216.919 61.7011 216.851 61.7952 216.804 61.9781C216.584 62.8404 216.339 63.6923 216.109 64.5494C216.051 64.7584 215.926 64.8368 215.727 64.8421C215.121 64.863 214.509 64.8995 213.903 64.8995C213.799 64.8995 213.642 64.7741 213.605 64.6696C213.297 63.8543 212.999 63.039 212.733 62.2133C212.638 61.9258 212.534 61.7847 212.21 61.7586C211.687 61.7115 211.17 61.6122 210.658 61.5077C210.412 61.4555 210.271 61.5077 210.119 61.7168C209.628 62.391 209.111 63.039 208.604 63.7027C208.426 63.9327 208.228 63.9954 207.945 63.8752C207.491 63.6818 207.025 63.4989 206.555 63.3474C206.273 63.2533 206.163 63.086 206.179 62.8091C206.226 61.9624 206.257 61.1105 206.325 60.2639C206.346 60.0078 206.283 59.8824 206.059 59.7517C205.562 59.4695 205.081 59.1559 204.606 58.8423C204.438 58.7326 204.324 58.743 204.151 58.8476C203.414 59.2866 202.662 59.7047 201.914 60.1332C201.689 60.2639 201.501 60.243 201.308 60.0548C200.926 59.6838 200.534 59.3231 200.137 58.9678C199.975 58.8214 199.923 58.6751 200.022 58.4713C200.399 57.6664 200.764 56.8616 201.156 56.062C201.261 55.8477 201.256 55.7066 201.104 55.5132C200.764 55.0794 200.446 54.6248 200.148 54.1648C200.033 53.9872 199.918 53.9767 199.73 54.0028C198.873 54.1335 198.01 54.238 197.148 54.3582C196.902 54.3948 196.766 54.2955 196.667 54.076C196.448 53.5691 196.212 53.0726 195.977 52.5708C195.878 52.3618 195.878 52.1841 196.066 52.0169C196.719 51.4315 197.362 50.8305 198.026 50.2556C198.183 50.1197 198.23 50.01 198.172 49.8009C198.015 49.2313 197.885 48.6564 197.759 48.0815C197.712 47.8568 197.603 47.7679 197.378 47.7104C196.563 47.5014 195.758 47.261 194.948 47.031C194.681 46.9579 194.55 46.8063 194.55 46.5084C194.55 45.9753 194.524 45.4423 194.498 44.9092C194.483 44.6583 194.634 44.5486 194.822 44.4806C195.627 44.1827 196.437 43.8796 197.252 43.6131C197.477 43.5399 197.571 43.4458 197.597 43.2211C197.676 42.6567 197.765 42.0922 197.869 41.533C197.906 41.3397 197.848 41.2299 197.691 41.1097C196.97 40.5557 196.265 39.9861 195.554 39.4268C195.408 39.3119 195.376 39.176 195.439 39.0035C195.638 38.4809 195.852 37.9583 196.029 37.4252C196.124 37.1482 196.301 37.0646 196.563 37.0803C197.373 37.1273 198.188 37.1639 198.998 37.2371C199.275 37.2632 199.437 37.2214 199.578 36.9548C199.839 36.4688 200.143 36.0037 200.451 35.549C200.576 35.3608 200.555 35.2354 200.446 35.0473C199.996 34.2842 199.573 33.5003 199.134 32.732C199.024 32.5334 199.061 32.3871 199.207 32.2303C199.589 31.8279 199.965 31.4255 200.331 31.0126C200.487 30.8349 200.649 30.8088 200.853 30.9029C201.637 31.2791 202.426 31.645 203.205 32.0369C203.419 32.1467 203.56 32.1519 203.754 32.0004C204.198 31.6554 204.658 31.3366 205.118 31.0178C205.259 30.9185 205.317 30.8245 205.29 30.6468C205.17 29.8419 205.06 29.0371 204.961 28.227C204.888 27.6521 204.904 27.626 205.416 27.3856C205.844 27.1818 206.289 27.0041 206.722 26.795C206.937 26.6905 207.099 26.7323 207.25 26.8943C207.815 27.5215 208.39 28.1329 208.933 28.7758C209.132 29.011 209.299 29.0841 209.597 28.9953C210.099 28.8437 210.611 28.734 211.123 28.6242C211.316 28.5824 211.395 28.4883 211.442 28.295C211.672 27.417 211.922 26.5494 212.163 25.6714C212.215 25.478 212.325 25.3996 212.529 25.3996C213.088 25.3892 213.652 25.3683 214.212 25.3369C214.431 25.3265 214.572 25.3996 214.645 25.6087C214.933 26.4083 215.241 27.2027 215.508 28.0127C215.602 28.295 215.706 28.4465 216.036 28.4726C216.548 28.5145 217.055 28.619 217.556 28.7235C217.792 28.7705 217.912 28.6922 218.042 28.5145C218.549 27.8194 219.077 27.14 219.595 26.4553C219.746 26.2567 219.913 26.2045 220.154 26.3038C220.692 26.5233 221.236 26.7271 221.779 26.9205C222.009 27.0041 222.04 27.1765 222.035 27.3647C221.993 28.2166 221.957 29.0632 221.894 29.9099C221.873 30.1555 221.915 30.3018 222.145 30.4273C222.626 30.699 223.091 30.9917 223.556 31.2948C223.739 31.415 223.864 31.4046 224.058 31.2896C224.826 30.8245 225.61 30.3907 226.389 29.9412C226.551 29.8471 226.676 29.8681 226.812 29.9987C227.256 30.4273 227.711 30.8454 228.166 31.2635C228.296 31.3837 228.317 31.5143 228.244 31.6659C227.862 32.4655 227.497 33.2756 227.094 34.0647C226.984 34.2842 226.984 34.4201 227.136 34.6083C227.465 35.0159 227.768 35.4445 228.066 35.873C228.385 36.3538 228.281 36.2963 228.803 36.1395ZM211.431 32.9777C204.606 34.4985 200.733 41.1933 202.024 47.5171C203.513 54.8181 210.443 58.6071 216.605 57.3424C223.483 55.9313 227.612 49.2783 226.3 42.7507C224.857 35.5228 217.833 31.4621 211.431 32.9777Z" fill="#555555"/>
<path d="M233.95 31.4674C234.28 31.3942 234.614 31.3315 234.933 31.2322C235.037 31.2009 235.152 31.0911 235.194 30.9918C235.403 30.4692 235.581 29.9413 235.785 29.4187C235.848 29.2567 235.821 29.1522 235.722 29.0111C235.252 28.3369 234.797 27.6522 234.342 26.9676C234.243 26.8213 234.217 26.6697 234.353 26.5077C234.729 26.053 235.09 25.5879 235.456 25.128C235.571 24.9816 235.701 24.9398 235.874 25.0078C236.631 25.3004 237.395 25.5827 238.147 25.891C238.335 25.9642 238.455 25.9642 238.628 25.8387C239.046 25.5252 239.49 25.243 239.934 24.966C240.091 24.8667 240.149 24.7674 240.154 24.5844C240.17 23.7796 240.206 22.98 240.232 22.1751C240.238 21.94 240.326 21.7989 240.572 21.7361C241.126 21.595 241.67 21.433 242.218 21.271C242.422 21.2083 242.548 21.3128 242.642 21.4592C243.065 22.0863 243.494 22.7134 243.885 23.3563C244.037 23.6071 244.168 23.743 244.492 23.7273C244.957 23.7064 245.427 23.7535 245.892 23.7953C246.112 23.8162 246.248 23.7535 246.389 23.5706C246.844 22.9539 247.324 22.3528 247.795 21.7518C247.952 21.5532 248.134 21.4853 248.38 21.5846C248.903 21.7884 249.436 21.9713 249.948 22.1908C250.052 22.2379 250.167 22.4156 250.167 22.5305C250.157 23.3354 250.126 24.135 250.073 24.9346C250.058 25.1646 250.105 25.3109 250.303 25.452C250.706 25.7447 251.092 26.0582 251.458 26.3875C251.641 26.5495 251.788 26.5495 252.012 26.4816C252.775 26.2516 253.544 26.0582 254.307 25.844C254.5 25.7917 254.625 25.8544 254.73 26.0164C255.049 26.5129 255.383 26.999 255.686 27.5007C255.744 27.5948 255.728 27.7934 255.665 27.8822C255.279 28.4205 254.897 28.9693 254.448 29.4553C254.103 29.8316 253.894 30.1452 254.155 30.6678C254.328 31.0127 254.375 31.4204 254.448 31.8071C254.484 32.0057 254.584 32.0789 254.761 32.1416C255.477 32.3872 256.188 32.6538 256.899 32.9098C257.197 33.0196 257.348 33.2077 257.322 33.5422C257.28 34.091 257.28 34.645 257.228 35.1937C257.218 35.293 257.077 35.4341 256.972 35.4707C256.366 35.6588 255.76 35.8679 255.138 35.9776C254.584 36.0769 254.223 36.2703 254.124 36.8766C254.066 37.2267 253.889 37.5664 253.727 37.8957C253.627 38.0995 253.664 38.2302 253.789 38.4026C254.218 39.0036 254.625 39.6151 255.049 40.2214C255.242 40.5036 255.258 40.7544 255.023 41.0314C254.678 41.4338 254.359 41.8676 254.014 42.27C253.951 42.3432 253.774 42.4007 253.679 42.3693C252.927 42.108 252.18 41.8467 251.448 41.5436C251.181 41.4338 251.004 41.4182 250.763 41.6063C250.397 41.8885 249.99 42.1342 249.598 42.3798C249.415 42.4948 249.336 42.6045 249.336 42.8449C249.336 43.6393 249.284 44.4337 249.258 45.2229C249.248 45.479 249.117 45.6096 248.877 45.6723C248.323 45.8082 247.769 45.9598 247.215 46.0747C247.121 46.0956 246.953 46.0173 246.891 45.9336C246.425 45.2542 245.971 44.5696 245.532 43.8745C245.432 43.7177 245.333 43.655 245.155 43.6498C244.596 43.6341 244.037 43.5871 243.473 43.5818C243.363 43.5818 243.222 43.6811 243.143 43.7752C242.668 44.3762 242.208 44.9877 241.743 45.5992C241.549 45.85 241.325 45.9023 241.032 45.7768C240.577 45.5835 240.107 45.4162 239.642 45.2438C239.412 45.1602 239.297 45.0086 239.313 44.7577C239.36 43.9581 239.391 43.1533 239.454 42.3537C239.469 42.176 239.422 42.0819 239.292 41.9774C238.863 41.6481 238.435 41.3136 238.016 40.9635C237.865 40.8381 237.739 40.8224 237.557 40.8799C236.788 41.1098 236.01 41.3189 235.236 41.5488C235.048 41.6063 234.912 41.5697 234.802 41.4025C234.489 40.9269 234.186 40.4461 233.851 39.9809C233.694 39.7614 233.736 39.5838 233.882 39.4008C234.363 38.7946 234.844 38.1831 235.346 37.5873C235.492 37.4149 235.529 37.2842 235.456 37.0699C235.294 36.5839 235.158 36.0874 235.037 35.5857C234.99 35.3871 234.902 35.293 234.708 35.2251C233.94 34.9533 233.187 34.6606 232.419 34.3836C232.241 34.3157 232.168 34.2007 232.179 34.023C232.205 33.4272 232.221 32.8262 232.268 32.2304C232.278 32.1155 232.414 31.9587 232.524 31.9116C232.984 31.7339 233.459 31.5928 233.935 31.4413C233.945 31.4465 233.95 31.457 233.95 31.4674ZM243.619 28.4466C240.588 29.0947 238.973 32.1102 239.542 34.8017C240.164 37.7337 243.138 39.5367 245.83 38.9566C248.85 38.3033 250.559 35.3557 249.985 32.6172C249.321 29.4971 246.263 27.7934 243.619 28.4466Z" fill="#3D8FEC"/>
<path d="M212.409 36.9285C216.746 35.9355 221.398 38.7629 222.338 43.4822C223.211 47.867 220.551 52.555 215.487 53.4068C211.259 54.1176 206.884 51.3634 205.975 46.6493C205.144 42.3481 207.83 37.9006 212.409 36.9285ZM215.147 49.5603C217.556 49.1056 219.109 46.5448 218.602 44.2139C218.09 41.8516 215.759 40.0851 213.109 40.6966C210.705 41.2506 209.184 43.7017 209.733 46.1162C210.329 48.698 212.895 50.1143 215.147 49.5603Z" fill="#555555"/>
<path d="M252.697 115.416H197.702V116.461H252.697V115.416Z" fill="#555555"/>
<path d="M193.37 115.417H150.577V116.462H193.37V115.417Z" fill="#555555"/>
<path d="M146.939 115.417H139.999V116.462H146.939V115.417Z" fill="#555555"/>
<path d="M252.692 123.156H213.422V124.201H252.692V123.156Z" fill="#555555"/>
<path d="M210.02 123.156H179.222V124.201H210.02V123.156Z" fill="#555555"/>
<path d="M175.161 123.156H139.999V124.201H175.161V123.156Z" fill="#555555"/>
<path d="M252.692 130.896H227.784V131.942H252.692V130.896Z" fill="#555555"/>
<path d="M223.895 130.896H164.535V131.941H223.895V130.896Z" fill="#555555"/>
<path d="M161.149 130.896H139.999V131.942H161.149V130.896Z" fill="#555555"/>
<path d="M211.248 138.481L207.312 138.491L207.315 139.536L211.25 139.526L211.248 138.481Z" fill="#555555"/>
<path d="M203.909 138.486L139.998 138.642L140 139.687L203.912 139.531L203.909 138.486Z" fill="#555555"/>
<path d="M216.808 316.815C228.584 316.815 238.131 307.268 238.131 295.492C238.131 283.715 228.584 274.168 216.808 274.168C205.031 274.168 195.485 283.715 195.485 295.492C195.485 307.268 205.031 316.815 216.808 316.815Z" fill="white"/>
<path d="M216.823 317.343C216.233 317.343 215.642 317.317 215.041 317.27C203.031 316.297 194.058 305.735 195.03 293.731C196.002 281.726 206.57 272.752 218.569 273.719C230.579 274.691 239.552 285.254 238.58 297.258C237.66 308.667 228.075 317.343 216.823 317.343ZM216.792 274.691C206.073 274.691 196.953 282.949 196.07 293.814C195.145 305.249 203.695 315.305 215.125 316.23C220.665 316.679 226.048 314.944 230.281 311.343C234.514 307.742 237.091 302.709 237.54 297.175C237.99 291.635 236.255 286.257 232.654 282.019C229.053 277.785 224.02 275.209 218.485 274.759C217.921 274.712 217.351 274.691 216.792 274.691Z" fill="#555555"/>
<path d="M215.089 317.275C215.031 317.275 214.974 317.264 214.916 317.243C214.488 317.092 204.427 313.376 206 294.619C207.574 275.867 217.995 273.803 218.439 273.724C218.512 273.709 218.585 273.714 218.658 273.73C219.113 273.845 229.738 276.724 228.097 296.715C226.456 316.726 215.564 317.259 215.105 317.269C215.094 317.275 215.089 317.275 215.089 317.275ZM218.512 274.78C217.404 275.057 208.462 277.837 207.046 294.708C205.619 311.683 214.206 315.816 215.178 316.224C216.312 316.135 225.562 314.871 227.057 296.631C228.526 278.658 219.61 275.141 218.512 274.78Z" fill="#555555"/>
<path d="M219.986 286.534C219.401 286.534 218.795 286.523 218.168 286.508C206.633 286.163 201.747 280.79 201.543 280.56C201.35 280.346 201.37 280.017 201.59 279.823C201.809 279.63 202.133 279.651 202.327 279.865C202.374 279.917 207.151 285.128 218.199 285.462C229.305 285.802 233.977 282.896 234.024 282.865C234.27 282.708 234.588 282.781 234.745 283.022C234.902 283.262 234.834 283.586 234.588 283.743C234.405 283.863 230.146 286.534 219.986 286.534Z" fill="#555555"/>
<path d="M231.85 311.134C231.772 311.134 231.688 311.113 231.61 311.077C231.526 311.035 223.358 306.854 216.187 306.405C208.996 305.95 199.913 308.657 199.819 308.683C199.542 308.767 199.249 308.61 199.165 308.333C199.082 308.056 199.239 307.763 199.516 307.68C199.892 307.565 208.871 304.889 216.25 305.354C223.645 305.819 231.746 309.964 232.086 310.141C232.342 310.272 232.441 310.591 232.31 310.847C232.221 311.03 232.038 311.134 231.85 311.134Z" fill="#555555"/>
<path d="M215.089 317.274C215.073 317.274 215.063 317.274 215.047 317.274C214.76 317.253 214.545 316.997 214.566 316.71L218.01 274.2C218.031 273.912 218.282 273.698 218.575 273.719C218.862 273.74 219.076 273.996 219.056 274.283L215.611 316.793C215.585 317.065 215.355 317.274 215.089 317.274Z" fill="#555555"/>
<path d="M238.063 297.739C238.047 297.739 238.036 297.739 238.021 297.739L195.511 294.295C195.223 294.274 195.009 294.018 195.03 293.73C195.051 293.443 195.301 293.229 195.594 293.249L238.104 296.694C238.392 296.714 238.606 296.971 238.585 297.258C238.559 297.53 238.334 297.739 238.063 297.739Z" fill="#555555"/>
<path d="M116.6 55.7012L57.7367 56.689C54.4233 56.7465 51.69 54.102 51.6325 50.7885L51.3712 35.4025C51.3137 32.0891 53.9581 29.3557 57.2716 29.2982L116.135 28.3105C119.448 28.253 122.181 30.8975 122.239 34.2109L122.5 49.597C122.558 52.9104 119.913 55.6437 116.6 55.7012Z" fill="#AAB7D4"/>
<path d="M57.6323 57.2171C54.0837 57.2171 51.1674 54.3636 51.1099 50.7993L50.8486 35.4133C50.8173 33.6729 51.4705 32.0214 52.683 30.7671C53.8955 29.5128 55.5209 28.8073 57.2664 28.7759L116.13 27.7882C119.71 27.7411 122.704 30.6051 122.767 34.2008L123.028 49.5868C123.06 51.3272 122.406 52.9786 121.194 54.2329C119.981 55.4872 118.356 56.1928 116.61 56.2241L57.7473 57.2119C57.7107 57.2171 57.6741 57.2171 57.6323 57.2171ZM116.245 28.8334C116.213 28.8334 116.182 28.8334 116.15 28.8334L57.2873 29.8212C55.824 29.8473 54.4547 30.4379 53.4408 31.4936C52.4217 32.544 51.8782 33.9342 51.8991 35.3976L52.1604 50.7836C52.2127 53.773 54.6585 56.1719 57.6375 56.1719C57.6689 56.1719 57.7002 56.1719 57.7316 56.1719L116.595 55.1841C118.058 55.158 119.427 54.5674 120.441 53.5117C121.46 52.4612 122.004 51.0711 121.983 49.6077L121.722 34.2217C121.696 32.7583 121.105 31.389 120.049 30.3752C119.02 29.3769 117.671 28.8334 116.245 28.8334Z" fill="#555555"/>
<path d="M57.9608 37.8711C57.9608 37.806 57.9673 37.6953 57.9803 37.5391C57.9803 37.3698 57.9803 37.2005 57.9803 37.0312C57.9803 36.849 57.9869 36.6797 57.9999 36.5234C57.9999 36.3672 57.9999 36.263 57.9999 36.2109C58.3254 35.8594 58.5923 35.651 58.8007 35.5859C59.022 35.5208 59.1978 35.5599 59.328 35.7031C59.4582 35.8333 59.5494 36.0482 59.6014 36.3477C59.6665 36.6471 59.7121 36.9857 59.7382 37.3633C59.7642 37.7409 59.7772 38.138 59.7772 38.5547C59.7772 38.9714 59.7837 39.362 59.7968 39.7266C59.8098 40.0781 59.8358 40.3906 59.8749 40.6641C59.9139 40.9375 59.9856 41.1198 60.0897 41.2109H66.7889C67.0624 41.2109 67.2577 41.1263 67.3749 40.957C67.4921 40.7878 67.5572 40.5664 67.5702 40.293C67.5962 40.0195 67.5897 39.707 67.5507 39.3555C67.5116 39.0039 67.4725 38.6458 67.4335 38.2812C67.4074 37.9036 67.3944 37.5391 67.3944 37.1875C67.4074 36.8229 67.466 36.5039 67.5702 36.2305C67.6874 35.957 67.8632 35.7357 68.0975 35.5664C68.3319 35.3971 68.677 35.3125 69.1327 35.3125C69.302 35.5599 69.4061 35.8333 69.4452 36.1328C69.4843 36.4193 69.4908 36.7188 69.4647 37.0312C69.4517 37.3438 69.4191 37.6562 69.3671 37.9688C69.328 38.2682 69.3085 38.5612 69.3085 38.8477C69.3085 39.6159 69.354 40.3841 69.4452 41.1523C69.5494 41.9206 69.6535 42.6888 69.7577 43.457C69.8749 44.2253 69.979 44.9935 70.0702 45.7617C70.1744 46.5169 70.2264 47.2656 70.2264 48.0078C70.2525 48.8151 70.2004 49.3945 70.0702 49.7461C69.94 50.0846 69.7772 50.2344 69.5819 50.1953C69.3866 50.1693 69.1652 49.974 68.9178 49.6094C68.6835 49.2448 68.4621 48.7565 68.2538 48.1445C68.0585 47.5326 67.8957 46.8164 67.7655 45.9961C67.6483 45.1628 67.6027 44.2643 67.6288 43.3008H60.578C60.6691 44.1992 60.7863 45.0456 60.9296 45.8398C61.0858 46.6341 61.203 47.3372 61.2811 47.9492C61.3723 48.5482 61.4048 49.0299 61.3788 49.3945C61.3658 49.7461 61.2356 49.9284 60.9882 49.9414C60.6106 49.9414 60.2915 49.8177 60.0311 49.5703C59.7707 49.3099 59.5428 48.9583 59.3475 48.5156C59.1652 48.0729 59.0155 47.5586 58.8983 46.9727C58.7811 46.3737 58.6835 45.7487 58.6053 45.0977C58.5272 44.4336 58.4621 43.7565 58.41 43.0664C58.371 42.3763 58.3319 41.7122 58.2928 41.0742C58.2538 40.4362 58.2082 39.8438 58.1561 39.2969C58.104 38.737 58.0389 38.2617 57.9608 37.8711ZM78.9374 38.2812C78.8853 38.099 78.7811 37.9753 78.6249 37.9102C78.4816 37.8451 78.3189 37.8125 78.1366 37.8125C77.9673 37.7995 77.7981 37.806 77.6288 37.832C77.4595 37.8581 77.3293 37.8711 77.2382 37.8711C77.0168 37.8581 76.6327 37.832 76.0858 37.793C75.5389 37.7539 74.9465 37.7148 74.3085 37.6758C73.6835 37.6237 73.0975 37.5781 72.5507 37.5391C72.0038 37.487 71.6197 37.4544 71.3983 37.4414C71.3983 37.4154 71.3918 37.3503 71.3788 37.2461C71.3658 37.1419 71.3593 37.0703 71.3593 37.0312C71.3593 36.849 71.3723 36.6862 71.3983 36.543C71.4374 36.3997 71.5676 36.2891 71.7889 36.2109C73.0129 36.237 74.2173 36.2305 75.4022 36.1914C76.6001 36.1523 77.7915 36.1003 78.9764 36.0352C80.1744 35.957 81.3658 35.8854 82.5507 35.8203C83.7486 35.7552 84.953 35.7227 86.1639 35.7227C86.1639 36.2174 86.0468 36.582 85.8124 36.8164C85.578 37.0378 85.285 37.1875 84.9335 37.2656C84.5949 37.3438 84.2173 37.3763 83.8007 37.3633C83.384 37.3503 82.9803 37.3568 82.5897 37.3828C82.2121 37.4089 81.8736 37.487 81.5741 37.6172C81.2876 37.7344 81.0988 37.9557 81.0077 38.2812C80.9947 38.3594 80.9816 38.5091 80.9686 38.7305C80.9556 38.9518 80.9426 39.1862 80.9296 39.4336C80.9296 39.681 80.9231 39.9154 80.91 40.1367C80.91 40.3451 80.91 40.4948 80.91 40.5859C80.91 41.3281 81.0012 42.0638 81.1835 42.793C81.3788 43.5091 81.5871 44.2253 81.8085 44.9414C82.0428 45.6445 82.2512 46.3542 82.4335 47.0703C82.6288 47.7734 82.7264 48.4896 82.7264 49.2188C82.7264 49.7656 82.4139 50.0391 81.7889 50.0391C81.4113 50.0391 81.0728 49.7786 80.7733 49.2578C80.4869 48.737 80.233 48.0729 80.0116 47.2656C79.8033 46.4583 79.6275 45.5794 79.4843 44.6289C79.354 43.6784 79.2434 42.7669 79.1522 41.8945C79.0741 41.0221 79.0155 40.2539 78.9764 39.5898C78.9504 38.9258 78.9374 38.4896 78.9374 38.2812ZM87.2577 41.6406C87.2577 41.4844 87.2577 41.2305 87.2577 40.8789C87.2707 40.5143 87.2772 40.1367 87.2772 39.7461C87.2772 39.3424 87.2772 38.9648 87.2772 38.6133C87.2902 38.2617 87.2968 38.0143 87.2968 37.8711C87.3098 37.7799 87.3423 37.6432 87.3944 37.4609C87.4465 37.2656 87.5051 37.0768 87.5702 36.8945C87.6483 36.7122 87.746 36.556 87.8632 36.4258C87.9934 36.2826 88.1496 36.2109 88.3319 36.2109C88.7616 36.2109 89.1652 36.3281 89.5428 36.5625C89.9205 36.7969 90.285 37.1094 90.6366 37.5C90.9882 37.8776 91.3202 38.3008 91.6327 38.7695C91.9582 39.2383 92.2772 39.707 92.5897 40.1758C92.9022 40.6315 93.2082 41.0677 93.5077 41.4844C93.8072 41.888 94.1066 42.2135 94.4061 42.4609C94.7316 42.3177 94.9856 42.0573 95.1678 41.6797C95.3501 41.2891 95.4999 40.8464 95.6171 40.3516C95.7343 39.8438 95.8384 39.3229 95.9296 38.7891C96.0337 38.2422 96.1705 37.7409 96.3397 37.2852C96.509 36.8294 96.7303 36.4583 97.0038 36.1719C97.2902 35.8724 97.6809 35.7227 98.1757 35.7227C98.7616 35.7227 99.2889 35.9505 99.7577 36.4062C100.239 36.862 100.669 37.4414 101.047 38.1445C101.424 38.8477 101.743 39.6289 102.004 40.4883C102.277 41.3477 102.505 42.1745 102.687 42.9688C102.87 43.763 103.006 44.4792 103.098 45.1172C103.189 45.7552 103.234 46.2109 103.234 46.4844C103.234 46.6016 103.228 46.7318 103.215 46.875C103.202 47.0052 103.169 47.1289 103.117 47.2461C103.065 47.3503 102.98 47.4349 102.863 47.5C102.746 47.5521 102.577 47.5456 102.355 47.4805C102.29 47.4674 102.212 47.4349 102.121 47.3828C102.043 47.3177 101.958 47.2396 101.867 47.1484C101.776 47.0573 101.698 46.9727 101.633 46.8945C101.568 46.8034 101.535 46.7253 101.535 46.6602C101.418 46.0221 101.288 45.3125 101.144 44.5312C101.001 43.75 100.819 42.9622 100.598 42.168C100.389 41.3607 100.122 40.5794 99.7968 39.8242C99.4712 39.069 99.0676 38.418 98.5858 37.8711C98.2082 38.0794 97.9087 38.3984 97.6874 38.8281C97.479 39.2448 97.3033 39.707 97.16 40.2148C97.0168 40.7096 96.8866 41.2174 96.7694 41.7383C96.6522 42.2591 96.496 42.7344 96.3007 43.1641C96.1053 43.5807 95.858 43.9258 95.5585 44.1992C95.259 44.4727 94.8553 44.6094 94.3475 44.6094C93.996 44.6094 93.6509 44.4987 93.3124 44.2773C92.9869 44.043 92.6678 43.7435 92.3553 43.3789C92.0428 43.0013 91.7369 42.5911 91.4374 42.1484C91.1509 41.6927 90.8645 41.25 90.578 40.8203C90.3046 40.3776 90.0311 39.9674 89.7577 39.5898C89.4973 39.2122 89.2303 38.9128 88.9569 38.6914C88.8527 39.0951 88.7681 39.4531 88.703 39.7656C88.6509 40.0651 88.6053 40.3581 88.5663 40.6445C88.5402 40.931 88.5207 41.224 88.5077 41.5234C88.5077 41.8229 88.5077 42.1549 88.5077 42.5195C88.5077 43.0664 88.5533 43.6133 88.6444 44.1602C88.7356 44.694 88.8332 45.2279 88.9374 45.7617C89.0415 46.2956 89.1392 46.8359 89.2303 47.3828C89.3345 47.9167 89.3866 48.457 89.3866 49.0039V49.1602C89.3606 49.1992 89.3085 49.2643 89.2303 49.3555C89.1522 49.4336 89.0676 49.5182 88.9764 49.6094C88.8983 49.7005 88.8137 49.7852 88.7225 49.8633C88.6314 49.9284 88.5663 49.974 88.5272 50C88.5142 50.013 88.4882 50.0195 88.4491 50.0195C88.41 50.0326 88.371 50.0391 88.3319 50.0391C88.3059 50.0391 88.2733 50.0326 88.2343 50.0195C88.1952 50.0065 88.1626 50 88.1366 50C88.0455 49.2448 87.9478 48.5286 87.8436 47.8516C87.7395 47.1745 87.6418 46.5039 87.5507 45.8398C87.4725 45.1758 87.4009 44.5052 87.3358 43.8281C87.2837 43.151 87.2577 42.4219 87.2577 41.6406ZM104.016 37.1875C104.016 36.9271 104.1 36.7578 104.269 36.6797C104.452 36.6016 104.647 36.5625 104.855 36.5625C104.894 36.5625 104.966 36.569 105.07 36.582C105.187 36.5951 105.259 36.6016 105.285 36.6016C105.324 37.0052 105.363 37.4935 105.402 38.0664C105.441 38.6263 105.487 39.2383 105.539 39.9023C105.591 40.5534 105.656 41.2305 105.734 41.9336C105.812 42.6367 105.923 43.3268 106.066 44.0039C106.21 44.668 106.385 45.306 106.594 45.918C106.802 46.5169 107.056 47.0378 107.355 47.4805C107.42 47.5977 107.479 47.6888 107.531 47.7539C107.596 47.806 107.655 47.8516 107.707 47.8906C107.772 47.9167 107.844 47.9362 107.922 47.9492C108 47.9492 108.098 47.9492 108.215 47.9492C108.749 47.9492 109.256 47.8581 109.738 47.6758C110.233 47.4935 110.721 47.2917 111.203 47.0703C111.685 46.849 112.173 46.6471 112.668 46.4648C113.163 46.2826 113.683 46.1914 114.23 46.1914C114.348 46.1914 114.497 46.1914 114.68 46.1914C114.862 46.1784 115.031 46.1849 115.187 46.2109C115.344 46.237 115.48 46.3021 115.598 46.4062C115.715 46.5104 115.773 46.6667 115.773 46.875C115.773 47.0703 115.598 47.2852 115.246 47.5195C114.894 47.7409 114.445 47.9688 113.898 48.2031C113.351 48.4245 112.752 48.6458 112.101 48.8672C111.463 49.0885 110.845 49.2839 110.246 49.4531C109.66 49.6224 109.139 49.7591 108.683 49.8633C108.228 49.9544 107.928 50 107.785 50C107.316 50 106.9 49.8438 106.535 49.5312C106.183 49.2057 105.871 48.776 105.598 48.2422C105.337 47.6953 105.116 47.0768 104.933 46.3867C104.751 45.6836 104.601 44.9544 104.484 44.1992C104.367 43.444 104.276 42.6953 104.211 41.9531C104.146 41.2109 104.1 40.5208 104.074 39.8828C104.048 39.2448 104.029 38.6849 104.016 38.2031C104.016 37.7214 104.016 37.3828 104.016 37.1875Z" fill="white"/>
<path d="M358.723 59.7728L352.796 56.1144C352.509 55.9367 352.362 55.6441 352.457 55.435L355.77 48.1914C355.88 47.9563 356.246 47.9249 356.57 48.1235L364.174 52.8167C364.498 53.0153 364.634 53.3602 364.472 53.5588L359.481 59.7676C359.339 59.9505 359.01 59.9505 358.723 59.7728Z" fill="#3D8FEC"/>
<path d="M359.157 60.4316C358.927 60.4316 358.681 60.3636 358.451 60.2225L352.524 56.5641C352.002 56.2401 351.777 55.6757 351.986 55.221L355.3 47.9774C355.399 47.7579 355.592 47.5907 355.838 47.5175C356.151 47.4235 356.528 47.4862 356.847 47.6848L364.451 52.3779C364.77 52.5765 364.994 52.8849 365.052 53.2089C365.094 53.4598 365.036 53.7054 364.885 53.8935L359.893 60.1023C359.716 60.3166 359.449 60.4316 359.157 60.4316ZM352.969 55.5764C352.984 55.6025 353.021 55.6339 353.073 55.6705L359 59.3288C359.052 59.3602 359.099 59.3759 359.13 59.3811L363.991 53.3343C363.97 53.3134 363.944 53.2873 363.902 53.2612L356.298 48.568C356.261 48.5419 356.225 48.5314 356.198 48.521L352.969 55.5764Z" fill="#555555"/>
<path d="M354.589 61.1005L353.47 60.4106C353.115 60.1911 352.964 59.7678 353.12 59.4281L354.213 56.9927L357.322 58.9107L355.634 60.9751C355.389 61.2625 354.939 61.3148 354.589 61.1005Z" fill="#3D8FEC"/>
<path d="M355.048 61.7535C354.798 61.7535 354.542 61.6856 354.312 61.5445L353.193 60.8546C352.618 60.4992 352.378 59.7937 352.639 59.2136L353.731 56.7781C353.794 56.6423 353.909 56.5377 354.055 56.4907C354.197 56.4437 354.359 56.4646 354.484 56.543L357.594 58.461C357.724 58.5394 357.808 58.67 357.834 58.8216C357.86 58.9732 357.818 59.1247 357.724 59.2397L356.036 61.3041C355.785 61.5967 355.425 61.7535 355.048 61.7535ZM354.437 57.745L353.59 59.6369C353.543 59.7362 353.611 59.8825 353.737 59.9661L354.855 60.656C354.981 60.7344 355.143 60.7292 355.216 60.6403L356.527 59.0359L354.437 57.745Z" fill="#555555"/>
<path d="M364.467 53.8099L355.817 48.5418L355.77 48.3276C355.629 47.7109 352.457 33.0983 361.676 27.177C366.301 24.2085 371.898 24.6318 375.938 28.2588C379.649 31.5879 380.757 36.5999 378.698 40.7234C375.625 46.8799 371.172 49.6184 367.242 52.033C366.358 52.5765 365.522 53.0887 364.744 53.6217L364.467 53.8099ZM356.742 47.8833L364.435 52.5713C365.151 52.0957 365.904 51.6305 366.698 51.1445C370.508 48.8032 374.825 46.1482 377.762 40.2583C379.638 36.5006 378.651 32.0949 375.238 29.0375C372.442 26.5289 367.362 24.7677 362.235 28.055C354.213 33.2081 356.392 46.0698 356.742 47.8833Z" fill="#555555"/>
<path d="M361.356 51.2755L360.441 50.7737C360.891 49.9585 363.901 44.5075 366.472 41.032C366.049 40.8021 365.621 40.546 365.176 40.2742C363.295 44.3455 359.746 49.2163 359.182 49.9794L358.34 49.3574C359.793 47.3924 362.736 43.065 364.293 39.715C363.88 39.4485 363.467 39.1715 363.055 38.8945L362.845 38.7534C361.847 38.0792 361.575 36.8249 362.182 35.696C362.704 34.7292 363.896 33.9453 365.286 34.5201C365.772 34.724 366.107 35.1107 366.253 35.6386C366.493 36.5113 366.19 37.8179 365.594 39.3022C366.075 39.6 366.598 39.9084 367.115 40.1854C367.831 39.2917 368.485 38.6123 369.007 38.3039C370.471 37.4364 371.27 37.7343 371.683 38.1315C372.362 38.7952 372.321 40.1436 371.573 41.4972C371.364 41.8735 371.019 42.1295 370.58 42.2341C369.77 42.4274 368.662 42.1139 367.408 41.5129C365.26 44.4239 362.527 49.1379 361.356 51.2755ZM368.066 40.6662C368.986 41.0895 369.817 41.3456 370.34 41.2202C370.497 41.1836 370.596 41.1104 370.664 40.9902C371.181 40.06 371.234 39.1506 370.962 38.8841C370.805 38.7273 370.345 38.7325 369.546 39.2029C369.148 39.438 368.641 39.9607 368.066 40.6662ZM364.351 35.3772C363.797 35.3772 363.347 35.7431 363.107 36.1925C362.84 36.6943 362.762 37.4364 363.431 37.8911L363.64 38.0322C363.901 38.2099 364.277 38.4607 364.716 38.7482C365.192 37.5566 365.427 36.5531 365.25 35.926C365.187 35.7065 365.077 35.5706 364.889 35.4922C364.701 35.4138 364.523 35.3772 364.351 35.3772Z" fill="#555555"/>
<path d="M347.001 27.8101L346.504 28.7295L352.034 31.7203L352.532 30.8009L347.001 27.8101Z" fill="#555555"/>
<path d="M362.498 15.0186L361.506 15.3486L363.426 21.1211L364.418 20.7911L362.498 15.0186Z" fill="#555555"/>
<path d="M382.258 15.5297L377.101 23.2661L377.97 23.8459L383.128 16.1095L382.258 15.5297Z" fill="#555555"/>
<path d="M386.025 35.5172L385.873 36.5513L391.829 37.4297L391.981 36.3956L386.025 35.5172Z" fill="#555555"/>
<path d="M378.585 47.9068L378.014 48.7827L382.696 51.8315L383.266 50.9555L378.585 47.9068Z" fill="#555555"/>
<path d="M107.711 154.712C107.094 154.424 106.457 154.132 105.798 153.834L106.232 152.883C106.89 153.186 107.533 153.478 108.15 153.766L107.711 154.712ZM93.506 147.954C88.9957 145.566 85.2224 143.167 81.9664 140.632L82.6093 139.807C85.8182 142.31 89.5393 144.672 93.9972 147.029L93.506 147.954ZM72.439 130.791C69.7632 126.95 67.9131 122.733 66.9305 118.259L67.9497 118.034C68.9008 122.372 70.6987 126.464 73.2961 130.196L72.439 130.791ZM66.8835 104.66L65.8383 104.608C66.0891 99.4339 67.1814 94.955 69.0994 91.2967L70.0245 91.7827C68.1796 95.3052 67.1239 99.6378 66.8835 104.66ZM79.4422 82.7309L78.93 81.8215L79.8968 81.278C83.7172 79.1404 87.3233 77.1283 88.6874 73.355L89.6699 73.7104C88.1752 77.8496 84.2242 80.055 80.409 82.1873L79.4422 82.7309Z" fill="#AAB7D4"/>
<path d="M410.294 248.126L390.388 246.005C386.17 245.555 383.118 241.777 383.567 237.559L385.689 217.652C386.139 213.435 389.917 210.383 394.135 210.832L414.042 212.954C418.259 213.403 421.311 217.182 420.862 221.399L418.74 241.306C418.296 245.519 414.512 248.576 410.294 248.126Z" fill="#555555"/>
<path d="M392.06 227.572C392.369 227.499 392.677 227.436 392.98 227.337C393.079 227.305 393.184 227.201 393.221 227.107C393.409 226.615 393.566 226.114 393.748 225.622C393.806 225.471 393.78 225.372 393.686 225.241C393.236 224.614 392.797 223.981 392.363 223.349C392.269 223.213 392.243 223.072 392.363 222.915C392.708 222.482 393.043 222.043 393.372 221.604C393.477 221.468 393.602 221.426 393.764 221.483C394.48 221.745 395.196 222.001 395.907 222.272C396.085 222.34 396.194 222.335 396.356 222.215C396.743 221.917 397.151 221.64 397.564 221.379C397.71 221.285 397.762 221.191 397.762 221.018C397.767 220.266 397.788 219.513 397.794 218.76C397.799 218.541 397.872 218.405 398.102 218.342C398.619 218.201 399.126 218.039 399.638 217.877C399.832 217.814 399.947 217.914 400.041 218.044C400.443 218.625 400.856 219.205 401.232 219.8C401.379 220.03 401.504 220.156 401.802 220.14C402.236 220.114 402.675 220.151 403.114 220.182C403.323 220.198 403.448 220.14 403.574 219.962C403.992 219.377 404.431 218.807 404.859 218.233C405.001 218.044 405.173 217.977 405.408 218.065C405.899 218.248 406.401 218.41 406.887 218.609C406.987 218.651 407.096 218.813 407.096 218.922C407.096 219.675 407.081 220.428 407.049 221.18C407.039 221.4 407.086 221.53 407.274 221.661C407.655 221.928 408.021 222.215 408.371 222.518C408.544 222.664 408.685 222.664 408.889 222.602C409.6 222.377 410.316 222.184 411.032 221.969C411.215 221.917 411.33 221.975 411.429 222.126C411.732 222.586 412.056 223.036 412.349 223.501C412.401 223.584 412.396 223.772 412.333 223.856C411.978 224.363 411.633 224.886 411.22 225.351C410.901 225.706 410.713 226.004 410.964 226.49C411.131 226.809 411.183 227.19 411.256 227.551C411.293 227.734 411.387 227.807 411.554 227.859C412.228 228.079 412.897 228.314 413.566 228.544C413.849 228.638 413.995 228.816 413.974 229.129C413.948 229.647 413.953 230.164 413.911 230.676C413.906 230.77 413.775 230.906 413.676 230.938C413.112 231.126 412.547 231.33 411.962 231.439C411.444 231.539 411.11 231.727 411.026 232.296C410.979 232.626 410.817 232.944 410.671 233.253C410.582 233.441 410.619 233.566 410.739 233.723C411.152 234.277 411.544 234.847 411.946 235.406C412.134 235.667 412.15 235.902 411.936 236.164C411.617 236.551 411.33 236.958 411.011 237.34C410.953 237.413 410.786 237.465 410.702 237.434C409.997 237.204 409.291 236.969 408.596 236.697C408.345 236.598 408.178 236.587 407.959 236.765C407.619 237.037 407.243 237.272 406.877 237.507C406.71 237.617 406.636 237.721 406.642 237.946C406.652 238.688 406.615 239.43 406.605 240.178C406.6 240.418 406.48 240.543 406.255 240.601C405.737 240.737 405.225 240.883 404.703 241.003C404.614 241.024 404.457 240.956 404.4 240.878C403.955 240.251 403.516 239.618 403.093 238.97C402.999 238.824 402.905 238.772 402.738 238.766C402.215 238.756 401.687 238.725 401.164 238.73C401.06 238.73 400.929 238.824 400.861 238.913C400.428 239.482 400.004 240.063 399.576 240.643C399.398 240.883 399.189 240.935 398.912 240.82C398.483 240.648 398.039 240.496 397.605 240.345C397.386 240.266 397.281 240.131 397.287 239.895C397.318 239.143 397.334 238.39 397.381 237.638C397.391 237.47 397.349 237.382 397.219 237.287C396.811 236.984 396.403 236.681 396.011 236.362C395.87 236.247 395.75 236.237 395.583 236.289C394.867 236.519 394.14 236.728 393.424 236.953C393.247 237.01 393.121 236.979 393.017 236.822C392.714 236.383 392.421 235.934 392.102 235.505C391.951 235.301 391.987 235.134 392.123 234.962C392.567 234.387 393.001 233.807 393.461 233.242C393.597 233.08 393.628 232.96 393.555 232.756C393.393 232.302 393.262 231.836 393.142 231.371C393.095 231.188 393.006 231.1 392.829 231.042C392.107 230.802 391.391 230.535 390.675 230.29C390.508 230.232 390.44 230.122 390.445 229.955C390.461 229.396 390.461 228.837 390.503 228.277C390.508 228.168 390.634 228.016 390.738 227.974C391.167 227.802 391.611 227.661 392.05 227.509C392.055 227.551 392.06 227.561 392.06 227.572ZM401.065 224.588C398.238 225.246 396.769 228.094 397.349 230.603C397.976 233.336 400.793 234.977 403.302 234.392C406.119 233.734 407.671 230.943 407.091 228.392C406.427 225.481 403.532 223.934 401.065 224.588Z" fill="white"/>
<path d="M121.164 373.749C118.112 373.749 115.033 373.54 112.018 373.127L112.159 372.093C116.591 372.699 121.153 372.856 125.611 372.558L125.679 373.603C124.184 373.702 122.669 373.749 121.164 373.749ZM139.158 371.293L138.875 370.284C140.569 369.809 142.252 369.265 143.893 368.654C146.584 367.655 149.087 366.516 151.335 365.257L151.847 366.171C149.553 367.452 146.997 368.617 144.258 369.636C142.591 370.258 140.872 370.812 139.158 371.293ZM98.7378 369.892C94.3687 368.324 90.2348 366.307 86.4562 363.893L87.0206 363.009C90.7365 365.382 94.7973 367.368 99.0932 368.905L98.7378 369.892ZM162.435 357.48L161.62 356.827C164.134 353.67 165.649 349.656 166.256 344.556L167.296 344.681C166.663 349.98 165.075 354.167 162.435 357.48ZM75.9201 355.17C72.7477 351.773 70.1033 348.01 68.0494 343.981L68.9796 343.505C70.9865 347.446 73.5787 351.135 76.6831 354.459L75.9201 355.17ZM166.407 331.067L166.376 330.361C166.271 327.863 166.162 325.281 166.162 322.799C166.162 320.787 166.235 319.031 166.381 317.416L167.421 317.51C167.275 319.088 167.207 320.818 167.207 322.793C167.207 325.255 167.317 327.826 167.421 330.309L167.452 331.014L166.407 331.067ZM63.6645 331.02C63.1053 328.004 62.8231 324.868 62.8231 321.696C62.8231 320.269 62.8806 318.811 62.9956 317.358L64.0356 317.442C63.9259 318.869 63.8684 320.301 63.8684 321.701C63.8684 324.806 64.1454 327.879 64.6941 330.831L63.6645 331.02ZM171.712 305.139L170.886 304.496C173.51 301.131 177.267 298.706 182.373 297.08L182.692 298.079C177.795 299.636 174.2 301.946 171.712 305.139ZM66.5076 304.209L65.5042 303.921C66.6958 299.767 68.3055 295.465 70.2914 291.133L71.2426 291.567C69.2723 295.857 67.6835 300.106 66.5076 304.209ZM77.5716 279.619L76.6727 279.086C78.8154 275.496 81.2352 271.754 84.0782 267.651L84.9353 268.247C82.1132 272.329 79.6987 276.05 77.5716 279.619Z" fill="#AAB7D4"/>
<path d="M332.089 36.0297L321.637 29.6589L322.18 28.7652L332.633 35.136L332.089 36.0297ZM310.035 22.5878L302.268 17.8528C300.993 17.0741 299.713 16.2954 298.427 15.5272L298.965 14.6282C300.251 15.3965 301.532 16.1804 302.812 16.9592L310.578 21.6941L310.035 22.5878ZM139.738 15.6369L139.691 14.5917C144.018 14.3983 148.298 13.1544 152.443 11.9472L152.835 11.8322L153.127 12.8356L152.735 12.9506C148.533 14.1736 144.19 15.4383 139.738 15.6369ZM166.229 9.34452L165.984 8.33063C170.374 7.26447 174.847 6.29239 179.285 5.43006L179.483 6.45441C175.062 7.31151 170.604 8.28359 166.229 9.34452ZM286.501 9.1825C282.56 7.44739 278.264 5.98405 273.738 4.83427L273.994 3.82038C278.578 4.98583 282.926 6.47009 286.919 8.2261L286.501 9.1825ZM192.852 4.17577L192.7 3.14097C197.169 2.48246 201.716 1.92326 206.21 1.46857L206.315 2.5086C201.836 2.96328 197.305 3.52249 192.852 4.17577ZM260.448 2.35703C256.267 1.82918 251.851 1.46857 246.949 1.25952L246.996 0.214276C251.924 0.423325 256.372 0.789163 260.579 1.32224L260.448 2.35703ZM219.835 1.46857L219.777 0.423326C224.293 0.177693 228.866 0.0365837 233.381 0L233.392 1.04525C228.892 1.08183 224.335 1.22294 219.835 1.46857Z" fill="#AAB7D4"/>
<path d="M409.397 198.101C408.885 196.627 408.623 195.065 408.623 193.455C408.623 192.311 408.754 191.135 409.015 189.948L410.035 190.173C409.789 191.281 409.669 192.384 409.669 193.455C409.669 194.95 409.909 196.397 410.385 197.761L409.397 198.101ZM416.698 178.895L415.977 178.142C416.087 178.038 416.196 177.933 416.306 177.829C419.442 174.912 423.037 172.628 427.077 170.162L427.621 171.055C423.633 173.496 420.085 175.743 417.017 178.597C416.907 178.691 416.803 178.79 416.698 178.895ZM438.805 163.185L438.079 162.432C441.408 159.213 443.692 155.424 444.873 151.175L445.881 151.457C444.648 155.889 442.265 159.835 438.805 163.185ZM445.134 137.968C444.261 133.761 442.568 129.601 440.112 125.603L441 125.054C443.519 129.151 445.254 133.426 446.153 137.754L445.134 137.968ZM431.457 115.406C430.176 114.298 428.833 113.274 427.464 112.359C425.353 110.948 422.98 109.532 420.215 108.027L420.717 107.107C423.513 108.628 425.907 110.06 428.049 111.487C429.455 112.427 430.835 113.478 432.147 114.612L431.457 115.406ZM408.127 101.839C405.435 100.459 403.282 99.2939 401.354 98.1807C399.629 97.1772 397.936 96.1006 396.326 94.977L396.927 94.1199C398.511 95.2279 400.178 96.2888 401.876 97.2765C403.789 98.3845 405.927 99.5395 408.603 100.914L408.127 101.839ZM386.02 85.9826C382.774 82.4027 380.203 78.5823 378.374 74.626L379.32 74.187C381.107 78.0492 383.621 81.7807 386.793 85.2823L386.02 85.9826Z" fill="#AAB7D4"/>
</g>
<defs>
<clipPath id="clip0_5033_128257">
<rect width="496" height="496" fill="white"/>
</clipPath>
</defs>
</svg>
