<svg width="24" height="25" viewBox="0 0 24 25" fill="none" xmlns="http://www.w3.org/2000/svg">
<circle cx="12" cy="12.0266" r="12" fill="white"/>
<path d="M24 12.0205C24 5.40232 18.6215 0.0266113 12 0.0266113C5.37846 0.0266113 0 5.40232 0 12.0205C0 18.0112 4.39385 22.9687 10.1292 23.8667V15.4771H7.06462V12.0082H10.1292V9.36336C10.1292 6.36182 11.9138 4.68884 14.6462 4.68884C15.9631 4.68884 17.3169 4.94716 17.3169 4.94716V7.87489H15.8154C14.3262 7.87489 13.8462 8.8098 13.8462 9.75701V12.0082H17.1816L16.6523 15.4771H13.8585V23.8667C19.6062 22.9687 24 18.0112 24 12.0205Z" fill="#1877F2"/>
</svg>
