<svg width="24" height="21" viewBox="0 0 24 21" fill="none" xmlns="http://www.w3.org/2000/svg">
<path d="M21.3732 5.27612H2.03696C1.57752 5.27612 1.20508 5.64885 1.20508 6.10863V20.1579C1.20508 20.6177 1.57752 20.9904 2.03696 20.9904H21.3732C21.8326 20.9904 22.2051 20.6177 22.2051 20.1579V6.10863C22.2051 5.64885 21.8326 5.27612 21.3732 5.27612Z" fill="#4989F5"/>
<path d="M21.1305 5.15796H2.25642C1.67176 5.15796 1.2168 9.6862 1.2168 10.2713L11.5528 20.9903H21.1305C21.7169 20.9887 22.192 20.5134 22.1936 19.9264V6.22162C22.1918 5.6348 21.7169 5.15956 21.1305 5.15796Z" fill="url(#paint0_linear_6047_88765)"/>
<path d="M6 7.90772H12V0.0268555H6.89842L6 7.90772Z" fill="#3C4BA6"/>
<path d="M18 7.90772H12V0.0268555H17.1016L18 7.90772ZM22.205 1.52077L22.2124 1.54763C22.2106 1.53815 22.207 1.52935 22.205 1.52077Z" fill="#7BABF7"/>
<path d="M22.2124 1.54739L22.2049 1.52053C22.0147 0.648805 21.2438 0.0271757 20.3522 0.0266113H17.1016L17.9993 7.9077H23.9993L22.2124 1.54739Z" fill="#3F51B5"/>
<path d="M1.79651 1.52075L1.78906 1.5475C1.79087 1.53806 1.79448 1.52929 1.79651 1.52075Z" fill="#7BABF7"/>
<path d="M1.78805 1.54739L1.79549 1.52053C1.98571 0.648805 2.75668 0.0271757 3.64827 0.0266113H6.8991L6 7.9077H0L1.78805 1.54739Z" fill="#7BABF7"/>
<path fill-rule="evenodd" clip-rule="evenodd" d="M6.01029 7.90576C6.01029 9.56293 4.66789 10.9063 3.01198 10.9063C1.35607 10.9063 0.0136719 9.56293 0.0136719 7.90576H6.01029Z" fill="#709BE0"/>
<path fill-rule="evenodd" clip-rule="evenodd" d="M12.0083 7.90576C12.0083 9.56293 10.6659 10.9063 9.01003 10.9063C7.35412 10.9063 6.01172 9.56293 6.01172 7.90576H12.0083Z" fill="#3C4BA6"/>
<path fill-rule="evenodd" clip-rule="evenodd" d="M18.0044 7.90576C18.0044 9.56293 16.662 10.9063 15.0061 10.9063C13.3502 10.9063 12.0078 9.56293 12.0078 7.90576H18.0044Z" fill="#709BE0"/>
<path fill-rule="evenodd" clip-rule="evenodd" d="M24.0005 7.90576C24.0005 9.56293 22.6581 10.9063 21.0022 10.9063C19.3463 10.9063 18.0039 9.56293 18.0039 7.90576H24.0005Z" fill="#3C4BA6"/>
<path d="M21.0012 16.0351C20.9906 15.8922 20.973 15.7617 20.948 15.5951H17.6773C17.6773 16.0529 17.6773 16.5525 17.6755 17.0105H19.5702C19.53 17.2239 19.448 17.4273 19.329 17.609C19.2099 17.7906 19.0562 17.9469 18.8766 18.069C18.8766 18.069 18.8766 18.0611 18.8753 18.0608C18.6434 18.2132 18.3821 18.3153 18.1084 18.3604C17.8339 18.4106 17.5525 18.4094 17.2785 18.3568C17.0003 18.2991 16.7369 18.1849 16.5046 18.0211C16.1618 17.7778 15.8974 17.4397 15.7438 17.0482C15.7321 17.0177 15.7212 16.987 15.7102 16.9559V16.9525L15.7131 16.9502C15.564 16.5124 15.5636 16.0375 15.712 15.5994C15.8165 15.2921 15.9884 15.0121 16.2152 14.78C16.7472 14.2292 17.5422 14.0221 18.2751 14.2432C18.5561 14.3294 18.8129 14.4807 19.0246 14.6847L19.6639 14.045C19.7766 13.931 19.8937 13.8206 20.0022 13.7028C19.6781 13.4002 19.2976 13.1644 18.8825 13.0089C18.127 12.7347 17.3006 12.7275 16.5405 12.9883C16.514 12.9974 16.4877 13.0068 16.4615 13.0166C15.6415 13.3251 14.9668 13.9302 14.5708 14.7123C14.431 14.9891 14.3292 15.2836 14.2681 15.5877C13.9061 17.3884 15.004 19.1609 16.7766 19.6374C17.3561 19.7927 17.9721 19.7888 18.5561 19.6561C19.0867 19.5362 19.5773 19.2811 19.9803 18.9155C20.4008 18.5283 20.7021 18.0125 20.86 17.4647C20.992 17.0004 21.0399 16.5162 21.0012 16.0351Z" fill="white"/>
<defs>
<linearGradient id="paint0_linear_6047_88765" x1="1.2168" y1="13.074" x2="22.1934" y2="13.074" gradientUnits="userSpaceOnUse">
<stop offset="0.03" stop-color="#4079D8"/>
<stop offset="1" stop-color="#4989F5"/>
</linearGradient>
</defs>
</svg>
