<svg width="37" height="36" viewBox="0 0 37 36" fill="none" xmlns="http://www.w3.org/2000/svg">
<circle cx="18.5" cy="18" r="15" fill="#E8F4FF" stroke="white" stroke-width="6"/>
<path d="M24.5131 14.1112L23.0071 12.6688C22.9821 12.6448 22.9523 12.6258 22.9195 12.6128C22.8868 12.5998 22.8516 12.5931 22.8162 12.5931C22.7807 12.5931 22.7456 12.5998 22.7128 12.6128C22.68 12.6258 22.6503 12.6448 22.6252 12.6688L16.2648 18.7475C16.2398 18.7715 16.21 18.7905 16.1772 18.8035C16.1445 18.8165 16.1093 18.8232 16.0739 18.8232C16.0384 18.8232 16.0033 18.8165 15.9705 18.8035C15.9377 18.7905 15.908 18.7715 15.8829 18.7475L14.377 17.3051C14.3519 17.2811 14.3221 17.2621 14.2894 17.2491C14.2566 17.2361 14.2215 17.2294 14.186 17.2294C14.1505 17.2294 14.1154 17.2361 14.0827 17.2491C14.0499 17.2621 14.0201 17.2811 13.9951 17.3051L12.4891 18.7475C12.4386 18.7958 12.4102 18.8613 12.4102 18.9296C12.4102 18.9979 12.4386 19.0634 12.4891 19.1117L15.8829 22.3535C15.908 22.3775 15.9377 22.3966 15.9705 22.4095C16.0033 22.4225 16.0384 22.4292 16.0739 22.4292C16.1093 22.4292 16.1445 22.4225 16.1772 22.4095C16.21 22.3966 16.2398 22.3775 16.2648 22.3535L24.5131 14.4718C24.5625 14.4237 24.5902 14.3589 24.5902 14.2915C24.5902 14.2241 24.5625 14.1594 24.5131 14.1112Z" fill="#178DFE"/>
</svg>
