<svg width="37" height="36" viewBox="0 0 37 36" fill="none" xmlns="http://www.w3.org/2000/svg">
<circle cx="18.5" cy="18" r="15" fill="#FFEFE9" stroke="white" stroke-width="6"/>
<g clip-path="url(#clip0_6712_68169)">
<path d="M19.3625 18.0665C19.3538 18.0578 19.3469 18.0474 19.3422 18.0361C19.3374 18.0247 19.335 18.0125 19.335 18.0001C19.335 17.9878 19.3374 17.9756 19.3422 17.9642C19.3469 17.9528 19.3538 17.9425 19.3625 17.9338L22.8362 14.4605C22.9416 14.3549 23.0008 14.2117 23.0007 14.0624C23.0006 13.9131 22.9412 13.77 22.8356 13.6646C22.73 13.5591 22.5868 13.4999 22.4375 13.5C22.2883 13.5001 22.1451 13.5595 22.0397 13.6651L18.5664 17.1369C18.5577 17.1456 18.5474 17.1525 18.536 17.1573C18.5246 17.162 18.5124 17.1644 18.5 17.1644C18.4877 17.1644 18.4755 17.162 18.4641 17.1573C18.4527 17.1525 18.4424 17.1456 18.4337 17.1369L14.9604 13.6651C14.9082 13.6129 14.8462 13.5714 14.7779 13.5431C14.7097 13.5149 14.6366 13.5003 14.5627 13.5003C14.4135 13.5002 14.2704 13.5595 14.1649 13.6649C14.0593 13.7704 14 13.9135 14 14.0627C14 14.2119 14.0592 14.355 14.1647 14.4605L17.6375 17.9338C17.6463 17.9425 17.6532 17.9528 17.6579 17.9642C17.6627 17.9756 17.6651 17.9878 17.6651 18.0001C17.6651 18.0125 17.6627 18.0247 17.6579 18.0361C17.6532 18.0474 17.6463 18.0578 17.6375 18.0665L14.1647 21.5401C14.1124 21.5924 14.071 21.6544 14.0428 21.7227C14.0145 21.7909 14 21.8641 14 21.9379C14 22.0871 14.0593 22.2302 14.1649 22.3357C14.2171 22.3879 14.2791 22.4293 14.3474 22.4576C14.4157 22.4858 14.4888 22.5004 14.5627 22.5004C14.7119 22.5003 14.8549 22.441 14.9604 22.3355L18.4337 18.8619C18.4424 18.8531 18.4527 18.8462 18.4641 18.8415C18.4755 18.8368 18.4877 18.8343 18.5 18.8343C18.5124 18.8343 18.5246 18.8368 18.536 18.8415C18.5474 18.8462 18.5577 18.8531 18.5664 18.8619L22.0397 22.3355C22.1451 22.441 22.2882 22.5003 22.4374 22.5004C22.5866 22.5004 22.7297 22.4412 22.8352 22.3357C22.9408 22.2302 23.0001 22.0871 23.0001 21.9379C23.0001 21.7887 22.9409 21.6456 22.8354 21.5401L19.3625 18.0665Z" fill="#E81313"/>
</g>
<defs>
<clipPath id="clip0_6712_68169">
<rect width="9" height="9" fill="white" transform="translate(14 13.5)"/>
</clipPath>
</defs>
</svg>
