<svg width="16" height="17" viewBox="0 0 16 17" fill="none" xmlns="http://www.w3.org/2000/svg">
<path d="M8.00042 0.5C3.58148 0.5 4.3409e-08 4.08148 4.3409e-08 8.49958C-0.000109406 9.55024 0.206753 10.5906 0.608773 11.5613C1.01079 12.532 1.60009 13.414 2.34302 14.157C3.08595 14.8999 3.96796 15.4892 4.93866 15.8912C5.90936 16.2932 6.94976 16.5001 8.00042 16.5C12.4177 16.5 16 12.9185 16 8.49958C16 4.08148 12.4177 0.5 8.00042 0.5ZM8.74704 3.38818C9.527 3.38818 9.75616 3.84066 9.75616 4.35813C9.75616 5.00393 9.23952 5.6014 8.35707 5.6014C7.61877 5.6014 7.26712 5.23059 7.28879 4.61645C7.28879 4.09898 7.72126 3.38818 8.74704 3.38818ZM6.74882 13.291C6.21551 13.291 5.82636 12.9669 6.19884 11.5461L6.80965 9.02539C6.91547 8.62208 6.93297 8.46042 6.80965 8.46042C6.65049 8.46042 5.95802 8.73874 5.54971 9.01372L5.28389 8.57791C6.57966 7.49547 8.06958 6.8605 8.70705 6.8605C9.24035 6.8605 9.32868 7.49047 9.06286 8.46042L8.3629 11.1103C8.23874 11.5786 8.29207 11.7402 8.41623 11.7402C8.57622 11.7402 9.09953 11.5469 9.6145 11.1411L9.91615 11.5461C8.65538 12.806 7.28129 13.291 6.74882 13.291Z" fill="#CFD5E6"/>
</svg>
