<svg width="31" height="31" viewBox="0 0 31 31" fill="none" xmlns="http://www.w3.org/2000/svg">
<g clip-path="url(#clip0_567_8272)">
<path d="M10.1024 15.3482C10.1024 12.5688 12.3549 10.3151 15.1343 10.3151C17.9137 10.3151 20.1675 12.5688 20.1675 15.3482C20.1675 18.1276 17.9137 20.3814 15.1343 20.3814C12.3549 20.3814 10.1024 18.1276 10.1024 15.3482ZM7.3816 15.3482C7.3816 19.6301 10.8525 23.101 15.1343 23.101C19.4162 23.101 22.8871 19.6301 22.8871 15.3482C22.8871 11.0664 19.4162 7.59546 15.1343 7.59546C10.8525 7.59546 7.3816 11.0664 7.3816 15.3482ZM21.3822 7.28806C21.3821 7.6464 21.4882 7.99673 21.6872 8.29476C21.8861 8.59279 22.169 8.82512 22.5 8.96238C22.831 9.09964 23.1953 9.13567 23.5468 9.0659C23.8982 8.99613 24.2211 8.82371 24.4746 8.57043C24.7281 8.31714 24.9008 7.99438 24.9708 7.64296C25.0409 7.29154 25.0052 6.92723 24.8682 6.59612C24.7312 6.265 24.4991 5.98195 24.2012 5.78275C23.9033 5.58354 23.5531 5.47715 23.1947 5.477H23.194C22.7137 5.47723 22.2531 5.66808 21.9134 6.00765C21.5737 6.34722 21.3826 6.80774 21.3822 7.28806ZM9.03467 27.6378C7.56265 27.5708 6.76257 27.3256 6.23087 27.1184C5.52596 26.844 5.02301 26.5171 4.49421 25.9891C3.96541 25.461 3.63808 24.9585 3.36487 24.2536C3.1576 23.7222 2.9124 22.9218 2.84549 21.4498C2.77229 19.8584 2.75768 19.3803 2.75768 15.3483C2.75768 11.3164 2.7735 10.8396 2.84549 9.24685C2.91252 7.77483 3.15953 6.97607 3.36487 6.44305C3.63929 5.73814 3.96614 5.23519 4.49421 4.70639C5.02229 4.17759 5.52476 3.85026 6.23087 3.57704C6.76233 3.36977 7.56265 3.12458 9.03467 3.05766C10.6261 2.98447 11.1042 2.96985 15.1343 2.96985C19.1645 2.96985 19.643 2.98568 21.2358 3.05766C22.7079 3.1247 23.5066 3.37171 24.0396 3.57704C24.7445 3.85026 25.2475 4.17831 25.7763 4.70639C26.3051 5.23446 26.6312 5.73814 26.9056 6.44305C27.1129 6.9745 27.3581 7.77483 27.425 9.24685C27.4982 10.8396 27.5128 11.3164 27.5128 15.3483C27.5128 19.3803 27.4982 19.857 27.425 21.4498C27.358 22.9218 27.1116 23.7219 26.9056 24.2536C26.6312 24.9585 26.3044 25.4615 25.7763 25.9891C25.2482 26.5167 24.7445 26.844 24.0396 27.1184C23.5082 27.3257 22.7079 27.5709 21.2358 27.6378C19.6444 27.711 19.1663 27.7256 15.1343 27.7256C11.1024 27.7256 10.6257 27.711 9.03467 27.6378ZM8.90966 0.341435C7.30236 0.414631 6.20406 0.669489 5.2449 1.04272C4.25155 1.42814 3.41064 1.94523 2.57034 2.78421C1.73003 3.62318 1.21428 4.46542 0.828849 5.45876C0.455622 6.41853 0.200764 7.51623 0.127568 9.12352C0.0531636 10.7334 0.0361328 11.248 0.0361328 15.3482C0.0361328 19.4484 0.0531636 19.9631 0.127568 21.5729C0.200764 23.1803 0.455622 24.2779 0.828849 25.2377C1.21428 26.2304 1.73015 27.0736 2.57034 27.9122C3.41052 28.7508 4.25155 29.2672 5.2449 29.6537C6.20587 30.0269 7.30236 30.2818 8.90966 30.355C10.5203 30.4282 11.0342 30.4464 15.1343 30.4464C19.2345 30.4464 19.7492 30.4294 21.359 30.355C22.9665 30.2818 24.064 30.0269 25.0238 29.6537C26.0165 29.2672 26.8581 28.7512 27.6984 27.9122C28.5387 27.0732 29.0533 26.2304 29.4398 25.2377C29.8131 24.2779 30.0691 23.1802 30.1411 21.5729C30.2143 19.9619 30.2314 19.4484 30.2314 15.3482C30.2314 11.248 30.2143 10.7334 30.1411 9.12352C30.0679 7.51611 29.8131 6.41792 29.4398 5.45876C29.0533 4.46603 28.5373 3.62451 27.6984 2.78421C26.8594 1.9439 26.0165 1.42814 25.025 1.04272C24.064 0.669489 22.9663 0.413423 21.3602 0.341435C19.7504 0.268239 19.2357 0.25 15.1356 0.25C11.0354 0.25 10.5203 0.267031 8.90966 0.341435Z" fill="url(#paint0_radial_567_8272)"/>
<path d="M10.1024 15.3482C10.1024 12.5688 12.3549 10.3151 15.1343 10.3151C17.9137 10.3151 20.1675 12.5688 20.1675 15.3482C20.1675 18.1276 17.9137 20.3814 15.1343 20.3814C12.3549 20.3814 10.1024 18.1276 10.1024 15.3482ZM7.3816 15.3482C7.3816 19.6301 10.8525 23.101 15.1343 23.101C19.4162 23.101 22.8871 19.6301 22.8871 15.3482C22.8871 11.0664 19.4162 7.59546 15.1343 7.59546C10.8525 7.59546 7.3816 11.0664 7.3816 15.3482ZM21.3822 7.28806C21.3821 7.6464 21.4882 7.99673 21.6872 8.29476C21.8861 8.59279 22.169 8.82512 22.5 8.96238C22.831 9.09964 23.1953 9.13567 23.5468 9.0659C23.8982 8.99613 24.2211 8.82371 24.4746 8.57043C24.7281 8.31714 24.9008 7.99438 24.9708 7.64296C25.0409 7.29154 25.0052 6.92723 24.8682 6.59612C24.7312 6.265 24.4991 5.98195 24.2012 5.78275C23.9033 5.58354 23.5531 5.47715 23.1947 5.477H23.194C22.7137 5.47723 22.2531 5.66808 21.9134 6.00765C21.5737 6.34722 21.3826 6.80774 21.3822 7.28806ZM9.03467 27.6378C7.56265 27.5708 6.76257 27.3256 6.23087 27.1184C5.52596 26.844 5.02301 26.5171 4.49421 25.9891C3.96541 25.461 3.63808 24.9585 3.36487 24.2536C3.1576 23.7222 2.9124 22.9218 2.84549 21.4498C2.77229 19.8584 2.75768 19.3803 2.75768 15.3483C2.75768 11.3164 2.7735 10.8396 2.84549 9.24685C2.91252 7.77483 3.15953 6.97607 3.36487 6.44305C3.63929 5.73814 3.96614 5.23519 4.49421 4.70639C5.02229 4.17759 5.52476 3.85026 6.23087 3.57704C6.76233 3.36977 7.56265 3.12458 9.03467 3.05766C10.6261 2.98447 11.1042 2.96985 15.1343 2.96985C19.1645 2.96985 19.643 2.98568 21.2358 3.05766C22.7079 3.1247 23.5066 3.37171 24.0396 3.57704C24.7445 3.85026 25.2475 4.17831 25.7763 4.70639C26.3051 5.23446 26.6312 5.73814 26.9056 6.44305C27.1129 6.9745 27.3581 7.77483 27.425 9.24685C27.4982 10.8396 27.5128 11.3164 27.5128 15.3483C27.5128 19.3803 27.4982 19.857 27.425 21.4498C27.358 22.9218 27.1116 23.7219 26.9056 24.2536C26.6312 24.9585 26.3044 25.4615 25.7763 25.9891C25.2482 26.5167 24.7445 26.844 24.0396 27.1184C23.5082 27.3257 22.7079 27.5709 21.2358 27.6378C19.6444 27.711 19.1663 27.7256 15.1343 27.7256C11.1024 27.7256 10.6257 27.711 9.03467 27.6378ZM8.90966 0.341435C7.30236 0.414631 6.20406 0.669489 5.2449 1.04272C4.25155 1.42814 3.41064 1.94523 2.57034 2.78421C1.73003 3.62318 1.21428 4.46542 0.828849 5.45876C0.455622 6.41853 0.200764 7.51623 0.127568 9.12352C0.0531636 10.7334 0.0361328 11.248 0.0361328 15.3482C0.0361328 19.4484 0.0531636 19.9631 0.127568 21.5729C0.200764 23.1803 0.455622 24.2779 0.828849 25.2377C1.21428 26.2304 1.73015 27.0736 2.57034 27.9122C3.41052 28.7508 4.25155 29.2672 5.2449 29.6537C6.20587 30.0269 7.30236 30.2818 8.90966 30.355C10.5203 30.4282 11.0342 30.4464 15.1343 30.4464C19.2345 30.4464 19.7492 30.4294 21.359 30.355C22.9665 30.2818 24.064 30.0269 25.0238 29.6537C26.0165 29.2672 26.8581 28.7512 27.6984 27.9122C28.5387 27.0732 29.0533 26.2304 29.4398 25.2377C29.8131 24.2779 30.0691 23.1802 30.1411 21.5729C30.2143 19.9619 30.2314 19.4484 30.2314 15.3482C30.2314 11.248 30.2143 10.7334 30.1411 9.12352C30.0679 7.51611 29.8131 6.41792 29.4398 5.45876C29.0533 4.46603 28.5373 3.62451 27.6984 2.78421C26.8594 1.9439 26.0165 1.42814 25.025 1.04272C24.064 0.669489 22.9663 0.413423 21.3602 0.341435C19.7504 0.268239 19.2357 0.25 15.1356 0.25C11.0354 0.25 10.5203 0.267031 8.90966 0.341435Z" fill="url(#paint1_radial_567_8272)"/>
</g>
<defs>
<radialGradient id="paint0_radial_567_8272" cx="0" cy="0" r="1" gradientUnits="userSpaceOnUse" gradientTransform="translate(4.04791 30.5891) scale(39.4189 39.4189)">
<stop offset="0.09" stop-color="#FA8F21"/>
<stop offset="0.78" stop-color="#D82D7E"/>
</radialGradient>
<radialGradient id="paint1_radial_567_8272" cx="0" cy="0" r="1" gradientUnits="userSpaceOnUse" gradientTransform="translate(18.3489 31.9419) scale(31.0675)">
<stop offset="0.64" stop-color="#8C3AAA" stop-opacity="0"/>
<stop offset="1" stop-color="#8C3AAA"/>
</radialGradient>
<clipPath id="clip0_567_8272">
<rect width="30.1964" height="30.1964" fill="white" transform="translate(0.0361328 0.25)"/>
</clipPath>
</defs>
</svg>
