<svg width="24" height="25" viewBox="0 0 24 25" fill="none" xmlns="http://www.w3.org/2000/svg">
<g clip-path="url(#clip0_6047_88762)">
<path d="M22.2239 0.0266113H1.77018C0.79362 0.0266113 0 0.801351 0 1.75708V22.2948C0 23.2505 0.79362 24.0266 1.77018 24.0266H22.2239C23.2025 24.0266 23.9993 23.2505 23.9993 22.2948V1.75708C23.9993 0.801351 23.2025 0.0266113 22.2239 0.0266113Z" fill="#2668B2"/>
<path d="M3.55598 9.02418H7.11913V20.4773H3.55598V9.02418ZM5.33854 3.33081C5.74679 3.33097 6.14582 3.45218 6.48519 3.67911C6.82455 3.90604 7.08901 4.22851 7.24512 4.60573C7.40123 4.98295 7.44199 5.39799 7.36223 5.79837C7.28247 6.19875 7.08579 6.5665 6.79705 6.85511C6.50831 7.14371 6.14047 7.34022 5.74005 7.41979C5.33963 7.49936 4.92461 7.45841 4.54746 7.30212C4.17031 7.14583 3.84797 6.88123 3.6212 6.54175C3.39443 6.20228 3.27341 5.80319 3.27344 5.39494C3.27349 5.12381 3.32695 4.85535 3.43076 4.60487C3.53457 4.3544 3.68671 4.12683 3.87847 3.93516C4.07023 3.74348 4.29787 3.59146 4.54839 3.48777C4.79891 3.38407 5.06741 3.33074 5.33854 3.33081" fill="white"/>
<path d="M9.35156 9.02419H12.7637V10.5899H12.8125C13.2871 9.68952 14.4486 8.73999 16.1803 8.73999C19.7845 8.73999 20.4505 11.1115 20.4505 14.1961V20.4773H16.8913V14.9077C16.8913 13.5795 16.8685 11.8709 15.0417 11.8709C13.1895 11.8709 12.9069 13.3185 12.9069 14.8126V20.4773H9.35156V9.02419Z" fill="white"/>
</g>
<defs>
<clipPath id="clip0_6047_88762">
<rect width="23.9993" height="24" fill="white" transform="translate(0 0.0266113)"/>
</clipPath>
</defs>
</svg>
