<svg width="93" height="31" viewBox="0 0 93 31" fill="none" xmlns="http://www.w3.org/2000/svg">
<g filter="url(#filter0_i_567_9577)">
<rect x="9.71387" y="0.250122" width="82.6429" height="30.1964" rx="15.0982" fill="white"/>
</g>
<path d="M39.4232 21.7859H42.264V14.4514H42.2985L47.0849 21.7859H49.9429V9.56169H47.1021V17.0856L47.0677 17.1029L42.1952 9.56169H39.4232V21.7859ZM60.0195 17.4816C60.0195 14.9851 58.2805 13.2118 55.9046 13.2118C53.3564 13.2118 51.5658 15.0196 51.5658 17.5677C51.5658 20.1847 53.4253 21.9409 55.9734 21.9409C57.8845 21.9409 59.0553 21.3039 59.7612 20.4258L58.2117 18.8418C57.6435 19.4788 56.9376 19.7371 56.2489 19.7543C55.2159 19.7543 54.4067 19.255 54.2345 18.2908H59.9678C59.985 18.1187 60.0195 17.7227 60.0195 17.4816ZM55.8701 15.3467C56.6793 15.3467 57.2303 15.8632 57.4025 16.6896H54.2517C54.4239 15.846 55.0437 15.3467 55.8701 15.3467ZM63.0749 21.7859H65.2787L66.6216 16.8962H66.6388L68.0162 21.7859H70.1856L73.0437 13.3667H70.375L68.9804 17.9293H68.946L67.6719 13.3667H65.5886L64.3145 17.9293H64.2973L62.9199 13.3667H60.234L63.0749 21.7859ZM74.7589 17.5677H76.6873L77.1521 9.11404H74.2941L74.7589 17.5677ZM75.7231 21.9409C76.5667 21.9409 77.2727 21.2694 77.2727 20.4258C77.2727 19.5821 76.5667 18.8934 75.7231 18.8934C74.8622 18.8934 74.1736 19.5821 74.1736 20.4258C74.1736 21.2694 74.8622 21.9409 75.7231 21.9409Z" fill="#3A9EFE"/>
<path fill-rule="evenodd" clip-rule="evenodd" d="M7.04337 30.4315C6.36995 30.4076 5.50202 30.3549 5.10754 30.2753C4.50536 30.1537 3.93669 29.9693 3.46377 29.7283C2.90812 29.4451 2.41013 29.0838 1.98012 28.6545C1.54913 28.2243 1.18639 27.7259 0.902077 27.1694C0.661713 26.699 0.477446 26.1338 0.355326 25.535C0.274102 25.1366 0.220383 24.2622 0.196031 23.5844C0.186156 23.3074 0.181089 22.9489 0.181089 22.7835L0.178711 7.91522C0.178711 7.75055 0.183726 7.39194 0.193549 7.11461C0.217488 6.44124 0.270172 5.57331 0.349845 5.17883C0.471397 4.5767 0.655819 4.00798 0.896803 3.53506C1.18003 2.97936 1.54127 2.48147 1.97061 2.05141C2.40077 1.62047 2.89928 1.25773 3.4557 0.973366C3.92614 0.733054 4.49135 0.548735 5.09006 0.426615C5.48853 0.345391 6.36297 0.291672 7.04073 0.267372C7.31765 0.257445 7.67621 0.252378 7.84155 0.252378L22.7099 0.25C22.8746 0.25 23.2332 0.254963 23.5104 0.264839C24.1838 0.288828 25.0518 0.341461 25.4463 0.421134C26.0484 0.542738 26.6172 0.72716 27.09 0.968092C27.6457 1.25132 28.1437 1.61261 28.5737 2.0419C29.0046 2.47211 29.3674 2.97052 29.6517 3.52699C29.892 3.99743 30.0764 4.56259 30.1985 5.16135C30.2797 5.55982 30.3334 6.43431 30.3578 7.11202C30.3677 7.38899 30.3727 7.7475 30.3727 7.91284L30.3751 22.7812C30.3751 22.9459 30.3701 23.3045 30.3603 23.5818C30.3363 24.2551 30.2836 25.1231 30.204 25.5176C30.0824 26.1197 29.898 26.6884 29.657 27.1613C29.3738 27.717 29.0125 28.215 28.5832 28.645C28.153 29.0759 27.6545 29.4387 27.0981 29.723C26.6277 29.9634 26.0625 30.1477 25.4637 30.2698C25.0653 30.351 24.1908 30.4047 23.5131 30.429C23.2361 30.439 22.8776 30.444 22.7122 30.444L7.84393 30.4464C7.6792 30.4464 7.3206 30.4414 7.04337 30.4315Z" fill="#161722"/>
<mask id="mask0_567_9577" style="mask-type:alpha" maskUnits="userSpaceOnUse" x="0" y="0" width="31" height="31">
<path fill-rule="evenodd" clip-rule="evenodd" d="M7.04337 30.4315C6.36995 30.4076 5.50202 30.3549 5.10754 30.2753C4.50536 30.1537 3.93669 29.9693 3.46377 29.7283C2.90812 29.4451 2.41013 29.0838 1.98012 28.6545C1.54913 28.2243 1.18639 27.7259 0.902077 27.1694C0.661713 26.699 0.477446 26.1338 0.355326 25.535C0.274102 25.1366 0.220383 24.2622 0.196031 23.5844C0.186156 23.3074 0.181089 22.9489 0.181089 22.7835L0.178711 7.91522C0.178711 7.75055 0.183726 7.39194 0.193549 7.11461C0.217488 6.44124 0.270172 5.57331 0.349845 5.17883C0.471397 4.5767 0.655819 4.00798 0.896803 3.53506C1.18003 2.97936 1.54127 2.48147 1.97061 2.05141C2.40077 1.62047 2.89928 1.25773 3.4557 0.973366C3.92614 0.733054 4.49135 0.548735 5.09006 0.426615C5.48853 0.345391 6.36297 0.291672 7.04073 0.267372C7.31765 0.257445 7.67621 0.252378 7.84155 0.252378L22.7099 0.25C22.8746 0.25 23.2332 0.254963 23.5104 0.264839C24.1838 0.288828 25.0518 0.341461 25.4463 0.421134C26.0484 0.542738 26.6172 0.72716 27.09 0.968092C27.6457 1.25132 28.1437 1.61261 28.5737 2.0419C29.0046 2.47211 29.3674 2.97052 29.6517 3.52699C29.892 3.99743 30.0764 4.56259 30.1985 5.16135C30.2797 5.55982 30.3334 6.43431 30.3578 7.11202C30.3677 7.38899 30.3727 7.7475 30.3727 7.91284L30.3751 22.7812C30.3751 22.9459 30.3701 23.3045 30.3603 23.5818C30.3363 24.2551 30.2836 25.1231 30.204 25.5176C30.0824 26.1197 29.898 26.6884 29.657 27.1613C29.3738 27.717 29.0125 28.215 28.5832 28.645C28.153 29.0759 27.6545 29.4387 27.0981 29.723C26.6277 29.9634 26.0625 30.1477 25.4637 30.2698C25.0653 30.351 24.1908 30.4047 23.5131 30.429C23.2361 30.439 22.8776 30.444 22.7122 30.444L7.84393 30.4464C7.67921 30.4464 7.3206 30.4414 7.04337 30.4315Z" fill="white"/>
</mask>
<g mask="url(#mask0_567_9577)">
<path d="M12.6843 12.8887V11.9626C12.363 11.9115 12.0385 11.8838 11.7132 11.8797C10.1819 11.876 8.68947 12.3617 7.45366 13.266C6.21784 14.1702 5.30328 15.4457 4.84338 16.9063C4.38348 18.3669 4.40231 19.9363 4.89712 21.3854C5.39192 22.8346 6.33682 24.0878 7.59397 24.9621C6.64867 23.9495 6.0166 22.685 5.77402 21.3212C5.53145 19.9573 5.68873 18.5524 6.2269 17.276C6.76506 15.9995 7.66112 14.9061 8.80693 14.1276C9.95274 13.3491 11.2994 12.9189 12.6843 12.8887Z" fill="#65D2E9"/>
<path d="M12.8582 23.3522C13.704 23.3512 14.5168 23.024 15.1274 22.4387C15.738 21.8535 16.0993 21.0552 16.1361 20.2103V4.54823H18.9982C18.9398 4.22104 18.9117 3.88917 18.9143 3.55682H15.0008V19.203C14.9693 20.0519 14.6102 20.8557 13.9989 21.4456C13.3876 22.0355 12.5716 22.3657 11.722 22.367C11.1946 22.3623 10.6758 22.2329 10.208 21.9891C10.5111 22.4091 10.9092 22.7514 11.3697 22.9883C11.8303 23.2252 12.3403 23.3499 12.8582 23.3522Z" fill="#65D2E9"/>
<path d="M24.3468 9.86195V8.99149C23.2937 8.99147 22.264 8.68069 21.3867 8.09808C22.1555 8.99246 23.1945 9.61223 24.3468 9.86371V9.86195Z" fill="#65D2E9"/>
<path d="M21.3835 8.09708C20.5196 7.11292 20.0432 5.84802 20.0434 4.53845H18.999C19.134 5.26234 19.415 5.95116 19.8247 6.56297C20.2345 7.17477 20.7646 7.69674 21.3826 8.09708H21.3835Z" fill="#E6436D"/>
<path d="M11.7146 15.7964C10.9819 15.8005 10.2716 16.0493 9.6965 16.5033C9.12139 16.9573 8.71448 17.5904 8.5404 18.3022C8.36632 19.0139 8.43506 19.7634 8.7357 20.4316C9.03634 21.0998 9.55163 21.6484 10.1997 21.9902C9.84529 21.5006 9.63306 20.9226 9.58651 20.32C9.53995 19.7174 9.66087 19.1136 9.93591 18.5754C10.211 18.0372 10.6294 17.5855 11.1451 17.2702C11.6607 16.9549 12.2535 16.7882 12.8579 16.7887C13.1872 16.7921 13.5142 16.843 13.829 16.9396V12.9572C13.5075 12.9092 13.183 12.8841 12.8579 12.8822H12.6813V15.9103C12.3663 15.8258 12.0407 15.7875 11.7146 15.7964Z" fill="#E6436D"/>
<path d="M24.3398 9.86389V12.8919C22.3898 12.8877 20.4907 12.27 18.9113 11.1263V19.0831C18.9074 20.9899 18.1471 22.8172 16.7974 24.1641C15.4477 25.511 13.6188 26.2675 11.712 26.2675C10.2372 26.2704 8.79792 25.8154 7.59277 24.9653C8.57547 26.0224 9.85374 26.759 11.2611 27.0792C12.6684 27.3995 14.1395 27.2884 15.4828 26.7606C16.8261 26.2328 17.9794 25.3127 18.7923 24.1201C19.6052 22.9276 20.0402 21.5178 20.0405 20.0745V12.1424C21.6252 13.2786 23.5269 13.8879 25.4768 13.8842V9.98484C25.0947 9.984 24.7136 9.94347 24.3398 9.86389Z" fill="#E6436D"/>
<path d="M18.9135 19.082V11.1251C20.4991 12.2621 22.4024 12.8712 24.3534 12.866V9.83799C23.2015 9.5949 22.1598 8.98389 21.3854 8.09708C20.7674 7.69674 20.2373 7.17477 19.8275 6.56297C19.4178 5.95116 19.1368 5.26234 19.0018 4.53845H16.1353V20.2102C16.1074 20.8923 15.8678 21.5488 15.4496 22.0885C15.0315 22.6281 14.4557 23.0241 13.8021 23.2215C13.1486 23.4188 12.4498 23.4078 11.8029 23.1897C11.156 22.9717 10.593 22.5576 10.1922 22.005C9.54391 21.6635 9.02836 21.115 8.7275 20.4469C8.42665 19.7788 8.35775 19.0293 8.53177 18.3175C8.70578 17.6057 9.11272 16.9725 9.6879 16.5185C10.2631 16.0646 10.9735 15.8159 11.7062 15.812C12.0356 15.8147 12.3627 15.8656 12.6773 15.963V12.934C11.2848 12.9577 9.92927 13.386 8.77595 14.1667C7.62264 14.9475 6.72138 16.0469 6.18206 17.3309C5.64274 18.615 5.48866 20.0282 5.7386 21.3983C5.98853 22.7684 6.6317 24.0362 7.58967 25.0471C8.80633 25.868 10.2468 26.2932 11.7142 26.2645C13.6207 26.2645 15.4493 25.5083 16.799 24.1618C18.1486 22.8153 18.9091 20.9884 18.9135 19.082Z" fill="white"/>
</g>
<defs>
<filter id="filter0_i_567_9577" x="9.71387" y="0.250122" width="82.6426" height="30.1964" filterUnits="userSpaceOnUse" color-interpolation-filters="sRGB">
<feFlood flood-opacity="0" result="BackgroundImageFix"/>
<feBlend mode="normal" in="SourceGraphic" in2="BackgroundImageFix" result="shape"/>
<feColorMatrix in="SourceAlpha" type="matrix" values="0 0 0 0 0 0 0 0 0 0 0 0 0 0 0 0 0 0 127 0" result="hardAlpha"/>
<feOffset/>
<feGaussianBlur stdDeviation="1.50509"/>
<feComposite in2="hardAlpha" operator="arithmetic" k2="-1" k3="1"/>
<feColorMatrix type="matrix" values="0 0 0 0 0.227451 0 0 0 0 0.619608 0 0 0 0 0.996078 0 0 0 0.4 0"/>
<feBlend mode="normal" in2="shape" result="effect1_innerShadow_567_9577"/>
</filter>
</defs>
</svg>
