<svg width="24" height="25" viewBox="0 0 24 25" fill="none" xmlns="http://www.w3.org/2000/svg">
<g clip-path="url(#clip0_6047_88760)">
<path d="M12 24.0266C18.6274 24.0266 24 18.654 24 12.0266C24 5.39919 18.6274 0.0266113 12 0.0266113C5.37258 0.0266113 0 5.39919 0 12.0266C0 18.654 5.37258 24.0266 12 24.0266Z" fill="#1DA1F2"/>
<path d="M9.80482 18.3567C15.1268 18.3567 18.0368 13.9467 18.0368 10.1247C18.0368 9.99873 18.0368 9.87273 18.0308 9.75273C18.5948 9.34473 19.0868 8.83473 19.4768 8.25273C18.9608 8.48073 18.4028 8.63673 17.8148 8.70873C18.4148 8.34873 18.8708 7.78473 19.0868 7.10673C18.5288 7.43673 17.9108 7.67673 17.2508 7.80873C16.7228 7.24473 15.9728 6.89673 15.1388 6.89673C13.5428 6.89673 12.2468 8.19273 12.2468 9.78873C12.2468 10.0167 12.2708 10.2387 12.3248 10.4487C9.91882 10.3287 7.78882 9.17673 6.36081 7.42473C6.11481 7.85073 5.97081 8.34873 5.97081 8.87673C5.97081 9.87873 6.48081 10.7667 7.26082 11.2827C6.78682 11.2707 6.34281 11.1387 5.95281 10.9227C5.95281 10.9347 5.95281 10.9467 5.95281 10.9587C5.95281 12.3627 6.94881 13.5267 8.27482 13.7967C8.03482 13.8627 7.77682 13.8987 7.51282 13.8987C7.32682 13.8987 7.14682 13.8807 6.96682 13.8447C7.33282 14.9967 8.40082 15.8307 9.66682 15.8547C8.67682 16.6287 7.42882 17.0907 6.07281 17.0907C5.83881 17.0907 5.61081 17.0787 5.38281 17.0487C6.64881 17.8767 8.17282 18.3567 9.80482 18.3567Z" fill="white"/>
</g>
<defs>
<clipPath id="clip0_6047_88760">
<rect width="24" height="24" fill="white" transform="translate(0 0.0266113)"/>
</clipPath>
</defs>
</svg>
