<svg width="24" height="25" viewBox="0 0 24 25" fill="none" xmlns="http://www.w3.org/2000/svg">
<path d="M12.0015 24.0266C5.35943 24.0282 -0.0193825 18.623 5.25022e-05 11.9774C0.0193261 5.38712 5.3946 0.0273856 12.0067 0.0266114C18.6445 0.025834 24.0472 5.44847 24.0004 12.1174C23.9547 18.6356 18.6531 24.0238 12.0015 24.0266ZM11.9949 17.6296C12.1555 17.6296 12.3162 17.6296 12.4768 17.6296C13.5152 17.6293 14.5531 17.6056 15.5904 17.5584C16.3772 17.5234 17.1643 17.4888 17.9434 17.3636C18.8191 17.2229 19.4034 16.7362 19.6604 15.8808C19.7529 15.573 19.796 15.2532 19.8323 14.9339C19.9917 13.5161 20.034 12.0875 19.9588 10.6626C19.9193 9.89533 19.87 9.12909 19.7165 8.37416C19.5341 7.47647 19.0089 6.90108 18.1082 6.69058C17.8257 6.62457 17.5361 6.59666 17.2475 6.57036C16.1232 6.46789 14.9955 6.43226 13.8676 6.40961C13.0762 6.39372 12.2847 6.38287 11.4928 6.39156C10.5133 6.40231 9.53406 6.41741 8.55536 6.45901C7.72156 6.49446 6.88733 6.52805 6.06139 6.65925C5.1858 6.79834 4.59937 7.2818 4.3405 8.13737C4.24738 8.44514 4.20387 8.76471 4.16752 9.08394C4.00763 10.5018 3.96498 11.9304 4.04002 13.3552C4.07937 14.1225 4.13236 14.888 4.28056 15.644C4.423 16.3706 4.80798 16.9075 5.49343 17.2106C5.82427 17.3568 6.18163 17.3919 6.53533 17.4303C7.4512 17.5296 8.3714 17.5665 9.29157 17.5927C10.1924 17.6183 11.0938 17.6132 11.9949 17.6296Z" fill="#FE0101"/>
<path d="M11.9947 17.6296C11.0936 17.6131 10.1922 17.6182 9.29135 17.5926C8.37118 17.5665 7.45099 17.5296 6.53512 17.4302C6.18142 17.3919 5.82405 17.3568 5.49322 17.2105C4.80777 16.9075 4.42279 16.3706 4.28035 15.6439C4.13214 14.8879 4.07915 14.1225 4.0398 13.3552C3.96477 11.9303 4.00741 10.5017 4.16731 9.08389C4.20366 8.76466 4.24717 8.44509 4.34029 8.13732C4.59915 7.28175 5.18558 6.79829 6.06118 6.6592C6.88711 6.528 7.72135 6.49441 8.55515 6.45896C9.53385 6.41736 10.5131 6.40226 11.4926 6.39151C12.2845 6.38282 13.076 6.39367 13.8673 6.40956C14.9953 6.4322 16.123 6.46784 17.2473 6.57031C17.5359 6.59661 17.8255 6.62452 18.108 6.69053C19.0087 6.90103 19.5338 7.47642 19.7163 8.37411C19.8698 9.12904 19.9191 9.89528 19.9585 10.6626C20.0338 12.0874 19.9915 13.516 19.8321 14.9339C19.7958 15.2532 19.7527 15.5729 19.6602 15.8807C19.4032 16.7362 18.8189 17.2229 17.9432 17.3636C17.1641 17.4888 16.377 17.5234 15.5902 17.5583C14.5528 17.6044 13.515 17.6282 12.4766 17.6296C12.3159 17.6296 12.1553 17.6296 11.9947 17.6296V17.6296ZM10.3712 9.6474V14.3763C11.7626 13.5861 13.1421 12.8028 14.5351 12.0118L10.3712 9.6474Z" fill="white"/>
<path d="M10.3711 9.64746L14.535 12.0119C13.142 12.8029 11.7626 13.5862 10.3711 14.3763V9.64746Z" fill="#FE0101"/>
</svg>
