<svg width="357" height="198" viewBox="0 0 357 198" fill="none" xmlns="http://www.w3.org/2000/svg">
<path d="M0 6.37818C0 3.06447 2.68629 0.378174 6 0.378174H50.2221V198H6C2.68629 198 0 195.314 0 192V6.37818Z" fill="url(#paint0_linear)"/>
<path d="M285 6.37818C285 3.06447 282.314 0.378174 279 0.378174H50.2221V198H279C282.314 198 285 195.314 285 192V6.37818Z" fill="#F6F7FB"/>
<rect x="60.0215" y="24.0608" width="87.7865" height="161.282" fill="white"/>
<rect x="149.85" y="24.0601" width="125.759" height="161.282" fill="white"/>
<rect x="238.861" y="11.4026" width="36.7478" height="9.39112" rx="2" fill="#006BB1"/>
<rect x="200.163" y="11.9026" width="35.7478" height="8.39112" rx="1.5" stroke="#E0E0E0"/>
<rect x="207.013" y="28.96" width="27.3567" height="6.12464" rx="2" fill="#006BB1"/>
<rect x="156.474" y="40.0759" width="5.12464" height="5.12464" rx="1.5" stroke="#123B49"/>
<rect x="163.324" y="39.5759" width="15.5158" height="6.12464" rx="2" fill="#123B49"/>
<rect x="65.7379" y="30.1848" width="15.5158" height="6.12464" rx="1" fill="#123B49"/>
<rect x="82.4785" y="30.1848" width="15.5158" height="6.12464" rx="1" fill="#123B49"/>
<rect x="246.211" y="39.5759" width="15.5158" height="6.12464" rx="2" fill="#123B49"/>
<rect x="262.951" y="39.5759" width="6.12464" height="6.12464" rx="2" fill="#123B49"/>
<rect x="180.064" y="39.5759" width="27.3567" height="6.12464" rx="2" fill="#123B49"/>
<rect x="194.447" y="29.46" width="10.841" height="5.12464" rx="1.5" stroke="#E0E0E0"/>
<rect x="65.8295" y="39.2593" width="76.5788" height="70.4542" rx="1.5" stroke="#E0E0E0"/>
<rect x="155.974" y="49.3752" width="113.102" height="4.4914" fill="#F1EFF5"/>
<rect x="155.974" y="29.7764" width="34.298" height="4.4914" fill="#F1EFF5"/>
<rect x="155.974" y="56.7249" width="113.102" height="4.4914" fill="#F1EFF5"/>
<rect x="155.974" y="64.0745" width="113.102" height="4.4914" fill="#F1EFF5"/>
<rect x="155.974" y="71.4241" width="113.102" height="4.4914" fill="#F1EFF5"/>
<rect x="155.974" y="78.3652" width="113.102" height="4.89971" fill="#F1EFF5"/>
<rect x="155.974" y="85.7148" width="113.102" height="4.89971" fill="#F1EFF5"/>
<rect x="155.974" y="93.0645" width="113.102" height="4.4914" fill="#F1EFF5"/>
<rect x="155.974" y="100.414" width="113.102" height="4.4914" fill="#F1EFF5"/>
<rect x="155.974" y="107.763" width="113.102" height="4.4914" fill="#F1EFF5"/>
<rect x="155.974" y="115.113" width="113.102" height="4.4914" fill="#F1EFF5"/>
<rect x="155.974" y="122.463" width="113.102" height="4.4914" fill="#F1EFF5"/>
<rect x="155.974" y="129.812" width="113.102" height="4.4914" fill="#F1EFF5"/>
<rect x="155.974" y="136.754" width="113.102" height="4.89971" fill="#F1EFF5"/>
<rect x="155.974" y="144.103" width="113.102" height="4.89971" fill="#F1EFF5"/>
<rect x="155.974" y="151.453" width="113.102" height="4.4914" fill="#F1EFF5"/>
<rect x="155.974" y="158.802" width="113.102" height="4.4914" fill="#F1EFF5"/>
<rect x="155.974" y="166.152" width="113.102" height="4.4914" fill="#F1EFF5"/>
<rect x="155.974" y="173.501" width="113.102" height="4.4914" fill="#F1EFF5"/>
<rect x="64.9211" y="126.546" width="18.3739" height="6.12464" rx="1" fill="#123B49"/>
<rect x="64.9211" y="136.754" width="77.5788" height="4.4914" fill="#F1EFF5"/>
<rect x="64.9211" y="144.103" width="77.5788" height="4.4914" fill="#F1EFF5"/>
<rect x="64.9211" y="151.453" width="77.5788" height="4.4914" fill="#F1EFF5"/>
<rect x="64.9211" y="158.802" width="77.5788" height="4.4914" fill="#F1EFF5"/>
<rect x="64.9211" y="165.743" width="77.5788" height="4.89971" fill="#F1EFF5"/>
<rect x="64.9211" y="173.093" width="77.5788" height="4.89971" fill="#F1EFF5"/>
<rect x="84.52" y="126.546" width="18.3739" height="6.12464" rx="1" fill="#123B49"/>
<rect x="136.375" y="126.546" width="6.12464" height="6.12464" rx="1" fill="#123B49"/>
<rect x="65.4211" y="118.471" width="76.5788" height="2.26648" rx="1.13324" stroke="#0075B0"/>
<rect x="64.9211" y="117.971" width="37.9728" height="3.26648" rx="1.63324" fill="#0075B0"/>
<circle cx="26.1317" cy="30.593" r="12.2493" fill="#F6F7FB"/>
<rect x="6.12463" y="51.8252" width="37.9728" height="6.94126" fill="#0075B0"/>
<path d="M6.12463 7.46143C6.12463 6.35686 7.02006 5.46143 8.12463 5.46143H44.0974V12.4027H6.12463V7.46143Z" fill="white"/>
<rect x="6.12463" y="61.6245" width="37.9728" height="6.94126" fill="#0075B0"/>
<rect x="6.12463" y="71.4241" width="37.9728" height="6.94126" fill="#0075B0"/>
<rect x="6.12463" y="81.2234" width="37.9728" height="6.94126" fill="#0075B0"/>
<rect x="6.12463" y="91.0229" width="37.9728" height="6.94126" fill="#0075B0"/>
<rect x="6.12463" y="100.822" width="37.9728" height="6.94126" fill="#0075B0"/>
<rect x="6.12463" y="110.622" width="37.9728" height="6.94126" fill="#0075B0"/>
<rect x="6.12463" y="120.421" width="37.9728" height="6.94126" fill="#0075B0"/>
<g filter="url(#filter0_d)">
<rect x="118" y="26" width="189" height="72" rx="10" fill="white"/>
<rect x="119" y="27" width="187" height="70" rx="9" stroke="url(#paint1_linear)" stroke-width="2"/>
</g>
<path d="M143.393 57C143.223 57 143.083 56.955 142.973 56.865C142.873 56.765 142.813 56.645 142.793 56.505L141.188 46.905C141.178 46.885 141.173 46.855 141.173 46.815C141.173 46.735 141.203 46.665 141.263 46.605C141.333 46.535 141.408 46.5 141.488 46.5H143.453C143.743 46.5 143.903 46.615 143.933 46.845L144.848 52.515L145.883 49.23C145.963 48.96 146.128 48.825 146.378 48.825H147.503C147.753 48.825 147.918 48.96 147.998 49.23L149.033 52.5L149.963 46.845C149.983 46.725 150.028 46.64 150.098 46.59C150.168 46.53 150.278 46.5 150.428 46.5H152.393C152.483 46.5 152.558 46.535 152.618 46.605C152.678 46.665 152.708 46.735 152.708 46.815V46.905L151.103 56.505C151.083 56.645 151.018 56.765 150.908 56.865C150.798 56.955 150.663 57 150.503 57H148.988C148.828 57 148.703 56.96 148.613 56.88C148.523 56.8 148.463 56.71 148.433 56.61L146.948 52.455L145.463 56.61C145.423 56.71 145.358 56.8 145.268 56.88C145.178 56.96 145.053 57 144.893 57H143.393ZM156.106 57.15C155.576 57.15 155.091 57.05 154.651 56.85C154.221 56.64 153.881 56.355 153.631 55.995C153.391 55.635 153.271 55.24 153.271 54.81C153.271 54.13 153.551 53.58 154.111 53.16C154.681 52.73 155.461 52.435 156.451 52.275L158.311 51.99V51.81C158.311 51.44 158.236 51.17 158.086 51C157.936 50.83 157.681 50.745 157.321 50.745C157.121 50.745 156.951 50.78 156.811 50.85C156.681 50.92 156.531 51.025 156.361 51.165C156.231 51.275 156.116 51.355 156.016 51.405C155.976 51.475 155.926 51.51 155.866 51.51H154.126C154.026 51.51 153.941 51.48 153.871 51.42C153.811 51.35 153.786 51.27 153.796 51.18C153.806 50.91 153.941 50.61 154.201 50.28C154.461 49.94 154.856 49.65 155.386 49.41C155.916 49.17 156.571 49.05 157.351 49.05C158.591 49.05 159.511 49.325 160.111 49.875C160.711 50.415 161.011 51.15 161.011 52.08V56.625C161.011 56.725 160.976 56.815 160.906 56.895C160.836 56.965 160.746 57 160.636 57H158.791C158.691 57 158.601 56.965 158.521 56.895C158.451 56.815 158.416 56.725 158.416 56.625V56.1C158.196 56.41 157.891 56.665 157.501 56.865C157.111 57.055 156.646 57.15 156.106 57.15ZM156.856 55.38C157.296 55.38 157.651 55.235 157.921 54.945C158.201 54.655 158.341 54.235 158.341 53.685V53.505L157.096 53.715C156.256 53.875 155.836 54.175 155.836 54.615C155.836 54.845 155.931 55.03 156.121 55.17C156.321 55.31 156.566 55.38 156.856 55.38ZM163.017 57C162.917 57 162.827 56.965 162.747 56.895C162.677 56.815 162.642 56.725 162.642 56.625V49.59C162.642 49.48 162.677 49.39 162.747 49.32C162.817 49.24 162.907 49.2 163.017 49.2H164.847C164.957 49.2 165.047 49.24 165.117 49.32C165.197 49.39 165.237 49.48 165.237 49.59V50.16C165.517 49.85 165.842 49.615 166.212 49.455C166.592 49.285 167.012 49.2 167.472 49.2H168.147C168.257 49.2 168.347 49.235 168.417 49.305C168.487 49.375 168.522 49.465 168.522 49.575V51.21C168.522 51.31 168.487 51.4 168.417 51.48C168.347 51.55 168.257 51.585 168.147 51.585H166.632C166.232 51.585 165.922 51.695 165.702 51.915C165.492 52.135 165.387 52.445 165.387 52.845V56.625C165.387 56.735 165.347 56.825 165.267 56.895C165.197 56.965 165.107 57 164.997 57H163.017ZM169.931 57C169.831 57 169.741 56.965 169.661 56.895C169.591 56.815 169.556 56.725 169.556 56.625V49.575C169.556 49.465 169.591 49.375 169.661 49.305C169.741 49.235 169.831 49.2 169.931 49.2H171.776C171.886 49.2 171.976 49.235 172.046 49.305C172.116 49.375 172.151 49.465 172.151 49.575V50.145C172.421 49.815 172.766 49.55 173.186 49.35C173.616 49.15 174.106 49.05 174.656 49.05C175.226 49.05 175.731 49.18 176.171 49.44C176.621 49.7 176.971 50.085 177.221 50.595C177.481 51.105 177.611 51.72 177.611 52.44V56.625C177.611 56.725 177.576 56.815 177.506 56.895C177.436 56.965 177.346 57 177.236 57H175.241C175.131 57 175.036 56.965 174.956 56.895C174.886 56.825 174.851 56.735 174.851 56.625V52.53C174.851 52.08 174.741 51.735 174.521 51.495C174.311 51.255 174.001 51.135 173.591 51.135C173.191 51.135 172.876 51.26 172.646 51.51C172.416 51.75 172.301 52.09 172.301 52.53V56.625C172.301 56.725 172.266 56.815 172.196 56.895C172.126 56.965 172.036 57 171.926 57H169.931ZM179.628 48.12C179.518 48.12 179.428 48.085 179.358 48.015C179.288 47.935 179.253 47.84 179.253 47.73V46.335C179.253 46.225 179.288 46.135 179.358 46.065C179.438 45.985 179.528 45.945 179.628 45.945H181.503C181.613 45.945 181.703 45.985 181.773 46.065C181.853 46.135 181.893 46.225 181.893 46.335V47.73C181.893 47.84 181.853 47.935 181.773 48.015C181.703 48.085 181.613 48.12 181.503 48.12H179.628ZM179.628 57C179.528 57 179.438 56.965 179.358 56.895C179.288 56.815 179.253 56.725 179.253 56.625V49.575C179.253 49.465 179.288 49.375 179.358 49.305C179.438 49.235 179.528 49.2 179.628 49.2H181.503C181.613 49.2 181.703 49.235 181.773 49.305C181.853 49.375 181.893 49.465 181.893 49.575V56.625C181.893 56.735 181.853 56.825 181.773 56.895C181.703 56.965 181.613 57 181.503 57H179.628ZM183.979 57C183.879 57 183.789 56.965 183.709 56.895C183.639 56.815 183.604 56.725 183.604 56.625V49.575C183.604 49.465 183.639 49.375 183.709 49.305C183.789 49.235 183.879 49.2 183.979 49.2H185.824C185.934 49.2 186.024 49.235 186.094 49.305C186.164 49.375 186.199 49.465 186.199 49.575V50.145C186.469 49.815 186.814 49.55 187.234 49.35C187.664 49.15 188.154 49.05 188.704 49.05C189.274 49.05 189.779 49.18 190.219 49.44C190.669 49.7 191.019 50.085 191.269 50.595C191.529 51.105 191.659 51.72 191.659 52.44V56.625C191.659 56.725 191.624 56.815 191.554 56.895C191.484 56.965 191.394 57 191.284 57H189.289C189.179 57 189.084 56.965 189.004 56.895C188.934 56.825 188.899 56.735 188.899 56.625V52.53C188.899 52.08 188.789 51.735 188.569 51.495C188.359 51.255 188.049 51.135 187.639 51.135C187.239 51.135 186.924 51.26 186.694 51.51C186.464 51.75 186.349 52.09 186.349 52.53V56.625C186.349 56.725 186.314 56.815 186.244 56.895C186.174 56.965 186.084 57 185.974 57H183.979ZM197.201 60.3C196.241 60.3 195.461 60.145 194.861 59.835C194.261 59.525 193.831 59.165 193.571 58.755C193.311 58.355 193.181 58.02 193.181 57.75C193.181 57.65 193.221 57.565 193.301 57.495C193.381 57.425 193.471 57.39 193.571 57.39H195.581C195.681 57.39 195.761 57.41 195.821 57.45C195.881 57.5 195.936 57.58 195.986 57.69C196.086 57.91 196.216 58.08 196.376 58.2C196.536 58.33 196.786 58.395 197.126 58.395C197.556 58.395 197.876 58.285 198.086 58.065C198.296 57.855 198.401 57.5 198.401 57V55.995C197.871 56.545 197.146 56.82 196.226 56.82C195.216 56.82 194.441 56.53 193.901 55.95C193.371 55.36 193.081 54.495 193.031 53.355L193.016 52.95C193.016 51.73 193.286 50.775 193.826 50.085C194.376 49.395 195.176 49.05 196.226 49.05C196.736 49.05 197.186 49.15 197.576 49.35C197.966 49.54 198.291 49.8 198.551 50.13V49.59C198.551 49.48 198.586 49.39 198.656 49.32C198.726 49.24 198.816 49.2 198.926 49.2H200.756C200.866 49.2 200.956 49.24 201.026 49.32C201.106 49.39 201.146 49.48 201.146 49.59V56.775C201.146 57.925 200.801 58.8 200.111 59.4C199.421 60 198.451 60.3 197.201 60.3ZM197.081 54.795C197.511 54.795 197.831 54.665 198.041 54.405C198.251 54.145 198.371 53.815 198.401 53.415C198.411 53.345 198.416 53.195 198.416 52.965C198.416 52.725 198.411 52.575 198.401 52.515C198.371 52.105 198.251 51.775 198.041 51.525C197.831 51.265 197.511 51.135 197.081 51.135C196.641 51.135 196.321 51.27 196.121 51.54C195.921 51.8 195.811 52.165 195.791 52.635L195.776 52.965C195.776 53.535 195.871 53.985 196.061 54.315C196.251 54.635 196.591 54.795 197.081 54.795ZM203.317 53.61C203.207 53.61 203.112 53.575 203.032 53.505C202.962 53.425 202.927 53.33 202.927 53.22V46.875C202.927 46.765 202.962 46.675 203.032 46.605C203.112 46.535 203.207 46.5 203.317 46.5H205.132C205.242 46.5 205.332 46.535 205.402 46.605C205.482 46.675 205.522 46.765 205.522 46.875V53.22C205.522 53.33 205.482 53.425 205.402 53.505C205.332 53.575 205.242 53.61 205.132 53.61H203.317ZM203.257 57C203.157 57 203.067 56.965 202.987 56.895C202.917 56.815 202.882 56.725 202.882 56.625V54.69C202.882 54.58 202.917 54.49 202.987 54.42C203.067 54.34 203.157 54.3 203.257 54.3H205.192C205.292 54.3 205.377 54.34 205.447 54.42C205.527 54.49 205.567 54.58 205.567 54.69V56.625C205.567 56.725 205.532 56.815 205.462 56.895C205.392 56.965 205.302 57 205.192 57H203.257ZM210.98 57C210.88 57 210.79 56.965 210.71 56.895C210.64 56.815 210.605 56.725 210.605 56.625V46.89C210.605 46.78 210.64 46.69 210.71 46.62C210.78 46.54 210.87 46.5 210.98 46.5H218.06C218.17 46.5 218.26 46.54 218.33 46.62C218.41 46.69 218.45 46.78 218.45 46.89V48.375C218.45 48.485 218.41 48.575 218.33 48.645C218.26 48.715 218.17 48.75 218.06 48.75H213.32V50.655H217.73C217.84 50.655 217.93 50.695 218 50.775C218.08 50.845 218.12 50.935 218.12 51.045V52.41C218.12 52.52 218.08 52.615 218 52.695C217.93 52.765 217.84 52.8 217.73 52.8H213.32V54.75H218.18C218.29 54.75 218.38 54.79 218.45 54.87C218.53 54.94 218.57 55.03 218.57 55.14V56.625C218.57 56.735 218.53 56.825 218.45 56.895C218.38 56.965 218.29 57 218.18 57H210.98ZM219.764 57C219.674 57 219.594 56.97 219.524 56.91C219.454 56.84 219.419 56.755 219.419 56.655C219.419 56.575 219.449 56.5 219.509 56.43L221.999 52.995L219.734 49.77C219.674 49.69 219.644 49.615 219.644 49.545C219.644 49.445 219.679 49.365 219.749 49.305C219.819 49.235 219.899 49.2 219.989 49.2H221.924C222.044 49.2 222.134 49.225 222.194 49.275C222.254 49.325 222.314 49.39 222.374 49.47L223.694 51.315L225.029 49.47C225.039 49.46 225.064 49.43 225.104 49.38C225.144 49.33 225.194 49.29 225.254 49.26C225.324 49.22 225.399 49.2 225.479 49.2H227.324C227.414 49.2 227.494 49.235 227.564 49.305C227.634 49.365 227.669 49.44 227.669 49.53C227.669 49.61 227.639 49.69 227.579 49.77L225.269 52.995L227.804 56.43C227.854 56.5 227.879 56.575 227.879 56.655C227.879 56.755 227.844 56.84 227.774 56.91C227.714 56.97 227.634 57 227.534 57H225.509C225.339 57 225.199 56.92 225.089 56.76L223.634 54.78L222.164 56.76C222.104 56.84 222.044 56.9 221.984 56.94C221.924 56.98 221.839 57 221.729 57H219.764ZM232.263 57.15C231.123 57.15 230.198 56.85 229.488 56.25C228.788 55.64 228.413 54.795 228.363 53.715L228.348 53.115L228.363 52.5C228.403 51.42 228.778 50.575 229.488 49.965C230.198 49.355 231.123 49.05 232.263 49.05C233.133 49.05 233.863 49.205 234.453 49.515C235.043 49.825 235.483 50.195 235.773 50.625C236.063 51.045 236.218 51.43 236.238 51.78C236.248 51.89 236.213 51.985 236.133 52.065C236.053 52.135 235.958 52.17 235.848 52.17H233.838C233.728 52.17 233.643 52.145 233.583 52.095C233.523 52.045 233.468 51.965 233.418 51.855C233.308 51.575 233.163 51.37 232.983 51.24C232.813 51.11 232.593 51.045 232.323 51.045C231.553 51.045 231.153 51.555 231.123 52.575L231.108 53.145L231.123 53.64C231.133 54.16 231.238 54.545 231.438 54.795C231.638 55.035 231.933 55.155 232.323 55.155C232.613 55.155 232.838 55.095 232.998 54.975C233.168 54.845 233.308 54.635 233.418 54.345C233.468 54.235 233.523 54.155 233.583 54.105C233.643 54.055 233.728 54.03 233.838 54.03H235.848C235.948 54.03 236.038 54.065 236.118 54.135C236.198 54.205 236.238 54.29 236.238 54.39C236.238 54.7 236.098 55.075 235.818 55.515C235.548 55.945 235.113 56.325 234.513 56.655C233.913 56.985 233.163 57.15 232.263 57.15ZM241.185 57.15C239.965 57.15 239.005 56.825 238.305 56.175C237.605 55.515 237.245 54.56 237.225 53.31V52.845C237.265 51.655 237.635 50.725 238.335 50.055C239.035 49.385 239.98 49.05 241.17 49.05C242.03 49.05 242.755 49.225 243.345 49.575C243.945 49.915 244.39 50.39 244.68 51C244.98 51.6 245.13 52.285 245.13 53.055V53.43C245.13 53.54 245.09 53.635 245.01 53.715C244.94 53.785 244.85 53.82 244.74 53.82H239.985V53.91C239.995 54.36 240.1 54.725 240.3 55.005C240.5 55.275 240.785 55.41 241.155 55.41C241.395 55.41 241.585 55.365 241.725 55.275C241.875 55.175 242.015 55.05 242.145 54.9C242.235 54.8 242.305 54.74 242.355 54.72C242.415 54.69 242.505 54.675 242.625 54.675H244.59C244.68 54.675 244.755 54.705 244.815 54.765C244.885 54.815 244.92 54.88 244.92 54.96C244.92 55.22 244.77 55.525 244.47 55.875C244.18 56.225 243.75 56.525 243.18 56.775C242.62 57.025 241.955 57.15 241.185 57.15ZM242.37 52.29V52.26C242.37 51.78 242.265 51.41 242.055 51.15C241.845 50.88 241.55 50.745 241.17 50.745C240.79 50.745 240.495 50.88 240.285 51.15C240.085 51.41 239.985 51.78 239.985 52.26V52.29H242.37ZM249.745 57.15C248.925 57.15 248.24 57.035 247.69 56.805C247.14 56.575 246.73 56.3 246.46 55.98C246.2 55.66 246.07 55.37 246.07 55.11C246.07 55.01 246.105 54.93 246.175 54.87C246.255 54.8 246.34 54.765 246.43 54.765H248.245C248.305 54.765 248.355 54.785 248.395 54.825C248.565 54.935 248.66 55 248.68 55.02C248.87 55.16 249.045 55.27 249.205 55.35C249.375 55.42 249.575 55.455 249.805 55.455C250.075 55.455 250.295 55.405 250.465 55.305C250.645 55.195 250.735 55.045 250.735 54.855C250.735 54.695 250.685 54.565 250.585 54.465C250.495 54.365 250.315 54.27 250.045 54.18C249.785 54.08 249.385 53.98 248.845 53.88C247.115 53.53 246.25 52.73 246.25 51.48C246.25 51.07 246.38 50.68 246.64 50.31C246.91 49.93 247.3 49.625 247.81 49.395C248.33 49.165 248.95 49.05 249.67 49.05C250.4 49.05 251.03 49.165 251.56 49.395C252.1 49.615 252.51 49.885 252.79 50.205C253.07 50.515 253.21 50.8 253.21 51.06C253.21 51.15 253.175 51.23 253.105 51.3C253.045 51.37 252.97 51.405 252.88 51.405H251.23C251.14 51.405 251.07 51.385 251.02 51.345C250.9 51.285 250.78 51.21 250.66 51.12C250.48 51 250.32 50.91 250.18 50.85C250.05 50.78 249.88 50.745 249.67 50.745C249.42 50.745 249.225 50.8 249.085 50.91C248.945 51.02 248.875 51.16 248.875 51.33C248.875 51.48 248.915 51.605 248.995 51.705C249.085 51.795 249.26 51.885 249.52 51.975C249.79 52.065 250.195 52.16 250.735 52.26C251.715 52.43 252.425 52.735 252.865 53.175C253.315 53.605 253.54 54.11 253.54 54.69C253.54 55.44 253.205 56.04 252.535 56.49C251.875 56.93 250.945 57.15 249.745 57.15ZM258.095 57.15C257.275 57.15 256.59 57.035 256.04 56.805C255.49 56.575 255.08 56.3 254.81 55.98C254.55 55.66 254.42 55.37 254.42 55.11C254.42 55.01 254.455 54.93 254.525 54.87C254.605 54.8 254.69 54.765 254.78 54.765H256.595C256.655 54.765 256.705 54.785 256.745 54.825C256.915 54.935 257.01 55 257.03 55.02C257.22 55.16 257.395 55.27 257.555 55.35C257.725 55.42 257.925 55.455 258.155 55.455C258.425 55.455 258.645 55.405 258.815 55.305C258.995 55.195 259.085 55.045 259.085 54.855C259.085 54.695 259.035 54.565 258.935 54.465C258.845 54.365 258.665 54.27 258.395 54.18C258.135 54.08 257.735 53.98 257.195 53.88C255.465 53.53 254.6 52.73 254.6 51.48C254.6 51.07 254.73 50.68 254.99 50.31C255.26 49.93 255.65 49.625 256.16 49.395C256.68 49.165 257.3 49.05 258.02 49.05C258.75 49.05 259.38 49.165 259.91 49.395C260.45 49.615 260.86 49.885 261.14 50.205C261.42 50.515 261.56 50.8 261.56 51.06C261.56 51.15 261.525 51.23 261.455 51.3C261.395 51.37 261.32 51.405 261.23 51.405H259.58C259.49 51.405 259.42 51.385 259.37 51.345C259.25 51.285 259.13 51.21 259.01 51.12C258.83 51 258.67 50.91 258.53 50.85C258.4 50.78 258.23 50.745 258.02 50.745C257.77 50.745 257.575 50.8 257.435 50.91C257.295 51.02 257.225 51.16 257.225 51.33C257.225 51.48 257.265 51.605 257.345 51.705C257.435 51.795 257.61 51.885 257.87 51.975C258.14 52.065 258.545 52.16 259.085 52.26C260.065 52.43 260.775 52.735 261.215 53.175C261.665 53.605 261.89 54.11 261.89 54.69C261.89 55.44 261.555 56.04 260.885 56.49C260.225 56.93 259.295 57.15 258.095 57.15ZM263.549 48.12C263.439 48.12 263.349 48.085 263.279 48.015C263.209 47.935 263.174 47.84 263.174 47.73V46.335C263.174 46.225 263.209 46.135 263.279 46.065C263.359 45.985 263.449 45.945 263.549 45.945H265.424C265.534 45.945 265.624 45.985 265.694 46.065C265.774 46.135 265.814 46.225 265.814 46.335V47.73C265.814 47.84 265.774 47.935 265.694 48.015C265.624 48.085 265.534 48.12 265.424 48.12H263.549ZM263.549 57C263.449 57 263.359 56.965 263.279 56.895C263.209 56.815 263.174 56.725 263.174 56.625V49.575C263.174 49.465 263.209 49.375 263.279 49.305C263.359 49.235 263.449 49.2 263.549 49.2H265.424C265.534 49.2 265.624 49.235 265.694 49.305C265.774 49.375 265.814 49.465 265.814 49.575V56.625C265.814 56.735 265.774 56.825 265.694 56.895C265.624 56.965 265.534 57 265.424 57H263.549ZM270.315 57C270.175 57 270.065 56.97 269.985 56.91C269.915 56.84 269.855 56.745 269.805 56.625L266.955 49.665C266.945 49.635 266.94 49.595 266.94 49.545C266.94 49.445 266.97 49.365 267.03 49.305C267.1 49.235 267.185 49.2 267.285 49.2H269.07C269.28 49.2 269.43 49.305 269.52 49.515L271.155 54L272.805 49.515C272.835 49.435 272.885 49.365 272.955 49.305C273.025 49.235 273.12 49.2 273.24 49.2H275.04C275.13 49.2 275.21 49.235 275.28 49.305C275.35 49.365 275.385 49.445 275.385 49.545L275.355 49.665L272.52 56.625C272.47 56.745 272.405 56.84 272.325 56.91C272.245 56.97 272.135 57 271.995 57H270.315ZM279.871 57.15C278.651 57.15 277.691 56.825 276.991 56.175C276.291 55.515 275.931 54.56 275.911 53.31V52.845C275.951 51.655 276.321 50.725 277.021 50.055C277.721 49.385 278.666 49.05 279.856 49.05C280.716 49.05 281.441 49.225 282.031 49.575C282.631 49.915 283.076 50.39 283.366 51C283.666 51.6 283.816 52.285 283.816 53.055V53.43C283.816 53.54 283.776 53.635 283.696 53.715C283.626 53.785 283.536 53.82 283.426 53.82H278.671V53.91C278.681 54.36 278.786 54.725 278.986 55.005C279.186 55.275 279.471 55.41 279.841 55.41C280.081 55.41 280.271 55.365 280.411 55.275C280.561 55.175 280.701 55.05 280.831 54.9C280.921 54.8 280.991 54.74 281.041 54.72C281.101 54.69 281.191 54.675 281.311 54.675H283.276C283.366 54.675 283.441 54.705 283.501 54.765C283.571 54.815 283.606 54.88 283.606 54.96C283.606 55.22 283.456 55.525 283.156 55.875C282.866 56.225 282.436 56.525 281.866 56.775C281.306 57.025 280.641 57.15 279.871 57.15ZM281.056 52.29V52.26C281.056 51.78 280.951 51.41 280.741 51.15C280.531 50.88 280.236 50.745 279.856 50.745C279.476 50.745 279.181 50.88 278.971 51.15C278.771 51.41 278.671 51.78 278.671 52.26V52.29H281.056ZM143.985 78C143.905 78 143.83 77.97 143.76 77.91C143.7 77.84 143.67 77.765 143.67 77.685C143.67 77.625 143.675 77.58 143.685 77.55L147.18 67.935C147.28 67.645 147.48 67.5 147.78 67.5H150.12C150.42 67.5 150.62 67.645 150.72 67.935L154.215 77.55C154.225 77.58 154.23 77.625 154.23 77.685C154.23 77.765 154.195 77.84 154.125 77.91C154.065 77.97 153.995 78 153.915 78H151.965C151.725 78 151.555 77.89 151.455 77.67L150.915 76.215H146.985L146.445 77.67C146.345 77.89 146.175 78 145.935 78H143.985ZM147.615 73.965H150.285L148.95 70.14L147.615 73.965ZM158.728 78.15C157.588 78.15 156.663 77.85 155.953 77.25C155.253 76.64 154.878 75.795 154.828 74.715L154.813 74.115L154.828 73.5C154.868 72.42 155.243 71.575 155.953 70.965C156.663 70.355 157.588 70.05 158.728 70.05C159.598 70.05 160.328 70.205 160.918 70.515C161.508 70.825 161.948 71.195 162.238 71.625C162.528 72.045 162.683 72.43 162.703 72.78C162.713 72.89 162.678 72.985 162.598 73.065C162.518 73.135 162.423 73.17 162.313 73.17H160.303C160.193 73.17 160.108 73.145 160.048 73.095C159.988 73.045 159.933 72.965 159.883 72.855C159.773 72.575 159.628 72.37 159.448 72.24C159.278 72.11 159.058 72.045 158.788 72.045C158.018 72.045 157.618 72.555 157.588 73.575L157.573 74.145L157.588 74.64C157.598 75.16 157.703 75.545 157.903 75.795C158.103 76.035 158.398 76.155 158.788 76.155C159.078 76.155 159.303 76.095 159.463 75.975C159.633 75.845 159.773 75.635 159.883 75.345C159.933 75.235 159.988 75.155 160.048 75.105C160.108 75.055 160.193 75.03 160.303 75.03H162.313C162.413 75.03 162.503 75.065 162.583 75.135C162.663 75.205 162.703 75.29 162.703 75.39C162.703 75.7 162.563 76.075 162.283 76.515C162.013 76.945 161.578 77.325 160.978 77.655C160.378 77.985 159.628 78.15 158.728 78.15ZM168.085 78C165.965 78 164.905 77.005 164.905 75.015V72.24H163.72C163.62 72.24 163.53 72.205 163.45 72.135C163.38 72.055 163.345 71.965 163.345 71.865V70.575C163.345 70.465 163.38 70.375 163.45 70.305C163.53 70.235 163.62 70.2 163.72 70.2H164.905V67.725C164.905 67.615 164.94 67.525 165.01 67.455C165.09 67.385 165.18 67.35 165.28 67.35H167.125C167.235 67.35 167.325 67.385 167.395 67.455C167.465 67.525 167.5 67.615 167.5 67.725V70.2H169.375C169.485 70.2 169.575 70.235 169.645 70.305C169.725 70.375 169.765 70.465 169.765 70.575V71.865C169.765 71.975 169.725 72.065 169.645 72.135C169.575 72.205 169.485 72.24 169.375 72.24H167.5V74.79C167.5 75.14 167.565 75.405 167.695 75.585C167.825 75.765 168.035 75.855 168.325 75.855H169.51C169.62 75.855 169.71 75.895 169.78 75.975C169.85 76.045 169.885 76.135 169.885 76.245V77.625C169.885 77.725 169.85 77.815 169.78 77.895C169.71 77.965 169.62 78 169.51 78H168.085ZM171.469 69.12C171.359 69.12 171.269 69.085 171.199 69.015C171.129 68.935 171.094 68.84 171.094 68.73V67.335C171.094 67.225 171.129 67.135 171.199 67.065C171.279 66.985 171.369 66.945 171.469 66.945H173.344C173.454 66.945 173.544 66.985 173.614 67.065C173.694 67.135 173.734 67.225 173.734 67.335V68.73C173.734 68.84 173.694 68.935 173.614 69.015C173.544 69.085 173.454 69.12 173.344 69.12H171.469ZM171.469 78C171.369 78 171.279 77.965 171.199 77.895C171.129 77.815 171.094 77.725 171.094 77.625V70.575C171.094 70.465 171.129 70.375 171.199 70.305C171.279 70.235 171.369 70.2 171.469 70.2H173.344C173.454 70.2 173.544 70.235 173.614 70.305C173.694 70.375 173.734 70.465 173.734 70.575V77.625C173.734 77.735 173.694 77.825 173.614 77.895C173.544 77.965 173.454 78 173.344 78H171.469ZM178.235 78C178.095 78 177.985 77.97 177.905 77.91C177.835 77.84 177.775 77.745 177.725 77.625L174.875 70.665C174.865 70.635 174.86 70.595 174.86 70.545C174.86 70.445 174.89 70.365 174.95 70.305C175.02 70.235 175.105 70.2 175.205 70.2H176.99C177.2 70.2 177.35 70.305 177.44 70.515L179.075 75L180.725 70.515C180.755 70.435 180.805 70.365 180.875 70.305C180.945 70.235 181.04 70.2 181.16 70.2H182.96C183.05 70.2 183.13 70.235 183.2 70.305C183.27 70.365 183.305 70.445 183.305 70.545L183.275 70.665L180.44 77.625C180.39 77.745 180.325 77.84 180.245 77.91C180.165 77.97 180.055 78 179.915 78H178.235ZM184.799 69.12C184.689 69.12 184.599 69.085 184.529 69.015C184.459 68.935 184.424 68.84 184.424 68.73V67.335C184.424 67.225 184.459 67.135 184.529 67.065C184.609 66.985 184.699 66.945 184.799 66.945H186.674C186.784 66.945 186.874 66.985 186.944 67.065C187.024 67.135 187.064 67.225 187.064 67.335V68.73C187.064 68.84 187.024 68.935 186.944 69.015C186.874 69.085 186.784 69.12 186.674 69.12H184.799ZM184.799 78C184.699 78 184.609 77.965 184.529 77.895C184.459 77.815 184.424 77.725 184.424 77.625V70.575C184.424 70.465 184.459 70.375 184.529 70.305C184.609 70.235 184.699 70.2 184.799 70.2H186.674C186.784 70.2 186.874 70.235 186.944 70.305C187.024 70.375 187.064 70.465 187.064 70.575V77.625C187.064 77.735 187.024 77.825 186.944 77.895C186.874 77.965 186.784 78 186.674 78H184.799ZM192.87 78C190.75 78 189.69 77.005 189.69 75.015V72.24H188.505C188.405 72.24 188.315 72.205 188.235 72.135C188.165 72.055 188.13 71.965 188.13 71.865V70.575C188.13 70.465 188.165 70.375 188.235 70.305C188.315 70.235 188.405 70.2 188.505 70.2H189.69V67.725C189.69 67.615 189.725 67.525 189.795 67.455C189.875 67.385 189.965 67.35 190.065 67.35H191.91C192.02 67.35 192.11 67.385 192.18 67.455C192.25 67.525 192.285 67.615 192.285 67.725V70.2H194.16C194.27 70.2 194.36 70.235 194.43 70.305C194.51 70.375 194.55 70.465 194.55 70.575V71.865C194.55 71.975 194.51 72.065 194.43 72.135C194.36 72.205 194.27 72.24 194.16 72.24H192.285V74.79C192.285 75.14 192.35 75.405 192.48 75.585C192.61 75.765 192.82 75.855 193.11 75.855H194.295C194.405 75.855 194.495 75.895 194.565 75.975C194.635 76.045 194.67 76.135 194.67 76.245V77.625C194.67 77.725 194.635 77.815 194.565 77.895C194.495 77.965 194.405 78 194.295 78H192.87ZM197.349 80.85C197.259 80.85 197.184 80.82 197.124 80.76C197.064 80.7 197.034 80.625 197.034 80.535C197.034 80.465 197.044 80.4 197.064 80.34L198.249 77.52L195.369 70.71C195.339 70.63 195.324 70.575 195.324 70.545C195.344 70.445 195.384 70.365 195.444 70.305C195.514 70.235 195.594 70.2 195.684 70.2H197.469C197.679 70.2 197.824 70.305 197.904 70.515L199.569 74.775L201.279 70.515C201.379 70.305 201.529 70.2 201.729 70.2H203.499C203.589 70.2 203.664 70.235 203.724 70.305C203.794 70.365 203.829 70.435 203.829 70.515C203.829 70.585 203.819 70.65 203.799 70.71L199.554 80.535C199.454 80.745 199.299 80.85 199.089 80.85H197.349ZM208.197 78C208.097 78 208.007 77.965 207.927 77.895C207.857 77.815 207.822 77.725 207.822 77.625V67.89C207.822 67.78 207.857 67.69 207.927 67.62C207.997 67.54 208.087 67.5 208.197 67.5H212.142C213.622 67.5 214.772 67.855 215.592 68.565C216.412 69.265 216.842 70.275 216.882 71.595C216.892 71.885 216.897 72.27 216.897 72.75C216.897 73.23 216.892 73.61 216.882 73.89C216.782 76.63 215.227 78 212.217 78H208.197ZM212.142 75.75C212.772 75.75 213.237 75.6 213.537 75.3C213.837 75 213.997 74.52 214.017 73.86C214.037 73.57 214.047 73.195 214.047 72.735C214.047 72.275 214.037 71.905 214.017 71.625C213.997 70.985 213.822 70.515 213.492 70.215C213.172 69.905 212.697 69.75 212.067 69.75H210.642V75.75H212.142ZM222.098 78.15C220.878 78.15 219.918 77.825 219.218 77.175C218.518 76.515 218.158 75.56 218.138 74.31V73.845C218.178 72.655 218.548 71.725 219.248 71.055C219.948 70.385 220.893 70.05 222.083 70.05C222.943 70.05 223.668 70.225 224.258 70.575C224.858 70.915 225.303 71.39 225.593 72C225.893 72.6 226.043 73.285 226.043 74.055V74.43C226.043 74.54 226.003 74.635 225.923 74.715C225.853 74.785 225.763 74.82 225.653 74.82H220.898V74.91C220.908 75.36 221.013 75.725 221.213 76.005C221.413 76.275 221.698 76.41 222.068 76.41C222.308 76.41 222.498 76.365 222.638 76.275C222.788 76.175 222.928 76.05 223.058 75.9C223.148 75.8 223.218 75.74 223.268 75.72C223.328 75.69 223.418 75.675 223.538 75.675H225.503C225.593 75.675 225.668 75.705 225.728 75.765C225.798 75.815 225.833 75.88 225.833 75.96C225.833 76.22 225.683 76.525 225.383 76.875C225.093 77.225 224.663 77.525 224.093 77.775C223.533 78.025 222.868 78.15 222.098 78.15ZM223.283 73.29V73.26C223.283 72.78 223.178 72.41 222.968 72.15C222.758 71.88 222.463 71.745 222.083 71.745C221.703 71.745 221.408 71.88 221.198 72.15C220.998 72.41 220.898 72.78 220.898 73.26V73.29H223.283ZM231.469 78C229.349 78 228.289 77.005 228.289 75.015V72.24H227.104C227.004 72.24 226.914 72.205 226.834 72.135C226.764 72.055 226.729 71.965 226.729 71.865V70.575C226.729 70.465 226.764 70.375 226.834 70.305C226.914 70.235 227.004 70.2 227.104 70.2H228.289V67.725C228.289 67.615 228.324 67.525 228.394 67.455C228.474 67.385 228.564 67.35 228.664 67.35H230.509C230.619 67.35 230.709 67.385 230.779 67.455C230.849 67.525 230.884 67.615 230.884 67.725V70.2H232.759C232.869 70.2 232.959 70.235 233.029 70.305C233.109 70.375 233.149 70.465 233.149 70.575V71.865C233.149 71.975 233.109 72.065 233.029 72.135C232.959 72.205 232.869 72.24 232.759 72.24H230.884V74.79C230.884 75.14 230.949 75.405 231.079 75.585C231.209 75.765 231.419 75.855 231.709 75.855H232.894C233.004 75.855 233.094 75.895 233.164 75.975C233.234 76.045 233.269 76.135 233.269 76.245V77.625C233.269 77.725 233.234 77.815 233.164 77.895C233.094 77.965 233.004 78 232.894 78H231.469ZM238.138 78.15C236.918 78.15 235.958 77.825 235.258 77.175C234.558 76.515 234.198 75.56 234.178 74.31V73.845C234.218 72.655 234.588 71.725 235.288 71.055C235.988 70.385 236.933 70.05 238.123 70.05C238.983 70.05 239.708 70.225 240.298 70.575C240.898 70.915 241.343 71.39 241.633 72C241.933 72.6 242.083 73.285 242.083 74.055V74.43C242.083 74.54 242.043 74.635 241.963 74.715C241.893 74.785 241.803 74.82 241.693 74.82H236.938V74.91C236.948 75.36 237.053 75.725 237.253 76.005C237.453 76.275 237.738 76.41 238.108 76.41C238.348 76.41 238.538 76.365 238.678 76.275C238.828 76.175 238.968 76.05 239.098 75.9C239.188 75.8 239.258 75.74 239.308 75.72C239.368 75.69 239.458 75.675 239.578 75.675H241.543C241.633 75.675 241.708 75.705 241.768 75.765C241.838 75.815 241.873 75.88 241.873 75.96C241.873 76.22 241.723 76.525 241.423 76.875C241.133 77.225 240.703 77.525 240.133 77.775C239.573 78.025 238.908 78.15 238.138 78.15ZM239.323 73.29V73.26C239.323 72.78 239.218 72.41 239.008 72.15C238.798 71.88 238.503 71.745 238.123 71.745C237.743 71.745 237.448 71.88 237.238 72.15C237.038 72.41 236.938 72.78 236.938 73.26V73.29H239.323ZM247.058 78.15C245.918 78.15 244.993 77.85 244.283 77.25C243.583 76.64 243.208 75.795 243.158 74.715L243.143 74.115L243.158 73.5C243.198 72.42 243.573 71.575 244.283 70.965C244.993 70.355 245.918 70.05 247.058 70.05C247.928 70.05 248.658 70.205 249.248 70.515C249.838 70.825 250.278 71.195 250.568 71.625C250.858 72.045 251.013 72.43 251.033 72.78C251.043 72.89 251.008 72.985 250.928 73.065C250.848 73.135 250.753 73.17 250.643 73.17H248.633C248.523 73.17 248.438 73.145 248.378 73.095C248.318 73.045 248.263 72.965 248.213 72.855C248.103 72.575 247.958 72.37 247.778 72.24C247.608 72.11 247.388 72.045 247.118 72.045C246.348 72.045 245.948 72.555 245.918 73.575L245.903 74.145L245.918 74.64C245.928 75.16 246.033 75.545 246.233 75.795C246.433 76.035 246.728 76.155 247.118 76.155C247.408 76.155 247.633 76.095 247.793 75.975C247.963 75.845 248.103 75.635 248.213 75.345C248.263 75.235 248.318 75.155 248.378 75.105C248.438 75.055 248.523 75.03 248.633 75.03H250.643C250.743 75.03 250.833 75.065 250.913 75.135C250.993 75.205 251.033 75.29 251.033 75.39C251.033 75.7 250.893 76.075 250.613 76.515C250.343 76.945 249.908 77.325 249.308 77.655C248.708 77.985 247.958 78.15 247.058 78.15ZM256.415 78C254.295 78 253.235 77.005 253.235 75.015V72.24H252.05C251.95 72.24 251.86 72.205 251.78 72.135C251.71 72.055 251.675 71.965 251.675 71.865V70.575C251.675 70.465 251.71 70.375 251.78 70.305C251.86 70.235 251.95 70.2 252.05 70.2H253.235V67.725C253.235 67.615 253.27 67.525 253.34 67.455C253.42 67.385 253.51 67.35 253.61 67.35H255.455C255.565 67.35 255.655 67.385 255.725 67.455C255.795 67.525 255.83 67.615 255.83 67.725V70.2H257.705C257.815 70.2 257.905 70.235 257.975 70.305C258.055 70.375 258.095 70.465 258.095 70.575V71.865C258.095 71.975 258.055 72.065 257.975 72.135C257.905 72.205 257.815 72.24 257.705 72.24H255.83V74.79C255.83 75.14 255.895 75.405 256.025 75.585C256.155 75.765 256.365 75.855 256.655 75.855H257.84C257.95 75.855 258.04 75.895 258.11 75.975C258.18 76.045 258.215 76.135 258.215 76.245V77.625C258.215 77.725 258.18 77.815 258.11 77.895C258.04 77.965 257.95 78 257.84 78H256.415ZM263.084 78.15C261.864 78.15 260.904 77.825 260.204 77.175C259.504 76.515 259.144 75.56 259.124 74.31V73.845C259.164 72.655 259.534 71.725 260.234 71.055C260.934 70.385 261.879 70.05 263.069 70.05C263.929 70.05 264.654 70.225 265.244 70.575C265.844 70.915 266.289 71.39 266.579 72C266.879 72.6 267.029 73.285 267.029 74.055V74.43C267.029 74.54 266.989 74.635 266.909 74.715C266.839 74.785 266.749 74.82 266.639 74.82H261.884V74.91C261.894 75.36 261.999 75.725 262.199 76.005C262.399 76.275 262.684 76.41 263.054 76.41C263.294 76.41 263.484 76.365 263.624 76.275C263.774 76.175 263.914 76.05 264.044 75.9C264.134 75.8 264.204 75.74 264.254 75.72C264.314 75.69 264.404 75.675 264.524 75.675H266.489C266.579 75.675 266.654 75.705 266.714 75.765C266.784 75.815 266.819 75.88 266.819 75.96C266.819 76.22 266.669 76.525 266.369 76.875C266.079 77.225 265.649 77.525 265.079 77.775C264.519 78.025 263.854 78.15 263.084 78.15ZM264.269 73.29V73.26C264.269 72.78 264.164 72.41 263.954 72.15C263.744 71.88 263.449 71.745 263.069 71.745C262.689 71.745 262.394 71.88 262.184 72.15C261.984 72.41 261.884 72.78 261.884 73.26V73.29H264.269ZM271.3 78.15C270.33 78.15 269.565 77.845 269.005 77.235C268.455 76.625 268.16 75.755 268.12 74.625L268.105 74.1L268.12 73.56C268.16 72.47 268.46 71.615 269.02 70.995C269.58 70.365 270.34 70.05 271.3 70.05C272.2 70.05 272.925 70.34 273.475 70.92V67.725C273.475 67.615 273.51 67.525 273.58 67.455C273.66 67.385 273.75 67.35 273.85 67.35H275.785C275.895 67.35 275.985 67.385 276.055 67.455C276.135 67.525 276.175 67.615 276.175 67.725V77.625C276.175 77.735 276.135 77.825 276.055 77.895C275.985 77.965 275.895 78 275.785 78H274C273.9 78 273.81 77.965 273.73 77.895C273.66 77.815 273.625 77.725 273.625 77.625V77.16C273.085 77.82 272.31 78.15 271.3 78.15ZM272.17 76.065C272.6 76.065 272.92 75.93 273.13 75.66C273.34 75.38 273.455 75.03 273.475 74.61C273.495 74.33 273.505 74.14 273.505 74.04C273.505 73.93 273.495 73.745 273.475 73.485C273.455 73.095 273.335 72.775 273.115 72.525C272.905 72.265 272.59 72.135 272.17 72.135C271.72 72.135 271.395 72.27 271.195 72.54C271.005 72.8 270.895 73.165 270.865 73.635L270.85 74.1L270.865 74.565C270.895 75.035 271.005 75.405 271.195 75.675C271.395 75.935 271.72 76.065 272.17 76.065ZM278.331 74.61C278.221 74.61 278.126 74.575 278.046 74.505C277.976 74.425 277.941 74.33 277.941 74.22V67.875C277.941 67.765 277.976 67.675 278.046 67.605C278.126 67.535 278.221 67.5 278.331 67.5H280.146C280.256 67.5 280.346 67.535 280.416 67.605C280.496 67.675 280.536 67.765 280.536 67.875V74.22C280.536 74.33 280.496 74.425 280.416 74.505C280.346 74.575 280.256 74.61 280.146 74.61H278.331ZM278.271 78C278.171 78 278.081 77.965 278.001 77.895C277.931 77.815 277.896 77.725 277.896 77.625V75.69C277.896 75.58 277.931 75.49 278.001 75.42C278.081 75.34 278.171 75.3 278.271 75.3H280.206C280.306 75.3 280.391 75.34 280.461 75.42C280.541 75.49 280.581 75.58 280.581 75.69V77.625C280.581 77.725 280.546 77.815 280.476 77.895C280.406 77.965 280.316 78 280.206 78H278.271Z" fill="#123B49"/>
<defs>
<filter id="filter0_d" x="68" y="6" width="289" height="172" filterUnits="userSpaceOnUse" color-interpolation-filters="sRGB">
<feFlood flood-opacity="0" result="BackgroundImageFix"/>
<feColorMatrix in="SourceAlpha" type="matrix" values="0 0 0 0 0 0 0 0 0 0 0 0 0 0 0 0 0 0 127 0"/>
<feOffset dy="30"/>
<feGaussianBlur stdDeviation="25"/>
<feColorMatrix type="matrix" values="0 0 0 0 0 0 0 0 0 0.149449 0 0 0 0 0.191667 0 0 0 0.15 0"/>
<feBlend mode="normal" in2="BackgroundImageFix" result="effect1_dropShadow"/>
<feBlend mode="normal" in="SourceGraphic" in2="effect1_dropShadow" result="shape"/>
</filter>
<linearGradient id="paint0_linear" x1="35.5229" y1="0.378174" x2="35.5229" y2="198" gradientUnits="userSpaceOnUse">
<stop stop-color="#00DED1"/>
<stop offset="1" stop-color="#0282F9"/>
</linearGradient>
<linearGradient id="paint1_linear" x1="118" y1="98" x2="301.319" y2="14.3544" gradientUnits="userSpaceOnUse">
<stop stop-color="#00DED1"/>
<stop offset="1" stop-color="#0282F9"/>
</linearGradient>
</defs>
</svg>
