<svg width="282" height="200" viewBox="0 0 282 200" fill="none" xmlns="http://www.w3.org/2000/svg">
<rect width="282" height="45" rx="10" fill="#F6F7FB"/>
<circle cx="23.5" cy="22.5" r="14.5" fill="#2878B7"/>
<path d="M29.3 23.0396V27.0385H26.9592V23.2835C26.9592 22.3569 26.6178 21.7229 25.7888 21.7229C25.1548 21.7229 24.7647 22.1618 24.6184 22.552C24.5696 22.6983 24.5208 22.8933 24.5208 23.1372V27.0385H22.18C22.18 27.0385 22.2288 20.6988 22.18 20.0649H24.5208V21.0402C24.8134 20.5525 25.3986 19.8698 26.6178 19.8698C28.1296 19.8698 29.3 20.8939 29.3 23.0396ZM19.7417 16.7C18.9614 16.7 18.425 17.2364 18.425 17.9191C18.425 18.6019 18.9127 19.1383 19.6929 19.1383C20.522 19.1383 21.0096 18.6019 21.0096 17.9191C21.0584 17.1876 20.5707 16.7 19.7417 16.7ZM18.5713 27.0385H20.9121V20.0649H18.5713V27.0385Z" fill="white"/>
<path d="M267 15L253.25 29L247 22.6364" stroke="#00D0D6" stroke-width="3" stroke-linecap="round" stroke-linejoin="round"/>
<path d="M48.65 28C48.55 28 48.47 27.97 48.41 27.91C48.35 27.84 48.32 27.755 48.32 27.655V17.845C48.32 17.745 48.35 17.665 48.41 17.605C48.47 17.535 48.55 17.5 48.65 17.5H49.4C49.5 17.5 49.58 17.535 49.64 17.605C49.7 17.665 49.73 17.745 49.73 17.845V26.74H54.74C54.85 26.74 54.935 26.775 54.995 26.845C55.065 26.905 55.1 26.985 55.1 27.085V27.655C55.1 27.755 55.065 27.84 54.995 27.91C54.925 27.97 54.84 28 54.74 28H48.65ZM56.7582 18.73C56.6582 18.73 56.5732 18.7 56.5032 18.64C56.4432 18.57 56.4132 18.485 56.4132 18.385V17.605C56.4132 17.505 56.4432 17.42 56.5032 17.35C56.5732 17.28 56.6582 17.245 56.7582 17.245H57.6432C57.7432 17.245 57.8282 17.28 57.8982 17.35C57.9682 17.42 58.0032 17.505 58.0032 17.605V18.385C58.0032 18.485 57.9682 18.57 57.8982 18.64C57.8282 18.7 57.7432 18.73 57.6432 18.73H56.7582ZM56.8782 28C56.7782 28 56.6932 27.97 56.6232 27.91C56.5632 27.84 56.5332 27.755 56.5332 27.655V20.545C56.5332 20.445 56.5632 20.365 56.6232 20.305C56.6932 20.235 56.7782 20.2 56.8782 20.2H57.5382C57.6382 20.2 57.7182 20.235 57.7782 20.305C57.8482 20.365 57.8832 20.445 57.8832 20.545V27.655C57.8832 27.755 57.8482 27.84 57.7782 27.91C57.7182 27.97 57.6382 28 57.5382 28H56.8782ZM60.4817 28C60.3817 28 60.2967 27.97 60.2267 27.91C60.1667 27.84 60.1367 27.755 60.1367 27.655V20.545C60.1367 20.445 60.1667 20.365 60.2267 20.305C60.2967 20.235 60.3817 20.2 60.4817 20.2H61.1267C61.2367 20.2 61.3217 20.23 61.3817 20.29C61.4417 20.35 61.4717 20.435 61.4717 20.545V21.205C61.7717 20.835 62.1167 20.55 62.5067 20.35C62.9067 20.15 63.4017 20.05 63.9917 20.05C64.9517 20.05 65.6967 20.36 66.2267 20.98C66.7567 21.59 67.0217 22.4 67.0217 23.41V27.655C67.0217 27.755 66.9867 27.84 66.9167 27.91C66.8567 27.97 66.7767 28 66.6767 28H65.9867C65.8867 28 65.8017 27.97 65.7317 27.91C65.6717 27.84 65.6417 27.755 65.6417 27.655V23.5C65.6417 22.78 65.4667 22.22 65.1167 21.82C64.7667 21.42 64.2667 21.22 63.6167 21.22C62.9767 21.22 62.4667 21.425 62.0867 21.835C61.7067 22.235 61.5167 22.79 61.5167 23.5V27.655C61.5167 27.755 61.4817 27.84 61.4117 27.91C61.3517 27.97 61.2717 28 61.1717 28H60.4817ZM69.5495 28C69.4495 28 69.3645 27.97 69.2945 27.91C69.2345 27.84 69.2045 27.755 69.2045 27.655V17.695C69.2045 17.585 69.2345 17.5 69.2945 17.44C69.3645 17.38 69.4495 17.35 69.5495 17.35H70.1945C70.2945 17.35 70.3745 17.385 70.4345 17.455C70.5045 17.515 70.5395 17.595 70.5395 17.695V22.93L73.5395 20.455C73.6895 20.345 73.7945 20.275 73.8545 20.245C73.9145 20.215 74.0095 20.2 74.1395 20.2H74.8895C74.9795 20.2 75.0495 20.23 75.0995 20.29C75.1595 20.34 75.1895 20.415 75.1895 20.515C75.1895 20.605 75.1345 20.7 75.0245 20.8L71.5145 23.68L75.3995 27.4C75.5095 27.51 75.5645 27.605 75.5645 27.685C75.5645 27.775 75.5345 27.85 75.4745 27.91C75.4245 27.97 75.3545 28 75.2645 28H74.5295C74.3795 28 74.2695 27.985 74.1995 27.955C74.1395 27.925 74.0495 27.855 73.9295 27.745L70.5395 24.535V27.655C70.5395 27.755 70.5045 27.84 70.4345 27.91C70.3745 27.97 70.2945 28 70.1945 28H69.5495ZM79.6037 28.15C78.5837 28.15 77.7687 27.835 77.1587 27.205C76.5487 26.565 76.2137 25.695 76.1537 24.595L76.1387 24.085L76.1537 23.59C76.2137 22.51 76.5487 21.65 77.1587 21.01C77.7687 20.37 78.5837 20.05 79.6037 20.05C80.7037 20.05 81.5537 20.4 82.1537 21.1C82.7637 21.8 83.0687 22.75 83.0687 23.95V24.22C83.0687 24.32 83.0337 24.405 82.9637 24.475C82.9037 24.535 82.8237 24.565 82.7237 24.565H77.5187V24.7C77.5487 25.35 77.7487 25.905 78.1187 26.365C78.4887 26.825 78.9787 27.055 79.5887 27.055C80.0587 27.055 80.4387 26.965 80.7287 26.785C81.0287 26.595 81.2537 26.4 81.4037 26.2C81.4937 26.08 81.5637 26.01 81.6137 25.99C81.6637 25.96 81.7487 25.945 81.8687 25.945H82.5287C82.6187 25.945 82.6937 25.97 82.7537 26.02C82.8237 26.07 82.8587 26.135 82.8587 26.215C82.8587 26.435 82.7237 26.7 82.4537 27.01C82.1837 27.32 81.7987 27.59 81.2987 27.82C80.8087 28.04 80.2437 28.15 79.6037 28.15ZM81.7037 23.545V23.5C81.7037 22.8 81.5137 22.23 81.1337 21.79C80.7537 21.35 80.2437 21.13 79.6037 21.13C78.9537 21.13 78.4437 21.35 78.0737 21.79C77.7037 22.23 77.5187 22.8 77.5187 23.5V23.545H81.7037ZM87.7426 28.15C86.6926 28.15 85.9026 27.81 85.3726 27.13C84.8526 26.45 84.5726 25.59 84.5326 24.55L84.5176 24.1L84.5326 23.65C84.5726 22.62 84.8576 21.765 85.3876 21.085C85.9176 20.395 86.7026 20.05 87.7426 20.05C88.7826 20.05 89.5926 20.42 90.1726 21.16V17.695C90.1726 17.595 90.2026 17.515 90.2626 17.455C90.3326 17.385 90.4176 17.35 90.5176 17.35H91.1926C91.2926 17.35 91.3726 17.385 91.4326 17.455C91.5026 17.515 91.5376 17.595 91.5376 17.695V27.655C91.5376 27.755 91.5026 27.84 91.4326 27.91C91.3726 27.97 91.2926 28 91.1926 28H90.5476C90.4476 28 90.3676 27.97 90.3076 27.91C90.2476 27.84 90.2176 27.755 90.2176 27.655V27.01C89.6476 27.77 88.8226 28.15 87.7426 28.15ZM88.0276 26.98C88.7276 26.98 89.2526 26.75 89.6026 26.29C89.9526 25.82 90.1426 25.265 90.1726 24.625C90.1826 24.515 90.1876 24.325 90.1876 24.055C90.1876 23.775 90.1826 23.58 90.1726 23.47C90.1526 22.86 89.9576 22.335 89.5876 21.895C89.2276 21.445 88.7076 21.22 88.0276 21.22C87.3076 21.22 86.7826 21.445 86.4526 21.895C86.1226 22.345 85.9426 22.935 85.9126 23.665L85.8976 24.1C85.8976 26.02 86.6076 26.98 88.0276 26.98ZM94.3238 28C94.2238 28 94.1438 27.97 94.0838 27.91C94.0238 27.84 93.9938 27.755 93.9938 27.655V17.845C93.9938 17.745 94.0238 17.665 94.0838 17.605C94.1438 17.535 94.2238 17.5 94.3238 17.5H95.0738C95.1838 17.5 95.2688 17.53 95.3288 17.59C95.3888 17.65 95.4188 17.735 95.4188 17.845V27.655C95.4188 27.755 95.3838 27.84 95.3138 27.91C95.2538 27.97 95.1738 28 95.0738 28H94.3238ZM98.2161 28C98.1161 28 98.0311 27.97 97.9611 27.91C97.9011 27.84 97.8711 27.755 97.8711 27.655V20.545C97.8711 20.445 97.9011 20.365 97.9611 20.305C98.0311 20.235 98.1161 20.2 98.2161 20.2H98.8611C98.9711 20.2 99.0561 20.23 99.1161 20.29C99.1761 20.35 99.2061 20.435 99.2061 20.545V21.205C99.5061 20.835 99.8511 20.55 100.241 20.35C100.641 20.15 101.136 20.05 101.726 20.05C102.686 20.05 103.431 20.36 103.961 20.98C104.491 21.59 104.756 22.4 104.756 23.41V27.655C104.756 27.755 104.721 27.84 104.651 27.91C104.591 27.97 104.511 28 104.411 28H103.721C103.621 28 103.536 27.97 103.466 27.91C103.406 27.84 103.376 27.755 103.376 27.655V23.5C103.376 22.78 103.201 22.22 102.851 21.82C102.501 21.42 102.001 21.22 101.351 21.22C100.711 21.22 100.201 21.425 99.8211 21.835C99.4411 22.235 99.2511 22.79 99.2511 23.5V27.655C99.2511 27.755 99.2161 27.84 99.1461 27.91C99.0861 27.97 99.0061 28 98.9061 28H98.2161ZM111.14 28C111.04 28 110.96 27.97 110.9 27.91C110.84 27.84 110.81 27.755 110.81 27.655V17.86C110.81 17.75 110.84 17.665 110.9 17.605C110.96 17.535 111.04 17.5 111.14 17.5H115.235C116.295 17.5 117.095 17.755 117.635 18.265C118.175 18.775 118.445 19.44 118.445 20.26C118.445 20.82 118.315 21.29 118.055 21.67C117.795 22.04 117.49 22.31 117.14 22.48C117.57 22.69 117.93 23.015 118.22 23.455C118.51 23.895 118.655 24.4 118.655 24.97C118.655 25.53 118.525 26.04 118.265 26.5C118.015 26.96 117.64 27.325 117.14 27.595C116.64 27.865 116.045 28 115.355 28H111.14ZM115.01 21.955C115.66 21.955 116.155 21.81 116.495 21.52C116.835 21.22 117.005 20.805 117.005 20.275C117.005 19.755 116.835 19.36 116.495 19.09C116.165 18.82 115.67 18.685 115.01 18.685H112.22V21.955H115.01ZM115.16 26.815C115.8 26.815 116.3 26.645 116.66 26.305C117.03 25.955 117.215 25.51 117.215 24.97C117.215 24.42 117.03 23.975 116.66 23.635C116.3 23.295 115.8 23.125 115.16 23.125H112.22V26.815H115.16ZM122.78 28.15C122.29 28.15 121.835 28.05 121.415 27.85C121.005 27.65 120.675 27.38 120.425 27.04C120.185 26.69 120.065 26.305 120.065 25.885C120.065 25.225 120.335 24.685 120.875 24.265C121.415 23.845 122.15 23.565 123.08 23.425L125.33 23.11V22.675C125.33 21.645 124.735 21.13 123.545 21.13C123.085 21.13 122.715 21.225 122.435 21.415C122.155 21.595 121.95 21.81 121.82 22.06C121.78 22.16 121.735 22.23 121.685 22.27C121.645 22.3 121.585 22.315 121.505 22.315H120.92C120.83 22.315 120.75 22.285 120.68 22.225C120.62 22.155 120.59 22.075 120.59 21.985C120.59 21.755 120.695 21.49 120.905 21.19C121.125 20.88 121.46 20.615 121.91 20.395C122.36 20.165 122.91 20.05 123.56 20.05C124.68 20.05 125.48 20.31 125.96 20.83C126.45 21.35 126.695 22 126.695 22.78V27.655C126.695 27.755 126.66 27.84 126.59 27.91C126.53 27.97 126.45 28 126.35 28H125.69C125.59 28 125.51 27.97 125.45 27.91C125.39 27.84 125.36 27.755 125.36 27.655V26.995C125.14 27.325 124.82 27.6 124.4 27.82C123.98 28.04 123.44 28.15 122.78 28.15ZM123.08 27.055C123.74 27.055 124.28 26.84 124.7 26.41C125.12 25.98 125.33 25.355 125.33 24.535V24.115L123.575 24.37C122.855 24.47 122.31 24.64 121.94 24.88C121.57 25.12 121.385 25.42 121.385 25.78C121.385 26.19 121.55 26.505 121.88 26.725C122.22 26.945 122.62 27.055 123.08 27.055ZM131.537 28.15C130.847 28.15 130.262 28.04 129.782 27.82C129.312 27.59 128.962 27.33 128.732 27.04C128.502 26.75 128.387 26.51 128.387 26.32C128.387 26.22 128.422 26.145 128.492 26.095C128.562 26.035 128.637 26.005 128.717 26.005H129.347C129.407 26.005 129.452 26.015 129.482 26.035C129.522 26.055 129.572 26.1 129.632 26.17C129.862 26.45 130.117 26.67 130.397 26.83C130.687 26.99 131.072 27.07 131.552 27.07C132.092 27.07 132.522 26.97 132.842 26.77C133.172 26.57 133.337 26.28 133.337 25.9C133.337 25.65 133.267 25.45 133.127 25.3C132.987 25.15 132.752 25.015 132.422 24.895C132.102 24.775 131.622 24.645 130.982 24.505C130.112 24.315 129.497 24.04 129.137 23.68C128.777 23.32 128.597 22.855 128.597 22.285C128.597 21.915 128.707 21.56 128.927 21.22C129.147 20.87 129.472 20.59 129.902 20.38C130.342 20.16 130.862 20.05 131.462 20.05C132.092 20.05 132.627 20.155 133.067 20.365C133.517 20.575 133.852 20.82 134.072 21.1C134.302 21.38 134.417 21.615 134.417 21.805C134.417 21.895 134.382 21.97 134.312 22.03C134.252 22.09 134.177 22.12 134.087 22.12H133.517C133.377 22.12 133.277 22.065 133.217 21.955C133.047 21.765 132.902 21.62 132.782 21.52C132.672 21.41 132.507 21.32 132.287 21.25C132.067 21.17 131.792 21.13 131.462 21.13C130.972 21.13 130.597 21.235 130.337 21.445C130.077 21.645 129.947 21.915 129.947 22.255C129.947 22.465 130.002 22.645 130.112 22.795C130.222 22.935 130.432 23.07 130.742 23.2C131.052 23.32 131.512 23.445 132.122 23.575C133.072 23.775 133.742 24.06 134.132 24.43C134.532 24.8 134.732 25.275 134.732 25.855C134.732 26.285 134.607 26.675 134.357 27.025C134.117 27.375 133.752 27.65 133.262 27.85C132.782 28.05 132.207 28.15 131.537 28.15ZM136.709 18.73C136.609 18.73 136.524 18.7 136.454 18.64C136.394 18.57 136.364 18.485 136.364 18.385V17.605C136.364 17.505 136.394 17.42 136.454 17.35C136.524 17.28 136.609 17.245 136.709 17.245H137.594C137.694 17.245 137.779 17.28 137.849 17.35C137.919 17.42 137.954 17.505 137.954 17.605V18.385C137.954 18.485 137.919 18.57 137.849 18.64C137.779 18.7 137.694 18.73 137.594 18.73H136.709ZM136.829 28C136.729 28 136.644 27.97 136.574 27.91C136.514 27.84 136.484 27.755 136.484 27.655V20.545C136.484 20.445 136.514 20.365 136.574 20.305C136.644 20.235 136.729 20.2 136.829 20.2H137.489C137.589 20.2 137.669 20.235 137.729 20.305C137.799 20.365 137.834 20.445 137.834 20.545V27.655C137.834 27.755 137.799 27.84 137.729 27.91C137.669 27.97 137.589 28 137.489 28H136.829ZM143.208 28.15C142.138 28.15 141.303 27.85 140.703 27.25C140.103 26.64 139.788 25.79 139.758 24.7L139.743 24.1L139.758 23.5C139.788 22.41 140.103 21.565 140.703 20.965C141.303 20.355 142.138 20.05 143.208 20.05C143.928 20.05 144.533 20.18 145.023 20.44C145.523 20.69 145.893 21.005 146.133 21.385C146.383 21.765 146.518 22.145 146.538 22.525C146.548 22.615 146.513 22.695 146.433 22.765C146.363 22.835 146.283 22.87 146.193 22.87H145.533C145.433 22.87 145.358 22.85 145.308 22.81C145.258 22.76 145.208 22.675 145.158 22.555C144.978 22.065 144.728 21.72 144.408 21.52C144.098 21.31 143.703 21.205 143.223 21.205C142.593 21.205 142.093 21.4 141.723 21.79C141.353 22.18 141.153 22.775 141.123 23.575L141.108 24.1L141.123 24.625C141.153 25.425 141.353 26.02 141.723 26.41C142.093 26.8 142.593 26.995 143.223 26.995C143.713 26.995 144.113 26.895 144.423 26.695C144.733 26.485 144.978 26.135 145.158 25.645C145.208 25.525 145.258 25.445 145.308 25.405C145.358 25.355 145.433 25.33 145.533 25.33H146.193C146.283 25.33 146.363 25.365 146.433 25.435C146.513 25.505 146.548 25.585 146.538 25.675C146.518 26.045 146.383 26.42 146.133 26.8C145.893 27.18 145.523 27.5 145.023 27.76C144.533 28.02 143.928 28.15 143.208 28.15Z" fill="black"/>
<rect y="52" width="282" height="45" rx="10" fill="#F6F7FB"/>
<circle cx="23.5" cy="74.5" r="14.5" fill="#2878B7"/>
<path d="M29.3 75.0396V79.0385H26.9592V75.2835C26.9592 74.3569 26.6178 73.7229 25.7888 73.7229C25.1548 73.7229 24.7647 74.1618 24.6184 74.552C24.5696 74.6983 24.5208 74.8933 24.5208 75.1372V79.0385H22.18C22.18 79.0385 22.2288 72.6988 22.18 72.0649H24.5208V73.0402C24.8134 72.5525 25.3986 71.8698 26.6178 71.8698C28.1296 71.8698 29.3 72.8939 29.3 75.0396ZM19.7417 68.7C18.9614 68.7 18.425 69.2364 18.425 69.9191C18.425 70.6019 18.9127 71.1383 19.6929 71.1383C20.522 71.1383 21.0096 70.6019 21.0096 69.9191C21.0584 69.1876 20.5707 68.7 19.7417 68.7ZM18.5713 79.0385H20.9121V72.0649H18.5713V79.0385Z" fill="white"/>
<path d="M267 67L253.25 81L247 74.6364" stroke="#00D0D6" stroke-width="3" stroke-linecap="round" stroke-linejoin="round"/>
<path d="M48.65 80C48.55 80 48.47 79.97 48.41 79.91C48.35 79.84 48.32 79.755 48.32 79.655V69.845C48.32 69.745 48.35 69.665 48.41 69.605C48.47 69.535 48.55 69.5 48.65 69.5H49.4C49.5 69.5 49.58 69.535 49.64 69.605C49.7 69.665 49.73 69.745 49.73 69.845V78.74H54.74C54.85 78.74 54.935 78.775 54.995 78.845C55.065 78.905 55.1 78.985 55.1 79.085V79.655C55.1 79.755 55.065 79.84 54.995 79.91C54.925 79.97 54.84 80 54.74 80H48.65ZM56.7582 70.73C56.6582 70.73 56.5732 70.7 56.5032 70.64C56.4432 70.57 56.4132 70.485 56.4132 70.385V69.605C56.4132 69.505 56.4432 69.42 56.5032 69.35C56.5732 69.28 56.6582 69.245 56.7582 69.245H57.6432C57.7432 69.245 57.8282 69.28 57.8982 69.35C57.9682 69.42 58.0032 69.505 58.0032 69.605V70.385C58.0032 70.485 57.9682 70.57 57.8982 70.64C57.8282 70.7 57.7432 70.73 57.6432 70.73H56.7582ZM56.8782 80C56.7782 80 56.6932 79.97 56.6232 79.91C56.5632 79.84 56.5332 79.755 56.5332 79.655V72.545C56.5332 72.445 56.5632 72.365 56.6232 72.305C56.6932 72.235 56.7782 72.2 56.8782 72.2H57.5382C57.6382 72.2 57.7182 72.235 57.7782 72.305C57.8482 72.365 57.8832 72.445 57.8832 72.545V79.655C57.8832 79.755 57.8482 79.84 57.7782 79.91C57.7182 79.97 57.6382 80 57.5382 80H56.8782ZM60.4817 80C60.3817 80 60.2967 79.97 60.2267 79.91C60.1667 79.84 60.1367 79.755 60.1367 79.655V72.545C60.1367 72.445 60.1667 72.365 60.2267 72.305C60.2967 72.235 60.3817 72.2 60.4817 72.2H61.1267C61.2367 72.2 61.3217 72.23 61.3817 72.29C61.4417 72.35 61.4717 72.435 61.4717 72.545V73.205C61.7717 72.835 62.1167 72.55 62.5067 72.35C62.9067 72.15 63.4017 72.05 63.9917 72.05C64.9517 72.05 65.6967 72.36 66.2267 72.98C66.7567 73.59 67.0217 74.4 67.0217 75.41V79.655C67.0217 79.755 66.9867 79.84 66.9167 79.91C66.8567 79.97 66.7767 80 66.6767 80H65.9867C65.8867 80 65.8017 79.97 65.7317 79.91C65.6717 79.84 65.6417 79.755 65.6417 79.655V75.5C65.6417 74.78 65.4667 74.22 65.1167 73.82C64.7667 73.42 64.2667 73.22 63.6167 73.22C62.9767 73.22 62.4667 73.425 62.0867 73.835C61.7067 74.235 61.5167 74.79 61.5167 75.5V79.655C61.5167 79.755 61.4817 79.84 61.4117 79.91C61.3517 79.97 61.2717 80 61.1717 80H60.4817ZM69.5495 80C69.4495 80 69.3645 79.97 69.2945 79.91C69.2345 79.84 69.2045 79.755 69.2045 79.655V69.695C69.2045 69.585 69.2345 69.5 69.2945 69.44C69.3645 69.38 69.4495 69.35 69.5495 69.35H70.1945C70.2945 69.35 70.3745 69.385 70.4345 69.455C70.5045 69.515 70.5395 69.595 70.5395 69.695V74.93L73.5395 72.455C73.6895 72.345 73.7945 72.275 73.8545 72.245C73.9145 72.215 74.0095 72.2 74.1395 72.2H74.8895C74.9795 72.2 75.0495 72.23 75.0995 72.29C75.1595 72.34 75.1895 72.415 75.1895 72.515C75.1895 72.605 75.1345 72.7 75.0245 72.8L71.5145 75.68L75.3995 79.4C75.5095 79.51 75.5645 79.605 75.5645 79.685C75.5645 79.775 75.5345 79.85 75.4745 79.91C75.4245 79.97 75.3545 80 75.2645 80H74.5295C74.3795 80 74.2695 79.985 74.1995 79.955C74.1395 79.925 74.0495 79.855 73.9295 79.745L70.5395 76.535V79.655C70.5395 79.755 70.5045 79.84 70.4345 79.91C70.3745 79.97 70.2945 80 70.1945 80H69.5495ZM79.6037 80.15C78.5837 80.15 77.7687 79.835 77.1587 79.205C76.5487 78.565 76.2137 77.695 76.1537 76.595L76.1387 76.085L76.1537 75.59C76.2137 74.51 76.5487 73.65 77.1587 73.01C77.7687 72.37 78.5837 72.05 79.6037 72.05C80.7037 72.05 81.5537 72.4 82.1537 73.1C82.7637 73.8 83.0687 74.75 83.0687 75.95V76.22C83.0687 76.32 83.0337 76.405 82.9637 76.475C82.9037 76.535 82.8237 76.565 82.7237 76.565H77.5187V76.7C77.5487 77.35 77.7487 77.905 78.1187 78.365C78.4887 78.825 78.9787 79.055 79.5887 79.055C80.0587 79.055 80.4387 78.965 80.7287 78.785C81.0287 78.595 81.2537 78.4 81.4037 78.2C81.4937 78.08 81.5637 78.01 81.6137 77.99C81.6637 77.96 81.7487 77.945 81.8687 77.945H82.5287C82.6187 77.945 82.6937 77.97 82.7537 78.02C82.8237 78.07 82.8587 78.135 82.8587 78.215C82.8587 78.435 82.7237 78.7 82.4537 79.01C82.1837 79.32 81.7987 79.59 81.2987 79.82C80.8087 80.04 80.2437 80.15 79.6037 80.15ZM81.7037 75.545V75.5C81.7037 74.8 81.5137 74.23 81.1337 73.79C80.7537 73.35 80.2437 73.13 79.6037 73.13C78.9537 73.13 78.4437 73.35 78.0737 73.79C77.7037 74.23 77.5187 74.8 77.5187 75.5V75.545H81.7037ZM87.7426 80.15C86.6926 80.15 85.9026 79.81 85.3726 79.13C84.8526 78.45 84.5726 77.59 84.5326 76.55L84.5176 76.1L84.5326 75.65C84.5726 74.62 84.8576 73.765 85.3876 73.085C85.9176 72.395 86.7026 72.05 87.7426 72.05C88.7826 72.05 89.5926 72.42 90.1726 73.16V69.695C90.1726 69.595 90.2026 69.515 90.2626 69.455C90.3326 69.385 90.4176 69.35 90.5176 69.35H91.1926C91.2926 69.35 91.3726 69.385 91.4326 69.455C91.5026 69.515 91.5376 69.595 91.5376 69.695V79.655C91.5376 79.755 91.5026 79.84 91.4326 79.91C91.3726 79.97 91.2926 80 91.1926 80H90.5476C90.4476 80 90.3676 79.97 90.3076 79.91C90.2476 79.84 90.2176 79.755 90.2176 79.655V79.01C89.6476 79.77 88.8226 80.15 87.7426 80.15ZM88.0276 78.98C88.7276 78.98 89.2526 78.75 89.6026 78.29C89.9526 77.82 90.1426 77.265 90.1726 76.625C90.1826 76.515 90.1876 76.325 90.1876 76.055C90.1876 75.775 90.1826 75.58 90.1726 75.47C90.1526 74.86 89.9576 74.335 89.5876 73.895C89.2276 73.445 88.7076 73.22 88.0276 73.22C87.3076 73.22 86.7826 73.445 86.4526 73.895C86.1226 74.345 85.9426 74.935 85.9126 75.665L85.8976 76.1C85.8976 78.02 86.6076 78.98 88.0276 78.98ZM94.3238 80C94.2238 80 94.1438 79.97 94.0838 79.91C94.0238 79.84 93.9938 79.755 93.9938 79.655V69.845C93.9938 69.745 94.0238 69.665 94.0838 69.605C94.1438 69.535 94.2238 69.5 94.3238 69.5H95.0738C95.1838 69.5 95.2688 69.53 95.3288 69.59C95.3888 69.65 95.4188 69.735 95.4188 69.845V79.655C95.4188 79.755 95.3838 79.84 95.3138 79.91C95.2538 79.97 95.1738 80 95.0738 80H94.3238ZM98.2161 80C98.1161 80 98.0311 79.97 97.9611 79.91C97.9011 79.84 97.8711 79.755 97.8711 79.655V72.545C97.8711 72.445 97.9011 72.365 97.9611 72.305C98.0311 72.235 98.1161 72.2 98.2161 72.2H98.8611C98.9711 72.2 99.0561 72.23 99.1161 72.29C99.1761 72.35 99.2061 72.435 99.2061 72.545V73.205C99.5061 72.835 99.8511 72.55 100.241 72.35C100.641 72.15 101.136 72.05 101.726 72.05C102.686 72.05 103.431 72.36 103.961 72.98C104.491 73.59 104.756 74.4 104.756 75.41V79.655C104.756 79.755 104.721 79.84 104.651 79.91C104.591 79.97 104.511 80 104.411 80H103.721C103.621 80 103.536 79.97 103.466 79.91C103.406 79.84 103.376 79.755 103.376 79.655V75.5C103.376 74.78 103.201 74.22 102.851 73.82C102.501 73.42 102.001 73.22 101.351 73.22C100.711 73.22 100.201 73.425 99.8211 73.835C99.4411 74.235 99.2511 74.79 99.2511 75.5V79.655C99.2511 79.755 99.2161 79.84 99.1461 79.91C99.0861 79.97 99.0061 80 98.9061 80H98.2161ZM111.14 80C111.04 80 110.96 79.97 110.9 79.91C110.84 79.84 110.81 79.755 110.81 79.655V69.86C110.81 69.75 110.84 69.665 110.9 69.605C110.96 69.535 111.04 69.5 111.14 69.5H114.935C116.065 69.5 116.95 69.775 117.59 70.325C118.24 70.865 118.565 71.655 118.565 72.695C118.565 73.735 118.24 74.525 117.59 75.065C116.95 75.605 116.065 75.875 114.935 75.875H112.235V79.655C112.235 79.755 112.2 79.84 112.13 79.91C112.07 79.97 111.99 80 111.89 80H111.14ZM114.86 74.66C116.37 74.66 117.125 74.005 117.125 72.695C117.125 72.055 116.935 71.565 116.555 71.225C116.185 70.885 115.62 70.715 114.86 70.715H112.235V74.66H114.86ZM120.57 80C120.47 80 120.385 79.97 120.315 79.91C120.255 79.84 120.225 79.755 120.225 79.655V72.56C120.225 72.46 120.255 72.375 120.315 72.305C120.385 72.235 120.47 72.2 120.57 72.2H121.2C121.31 72.2 121.395 72.235 121.455 72.305C121.525 72.365 121.56 72.45 121.56 72.56V73.22C121.97 72.54 122.665 72.2 123.645 72.2H124.23C124.34 72.2 124.425 72.23 124.485 72.29C124.545 72.35 124.575 72.435 124.575 72.545V73.1C124.575 73.2 124.545 73.285 124.485 73.355C124.425 73.415 124.34 73.445 124.23 73.445H123.375C122.825 73.445 122.39 73.605 122.07 73.925C121.76 74.245 121.605 74.68 121.605 75.23V79.655C121.605 79.755 121.57 79.84 121.5 79.91C121.43 79.97 121.345 80 121.245 80H120.57ZM128.808 80.15C127.788 80.15 126.973 79.835 126.363 79.205C125.753 78.565 125.418 77.695 125.358 76.595L125.343 76.085L125.358 75.59C125.418 74.51 125.753 73.65 126.363 73.01C126.973 72.37 127.788 72.05 128.808 72.05C129.908 72.05 130.758 72.4 131.358 73.1C131.968 73.8 132.273 74.75 132.273 75.95V76.22C132.273 76.32 132.238 76.405 132.168 76.475C132.108 76.535 132.028 76.565 131.928 76.565H126.723V76.7C126.753 77.35 126.953 77.905 127.323 78.365C127.693 78.825 128.183 79.055 128.793 79.055C129.263 79.055 129.643 78.965 129.933 78.785C130.233 78.595 130.458 78.4 130.608 78.2C130.698 78.08 130.768 78.01 130.818 77.99C130.868 77.96 130.953 77.945 131.073 77.945H131.733C131.823 77.945 131.898 77.97 131.958 78.02C132.028 78.07 132.063 78.135 132.063 78.215C132.063 78.435 131.928 78.7 131.658 79.01C131.388 79.32 131.003 79.59 130.503 79.82C130.013 80.04 129.448 80.15 128.808 80.15ZM130.908 75.545V75.5C130.908 74.8 130.718 74.23 130.338 73.79C129.958 73.35 129.448 73.13 128.808 73.13C128.158 73.13 127.648 73.35 127.278 73.79C126.908 74.23 126.723 74.8 126.723 75.5V75.545H130.908ZM134.442 80C134.342 80 134.257 79.97 134.187 79.91C134.127 79.84 134.097 79.755 134.097 79.655V72.545C134.097 72.445 134.127 72.365 134.187 72.305C134.257 72.235 134.342 72.2 134.442 72.2H135.072C135.172 72.2 135.252 72.235 135.312 72.305C135.372 72.365 135.402 72.445 135.402 72.545V73.055C135.942 72.385 136.672 72.05 137.592 72.05C138.692 72.05 139.472 72.51 139.932 73.43C140.172 73.01 140.512 72.675 140.952 72.425C141.402 72.175 141.902 72.05 142.452 72.05C143.272 72.05 143.942 72.33 144.462 72.89C144.982 73.45 145.242 74.26 145.242 75.32V79.655C145.242 79.755 145.207 79.84 145.137 79.91C145.077 79.97 144.997 80 144.897 80H144.252C144.152 80 144.067 79.97 143.997 79.91C143.937 79.84 143.907 79.755 143.907 79.655V75.455C143.907 74.655 143.742 74.085 143.412 73.745C143.082 73.395 142.647 73.22 142.107 73.22C141.627 73.22 141.212 73.4 140.862 73.76C140.522 74.11 140.352 74.675 140.352 75.455V79.655C140.352 79.755 140.317 79.84 140.247 79.91C140.187 79.97 140.107 80 140.007 80H139.347C139.247 80 139.162 79.97 139.092 79.91C139.032 79.84 139.002 79.755 139.002 79.655V75.455C139.002 74.665 138.827 74.095 138.477 73.745C138.137 73.395 137.712 73.22 137.202 73.22C136.722 73.22 136.307 73.395 135.957 73.745C135.617 74.095 135.447 74.66 135.447 75.44V79.655C135.447 79.755 135.412 79.84 135.342 79.91C135.282 79.97 135.202 80 135.102 80H134.442ZM147.637 70.73C147.537 70.73 147.452 70.7 147.382 70.64C147.322 70.57 147.292 70.485 147.292 70.385V69.605C147.292 69.505 147.322 69.42 147.382 69.35C147.452 69.28 147.537 69.245 147.637 69.245H148.522C148.622 69.245 148.707 69.28 148.777 69.35C148.847 69.42 148.882 69.505 148.882 69.605V70.385C148.882 70.485 148.847 70.57 148.777 70.64C148.707 70.7 148.622 70.73 148.522 70.73H147.637ZM147.757 80C147.657 80 147.572 79.97 147.502 79.91C147.442 79.84 147.412 79.755 147.412 79.655V72.545C147.412 72.445 147.442 72.365 147.502 72.305C147.572 72.235 147.657 72.2 147.757 72.2H148.417C148.517 72.2 148.597 72.235 148.657 72.305C148.727 72.365 148.762 72.445 148.762 72.545V79.655C148.762 79.755 148.727 79.84 148.657 79.91C148.597 79.97 148.517 80 148.417 80H147.757ZM153.926 80.15C152.976 80.15 152.241 79.845 151.721 79.235C151.201 78.615 150.941 77.795 150.941 76.775V72.545C150.941 72.445 150.971 72.365 151.031 72.305C151.101 72.235 151.186 72.2 151.286 72.2H151.976C152.076 72.2 152.156 72.235 152.216 72.305C152.286 72.365 152.321 72.445 152.321 72.545V76.7C152.321 78.22 152.981 78.98 154.301 78.98C154.941 78.98 155.446 78.78 155.816 78.38C156.196 77.97 156.386 77.41 156.386 76.7V72.545C156.386 72.445 156.416 72.365 156.476 72.305C156.546 72.235 156.631 72.2 156.731 72.2H157.421C157.521 72.2 157.601 72.235 157.661 72.305C157.731 72.365 157.766 72.445 157.766 72.545V79.655C157.766 79.755 157.731 79.84 157.661 79.91C157.601 79.97 157.521 80 157.421 80H156.776C156.676 80 156.591 79.97 156.521 79.91C156.461 79.84 156.431 79.755 156.431 79.655V78.98C156.141 79.37 155.801 79.665 155.411 79.865C155.021 80.055 154.526 80.15 153.926 80.15ZM160.355 80C160.255 80 160.17 79.97 160.1 79.91C160.04 79.84 160.01 79.755 160.01 79.655V72.545C160.01 72.445 160.04 72.365 160.1 72.305C160.17 72.235 160.255 72.2 160.355 72.2H160.985C161.085 72.2 161.165 72.235 161.225 72.305C161.285 72.365 161.315 72.445 161.315 72.545V73.055C161.855 72.385 162.585 72.05 163.505 72.05C164.605 72.05 165.385 72.51 165.845 73.43C166.085 73.01 166.425 72.675 166.865 72.425C167.315 72.175 167.815 72.05 168.365 72.05C169.185 72.05 169.855 72.33 170.375 72.89C170.895 73.45 171.155 74.26 171.155 75.32V79.655C171.155 79.755 171.12 79.84 171.05 79.91C170.99 79.97 170.91 80 170.81 80H170.165C170.065 80 169.98 79.97 169.91 79.91C169.85 79.84 169.82 79.755 169.82 79.655V75.455C169.82 74.655 169.655 74.085 169.325 73.745C168.995 73.395 168.56 73.22 168.02 73.22C167.54 73.22 167.125 73.4 166.775 73.76C166.435 74.11 166.265 74.675 166.265 75.455V79.655C166.265 79.755 166.23 79.84 166.16 79.91C166.1 79.97 166.02 80 165.92 80H165.26C165.16 80 165.075 79.97 165.005 79.91C164.945 79.84 164.915 79.755 164.915 79.655V75.455C164.915 74.665 164.74 74.095 164.39 73.745C164.05 73.395 163.625 73.22 163.115 73.22C162.635 73.22 162.22 73.395 161.87 73.745C161.53 74.095 161.36 74.66 161.36 75.44V79.655C161.36 79.755 161.325 79.84 161.255 79.91C161.195 79.97 161.115 80 161.015 80H160.355Z" fill="black"/>
<rect y="104" width="282" height="45" rx="10" fill="#F6F7FB"/>
<circle cx="23.5" cy="126.5" r="14.5" fill="#2878B7"/>
<path d="M29.3 127.04V131.039H26.9592V127.283C26.9592 126.357 26.6178 125.723 25.7888 125.723C25.1548 125.723 24.7647 126.162 24.6184 126.552C24.5696 126.698 24.5208 126.893 24.5208 127.137V131.039H22.18C22.18 131.039 22.2288 124.699 22.18 124.065H24.5208V125.04C24.8134 124.553 25.3986 123.87 26.6178 123.87C28.1296 123.87 29.3 124.894 29.3 127.04ZM19.7417 120.7C18.9614 120.7 18.425 121.236 18.425 121.919C18.425 122.602 18.9127 123.138 19.6929 123.138C20.522 123.138 21.0096 122.602 21.0096 121.919C21.0584 121.188 20.5707 120.7 19.7417 120.7ZM18.5713 131.039H20.9121V124.065H18.5713V131.039Z" fill="white"/>
<path d="M267 119L253.25 133L247 126.636" stroke="#00D0D6" stroke-width="3" stroke-linecap="round" stroke-linejoin="round"/>
<path d="M51.665 132.15C50.845 132.15 50.13 132.02 49.52 131.76C48.92 131.5 48.46 131.16 48.14 130.74C47.83 130.31 47.665 129.85 47.645 129.36C47.645 129.28 47.675 129.21 47.735 129.15C47.795 129.09 47.87 129.06 47.96 129.06H48.695C48.875 129.06 49 129.16 49.07 129.36C49.16 129.78 49.415 130.145 49.835 130.455C50.265 130.755 50.875 130.905 51.665 130.905C52.515 130.905 53.15 130.755 53.57 130.455C53.99 130.155 54.2 129.74 54.2 129.21C54.2 128.87 54.095 128.59 53.885 128.37C53.685 128.15 53.38 127.96 52.97 127.8C52.57 127.63 51.965 127.425 51.155 127.185C50.385 126.965 49.77 126.73 49.31 126.48C48.86 126.23 48.52 125.925 48.29 125.565C48.06 125.195 47.945 124.73 47.945 124.17C47.945 123.63 48.09 123.15 48.38 122.73C48.67 122.3 49.09 121.965 49.64 121.725C50.19 121.475 50.84 121.35 51.59 121.35C52.37 121.35 53.035 121.49 53.585 121.77C54.145 122.04 54.57 122.385 54.86 122.805C55.15 123.215 55.305 123.63 55.325 124.05C55.325 124.14 55.295 124.215 55.235 124.275C55.175 124.335 55.1 124.365 55.01 124.365H54.26C54.18 124.365 54.105 124.34 54.035 124.29C53.965 124.24 53.915 124.165 53.885 124.065C53.825 123.635 53.585 123.28 53.165 123C52.745 122.72 52.22 122.58 51.59 122.58C50.91 122.58 50.37 122.715 49.97 122.985C49.57 123.245 49.37 123.635 49.37 124.155C49.37 124.505 49.46 124.79 49.64 125.01C49.83 125.23 50.115 125.425 50.495 125.595C50.885 125.765 51.45 125.96 52.19 126.18C53.04 126.42 53.705 126.66 54.185 126.9C54.675 127.14 55.04 127.44 55.28 127.8C55.52 128.15 55.64 128.605 55.64 129.165C55.64 130.105 55.28 130.84 54.56 131.37C53.85 131.89 52.885 132.15 51.665 132.15ZM59.5868 132.15C59.0968 132.15 58.6418 132.05 58.2218 131.85C57.8118 131.65 57.4818 131.38 57.2318 131.04C56.9918 130.69 56.8718 130.305 56.8718 129.885C56.8718 129.225 57.1418 128.685 57.6818 128.265C58.2218 127.845 58.9568 127.565 59.8868 127.425L62.1368 127.11V126.675C62.1368 125.645 61.5418 125.13 60.3518 125.13C59.8918 125.13 59.5218 125.225 59.2418 125.415C58.9618 125.595 58.7568 125.81 58.6268 126.06C58.5868 126.16 58.5418 126.23 58.4918 126.27C58.4518 126.3 58.3918 126.315 58.3118 126.315H57.7268C57.6368 126.315 57.5568 126.285 57.4868 126.225C57.4268 126.155 57.3968 126.075 57.3968 125.985C57.3968 125.755 57.5018 125.49 57.7118 125.19C57.9318 124.88 58.2668 124.615 58.7168 124.395C59.1668 124.165 59.7168 124.05 60.3668 124.05C61.4868 124.05 62.2868 124.31 62.7668 124.83C63.2568 125.35 63.5018 126 63.5018 126.78V131.655C63.5018 131.755 63.4668 131.84 63.3968 131.91C63.3368 131.97 63.2568 132 63.1568 132H62.4968C62.3968 132 62.3168 131.97 62.2568 131.91C62.1968 131.84 62.1668 131.755 62.1668 131.655V130.995C61.9468 131.325 61.6268 131.6 61.2068 131.82C60.7868 132.04 60.2468 132.15 59.5868 132.15ZM59.8868 131.055C60.5468 131.055 61.0868 130.84 61.5068 130.41C61.9268 129.98 62.1368 129.355 62.1368 128.535V128.115L60.3818 128.37C59.6618 128.47 59.1168 128.64 58.7468 128.88C58.3768 129.12 58.1918 129.42 58.1918 129.78C58.1918 130.19 58.3568 130.505 58.6868 130.725C59.0268 130.945 59.4268 131.055 59.8868 131.055ZM66.0338 132C65.9338 132 65.8488 131.97 65.7788 131.91C65.7188 131.84 65.6888 131.755 65.6888 131.655V121.695C65.6888 121.585 65.7188 121.5 65.7788 121.44C65.8488 121.38 65.9338 121.35 66.0338 121.35H66.6938C66.7938 121.35 66.8738 121.385 66.9338 121.455C67.0038 121.515 67.0388 121.595 67.0388 121.695V131.655C67.0388 131.755 67.0038 131.84 66.9338 131.91C66.8738 131.97 66.7938 132 66.6938 132H66.0338ZM72.382 132.15C71.362 132.15 70.547 131.835 69.937 131.205C69.327 130.565 68.992 129.695 68.932 128.595L68.917 128.085L68.932 127.59C68.992 126.51 69.327 125.65 69.937 125.01C70.547 124.37 71.362 124.05 72.382 124.05C73.482 124.05 74.332 124.4 74.932 125.1C75.542 125.8 75.847 126.75 75.847 127.95V128.22C75.847 128.32 75.812 128.405 75.742 128.475C75.682 128.535 75.602 128.565 75.502 128.565H70.297V128.7C70.327 129.35 70.527 129.905 70.897 130.365C71.267 130.825 71.757 131.055 72.367 131.055C72.837 131.055 73.217 130.965 73.507 130.785C73.807 130.595 74.032 130.4 74.182 130.2C74.272 130.08 74.342 130.01 74.392 129.99C74.442 129.96 74.527 129.945 74.647 129.945H75.307C75.397 129.945 75.472 129.97 75.532 130.02C75.602 130.07 75.637 130.135 75.637 130.215C75.637 130.435 75.502 130.7 75.232 131.01C74.962 131.32 74.577 131.59 74.077 131.82C73.587 132.04 73.022 132.15 72.382 132.15ZM74.482 127.545V127.5C74.482 126.8 74.292 126.23 73.912 125.79C73.532 125.35 73.022 125.13 72.382 125.13C71.732 125.13 71.222 125.35 70.852 125.79C70.482 126.23 70.297 126.8 70.297 127.5V127.545H74.482ZM80.3409 132.15C79.6509 132.15 79.0659 132.04 78.5859 131.82C78.1159 131.59 77.7659 131.33 77.5359 131.04C77.3059 130.75 77.1909 130.51 77.1909 130.32C77.1909 130.22 77.2259 130.145 77.2959 130.095C77.3659 130.035 77.4409 130.005 77.5209 130.005H78.1509C78.2109 130.005 78.2559 130.015 78.2859 130.035C78.3259 130.055 78.3759 130.1 78.4359 130.17C78.6659 130.45 78.9209 130.67 79.2009 130.83C79.4909 130.99 79.8759 131.07 80.3559 131.07C80.8959 131.07 81.3259 130.97 81.6459 130.77C81.9759 130.57 82.1409 130.28 82.1409 129.9C82.1409 129.65 82.0709 129.45 81.9309 129.3C81.7909 129.15 81.5559 129.015 81.2259 128.895C80.9059 128.775 80.4259 128.645 79.7859 128.505C78.9159 128.315 78.3009 128.04 77.9409 127.68C77.5809 127.32 77.4009 126.855 77.4009 126.285C77.4009 125.915 77.5109 125.56 77.7309 125.22C77.9509 124.87 78.2759 124.59 78.7059 124.38C79.1459 124.16 79.6659 124.05 80.2659 124.05C80.8959 124.05 81.4309 124.155 81.8709 124.365C82.3209 124.575 82.6559 124.82 82.8759 125.1C83.1059 125.38 83.2209 125.615 83.2209 125.805C83.2209 125.895 83.1859 125.97 83.1159 126.03C83.0559 126.09 82.9809 126.12 82.8909 126.12H82.3209C82.1809 126.12 82.0809 126.065 82.0209 125.955C81.8509 125.765 81.7059 125.62 81.5859 125.52C81.4759 125.41 81.3109 125.32 81.0909 125.25C80.8709 125.17 80.5959 125.13 80.2659 125.13C79.7759 125.13 79.4009 125.235 79.1409 125.445C78.8809 125.645 78.7509 125.915 78.7509 126.255C78.7509 126.465 78.8059 126.645 78.9159 126.795C79.0259 126.935 79.2359 127.07 79.5459 127.2C79.8559 127.32 80.3159 127.445 80.9259 127.575C81.8759 127.775 82.5459 128.06 82.9359 128.43C83.3359 128.8 83.5359 129.275 83.5359 129.855C83.5359 130.285 83.4109 130.675 83.1609 131.025C82.9209 131.375 82.5559 131.65 82.0659 131.85C81.5859 132.05 81.0109 132.15 80.3409 132.15ZM89.5045 132C89.4045 132 89.3245 131.97 89.2645 131.91C89.2045 131.84 89.1745 131.755 89.1745 131.655V121.86C89.1745 121.75 89.2045 121.665 89.2645 121.605C89.3245 121.535 89.4045 121.5 89.5045 121.5H90.1645C90.2645 121.5 90.3395 121.52 90.3895 121.56C90.4395 121.6 90.4895 121.65 90.5395 121.71L95.5645 129.45V121.86C95.5645 121.75 95.5945 121.665 95.6545 121.605C95.7245 121.535 95.8095 121.5 95.9095 121.5H96.5845C96.6945 121.5 96.7795 121.535 96.8395 121.605C96.9095 121.665 96.9445 121.75 96.9445 121.86V131.64C96.9445 131.74 96.9095 131.825 96.8395 131.895C96.7795 131.965 96.6995 132 96.5995 132H95.9245C95.7545 132 95.6345 131.93 95.5645 131.79L90.5395 124.125V131.655C90.5395 131.755 90.5045 131.84 90.4345 131.91C90.3745 131.97 90.2945 132 90.1945 132H89.5045ZM101.54 132.15C101.05 132.15 100.595 132.05 100.175 131.85C99.7649 131.65 99.4349 131.38 99.1849 131.04C98.9449 130.69 98.8249 130.305 98.8249 129.885C98.8249 129.225 99.0949 128.685 99.6349 128.265C100.175 127.845 100.91 127.565 101.84 127.425L104.09 127.11V126.675C104.09 125.645 103.495 125.13 102.305 125.13C101.845 125.13 101.475 125.225 101.195 125.415C100.915 125.595 100.71 125.81 100.58 126.06C100.54 126.16 100.495 126.23 100.445 126.27C100.405 126.3 100.345 126.315 100.265 126.315H99.6799C99.5899 126.315 99.5099 126.285 99.4399 126.225C99.3799 126.155 99.3499 126.075 99.3499 125.985C99.3499 125.755 99.4549 125.49 99.6649 125.19C99.8849 124.88 100.22 124.615 100.67 124.395C101.12 124.165 101.67 124.05 102.32 124.05C103.44 124.05 104.24 124.31 104.72 124.83C105.21 125.35 105.455 126 105.455 126.78V131.655C105.455 131.755 105.42 131.84 105.35 131.91C105.29 131.97 105.21 132 105.11 132H104.45C104.35 132 104.27 131.97 104.21 131.91C104.15 131.84 104.12 131.755 104.12 131.655V130.995C103.9 131.325 103.58 131.6 103.16 131.82C102.74 132.04 102.2 132.15 101.54 132.15ZM101.84 131.055C102.5 131.055 103.04 130.84 103.46 130.41C103.88 129.98 104.09 129.355 104.09 128.535V128.115L102.335 128.37C101.615 128.47 101.07 128.64 100.7 128.88C100.33 129.12 100.145 129.42 100.145 129.78C100.145 130.19 100.31 130.505 100.64 130.725C100.98 130.945 101.38 131.055 101.84 131.055ZM110.195 132C109.935 132 109.75 131.875 109.64 131.625L106.85 124.665C106.84 124.635 106.835 124.585 106.835 124.515C106.835 124.425 106.865 124.35 106.925 124.29C106.985 124.23 107.055 124.2 107.135 124.2H107.825C107.985 124.2 108.105 124.28 108.185 124.44L110.495 130.425L112.805 124.44C112.825 124.38 112.865 124.325 112.925 124.275C112.995 124.225 113.075 124.2 113.165 124.2H113.855C113.935 124.2 114.005 124.23 114.065 124.29C114.125 124.35 114.155 124.425 114.155 124.515L114.125 124.665L111.35 131.625C111.24 131.875 111.055 132 110.795 132H110.195ZM115.982 122.73C115.882 122.73 115.797 122.7 115.727 122.64C115.667 122.57 115.637 122.485 115.637 122.385V121.605C115.637 121.505 115.667 121.42 115.727 121.35C115.797 121.28 115.882 121.245 115.982 121.245H116.867C116.967 121.245 117.052 121.28 117.122 121.35C117.192 121.42 117.227 121.505 117.227 121.605V122.385C117.227 122.485 117.192 122.57 117.122 122.64C117.052 122.7 116.967 122.73 116.867 122.73H115.982ZM116.102 132C116.002 132 115.917 131.97 115.847 131.91C115.787 131.84 115.757 131.755 115.757 131.655V124.545C115.757 124.445 115.787 124.365 115.847 124.305C115.917 124.235 116.002 124.2 116.102 124.2H116.762C116.862 124.2 116.942 124.235 117.002 124.305C117.072 124.365 117.107 124.445 117.107 124.545V131.655C117.107 131.755 117.072 131.84 117.002 131.91C116.942 131.97 116.862 132 116.762 132H116.102ZM122.525 135.3C121.695 135.3 121.03 135.16 120.53 134.88C120.03 134.6 119.675 134.28 119.465 133.92C119.265 133.56 119.165 133.25 119.165 132.99C119.165 132.9 119.2 132.82 119.27 132.75C119.34 132.69 119.42 132.66 119.51 132.66H120.17C120.26 132.66 120.335 132.68 120.395 132.72C120.455 132.77 120.505 132.855 120.545 132.975C120.825 133.775 121.46 134.175 122.45 134.175C123.2 134.175 123.755 134.015 124.115 133.695C124.475 133.375 124.655 132.81 124.655 132V130.965C124.075 131.705 123.265 132.075 122.225 132.075C121.165 132.075 120.37 131.735 119.84 131.055C119.32 130.375 119.045 129.515 119.015 128.475L119 128.055L119.015 127.65C119.045 126.62 119.32 125.765 119.84 125.085C120.37 124.395 121.165 124.05 122.225 124.05C123.275 124.05 124.095 124.435 124.685 125.205V124.56C124.685 124.46 124.715 124.375 124.775 124.305C124.845 124.235 124.93 124.2 125.03 124.2H125.675C125.775 124.2 125.855 124.235 125.915 124.305C125.985 124.375 126.02 124.46 126.02 124.56V131.835C126.02 134.145 124.855 135.3 122.525 135.3ZM122.495 130.905C123.195 130.905 123.72 130.68 124.07 130.23C124.43 129.77 124.625 129.22 124.655 128.58C124.665 128.49 124.67 128.315 124.67 128.055C124.67 127.805 124.665 127.635 124.655 127.545C124.625 126.905 124.43 126.36 124.07 125.91C123.72 125.45 123.195 125.22 122.495 125.22C121.775 125.22 121.25 125.45 120.92 125.91C120.6 126.36 120.425 126.945 120.395 127.665L120.38 128.055L120.395 128.46C120.425 129.18 120.6 129.77 120.92 130.23C121.25 130.68 121.775 130.905 122.495 130.905ZM130.441 132.15C129.951 132.15 129.496 132.05 129.076 131.85C128.666 131.65 128.336 131.38 128.086 131.04C127.846 130.69 127.726 130.305 127.726 129.885C127.726 129.225 127.996 128.685 128.536 128.265C129.076 127.845 129.811 127.565 130.741 127.425L132.991 127.11V126.675C132.991 125.645 132.396 125.13 131.206 125.13C130.746 125.13 130.376 125.225 130.096 125.415C129.816 125.595 129.611 125.81 129.481 126.06C129.441 126.16 129.396 126.23 129.346 126.27C129.306 126.3 129.246 126.315 129.166 126.315H128.581C128.491 126.315 128.411 126.285 128.341 126.225C128.281 126.155 128.251 126.075 128.251 125.985C128.251 125.755 128.356 125.49 128.566 125.19C128.786 124.88 129.121 124.615 129.571 124.395C130.021 124.165 130.571 124.05 131.221 124.05C132.341 124.05 133.141 124.31 133.621 124.83C134.111 125.35 134.356 126 134.356 126.78V131.655C134.356 131.755 134.321 131.84 134.251 131.91C134.191 131.97 134.111 132 134.011 132H133.351C133.251 132 133.171 131.97 133.111 131.91C133.051 131.84 133.021 131.755 133.021 131.655V130.995C132.801 131.325 132.481 131.6 132.061 131.82C131.641 132.04 131.101 132.15 130.441 132.15ZM130.741 131.055C131.401 131.055 131.941 130.84 132.361 130.41C132.781 129.98 132.991 129.355 132.991 128.535V128.115L131.236 128.37C130.516 128.47 129.971 128.64 129.601 128.88C129.231 129.12 129.046 129.42 129.046 129.78C129.046 130.19 129.211 130.505 129.541 130.725C129.881 130.945 130.281 131.055 130.741 131.055ZM139.455 132C137.905 132 137.13 131.125 137.13 129.375V125.355H135.945C135.845 125.355 135.765 125.325 135.705 125.265C135.645 125.205 135.615 125.125 135.615 125.025V124.545C135.615 124.445 135.645 124.365 135.705 124.305C135.765 124.235 135.845 124.2 135.945 124.2H137.13V121.695C137.13 121.595 137.16 121.515 137.22 121.455C137.28 121.385 137.36 121.35 137.46 121.35H138.12C138.22 121.35 138.3 121.385 138.36 121.455C138.43 121.515 138.465 121.595 138.465 121.695V124.2H140.325C140.425 124.2 140.505 124.235 140.565 124.305C140.635 124.365 140.67 124.445 140.67 124.545V125.025C140.67 125.125 140.635 125.205 140.565 125.265C140.505 125.325 140.425 125.355 140.325 125.355H138.465V129.27C138.465 129.78 138.545 130.165 138.705 130.425C138.875 130.685 139.16 130.815 139.56 130.815H140.475C140.575 130.815 140.655 130.85 140.715 130.92C140.775 130.98 140.805 131.06 140.805 131.16V131.655C140.805 131.755 140.775 131.84 140.715 131.91C140.655 131.97 140.575 132 140.475 132H139.455ZM145.436 132.15C144.336 132.15 143.486 131.84 142.886 131.22C142.296 130.6 141.981 129.775 141.941 128.745L141.926 128.1L141.941 127.455C141.981 126.425 142.301 125.6 142.901 124.98C143.511 124.36 144.356 124.05 145.436 124.05C146.516 124.05 147.356 124.36 147.956 124.98C148.566 125.6 148.891 126.425 148.931 127.455C148.951 127.675 148.961 127.89 148.961 128.1C148.961 128.31 148.951 128.525 148.931 128.745C148.891 129.775 148.571 130.6 147.971 131.22C147.381 131.84 146.536 132.15 145.436 132.15ZM145.436 131.025C146.076 131.025 146.581 130.825 146.951 130.425C147.331 130.015 147.536 129.43 147.566 128.67C147.576 128.57 147.581 128.38 147.581 128.1C147.581 127.82 147.576 127.63 147.566 127.53C147.536 126.77 147.331 126.19 146.951 125.79C146.581 125.38 146.076 125.175 145.436 125.175C144.796 125.175 144.286 125.38 143.906 125.79C143.536 126.19 143.336 126.77 143.306 127.53L143.291 128.1L143.306 128.67C143.336 129.43 143.536 130.015 143.906 130.425C144.286 130.825 144.796 131.025 145.436 131.025ZM151.199 132C151.099 132 151.014 131.97 150.944 131.91C150.884 131.84 150.854 131.755 150.854 131.655V124.56C150.854 124.46 150.884 124.375 150.944 124.305C151.014 124.235 151.099 124.2 151.199 124.2H151.829C151.939 124.2 152.024 124.235 152.084 124.305C152.154 124.365 152.189 124.45 152.189 124.56V125.22C152.599 124.54 153.294 124.2 154.274 124.2H154.859C154.969 124.2 155.054 124.23 155.114 124.29C155.174 124.35 155.204 124.435 155.204 124.545V125.1C155.204 125.2 155.174 125.285 155.114 125.355C155.054 125.415 154.969 125.445 154.859 125.445H154.004C153.454 125.445 153.019 125.605 152.699 125.925C152.389 126.245 152.234 126.68 152.234 127.23V131.655C152.234 131.755 152.199 131.84 152.129 131.91C152.059 131.97 151.974 132 151.874 132H151.199Z" fill="black"/>
<rect y="155" width="282" height="45" rx="10" fill="#F6F7FB"/>
<circle cx="23.5" cy="177.5" r="14.5" fill="#2878B7"/>
<path d="M29.3 178.04V182.039H26.9592V178.283C26.9592 177.357 26.6178 176.723 25.7888 176.723C25.1548 176.723 24.7647 177.162 24.6184 177.552C24.5696 177.698 24.5208 177.893 24.5208 178.137V182.039H22.18C22.18 182.039 22.2288 175.699 22.18 175.065H24.5208V176.04C24.8134 175.553 25.3986 174.87 26.6178 174.87C28.1296 174.87 29.3 175.894 29.3 178.04ZM19.7417 171.7C18.9614 171.7 18.425 172.236 18.425 172.919C18.425 173.602 18.9127 174.138 19.6929 174.138C20.522 174.138 21.0096 173.602 21.0096 172.919C21.0584 172.188 20.5707 171.7 19.7417 171.7ZM18.5713 182.039H20.9121V175.065H18.5713V182.039Z" fill="white"/>
<path d="M267 170L253.25 184L247 177.636" stroke="#00D0D6" stroke-width="3" stroke-linecap="round" stroke-linejoin="round"/>
<path d="M48.65 183C48.55 183 48.47 182.97 48.41 182.91C48.35 182.84 48.32 182.755 48.32 182.655V172.86C48.32 172.75 48.35 172.665 48.41 172.605C48.47 172.535 48.55 172.5 48.65 172.5H52.31C53.45 172.5 54.34 172.77 54.98 173.31C55.63 173.84 55.955 174.615 55.955 175.635C55.955 176.395 55.765 177.02 55.385 177.51C55.005 178 54.475 178.34 53.795 178.53L56.105 182.535C56.135 182.595 56.15 182.65 56.15 182.7C56.15 182.78 56.12 182.85 56.06 182.91C56 182.97 55.93 183 55.85 183H55.19C55.04 183 54.92 182.965 54.83 182.895C54.75 182.825 54.675 182.725 54.605 182.595L52.4 178.755H49.73V182.655C49.73 182.755 49.695 182.84 49.625 182.91C49.555 182.97 49.47 183 49.37 183H48.65ZM52.25 177.525C53.76 177.525 54.515 176.89 54.515 175.62C54.515 174.35 53.76 173.715 52.25 173.715H49.73V177.525H52.25ZM60.9416 183.15C59.9216 183.15 59.1066 182.835 58.4966 182.205C57.8866 181.565 57.5516 180.695 57.4916 179.595L57.4766 179.085L57.4916 178.59C57.5516 177.51 57.8866 176.65 58.4966 176.01C59.1066 175.37 59.9216 175.05 60.9416 175.05C62.0416 175.05 62.8916 175.4 63.4916 176.1C64.1016 176.8 64.4066 177.75 64.4066 178.95V179.22C64.4066 179.32 64.3716 179.405 64.3016 179.475C64.2416 179.535 64.1616 179.565 64.0616 179.565H58.8566V179.7C58.8866 180.35 59.0866 180.905 59.4566 181.365C59.8266 181.825 60.3166 182.055 60.9266 182.055C61.3966 182.055 61.7766 181.965 62.0666 181.785C62.3666 181.595 62.5916 181.4 62.7416 181.2C62.8316 181.08 62.9016 181.01 62.9516 180.99C63.0016 180.96 63.0866 180.945 63.2066 180.945H63.8666C63.9566 180.945 64.0316 180.97 64.0916 181.02C64.1616 181.07 64.1966 181.135 64.1966 181.215C64.1966 181.435 64.0616 181.7 63.7916 182.01C63.5216 182.32 63.1366 182.59 62.6366 182.82C62.1466 183.04 61.5816 183.15 60.9416 183.15ZM63.0416 178.545V178.5C63.0416 177.8 62.8516 177.23 62.4716 176.79C62.0916 176.35 61.5816 176.13 60.9416 176.13C60.2916 176.13 59.7816 176.35 59.4116 176.79C59.0416 177.23 58.8566 177.8 58.8566 178.5V178.545H63.0416ZM69.3505 183.15C68.2805 183.15 67.4455 182.85 66.8455 182.25C66.2455 181.64 65.9305 180.79 65.9005 179.7L65.8855 179.1L65.9005 178.5C65.9305 177.41 66.2455 176.565 66.8455 175.965C67.4455 175.355 68.2805 175.05 69.3505 175.05C70.0705 175.05 70.6755 175.18 71.1655 175.44C71.6655 175.69 72.0355 176.005 72.2755 176.385C72.5255 176.765 72.6605 177.145 72.6805 177.525C72.6905 177.615 72.6555 177.695 72.5755 177.765C72.5055 177.835 72.4255 177.87 72.3355 177.87H71.6755C71.5755 177.87 71.5005 177.85 71.4505 177.81C71.4005 177.76 71.3505 177.675 71.3005 177.555C71.1205 177.065 70.8705 176.72 70.5505 176.52C70.2405 176.31 69.8455 176.205 69.3655 176.205C68.7355 176.205 68.2355 176.4 67.8655 176.79C67.4955 177.18 67.2955 177.775 67.2655 178.575L67.2505 179.1L67.2655 179.625C67.2955 180.425 67.4955 181.02 67.8655 181.41C68.2355 181.8 68.7355 181.995 69.3655 181.995C69.8555 181.995 70.2555 181.895 70.5655 181.695C70.8755 181.485 71.1205 181.135 71.3005 180.645C71.3505 180.525 71.4005 180.445 71.4505 180.405C71.5005 180.355 71.5755 180.33 71.6755 180.33H72.3355C72.4255 180.33 72.5055 180.365 72.5755 180.435C72.6555 180.505 72.6905 180.585 72.6805 180.675C72.6605 181.045 72.5255 181.42 72.2755 181.8C72.0355 182.18 71.6655 182.5 71.1655 182.76C70.6755 183.02 70.0705 183.15 69.3505 183.15ZM74.8225 183C74.7225 183 74.6375 182.97 74.5675 182.91C74.5075 182.84 74.4775 182.755 74.4775 182.655V175.56C74.4775 175.46 74.5075 175.375 74.5675 175.305C74.6375 175.235 74.7225 175.2 74.8225 175.2H75.4525C75.5625 175.2 75.6475 175.235 75.7075 175.305C75.7775 175.365 75.8125 175.45 75.8125 175.56V176.22C76.2225 175.54 76.9175 175.2 77.8975 175.2H78.4825C78.5925 175.2 78.6775 175.23 78.7375 175.29C78.7975 175.35 78.8275 175.435 78.8275 175.545V176.1C78.8275 176.2 78.7975 176.285 78.7375 176.355C78.6775 176.415 78.5925 176.445 78.4825 176.445H77.6275C77.0775 176.445 76.6425 176.605 76.3225 176.925C76.0125 177.245 75.8575 177.68 75.8575 178.23V182.655C75.8575 182.755 75.8225 182.84 75.7525 182.91C75.6825 182.97 75.5975 183 75.4975 183H74.8225ZM83.0272 183.15C82.0772 183.15 81.3422 182.845 80.8222 182.235C80.3022 181.615 80.0422 180.795 80.0422 179.775V175.545C80.0422 175.445 80.0722 175.365 80.1322 175.305C80.2022 175.235 80.2872 175.2 80.3872 175.2H81.0772C81.1772 175.2 81.2572 175.235 81.3172 175.305C81.3872 175.365 81.4222 175.445 81.4222 175.545V179.7C81.4222 181.22 82.0822 181.98 83.4022 181.98C84.0422 181.98 84.5472 181.78 84.9172 181.38C85.2972 180.97 85.4872 180.41 85.4872 179.7V175.545C85.4872 175.445 85.5172 175.365 85.5772 175.305C85.6472 175.235 85.7322 175.2 85.8322 175.2H86.5222C86.6222 175.2 86.7022 175.235 86.7622 175.305C86.8322 175.365 86.8672 175.445 86.8672 175.545V182.655C86.8672 182.755 86.8322 182.84 86.7622 182.91C86.7022 182.97 86.6222 183 86.5222 183H85.8772C85.7772 183 85.6922 182.97 85.6222 182.91C85.5622 182.84 85.5322 182.755 85.5322 182.655V181.98C85.2422 182.37 84.9022 182.665 84.5122 182.865C84.1222 183.055 83.6272 183.15 83.0272 183.15ZM89.3363 173.73C89.2363 173.73 89.1513 173.7 89.0813 173.64C89.0213 173.57 88.9913 173.485 88.9913 173.385V172.605C88.9913 172.505 89.0213 172.42 89.0813 172.35C89.1513 172.28 89.2363 172.245 89.3363 172.245H90.2213C90.3213 172.245 90.4063 172.28 90.4763 172.35C90.5463 172.42 90.5813 172.505 90.5813 172.605V173.385C90.5813 173.485 90.5463 173.57 90.4763 173.64C90.4063 173.7 90.3213 173.73 90.2213 173.73H89.3363ZM89.4563 183C89.3563 183 89.2713 182.97 89.2013 182.91C89.1413 182.84 89.1113 182.755 89.1113 182.655V175.545C89.1113 175.445 89.1413 175.365 89.2013 175.305C89.2713 175.235 89.3563 175.2 89.4563 175.2H90.1163C90.2163 175.2 90.2963 175.235 90.3563 175.305C90.4263 175.365 90.4613 175.445 90.4613 175.545V182.655C90.4613 182.755 90.4263 182.84 90.3563 182.91C90.2963 182.97 90.2163 183 90.1163 183H89.4563ZM95.7148 183C94.1648 183 93.3898 182.125 93.3898 180.375V176.355H92.2048C92.1048 176.355 92.0248 176.325 91.9648 176.265C91.9048 176.205 91.8748 176.125 91.8748 176.025V175.545C91.8748 175.445 91.9048 175.365 91.9648 175.305C92.0248 175.235 92.1048 175.2 92.2048 175.2H93.3898V172.695C93.3898 172.595 93.4198 172.515 93.4798 172.455C93.5398 172.385 93.6198 172.35 93.7198 172.35H94.3798C94.4798 172.35 94.5598 172.385 94.6198 172.455C94.6898 172.515 94.7248 172.595 94.7248 172.695V175.2H96.5848C96.6848 175.2 96.7648 175.235 96.8248 175.305C96.8948 175.365 96.9298 175.445 96.9298 175.545V176.025C96.9298 176.125 96.8948 176.205 96.8248 176.265C96.7648 176.325 96.6848 176.355 96.5848 176.355H94.7248V180.27C94.7248 180.78 94.8048 181.165 94.9648 181.425C95.1348 181.685 95.4198 181.815 95.8198 181.815H96.7348C96.8348 181.815 96.9148 181.85 96.9748 181.92C97.0348 181.98 97.0648 182.06 97.0648 182.16V182.655C97.0648 182.755 97.0348 182.84 96.9748 182.91C96.9148 182.97 96.8348 183 96.7348 183H95.7148ZM101.62 183.15C100.6 183.15 99.7853 182.835 99.1753 182.205C98.5653 181.565 98.2303 180.695 98.1703 179.595L98.1553 179.085L98.1703 178.59C98.2303 177.51 98.5653 176.65 99.1753 176.01C99.7853 175.37 100.6 175.05 101.62 175.05C102.72 175.05 103.57 175.4 104.17 176.1C104.78 176.8 105.085 177.75 105.085 178.95V179.22C105.085 179.32 105.05 179.405 104.98 179.475C104.92 179.535 104.84 179.565 104.74 179.565H99.5353V179.7C99.5653 180.35 99.7653 180.905 100.135 181.365C100.505 181.825 100.995 182.055 101.605 182.055C102.075 182.055 102.455 181.965 102.745 181.785C103.045 181.595 103.27 181.4 103.42 181.2C103.51 181.08 103.58 181.01 103.63 180.99C103.68 180.96 103.765 180.945 103.885 180.945H104.545C104.635 180.945 104.71 180.97 104.77 181.02C104.84 181.07 104.875 181.135 104.875 181.215C104.875 181.435 104.74 181.7 104.47 182.01C104.2 182.32 103.815 182.59 103.315 182.82C102.825 183.04 102.26 183.15 101.62 183.15ZM103.72 178.545V178.5C103.72 177.8 103.53 177.23 103.15 176.79C102.77 176.35 102.26 176.13 101.62 176.13C100.97 176.13 100.46 176.35 100.09 176.79C99.7203 177.23 99.5353 177.8 99.5353 178.5V178.545H103.72ZM107.254 183C107.154 183 107.069 182.97 106.999 182.91C106.939 182.84 106.909 182.755 106.909 182.655V175.56C106.909 175.46 106.939 175.375 106.999 175.305C107.069 175.235 107.154 175.2 107.254 175.2H107.884C107.994 175.2 108.079 175.235 108.139 175.305C108.209 175.365 108.244 175.45 108.244 175.56V176.22C108.654 175.54 109.349 175.2 110.329 175.2H110.914C111.024 175.2 111.109 175.23 111.169 175.29C111.229 175.35 111.259 175.435 111.259 175.545V176.1C111.259 176.2 111.229 176.285 111.169 176.355C111.109 176.415 111.024 176.445 110.914 176.445H110.059C109.509 176.445 109.074 176.605 108.754 176.925C108.444 177.245 108.289 177.68 108.289 178.23V182.655C108.289 182.755 108.254 182.84 108.184 182.91C108.114 182.97 108.029 183 107.929 183H107.254ZM116.414 183C116.314 183 116.234 182.97 116.174 182.91C116.114 182.84 116.084 182.755 116.084 182.655V172.845C116.084 172.745 116.114 172.665 116.174 172.605C116.234 172.535 116.314 172.5 116.414 172.5H117.164C117.264 172.5 117.344 172.535 117.404 172.605C117.464 172.665 117.494 172.745 117.494 172.845V181.74H122.504C122.614 181.74 122.699 181.775 122.759 181.845C122.829 181.905 122.864 181.985 122.864 182.085V182.655C122.864 182.755 122.829 182.84 122.759 182.91C122.689 182.97 122.604 183 122.504 183H116.414ZM124.522 173.73C124.422 173.73 124.337 173.7 124.267 173.64C124.207 173.57 124.177 173.485 124.177 173.385V172.605C124.177 172.505 124.207 172.42 124.267 172.35C124.337 172.28 124.422 172.245 124.522 172.245H125.407C125.507 172.245 125.592 172.28 125.662 172.35C125.732 172.42 125.767 172.505 125.767 172.605V173.385C125.767 173.485 125.732 173.57 125.662 173.64C125.592 173.7 125.507 173.73 125.407 173.73H124.522ZM124.642 183C124.542 183 124.457 182.97 124.387 182.91C124.327 182.84 124.297 182.755 124.297 182.655V175.545C124.297 175.445 124.327 175.365 124.387 175.305C124.457 175.235 124.542 175.2 124.642 175.2H125.302C125.402 175.2 125.482 175.235 125.542 175.305C125.612 175.365 125.647 175.445 125.647 175.545V182.655C125.647 182.755 125.612 182.84 125.542 182.91C125.482 182.97 125.402 183 125.302 183H124.642ZM130.9 183C129.35 183 128.575 182.125 128.575 180.375V176.355H127.39C127.29 176.355 127.21 176.325 127.15 176.265C127.09 176.205 127.06 176.125 127.06 176.025V175.545C127.06 175.445 127.09 175.365 127.15 175.305C127.21 175.235 127.29 175.2 127.39 175.2H128.575V172.695C128.575 172.595 128.605 172.515 128.665 172.455C128.725 172.385 128.805 172.35 128.905 172.35H129.565C129.665 172.35 129.745 172.385 129.805 172.455C129.875 172.515 129.91 172.595 129.91 172.695V175.2H131.77C131.87 175.2 131.95 175.235 132.01 175.305C132.08 175.365 132.115 175.445 132.115 175.545V176.025C132.115 176.125 132.08 176.205 132.01 176.265C131.95 176.325 131.87 176.355 131.77 176.355H129.91V180.27C129.91 180.78 129.99 181.165 130.15 181.425C130.32 181.685 130.605 181.815 131.005 181.815H131.92C132.02 181.815 132.1 181.85 132.16 181.92C132.22 181.98 132.25 182.06 132.25 182.16V182.655C132.25 182.755 132.22 182.84 132.16 182.91C132.1 182.97 132.02 183 131.92 183H130.9ZM136.806 183.15C135.786 183.15 134.971 182.835 134.361 182.205C133.751 181.565 133.416 180.695 133.356 179.595L133.341 179.085L133.356 178.59C133.416 177.51 133.751 176.65 134.361 176.01C134.971 175.37 135.786 175.05 136.806 175.05C137.906 175.05 138.756 175.4 139.356 176.1C139.966 176.8 140.271 177.75 140.271 178.95V179.22C140.271 179.32 140.236 179.405 140.166 179.475C140.106 179.535 140.026 179.565 139.926 179.565H134.721V179.7C134.751 180.35 134.951 180.905 135.321 181.365C135.691 181.825 136.181 182.055 136.791 182.055C137.261 182.055 137.641 181.965 137.931 181.785C138.231 181.595 138.456 181.4 138.606 181.2C138.696 181.08 138.766 181.01 138.816 180.99C138.866 180.96 138.951 180.945 139.071 180.945H139.731C139.821 180.945 139.896 180.97 139.956 181.02C140.026 181.07 140.061 181.135 140.061 181.215C140.061 181.435 139.926 181.7 139.656 182.01C139.386 182.32 139.001 182.59 138.501 182.82C138.011 183.04 137.446 183.15 136.806 183.15ZM138.906 178.545V178.5C138.906 177.8 138.716 177.23 138.336 176.79C137.956 176.35 137.446 176.13 136.806 176.13C136.156 176.13 135.646 176.35 135.276 176.79C134.906 177.23 134.721 177.8 134.721 178.5V178.545H138.906Z" fill="black"/>
</svg>
