<svg width="362" height="250" viewBox="0 0 362 250" fill="none" xmlns="http://www.w3.org/2000/svg">
<path d="M123.136 117.646H71.2931L61.0345 103.284H23.5536C21.5921 103.284 20 104.875 20 106.838V194.504C20.1416 194.508 20.2831 194.516 20.4206 194.525L40.9686 138.484C41.3461 137.082 42.6162 136.112 44.0667 136.112H126.69V121.2C126.69 119.237 125.098 117.646 123.136 117.646Z" fill="url(#paint0_linear)"/>
<g filter="url(#filter0_d)">
<rect x="50.7242" y="64.7639" width="112.017" height="100.226" transform="rotate(-6.66222 50.7242 64.7639)" fill="white"/>
</g>
<rect x="59.1224" y="134.164" width="111.727" height="30.3205" transform="rotate(-6.66222 59.1224 134.164)" fill="#F6F7FB"/>
<rect x="63.8988" y="125.492" width="20.1784" height="5.14336" rx="2" transform="rotate(-6.66222 63.8988 125.492)" fill="#006BB1"/>
<path d="M124.8 104.445L161.699 100.135L161.965 102.416L125.067 106.726L124.8 104.445Z" fill="#F6F7FB"/>
<path d="M61.3131 111.861L98.2117 107.551L98.4781 109.832L61.5795 114.142L61.3131 111.861Z" fill="#F6F7FB"/>
<path d="M61.7794 115.853L98.6779 111.543L99.011 114.394L62.1124 118.704L61.7794 115.853Z" fill="#F6F7FB"/>
<path d="M62.3481 120.721L99.2466 116.411L99.5797 119.263L62.6811 123.573L62.3481 120.721Z" fill="#F6F7FB"/>
<path d="M125.267 108.437L162.165 104.127L162.498 106.978L125.6 111.288L125.267 108.437Z" fill="#F6F7FB"/>
<path d="M125.835 113.306L162.734 108.996L163.067 111.847L126.168 116.157L125.835 113.306Z" fill="#F6F7FB"/>
<path d="M64.44 138.63L164.248 126.972L164.502 129.148L64.6942 140.806L64.44 138.63Z" fill="white"/>
<path d="M64.8848 142.438L164.692 130.78L165.01 133.5L65.2025 145.158L64.8848 142.438Z" fill="white"/>
<path d="M65.4272 147.083L165.235 135.425L165.552 138.145L65.7449 149.803L65.4272 147.083Z" fill="white"/>
<path d="M65.9355 151.435L165.743 139.777L166.061 142.497L66.2532 154.155L65.9355 151.435Z" fill="white"/>
<path d="M66.478 156.079L142.834 147.16L143.088 149.336L66.7322 158.255L66.478 156.079Z" fill="white"/>
<rect x="56.2682" y="69.6304" width="101.584" height="29.5749" transform="rotate(-6.66222 56.2682 69.6304)" fill="#0075B0"/>
<ellipse cx="74.4754" cy="95.3497" rx="11.8057" ry="11.7752" transform="rotate(-6.66222 74.4754 95.3497)" fill="url(#paint1_linear)"/>
<g filter="url(#filter1_d)">
<rect x="98.8857" y="20" width="136.519" height="122.148" transform="rotate(0.8846 98.8857 20)" fill="white"/>
</g>
<rect x="97.924" y="105.191" width="136.165" height="36.9524" transform="rotate(0.8846 97.924 105.191)" fill="#F6F7FB"/>
<rect x="105.082" y="95.479" width="24.592" height="6.26836" rx="2" transform="rotate(0.8846 105.082 95.479)" fill="#006BB1"/>
<path d="M182.031 79.7989L227.301 80.4978L227.257 83.2963L181.988 82.5973L182.031 79.7989Z" fill="#F6F7FB"/>
<path d="M104.141 78.5962L149.41 79.2952L149.367 82.0937L104.097 81.3947L104.141 78.5962Z" fill="#F6F7FB"/>
<path d="M104.065 83.4935L149.335 84.1925L149.281 87.6906L104.011 86.9916L104.065 83.4935Z" fill="#F6F7FB"/>
<path d="M103.973 89.4668L149.242 90.1658L149.188 93.6639L103.919 92.9649L103.973 89.4668Z" fill="#F6F7FB"/>
<path d="M181.955 84.6962L227.225 85.3952L227.171 88.8933L181.901 88.1943L181.955 84.6962Z" fill="#F6F7FB"/>
<path d="M181.863 90.6694L227.133 91.3684L227.079 94.8665L181.809 94.1675L181.863 90.6694Z" fill="#F6F7FB"/>
<path d="M103.633 111.439L226.084 113.329L226.043 115.999L103.592 114.108L103.633 111.439Z" fill="white"/>
<path d="M103.561 116.111L226.012 118.001L225.96 121.338L103.51 119.447L103.561 116.111Z" fill="white"/>
<path d="M103.473 121.809L225.924 123.699L225.872 127.036L103.422 125.146L103.473 121.809Z" fill="white"/>
<path d="M103.391 127.148L225.841 129.038L225.79 132.375L103.339 130.485L103.391 127.148Z" fill="white"/>
<path d="M103.303 132.846L196.981 134.292L196.94 136.962L103.262 135.516L103.303 132.846Z" fill="white"/>
<rect x="104.805" y="26.7668" width="123.804" height="36.0438" transform="rotate(0.8846 104.805 26.7668)" fill="#0075B0"/>
<ellipse cx="122.685" cy="60.7545" rx="14.388" ry="14.3508" transform="rotate(0.8846 122.685 60.7545)" fill="url(#paint2_linear)"/>
<g filter="url(#filter2_d)">
<rect x="173.261" y="31" width="138.616" height="124.025" transform="rotate(6.13815 173.261 31)" fill="white"/>
</g>
<rect x="164.369" y="117.047" width="138.257" height="37.5202" transform="rotate(6.13815 164.369 117.047)" fill="#F6F7FB"/>
<rect x="172.51" y="107.893" width="24.9698" height="6.36465" rx="2" transform="rotate(6.13815 172.51 107.893)" fill="#006BB1"/>
<path d="M251.77 99.1923L297.477 104.108L297.173 106.933L251.466 102.018L251.77 99.1923Z" fill="#F6F7FB"/>
<path d="M173.127 90.7349L218.834 95.6503L218.53 98.4759L172.823 93.5604L173.127 90.7349Z" fill="#F6F7FB"/>
<path d="M172.595 95.6795L218.302 100.595L217.922 104.127L172.215 99.2114L172.595 95.6795Z" fill="#F6F7FB"/>
<path d="M171.947 101.71L217.654 106.626L217.274 110.158L171.567 105.242L171.947 101.71Z" fill="#F6F7FB"/>
<path d="M251.238 104.137L296.945 109.052L296.565 112.584L250.858 107.669L251.238 104.137Z" fill="#F6F7FB"/>
<path d="M250.59 110.168L296.297 115.083L295.917 118.615L250.21 113.7L250.59 110.168Z" fill="#F6F7FB"/>
<path d="M169.561 123.895L293.195 137.191L292.905 139.886L169.271 126.59L169.561 123.895Z" fill="white"/>
<path d="M169.053 128.612L292.687 141.908L292.325 145.277L168.691 131.981L169.053 128.612Z" fill="white"/>
<path d="M168.435 134.365L292.069 147.661L291.706 151.03L168.072 137.734L168.435 134.365Z" fill="white"/>
<path d="M167.855 139.756L291.489 153.052L291.127 156.421L167.493 143.125L167.855 139.756Z" fill="white"/>
<path d="M167.236 145.509L261.82 155.681L261.53 158.376L166.946 148.205L167.236 145.509Z" fill="white"/>
<rect x="178.617" y="38.3923" width="125.706" height="36.5975" transform="rotate(6.13815 178.617 38.3923)" fill="#0075B0"/>
<ellipse cx="193.536" cy="74.4197" rx="14.6091" ry="14.5712" transform="rotate(6.13815 193.536 74.4197)" fill="url(#paint3_linear)"/>
<path d="M115.044 199.716H23.211C21.0977 199.716 19.561 197.709 20.1129 195.667L40.9707 138.484C41.3482 137.085 42.6183 136.112 44.0688 136.112H135.902C138.015 136.112 139 138.131 139 140.16L118.142 197.344C117.765 198.743 116.495 199.716 115.044 199.716Z" fill="url(#paint4_linear)"/>
<path d="M56.2989 176.188C55.7591 174.98 55.9509 173.326 56.8877 171.226C57.0884 170.776 57.4319 170.046 57.9226 169.027C58.4222 167.995 58.7924 167.242 59.0333 166.778C60.1262 164.678 61.5403 163.024 63.2666 161.816C64.9974 160.604 66.9646 160 69.1593 160C70.6269 160 71.7421 160.261 72.5048 160.789C73.2676 161.311 73.6959 162.001 73.7895 162.853C73.8832 163.7 73.7137 164.61 73.281 165.575C73.2052 165.724 73.0937 165.845 72.942 165.94C72.7903 166.03 72.6387 166.075 72.4915 166.075H71.2647C71.0997 166.075 70.9926 166.035 70.9347 165.949C70.8767 165.863 70.8722 165.724 70.9257 165.525C71.2826 164.241 71.2246 163.344 70.7473 162.826C70.27 162.307 69.4091 162.051 68.1556 162.051C65.2918 162.051 63.0168 163.669 61.3351 166.9C61.0987 167.351 60.7552 168.04 60.3046 168.973C59.8541 169.906 59.5151 170.613 59.2965 171.096C57.8467 174.313 58.5337 175.918 61.3485 175.918C62.5618 175.918 63.6591 175.661 64.645 175.143C65.6308 174.624 66.572 173.737 67.4776 172.466C67.6248 172.267 67.7675 172.123 67.9058 172.042C68.0485 171.956 68.1957 171.916 68.3608 171.916H69.5786C69.7258 171.916 69.8284 171.961 69.8908 172.051C69.9488 172.141 69.9444 172.263 69.8685 172.412C69.3377 173.381 68.6017 174.286 67.6694 175.138C66.7371 175.99 65.6397 176.675 64.3773 177.202C63.1149 177.725 61.7678 177.991 60.3314 177.991C58.1768 178 56.8342 177.396 56.2989 176.188Z" fill="white"/>
<path d="M72.6476 177.351C71.8892 176.918 71.4298 176.346 71.2781 175.638C71.122 174.931 71.2335 174.169 71.6127 173.354C71.6796 173.218 71.7866 173.101 71.9338 173.002C72.081 172.903 72.2283 172.853 72.3755 172.853H73.5709C73.8609 172.853 73.9813 173.02 73.9278 173.354C73.7182 174.052 73.8297 174.656 74.2668 175.165C74.6951 175.675 75.5515 175.927 76.8318 175.927C78.2057 175.927 79.361 175.675 80.2978 175.179C81.2346 174.679 81.9304 173.984 82.3854 173.106C82.6754 172.538 82.7512 172.074 82.604 171.704C82.4613 171.339 82.1267 171.015 81.6093 170.74C81.0918 170.465 80.271 170.127 79.1558 169.726C78.0852 169.361 77.2823 168.968 76.7515 168.549C76.2206 168.135 75.9173 167.621 75.8504 167.013C75.779 166.404 75.9798 165.633 76.4481 164.701C76.8987 163.799 77.541 162.997 78.3752 162.289C79.2094 161.582 80.1818 161.023 81.297 160.613C82.4077 160.203 83.5809 160 84.821 160C86.1057 160 87.0915 160.23 87.774 160.69C88.4521 161.149 88.8491 161.722 88.974 162.416C89.0944 163.105 88.9874 163.804 88.6617 164.502C88.5859 164.651 88.4699 164.777 88.3183 164.876C88.1666 164.975 88.0194 165.025 87.8722 165.025H86.641C86.5116 165.025 86.409 164.984 86.3377 164.899C86.2663 164.813 86.2485 164.692 86.2841 164.525C86.5562 163.808 86.4626 163.218 86.012 162.749C85.5615 162.285 84.8165 162.051 83.7817 162.051C82.662 162.051 81.6628 162.271 80.7796 162.713C79.8919 163.155 79.2361 163.808 78.7945 164.674C78.5001 165.255 78.4109 165.733 78.5269 166.098C78.6428 166.463 78.9462 166.787 79.4324 167.071C79.9186 167.355 80.6725 167.68 81.694 168.045C82.8761 168.446 83.7638 168.842 84.3482 169.243C84.9325 169.644 85.2671 170.14 85.3518 170.731C85.4366 171.321 85.2359 172.087 84.7541 173.02C83.9422 174.588 82.7334 175.805 81.123 176.684C79.5172 177.558 77.7328 177.995 75.7612 177.995C74.4453 178 73.4059 177.784 72.6476 177.351Z" fill="white"/>
<path d="M89.4603 177.099L92.3553 161.028L92.449 160.753C92.5203 160.617 92.6319 160.505 92.788 160.401C92.9486 160.302 93.0913 160.252 93.2251 160.252H94.4117C94.5946 160.252 94.715 160.297 94.773 160.388C94.8355 160.478 94.8489 160.586 94.8221 160.699L92.1679 174.998L104.636 160.699C104.734 160.581 104.854 160.478 105.015 160.388C105.171 160.297 105.336 160.252 105.519 160.252H106.706C106.835 160.252 106.924 160.302 106.973 160.401C107.018 160.5 107.004 160.617 106.933 160.753C106.871 160.87 106.813 160.96 106.759 161.028L92.6854 177.099C92.2928 177.531 91.8914 177.748 91.4721 177.748H89.9911C89.5718 177.748 89.3978 177.531 89.4603 177.099Z" fill="white"/>
<defs>
<filter id="filter0_d" x="0.724243" y="31.7681" width="222.889" height="212.545" filterUnits="userSpaceOnUse" color-interpolation-filters="sRGB">
<feFlood flood-opacity="0" result="BackgroundImageFix"/>
<feColorMatrix in="SourceAlpha" type="matrix" values="0 0 0 0 0 0 0 0 0 0 0 0 0 0 0 0 0 0 127 0"/>
<feOffset dy="30"/>
<feGaussianBlur stdDeviation="25"/>
<feColorMatrix type="matrix" values="0 0 0 0 0 0 0 0 0 0.149449 0 0 0 0 0.191667 0 0 0 0.05 0"/>
<feBlend mode="normal" in2="BackgroundImageFix" result="effect1_dropShadow"/>
<feBlend mode="normal" in="SourceGraphic" in2="effect1_dropShadow" result="shape"/>
</filter>
<filter id="filter1_d" x="47" y="0" width="238.388" height="224.241" filterUnits="userSpaceOnUse" color-interpolation-filters="sRGB">
<feFlood flood-opacity="0" result="BackgroundImageFix"/>
<feColorMatrix in="SourceAlpha" type="matrix" values="0 0 0 0 0 0 0 0 0 0 0 0 0 0 0 0 0 0 127 0"/>
<feOffset dy="30"/>
<feGaussianBlur stdDeviation="25"/>
<feColorMatrix type="matrix" values="0 0 0 0 0 0 0 0 0 0.149449 0 0 0 0 0.191667 0 0 0 0.05 0"/>
<feBlend mode="normal" in2="BackgroundImageFix" result="effect1_dropShadow"/>
<feBlend mode="normal" in="SourceGraphic" in2="effect1_dropShadow" result="shape"/>
</filter>
<filter id="filter2_d" x="110" y="11" width="251.083" height="238.136" filterUnits="userSpaceOnUse" color-interpolation-filters="sRGB">
<feFlood flood-opacity="0" result="BackgroundImageFix"/>
<feColorMatrix in="SourceAlpha" type="matrix" values="0 0 0 0 0 0 0 0 0 0 0 0 0 0 0 0 0 0 127 0"/>
<feOffset dy="30"/>
<feGaussianBlur stdDeviation="25"/>
<feColorMatrix type="matrix" values="0 0 0 0 0 0 0 0 0 0.149449 0 0 0 0 0.191667 0 0 0 0.15 0"/>
<feBlend mode="normal" in2="BackgroundImageFix" result="effect1_dropShadow"/>
<feBlend mode="normal" in="SourceGraphic" in2="effect1_dropShadow" result="shape"/>
</filter>
<linearGradient id="paint0_linear" x1="20" y1="194.525" x2="140.067" y2="170.12" gradientUnits="userSpaceOnUse">
<stop stop-color="#0282F9"/>
<stop offset="1" stop-color="#00DED1"/>
</linearGradient>
<linearGradient id="paint1_linear" x1="62.6697" y1="107.125" x2="89.5239" y2="102.445" gradientUnits="userSpaceOnUse">
<stop stop-color="#00DED1"/>
<stop offset="1" stop-color="#0282F9"/>
</linearGradient>
<linearGradient id="paint2_linear" x1="108.297" y1="75.1053" x2="141.025" y2="69.4017" gradientUnits="userSpaceOnUse">
<stop stop-color="#00DED1"/>
<stop offset="1" stop-color="#0282F9"/>
</linearGradient>
<linearGradient id="paint3_linear" x1="178.927" y1="88.9909" x2="212.158" y2="83.1996" gradientUnits="userSpaceOnUse">
<stop stop-color="#00DED1"/>
<stop offset="1" stop-color="#0282F9"/>
</linearGradient>
<linearGradient id="paint4_linear" x1="19.9998" y1="199.716" x2="146.115" y2="158.701" gradientUnits="userSpaceOnUse">
<stop stop-color="#00DED1"/>
<stop offset="1" stop-color="#0282F9"/>
</linearGradient>
</defs>
</svg>
