<svg width="282" height="200" viewBox="0 0 282 200" fill="none" xmlns="http://www.w3.org/2000/svg">
<rect y="103" width="282" height="97" rx="10" fill="#F6F7FB"/>
<g clip-path="url(#clip0)">
<path d="M99.48 140.974V149.449H91.694V140.974H88V161.205H91.695V153.005H99.479V161.205H103.175V140.974H99.48ZM115.002 154.666C115.002 155.477 114.68 156.255 114.106 156.828C113.533 157.401 112.755 157.724 111.944 157.724C111.134 157.724 110.356 157.401 109.783 156.828C109.209 156.255 108.887 155.477 108.887 154.666V146H105.382V154.666C105.382 156.405 106.073 158.072 107.302 159.302C108.532 160.531 110.199 161.222 111.938 161.222C113.677 161.222 115.344 160.531 116.574 159.302C117.803 158.072 118.494 156.405 118.494 154.666V146H115.002V154.666ZM140.973 146.893C140.973 145.116 142.148 144.553 143.435 144.553C144.473 144.553 145.843 145.343 146.74 146.301L149.035 143.595C147.889 142.045 145.565 140.974 143.662 140.974C139.859 140.974 137.109 143.201 137.109 146.893C137.109 153.743 145.481 151.569 145.481 155.403C145.481 156.585 144.333 157.629 143.019 157.629C140.946 157.629 140.274 156.616 139.322 155.544L136.774 158.193C138.404 160.193 140.414 161.209 142.821 161.209C146.434 161.209 149.34 158.955 149.34 155.431C149.34 147.827 140.967 150.19 140.967 146.893H140.973ZM192.767 157.973C190.696 157.973 190.107 157.077 190.107 155.705V149.63H193.327V146.552H190.107V142.491L186.553 144.086V156.46C186.553 159.625 188.737 161.22 191.731 161.22C192.201 161.228 192.671 161.19 193.133 161.108L194 157.916C193.609 157.943 193.16 157.97 192.767 157.97V157.973ZM128.344 146.101C126.608 146.101 125.396 146.605 124.224 147.754V141.095H120.714V153.438C120.714 158.058 124.054 161.224 127.808 161.224C131.972 161.224 135.635 158.002 135.635 153.664C135.635 149.38 132.264 146.104 128.344 146.104V146.101ZM128.322 157.691C127.799 157.691 127.281 157.588 126.798 157.388C126.314 157.188 125.875 156.894 125.505 156.524C125.135 156.154 124.842 155.715 124.642 155.232C124.442 154.749 124.339 154.231 124.339 153.708C124.339 153.185 124.442 152.667 124.642 152.183C124.842 151.7 125.135 151.261 125.505 150.891C125.875 150.521 126.314 150.228 126.798 150.027C127.281 149.827 127.799 149.724 128.322 149.724C129.378 149.724 130.392 150.144 131.139 150.891C131.886 151.638 132.306 152.651 132.306 153.708C132.306 154.764 131.886 155.777 131.139 156.524C130.392 157.271 129.378 157.691 128.322 157.691ZM166.464 153.48C166.464 149.134 162.809 145.92 158.637 145.92C154.884 145.92 151.543 149.085 151.543 153.706V166.056H155.053V159.388C156.223 160.535 157.437 161.041 159.171 161.041C163.091 161.041 166.463 157.765 166.463 153.48H166.464ZM163.14 153.436C163.14 154.493 162.72 155.506 161.973 156.253C161.226 157 160.213 157.42 159.157 157.42C158.1 157.42 157.087 157 156.34 156.253C155.593 155.506 155.173 154.493 155.173 153.436C155.173 152.38 155.593 151.366 156.34 150.619C157.087 149.872 158.1 149.453 159.157 149.453C160.213 149.453 161.226 149.872 161.973 150.619C162.72 151.366 163.14 152.38 163.14 153.436Z" fill="#33475B"/>
<path d="M177.806 145.75V142.223C178.272 142.005 178.667 141.659 178.944 141.226C179.221 140.793 179.37 140.29 179.372 139.775V139.694C179.372 138.194 178.156 136.978 176.656 136.978H176.575C175.855 136.978 175.164 137.264 174.654 137.774C174.145 138.283 173.859 138.974 173.859 139.694V139.775C173.861 140.29 174.01 140.793 174.287 141.226C174.564 141.659 174.959 142.005 175.425 142.223V145.75C174.085 145.955 172.824 146.511 171.768 147.36L162.095 139.826C162.164 139.577 162.2 139.321 162.204 139.064C162.205 138.459 162.027 137.867 161.691 137.363C161.356 136.859 160.879 136.466 160.32 136.233C159.761 136 159.146 135.939 158.552 136.056C157.958 136.173 157.412 136.463 156.984 136.891C156.555 137.318 156.263 137.863 156.144 138.456C156.025 139.05 156.084 139.665 156.315 140.225C156.546 140.784 156.938 141.263 157.44 141.6C157.943 141.937 158.535 142.117 159.14 142.118C159.67 142.116 160.189 141.974 160.647 141.708L170.172 149.12C169.316 150.413 168.87 151.933 168.891 153.483C168.912 155.033 169.4 156.541 170.29 157.81L167.393 160.708C167.159 160.633 166.915 160.593 166.669 160.59C166.172 160.59 165.687 160.738 165.274 161.014C164.861 161.291 164.539 161.683 164.349 162.142C164.159 162.601 164.109 163.107 164.206 163.594C164.303 164.081 164.543 164.529 164.894 164.88C165.245 165.231 165.693 165.471 166.18 165.568C166.668 165.665 167.173 165.615 167.632 165.425C168.091 165.235 168.483 164.913 168.76 164.5C169.036 164.087 169.184 163.602 169.184 163.105C169.181 162.859 169.141 162.615 169.066 162.381L171.932 159.514C172.867 160.234 173.953 160.73 175.109 160.964C176.265 161.199 177.459 161.166 178.601 160.867C179.742 160.569 180.799 160.014 181.693 159.243C182.586 158.473 183.291 157.509 183.754 156.424C184.217 155.339 184.426 154.163 184.364 152.985C184.302 151.807 183.971 150.659 183.397 149.629C182.823 148.598 182.02 147.713 181.051 147.041C180.082 146.369 178.972 145.927 177.806 145.75ZM176.618 157.35C176.088 157.365 175.561 157.273 175.067 157.08C174.574 156.888 174.124 156.598 173.744 156.229C173.364 155.859 173.062 155.417 172.856 154.929C172.65 154.441 172.544 153.916 172.544 153.387C172.544 152.857 172.65 152.332 172.856 151.844C173.062 151.356 173.364 150.914 173.744 150.545C174.124 150.175 174.574 149.885 175.067 149.693C175.561 149.5 176.088 149.408 176.618 149.423C177.645 149.459 178.617 149.892 179.331 150.631C180.045 151.369 180.444 152.356 180.444 153.384C180.445 154.411 180.047 155.398 179.334 156.138C178.621 156.877 177.649 157.311 176.622 157.348" fill="#FF7A59"/>
</g>
<rect width="282" height="97" rx="10" fill="#F6F7FB"/>
<g clip-path="url(#clip1)">
<path d="M151.007 45.57H148.514C148.463 45.3696 148.425 45.1371 148.399 44.8732C148.348 44.3595 148.348 43.8423 148.399 43.3286C148.425 43.0653 148.463 42.8331 148.514 42.6314H154.726V61.9584C154.415 62.0116 154.101 62.0491 153.787 62.0709C153.474 62.0944 153.16 62.1069 152.847 62.1082C152.546 62.1063 152.246 62.0939 151.946 62.0709C151.631 62.0489 151.318 62.0112 151.007 61.9579V45.5692V45.5696L151.007 45.57ZM172.632 50.4304C172.632 49.7269 172.536 49.0552 172.345 48.4142C172.153 47.7742 171.871 47.2155 171.501 46.738C171.13 46.2613 170.657 45.8779 170.082 45.5893C169.507 45.3004 168.823 45.1558 168.031 45.1558C166.471 45.1558 165.276 45.6211 164.446 46.55C163.615 47.4791 163.11 48.7725 162.931 50.4304H172.632H172.632ZM162.893 53.218C162.944 55.3277 163.5 56.8727 164.561 57.8517C165.621 58.831 167.187 59.3215 169.258 59.3215C171.072 59.3215 172.798 59.0071 174.434 58.3793C174.638 58.756 174.804 59.2144 174.932 59.7544C175.057 60.2802 175.134 60.816 175.162 61.3554C174.319 61.7079 173.391 61.9704 172.382 62.1467C171.372 62.322 170.254 62.4104 169.028 62.4104C167.238 62.4104 165.704 62.1648 164.426 61.6755C163.148 61.1852 162.093 60.4945 161.263 59.6033C160.432 58.712 159.825 57.6569 159.441 56.4386C159.058 55.2208 158.866 53.8832 158.866 52.4265C158.866 50.995 159.051 49.6573 159.422 48.4138C159.792 47.1713 160.362 46.0911 161.128 45.1744C161.895 44.2573 162.86 43.5293 164.023 42.9893C165.186 42.4493 166.559 42.1789 168.145 42.1789C169.5 42.1789 170.688 42.4053 171.711 42.8572C172.733 43.3092 173.59 43.9309 174.28 44.7221C174.97 45.5134 175.494 46.4553 175.852 47.5472C176.21 48.6402 176.389 49.8267 176.389 51.1079C176.389 51.4597 176.376 51.8299 176.35 52.219C176.329 52.5521 176.304 52.8848 176.274 53.2172H162.892L162.892 53.2178L162.893 53.218ZM180.571 42.6314C180.838 42.5838 181.106 42.5462 181.376 42.5186C181.631 42.4941 181.9 42.4813 182.181 42.4813C182.462 42.4813 182.743 42.4941 183.025 42.5186C183.306 42.5442 183.562 42.5819 183.792 42.6314C183.868 43.0083 183.945 43.5049 184.021 44.1196C184.098 44.735 184.137 45.2558 184.137 45.683C184.673 44.8294 185.383 44.0879 186.264 43.4599C187.146 42.8325 188.277 42.5181 189.657 42.5181C189.862 42.5181 190.073 42.5247 190.29 42.5373C190.476 42.5471 190.662 42.5656 190.846 42.5933C190.897 42.8197 190.936 43.0586 190.961 43.3094C190.986 43.5603 190.999 43.8242 190.999 44.1003C190.999 44.402 190.98 44.7162 190.942 45.042C190.905 45.3569 190.86 45.6709 190.808 45.9836C190.601 45.9335 190.388 45.9083 190.175 45.9084H189.657C188.967 45.9084 188.309 46.0027 187.682 46.1908C187.056 46.3794 186.494 46.7123 185.995 47.189C185.497 47.6665 185.101 48.3197 184.807 49.1486C184.513 49.9774 184.366 51.0449 184.366 52.3507V61.9579C184.055 62.0109 183.741 62.0488 183.426 62.0707C183.082 62.0958 182.768 62.108 182.487 62.108C182.174 62.1068 181.86 62.0943 181.548 62.0707C181.22 62.0472 180.894 62.0097 180.57 61.9581V42.6316L180.571 42.6314ZM153.66 32.3117C153.66 32.7626 153.577 33.2098 153.415 33.6318C152.986 33.7908 152.53 33.8723 152.071 33.8724H152.066C151.607 33.8724 151.151 33.791 150.722 33.632C150.56 33.21 150.477 32.7626 150.477 32.3115V32.3056C150.477 31.8409 150.564 31.3958 150.721 30.9851C151.15 30.8259 151.606 30.7445 152.065 30.7448H152.07C152.544 30.7448 152.996 30.83 153.414 30.9851C153.576 31.4072 153.659 31.8545 153.659 32.3056V32.3115H153.66L153.66 32.3117ZM158.345 31.2663H154.63L157.257 28.6852C156.844 28.1152 156.337 27.6171 155.756 27.2114L153.129 29.7925V26.142C152.78 26.0842 152.426 26.0551 152.072 26.0549H152.065C151.705 26.0549 151.352 26.0852 151.008 26.142V29.7925L148.38 27.2112C148.091 27.4136 147.819 27.6394 147.568 27.8864L147.567 27.8876C147.316 28.1343 147.086 28.4012 146.88 28.6854L149.508 31.2663H145.792C145.792 31.2663 145.704 31.9521 145.704 32.3066V32.3109C145.704 32.6654 145.734 33.0128 145.792 33.351H149.508L146.88 35.9317C147.293 36.5016 147.801 36.9999 148.381 37.4059L151.008 34.825V38.4757C151.352 38.5323 151.704 38.5622 152.064 38.5626H152.073C152.427 38.5623 152.78 38.5332 153.129 38.4757V34.825L155.757 37.4065C156.046 37.204 156.318 36.9781 156.569 36.7313H156.57C156.821 36.4843 157.05 36.2172 157.256 35.9329L154.629 33.3512H158.345C158.403 33.0132 158.433 32.667 158.433 32.3133V32.3042C158.433 31.9564 158.404 31.6096 158.345 31.2667V31.2663H158.345ZM91 61.4312L101.353 45.6077H92.2268C92.1504 45.1558 92.1122 44.6539 92.1122 44.1011C92.1122 43.5739 92.151 43.0836 92.2276 42.6312H106.99L107.182 43.1219L96.7522 58.9824H106.529C106.606 59.4848 106.645 59.9993 106.645 60.5265C106.645 61.0296 106.606 61.5065 106.53 61.9584H91.192L91 61.4306V61.4312ZM120.869 52.8787C120.486 52.8289 120 52.7792 119.412 52.7283C118.824 52.6786 118.326 52.6531 117.917 52.6531C116.332 52.6531 115.124 52.9419 114.294 53.5197C113.463 54.0978 113.048 54.9764 113.048 56.1568C113.048 56.9102 113.188 57.5005 113.47 57.9273C113.75 58.3549 114.102 58.6807 114.524 58.9069C114.946 59.1329 115.412 59.2712 115.923 59.3215C116.434 59.3716 116.92 59.3966 117.38 59.3966C117.968 59.3966 118.575 59.3652 119.201 59.3023C119.827 59.24 120.383 59.1455 120.869 59.0199V52.8787H120.869ZM120.869 49.2248C120.869 47.7424 120.486 46.7127 119.719 46.135C118.952 45.5572 117.84 45.2684 116.383 45.2684C115.488 45.2684 114.651 45.3379 113.872 45.4759C113.101 45.6119 112.338 45.7941 111.59 46.0216C111.104 45.1927 110.862 44.2013 110.862 43.0453C111.73 42.7694 112.688 42.556 113.737 42.4053C114.785 42.2543 115.794 42.1789 116.766 42.1789C119.322 42.1789 121.265 42.7507 122.594 43.8934C123.923 45.0371 124.588 46.864 124.588 49.3752V61.4686C123.693 61.6694 122.607 61.8765 121.329 62.0901C120.037 62.3045 118.729 62.4116 117.418 62.4104C116.166 62.4104 115.034 62.2978 114.025 62.0716C113.015 61.8451 112.158 61.4817 111.456 60.9787C110.752 60.4768 110.21 59.8362 109.826 59.0578C109.442 58.2791 109.251 57.3374 109.251 56.232C109.251 55.1524 109.474 54.2041 109.922 53.3874C110.361 52.5805 110.985 51.8844 111.743 51.3532C112.51 50.814 113.392 50.4115 114.389 50.1482C115.386 49.8843 116.434 49.7522 117.533 49.7522C118.351 49.7522 119.022 49.7715 119.546 49.8092C120.07 49.8466 120.511 49.8906 120.869 49.9409V49.225L120.869 49.2248ZM132.525 58.7931C133.009 58.9688 133.51 59.0951 134.021 59.17C134.532 59.2457 135.196 59.2832 136.015 59.2832C136.935 59.2832 137.778 59.1392 138.545 58.8503C139.312 58.562 139.97 58.1158 140.52 57.5127C141.069 56.9102 141.504 56.1509 141.823 55.2332C142.143 54.3171 142.303 53.2312 142.303 51.9747C142.303 49.9657 141.925 48.3708 141.172 47.1902C140.417 46.01 139.184 45.4197 137.472 45.4197C136.833 45.4197 136.219 45.5325 135.632 45.7588C135.043 45.9848 134.519 46.324 134.059 46.776C133.599 47.2279 133.228 47.7998 132.947 48.4903C132.665 49.1816 132.525 50.0034 132.525 50.958V58.7937V58.7933L132.525 58.7931ZM128.729 42.631C128.989 42.5807 129.251 42.5432 129.515 42.5182C129.789 42.4933 130.064 42.4809 130.34 42.4809C130.595 42.4809 130.863 42.4939 131.145 42.5182C131.425 42.5438 131.694 42.5817 131.95 42.6312C131.975 42.6823 132.007 42.8386 132.046 43.1025C132.084 43.3664 132.122 43.6488 132.161 43.9498C132.199 44.2514 132.237 44.5409 132.276 44.8164C132.314 45.0931 132.333 45.2689 132.333 45.3442C132.588 44.9427 132.895 44.5531 133.253 44.1764C133.611 43.7995 134.04 43.4605 134.538 43.1595C135.037 42.8578 135.599 42.6195 136.225 42.4434C136.851 42.2677 137.548 42.1791 138.315 42.1791C139.465 42.1791 140.532 42.3677 141.517 42.7446C142.501 43.1219 143.344 43.705 144.047 44.4963C144.75 45.2876 145.299 46.2924 145.696 47.5101C146.092 48.7292 146.29 50.1669 146.29 51.8242C146.29 55.1393 145.376 57.7332 143.548 59.6039C141.72 61.4752 139.132 62.4104 135.784 62.4104C135.221 62.4104 134.646 62.3727 134.058 62.2974C133.47 62.2218 132.959 62.1212 132.524 61.9962V70.8496C132.2 70.9014 131.874 70.9391 131.547 70.9626C131.202 70.9871 130.888 70.9999 130.607 70.9999C130.294 70.9986 129.98 70.9861 129.668 70.9626C129.353 70.9407 129.04 70.9029 128.729 70.8496V42.6312L128.729 42.631Z" fill="#FF4A00"/>
</g>
<defs>
<clipPath id="clip0">
<rect x="88" y="136" width="106" height="31" fill="white"/>
</clipPath>
<clipPath id="clip1">
<rect x="91" y="26" width="100" height="45" fill="white"/>
</clipPath>
</defs>
</svg>
