<?xml version="1.0" encoding="UTF-8" standalone="no"?>
<svg
   xmlns:dc="http://purl.org/dc/elements/1.1/"
   xmlns:cc="http://creativecommons.org/ns#"
   xmlns:rdf="http://www.w3.org/1999/02/22-rdf-syntax-ns#"
   xmlns:svg="http://www.w3.org/2000/svg"
   xmlns="http://www.w3.org/2000/svg"
   xmlns:sodipodi="http://sodipodi.sourceforge.net/DTD/sodipodi-0.dtd"
   xmlns:inkscape="http://www.inkscape.org/namespaces/inkscape"
   width="26.279585mm"
   height="6.362947mm"
   viewBox="0 0 26.279585 6.3629466"
   version="1.1"
   id="svg1012"
   inkscape:version="1.0.1 (3bc2e813f5, 2020-09-07)"
   sodipodi:docname="foros.svg">
  <defs
     id="defs1006">
    <filter
       style="color-interpolation-filters:sRGB;"
       inkscape:label="Greyscale"
       id="filter1523">
      <feColorMatrix
         values="0.21 0.72 0.072 0 0 0.21 0.72 0.072 0 0 0.21 0.72 0.072 0 0 0 0 0 1 0 "
         id="feColorMatrix1521" />
    </filter>
  </defs>
  <sodipodi:namedview
     id="base"
     pagecolor="#ffffff"
     bordercolor="#666666"
     borderopacity="1.0"
     inkscape:pageopacity="0.0"
     inkscape:pageshadow="2"
     inkscape:zoom="1.979899"
     inkscape:cx="210.77508"
     inkscape:cy="69.543479"
     inkscape:document-units="mm"
     inkscape:current-layer="layer1"
     inkscape:document-rotation="0"
     showgrid="false"
     fit-margin-top="0"
     fit-margin-left="0"
     fit-margin-right="0"
     fit-margin-bottom="0"
     inkscape:window-width="1346"
     inkscape:window-height="1198"
     inkscape:window-x="582"
     inkscape:window-y="248"
     inkscape:window-maximized="0" />
  <metadata
     id="metadata1009">
    <rdf:RDF>
      <cc:Work
         rdf:about="">
        <dc:format>image/svg+xml</dc:format>
        <dc:type
           rdf:resource="http://purl.org/dc/dcmitype/StillImage" />
        <dc:title></dc:title>
      </cc:Work>
    </rdf:RDF>
  </metadata>
  <g
     inkscape:label="Layer 1"
     inkscape:groupmode="layer"
     id="layer1"
     transform="translate(-7.3340113,-79.899922)">
    <path
       style="fill:#000000;stroke-width:0.0846667"
       id="path1028"
       d="" />
    <g
       style="fill:none;filter:url(#filter1523)"
       id="g1519"
       transform="matrix(0.26458333,0,0,0.26458333,7.3340113,79.907001)">
      <path
         fill-rule="evenodd"
         clip-rule="evenodd"
         d="m 3.084,3.26 v 6.723 h 9.24 c 0,1.066 -0.888,2.727 -1.763,2.79 H 3.084 v 8.791 C 3.008,22.53 1.18,23.531 0,23.505 V 0.482 h 13.962 c 0,1.066 -0.876,2.727 -1.751,2.778 z m 49.44,3.932 A 3.64,3.64 0 0 0 51.369,4.059 6.273,6.273 0 0 0 47.637,3.197 h -4.036 v 8.22 h 3.807 a 8.889,8.889 0 0 0 3.034,-0.406 2.678,2.678 0 0 0 1.574,-1.269 c 0.37,-0.797 0.544,-1.671 0.508,-2.55 z m 0.355,15.35 -5.267,-8.424 H 43.6 v 7.446 c -0.077,0.965 -1.917,1.967 -3.085,1.941 V 0.482 h 7.16 c 2.868,0 4.911,0.533 6.155,1.586 a 6.014,6.014 0 0 1 1.866,4.896 7.71,7.71 0 0 1 -1.117,4.452 5.738,5.738 0 0 1 -3.694,2.208 l 1.27,1.94 4.518,7.142 v 0.089 l 0.127,0.177 c -0.964,0.647 -3.02,0.787 -3.592,0 l -0.279,-0.456 -0.05,0.025 z M 99.31,17.213 A 6.148,6.148 0 0 1 97.19,22.211 9.435,9.435 0 0 1 90.985,24 11,11 0 0 1 85.793,22.896 8.388,8.388 0 0 1 82.392,19.484 c 2.018,-1.42 3.376,-0.393 3.54,-0.216 l 0.306,0.292 a 6.526,6.526 0 0 0 4.683,1.7 6.349,6.349 0 0 0 3.808,-1.015 3.248,3.248 0 0 0 1.41,-2.803 3.043,3.043 0 0 0 -0.445,-1.713 4.022,4.022 0 0 0 -1.18,-1.18 7.1,7.1 0 0 0 -1.689,-0.76 29.05,29.05 0 0 0 -1.98,-0.559 68.719,68.719 0 0 1 -3.16,-0.85 10.42,10.42 0 0 1 -2.54,-1.141 A 5.163,5.163 0 0 1 83.458,9.45 5.641,5.641 0 0 1 82.836,6.634 6.25,6.25 0 0 1 84.803,1.789 8.571,8.571 0 0 1 90.755,0 a 9.373,9.373 0 0 1 4.989,1.154 8.667,8.667 0 0 1 2.944,2.969 c -2.284,1.661 -3.3,0.494 -3.63,0.215 L 94.944,4.224 a 6.623,6.623 0 0 0 -0.889,-0.685 6.197,6.197 0 0 0 -3.3,-0.812 5.512,5.512 0 0 0 -3.503,0.99 3.235,3.235 0 0 0 -1.27,2.65 2.79,2.79 0 0 0 0.369,1.485 c 0.269,0.436 0.65,0.79 1.104,1.027 a 7.492,7.492 0 0 0 1.739,0.71 l 2.374,0.559 c 1.04,0.28 2.043,0.57 2.982,0.875 a 9.36,9.36 0 0 1 2.539,1.205 5.329,5.329 0 0 1 1.663,1.928 c 0.437,0.957 0.629,2.008 0.558,3.057 z"
         fill="#014152"
         id="path1502" />
      <path
         fill-rule="evenodd"
         clip-rule="evenodd"
         d="m 79.306,12.05 c 0,6.508 -4.201,11.633 -9.647,11.912 h -0.482 c -0.431,0 -0.8,0 -0.8,-0.393 v -9.514 l -3.02,2.778 c -0.445,-0.47 -0.724,-1.586 -0.356,-1.979 l 3.376,-3.082 V 9.64 L 65.7,12.089 c -0.444,-0.457 -0.723,-1.573 -0.355,-1.966 l 3.198,-2.855 0.153,-0.14 a 0.762,0.762 0 0 1 0.533,-0.19 0.762,0.762 0 0 1 0.533,0.19 l 0.152,0.14 3.11,2.88 c 0.368,0.393 0.089,1.51 -0.355,1.966 L 69.99,9.641 v 2.143 l 3.377,3.083 c 0.368,0.393 0.089,1.51 -0.368,1.979 L 69.99,14.068 v 7.09 c 3.643,-0.507 6.487,-4.389 6.487,-9.107 0,-5.074 -3.275,-9.159 -7.299,-9.159 -4.024,0 -7.286,4.11 -7.286,9.159 -0.028,2.219 0.648,4.39 1.93,6.203 l 0.076,0.114 A 4.73,4.73 0 0 1 63.39,21.894 12.57,12.57 0 0 1 59.062,12.051 C 59.06,5.366 63.503,0.127 69.215,0.127 c 5.712,0 10.091,5.239 10.091,11.923 z"
         fill="#d9b310"
         id="path1504" />
      <path
         fill-rule="evenodd"
         clip-rule="evenodd"
         d="m 18.786,12.05 c 0,5.075 3.274,9.16 7.298,9.16 4.024,0 7.299,-4.11 7.299,-9.16 0,-5.048 -3.275,-9.158 -7.299,-9.158 -4.023,0 -7.298,4.11 -7.298,9.159 z m 17.414,0 c 0,6.698 -4.442,11.937 -10.154,11.937 -5.712,0 -10.154,-5.239 -10.154,-11.936 0,-6.698 4.442,-11.924 10.154,-11.924 5.712,0 10.154,5.239 10.154,11.923 z"
         fill="#014152"
         id="path1506" />
    </g>
  </g>
</svg>
