<?xml version="1.0" encoding="UTF-8" standalone="no"?>
<svg
   xmlns:dc="http://purl.org/dc/elements/1.1/"
   xmlns:cc="http://creativecommons.org/ns#"
   xmlns:rdf="http://www.w3.org/1999/02/22-rdf-syntax-ns#"
   xmlns:svg="http://www.w3.org/2000/svg"
   xmlns="http://www.w3.org/2000/svg"
   xmlns:sodipodi="http://sodipodi.sourceforge.net/DTD/sodipodi-0.dtd"
   xmlns:inkscape="http://www.inkscape.org/namespaces/inkscape"
   width="98.889435mm"
   height="53.092232mm"
   viewBox="0 0 98.889435 53.092232"
   version="1.1"
   id="svg1012"
   inkscape:version="1.0.1 (3bc2e813f5, 2020-09-07)"
   sodipodi:docname="megrame-international.svg">
  <defs
     id="defs1006" />
  <sodipodi:namedview
     id="base"
     pagecolor="#ffffff"
     bordercolor="#666666"
     borderopacity="1.0"
     inkscape:pageopacity="0.0"
     inkscape:pageshadow="2"
     inkscape:zoom="1.4"
     inkscape:cx="203.88613"
     inkscape:cy="224.29283"
     inkscape:document-units="mm"
     inkscape:current-layer="g1238"
     inkscape:document-rotation="0"
     showgrid="false"
     fit-margin-top="0"
     fit-margin-left="0"
     fit-margin-right="0"
     fit-margin-bottom="0"
     inkscape:window-width="1346"
     inkscape:window-height="1198"
     inkscape:window-x="582"
     inkscape:window-y="248"
     inkscape:window-maximized="0" />
  <metadata
     id="metadata1009">
    <rdf:RDF>
      <cc:Work
         rdf:about="">
        <dc:format>image/svg+xml</dc:format>
        <dc:type
           rdf:resource="http://purl.org/dc/dcmitype/StillImage" />
        <dc:title></dc:title>
      </cc:Work>
    </rdf:RDF>
  </metadata>
  <g
     inkscape:label="Layer 1"
     inkscape:groupmode="layer"
     id="layer1"
     transform="translate(-53.142557,-69.96859)">
    <path
       style="fill:#000000;stroke-width:0.0846667"
       id="path1028"
       d="" />
    <g
       id="g1238"
       transform="matrix(0.39969034,0,0,0.39969034,49.756397,36.953793)">
      <path
         style="fill:none;stroke-width:0.264583"
         d="M 12.680207,166.16353 V 84.539574 h 87.709373 87.70938 v 81.623956 81.62395 H 100.38958 12.680207 Z m 23.691215,18.8999 c 0.0961,-0.1555 -0.07522,-0.3477 -0.38126,-0.42774 -0.475524,-0.12435 -0.555788,-0.3457 -0.555788,-1.53276 0,-2.28727 0.291204,-3.84253 0.71947,-3.84253 0.210628,0 0.335226,-0.1432 0.276885,-0.31822 -0.158825,-0.47648 -3.377605,-0.51777 -3.377605,-0.0433 0,0.19885 0.178593,0.36155 0.396875,0.36155 0.326319,0 0.396875,0.47037 0.396875,2.64584 0,2.17546 -0.07056,2.64583 -0.396875,2.64583 -0.218282,0 -0.396875,0.17859 -0.396875,0.39687 0,0.30825 0.351042,0.39688 1.571885,0.39688 0.864537,0 1.650422,-0.12708 1.746413,-0.28239 z m 7.662217,0.0173 c 0.0901,-0.14579 -0.140994,-0.38097 -0.513554,-0.52262 -0.638056,-0.24257 -0.677378,-0.36542 -0.677378,-2.11616 0,-1.02224 0.04756,-1.85863 0.105688,-1.85863 0.05813,0 0.903536,1.07156 1.878687,2.38125 0.975151,1.30969 1.939621,2.38125 2.143271,2.38125 0.277563,0 0.370847,-0.41403 0.37257,-1.65365 0.0037,-2.62822 0.286903,-4.43177 0.696013,-4.43177 0.198011,0 0.360021,-0.15569 0.360021,-0.34599 0,-0.2388 -0.409845,-0.34599 -1.322917,-0.34599 -0.913071,0 -1.322916,0.10719 -1.322916,0.34599 0,0.1903 0.165856,0.34599 0.368567,0.34599 0.503084,0 0.689766,0.59131 0.689766,2.18481 v 1.34777 l -1.468149,-1.96472 c -1.371764,-1.83574 -1.548707,-1.97678 -2.69517,-2.14829 -0.67486,-0.10096 -1.32388,-0.1237 -1.442268,-0.0505 -0.378412,0.23387 -0.231521,0.56499 0.31392,0.70763 0.482209,0.1261 0.529167,0.36089 0.529167,2.64583 0,2.32497 -0.04045,2.51803 -0.555789,2.65279 -0.306038,0.08 -0.477361,0.27224 -0.381259,0.42774 0.221035,0.35764 2.702308,0.37234 2.92173,0.0173 z m 13.625735,-0.13179 c 0,-0.21828 -0.178594,-0.39687 -0.396875,-0.39687 -0.324927,0 -0.396875,-0.45567 -0.396875,-2.51354 0,-2.51129 5.29e-4,-2.51354 0.668006,-2.51354 0.469091,0 0.742895,0.19697 0.919494,0.66146 0.403291,1.06073 0.833654,0.79247 0.742817,-0.46303 l -0.08136,-1.12447 h -3.175 -3.175 l -0.08136,1.12447 c -0.09071,1.25374 0.235373,1.47108 0.694676,0.46303 0.205481,-0.45099 0.513662,-0.66146 0.96851,-0.66146 0.666303,0 0.667131,0.003 0.667131,2.51354 0,2.05787 -0.07195,2.51354 -0.396875,2.51354 -0.218281,0 -0.396875,0.17859 -0.396875,0.39687 0,0.31208 0.367477,0.39688 1.719792,0.39688 1.352315,0 1.719792,-0.0848 1.719792,-0.39688 z m 11.858154,-0.76247 c 0.09494,-1.15812 -0.349687,-1.89425 -0.644906,-1.06771 -0.340818,0.95421 -0.96306,1.43331 -1.861548,1.43331 -0.87254,0 -0.885034,-0.0168 -0.885034,-1.19063 0,-1.30736 0.536028,-1.63739 1.0623,-0.65404 0.430718,0.8048 0.789784,0.37332 0.789784,-0.94907 0,-0.82796 -0.10886,-1.17501 -0.368568,-1.17501 -0.202713,0 -0.437099,0.17859 -0.520864,0.39688 -0.08376,0.21828 -0.334623,0.39687 -0.557474,0.39687 -0.296318,0 -0.405178,-0.28434 -0.405178,-1.05833 0,-0.99772 0.04511,-1.05834 0.787652,-1.05834 0.548195,0 0.919408,0.20109 1.221054,0.66146 0.619035,0.94477 0.946574,0.81755 0.851538,-0.33073 l -0.08212,-0.99218 -2.632794,0.027 c -1.530837,0.0157 -2.670469,0.14004 -2.722801,0.29704 -0.0495,0.14851 0.152993,0.33355 0.449985,0.41122 0.493458,0.12904 0.539985,0.34772 0.539985,2.53792 0,2.12592 -0.05979,2.42871 -0.529166,2.67991 -1.149477,0.61518 -0.500682,0.81037 2.447396,0.73627 l 2.976562,-0.0748 z m 7.985596,0.88646 c 0,-0.15009 -0.178594,-0.34142 -0.396875,-0.42518 -0.266034,-0.10209 -0.394759,-0.51368 -0.390457,-1.24847 l 0.0064,-1.09617 1.382641,1.5287 c 1.221208,1.3502 1.498489,1.52783 2.374831,1.52135 0.545703,-0.004 0.992188,-0.0929 0.992188,-0.19746 0,-0.10456 -0.605552,-0.80328 -1.345674,-1.55271 l -1.345673,-1.3626 0.684215,-0.68422 c 1.096274,-1.09627 0.788376,-2.31886 -0.702816,-2.7907 -1.189262,-0.3763 -4.491169,-0.259 -4.632359,0.16456 -0.06057,0.18171 0.07839,0.33037 0.308801,0.33037 0.605239,0 0.626337,5.15546 0.02204,5.38735 -0.937995,0.35994 -0.297209,0.69807 1.322917,0.69807 1.005028,0 1.719792,-0.11341 1.719792,-0.27289 z m -0.79375,-4.6219 c 0,-0.97014 0.08819,-1.19063 0.47625,-1.19063 0.636063,0 1.11125,0.50913 1.11125,1.19063 0,0.6815 -0.475187,1.19062 -1.11125,1.19062 -0.388057,0 -0.47625,-0.22048 -0.47625,-1.19062 z m 11.641666,4.60544 c 0,-0.15915 -0.238125,-0.35163 -0.529166,-0.42774 -0.291042,-0.0761 -0.529167,-0.34515 -0.529167,-0.59787 0,-0.25273 -0.0744,-1.22111 -0.165335,-2.15196 l -0.165339,-1.69245 1.900325,2.51354 c 2.538923,3.35821 2.774358,3.33146 2.871026,-0.32619 0.06669,-2.5233 0.133847,-2.87119 0.602723,-3.12213 0.807728,-0.43228 0.392734,-0.72173 -0.981644,-0.68467 -1.281861,0.0346 -1.848175,0.51865 -0.897575,0.76724 0.462405,0.12092 0.539986,0.35384 0.539986,1.62118 0,0.81399 -0.04826,1.47998 -0.107247,1.47998 -0.05899,0 -0.71302,-0.81714 -1.453409,-1.81587 -1.252077,-1.68896 -1.431419,-1.82756 -2.565969,-1.98307 -1.678241,-0.23003 -2.329121,0.21991 -1.098896,0.75964 0.375018,0.16453 0.588319,0.48147 0.576413,0.85649 -0.0104,0.32742 -0.04016,1.42875 -0.06615,2.4474 -0.03696,1.44891 -0.133641,1.85208 -0.444121,1.85208 -0.218282,0 -0.396875,0.17859 -0.396875,0.39687 0,0.30468 0.338079,0.39688 1.455208,0.39688 0.8768,0 1.455208,-0.11501 1.455208,-0.28935 z m 10.583334,0.0777 c 0,-0.11641 -0.134157,-0.34582 -0.298128,-0.50979 -0.168409,-0.16841 -0.223776,-0.59437 -0.127251,-0.97896 0.147989,-0.58964 0.312838,-0.68083 1.230717,-0.68083 0.894218,0 1.100168,0.10606 1.317878,0.67868 0.33249,0.87451 0.34775,0.82364 -0.29776,0.99244 -1.083041,0.28323 -0.18283,0.71013 1.49745,0.71013 1.6852,0 2.13932,-0.27752 1.24116,-0.7585 -0.25467,-0.13637 -0.98365,-1.56931 -1.61997,-3.18431 -0.81754,-2.07495 -1.28325,-2.93452 -1.5875,-2.93009 -0.294202,0.004 -0.796204,0.87974 -1.585154,2.76438 -0.635029,1.51696 -1.37917,2.96134 -1.653646,3.20974 -0.765387,0.69266 -0.606787,0.89878 0.691579,0.89878 0.654843,0 1.190625,-0.0952 1.190625,-0.21167 z m 0.27396,-3.16177 c 0.0052,-0.10914 0.157863,-0.46575 0.339352,-0.79247 l 0.329975,-0.59403 0.299129,0.79247 c 0.2808,0.74394 0.26002,0.79247 -0.339356,0.79247 -0.351163,0 -0.634257,-0.0893 -0.6291,-0.19844 z m 12.955206,2.97656 c 0,-0.21828 -0.17859,-0.39687 -0.39687,-0.39687 -0.32493,0 -0.39688,-0.45567 -0.39688,-2.51354 0,-2.51042 7.9e-4,-2.51354 0.66713,-2.51354 0.45485,0 0.76303,0.21047 0.96851,0.66146 0.4593,1.00805 0.78539,0.79071 0.69468,-0.46303 l -0.0814,-1.12447 h -3.175 -3.175 l -0.0814,1.12447 c -0.0907,1.25374 0.23537,1.47108 0.69468,0.46303 0.20548,-0.45099 0.51366,-0.66146 0.96851,-0.66146 0.6663,0 0.66713,0.003 0.66713,2.51354 0,2.05787 -0.0719,2.51354 -0.39688,2.51354 -0.21828,0 -0.39687,0.17859 -0.39687,0.39687 0,0.31208 0.36747,0.39688 1.71979,0.39688 1.35231,0 1.71979,-0.0848 1.71979,-0.39688 z m 9.26042,0 c 0,-0.21828 -0.1786,-0.39687 -0.39688,-0.39687 -0.326,0 -0.39687,-0.46694 -0.39687,-2.61497 0,-2.43421 0.0384,-2.62503 0.55579,-2.76032 1.04956,-0.27447 0.27328,-0.60032 -1.37877,-0.57875 -1.62295,0.0212 -2.3879,0.45289 -1.30451,0.73621 0.49346,0.12904 0.53999,0.34772 0.53999,2.53792 0,2.13695 -0.0582,2.42783 -0.53658,2.68388 -0.87682,0.46925 -0.33058,0.78978 1.34594,0.78978 1.22084,0 1.57189,-0.0886 1.57189,-0.39688 z m 10.2926,0.0135 c 1.45385,-0.75182 2.13634,-2.68714 1.54109,-4.36999 -0.91963,-2.59988 -5.07018,-2.89082 -6.55274,-0.45934 -0.94817,1.55505 -0.46548,3.83702 1.0044,4.74839 0.89795,0.55676 3.00482,0.59931 4.00725,0.0809 z m -2.42484,-0.3289 c -0.70763,-0.18454 -1.25318,-1.48654 -1.25318,-2.9908 0,-1.07852 0.12986,-1.47795 0.64943,-1.99752 0.78949,-0.78948 1.19014,-0.81126 2.0779,-0.11295 1.34705,1.05959 1.17188,4.49294 -0.25695,5.03618 -0.35901,0.1365 -0.67476,0.23436 -0.70167,0.21748 -0.0269,-0.0169 -0.2589,-0.0854 -0.51553,-0.15238 z m 11.7114,0.34623 c 0,-0.2013 -0.23812,-0.42828 -0.52916,-0.50439 -0.46815,-0.12243 -0.52917,-0.3609 -0.52917,-2.06815 0,-1.07478 0.0992,-1.81841 0.22397,-1.67842 0.12318,0.13825 0.96197,1.23362 1.86397,2.43417 0.90201,1.20054 1.81325,2.18281 2.02499,2.18281 0.31105,0 0.38499,-0.50399 0.38499,-2.62419 0,-2.86928 0.12173,-3.46123 0.71181,-3.46123 0.21484,0 0.34398,-0.13993 0.28697,-0.31095 -0.15449,-0.46347 -2.58628,-0.51265 -2.58628,-0.0523 0,0.1998 0.17859,0.36326 0.39687,0.36326 0.30975,0 0.39688,0.35716 0.39688,1.62696 v 1.62696 l -1.36562,-1.8254 c -0.75109,-1.00396 -1.37617,-1.83903 -1.38906,-1.85569 -0.0129,-0.0167 -0.64853,-0.11007 -1.41251,-0.20755 -1.10589,-0.14112 -1.38906,-0.10078 -1.38906,0.19788 0,0.20632 0.23812,0.4374 0.52916,0.51351 0.48004,0.12553 0.52917,0.36089 0.52917,2.53509 0,2.13695 -0.0582,2.42783 -0.53658,2.68388 -0.831,0.44474 -0.35858,0.78978 1.08136,0.78978 0.93667,0 1.3073,-0.10377 1.3073,-0.36602 z m 10.70558,0.1177 c 0.0844,-0.13658 -0.052,-0.36328 -0.30301,-0.50378 -0.38644,-0.21626 -0.40846,-0.36084 -0.14352,-0.9423 0.25928,-0.56907 0.49047,-0.68685 1.34826,-0.68685 0.90175,0 1.05824,0.0913 1.21297,0.70776 0.12654,0.5042 0.0587,0.77433 -0.2359,0.93919 -0.83355,0.46647 -0.37319,0.7343 1.26215,0.7343 1.93003,0 2.28868,-0.19832 1.4723,-0.81413 -0.32581,-0.24575 -1.06211,-1.64137 -1.67996,-3.18427 -0.65484,-1.63527 -1.26529,-2.77861 -1.50858,-2.82547 -0.2928,-0.0564 -0.77328,0.75545 -1.69498,2.86393 -0.70748,1.61845 -1.50272,3.05844 -1.76719,3.19998 -0.26447,0.14154 -0.41096,0.37043 -0.32554,0.50865 0.20103,0.32527 2.16229,0.32775 2.363,0.003 z m 0.46552,-3.61108 c 0.29056,-0.63771 0.33529,-0.65231 0.65578,-0.21401 0.50057,0.68457 0.42635,0.89841 -0.31183,0.89841 -0.60934,0 -0.6337,-0.0485 -0.34395,-0.6844 z m 14.58158,2.71338 c 0.29161,-1.23558 -0.17788,-1.994 -0.57986,-0.93671 -0.36441,0.95846 -0.95328,1.33544 -1.93835,1.24089 l -0.87717,-0.0842 -0.0764,-2.4695 c -0.0715,-2.31087 -0.041,-2.47873 0.47384,-2.61337 1.07176,-0.28027 0.3378,-0.71356 -1.28137,-0.75645 -1.6257,-0.0431 -2.46366,0.31599 -1.39169,0.59632 0.51737,0.13529 0.55579,0.32611 0.55579,2.76032 0,2.14803 -0.0709,2.61497 -0.39687,2.61497 -0.21828,0 -0.39688,0.18262 -0.39688,0.40583 0,0.34413 0.43094,0.39441 2.83484,0.33072 l 2.83485,-0.0751 z M 85.788651,171.42936 c 0.991778,-0.20407 2.2717,-0.37104 2.844271,-0.37104 h 1.041035 v -2.42656 c 0,-2.47907 0.332086,-3.39427 1.231633,-3.39427 0.203202,0 0.355867,-0.28376 0.355867,-0.66146 v -0.66146 H 87.55729 83.853124 v 0.66146 c 0,0.52398 0.133551,0.66146 0.642559,0.66146 1.091721,0 1.549339,0.71146 1.407446,2.18818 -0.184846,1.92373 -1.01658,2.65258 -3.167515,2.77569 -2.245749,0.12855 -3.263771,-0.4366 -4.256977,-2.36321 -1.320112,-2.56074 -1.237948,-7.1809 0.164335,-9.24074 0.909937,-1.33663 1.864099,-1.90116 3.433213,-2.03128 2.330836,-0.19329 3.908221,0.82628 4.961231,3.20678 0.44977,1.01678 0.670928,1.24698 1.134583,1.18096 0.352081,-0.0501 0.567346,-0.26196 0.553869,-0.54503 -0.01212,-0.25466 -0.0419,-1.54249 -0.06615,-2.86184 l -0.0441,-2.39883 -0.727605,0.0837 c -0.520967,0.06 -0.751615,0.25279 -0.812151,0.67904 -0.10223,0.71981 -0.171297,0.72709 -1.065234,0.11234 -1.879142,-1.29229 -4.656323,-1.58333 -7.110574,-0.74518 -1.845331,0.63021 -3.826557,2.44706 -4.743101,4.34961 -0.605681,1.25725 -0.727117,1.86157 -0.72853,3.62541 -0.0021,2.66722 0.710507,4.59585 2.287911,6.19178 2.529059,2.55877 4.95669,3.03706 10.072311,1.98447 z m -46.914694,-0.50333 c 0,-0.55498 -0.124732,-0.66146 -0.774851,-0.66146 -1.529028,0 -1.608049,-0.30004 -1.590231,-6.03817 l 0.01617,-5.20662 1.643095,3.43958 c 0.903702,1.89177 2.23588,4.71692 2.960394,6.27811 1.889631,4.07179 1.835523,4.09959 4.881327,-2.5078 3.842687,-8.33609 3.422066,-8.09084 3.435737,-2.00327 0.01289,5.73736 -0.06656,6.03817 -1.594706,6.03817 -0.650118,0 -0.774851,0.10648 -0.774851,0.66146 v 0.66146 h 4.233334 4.233333 v -0.66146 c 0,-0.55498 -0.124733,-0.66146 -0.774851,-0.66146 -1.554287,0 -1.606399,-0.22316 -1.606399,-6.87917 0,-6.656 0.05211,-6.87916 1.606399,-6.87916 0.684557,0 0.774851,-0.0925 0.774851,-0.79375 v -0.79375 h -3.006212 -3.006211 l -2.579243,5.4901 c -1.418582,3.01956 -2.655396,5.57189 -2.748474,5.67185 -0.09308,0.1 -1.35986,-2.37014 -2.815068,-5.4891 l -2.645834,-5.67085 -3.108854,-0.001 -3.108854,-9.4e-4 v 0.79375 c 0,0.70125 0.09029,0.79375 0.774851,0.79375 1.554288,0 1.606399,0.22316 1.606399,6.87916 0,6.65601 -0.05211,6.87917 -1.606399,6.87917 -0.650119,0 -0.774851,0.10648 -0.774851,0.66146 v 0.66146 h 3.175 3.175 z m 32.54375,-2.11667 c 0,-2.74632 -0.0072,-2.77812 -0.627073,-2.77812 -0.51771,0 -0.68539,0.20829 -0.961459,1.19431 -0.211624,0.75584 -0.664747,1.48437 -1.234218,1.98438 -0.843634,0.74072 -1.036402,0.79006 -3.086666,0.79006 -1.348092,0 -2.308608,-0.12178 -2.504334,-0.3175 -0.208209,-0.20821 -0.3175,-1.31285 -0.3175,-3.20909 v -2.89159 l 1.389062,0.17832 c 1.42185,0.18252 2.050521,0.65097 2.050521,1.52793 0,0.33411 0.199687,0.47859 0.661459,0.47859 h 0.661458 v -2.77812 c 0,-2.74144 -0.0082,-2.77813 -0.623184,-2.77813 -0.476329,0 -0.681037,0.20264 -0.868693,0.8599 -0.236175,0.82719 -0.303035,0.86291 -1.758066,0.93924 l -1.512557,0.0794 v -2.65904 -2.65904 h 2.472534 c 2.750066,0 2.98337,0.12031 3.738634,1.92791 0.325694,0.7795 0.553887,0.98251 1.104387,0.98251 0.673245,0 0.688871,-0.0365 0.525615,-1.22756 -0.09254,-0.67515 -0.168253,-1.74671 -0.168253,-2.38125 v -1.15369 H 63.480207 56.60104 v 0.77698 c 0,0.68196 0.104431,0.78713 0.853864,0.8599 1.39202,0.13516 1.519586,0.70851 1.519586,6.82978 0,6.12128 -0.127566,6.69462 -1.519586,6.82979 -0.705795,0.0685 -0.853864,0.19471 -0.853864,0.7276 v 0.6447 h 7.408334 7.408333 z m 28.839583,2.11667 c 0,-0.55573 -0.12447,-0.66146 -0.778748,-0.66146 -1.240396,0 -1.602502,-0.79052 -1.602502,-3.49846 v -2.32237 h 1.149618 c 1.408422,0 1.560742,0.15396 4.014252,4.05758 l 1.85657,2.95388 2.4429,0.0761 2.44291,0.0761 v -0.67138 c 0,-0.47066 -0.14269,-0.67139 -0.47726,-0.67139 -0.61086,0 -1.7936,-1.2607 -3.22691,-3.43958 -0.62221,-0.94589 -1.4808,-2.09165 -1.90795,-2.54614 l -0.77665,-0.82635 0.64692,-0.16236 c 0.3558,-0.0893 1.0789,-0.64053 1.60688,-1.22494 0.8515,-0.94251 0.95997,-1.22248 0.95997,-2.47789 0,-1.76302 -0.72807,-2.94268 -2.39149,-3.87482 -1.13871,-0.63811 -1.37889,-0.6646 -6.802781,-0.75034 l -5.622395,-0.0889 v 0.81649 c 0,0.75516 0.06886,0.81649 0.916733,0.81649 0.635556,0 1.000739,0.15697 1.190625,0.51177 0.165516,0.30927 0.273892,2.86677 0.273892,6.46339 0,6.55083 -0.05502,6.78317 -1.6064,6.78317 -0.650118,0 -0.77485,0.10648 -0.77485,0.66146 v 0.66146 h 4.233333 4.233333 z m -2.38125,-11.24479 v -3.175 h 1.199124 c 1.457426,0 2.891196,0.56131 3.277496,1.28312 0.15723,0.29379 0.28588,1.12125 0.28588,1.8388 0,1.76847 -0.65108,2.56772 -2.39663,2.94207 -2.508888,0.53807 -2.36587,0.71271 -2.36587,-2.88899 z m 18.78542,11.26155 c 0,-0.53395 -0.14771,-0.65893 -0.8599,-0.7276 -1.00516,-0.0969 -1.21316,-0.72833 -0.72609,-2.20417 l 0.30411,-0.92145 h 2.57305 2.57304 l 0.47169,1.31171 c 0.54642,1.51956 0.427,1.86329 -0.64735,1.86329 -0.65362,0 -0.77814,0.10584 -0.77814,0.66146 v 0.66146 h 3.96875 c 3.96151,0 3.96875,-0.001 3.96875,-0.60675 0,-0.45614 -0.21335,-0.66957 -0.85957,-0.85989 -1.03947,-0.30614 -1.06509,-0.35832 -4.44776,-9.05998 -3.32604,-8.55597 -2.92621,-8.59608 -6.48929,0.65097 -1.46767,3.80896 -2.87206,7.23606 -3.12086,7.61578 -0.24912,0.38021 -0.80359,0.76065 -1.23411,0.84675 -0.60261,0.12052 -0.78174,0.30034 -0.78174,0.78473 0,0.62503 0.0162,0.62839 3.04271,0.62839 h 3.04271 z m 0.20927,-7.69778 c 0.51627,-1.38691 1.01934,-2.42871 1.11792,-2.31511 0.21395,0.24655 1.85127,4.35334 1.84923,4.63832 -7.9e-4,0.10914 -0.87992,0.19843 -1.95363,0.19843 h -1.95221 z m 17.51781,7.68102 c 0,-0.55743 -0.12388,-0.66146 -0.78765,-0.66146 -1.46274,0 -1.61471,-0.6165 -1.53343,-6.2205 l 0.0721,-4.97223 2.91886,6.19168 c 2.29329,4.86468 3.03533,6.20858 3.46232,6.27053 0.47034,0.0683 0.92756,-0.75056 3.39804,-6.08541 1.57002,-3.39035 2.89924,-6.21389 2.95382,-6.27452 0.0546,-0.0606 0.0992,2.22281 0.0992,5.07433 0,5.71124 -0.0814,6.01612 -1.6064,6.01612 -0.65011,0 -0.77485,0.10648 -0.77485,0.66146 v 0.66146 h 4.23334 4.23333 v -0.66146 c 0,-0.55056 -0.12621,-0.66146 -0.75274,-0.66146 -0.41401,0 -0.95611,-0.22472 -1.20467,-0.49937 -0.40396,-0.44637 -0.44341,-1.14941 -0.37173,-6.62459 0.0871,-6.6546 0.0792,-6.62184 1.60154,-6.63032 0.63116,-0.004 0.7276,-0.10926 0.7276,-0.7978 v -0.79375 h -3.00129 -3.00129 l -2.60264,5.55625 c -1.43146,3.05593 -2.68363,5.55625 -2.78259,5.55625 -0.099,0 -1.35277,-2.50032 -2.7862,-5.55625 l -2.60626,-5.55625 h -3.11924 -3.11924 v 0.79375 c 0,0.72159 0.0794,0.79375 0.87313,0.79375 0.48021,0 1.016,0.14287 1.19062,0.3175 0.22872,0.22872 0.3175,2.03603 0.3175,6.46339 0,6.7637 -0.0492,6.97744 -1.6064,6.97744 -0.65012,0 -0.77485,0.10648 -0.77485,0.66146 v 0.66146 h 3.175 3.175 z m 32.54375,-2.11667 c 0,-2.75001 -0.006,-2.77812 -0.63005,-2.77812 -0.52343,0 -0.67946,0.19624 -0.92207,1.15973 -0.19414,0.77099 -0.60685,1.43615 -1.23124,1.98437 -0.88936,0.78087 -1.05532,0.82465 -3.12606,0.82465 -1.34809,0 -2.3086,-0.12178 -2.50433,-0.3175 -0.20604,-0.20604 -0.3175,-1.27882 -0.3175,-3.05591 v -2.73842 l 1.52135,0.0794 c 1.46313,0.0763 1.53105,0.11226 1.77451,0.93925 0.19035,0.64656 0.40368,0.85989 0.8599,0.85989 0.59407,0 0.60674,-0.058 0.60674,-2.77812 0,-2.72014 -0.0127,-2.77813 -0.60674,-2.77813 -0.45622,0 -0.66955,0.21334 -0.8599,0.8599 -0.24346,0.82698 -0.31138,0.86293 -1.77451,0.93924 l -1.52135,0.0794 v -2.65904 -2.65904 h 2.46742 c 2.22194,0 2.52131,0.0592 3.00903,0.59531 0.29789,0.32743 0.65525,0.9525 0.79413,1.38907 0.18995,0.59705 0.43766,0.81545 0.99965,0.88132 l 0.74713,0.0876 -0.17222,-1.64774 c -0.0947,-0.90625 -0.17222,-1.98746 -0.17222,-2.40267 v -0.75494 h -6.87917 -6.87917 v 0.79375 c 0,0.70215 0.0899,0.79375 0.77875,0.79375 1.48095,0 1.6025,0.52179 1.6025,6.87916 0,6.35738 -0.12155,6.87917 -1.6025,6.87917 -0.65427,0 -0.77875,0.10573 -0.77875,0.66146 v 0.66146 h 7.40834 7.40833 z m -109.455376,-29.11375 5.241497,-7.79884 -4.150207,-6.14995 c -2.282616,-3.38248 -4.299828,-6.31026 -4.482692,-6.50618 -0.272008,-0.29143 -2.046605,2.20196 -9.756394,13.70816 -5.183151,7.73541 -9.423911,14.17626 -9.423911,14.313 0,0.15019 3.430289,0.24545 8.665104,0.24063 l 8.665104,-0.008 5.241499,-7.79885 z m 19.110545,0.0108 5.258398,-7.80401 -4.354179,-6.4737 c -2.3948,-3.56054 -4.438216,-6.44835 -4.54093,-6.41734 -0.20016,0.0604 -18.712487,27.61423 -18.925196,28.16834 -0.09998,0.26045 1.724763,0.33072 8.588274,0.33072 h 8.715235 z m 15.467748,7.645 c 0,-0.25258 -9.344369,-14.12928 -9.509038,-14.12123 -0.128026,0.006 -9.257585,13.54344 -9.496864,14.08182 -0.04851,0.10914 4.207976,0.19843 9.458854,0.19843 5.250876,0 9.547048,-0.0716 9.547048,-0.15902 z"
         id="path1264" />
      <path
         style="fill:#dedede;stroke-width:0.472258"
         d="m 15.286486,205.58028 c 0.459492,-0.11977 1.09704,-0.11191 1.416776,0.0179 0.319733,0.12941 -0.05621,0.22733 -0.835442,0.21771 -0.779226,-0.009 -1.040826,-0.11549 -0.581334,-0.2352 z m 13.922636,0.0143 c 0.32468,-0.13101 0.85597,-0.13101 1.180648,0 0.324677,0.13101 0.05903,0.2382 -0.590323,0.2382 -0.649355,0 -0.915002,-0.1071 -0.590325,-0.2382 z m 23.858042,-0.0143 c 0.459493,-0.11977 1.097042,-0.11191 1.416776,0.0179 0.319733,0.12941 -0.05621,0.22733 -0.83544,0.21771 -0.779227,-0.009 -1.04083,-0.11549 -0.581336,-0.2352 z m 16.992319,-0.0107 c 0.714291,-0.10816 1.883131,-0.10816 2.597421,0 0.714291,0.10817 0.129871,0.19673 -1.29871,0.19673 -1.428583,0 -2.013001,-0.0885 -1.298711,-0.19673 z m 18.427068,0.0107 c 0.459493,-0.11977 1.097042,-0.11191 1.416776,0.0179 0.319733,0.12941 -0.05621,0.22733 -0.83544,0.21771 -0.779227,-0.009 -1.04083,-0.11549 -0.581336,-0.2352 z m 19.834859,0 c 0.45949,-0.11977 1.09704,-0.11191 1.41677,0.0179 0.31974,0.12941 -0.0562,0.22733 -0.83544,0.21771 -0.77922,-0.009 -1.04083,-0.11549 -0.58133,-0.2352 z m 19.61926,0.005 c 0.3409,-0.13637 0.74823,-0.11959 0.90516,0.0373 0.15693,0.15689 -0.122,0.26854 -0.61984,0.24803 -0.55016,-0.0227 -0.66206,-0.13458 -0.28532,-0.28532 z m 7.77173,-0.005 c 0.45949,-0.11977 1.09704,-0.11191 1.41677,0.0179 0.31974,0.12941 -0.0562,0.22733 -0.83543,0.21771 -0.77924,-0.009 -1.04083,-0.11549 -0.58134,-0.2352 z m 14.64001,0 c 0.4595,-0.11977 1.09704,-0.11191 1.41677,0.0179 0.31975,0.12941 -0.0562,0.22733 -0.83543,0.21771 -0.77922,-0.009 -1.04083,-0.11549 -0.58134,-0.2352 z m 16.52905,0 c 0.45949,-0.11977 1.09704,-0.11191 1.41677,0.0179 0.31974,0.12941 -0.0562,0.22733 -0.83542,0.21771 -0.77924,-0.009 -1.04084,-0.11549 -0.58135,-0.2352 z m 35.64654,0.0143 c 0.32468,-0.13101 0.85597,-0.13101 1.18065,0 0.32467,0.13101 0.0591,0.2382 -0.59033,0.2382 -0.64937,0 -0.915,-0.1071 -0.59032,-0.2382 z m 19.39211,-0.0107 c 0.34092,-0.13637 0.74823,-0.11959 0.90516,0.0373 0.1569,0.15689 -0.12191,0.26854 -0.61984,0.24805 -0.55015,-0.0227 -0.66206,-0.13459 -0.28532,-0.28532 z m 7.77173,-0.005 c 0.45951,-0.11977 1.09704,-0.11192 1.41677,0.0179 0.31975,0.1294 -0.0562,0.22732 -0.83543,0.2177 -0.77922,-0.009 -1.04083,-0.11548 -0.58134,-0.23521 z m 13.68652,-0.0107 c 0.71429,-0.10817 1.88312,-0.10817 2.59741,0 0.7143,0.10816 0.12994,0.19673 -1.2987,0.19673 -1.42858,0 -2.01301,-0.0885 -1.29871,-0.19673 z M 27.312217,204.90291 c 0.320351,-0.32275 0.701416,-0.46785 0.846821,-0.32245 0.145399,0.14547 -0.116698,0.40948 -0.582452,0.58683 -0.673062,0.25628 -0.727306,0.20203 -0.264369,-0.26438 z m 4.376263,0.0587 c -0.425641,-0.27507 -0.48389,-0.46069 -0.145934,-0.46502 0.309348,-0.004 0.693796,0.20528 0.854325,0.46502 0.362365,0.58633 0.198877,0.58633 -0.708387,0 z m 35.891645,-0.1856 c 0,-0.10209 0.329811,-0.31216 0.732918,-0.46684 0.420272,-0.16136 0.609837,-0.0821 0.444385,0.1856 -0.277339,0.44874 -1.177303,0.66373 -1.177303,0.28124 z m 49.738295,-2.64795 c 0,-1.68832 0.0857,-2.37901 0.19048,-1.53483 0.10476,0.84416 0.10476,2.22552 0,3.06968 -0.10476,0.84415 -0.19048,0.1535 -0.19048,-1.53485 z m 11.87202,2.32988 c -0.17121,-0.27702 -0.21,-0.60496 -0.0862,-0.72876 0.12378,-0.12387 0.35091,0.10281 0.50472,0.50369 0.31934,0.83216 0.0472,0.97854 -0.41851,0.22507 z m 35.67494,0.31807 c 0,-0.10209 0.3298,-0.31216 0.7329,-0.46684 0.42028,-0.16136 0.60986,-0.0821 0.44439,0.1856 -0.27734,0.44874 -1.17729,0.66373 -1.17729,0.28124 z m -68.040972,-1.58536 -1.144901,-1.29872 1.29871,1.1449 c 1.213842,1.07009 1.515283,1.45253 1.144901,1.45253 -0.08459,0 -0.669011,-0.58442 -1.29871,-1.29871 z m -44.732685,-3.27298 c -0.09057,-4.08491 -0.157554,-4.34737 -1.158709,-4.54019 l -1.062582,-0.20466 1.0774,-0.0643 c 1.432928,-0.0855 1.589165,0.49128 1.400389,5.17002 l -0.160375,3.97472 z m 2.896202,0.79361 c 0,-1.94805 0.08336,-2.745 0.185247,-1.77095 0.101883,0.97403 0.101883,2.5679 0,3.54193 -0.101883,0.97402 -0.185247,0.17706 -0.185247,-1.77098 z m 32.59954,-1.18063 c 0.0014,-2.59742 0.08054,-3.59976 0.176243,-2.22741 0.09571,1.37237 0.09469,3.49752 -0.0023,4.7226 -0.09694,1.22505 -0.175225,0.10227 -0.173993,-2.49519 z m 2.740455,2.71548 c -0.07648,-1.93361 0.444333,-2.59776 1.146356,-1.46188 0.201993,0.32684 0.130227,0.41747 -0.179161,0.22626 -0.3288,-0.20322 -0.583579,0.32735 -0.701965,1.46186 l -0.185838,1.78086 z m 18.93005,0.11798 c 0.005,-1.03896 0.10195,-1.40838 0.21491,-0.82093 0.11297,0.58745 0.10867,1.43751 -0.009,1.88903 -0.11819,0.45153 -0.21062,-0.0291 -0.20538,-1.0681 z m 40.119,-2.44472 c -0.0816,-3.68149 -0.22051,-4.36626 -0.92257,-4.54973 -0.77455,-0.20241 -0.77362,-0.21942 0.0143,-0.27075 1.18168,-0.0769 1.34673,0.65733 1.16426,5.17953 l -0.16028,3.97472 -0.0962,-4.33377 z m 2.88376,1.50022 c 0.004,-1.55846 0.0909,-2.13908 0.19593,-1.29026 0.10513,0.84881 0.10299,2.12392 -0.005,2.83355 -0.1078,0.70965 -0.19375,0.0143 -0.19111,-1.54329 z m 98.94507,1.02677 c -0.17564,-0.86179 -0.10995,-1.17231 0.18583,-0.87661 0.25183,0.25184 0.37428,0.85237 0.27209,1.33451 -0.13762,0.64926 -0.25639,0.53051 -0.45792,-0.4579 z M 74.799074,199.5306 c 0.0037,-1.29872 0.09526,-1.77395 0.203812,-1.0561 0.108559,0.71786 0.105649,1.78045 -0.0064,2.3613 -0.112093,0.58085 -0.200909,-0.007 -0.197367,-1.3052 z m 33.051646,0.23613 c 0,-1.16885 0.0921,-1.64701 0.20466,-1.0626 0.11258,0.58444 0.11258,1.54076 0,2.12517 -0.11255,0.58442 -0.20466,0.10621 -0.20466,-1.06257 z m 102.49781,-1.18065 c 0.004,-1.55846 0.0908,-2.13908 0.19593,-1.29026 0.10513,0.84881 0.10299,2.12392 -0.005,2.83355 -0.1078,0.70964 -0.19375,0.0143 -0.19111,-1.54329 z m -18.48985,1.18065 c 0,-0.64937 0.10727,-0.915 0.23821,-0.59033 0.13101,0.32468 0.13101,0.85596 0,1.18065 -0.13101,0.32468 -0.23821,0.0591 -0.23821,-0.59032 z M 38.392166,197.1693 c 0.0096,-0.77922 0.115466,-1.04083 0.235203,-0.58134 0.119732,0.4595 0.111861,1.09704 -0.01749,1.41677 -0.129371,0.31975 -0.22733,-0.0562 -0.217706,-0.83543 z m -21.234133,-0.70839 c 0,-0.9091 0.09719,-1.281 0.215974,-0.82646 0.118786,0.45455 0.118786,1.19836 0,1.65291 -0.118786,0.45456 -0.215974,0.0826 -0.215974,-0.82645 z m 38.497565,-1.25728 c 0.324678,-0.13101 0.855968,-0.13101 1.180648,0 0.324677,0.13101 0.05903,0.2382 -0.590325,0.2382 -0.649355,0 -0.915,-0.10728 -0.590323,-0.2382 z m 97.285252,0 c 0.32468,-0.13101 0.85598,-0.13101 1.18065,0 0.32468,0.13101 0.0591,0.2382 -0.59032,0.2382 -0.64937,0 -0.915,-0.10728 -0.59033,-0.2382 z m -95.278153,-1.104 -1.652904,-0.34794 1.506967,-0.0621 c 0.828832,-0.0341 1.638312,0.15029 1.798842,0.4101 0.160535,0.25974 0.226202,0.44428 0.145935,0.41008 -0.08027,-0.0343 -0.889746,-0.21874 -1.798844,-0.41008 z m 17.473565,0 -1.652905,-0.34794 1.506967,-0.0621 c 0.828832,-0.0341 1.638312,0.15029 1.798842,0.4101 0.160535,0.25974 0.226202,0.44428 0.145934,0.41008 -0.08027,-0.0343 -0.889744,-0.21874 -1.798841,-0.41008 z m 43.211648,0 c -0.76997,-0.33087 -0.79694,-0.41202 -0.14593,-0.43908 0.43922,-0.0182 0.92992,0.17933 1.09045,0.43908 0.33562,0.54304 0.31921,0.54304 -0.94451,0 z m 36.60004,0 -1.6529,-0.34794 1.50697,-0.0621 c 0.82882,-0.0341 1.6383,0.15029 1.79883,0.4101 0.16047,0.25974 0.22621,0.44428 0.14601,0.41008 -0.0803,-0.0343 -0.88974,-0.21874 -1.79884,-0.41008 z m 14.87614,0 c -0.76998,-0.33087 -0.79695,-0.41202 -0.146,-0.43908 0.43921,-0.0182 0.92992,0.17933 1.09045,0.43908 0.33562,0.54304 0.3192,0.54304 -0.94452,0 z m 70.98894,-0.10299 c 0.25185,-0.25186 0.85239,-0.3743 1.33451,-0.2721 0.64928,0.13762 0.53053,0.25639 -0.4579,0.45791 -0.86178,0.17563 -1.17232,0.10995 -0.87661,-0.18581 z M 13.152334,193.78832 c 0.324678,-0.13101 0.855968,-0.13101 1.180647,0 0.324678,0.13101 0.05903,0.23819 -0.590324,0.23819 -0.649355,0 -0.915001,-0.10709 -0.590323,-0.23819 z m 4.279844,-0.009 c 0.340911,-0.13636 0.748234,-0.11959 0.905162,0.0373 0.156929,0.15689 -0.121999,0.26854 -0.61984,0.24805 -0.550154,-0.0227 -0.662059,-0.13458 -0.285322,-0.28534 z m 10.389686,0 c 0.340909,-0.13636 0.748232,-0.11959 0.905164,0.0373 0.156929,0.15689 -0.121999,0.26854 -0.61984,0.24805 -0.550157,-0.0227 -0.662059,-0.13458 -0.285324,-0.28534 z m 8.028395,0 c 0.340908,-0.13636 0.748236,-0.11959 0.905164,0.0373 0.156929,0.15689 -0.121999,0.26854 -0.61984,0.24805 -0.550157,-0.0227 -0.662059,-0.13458 -0.285324,-0.28534 z m 3.305809,0 c 0.340909,-0.13636 0.748232,-0.11959 0.905163,0.0373 0.15693,0.15689 -0.121998,0.26854 -0.619839,0.24805 -0.550157,-0.0227 -0.662059,-0.13458 -0.285324,-0.28534 z m 9.893419,-0.0107 c 0.587446,-0.11298 1.437511,-0.1087 1.889034,0.009 0.45152,0.11816 -0.02913,0.21062 -1.068089,0.20537 -1.038969,-0.005 -1.408392,-0.10192 -0.820945,-0.2149 z m 18.914348,0.0107 c 0.34091,-0.13636 0.748233,-0.11959 0.905164,0.0373 0.15693,0.15689 -0.121999,0.26854 -0.619838,0.24805 -0.550159,-0.0227 -0.66206,-0.13458 -0.285326,-0.28534 z m 18.860824,0.009 c 0.324678,-0.13101 0.855968,-0.13101 1.180646,0 0.324679,0.13101 0.05903,0.23819 -0.590323,0.23819 -0.649355,0 -0.915001,-0.10709 -0.590323,-0.23819 z m 4.255833,-0.0212 c 0.587447,-0.11299 1.437513,-0.1087 1.889035,0.009 0.451521,0.11816 -0.02913,0.21062 -1.068089,0.20537 -1.038968,-0.005 -1.408393,-0.10191 -0.820946,-0.2149 z m 15.579028,0.0212 c 0.32467,-0.13101 0.85596,-0.13101 1.18064,0 0.32468,0.13101 0.059,0.23819 -0.59032,0.23819 -0.64936,0 -0.915,-0.10709 -0.59032,-0.23819 z m 8.53017,-0.009 c 0.3409,-0.13636 0.74823,-0.11959 0.90516,0.0373 0.15693,0.15689 -0.122,0.26854 -0.61984,0.24805 -0.55016,-0.0227 -0.66206,-0.13458 -0.28532,-0.28534 z m 31.14505,-0.0107 c 0.58744,-0.11298 1.4375,-0.1087 1.88903,0.009 0.45153,0.11816 -0.0291,0.21062 -1.06809,0.20537 -1.03896,-0.005 -1.40839,-0.10192 -0.82094,-0.2149 z m 18.91434,0.0107 c 0.34092,-0.13636 0.74824,-0.11959 0.90517,0.0373 0.15689,0.15689 -0.12209,0.26854 -0.61985,0.24805 -0.55014,-0.0227 -0.66206,-0.13458 -0.28532,-0.28534 z m 35.38987,0.009 c 0.3247,-0.13101 0.85598,-0.13101 1.18065,0 0.32468,0.13101 0.0591,0.23819 -0.59032,0.23819 -0.64935,0 -0.915,-0.10709 -0.59033,-0.23819 z m 8.53018,-0.009 c 0.34092,-0.13636 0.74823,-0.11959 0.90516,0.0373 0.1569,0.15689 -0.12208,0.26854 -0.61984,0.24805 -0.55015,-0.0227 -0.66206,-0.13458 -0.28532,-0.28534 z m 36.36391,0 c 0.3409,-0.13636 0.74823,-0.11959 0.90516,0.0373 0.1569,0.15689 -0.12208,0.26854 -0.61984,0.24805 -0.55017,-0.0227 -0.66206,-0.13458 -0.28532,-0.28534 z M 146.38706,177.691 c -0.58743,-0.74904 -0.57073,-0.76575 0.17831,-0.17831 0.78667,0.61693 1.03684,1.00476 0.64816,1.00476 -0.098,0 -0.46997,-0.3719 -0.82645,-0.82645 z m 100.17903,-0.29639 c 0,-0.098 0.37191,-0.46996 0.82645,-0.82645 0.74904,-0.58741 0.76575,-0.57072 0.17832,0.17832 -0.61694,0.78666 -1.00477,1.03684 -1.00477,0.64813 z"
         id="path1262" />
      <path
         style="fill:#d5d5d5;stroke-width:0.472258"
         d="m 99.605155,181.97201 c 0.340908,-0.13637 0.748235,-0.11959 0.905165,0.0373 0.15693,0.1569 -0.122,0.26854 -0.619841,0.24804 -0.550157,-0.0227 -0.662058,-0.13459 -0.285324,-0.28532 z m 51.639295,-1.56642 c 0,-0.64936 0.10728,-0.915 0.2382,-0.59033 0.13101,0.32468 0.13101,0.85598 0,1.18065 -0.13101,0.32468 -0.2382,0.0591 -0.2382,-0.59032 z m 10.38968,0 c 0,-0.64936 0.10728,-0.915 0.2382,-0.59033 0.13101,0.32468 0.13101,0.85598 0,1.18065 -0.13101,0.32468 -0.2382,0.0591 -0.2382,-0.59032 z m -49.278,-0.32261 c 0.34091,-0.13637 0.74824,-0.11959 0.90517,0.0373 0.15693,0.15689 -0.122,0.26854 -0.61984,0.24803 -0.55016,-0.0227 -0.66206,-0.13459 -0.28533,-0.28532 z m -42.762411,-1.43305 c 0.71786,-0.10853 1.780442,-0.10567 2.361291,0.007 0.58085,0.11209 -0.0064,0.20091 -1.305204,0.19735 -1.298711,-0.004 -1.773949,-0.0953 -1.056087,-0.2038 z m 170.485321,0 c 0.71785,-0.10853 1.78045,-0.10567 2.3613,0.007 0.58084,0.11209 -0.007,0.20091 -1.3052,0.19735 -1.29873,-0.004 -1.77396,-0.0953 -1.0561,-0.2038 z m -81.788,-1.35338 c 0.0227,-0.55016 0.13459,-0.66206 0.28532,-0.28532 0.13637,0.3409 0.11959,0.74824 -0.0373,0.90517 -0.1569,0.15689 -0.26854,-0.12209 -0.24804,-0.61985 z m -92.899725,-5.62774 c 0.0014,-2.59743 0.08054,-3.59976 0.176225,-2.2274 0.09571,1.37235 0.09469,3.49752 -0.0023,4.72258 -0.0968,1.22508 -0.1751,0.10228 -0.173869,-2.49518 z m 170.517055,-0.58877 0.032,-3.66156 2.12516,-0.0385 2.12517,-0.0386 -1.98768,0.18172 -1.9877,0.18171 -0.16939,3.51842 -0.16939,3.51841 0.032,-3.66156 z m -107.02319,-2.80352 c 0.34091,-0.13636 0.74824,-0.11958 0.90516,0.0373 0.15693,0.15689 -0.12199,0.26856 -0.61983,0.24805 -0.55016,-0.0227 -0.66206,-0.13458 -0.28533,-0.28532 z M 68.908353,167.332 c 0.340909,-0.13637 0.748232,-0.11959 0.905164,0.0373 0.156929,0.15689 -0.121999,0.26854 -0.61984,0.24803 -0.550157,-0.0227 -0.662059,-0.13458 -0.285324,-0.28532 z m -3.48703,-3.1367 c -0.132065,-0.34417 -0.178523,-2.62871 -0.103239,-5.07678 l 0.136885,-4.45102 3.661553,-0.0319 3.661556,-0.0319 -3.543491,0.16993 -3.543488,0.16974 v 4.67557 4.67556 l 2.007098,0.18078 2.007098,0.18077 -2.021916,0.0825 c -1.306211,0.0534 -2.106922,-0.13904 -2.262048,-0.54325 z m 170.485317,0 c -0.13208,-0.34417 -0.17853,-2.62871 -0.10317,-5.07678 l 0.13691,-4.45102 3.66155,-0.0319 3.66156,-0.0319 -3.54351,0.16993 -3.54348,0.16974 v 4.67557 4.67556 l 2.0071,0.18078 2.0071,0.18077 -2.02191,0.0825 c -1.30622,0.0534 -2.10693,-0.13904 -2.26206,-0.54325 z m -125.02583,-2.04141 c 0.56845,-0.12351 1.14067,-0.58331 1.27159,-1.02188 0.17132,-0.57388 0.2112,-0.53265 0.14228,0.14708 -0.065,0.64112 -0.47346,0.96935 -1.2716,1.02186 -0.98547,0.0648 -1.0085,0.0411 -0.14228,-0.14707 z m 26.1586,-2.3309 c 0.0227,-0.55016 0.13458,-0.66206 0.28532,-0.28533 0.13637,0.34092 0.11959,0.74825 -0.0373,0.90516 -0.15689,0.1569 -0.26854,-0.12191 -0.24803,-0.61983 z m -59.719132,-0.10156 c -0.146524,-0.23707 0.242253,-0.33379 0.863939,-0.21496 0.924277,0.17671 1.168917,-0.009 1.341947,-1.01857 0.209366,-1.22156 0.210996,-1.22083 0.154073,0.07 -0.04203,0.95352 -0.331458,1.3436 -1.075544,1.44962 -0.55991,0.0798 -1.137897,-0.0489 -1.284421,-0.28598 z m 171.016792,0.0643 c 0.32467,-0.13101 0.85597,-0.13101 1.18065,0 0.32467,0.13101 0.0591,0.2382 -0.59033,0.2382 -0.64935,0 -0.915,-0.10728 -0.59032,-0.2382 z m 1.62691,-2.28466 c 0.009,-0.77922 0.11548,-1.04083 0.2352,-0.58132 0.11977,0.45949 0.11191,1.09702 -0.0179,1.41677 -0.12941,0.31973 -0.22733,-0.0562 -0.21771,-0.83545 z m -131.46849,-3.39226 c 0.34091,-0.13637 0.74824,-0.11959 0.90517,0.0373 0.15693,0.1569 -0.122,0.26856 -0.61984,0.24805 -0.55016,-0.0227 -0.66206,-0.13458 -0.28533,-0.28531 z m -8.53017,-1.87919 c 0.32468,-0.13102 0.85597,-0.13102 1.18065,0 0.32468,0.13101 0.059,0.23819 -0.59032,0.23819 -0.64936,0 -0.915,-0.10727 -0.59033,-0.23819 z m -95.160081,-0.50849 c 1.493518,-0.0937 3.937455,-0.0937 5.430972,0 1.493518,0.0937 0.27155,0.17046 -2.715486,0.17046 -2.987035,0 -4.209004,-0.0768 -2.715486,-0.17046 z m 30.241786,-4.8e-4 c 1.503001,-0.0941 3.840679,-0.0932 5.194844,0.002 1.354162,0.0951 0.124426,0.17207 -2.732729,0.171 -2.857163,-9.5e-4 -3.965117,-0.0789 -2.462115,-0.17278 z m 15.539411,-0.004 c 3.296383,-0.081 8.821807,-0.0812 12.278719,-4.7e-4 3.45692,0.0809 0.759879,0.14708 -5.993418,0.14744 -6.753295,2.8e-4 -9.58168,-0.0659 -6.285301,-0.1469 z m 124.704134,0.004 c 1.49351,-0.0937 3.93745,-0.0937 5.43096,0 1.49352,0.0937 0.27155,0.17046 -2.71548,0.17046 -2.98704,0 -4.20901,-0.0768 -2.71548,-0.17046 z m 30.24178,-4.8e-4 c 1.503,-0.0941 3.84067,-0.0932 5.19485,0.002 1.35416,0.0951 0.12441,0.17207 -2.73274,0.171 -2.85717,-9.5e-4 -3.96512,-0.0789 -2.46211,-0.17278 z m 15.53941,-0.004 c 3.29637,-0.081 8.82181,-0.0812 12.27872,-4.7e-4 3.45692,0.0809 0.75988,0.14708 -5.99342,0.14744 -6.75329,2.8e-4 -9.58168,-0.0659 -6.2853,-0.1469 z M 99.348497,151.2697 c 0.459493,-0.11976 1.097043,-0.11191 1.416773,0.0179 0.31973,0.12941 -0.0562,0.22733 -0.835437,0.21771 -0.779227,-0.009 -1.04083,-0.11549 -0.581336,-0.2352 z m 66.343333,0.0143 c 0.32468,-0.13101 0.85597,-0.13101 1.18065,0 0.32468,0.13102 0.0591,0.2382 -0.59032,0.2382 -0.64937,0 -0.915,-0.10727 -0.59033,-0.2382 z"
         id="path1260" />
      <path
         style="fill:#c7c7c7;stroke-width:0.472258"
         d="m 94.69012,201.06689 -0.899649,-1.06257 1.062583,0.89965 c 0.998561,0.84544 1.277572,1.2255 0.899647,1.2255 -0.08962,0 -0.567778,-0.47816 -1.062581,-1.06258 z m -0.191261,-43.98028 c 0,-0.098 0.371905,-0.46996 0.826453,-0.82645 0.74903,-0.58743 0.765735,-0.57072 0.178313,0.17832 -0.616943,0.78666 -1.004759,1.03682 -1.004759,0.64813 z m 47.165601,-2.53718 c -0.58741,-0.74902 -0.57072,-0.76573 0.17831,-0.17831 0.45455,0.35648 0.82646,0.72838 0.82646,0.82645 0,0.38868 -0.38781,0.13851 -1.00477,-0.64816 z"
         id="path1258" />
      <path
         style="fill:#b8b8b8;stroke-width:0.472258"
         d="m 17.432178,205.58494 c 0.340911,-0.13637 0.748234,-0.11959 0.905162,0.0373 0.156929,0.1569 -0.121999,0.26854 -0.61984,0.24804 -0.550154,-0.0227 -0.662059,-0.13459 -0.285322,-0.28532 z m 19.218359,-0.14422 c -0.165443,-0.26772 0.02413,-0.34688 0.444387,-0.18561 0.818149,0.31394 0.967841,0.65245 0.288531,0.65245 -0.244413,0 -0.574228,-0.21008 -0.732918,-0.46684 z m 30.696803,0 c -0.165443,-0.26772 0.02413,-0.34688 0.444387,-0.18561 0.818149,0.31394 0.967841,0.65245 0.288529,0.65245 -0.244412,0 -0.574228,-0.21008 -0.732916,-0.46684 z m 7.204106,0.1328 c 0.587445,-0.11299 1.437511,-0.1087 1.889033,0.009 0.451521,0.11816 -0.02915,0.21062 -1.068089,0.20537 -1.038968,-0.005 -1.408391,-0.10192 -0.820944,-0.2149 z m 16.169346,0.14832 c 0,-0.10209 0.329812,-0.31216 0.732917,-0.46686 0.420272,-0.16136 0.609837,-0.0821 0.444386,0.18561 -0.277338,0.44875 -1.177303,0.66372 -1.177303,0.28125 z m 6.502517,-0.15671 c 0.960753,-0.11906 1.423685,-0.38551 1.225747,-0.70578 -0.191896,-0.3105 -0.09874,-0.37909 0.234864,-0.17295 0.935715,0.57831 0.09021,1.22504 -1.497446,1.14541 l -1.506967,-0.0755 z m 12.860081,0.15671 c 0,-0.10209 0.32981,-0.31216 0.73292,-0.46686 0.42027,-0.16136 0.60983,-0.0821 0.44438,0.18561 -0.27734,0.44875 -1.1773,0.66372 -1.1773,0.28125 z m 23.52438,-0.13708 c 0.3409,-0.13637 0.74824,-0.11959 0.90517,0.0373 0.15689,0.15689 -0.12209,0.26854 -0.61985,0.24803 -0.55016,-0.0227 -0.66206,-0.13458 -0.28532,-0.28532 z m 4.25033,0 c 0.3409,-0.13637 0.74823,-0.11959 0.90516,0.0373 0.1569,0.15689 -0.12209,0.26854 -0.61984,0.24803 -0.55017,-0.0227 -0.66206,-0.13458 -0.28532,-0.28532 z m 27.39098,0 c 0.34092,-0.13637 0.74824,-0.11959 0.90517,0.0373 0.15689,0.15689 -0.12209,0.26854 -0.61985,0.24803 -0.55014,-0.0227 -0.66206,-0.13458 -0.28532,-0.28532 z m 62.81038,0 c 0.34092,-0.13637 0.74824,-0.11959 0.90517,0.0373 0.15689,0.15689 -0.12209,0.26854 -0.61983,0.24803 -0.55016,-0.0227 -0.66206,-0.13458 -0.28534,-0.28532 z m 3.74855,0.0107 c 0.3247,-0.13101 0.85598,-0.13101 1.18065,0 0.32468,0.13101 0.0591,0.23822 -0.59032,0.23822 -0.64935,0 -0.915,-0.10728 -0.59033,-0.23822 z m 16.0568,-0.0205 c 0.58442,-0.11262 1.54074,-0.11262 2.12516,0 0.58442,0.11263 0.1062,0.20468 -1.06258,0.20468 -1.16883,0 -1.64699,-0.0921 -1.06258,-0.20468 z m -233.652974,-5.47336 0.233049,-4.81911 0.139866,4.44411 c 0.07693,2.44427 -0.02795,4.61286 -0.233049,4.81911 -0.205107,0.20625 -0.268046,-1.79361 -0.139866,-4.44411 z m 57.337872,4.20782 c -0.138099,-0.35989 -0.179996,-1.58186 -0.09308,-2.71549 0.152931,-1.99479 0.165283,-1.97372 0.383984,0.65501 0.229357,2.75674 0.161285,3.23887 -0.290898,2.06048 z m 6.06694,-0.99855 c 0.0052,-1.03896 0.101955,-1.40838 0.214916,-0.82093 0.112968,0.58743 0.108666,1.4375 -0.0095,1.88902 -0.118197,0.45152 -0.210627,-0.0291 -0.205384,-1.06809 z m 91.224892,1.01573 c -0.1344,-0.35044 -0.17831,-2.1037 -0.0975,-3.89613 l 0.1469,-3.25895 0.23045,3.89723 c 0.23006,3.89111 0.18124,4.45945 -0.27986,3.25785 z m -61.04488,-1.25185 c 0,-0.64936 0.10719,-0.915 0.23821,-0.59033 0.13101,0.32468 0.13101,0.85597 0,1.18065 -0.13102,0.32468 -0.23821,0.0591 -0.23821,-0.59032 z M 203.1731,199.887 c -0.0302,-1.62338 0.10621,-2.95161 0.30281,-2.95161 0.19668,0 0.29257,1.00944 0.21309,2.24323 -0.23119,3.58867 -0.45669,3.89832 -0.5159,0.70838 z m -129.236903,1.73956 c -0.171209,-0.27702 -0.210004,-0.60496 -0.08621,-0.72877 0.123784,-0.12369 0.350916,0.10281 0.504726,0.50369 0.319332,0.83216 0.04718,0.97854 -0.418514,0.22508 z m 57.871083,0.0314 -2.12516,-0.3304 1.97922,-0.0709 c 1.08858,-0.0391 2.11057,0.14155 2.27111,0.40134 0.16046,0.25974 0.2262,0.44034 0.146,0.40134 -0.0803,-0.0391 -1.10225,-0.21962 -2.2711,-0.40134 z m 93.39462,-0.33401 c 0.58746,-0.11299 1.43752,-0.1087 1.88905,0.009 0.45151,0.11817 -0.0291,0.21062 -1.06809,0.20538 -1.03896,-0.005 -1.40839,-0.10192 -0.82096,-0.21491 z M 28.989999,199.05979 c 0.0037,-1.2987 0.09526,-1.77395 0.203814,-1.05608 0.108558,0.71786 0.105649,1.78044 -0.0064,2.36128 -0.112092,0.58087 -0.200908,-0.007 -0.197365,-1.3052 z m 42.549562,-0.44467 c -0.143686,-0.37444 -0.161678,-1.06511 -0.03995,-1.53483 0.149183,-0.5758 0.239132,-0.44373 0.276067,0.40532 0.03013,0.69263 0.320428,1.36654 0.645106,1.49756 0.462369,0.18656 0.459158,0.24628 -0.01481,0.27546 -0.332833,0.0205 -0.722706,-0.26905 -0.866395,-0.64351 z m 18.844043,-1.44435 c 0.0037,-1.29873 0.09526,-1.77396 0.203813,-1.0561 0.108558,0.71787 0.105649,1.78045 -0.0064,2.3613 -0.112093,0.58084 -0.200908,-0.007 -0.197367,-1.3052 z m 91.520376,1.37741 c 0.0227,-0.55016 0.13458,-0.66206 0.28532,-0.28531 0.13636,0.3409 0.11959,0.74823 -0.0373,0.90516 -0.15689,0.1569 -0.26854,-0.12209 -0.24803,-0.61985 z m -64.62715,-1.14129 c 0,-0.90909 0.0972,-1.28099 0.21598,-0.82645 0.11879,0.45455 0.11879,1.19836 0,1.6529 -0.11879,0.45455 -0.21598,0.0826 -0.21598,-0.82645 z m 34.96619,-0.47225 c 0,-1.16885 0.0921,-1.64701 0.20466,-1.0626 0.11263,0.58444 0.11263,1.54076 0,2.12518 -0.11263,0.58441 -0.20466,0.1062 -0.20466,-1.06258 z m 4.2408,-0.7084 c 0.005,-1.03896 0.10192,-1.40838 0.21492,-0.82093 0.11298,0.58743 0.1087,1.4375 -0.009,1.88903 -0.11816,0.45151 -0.21062,-0.0291 -0.20539,-1.0681 z m -97.294783,-0.23612 c 0,-0.9091 0.09719,-1.281 0.215979,-0.82645 0.118786,0.45454 0.118786,1.19835 0,1.6529 -0.118786,0.45454 -0.215979,0.0826 -0.215979,-0.82645 z m 17.307878,-0.10317 c 0.217407,-1.31143 0.283926,-1.37795 0.432631,-0.43263 0.09663,0.61437 -0.01899,1.31173 -0.25691,1.54966 -0.261999,0.26201 -0.331303,-0.17856 -0.175725,-1.11703 z m -21.593204,0.10317 c 0,-0.64936 0.107201,-0.915 0.238203,-0.59033 0.131013,0.32468 0.131013,0.85598 0,1.18065 -0.131012,0.32468 -0.238203,0.0591 -0.238203,-0.59032 z m 90.201369,-0.47226 c 0,-0.64937 0.10727,-0.915 0.23821,-0.59032 0.13102,0.32468 0.13102,0.85596 0,1.18065 -0.13101,0.32467 -0.23821,0.0591 -0.23821,-0.59033 z m -97.322527,-0.27548 c 0.02267,-0.55016 0.134565,-0.66206 0.285321,-0.28534 0.136421,0.34092 0.119643,0.74824 -0.03727,0.90517 -0.15693,0.15689 -0.268544,-0.12191 -0.248039,-0.61983 z m 132.667367,0.56942 c 0,-0.098 0.3719,-0.46996 0.82645,-0.82645 0.74902,-0.58741 0.76573,-0.57072 0.17831,0.17832 -0.61694,0.78666 -1.00475,1.03683 -1.00475,0.64813 z m -65.87673,-1.23305 c -0.16544,-0.2677 0.0241,-0.34688 0.44439,-0.1856 0.81814,0.31395 0.96784,0.65244 0.28853,0.65244 -0.24442,0 -0.57423,-0.21008 -0.73292,-0.46684 z m 50.0594,0 c -0.16546,-0.2677 0.0241,-0.34688 0.44439,-0.1856 0.81815,0.31395 0.96784,0.65244 0.28853,0.65244 -0.24442,0 -0.57424,-0.21008 -0.73292,-0.46684 z M 23.808144,138.02105 c 4.367177,-0.078 11.380215,-0.0778 15.58453,3.3e-4 4.204313,0.0782 0.631169,0.14207 -7.940324,0.1419 -8.57149,-1.8e-4 -12.011384,-0.0641 -7.644206,-0.14208 z m 26.297964,-4.6e-4 c -2.5e-4,-0.19481 4.515722,-0.29995 10.035493,-0.23366 19.093133,0.22931 20.833811,0.38516 5.431426,0.4863 -8.506556,0.0559 -15.466669,-0.0578 -15.466919,-0.25264 z m 40.142425,0.0179 c 14.923117,-0.33205 27.864007,-0.34022 27.863647,-0.0179 -2.2e-4,0.19481 -7.59785,0.30801 -16.88364,0.25155 -9.285779,-0.0564 -14.226784,-0.16171 -10.980007,-0.23399 z"
         id="path1256" />
      <path
         style="fill:#aaaaaa;stroke-width:0.472258"
         d="m 12.043338,180.17428 c 0.02834,-0.57405 0.413927,-0.97696 0.990931,-1.03546 0.679756,-0.0689 0.720991,-0.0291 0.147113,0.14225 -0.438575,0.13084 -0.884495,0.5969 -0.990931,1.03547 -0.136296,0.56162 -0.179796,0.51955 -0.147113,-0.14226 z m 25.974219,0 c 0.02833,-0.57405 0.413925,-0.97696 0.99093,-1.03546 0.679755,-0.0689 0.720991,-0.0291 0.147095,0.14225 -0.438573,0.13084 -0.884493,0.5969 -0.990931,1.03547 -0.136296,0.56162 -0.179794,0.51955 -0.147094,-0.14226 z m 79.811683,0 c 0.0283,-0.57405 0.41393,-0.97696 0.99093,-1.03546 0.67976,-0.0689 0.721,-0.0291 0.1471,0.14225 -0.43858,0.13084 -0.8845,0.5969 -0.99093,1.03547 -0.1363,0.56162 -0.1798,0.51955 -0.1471,-0.14226 z m 31.36872,0.0775 c -0.17564,-0.86177 -0.10995,-1.17231 0.18583,-0.8766 0.25183,0.25185 0.37428,0.85238 0.27209,1.33451 -0.13762,0.64928 -0.25639,0.53053 -0.45792,-0.45791 z m 31.7615,0.31129 c -0.0205,-0.56276 -0.30294,-1.1304 -0.62762,-1.26141 -0.46236,-0.18658 -0.45915,-0.24629 0.0143,-0.27549 0.71684,-0.0441 1.23818,1.09612 0.89346,1.95423 -0.13387,0.33325 -0.26017,0.14547 -0.28068,-0.41733 z m 1.5692,-0.38871 c 0.0284,-0.57405 0.41392,-0.97696 0.99093,-1.03547 0.67975,-0.0689 0.721,-0.0291 0.14708,0.14226 -0.43857,0.13083 -0.88448,0.59689 -0.99093,1.03546 -0.13619,0.56163 -0.17979,0.51956 -0.14708,-0.14225 z m 25.97421,0 c 0.0284,-0.57405 0.41393,-0.97696 0.99093,-1.03547 0.67977,-0.0689 0.721,-0.0291 0.14708,0.14226 -0.43857,0.13083 -0.88449,0.59689 -0.99093,1.03546 -0.13637,0.56163 -0.17979,0.51956 -0.14708,-0.14225 z m 42.90491,-0.47708 c 0.005,-1.03898 0.10192,-1.4084 0.21492,-0.82095 0.11299,0.58745 0.1087,1.43752 -0.009,1.88903 -0.11816,0.45153 -0.21062,-0.0291 -0.20539,-1.06808 z M 80.944881,178.51659 c 0,-1.42859 0.08853,-2.013 0.196737,-1.29872 0.108201,0.71431 0.108201,1.88314 0,2.59743 -0.108202,0.71428 -0.196737,0.12994 -0.196737,-1.29871 z m -59.262377,0.6219 c 0.340911,-0.13636 0.748234,-0.11959 0.905162,0.0373 0.15693,0.15689 -0.121999,0.26854 -0.61984,0.24803 -0.550153,-0.0227 -0.662058,-0.13458 -0.285322,-0.28532 z m 29.752285,0 c 0.340908,-0.13636 0.748232,-0.11959 0.905164,0.0373 0.15693,0.15689 -0.121999,0.26854 -0.61984,0.24803 -0.550157,-0.0227 -0.662059,-0.13458 -0.285324,-0.28532 z m 3.748552,0.0107 c 0.324677,-0.13101 0.855968,-0.13101 1.180645,0 0.324678,0.13102 0.05903,0.2382 -0.590323,0.2382 -0.649355,0 -0.915,-0.10709 -0.590322,-0.2382 z m 45.109669,-0.0143 c 0.4595,-0.11976 1.09705,-0.11191 1.41678,0.0179 0.31973,0.12941 -0.0562,0.22733 -0.83544,0.21771 -0.77923,-0.009 -1.040829,-0.11548 -0.58134,-0.2352 z m 30.95346,0.005 c 0.34091,-0.13637 0.74824,-0.11959 0.90517,0.0373 0.15693,0.1569 -0.122,0.26854 -0.61984,0.24804 -0.55016,-0.0227 -0.66206,-0.13459 -0.28533,-0.28532 z m 29.28003,0 c 0.34091,-0.13637 0.74824,-0.11959 0.90517,0.0373 0.15689,0.1569 -0.12209,0.26854 -0.61985,0.24804 -0.55016,-0.0227 -0.66206,-0.13459 -0.28532,-0.28532 z m 7.55613,0 c 0.34092,-0.13637 0.74824,-0.11959 0.90517,0.0373 0.15689,0.1569 -0.12191,0.26854 -0.61985,0.24804 -0.55014,-0.0227 -0.66206,-0.13459 -0.28532,-0.28532 z m 24.08519,0 c 0.34092,-0.13637 0.74824,-0.11959 0.90517,0.0373 0.15689,0.1569 -0.12209,0.26854 -0.61985,0.24804 -0.55014,-0.0227 -0.66206,-0.13459 -0.28532,-0.28532 z m 29.75229,0 c 0.34092,-0.13637 0.74823,-0.11959 0.90516,0.0373 0.1569,0.1569 -0.12191,0.26854 -0.61984,0.24804 -0.55015,-0.0227 -0.66206,-0.13459 -0.28532,-0.28532 z m 3.74855,0.009 c 0.32468,-0.13101 0.85597,-0.13101 1.18065,0 0.32467,0.13102 0.0591,0.23822 -0.59033,0.23822 -0.64935,0 -0.915,-0.10728 -0.59032,-0.23822 z m -38.87814,-12.2021 c 3.6e-4,-5.71433 0.0685,-7.98711 0.15154,-5.05061 0.083,2.93649 0.0826,7.61186 -4.6e-4,10.38968 -0.0834,2.77785 -0.15119,0.37525 -0.15083,-5.33907 z m 48.9882,9.20903 c 0,-0.64935 0.10727,-0.915 0.23821,-0.59032 0.13101,0.32468 0.13101,0.85597 0,1.18065 -0.13101,0.32468 -0.23821,0.0591 -0.23821,-0.59033 z m -113.68827,-9.44605 c 0,-5.58444 0.0683,-7.869 0.15181,-5.07677 0.0835,2.79223 0.0835,7.36134 0,10.15355 -0.0835,2.79223 -0.15181,0.50768 -0.15181,-5.07678 z m -105.787304,0 c 0,-5.3247 0.06888,-7.50299 0.153057,-4.84063 0.08418,2.66234 0.08418,7.01893 0,9.68129 -0.08418,2.66236 -0.153057,0.48406 -0.153057,-4.84066 z m 196.458014,0.47227 c 0,-5.06497 0.0694,-7.13701 0.1544,-4.60452 0.085,2.53249 0.085,6.67656 0,9.20903 -0.085,2.53249 -0.1544,0.46046 -0.1544,-4.60451 z m -132.990861,4.39998 c 0.340908,-0.13637 0.748232,-0.11959 0.905164,0.0373 0.156929,0.1569 -0.121999,0.26854 -0.61984,0.24803 -0.550157,-0.0227 -0.662059,-0.13458 -0.285324,-0.28531 z m 170.455801,0.009 c 0.32469,-0.13101 0.85597,-0.13101 1.18064,0 0.32468,0.13102 0.0591,0.23822 -0.59032,0.23822 -0.64935,0 -0.915,-0.10728 -0.59032,-0.23822 z m -110.92292,-3.34721 c -0.58743,-0.74904 -0.57073,-0.76573 0.17831,-0.17831 0.78667,0.61695 1.03684,1.00476 0.64816,1.00476 -0.098,0 -0.46997,-0.3719 -0.82645,-0.82645 z m -8.52896,0.0316 c 0.3409,-0.13637 0.74823,-0.11959 0.90516,0.0373 0.15693,0.15689 -0.122,0.26854 -0.61984,0.24803 -0.55016,-0.0227 -0.66206,-0.13458 -0.28532,-0.28532 z M 89.067887,155.84726 c 0.470129,-0.51948 0.961037,-0.94452 1.090907,-0.94452 0.129871,0 -0.148522,0.42504 -0.618649,0.94452 -0.470128,0.51948 -0.961035,0.9445 -1.090907,0.9445 -0.129871,0 0.148522,-0.42502 0.618649,-0.9445 z m 11.216143,-1.74233 c 0.45455,-0.11887 1.19835,-0.11887 1.6529,0 0.45455,0.11888 0.0826,0.21598 -0.82645,0.21598 -0.9091,0 -1.281002,-0.0973 -0.82645,-0.21598 z m 30.49019,0.004 c 0.3409,-0.13637 0.74823,-0.11959 0.90516,0.0373 0.15693,0.15689 -0.122,0.26854 -0.61984,0.24803 -0.55016,-0.0227 -0.66206,-0.13458 -0.28532,-0.28532 z M 11.92819,153.01444 c 0,-0.64935 0.107184,-0.915 0.238202,-0.59033 0.131013,0.32468 0.131013,0.85598 0,1.18065 -0.131013,0.32468 -0.238202,0.0591 -0.238202,-0.59032 z m 105.90105,-0.23613 c 0.0365,-0.74309 0.39893,-0.95767 1.69932,-1.00615 1.594,-0.0594 1.59925,-0.0543 0.14727,0.14582 -0.90418,0.12459 -1.583,0.5265 -1.69932,1.00616 -0.13572,0.5597 -0.1798,0.51607 -0.14727,-0.14583 z m 64.58428,0.23613 c 0,-0.64935 0.10709,-0.915 0.23819,-0.59033 0.13102,0.32468 0.13102,0.85598 0,1.18065 -0.13101,0.32468 -0.23819,0.0591 -0.23819,-0.59032 z"
         id="path1254" />
      <path
         style="fill:#969696;stroke-width:0.472258"
         d="m 94.438618,204.60884 c -0.587427,-0.74904 -0.570724,-0.76574 0.178313,-0.17831 0.45455,0.35648 0.826453,0.72839 0.826453,0.82645 0,0.38868 -0.387814,0.13851 -1.004758,-0.64814 z m 116.866872,-2.47937 c 0,-1.94805 0.0834,-2.745 0.18524,-1.77095 0.10192,0.97402 0.10192,2.5679 0,3.54192 -0.10192,0.97403 -0.18524,0.17707 -0.18524,-1.77097 z m 31.00744,-2.45775 c -0.12834,-2.78035 -0.0659,-4.88678 0.13887,-4.68094 0.20471,0.20582 0.30968,2.48065 0.23327,5.05516 l -0.13887,4.68096 z m -213.348437,2.93002 c 0,-0.90911 0.09719,-1.28101 0.215978,-0.82645 0.118786,0.45455 0.118786,1.19836 0,1.6529 -0.118786,0.45455 -0.215978,0.0826 -0.215978,-0.82645 z m 174.191117,0.66902 c 0.0227,-0.55014 0.13458,-0.66206 0.28532,-0.28532 0.13637,0.34092 0.11959,0.74824 -0.0373,0.90517 -0.15689,0.15689 -0.26854,-0.12209 -0.24803,-0.61985 z M 29.950602,199.76819 c 0,-1.68833 0.08571,-2.379 0.190476,-1.53485 0.104756,0.84416 0.104756,2.22552 0,3.06968 -0.104757,0.84418 -0.190476,0.1535 -0.190476,-1.53483 z m 86.423308,-0.94452 c 0,-1.68833 0.0857,-2.37901 0.19047,-1.53485 0.10476,0.84418 0.10476,2.22552 0,3.0697 -0.10475,0.84415 -0.19047,0.1535 -0.19047,-1.53485 z m 85.93496,0.23612 c 0.004,-1.2987 0.0953,-1.77395 0.20381,-1.05608 0.10853,0.71786 0.10567,1.78044 -0.007,2.36128 -0.1121,0.58087 -0.20091,-0.007 -0.19736,-1.3052 z m -71.32804,1.32737 c 0.45455,-0.11869 1.19835,-0.11869 1.6529,0 0.45456,0.11888 0.0826,0.21598 -0.82645,0.21598 -0.9091,0 -1.281,-0.0973 -0.82645,-0.21598 z m 48.0896,-0.4222 c 0.0227,-0.55016 0.13458,-0.66206 0.28532,-0.28532 0.13636,0.3409 0.11959,0.74824 -0.0373,0.90517 -0.15689,0.15689 -0.26854,-0.12209 -0.24803,-0.61985 z m 9.91743,0 c 0.0227,-0.55016 0.13458,-0.66206 0.28531,-0.28532 0.13637,0.3409 0.11959,0.74824 -0.0373,0.90517 -0.15689,0.15689 -0.26854,-0.12209 -0.24803,-0.61985 z m 36.44467,0.4222 c 0.45455,-0.11869 1.19836,-0.11869 1.65291,0 0.45454,0.11888 0.0826,0.21598 -0.82646,0.21598 -0.90909,0 -1.28099,-0.0973 -0.82645,-0.21598 z M 47.908236,197.1504 c -0.153806,-0.40082 -0.174136,-0.83429 -0.04514,-0.96325 0.12896,-0.12905 0.347846,0.19897 0.486387,0.72875 0.294288,1.12537 -0.03268,1.29913 -0.441231,0.2345 z m 45.683393,-0.0189 c 0.02267,-0.55016 0.134564,-0.66206 0.285318,-0.28532 0.136421,0.3409 0.119643,0.74824 -0.03727,0.90517 -0.15693,0.15689 -0.268546,-0.12209 -0.248041,-0.61985 z m 51.655601,0.24407 c -0.17117,-0.27702 -0.21001,-0.60496 -0.0862,-0.72876 0.12387,-0.12388 0.35091,0.10281 0.50472,0.50368 0.31934,0.83216 0.0471,0.97854 -0.41851,0.22508 z m 23.39621,-1.12136 c 0,-0.63403 0.17403,-1.26036 0.38681,-1.39184 0.21274,-0.13154 0.29489,0.38728 0.18253,1.15277 -0.24772,1.6878 -0.56934,1.82285 -0.56934,0.23907 z m -97.090553,-0.73625 c 0.03008,-0.4307 0.559344,-0.73094 1.350027,-0.76593 1.137547,-0.0503 1.155483,-0.032 0.14315,0.14672 -0.636549,0.11227 -1.244062,0.45694 -1.350027,0.76591 -0.105971,0.30897 -0.170388,0.243 -0.14315,-0.14654 z m 19.551616,-0.79488 c 0.340907,-0.13637 0.748232,-0.11959 0.905163,0.0373 0.15693,0.1569 -0.121998,0.26854 -0.61984,0.24804 -0.550156,-0.0227 -0.662058,-0.13459 -0.285323,-0.28532 z"
         id="path1252" />
      <path
         style="fill:#7e7e7e;stroke-width:0.472258"
         d="m 22.790136,180.40559 c 0,-0.64936 0.107184,-0.915 0.2382,-0.59033 0.131013,0.32468 0.131013,0.85598 0,1.18065 -0.131012,0.32468 -0.2382,0.0591 -0.2382,-0.59032 z m 29.752283,0 c 0,-0.64936 0.107184,-0.915 0.238202,-0.59033 0.131013,0.32468 0.131013,0.85598 0,1.18065 -0.131012,0.32468 -0.238202,0.0591 -0.238202,-0.59032 z m 79.811681,0 c 0,-0.64936 0.10727,-0.915 0.23822,-0.59033 0.13101,0.32468 0.13101,0.85598 0,1.18065 -0.13102,0.32468 -0.23822,0.0591 -0.23822,-0.59032 z m 34.94714,0 c 0,-0.64936 0.10709,-0.915 0.23819,-0.59033 0.13101,0.32468 0.13101,0.85598 0,1.18065 -0.13101,0.32468 -0.23819,0.0591 -0.23819,-0.59032 z m 25.97421,0 c 0,-0.64936 0.10727,-0.915 0.23822,-0.59033 0.13101,0.32468 0.13101,0.85598 0,1.18065 -0.13102,0.32468 -0.23822,0.0591 -0.23822,-0.59032 z m 29.75229,0 c 0,-0.64936 0.10727,-0.915 0.23821,-0.59033 0.13101,0.32468 0.13101,0.85598 0,1.18065 -0.13101,0.32468 -0.23821,0.0591 -0.23821,-0.59032 z m -109.47091,-4.48646 c -0.001,-2.33768 0.0784,-3.35355 0.17746,-2.25747 0.099,1.09607 0.10022,3.00871 0.003,4.25033 -0.0976,1.2416 -0.17864,0.34483 -0.18007,-1.99286 z m 137.86692,0 c 0.004,-1.29872 0.0953,-1.77395 0.20382,-1.05609 0.10853,0.71787 0.10567,1.78045 -0.007,2.36129 -0.11209,0.58085 -0.20091,-0.007 -0.19737,-1.3052 z M 48.419423,166.71008 c 0,-5.84418 0.06779,-8.235 0.150647,-5.3129 0.08286,2.9221 0.08286,7.70373 0,10.62583 -0.08286,2.9221 -0.150647,0.53128 -0.150647,-5.31293 z m -29.861684,0.82646 c -0.05087,-5.1299 0.0669,-9.32747 0.261697,-9.32793 0.194807,-4.5e-4 0.299044,2.8154 0.231639,6.25743 -0.223536,11.4147 -0.399712,12.51123 -0.493336,3.0705 z m 23.421711,-0.11852 c -0.07557,-5.06527 0.02195,-9.20932 0.216781,-9.20905 0.194808,2.8e-4 0.354195,4.14457 0.354195,9.20955 0,5.06498 -0.09755,9.20903 -0.216781,9.20903 -0.119233,0 -0.278618,-4.14429 -0.354195,-9.20953 z m 86.21739,5.19535 c -0.001,-2.33769 0.0784,-3.35355 0.17746,-2.25749 0.0991,1.09606 0.10022,3.00872 0.003,4.25032 -0.0978,1.24163 -0.17886,0.34483 -0.1803,-1.99283 z m 90.7066,-5.90325 c 0,-5.58444 0.0684,-7.86901 0.15172,-5.07678 0.0835,2.79223 0.0835,7.36134 0,10.15356 -0.0835,2.79223 -0.15172,0.50768 -0.15172,-5.07678 z m -137.965006,7.32002 c 0.0037,-1.29872 0.09526,-1.77395 0.203812,-1.0561 0.108559,0.71786 0.105649,1.78046 -0.0064,2.3613 -0.112092,0.58085 -0.200908,-0.007 -0.197366,-1.3052 z m 108.209816,-6.84775 c 0,-5.06498 0.0694,-7.13701 0.15439,-4.60452 0.085,2.53248 0.085,6.67656 0,9.20903 -0.085,2.53249 -0.15439,0.46045 -0.15439,-4.60451 z m -81.80634,5.90323 c 0.01,-0.77922 0.11546,-1.04084 0.2352,-0.58135 0.11973,0.45951 0.11186,1.09705 -0.0175,1.41678 -0.12937,0.31975 -0.22733,-0.0562 -0.21771,-0.83543 z m 52.27443,0.0994 c 0.20625,-0.20509 2.37485,-0.30997 4.81911,-0.23304 l 4.44413,0.13994 -4.81912,0.23305 c -2.65051,0.12816 -4.65037,0.0653 -4.44412,-0.13993 z m -55.98597,-3.90914 c -0.54057,-1.40871 0.58112,-1.65073 6.96316,-1.50244 l 6.33761,0.14726 -6.49356,0.10317 c -5.26069,0.0835 -6.49355,0.23104 -6.49355,0.77688 0,0.37057 0.3719,0.77094 0.82645,0.88973 0.77455,0.20241 0.77362,0.21942 -0.0148,0.27077 -0.46271,0.0302 -0.96909,-0.27829 -1.1253,-0.68535 z m -11.82999,-2.80182 c 0.0037,-1.2987 0.09526,-1.77393 0.203812,-1.05608 0.108559,0.71786 0.105649,1.78044 -0.0064,2.36128 -0.112092,0.58087 -0.200908,-0.007 -0.197367,-1.3052 z m 36.41082,-6.37548 c 0,-3.24677 0.0755,-4.575 0.16768,-2.95162 0.0922,1.6234 0.0922,4.27985 0,5.90323 -0.0922,1.62339 -0.16768,0.29517 -0.16768,-2.95161 z m -16.60147,-6.13937 c 0,-0.90909 0.0972,-1.281 0.21598,-0.82645 0.11878,0.45456 0.11878,1.19835 0,1.65292 -0.11879,0.45454 -0.21598,0.0826 -0.21598,-0.82647 z M 79.006397,153.7231 c 0.0096,-0.77922 0.115466,-1.04082 0.235203,-0.58133 0.119732,0.4595 0.111861,1.09705 -0.01749,1.41678 -0.129371,0.31973 -0.227332,-0.0562 -0.217706,-0.83545 z m -26.463978,-0.70838 c 0,-0.64935 0.107184,-0.915 0.238202,-0.59032 0.131013,0.32468 0.131013,0.85597 0,1.18065 -0.131012,0.32468 -0.238202,0.0591 -0.238202,-0.59033 z m 170.485321,0 c 0,-0.64935 0.10727,-0.915 0.23821,-0.59032 0.13101,0.32468 0.13101,0.85597 0,1.18065 -0.13101,0.32468 -0.23821,0.0591 -0.23821,-0.59033 z m 26.40919,-0.27548 c 0.0227,-0.55016 0.13458,-0.66206 0.28532,-0.28532 0.13637,0.3409 0.11959,0.74824 -0.0373,0.90515 -0.1569,0.15689 -0.26856,-0.12191 -0.24805,-0.61983 z M 121.77179,151.7368 c 0.58442,-0.11263 1.54074,-0.11263 2.12516,0 0.58442,0.11263 0.10626,0.20466 -1.06258,0.20466 -1.16884,0 -1.647,-0.0921 -1.06258,-0.20466 z m 10.38968,0.0205 c 0.32468,-0.13101 0.85598,-0.13101 1.18065,0 0.32468,0.13102 0.0591,0.2382 -0.59032,0.2382 -0.64936,0 -0.915,-0.10727 -0.59033,-0.2382 z"
         id="path1250" />
      <path
         style="fill:#7a7a7a;stroke-width:0.472258"
         d="m 96.824408,203.66432 -1.144901,-1.29872 1.29871,1.14491 c 1.213842,1.07008 1.515283,1.45251 1.144901,1.45251 -0.08459,0 -0.669011,-0.58441 -1.29871,-1.2987 z"
         id="path1248" />
      <path
         style="fill:#646464;stroke-width:0.472258"
         d="m 89.023018,177.45396 -0.899648,-1.06257 1.062582,0.89965 c 0.998561,0.84544 1.277572,1.22552 0.899647,1.22552 -0.08962,0 -0.567778,-0.47816 -1.062581,-1.0626 z m 5.887858,-0.23612 c -0.587427,-0.74902 -0.570724,-0.76573 0.178313,-0.17832 0.786665,0.61694 1.036835,1.00475 0.648147,1.00475 -0.09806,0 -0.469968,-0.3719 -0.826453,-0.82645 z m 46.341574,-12.10283 c 0,-0.098 0.3719,-0.46996 0.82645,-0.82645 0.74904,-0.58743 0.76573,-0.57072 0.17831,0.17832 -0.61695,0.78666 -1.00476,1.03683 -1.00476,0.64815 z"
         id="path1246" />
      <path
         style="fill:#5e5e5e;stroke-width:0.472258"
         d="m 183.44068,205.39415 c -3.52029,-1.0305 -5.04052,-5.46044 -3.01427,-8.78358 1.17576,-1.9283 2.44347,-2.5882 4.97206,-2.5882 3.70369,0 6.38565,2.42647 6.38565,5.77734 0,3.8692 -4.32663,6.77029 -8.34344,5.59444 z m 4.89181,-1.68332 c 1.18643,-1.81072 1.10343,-5.89928 -0.15404,-7.59061 -1.28267,-1.72514 -3.84062,-2.02831 -5.12634,-0.60757 -1.36075,1.5036 -1.51422,5.93987 -0.27383,7.91554 0.82517,1.31432 1.23443,1.53483 2.84871,1.53483 1.51834,0 2.04469,-0.2436 2.70555,-1.25219 z M 13.860722,204.9252 c 0.699757,-0.40757 0.826452,-1.20407 0.826452,-5.19571 0,-4.44754 -0.06013,-4.7385 -1.062582,-5.14144 -0.789355,-0.31727 -0.27326,-0.42071 2.0071,-0.40225 1.688323,0.0143 2.697776,0.12209 2.243228,0.24082 -0.723067,0.18895 -0.826453,0.85717 -0.826453,5.34157 0,4.48438 0.103383,5.1526 0.826453,5.34155 0.454548,0.1187 -0.448647,0.23416 -2.0071,0.2564 -2.136712,0.0305 -2.630306,-0.078 -2.007098,-0.44094 z m 14.04969,0.16582 c 1.214036,-0.46213 1.402092,-1.18449 1.409546,-5.41416 0.0066,-3.71146 -0.09349,-4.17604 -1.04237,-4.84065 -1.016027,-0.71165 -0.981173,-0.73516 1.089813,-0.73516 2.130036,0 2.1517,0.0161 4.945731,3.81954 l 2.80632,3.81954 0.142079,-3.21799 c 0.11577,-2.6223 -0.01017,-3.32936 -0.680586,-3.81955 -0.711045,-0.51993 -0.538096,-0.59959 1.274697,-0.58719 1.654431,0.0107 1.922829,0.11602 1.270909,0.49573 -0.707476,0.41206 -0.826451,1.22584 -0.826451,5.65275 0,3.9131 -0.148523,5.17138 -0.610428,5.17138 -0.335737,0 -2.088998,-2.01221 -3.896132,-4.47155 -1.80714,-2.45936 -3.445093,-4.47826 -3.6399,-4.48647 -0.433079,-0.0182 -0.468074,4.49248 -0.05103,6.57771 0.182863,0.91432 0.698207,1.67546 1.298711,1.91812 0.724218,0.29267 0.287644,0.4003 -1.601877,0.39497 -1.428582,-0.004 -2.278648,-0.1287 -1.889035,-0.27702 z m 23.49486,0.0107 c 1.02143,-0.19674 1.062582,-0.39659 1.062582,-5.16046 v -4.95577 l -1.524073,0.14797 c -1.065717,0.10352 -1.702746,0.50304 -2.118197,1.32861 -0.582012,1.15657 -0.594276,1.14453 -0.601095,-0.59032 l -0.007,-1.77097 h 5.430972 5.430972 l -0.007,1.77095 c -0.0068,1.73485 -0.01908,1.7469 -0.601095,0.59033 -0.415451,-0.82558 -1.05248,-1.22515 -2.118198,-1.32862 l -1.524092,-0.14797 v 4.95401 c 0,4.32097 0.105596,4.98159 0.826453,5.16997 0.45455,0.11869 -0.554903,0.21169 -2.243228,0.20644 -1.688324,-0.005 -2.591519,-0.10156 -2.007099,-0.21419 z m 16.765176,0.007 c 0.723067,-0.18897 0.826453,-0.85719 0.826453,-5.34157 0,-4.4844 -0.103383,-5.15262 -0.826453,-5.34157 -0.454548,-0.11888 1.245583,-0.24063 3.778068,-0.27075 l 4.604522,-0.0548 v 1.3953 1.3953 l -1.159182,-1.15917 c -0.723231,-0.72323 -1.700076,-1.15918 -2.597423,-1.15918 -1.411046,0 -1.438239,0.0446 -1.438239,2.3613 0,1.93676 0.148576,2.35999 0.826452,2.35405 1.043418,-0.009 1.789548,-0.50168 2.135132,-1.40955 0.148309,-0.38961 0.272965,0.3542 0.277008,1.65292 0.0059,1.87174 -0.0812,2.14099 -0.419756,1.29871 -0.288471,-0.71768 -0.82329,-1.06258 -1.647654,-1.06258 -1.175687,0 -1.215297,0.091 -1.077797,2.47935 0.126193,2.19186 0.27116,2.49754 1.250162,2.63614 1.702619,0.24106 3.754053,-0.82318 4.262769,-2.21143 0.42443,-1.15825 0.461247,-1.1021 0.495758,0.75594 l 0.03729,2.0071 -5.076777,-0.0548 c -2.792228,-0.0302 -4.704876,-0.1519 -4.250328,-0.27076 z m 18.890341,0 c 0.723065,-0.18897 0.826453,-0.85719 0.826453,-5.34157 0,-4.4844 -0.103383,-5.15262 -0.826453,-5.34157 -0.45455,-0.11888 0.810551,-0.24063 2.81133,-0.27075 2.00078,-0.0302 4.174987,0.18998 4.831573,0.48913 2.13987,0.97499 2.144044,3.66013 0.0075,4.77961 l -1.139653,0.59713 2.499086,2.70676 2.499083,2.70679 h -1.565601 c -1.339576,0 -1.855013,-0.37474 -3.570228,-2.59562 -2.522242,-3.26586 -3.185261,-3.3226 -3.185261,-0.27256 0,1.81876 0.180412,2.37381 0.826453,2.54263 0.454549,0.1187 -0.448646,0.21597 -2.007099,0.21597 -1.558453,0 -2.461648,-0.0973 -2.007098,-0.21597 z m 6.102175,-6.12315 c 1.74021,-1.57488 0.603433,-4.41327 -1.767519,-4.41327 -1.075355,0 -1.146912,0.16207 -1.146912,2.59742 0,2.35088 0.09733,2.59743 1.025397,2.59743 0.563965,0 1.41403,-0.35172 1.889034,-0.7816 z m 14.204936,5.93859 c 0.69811,-0.40661 0.82646,-1.19991 0.82646,-5.10832 0,-4.33163 -0.0678,-4.65966 -1.06259,-5.13941 -0.93241,-0.44969 -0.79324,-0.51637 1.13605,-0.54443 l 2.19861,-0.0319 2.7601,3.76251 c 1.51805,2.06937 2.91948,3.7695 3.11428,3.77805 0.19481,0.009 0.3542,-1.35373 0.3542,-3.02734 0,-2.60908 -0.14963,-3.14769 -1.0496,-3.77805 -1.00842,-0.70633 -0.95748,-0.73371 1.29871,-0.69789 1.29157,0.0205 2.02954,0.15868 1.63992,0.30694 -1.23561,0.47036 -1.40214,1.19689 -1.40954,6.14933 -0.005,3.56188 -0.16318,4.83671 -0.59756,4.82575 -0.32467,-0.009 -2.06888,-2.02711 -3.87602,-4.48646 -1.80714,-2.45934 -3.34788,-4.47155 -3.42388,-4.47155 -0.076,0 -0.13817,1.81325 -0.13817,4.02943 0,3.73725 0.077,4.06038 1.06258,4.45652 0.84846,0.34104 0.58675,0.43024 -1.29871,0.44268 -1.82488,0.0125 -2.17354,-0.0937 -1.53484,-0.46579 z m 20.05259,-0.42233 c 0.46467,-0.51281 1.78131,-3.063 2.92588,-5.6671 1.14456,-2.60407 2.3134,-4.73061 2.59741,-4.72565 0.28402,0.005 1.33639,2.15318 2.33856,4.77379 1.00219,2.62059 2.22416,5.16672 2.7155,5.65805 0.87625,0.87627 0.83694,0.89228 -2.05829,0.83853 -1.6234,-0.0302 -2.57972,-0.15189 -2.12518,-0.27075 0.86314,-0.22556 1.01323,-1.05417 0.5227,-2.88558 -0.25771,-0.96209 -0.53803,-1.06983 -2.45758,-0.94451 -2.00661,0.13102 -2.19991,0.25785 -2.61623,1.71702 -0.34732,1.21733 -0.29712,1.67207 0.22079,1.99987 0.46547,0.29462 0.12348,0.42649 -1.11904,0.43152 -1.75218,0.007 -1.77181,-0.0125 -0.94452,-0.92519 z m 5.55867,-5.53689 c -0.9997,-2.39265 -1.06258,-2.40828 -1.87407,-0.46612 -0.94383,2.2589 -0.9635,2.21283 0.94466,2.21283 h 1.65924 z m 15.94749,6.14376 c 0.72086,-0.18838 0.82645,-0.84899 0.82645,-5.16997 v -4.95401 l -1.52406,0.14797 c -1.06572,0.10353 -1.70276,0.50304 -2.11821,1.32862 -0.58201,1.15657 -0.59427,1.14452 -0.60109,-0.59033 l -0.007,-1.77095 h 5.43097 5.43098 l -0.007,1.77095 c -0.007,1.73485 -0.0191,1.7469 -0.60111,0.59033 -0.41543,-0.82558 -1.05247,-1.22515 -2.11819,-1.32862 l -1.52408,-0.14797 v 4.95401 c 0,4.32098 0.10566,4.98159 0.82645,5.16997 0.45454,0.1187 -0.44866,0.21597 -2.0071,0.21597 -1.55846,0 -2.46165,-0.0973 -2.0071,-0.21597 z m 16.52906,0 c 0.72305,-0.18895 0.82645,-0.85717 0.82645,-5.34155 0,-4.4844 -0.10335,-5.15262 -0.82645,-5.34157 -0.45457,-0.11888 0.55489,-0.22715 2.24322,-0.24082 2.28036,-0.0184 2.79645,0.085 2.00711,0.40225 -1.00247,0.40294 -1.0626,0.6939 -1.0626,5.14144 0,3.99164 0.12673,4.78814 0.82645,5.19571 0.62322,0.36298 0.12959,0.47143 -2.00708,0.44094 -1.55847,-0.0223 -2.46167,-0.13761 -2.0071,-0.2564 z m 35.85391,0.007 c 0.60383,-0.15975 0.86315,-1.00491 1.10618,-3.60522 0.44775,-4.79075 0.22038,-6.09429 -1.18652,-6.80249 -1.11307,-0.5603 -1.05224,-0.5947 1.06308,-0.60127 2.19373,-0.007 2.2937,0.0578 4.48645,2.90106 4.24502,5.50427 3.86203,5.36161 3.87994,1.44516 0.0143,-3.1324 -0.0791,-3.47718 -1.04687,-3.8662 -0.85471,-0.34354 -0.60605,-0.43297 1.27091,-0.45704 1.99634,-0.0255 2.21517,0.0566 1.51457,0.56887 -0.65299,0.47748 -0.87709,1.6258 -1.10595,5.6671 -0.15779,2.78757 -0.44161,5.0683 -0.63057,5.0683 -0.18896,0 -1.9102,-2.07204 -3.82499,-4.60453 l -3.4814,-4.60452 -0.14208,3.29593 c -0.1806,4.18875 0.11263,5.3239 1.4416,5.57993 0.58399,0.11245 -0.10709,0.20885 -1.53561,0.21408 -1.42859,0.005 -2.24249,-0.0844 -1.80871,-0.19918 z m 19.88687,-0.27206 c 0.74752,-0.56205 5.06249,-9.28664 5.06249,-10.23603 0,-0.24866 0.21755,-0.58656 0.48343,-0.75088 0.48459,-0.29949 0.96914,0.65819 3.75251,7.41655 0.87104,2.11496 1.82733,3.71919 2.28985,3.84135 0.43682,0.1153 -0.57463,0.23441 -2.24765,0.26454 -2.67975,0.0482 -2.93686,-0.022 -2.15971,-0.59027 0.78534,-0.57426 0.81488,-0.80753 0.26909,-2.12517 -0.552,-1.33266 -0.81447,-1.48009 -2.63474,-1.48009 -1.85501,0 -2.06565,0.12619 -2.55511,1.53021 -0.45269,1.29859 -0.41028,1.62029 0.2802,2.12517 0.69977,0.51168 0.52401,0.59495 -1.25594,0.59495 -1.75953,0 -1.95195,-0.0885 -1.28442,-0.59033 z m 6.47927,-4.45293 c 0,-0.78006 -1.17058,-3.4574 -1.51164,-3.4574 -0.20757,0 -0.37739,0.0803 -0.37739,0.1785 0,0.0982 -0.32162,0.94821 -0.71473,1.88902 l -0.71472,1.71058 h 1.65924 c 0.91257,0 1.65924,-0.14422 1.65924,-0.32066 z m 14.04968,4.56542 c 1.00266,-0.41166 1.0626,-0.70431 1.0626,-5.18926 0,-4.48767 -0.0593,-4.77688 -1.0626,-5.18015 -0.78934,-0.31726 -0.27325,-0.4207 2.0071,-0.40224 1.68833,0.0143 2.69076,0.12333 2.22765,0.24381 -0.75251,0.1957 -0.82785,0.75484 -0.7084,5.25813 0.12958,4.88618 0.16742,5.04392 1.24428,5.19637 2.00566,0.28389 3.35737,-0.36013 4.06732,-1.93783 l 0.68632,-1.52519 -0.0985,1.88903 -0.0985,1.88902 -5.19485,0.0973 c -3.54532,0.0664 -4.85744,-0.0412 -4.13227,-0.33897 z M 16.576208,137.69918 c 0,-0.21132 32.425595,-48.800422 33.035964,-49.503732 0.169871,-0.195734 3.762815,4.747514 7.984338,10.985003 l 7.675495,11.340859 -9.161589,13.57245 -9.161592,13.57244 -15.186307,0.12458 c -8.35247,0.0685 -15.186309,0.0273 -15.186309,-0.0916 z M 50.886667,137.312 c 0.199973,-0.32468 7.739532,-11.59928 16.754568,-25.0547 l 16.390983,-24.46435 6.81528,10.060471 c 3.748407,5.533269 7.200366,10.660079 7.671018,11.392909 l 0.855732,1.33242 -9.167377,13.64833 -9.167379,13.64834 -15.258209,0.0143 c -12.08833,0.0107 -15.182671,-0.10923 -14.894616,-0.57686 z m 42.060947,-11.73324 8.244966,-12.32357 8.01881,11.96939 c 4.41034,6.58314 8.12344,12.12874 8.25134,12.32354 0.12789,0.19481 -7.19081,0.3542 -16.26377,0.3542 H 84.702641 Z"
         id="path1244" />
      <path
         style="fill:#494949;stroke-width:0.472258"
         d="m 145.91479,177.69011 c -0.58742,-0.74904 -0.57073,-0.76575 0.17831,-0.17832 0.78667,0.61694 1.03684,1.00477 0.64814,1.00477 -0.098,0 -0.46997,-0.37191 -0.82645,-0.82645 z m -69.834012,0.17581 c 0,-0.098 0.371905,-0.46997 0.826453,-0.82645 0.74903,-0.58743 0.765735,-0.57073 0.178313,0.17831 -0.616943,0.78667 -1.004759,1.03684 -1.004759,0.64816 z"
         id="path1242" />
      <path
         style="fill:#2f2f2f;stroke-width:0.472258"
         d="m 96.262495,181.30852 c -4.285232,-1.00958 -7.99824,-4.14193 -9.95869,-8.40127 -1.426858,-3.10002 -1.41914,-9.3105 0.01553,-12.42925 2.999144,-6.52004 10.885151,-10.2665 17.236985,-8.18893 1.37155,0.44862 3.08102,1.23384 3.79883,1.74497 1.44415,1.02832 2.25607,0.82136 2.25607,-0.57505 0,-0.57954 0.32376,-0.91666 0.88032,-0.91666 0.98408,0 1.48097,2.31967 1.48097,6.91367 0,2.12244 -0.1373,2.53151 -0.84965,2.53151 -0.54235,0 -1.06584,-0.59786 -1.4474,-1.65307 -1.78927,-4.94814 -7.44007,-7.64728 -12.011314,-5.73728 -1.94904,0.81435 -4.301312,3.48774 -5.116538,5.815 -0.376145,1.07378 -0.625285,3.73466 -0.611797,6.53407 0.0196,4.0648 0.195245,5.09907 1.261142,7.42567 1.823707,3.9807 4.929231,5.57313 9.524647,4.88401 2.8274,-0.42399 4.3684,-1.94788 4.78604,-4.73285 0.42647,-2.84395 -0.23456,-4.32331 -2.1165,-4.73664 -0.79586,-0.17474 -1.44702,-0.61972 -1.44702,-0.98868 0,-0.54653 1.18171,-0.67088 6.37549,-0.67088 5.3158,0 6.37548,0.1162 6.37548,0.6994 0,0.38467 -0.53689,0.83414 -1.1931,0.99884 -1.73078,0.43439 -2.1127,1.53042 -2.1127,6.06299 v 4.04524 h -1.38206 c -0.76014,0 -3.53847,0.42503 -6.17408,0.94451 -5.1416,1.01342 -6.783484,1.08732 -9.570568,0.43068 z m -83.936614,-0.90293 c 0,-0.69266 0.31484,-0.94453 1.180648,-0.94453 0.649355,0 1.605678,-0.42502 2.125163,-0.9445 0.889762,-0.88976 0.944516,-1.57421 0.944516,-11.80648 0,-10.23227 -0.05476,-10.91669 -0.944516,-11.80645 -0.519485,-0.51948 -1.475808,-0.94453 -2.125163,-0.94453 -0.872148,0 -1.180648,-0.25083 -1.180648,-0.95998 0,-0.91539 0.242954,-0.95378 5.230748,-0.82645 l 5.230747,0.13352 4.797915,10.2391 c 2.638853,5.63151 4.907247,10.13588 5.040872,10.00973 0.133637,-0.1262 2.375617,-4.73374 4.982186,-10.23909 l 4.739227,-10.00974 5.060137,-0.13405 c 4.817297,-0.12762 5.060141,-0.088 5.060141,0.82645 0,0.68848 -0.308791,0.96048 -1.090384,0.96048 -0.599711,0 -1.502906,0.30133 -2.007098,0.66961 -0.853919,0.62374 -0.926487,1.41533 -1.059356,11.55546 -0.09255,7.06364 0.03381,11.21558 0.359936,11.82493 0.283724,0.53014 1.219835,1.07363 2.149736,1.24807 1.190903,0.22341 1.647166,0.55609 1.647166,1.20098 0,0.83478 -0.453978,0.89195 -7.083877,0.89195 -6.769038,0 -7.083877,-0.0419 -7.083877,-0.94452 0,-0.67179 0.314839,-0.94452 1.090382,-0.94452 0.599712,0 1.502907,-0.3013 2.007099,-0.66954 0.850386,-0.62112 0.927166,-1.41024 1.061165,-10.90613 0.07945,-5.63012 -0.03249,-10.12721 -0.248796,-9.99354 -0.216285,0.13369 -2.817993,5.46646 -5.781586,11.85064 -2.963587,6.38419 -5.614342,11.60395 -5.890566,11.59949 -0.276223,-0.004 -2.938718,-5.2268 -5.916656,-11.60521 -2.977942,-6.3784 -5.593141,-11.70753 -5.811552,-11.84252 -0.218412,-0.13494 -0.332113,4.36102 -0.252667,9.99114 0.133994,9.49589 0.210779,10.28501 1.061164,10.90613 0.504193,0.36824 1.407387,0.66954 2.007098,0.66954 0.775545,0 1.090384,0.27273 1.090384,0.94452 0,0.88728 -0.314839,0.94452 -5.194844,0.94452 -4.880004,0 -5.194844,-0.0573 -5.194844,-0.94452 z m 42.503265,0 c 0,-0.66804 0.314841,-0.94453 1.075564,-0.94453 0.591565,0 1.547888,-0.33081 2.125163,-0.73515 1.034784,-0.7248 1.049599,-0.89431 1.049599,-12.00886 0,-12.40564 -0.07918,-12.75795 -2.867284,-12.75795 -1.068201,0 -1.383042,-0.21501 -1.383042,-0.9445 0,-0.9197 0.314841,-0.94452 11.978402,-0.94452 h 11.978397 l 0.300325,2.19107 c 0.539975,3.93955 0.394014,5.36506 -0.549327,5.36506 -0.540926,0 -1.064942,-0.59538 -1.442173,-1.63861 -1.051186,-2.907 -2.411858,-3.55622 -7.453169,-3.55622 h -4.422767 v 5.19483 5.19485 h 2.775727 c 2.959696,0 3.50387,-0.33596 4.015897,-2.47936 0.209101,-0.8753 0.615249,-1.29872 1.245767,-1.29872 0.873121,0 0.93552,0.33075 0.93552,4.95873 0,4.54913 -0.07379,4.9587 -0.89332,4.9587 -0.58023,0 -1.007326,-0.45424 -1.218616,-1.29606 -0.533614,-2.1261 -1.119408,-2.482 -4.085248,-2.482 h -2.775727 v 5.12165 c 0,6.40483 0.214825,6.68481 5.129132,6.68481 5.313868,0 7.428669,-1.31428 8.448673,-5.25061 0.23234,-0.89663 0.762485,-1.6629 1.210106,-1.74911 0.70475,-0.13565 0.796619,0.3952 0.796619,4.6038 v 4.75722 H 67.816255 c -12.672268,0 -12.987109,-0.0229 -12.987109,-0.94452 z m 63.282634,0 c 0,-0.69266 0.31485,-0.94453 1.18065,-0.94453 0.64936,0 1.60568,-0.42502 2.12516,-0.9445 0.88923,-0.88923 0.94452,-1.57421 0.94452,-11.70138 0,-11.97661 -0.19567,-12.85608 -2.86033,-12.85608 -1.04151,0 -1.39,-0.22075 -1.39,-0.88055 0,-0.79464 0.56449,-0.91046 5.78517,-1.18705 10.13725,-0.53705 16.63168,0.74766 18.54559,3.66865 2.13237,3.2544 1.7545,6.8195 -0.97697,9.21776 -0.91452,0.80297 -1.9616,1.45992 -2.32685,1.45992 -1.13424,0 -1.34077,0.98758 -0.35143,1.68053 0.51866,0.36329 2.44478,2.86675 4.28027,5.56326 2.31738,3.40447 3.7767,5.08477 4.77527,5.49839 0.88084,0.36487 1.43802,0.9394 1.43802,1.48287 0,0.79375 -0.39568,0.88723 -3.75539,0.88723 h -3.75538 l -1.36388,-2.0071 c -0.75012,-1.10392 -2.26407,-3.5342 -3.36429,-5.40065 -3.03753,-5.15289 -3.7928,-5.8155 -6.62885,-5.8155 h -2.38385 l 0.0471,4.13227 c 0.0647,5.68238 0.31794,6.39833 2.45126,6.93104 1.22074,0.30482 1.75199,0.69863 1.75199,1.29872 0,0.79518 -0.5432,0.86122 -7.08388,0.86122 -6.76903,0 -7.08387,-0.042 -7.08387,-0.94452 z m 16.69899,-15.29031 c 0.96921,-0.40496 1.78771,-1.2088 2.16956,-2.13063 0.79977,-1.93083 0.4151,-5.91915 -0.68853,-7.13864 -1.01992,-1.127 -3.52203,-1.88068 -6.25549,-1.88426 l -2.0071,-0.002 v 5.90325 5.90323 h 2.61259 c 1.43693,0 3.31296,-0.29264 4.16897,-0.6503 z m 16.83136,15.39385 c 0,-0.49389 0.56405,-1.05389 1.3666,-1.35682 1.91582,-0.72314 2.59568,-1.95248 6.03639,-10.91532 1.6685,-4.34632 3.79322,-9.8795 4.72161,-12.29595 2.53968,-6.61036 2.53768,-6.61238 8.48838,8.64389 4.87399,12.4959 6.15163,14.87613 7.98501,14.87613 0.37512,0 0.68205,0.42505 0.68205,0.94453 0,0.89954 -0.31484,0.94452 -6.61163,0.94452 -6.29677,0 -6.61161,-0.045 -6.61161,-0.94452 0,-0.67968 0.31484,-0.94453 1.12282,-0.94453 1.96987,0 2.32236,-1.00956 1.34296,-3.8464 l -0.87315,-2.52908 -4.82762,-0.13476 -4.82764,-0.13476 -0.71795,1.71828 c -1.09387,2.61801 -0.7362,4.12778 1.10638,4.67023 0.993,0.29235 1.53483,0.75081 1.53483,1.29872 0,0.76052 -0.50545,0.84686 -4.95871,0.84686 -4.44038,0 -4.95872,-0.088 -4.95872,-0.84099 z m 16.52905,-9.92919 c 0,-0.57871 -3.33588,-8.77517 -3.74632,-9.20493 -0.31528,-0.33014 -3.80981,8.07845 -3.80981,9.16727 0,0.22998 1.70013,0.41813 3.77806,0.41813 2.07794,0 3.77807,-0.17117 3.77807,-0.38047 z m 14.64002,9.82565 c 0,-0.69266 0.31484,-0.94453 1.18065,-0.94453 0.64935,0 1.60569,-0.42502 2.12517,-0.9445 0.88976,-0.88976 0.9445,-1.57421 0.9445,-11.80648 0,-10.23227 -0.0548,-10.91669 -0.9445,-11.80645 -0.51948,-0.51948 -1.47582,-0.94453 -2.12517,-0.94453 -0.87215,0 -1.18065,-0.25083 -1.18065,-0.95998 0,-0.91562 0.24282,-0.9538 5.25512,-0.82645 l 5.25511,0.13352 4.88137,10.37725 4.88136,10.37724 2.67307,-5.65466 c 1.4702,-3.11007 3.69545,-7.83295 4.945,-10.49531 l 2.27191,-4.84065 h 4.98953 c 4.67467,0 4.98951,0.0596 4.98951,0.94452 0,0.67179 -0.31484,0.94451 -1.09039,0.94451 -0.59971,0 -1.50291,0.30133 -2.0071,0.66959 -0.85231,0.62256 -0.92672,1.41219 -1.05918,11.23926 -0.0851,6.3189 0.0487,11.07245 0.33283,11.81986 0.34785,0.9149 0.92436,1.33442 2.14959,1.56429 1.21565,0.22805 1.67425,0.55839 1.67425,1.20604 0,0.83479 -0.45397,0.89196 -7.08388,0.89196 -6.76903,0 -7.08387,-0.0419 -7.08387,-0.94452 0,-0.69266 0.31484,-0.94452 1.18065,-0.94452 0.64935,0 1.60567,-0.42503 2.12515,-0.94451 0.88512,-0.88512 0.94452,-1.5742 0.94452,-10.95641 0,-5.96456 -0.17224,-9.8305 -0.42588,-9.56323 -0.23423,0.24677 -2.81643,5.60922 -5.73819,11.91657 -2.92178,6.30737 -5.54409,11.39068 -5.82735,11.29626 -0.28327,-0.0944 -2.91918,-5.25499 -5.85757,-11.46793 -2.93842,-6.21293 -5.54364,-11.49813 -5.78939,-11.7449 -0.51768,-0.51982 -0.54242,17.70744 -0.0266,19.57512 0.23775,0.86077 0.80079,1.29918 2.07809,1.61813 1.22074,0.30483 1.75198,0.69863 1.75198,1.29872 0,0.78126 -0.4823,0.86122 -5.19483,0.86122 -4.88001,0 -5.19485,-0.0573 -5.19485,-0.94452 z m 42.50326,0.0603 c 0,-0.66221 0.46129,-0.95793 1.8375,-1.17799 1.03225,-0.16511 1.96355,-0.62237 2.12515,-1.0435 0.15833,-0.41231 0.28768,-5.82521 0.28768,-12.02864 0,-10.66784 -0.0494,-11.30545 -0.91347,-11.76783 -0.5024,-0.26888 -1.45872,-0.48889 -2.12515,-0.48889 -0.89687,0 -1.21171,-0.24541 -1.21171,-0.94451 0,-0.91971 0.31484,-0.94452 11.98357,-0.94452 h 11.98356 l 0.29515,1.4758 c 0.16243,0.81171 0.29517,2.51184 0.29517,3.77808 0,1.95567 -0.13654,2.30225 -0.907,2.30225 -0.61876,0 -1.00348,-0.43928 -1.2106,-1.38233 -0.16689,-0.76028 -0.8504,-1.92913 -1.51869,-2.59742 -1.14103,-1.14102 -1.49901,-1.21508 -5.87328,-1.21508 h -4.65818 v 5.19483 5.19485 h 2.77572 c 2.96585,0 3.55164,-0.35589 4.08526,-2.48199 0.21128,-0.84184 0.63837,-1.29608 1.21861,-1.29608 0.81953,0 0.89332,0.40956 0.89332,4.95872 0,4.64386 -0.06,4.9587 -0.94453,4.9587 -0.59025,0 -0.9445,-0.31484 -0.9445,-0.83942 0,-0.46169 -0.33084,-1.31175 -0.73517,-1.88903 -0.61948,-0.88443 -1.17687,-1.0496 -3.54193,-1.0496 h -2.80678 v 5.12165 c 0,6.45862 0.18181,6.68481 5.37354,6.68481 5.23922,0 6.89305,-1.0603 8.28698,-5.31291 0.41877,-1.27766 0.84872,-1.77097 1.54345,-1.77097 0.76817,0 0.90538,0.21496 0.67821,1.06257 -0.15653,0.58442 -0.28765,2.70959 -0.29121,4.7226 l -0.007,3.66 h -12.9871 c -12.37676,0 -12.98712,-0.0416 -12.98712,-0.88415 z"
         id="path1240" />
    </g>
  </g>
</svg>
