<?xml version="1.0" encoding="UTF-8" standalone="no"?>
<svg
   xmlns:dc="http://purl.org/dc/elements/1.1/"
   xmlns:cc="http://creativecommons.org/ns#"
   xmlns:rdf="http://www.w3.org/1999/02/22-rdf-syntax-ns#"
   xmlns:svg="http://www.w3.org/2000/svg"
   xmlns="http://www.w3.org/2000/svg"
   xmlns:sodipodi="http://sodipodi.sourceforge.net/DTD/sodipodi-0.dtd"
   xmlns:inkscape="http://www.inkscape.org/namespaces/inkscape"
   width="35.2859mm"
   height="6.8468018mm"
   viewBox="0 0 35.2859 6.8468013"
   version="1.1"
   id="svg1012"
   inkscape:version="1.0.1 (3bc2e813f5, 2020-09-07)"
   sodipodi:docname="nando.svg">
  <defs
     id="defs1006">
    <filter
       style="color-interpolation-filters:sRGB"
       inkscape:label="Greyscale"
       id="filter1523">
      <feColorMatrix
         values="0.21 0.72 0.072 0 0 0.21 0.72 0.072 0 0 0.21 0.72 0.072 0 0 0 0 0 1 0 "
         id="feColorMatrix1521" />
    </filter>
    <filter
       style="color-interpolation-filters:sRGB"
       inkscape:label="Greyscale"
       id="filter1573">
      <feColorMatrix
         values="0.21 0.72 0.072 0 0 0.21 0.72 0.072 0 0 0.21 0.72 0.072 0 0 0 0 0 1 0 "
         id="feColorMatrix1571" />
    </filter>
  </defs>
  <sodipodi:namedview
     id="base"
     pagecolor="#ffffff"
     bordercolor="#666666"
     borderopacity="1.0"
     inkscape:pageopacity="0.0"
     inkscape:pageshadow="2"
     inkscape:zoom="1.979899"
     inkscape:cx="221.75107"
     inkscape:cy="77.93663"
     inkscape:document-units="mm"
     inkscape:current-layer="layer1"
     inkscape:document-rotation="0"
     showgrid="false"
     fit-margin-top="0"
     fit-margin-left="0"
     fit-margin-right="0"
     fit-margin-bottom="0"
     inkscape:window-width="1346"
     inkscape:window-height="1198"
     inkscape:window-x="582"
     inkscape:window-y="248"
     inkscape:window-maximized="0" />
  <metadata
     id="metadata1009">
    <rdf:RDF>
      <cc:Work
         rdf:about="">
        <dc:format>image/svg+xml</dc:format>
        <dc:type
           rdf:resource="http://purl.org/dc/dcmitype/StillImage" />
        <dc:title></dc:title>
      </cc:Work>
    </rdf:RDF>
  </metadata>
  <g
     inkscape:label="Layer 1"
     inkscape:groupmode="layer"
     id="layer1"
     transform="translate(-4.4299473,-77.679234)">
    <path
       style="fill:#000000;stroke-width:0.0846667"
       id="path1028"
       d="" />
    <g
       id="Group"
       style="fill:none;fill-rule:evenodd;stroke:none;stroke-width:1;filter:url(#filter1573)"
       transform="matrix(0.26458333,0,0,0.26458333,5.1130386,78.285887)">
      <path
         d="m 50.299128,6.9085408 c -1.825302,0 -3.385587,0.6615663 -4.422322,1.8460357 V 7.1845714 H 42.165944 V 21.713112 h 3.765939 v -7.885015 c 0,-2.13373 1.378209,-3.567015 3.429,-3.567015 1.922495,0 3.07003,1.260928 3.07003,3.373923 v 8.078107 h 3.765939 V 13.30325 c 0,-4.0037398 -2.204357,-6.3947092 -5.897724,-6.3947092"
         id="Fill-11"
         fill="#2a2e61" />
      <path
         d="m 70.338561,14.435235 c 0,2.518617 -1.638689,4.146291 -4.174153,4.146291 -2.376066,0 -4.03549,-1.682751 -4.03549,-4.091215 0,-1.202612 0.376465,-2.175847 1.150128,-2.976076 0.751633,-0.776255 1.750138,-1.170215 2.968301,-1.170215 0.988138,0 1.772816,0.230674 2.397449,0.706276 L 69.040699,11.350949 69.81501,8.1111531 69.629694,7.985449 C 68.655163,7.3258265 67.480413,6.9914796 66.136546,6.9914796 c -2.219908,0 -4.079551,0.7179388 -5.527092,2.1369694 -1.417735,1.417735 -2.136969,3.221653 -2.136969,5.361862 0,2.110403 0.699796,3.895531 2.079301,5.304194 1.391168,1.419679 3.223597,2.138913 5.446745,2.138913 1.860938,0 3.497035,-0.62852 4.505908,-1.687285 v 1.466979 H 74.1045 V 7.1845714 h -3.765939 v 7.2506636"
         id="Fill-12"
         fill="#2a2e61" />
      <path
         d="m 85.507286,6.9085408 c -1.825301,0 -3.385587,0.6622143 -4.421674,1.8460357 V 7.1845714 h -3.71151 V 21.713112 h 3.766587 v -7.885015 c 0,-2.13373 1.378209,-3.567015 3.429,-3.567015 1.921847,0 3.07003,1.260928 3.07003,3.373923 v 8.078107 h 3.765939 V 13.30325 c 0,-4.0037398 -2.205005,-6.3947092 -5.898372,-6.3947092"
         id="Fill-13"
         fill="#2a2e61" />
      <path
         d="m 105.54737,14.186418 c 0,2.669592 -1.63869,4.395108 -4.1748,4.395108 -2.37607,0 -4.035494,-1.682751 -4.035494,-4.091215 0,-1.202612 0.376465,-2.175847 1.150776,-2.976076 0.762,-0.787919 1.715148,-1.170215 2.912578,-1.170215 1.00304,0 1.75273,0.189852 2.22833,0.565021 l 0.39785,0.313612 0.77755,-3.253403 -0.1905,-0.1244082 c -0.86503,-0.5663163 -1.96397,-0.8533622 -3.26831,-0.8533622 -2.221202,0 -4.080197,0.7179388 -5.52709,2.1369694 -1.418382,1.417735 -2.136969,3.221653 -2.136969,5.361862 0,2.111051 0.699796,3.896179 2.079301,5.304194 1.391168,1.419679 3.223597,2.138913 5.446748,2.138913 1.83048,0 3.44779,-0.640183 4.50461,-1.750137 v 1.529831 h 3.60136 V 0.36868878 h -3.76594 V 14.186418"
         id="Fill-14"
         fill="#2a2e61" />
      <path
         d="m 123.37208,14.462449 c 0,1.211036 -0.38554,2.211485 -1.14689,2.971541 -0.76071,0.761352 -1.73329,1.147536 -2.88925,1.147536 -1.19095,0 -2.14539,-0.375817 -2.91647,-1.147536 -0.7607,-0.760704 -1.14688,-1.760505 -1.14688,-2.971541 0,-1.211036 0.38618,-2.210837 1.15077,-2.975429 0.762,-0.787918 1.7145,-1.170862 2.91258,-1.170862 1.16309,0 2.13373,0.393959 2.88925,1.17475 0.76135,0.760056 1.14689,1.760505 1.14689,2.971541 z m 1.3808,-5.334 c -1.41774,-1.4177347 -3.24045,-2.1369694 -5.41694,-2.1369694 -2.19464,0 -4.03614,0.7283061 -5.47396,2.1667755 -1.41644,1.4455969 -2.13438,3.2579389 -2.13438,5.3871329 0,2.085132 0.71859,3.861188 2.13697,5.278923 l 0.002,0.0019 c 1.4268,1.398296 3.26636,2.107163 5.46942,2.107163 2.17585,0 3.9992,-0.718586 5.41953,-2.138913 1.41644,-1.444949 2.13438,-3.239148 2.13438,-5.332056 0,-2.121418 -0.71859,-3.916265 -2.13697,-5.334 z"
         id="Fill-15"
         fill="#2a2e61" />
      <path
         d="m 3.5177704,21.705985 c -0.3213877,0 -0.6427755,-0.122465 -0.8877041,-0.367393 L 0.37257653,19.073326 c -0.48985714,-0.489857 -0.48985714,-1.285551 0,-1.775408 L 11.695015,5.9722398 9.4368776,8.2375051 c -0.4892092,0.4892092 -0.4892092,1.285551 0,1.7747599 l 3.1477854,3.147786 -8.1791885,8.178541 C 4.1605459,21.58352 3.8391582,21.705985 3.5177704,21.705985 M 14.603056,7.1048724 13.470424,5.9722398 C 13.225495,5.7273112 12.904755,5.6048469 12.583367,5.6048469 c 6.48e-4,0 6.48e-4,0 0.0013,0 0.321388,0 0.642776,0.1224643 0.889,0.3673929 l 1.129393,1.1326326"
         id="Fill-16"
         fill="#78aa79" />
      <path
         d="m 20.763204,21.338592 -8.178541,-8.178541 3.147138,-3.147786 c 0.489857,-0.4892089 0.489857,-1.2855507 0,-1.7747599 l -1.128745,-1.1326327 7.047204,7.0472046 -3.144546,3.145841 c -0.489857,0.489857 -0.489857,1.285551 0,1.775408 l 2.25749,2.265266 M 11.695015,5.9722398 c 0.244929,-0.2449286 0.566317,-0.3673929 0.887704,-0.3673929 h 6.48e-4 c -0.320739,0 -0.642127,0.1224643 -0.888352,0.3673929"
         id="Fill-17"
         fill="#78aa79" />
      <path
         d="M 12.584663,13.160051 9.4368776,10.012265 c -0.4892092,-0.4892089 -0.4892092,-1.2855507 0,-1.7747599 L 11.695015,5.9722398 c 0.246225,-0.2449286 0.567613,-0.3673929 0.888352,-0.3673929 0.321388,0 0.642128,0.1224643 0.887057,0.3673929 l 1.132632,1.1326326 1.128745,1.1326327 c 0.489857,0.4892092 0.489857,1.285551 0,1.7747599 l -3.147138,3.147786"
         id="Fill-18"
         fill="#34834c" />
      <path
         d="m 21.650908,21.705985 c -0.321388,0 -0.642775,-0.122465 -0.887704,-0.367393 0.244929,0.244928 0.566316,0.367393 0.887704,0.367393 0.321388,0 0.642776,-0.122465 0.887704,-0.367393 l 2.25749,-2.265266 c 0.489857,-0.489857 0.489857,-1.285551 0,-1.775408 L 21.65026,14.152077 29.827505,5.9722398 c 0.244929,-0.2449286 0.566316,-0.3673929 0.888352,-0.3673929 0.322036,0 0.644072,0.1224643 0.890944,0.3673929 l 2.253602,2.2652653 c 0.493745,0.4892092 0.493745,1.285551 0,1.7747599 L 22.538612,21.338592 c -0.244928,0.244928 -0.566316,0.367393 -0.887704,0.367393"
         id="Fill-19"
         fill="#2a2e61" />
      <path
         d="m 21.650908,21.705985 c -0.321388,0 -0.642775,-0.122465 -0.887704,-0.367393 l -2.25749,-2.265266 c -0.489857,-0.489857 -0.489857,-1.285551 0,-1.775408 l 3.144546,-3.145841 3.145842,3.145841 c 0.489857,0.489857 0.489857,1.285551 0,1.775408 l -2.25749,2.265266 c -0.244928,0.244928 -0.566316,0.367393 -0.887704,0.367393"
         id="Fill-20"
         fill="#222537" />
    </g>
  </g>
</svg>
