<?xml version="1.0" encoding="UTF-8"?>
<svg width="5px" height="9px" viewBox="0 0 5 9" version="1.1" xmlns="http://www.w3.org/2000/svg" xmlns:xlink="http://www.w3.org/1999/xlink">
    <title>FE4D3307-DA9B-48ED-BF69-0E3EB040B7CB</title>
    <g id="SalezShark-Parent-Website" stroke="none" stroke-width="1" fill="none" fill-rule="evenodd">
        <g id="Contact-Dropdown_v3" transform="translate(-1263.000000, -227.000000)" fill="#D83F87" fill-rule="nonzero">
            <g id="Header_Menu-3" transform="translate(30.000000, 20.000000)">
                <g id="Numbers--Dropdown" transform="translate(1124.000000, 54.000000)">
                    <g id="1" transform="translate(20.000000, 20.000000)">
                        <g id="CTA" transform="translate(0.000000, 130.000000)">
                            <path d="M89.2910731,3.21629553 C89.6242674,2.88310122 90.1644822,2.88310122 90.4976765,3.21629553 L93.7089269,6.42754591 C94.0421212,6.76074023 94.0421212,7.30095496 93.7089269,7.63414928 C93.6788175,7.6642587 93.6470175,7.69164725 93.6138326,7.71631494 L93.6063755,7.72698666 L93.6063755,7.72698666 L93.5330369,7.81003924 L90.5566866,10.7863896 C90.2124029,11.1306732 89.6542088,11.1306732 89.3099251,10.7863896 L89.3099251,10.7863896 L89.2944427,10.7709071 C88.950159,10.4266234 88.950159,9.86842931 89.2944427,9.52414565 L89.2944427,9.52414565 L91.8426436,6.97494599 L89.2910731,4.4228989 C88.9578788,4.08970458 88.9578788,3.54948985 89.2910731,3.21629553 Z" id="ic_arrow-copy-4" transform="translate(91.500000, 7.000000) rotate(-360.000000) translate(-91.500000, -7.000000) "></path>
                        </g>
                    </g>
                </g>
            </g>
        </g>
    </g>
</svg>