<?xml version="1.0" encoding="UTF-8"?>
<svg xmlns="http://www.w3.org/2000/svg" xmlns:xlink="http://www.w3.org/1999/xlink" width="160px" height="28px" viewBox="0 0 160 28" version="1.1">
<defs>
<linearGradient id="linear0" gradientUnits="userSpaceOnUse" x1="1.01" y1="17.87" x2="158.99" y2="17.87" >
<stop offset="0" style="stop-color:rgb(83.137255%,24.313725%,52.156863%);stop-opacity:1;"/>
<stop offset="1" style="stop-color:rgb(16.470588%,10.588235%,23.921569%);stop-opacity:1;"/>
</linearGradient>
<linearGradient id="linear1" gradientUnits="userSpaceOnUse" x1="100.26" y1="14.25" x2="123.77" y2="14.25" >
<stop offset="0" style="stop-color:rgb(83.137255%,24.313725%,52.156863%);stop-opacity:1;"/>
<stop offset="1" style="stop-color:rgb(16.470588%,10.588235%,23.921569%);stop-opacity:1;"/>
</linearGradient>
</defs>
<g id="surface1">
<path style=" stroke:none;fill-rule:evenodd;fill:url(#linear0);" d="M 158.941406 27.03125 L 155.988281 22.179688 L 153.039062 17.328125 C 152.96875 17.210938 152.96875 17.070312 153.039062 16.949219 L 155.511719 12.828125 L 157.980469 8.710938 C 158.128906 8.46875 157.949219 8.160156 157.671875 8.160156 L 152.988281 8.160156 C 152.859375 8.160156 152.738281 8.230469 152.679688 8.339844 L 150.46875 12.039062 L 148.261719 15.738281 C 148.230469 15.789062 148.148438 15.769531 148.148438 15.710938 L 148.148438 8.53125 C 148.148438 8.328125 147.988281 8.171875 147.789062 8.171875 L 143.671875 8.171875 C 143.46875 8.171875 143.308594 8.328125 143.308594 8.53125 L 143.308594 27.21875 C 143.308594 27.421875 143.46875 27.578125 143.671875 27.578125 L 147.789062 27.578125 C 147.988281 27.578125 148.148438 27.421875 148.148438 27.21875 L 148.148438 18.558594 C 148.148438 18.5 148.230469 18.480469 148.261719 18.53125 L 150.960938 22.96875 L 153.660156 27.410156 C 153.730469 27.519531 153.839844 27.578125 153.96875 27.578125 L 158.648438 27.578125 C 158.929688 27.578125 159.109375 27.269531 158.960938 27.03125 M 130.578125 13.078125 L 130.578125 16.109375 C 130.578125 16.109375 130.609375 16.171875 130.640625 16.171875 L 133.851562 16.171875 C 134.738281 16.171875 135.449219 15.441406 135.421875 14.539062 C 135.390625 13.679688 134.640625 13.011719 133.78125 13.011719 L 130.628906 13.011719 C 130.628906 13.011719 130.570312 13.039062 130.570312 13.070312 M 135.621094 27.378906 L 133.878906 24.289062 L 132.140625 21.199219 C 132.078125 21.089844 131.949219 21.019531 131.820312 21.019531 L 130.640625 21.019531 C 130.640625 21.019531 130.578125 21.050781 130.578125 21.078125 L 130.578125 27.210938 C 130.578125 27.410156 130.421875 27.570312 130.21875 27.570312 L 126.101562 27.570312 C 125.898438 27.570312 125.738281 27.410156 125.738281 27.210938 L 125.738281 8.53125 C 125.738281 8.328125 125.898438 8.171875 126.101562 8.171875 L 133.710938 8.171875 C 135.449219 8.171875 137.058594 8.851562 138.25 9.960938 C 139.449219 11.078125 140.21875 12.640625 140.28125 14.390625 C 140.320312 15.589844 140.03125 16.710938 139.5 17.691406 C 138.949219 18.699219 138.140625 19.539062 137.148438 20.128906 C 137.121094 20.148438 137.109375 20.179688 137.128906 20.210938 L 139.039062 23.628906 L 140.949219 27.050781 C 141.089844 27.289062 140.910156 27.589844 140.628906 27.589844 L 135.949219 27.589844 C 135.820312 27.589844 135.699219 27.519531 135.628906 27.410156 M 92.78125 8.539062 L 92.78125 15.398438 C 92.78125 15.398438 92.75 15.460938 92.71875 15.460938 L 87.019531 15.460938 C 87.019531 15.460938 86.960938 15.429688 86.960938 15.398438 L 86.960938 8.539062 C 86.960938 8.339844 86.800781 8.179688 86.601562 8.179688 L 82.480469 8.179688 C 82.28125 8.179688 82.121094 8.339844 82.121094 8.539062 L 82.121094 27.230469 C 82.121094 27.429688 82.28125 27.589844 82.480469 27.589844 L 86.601562 27.589844 C 86.800781 27.589844 86.960938 27.429688 86.960938 27.230469 L 86.960938 20.371094 C 86.960938 20.371094 86.988281 20.308594 87.019531 20.308594 L 92.71875 20.308594 C 92.71875 20.308594 92.78125 20.339844 92.78125 20.371094 L 92.78125 27.230469 C 92.78125 27.429688 92.941406 27.589844 93.140625 27.589844 L 97.261719 27.589844 C 97.460938 27.589844 97.621094 27.429688 97.621094 27.230469 L 97.621094 8.53125 C 97.621094 8.328125 97.460938 8.171875 97.261719 8.171875 L 93.140625 8.171875 C 92.941406 8.171875 92.78125 8.328125 92.78125 8.53125 M 74.378906 15.511719 C 73.710938 15.230469 72.058594 14.488281 72.058594 13.761719 C 72.058594 13.03125 73.589844 13.019531 74.25 13.019531 C 75.550781 13.019531 77.25 13.25 78.679688 13.449219 C 78.898438 13.480469 79.089844 13.308594 79.089844 13.089844 L 79.089844 8.929688 C 79.089844 8.75 78.949219 8.589844 78.769531 8.570312 C 76.859375 8.320312 74.949219 8.160156 73.511719 8.160156 C 71.699219 8.160156 70.058594 8.671875 68.800781 9.921875 C 67.828125 10.890625 67.210938 12.25 67.210938 13.980469 C 67.210938 15.710938 67.839844 16.859375 68.730469 17.75 C 69.828125 18.851562 71.320312 19.480469 72.488281 19.96875 C 74.429688 20.789062 74.929688 21.128906 74.96875 21.679688 C 75.03125 22.710938 73.308594 22.710938 72.300781 22.710938 C 71.140625 22.710938 69.601562 22.429688 68.140625 22.089844 C 67.910156 22.039062 67.691406 22.210938 67.691406 22.441406 L 67.691406 26.539062 C 67.691406 26.710938 67.808594 26.859375 67.980469 26.898438 C 69.589844 27.238281 71.230469 27.570312 72.539062 27.570312 C 74.671875 27.570312 76.769531 27.148438 78.28125 25.640625 C 79.28125 24.640625 79.808594 23.300781 79.808594 21.738281 C 79.808594 19.980469 79.128906 18.71875 78.199219 17.78125 C 77.039062 16.621094 75.5 15.96875 74.371094 15.488281 M 65.75 27.191406 L 65.75 25.488281 C 65.75 25.289062 65.589844 25.128906 65.390625 25.128906 L 57.621094 25.128906 C 57.328125 25.128906 57.160156 24.808594 57.308594 24.570312 L 60.101562 20.21875 C 61 18.820312 61.988281 17.269531 62.890625 15.871094 L 65.679688 11.519531 C 66.609375 10.070312 65.570312 8.160156 63.839844 8.160156 L 54.710938 8.160156 C 54.511719 8.160156 54.351562 8.320312 54.351562 8.519531 L 54.351562 10.21875 C 54.351562 10.421875 54.511719 10.578125 54.710938 10.578125 L 62.730469 10.578125 C 63.019531 10.578125 63.191406 10.898438 63.039062 11.140625 L 60.25 15.488281 C 59.351562 16.890625 58.359375 18.441406 57.460938 19.839844 L 54.671875 24.191406 C 53.738281 25.640625 54.78125 27.550781 56.511719 27.550781 L 65.390625 27.550781 C 65.589844 27.550781 65.75 27.390625 65.75 27.191406 M 52.421875 10.199219 L 52.421875 8.5 C 52.421875 8.300781 52.261719 8.140625 52.058594 8.140625 L 43.941406 8.140625 C 42.738281 8.140625 41.761719 9.121094 41.761719 10.320312 L 41.761719 25.371094 C 41.761719 26.578125 42.738281 27.550781 43.941406 27.550781 L 52.058594 27.550781 C 52.261719 27.550781 52.421875 27.390625 52.421875 27.191406 L 52.421875 25.488281 C 52.421875 25.289062 52.261719 25.128906 52.058594 25.128906 L 45.398438 25.128906 C 44.730469 25.128906 44.191406 24.589844 44.191406 23.921875 L 44.191406 18.878906 C 44.191406 18.878906 44.21875 18.820312 44.25 18.820312 L 51.101562 18.820312 C 51.300781 18.820312 51.460938 18.660156 51.460938 18.460938 L 51.460938 16.761719 C 51.460938 16.558594 51.300781 16.398438 51.101562 16.398438 L 44.25 16.398438 C 44.25 16.398438 44.191406 16.371094 44.191406 16.339844 L 44.191406 11.789062 C 44.191406 11.121094 44.730469 10.578125 45.398438 10.578125 L 52.058594 10.578125 C 52.261719 10.578125 52.421875 10.421875 52.421875 10.21875 M 18.210938 19.078125 L 23.839844 19.078125 C 23.839844 19.078125 23.910156 19.039062 23.898438 19 L 22.769531 14.929688 L 21.671875 10.941406 C 21.609375 10.730469 21.421875 10.578125 21.199219 10.578125 L 20.839844 10.578125 C 20.621094 10.578125 20.429688 10.730469 20.371094 10.941406 L 19.269531 14.929688 L 18.140625 19 C 18.140625 19 18.160156 19.078125 18.199219 19.078125 M 26.179688 27.308594 L 24.601562 21.550781 C 24.601562 21.550781 24.570312 21.511719 24.539062 21.511719 L 17.511719 21.511719 C 17.511719 21.511719 17.460938 21.53125 17.449219 21.550781 L 15.871094 27.308594 C 15.828125 27.46875 15.679688 27.578125 15.519531 27.578125 L 13.761719 27.578125 C 13.519531 27.578125 13.351562 27.351562 13.410156 27.121094 L 14.648438 22.648438 C 15.03125 21.28125 15.460938 19.730469 15.890625 18.179688 C 16.320312 16.628906 16.75 15.070312 17.128906 13.710938 L 18.21875 9.769531 C 18.480469 8.820312 19.339844 8.171875 20.320312 8.171875 L 21.78125 8.171875 C 22.761719 8.171875 23.621094 8.828125 23.878906 9.769531 L 24.96875 13.710938 C 25.351562 15.078125 25.78125 16.628906 26.210938 18.179688 C 26.640625 19.730469 27.070312 21.289062 27.449219 22.648438 L 28.691406 27.121094 C 28.75 27.351562 28.578125 27.578125 28.339844 27.578125 L 26.578125 27.578125 C 26.421875 27.578125 26.269531 27.46875 26.230469 27.308594 M 7.390625 16.429688 C 5 15.171875 3.429688 14.238281 3.429688 12.769531 C 3.429688 11 5.078125 10.589844 6.820312 10.589844 C 8.371094 10.589844 9.941406 10.71875 11.488281 10.949219 C 11.710938 10.980469 11.910156 10.808594 11.910156 10.589844 L 11.910156 8.871094 C 11.910156 8.691406 11.78125 8.53125 11.601562 8.511719 C 10 8.289062 8.429688 8.160156 6.820312 8.160156 C 5.128906 8.160156 3.441406 8.46875 2.21875 9.691406 C 1.441406 10.46875 1 11.519531 1 12.769531 C 1 14.148438 1.578125 15.210938 2.441406 16.078125 C 3.46875 17.109375 4.910156 17.871094 6.25 18.578125 C 8.621094 19.828125 10.210938 20.699219 10.210938 22.480469 C 10.210938 24.761719 8.601562 25.148438 6.328125 25.148438 C 4.71875 25.148438 2.960938 24.980469 1.921875 24.78125 C 1.699219 24.738281 1.488281 24.910156 1.488281 25.140625 L 1.488281 26.871094 C 1.488281 27.050781 1.621094 27.199219 1.789062 27.230469 C 2.960938 27.429688 4.609375 27.578125 6.328125 27.578125 C 8.070312 27.578125 9.890625 27.441406 11.25 26.078125 C 12.171875 25.160156 12.628906 23.871094 12.628906 22.238281 C 12.628906 20.941406 12.121094 19.859375 11.191406 18.929688 C 10.160156 17.898438 8.71875 17.140625 7.378906 16.429688 M 33.730469 25.148438 L 40.390625 25.148438 C 40.589844 25.148438 40.75 25.308594 40.75 25.511719 L 40.75 27.210938 C 40.75 27.410156 40.589844 27.570312 40.390625 27.570312 L 32.269531 27.570312 C 31.070312 27.570312 30.089844 26.589844 30.089844 25.390625 L 30.089844 8.53125 C 30.089844 8.328125 30.25 8.171875 30.449219 8.171875 L 32.148438 8.171875 C 32.351562 8.171875 32.511719 8.328125 32.511719 8.53125 L 32.511719 23.941406 C 32.511719 24.609375 33.050781 25.148438 33.71875 25.148438 "/>
<path style=" stroke:none;fill-rule:evenodd;fill:url(#linear1);" d="M 123.730469 27.039062 C 122.601562 24.929688 121.808594 22.859375 121.28125 20.871094 C 120.671875 18.558594 120.421875 16.351562 120.410156 14.289062 C 120.398438 11.851562 120.710938 9.628906 121.171875 7.691406 C 121.828125 4.910156 122.789062 2.75 123.46875 1.460938 C 123.609375 1.191406 123.378906 0.878906 123.078125 0.929688 C 119.828125 1.539062 116.71875 2.371094 113.910156 3.640625 C 111 4.960938 108.390625 6.769531 106.261719 9.289062 C 104.390625 11.5 102.878906 14.261719 101.828125 17.730469 C 101.011719 20.421875 100.480469 23.550781 100.261719 27.179688 C 100.25 27.390625 100.410156 27.570312 100.621094 27.570312 L 105.25 27.570312 C 105.449219 27.570312 105.609375 27.410156 105.609375 27.210938 C 105.621094 25.289062 105.800781 23.410156 106.160156 21.609375 C 106.53125 19.71875 107.101562 17.921875 107.878906 16.25 C 108.679688 14.519531 109.710938 12.941406 110.960938 11.558594 C 112.199219 10.191406 113.660156 9.019531 115.359375 8.078125 C 115.621094 7.929688 115.949219 8.160156 115.898438 8.449219 C 115.640625 10.039062 115.5 11.648438 115.488281 13.261719 C 115.46875 14.871094 115.578125 16.480469 115.789062 18.078125 C 116.011719 19.679688 116.328125 21.261719 116.761719 22.808594 C 117.191406 24.371094 117.730469 25.890625 118.371094 27.359375 C 118.429688 27.488281 118.558594 27.578125 118.710938 27.578125 L 123.410156 27.578125 C 123.691406 27.578125 123.859375 27.28125 123.730469 27.039062 "/>
</g>
</svg>
