<?xml version="1.0" encoding="UTF-8"?>
<svg width="674px" height="153px" viewBox="0 0 674 153" version="1.1" xmlns="http://www.w3.org/2000/svg" xmlns:xlink="http://www.w3.org/1999/xlink">
    <!-- Generator: Sketch 52.3 (67297) - http://www.bohemiancoding.com/sketch -->
    <title>VALUE</title>
    <desc>Created with Sketch.</desc>
    <defs>
        <linearGradient x1="50%" y1="0%" x2="50%" y2="100%" id="linearGradient-1">
            <stop stop-color="#CFD6E6" offset="0%"></stop>
            <stop stop-color="#CFD6E6" stop-opacity="0.166383605" offset="100%"></stop>
        </linearGradient>
    </defs>
    <g id="Page-1" stroke="none" stroke-width="1" fill="none" fill-rule="evenodd" opacity="0.199288504">
        <g id="desktop2560" transform="translate(-1326.000000, -824.000000)" fill="url(#linearGradient-1)">
            <g id="Group-20" transform="translate(-272.000000, -104.000000)">
                <g id="Group-19">
                    <path d="M1653.03711,946.75 L1641.65527,948.800781 L1668.11035,1038.31738 L1669.95605,1046.52051 L1670.57129,1046.52051 L1672.31445,1038.52246 L1698.87207,948.800781 L1687.59277,946.75 L1687.59277,928.703125 L1742.14355,928.703125 L1742.14355,946.75 L1729.63379,948.390625 L1685.64453,1078 L1654.88281,1078 L1610.79102,948.390625 L1598.48633,946.75 L1598.48633,928.703125 L1653.03711,928.703125 L1653.03711,946.75 Z M1727.17285,1060.05566 L1737.83691,1058.51758 L1783.26172,928.703125 L1813.9209,928.703125 L1859.03809,1058.51758 L1869.70215,1060.05566 L1869.70215,1078 L1818.84277,1078 L1818.84277,1060.05566 L1829.19922,1058.20996 L1822.63672,1037.70215 L1774.23828,1037.70215 L1767.67578,1058.20996 L1778.03223,1060.05566 L1778.03223,1078 L1727.17285,1078 L1727.17285,1060.05566 Z M1781.31348,1015.65625 L1815.56152,1015.65625 L1798.74512,963.053711 L1798.12988,963.053711 L1781.31348,1015.65625 Z M1879.5459,1078 L1879.5459,1060.05566 L1895.43945,1056.97949 L1895.43945,949.826172 L1879.5459,946.75 L1879.5459,928.703125 L1941.37695,928.703125 L1941.37695,946.75 L1925.38086,949.826172 L1925.38086,1055.03125 L1967.52441,1055.03125 L1968.95996,1036.2666 L1991.82617,1036.2666 L1991.82617,1078 L1879.5459,1078 Z M2055.09277,928.703125 L2055.09277,946.75 L2039.09668,949.826172 L2039.09668,1027.75586 C2039.09668,1037.59966 2041.74558,1044.96531 2047.04346,1049.85303 C2052.34134,1054.74075 2059.60445,1057.18457 2068.83301,1057.18457 C2078.19829,1057.18457 2085.54685,1054.75784 2090.87891,1049.9043 C2096.21096,1045.05076 2098.87695,1037.66802 2098.87695,1027.75586 L2098.87695,949.826172 L2082.9834,946.75 L2082.9834,928.703125 L2144.81445,928.703125 L2144.81445,946.75 L2128.81836,949.826172 L2128.81836,1027.75586 C2128.81836,1044.50399 2123.2984,1057.42378 2112.2583,1066.51562 C2101.21821,1075.60747 2086.74325,1080.15332 2068.83301,1080.15332 C2050.99112,1080.15332 2036.58453,1075.60747 2025.61279,1066.51562 C2014.64106,1057.42378 2009.15527,1044.50399 2009.15527,1027.75586 L2009.15527,949.826172 L1993.26172,946.75 L1993.26172,928.703125 L2055.09277,928.703125 Z M2250.01953,1012.375 L2199.46777,1012.375 L2199.46777,1055.03125 L2247.66113,1055.03125 L2248.99414,1037.18945 L2271.75781,1037.18945 L2271.75781,1078 L2153.63281,1078 L2153.63281,1060.05566 L2169.52637,1056.97949 L2169.52637,949.826172 L2153.63281,946.75 L2153.63281,928.703125 L2271.55273,928.703125 L2271.55273,969.616211 L2248.58398,969.616211 L2247.25098,951.774414 L2199.46777,951.774414 L2199.46777,989.303711 L2250.01953,989.303711 L2250.01953,1012.375 Z" id="VALUE"></path>
                </g>
            </g>
        </g>
    </g>
</svg>