<?xml version="1.0" encoding="UTF-8"?>
<svg width="2560px" height="755px" viewBox="0 0 2560 755" version="1.1" xmlns="http://www.w3.org/2000/svg" xmlns:xlink="http://www.w3.org/1999/xlink">
    <!-- Generator: Sketch 52.3 (67297) - http://www.bohemiancoding.com/sketch -->
    <title>Group 12</title>
    <desc>Created with Sketch.</desc>
    <defs>
        <linearGradient x1="75.7857469%" y1="372.540907%" x2="5.25690451%" y2="14.0426611%" id="linearGradient-1">
            <stop stop-color="#E9EDF4" stop-opacity="0.376981431" offset="0%"></stop>
            <stop stop-color="#CFD6E6" stop-opacity="0.196529665" offset="100%"></stop>
        </linearGradient>
        <linearGradient x1="50%" y1="0%" x2="53.6214041%" y2="63.0589468%" id="linearGradient-2">
            <stop stop-color="#FF7235" offset="0%"></stop>
            <stop stop-color="#FF7235" stop-opacity="0.277570199" offset="100%"></stop>
        </linearGradient>
        <linearGradient x1="50%" y1="0%" x2="50%" y2="76.2683311%" id="linearGradient-3">
            <stop stop-color="#FF7235" offset="0%"></stop>
            <stop stop-color="#FF7235" stop-opacity="0.277570199" offset="100%"></stop>
        </linearGradient>
        <linearGradient x1="0%" y1="0%" x2="50%" y2="100%" id="linearGradient-4">
            <stop stop-color="#FFAB65" stop-opacity="0.392634737" offset="0%"></stop>
            <stop stop-color="#FF7235" offset="100%"></stop>
        </linearGradient>
        <linearGradient x1="0%" y1="19.9468532%" x2="50%" y2="63.123305%" id="linearGradient-5">
            <stop stop-color="#FFAB65" stop-opacity="0.353430707" offset="0%"></stop>
            <stop stop-color="#FF7235" offset="100%"></stop>
        </linearGradient>
    </defs>
    <g id="Page-1" stroke="none" stroke-width="1" fill="none" fill-rule="evenodd">
        <g id="desktop2560" transform="translate(0.000000, -1523.000000)" fill-rule="nonzero">
            <g id="Group-20" transform="translate(-272.000000, -104.000000)">
                <g id="Group-19">
                    <g id="Group-12" transform="translate(139.000000, 1627.000000)">
                        <g id="Group-17" transform="translate(1454.000000, 0.000000)" fill="url(#linearGradient-1)">
                            <path d="M1672.62066,672.827094 C1526.0809,604.321408 1403.20682,570.068565 1303.9984,570.068565 C1144.13296,570.068565 1047.2821,645.334198 884.066918,633.06097 C504.421587,604.512927 29.3837886,466.250148 29.3837886,397.000474 C29.3837886,297.979335 624.806452,164.993575 433.543956,103.949192 C285.308283,56.6374842 780.763972,11.5331632 1144.13296,34.9374004 C1316.84533,46.0616334 1473.13436,93.6696389 1613.00007,177.761417 L1613.00007,290.564798 L1672.62066,672.827094 Z" id="Path-3" opacity="0.567313058"></path>
                            <path d="M1643.23687,644.266136 C1496.69711,575.76045 1373.82303,541.507607 1274.61461,541.507607 C1114.74917,541.507607 1017.89831,616.77324 854.683129,604.500011 C475.037798,575.951968 2.15519355e-13,437.689189 0,368.439516 C0,269.418377 595.422664,136.432616 404.160168,75.3882331 C255.924494,28.0765255 751.380184,-17.0277955 1114.74917,6.37644168 C1287.46154,17.5006747 1443.75057,65.1086802 1583.61628,149.200458 L1583.61628,262.00384 L1643.23687,644.266136 Z" id="Path-3" opacity="0.261207217"></path>
                        </g>
                        <path d="M673.55303,456.823529 L709.083333,453.375 L858.310606,43 L957.795455,43 L1103.4697,453.375 L1139,456.823529 L1139,512 L972.007576,512 L972.007576,456.823529 L1003.98485,449.926471 L982.666667,384.404412 L826.333333,384.404412 L805.015152,449.926471 L836.992424,456.823529 L836.992424,512 L670,512 L670,456.823529 L673.55303,456.823529 Z M843,328 L955,328 L900.806452,155 L897.193548,155 L843,328 Z" id="Shape" fill="url(#linearGradient-2)" opacity="0.105794271"></path>
                        <path d="M1137.27273,275.235294 L1150,274 L1203.45455,127 L1239.09091,127 L1291.27273,274 L1304,275.235294 L1304,295 L1244.18182,295 L1244.18182,275.235294 L1255.63636,272.764706 L1248,249.294118 L1192,249.294118 L1184.36364,272.764706 L1195.81818,275.235294 L1195.81818,295 L1136,295 L1136,275.235294 L1137.27273,275.235294 Z M1198,229 L1238,229 L1218.64516,167 L1217.35484,167 L1198,229 Z" id="Shape" fill="url(#linearGradient-3)" opacity="0.105794271"></path>
                        <path d="M191,755 L191,645.857143 C236.208452,645.857143 272.857143,609.208452 272.857143,564 C272.857143,518.791548 236.208452,482.142857 191,482.142857 C145.791548,482.142857 109.142857,518.791548 109.142857,564 L0,564 C0,458.513613 85.5136128,373 191,373 C296.486387,373 382,458.513613 382,564 C382,669.486387 296.486387,755 191,755 Z" id="Oval" fill="url(#linearGradient-4)" opacity="0.13734654" transform="translate(191.000000, 564.000000) scale(-1, 1) rotate(90.000000) translate(-191.000000, -564.000000) "></path>
                        <path d="M1861,497 L1861,467 C1872.59798,467 1882,457.59798 1882,446 C1882,434.40202 1872.59798,425 1861,425 C1849.40202,425 1840,434.40202 1840,446 L1810,446 C1810,417.833478 1832.83348,395 1861,395 C1889.16652,395 1912,417.833478 1912,446 C1912,474.166522 1889.16652,497 1861,497 Z" id="Oval" fill="url(#linearGradient-5)" opacity="0.068359375" transform="translate(1861.000000, 446.000000) scale(1, -1) translate(-1861.000000, -446.000000) "></path>
                    </g>
                </g>
            </g>
        </g>
    </g>
</svg>