<?xml version="1.0" encoding="UTF-8"?>
<svg width="2556px" height="284px" viewBox="0 0 2556 284" version="1.1" xmlns="http://www.w3.org/2000/svg" xmlns:xlink="http://www.w3.org/1999/xlink">
    <!-- Generator: Sketch 52.3 (67297) - http://www.bohemiancoding.com/sketch -->
    <title>Path 2</title>
    <desc>Created with Sketch.</desc>
    <g id="Page-1" stroke="none" stroke-width="1" fill="none" fill-rule="evenodd" opacity="0.443150112" stroke-dasharray="8">
        <g id="desktop2560" transform="translate(-4.000000, -1085.000000)" fill-rule="nonzero" stroke="#CFD6E6" stroke-width="4">
            <g id="Group-20" transform="translate(-272.000000, -104.000000)">
                <g id="Group-19">
                    <path d="M217.054054,1326.87805 C252.857909,1272.67688 313.784213,1251.26516 399.832968,1262.64289 C528.9061,1279.70947 529.72734,1372.28242 618.810811,1380 C707.894282,1387.71758 753.089101,1191.12172 722.436006,1191.7142 C691.782911,1192.30668 692.832011,1290.72181 722.436006,1307.10484 C772.13513,1334.60863 888.902203,1287.21202 904.679985,1300.55155 C929.856029,1321.83697 915.132294,1356.91669 948.692487,1362.56924 C971.06595,1366.3376 1017.76348,1356.00132 1088.78509,1331.5604 C1121.89533,1304.18897 1159.45161,1293.85269 1201.4539,1300.55155 C1264.45735,1310.59984 1250.92477,1357.16246 1283.21257,1362.56924 C1304.73776,1366.17376 1339.21024,1355.83748 1386.62998,1331.5604 C1422.93497,1313.94232 1450.49168,1303.60604 1469.30011,1300.55155 C1497.51277,1295.96982 1528.20745,1331.5604 1576.25493,1331.5604 C1624.3024,1331.5604 1646.68371,1305.19756 1664.10357,1300.55155 C1694.65099,1292.40432 1687.42151,1273.18789 1687.42151,1260.27854 C1687.42151,1247.36919 1679.75627,1240.50129 1670.50551,1231.14148 C1661.25476,1221.78167 1657.52954,1216.059 1646.83296,1226.87241 C1636.13638,1237.68583 1643.69187,1258.2313 1646.83296,1262.64289 C1649.97405,1267.05448 1640.03184,1283.81412 1716.6383,1300.55155 C1767.70927,1311.70984 1829.89036,1322.04612 1903.18158,1331.5604 C1922.98493,1314.28971 1968.64567,1314.28971 2040.1638,1331.5604 C2147.44099,1357.46643 2116.74998,1396.92683 2173.86473,1396.92683 C2230.97949,1396.92683 2227.09907,1335.19029 2270.44622,1331.5604 C2313.79338,1327.9305 2285.14809,1388.34768 2376,1380 C2466.85191,1371.65232 2466.37589,1269.25076 2567.41551,1304.27419 C2668.45512,1339.29762 2741.53339,1448.62156 2771,1467.6098 C2790.64441,1480.26863 2836.59149,1458.3987 2908.84126,1402" id="Path-2"></path>
                </g>
            </g>
        </g>
    </g>
</svg>