<?xml version="1.0" encoding="UTF-8"?>
<svg width="2560px" height="1479px" viewBox="0 0 2560 1479" version="1.1" xmlns="http://www.w3.org/2000/svg" xmlns:xlink="http://www.w3.org/1999/xlink">
    <!-- Generator: Sketch 52.3 (67297) - http://www.bohemiancoding.com/sketch -->
    <title>Group 18</title>
    <desc>Created with Sketch.</desc>
    <defs>
        <linearGradient x1="36.6711156%" y1="18.4660316%" x2="0%" y2="85.5407114%" id="linearGradient-1">
            <stop stop-color="#E9EDF4" stop-opacity="0.376981431" offset="0%"></stop>
            <stop stop-color="#CFD6E6" stop-opacity="0.196529665" offset="100%"></stop>
        </linearGradient>
        <linearGradient x1="0%" y1="22.2960531%" x2="55.0137217%" y2="88.4503079%" id="linearGradient-2">
            <stop stop-color="#FF7235" stop-opacity="0.549847147" offset="0%"></stop>
            <stop stop-color="#FF7235" stop-opacity="0.353374302" offset="100%"></stop>
            <stop stop-color="#FF7235" stop-opacity="0.262483016" offset="100%"></stop>
        </linearGradient>
        <linearGradient x1="0%" y1="0%" x2="50%" y2="100%" id="linearGradient-3">
            <stop stop-color="#FFAB65" stop-opacity="0.392634737" offset="0%"></stop>
            <stop stop-color="#FF7235" offset="100%"></stop>
        </linearGradient>
    </defs>
    <g id="Page-1" stroke="none" stroke-width="1" fill="none" fill-rule="evenodd">
        <g id="desktop2560" transform="translate(0.000000, -2463.000000)" fill-rule="nonzero">
            <g id="Group-12" transform="translate(-272.000000, -104.000000)">
                <g id="Group-20">
                    <g id="Group-19" transform="translate(0.000000, 134.000000)">
                        <g id="Group-18" transform="translate(0.000000, 2433.000000)">
                            <g id="Group-21">
                                <path d="M685,195 C838.342692,305.433632 981.522427,368.551829 1114.5392,384.35459 C1314.06437,408.058733 1431.43464,593.469503 1655.83595,617.396723 C1880.23726,641.323943 1970.37452,709.693369 2034.58258,725.704205 C2098.79064,741.71504 2420.1855,806.671569 2498.1855,811 C2615.89149,817.531824 2688.86373,658.521178 2832,659.049559 C2975.13627,659.57794 2983,747.702447 2983,790.18103 C2983,813.28547 3288.06511,1010.24079 3155.12471,1118.08708 C3125.12039,1142.42773 3000.80097,1154.03993 2832,1149 C2663.19903,1143.96007 2574.74278,1060.38875 2479.02206,1060.38875 C2292.29312,1060.38875 2035.65455,1205.0472 1868.499,1216.79299 C1431.82821,1247.47726 1320.49106,1172.82322 1079.35856,1216.79299 C838.226059,1260.76277 819.702703,1307.27698 655.702703,1328.56083 C491.702703,1349.84468 110.947199,1332.14451 51.7642584,1204 C-125.19343,820.846407 212.324324,270.470842 212.324324,128 C212.324324,-62.1197661 369.882883,-39.7864328 685,195 Z" id="Path-3" fill="url(#linearGradient-1)" opacity="0.43"></path>
                                <path d="M841,211 C1084.62623,279.800411 1071.01404,376.650448 1270.5392,400.35459 C1470.06437,424.058733 1587.43464,609.469503 1811.83595,633.396723 C2036.23726,657.323943 2058.7054,761.300643 2122.91346,777.311478 C2187.12152,793.322314 2383.24051,716.900117 2436.17923,720.906533 C2489.11795,724.91295 2662.81398,754.401738 2718.29399,735.604231 C2776.36412,715.929149 2880.21584,687.524105 3029.84916,650.389098 L3024.10963,1319.93335 C2753.09418,1185.36917 2582.26165,1115.46334 2511.61203,1110.21584 C2331.29968,1096.82316 2191.65455,1221.0472 2024.499,1232.79299 C1587.82821,1263.47726 1476.49106,1188.82322 1235.35856,1232.79299 C1074.60356,1262.10618 943.150706,1303.59266 841,1357.25243 C517.054018,1529.98885 308.441406,1517.6641 215.162162,1320.27817 C121.882919,1122.89225 134.495531,720.466188 253,113 C482.582514,132.466393 678.582514,165.133059 841,211 Z" id="Path-3" fill="url(#linearGradient-1)" opacity="0.57"></path>
                                <path d="M2594.5,1108 L2594.5,1042.62963 C2655.8752,1042.62963 2705.62963,992.8752 2705.62963,931.5 C2705.62963,870.1248 2655.8752,820.37037 2594.5,820.37037 C2533.1248,820.37037 2483.37037,870.1248 2483.37037,931.5 L2418,931.5 C2418,834.021742 2497.02174,755 2594.5,755 C2691.97826,755 2771,834.021742 2771,931.5 C2771,1028.97826 2691.97826,1108 2594.5,1108 Z" id="Path" fill="url(#linearGradient-2)" opacity="0.185500372" transform="translate(2594.500000, 931.500000) scale(-1, -1) translate(-2594.500000, -931.500000) "></path>
                                <path d="M2171,419 L2171,350.428571 C2199.40322,350.428571 2222.42857,327.403216 2222.42857,299 C2222.42857,270.596784 2199.40322,247.571429 2171,247.571429 C2142.59678,247.571429 2119.57143,270.596784 2119.57143,299 L2051,299 C2051,232.72583 2104.72583,179 2171,179 C2237.27417,179 2291,232.72583 2291,299 C2291,365.27417 2237.27417,419 2171,419 Z" id="Oval" fill="url(#linearGradient-3)" opacity="0.13734654" transform="translate(2171.000000, 299.000000) scale(-1, -1) rotate(90.000000) translate(-2171.000000, -299.000000) "></path>
                                <path d="M512,1350 L512,1281.42857 C540.403216,1281.42857 563.428571,1258.40322 563.428571,1230 C563.428571,1201.59678 540.403216,1178.57143 512,1178.57143 C483.596784,1178.57143 460.571429,1201.59678 460.571429,1230 L392,1230 C392,1163.72583 445.72583,1110 512,1110 C578.27417,1110 632,1163.72583 632,1230 C632,1296.27417 578.27417,1350 512,1350 Z" id="Oval" fill="url(#linearGradient-3)" opacity="0.13734654" transform="translate(512.000000, 1230.000000) scale(-1, -1) rotate(90.000000) translate(-512.000000, -1230.000000) "></path>
                            </g>
                        </g>
                    </g>
                </g>
            </g>
        </g>
    </g>
</svg>