<?xml version="1.0" encoding="UTF-8"?>
<svg width="2560px" height="797px" viewBox="0 0 2560 797" version="1.1" xmlns="http://www.w3.org/2000/svg" xmlns:xlink="http://www.w3.org/1999/xlink">
    <!-- Generator: Sketch 52.3 (67297) - http://www.bohemiancoding.com/sketch -->
    <title>SCREEN1</title>
    <desc>Created with Sketch.</desc>
    <defs>
        <linearGradient x1="75.7857469%" y1="372.540907%" x2="5.25690451%" y2="14.0426611%" id="linearGradient-1">
            <stop stop-color="#E9EDF4" stop-opacity="0.376981431" offset="0%"></stop>
            <stop stop-color="#CFD6E6" stop-opacity="0.196529665" offset="100%"></stop>
        </linearGradient>
        <linearGradient x1="0%" y1="22.2960531%" x2="55.0137217%" y2="88.4503079%" id="linearGradient-2">
            <stop stop-color="#FF7235" stop-opacity="0.549847147" offset="0%"></stop>
            <stop stop-color="#FF7235" stop-opacity="0.353374302" offset="100%"></stop>
            <stop stop-color="#FF7235" stop-opacity="0.262483016" offset="100%"></stop>
        </linearGradient>
        <linearGradient x1="0%" y1="50%" x2="81.818472%" y2="100%" id="linearGradient-3">
            <stop stop-color="#FF7235" stop-opacity="0.34522192" offset="0%"></stop>
            <stop stop-color="#FF7235" offset="100%"></stop>
        </linearGradient>
        <linearGradient x1="0%" y1="0%" x2="50%" y2="100%" id="linearGradient-4">
            <stop stop-color="#FFAB65" stop-opacity="0.392634737" offset="0%"></stop>
            <stop stop-color="#FF7235" offset="100%"></stop>
        </linearGradient>
    </defs>
    <g id="Page-1" stroke="none" stroke-width="1" fill="none" fill-rule="evenodd">
        <g id="desktop2560" transform="translate(0.000000, -95.000000)" fill-rule="nonzero">
            <g id="Group-20" transform="translate(-272.000000, -104.000000)">
                <g id="Group-19">
                    <g id="SCREEN1" transform="translate(25.000000, 6.000000)">
                        <path d="M654.528324,379.368784 C721.647046,389.607548 1025.20373,274.231801 1363.64865,321.962756 C1502.28468,341.514623 1801.89404,313.221653 2020.78138,345.293088 C2295.30658,385.516599 2479.72072,489.498889 2479.72072,547.034685 C2479.72072,650.44553 1851.54773,789.326681 2053.33033,853.077223 C2209.71949,902.486305 1687.012,949.590146 1303.65644,925.148376 C1030.33821,907.722303 981.958366,786.059343 809,775.992829 C636.041634,765.926314 563.345605,877.807379 456.256794,875.82806 C384.864253,874.508513 315.111989,837.767626 247,765.605398 L248.025232,223 C298.432408,271.598514 352.339223,305.944519 409.745675,326.038016 C495.855354,356.178262 587.409602,369.13002 654.528324,379.368784 Z" id="Path-3" fill="url(#linearGradient-1)" opacity="0.430594308" transform="translate(1363.360362, 577.403746) scale(1, -1) translate(-1363.360362, -577.403746) "></path>
                        <path d="M628.999203,300.736484 C784.333068,335.727699 914.332614,353.223307 1018.99784,353.223307 C1187.65644,353.223307 1289.83444,274.621073 1462.02703,287.438386 C1862.55418,317.251992 2363.72072,461.644098 2363.72072,533.963678 C2363.72072,637.374523 1735.54773,776.255674 1937.33033,840.006216 C2093.71949,889.415298 1571.012,936.519139 1187.65644,912.077369 C914.338211,894.651296 816.366651,770.026415 693,762.921822 C569.633349,755.817228 522.390698,833.687551 472.417725,826.601349 C422.444752,819.515146 246.496266,846.666722 139,745.059496 C-27.1531986,588.008779 -37.9839033,482.448992 78,313.736484 C155.322602,201.261479 338.989003,196.928146 628.999203,300.736484 Z" id="Path-3" fill="url(#linearGradient-1)" opacity="0.567313058" transform="translate(1182.348706, 572.368242) scale(1, -1) translate(-1182.348706, -572.368242) "></path>
                        <g id="Group-17" transform="translate(2501.000000, 0.000000)" fill="url(#linearGradient-1)">
                            <path d="M1672.62066,672.827094 C1526.0809,604.321408 1403.20682,570.068565 1303.9984,570.068565 C1144.13296,570.068565 1047.2821,645.334198 884.066918,633.06097 C504.421587,604.512927 29.3837886,466.250148 29.3837886,397.000474 C29.3837886,297.979335 624.806452,164.993575 433.543956,103.949192 C285.308283,56.6374842 780.763972,11.5331632 1144.13296,34.9374004 C1316.84533,46.0616334 1473.13436,93.6696389 1613.00007,177.761417 L1613.00007,290.564798 L1672.62066,672.827094 Z" id="Path-3" opacity="0.567313058"></path>
                            <path d="M1643.23687,644.266136 C1496.69711,575.76045 1373.82303,541.507607 1274.61461,541.507607 C1114.74917,541.507607 1017.89831,616.77324 854.683129,604.500011 C475.037798,575.951968 2.15519355e-13,437.689189 0,368.439516 C0,269.418377 595.422664,136.432616 404.160168,75.3882331 C255.924494,28.0765255 751.380184,-17.0277955 1114.74917,6.37644168 C1287.46154,17.5006747 1443.75057,65.1086802 1583.61628,149.200458 L1583.61628,262.00384 L1643.23687,644.266136 Z" id="Path-3" opacity="0.261207217"></path>
                        </g>
                        <path d="M872,771 L872,731 C909.555363,731 940,700.555363 940,663 C940,625.444637 909.555363,595 872,595 C834.444637,595 804,625.444637 804,663 L764,663 C764,603.353247 812.353247,555 872,555 C931.646753,555 980,603.353247 980,663 C980,722.646753 931.646753,771 872,771 Z" id="Path" fill="url(#linearGradient-2)" opacity="0.185500372" transform="translate(872.000000, 663.000000) scale(-1, -1) translate(-872.000000, -663.000000) "></path>
                        <path d="M2197,386 L2197,358.58427 C2215.54808,358.58427 2230.58427,343.54808 2230.58427,325 C2230.58427,306.45192 2215.54808,291.41573 2197,291.41573 C2178.45192,291.41573 2163.41573,306.45192 2163.41573,325 L2136,325 C2136,291.31063 2163.31063,264 2197,264 C2230.68937,264 2258,291.31063 2258,325 C2258,358.68937 2230.68937,386 2197,386 Z" id="Oval" fill="url(#linearGradient-3)" opacity="0.0884254092" transform="translate(2197.000000, 325.000000) scale(-1, 1) translate(-2197.000000, -325.000000) "></path>
                        <path d="M2663,990 L2663,906.571429 C2697.55725,906.571429 2725.57143,878.557246 2725.57143,844 C2725.57143,809.442754 2697.55725,781.428571 2663,781.428571 C2628.44275,781.428571 2600.42857,809.442754 2600.42857,844 L2517,844 C2517,763.366427 2582.36643,698 2663,698 C2743.63357,698 2809,763.366427 2809,844 C2809,924.633573 2743.63357,990 2663,990 Z" id="Path" fill="url(#linearGradient-4)" opacity="0.13734654" transform="translate(2663.000000, 844.000000) scale(1, -1) rotate(90.000000) translate(-2663.000000, -844.000000) "></path>
                    </g>
                </g>
            </g>
        </g>
    </g>
</svg>