<svg xmlns="http://www.w3.org/2000/svg" width="492" height="77" viewBox="0 0 492 77">
  <defs>
    <linearGradient id="linearGradient-2" x1="246" x2="246" y1="0" y2="77" gradientUnits="userSpaceOnUse">
      <stop offset="0" stop-color="rgb(207,214,230)"/>
      <stop offset="1" stop-color="rgb(207,214,230)" stop-opacity=".166"/>
    </linearGradient>
  </defs>
  <g opacity=".4">
    <path fill="url(#linearGradient-2)" fill-rule="evenodd" d="M110.78027344 74.17285156C106.60754394 76.0576172 101.97979736 77 96.89697266 77c-5.04846192 0-9.6505127-.94238281-13.80609131-2.82714844-4.15551758-1.88476562-7.73583985-4.53173828-10.74090576-7.94140625C69.3449707 62.82177734 67.03533936 58.8125 65.4212036 54.203125Q63 47.29003906 63 39.06542969V37.9345703q0-8.17285156 2.42120361-15.08642578c1.61413575-4.60888672 3.91516114-8.62695312 6.90301514-12.05371094q4.48187256-5.14013672 10.71514893-7.96728515C87.19494628.9423828 91.79699707 0 96.84545898 0q7.62426758 0 13.90905762 2.82714844 6.28491211 2.82714843 10.8182373 7.96728515c3.0222168 3.42675782 5.348938 7.44482422 6.98028565 12.05371094C130.18432617 27.45703125 131 32.48583984 131 37.93457031v1.13085938c0 5.48291015-.81567383 10.5288086-2.44696045 15.13769531-1.63134766 4.609375-3.95806885 8.61865234-6.98028564 12.02832031-3.0222168 3.40966797-6.61975098 6.05664063-10.79248047 7.94140625zm-80.08398438-6.30761718V77H0v-9.13476563l7.8904419-1.56591796V11.75292969L0 10.18701172V1h59v20.82714844H47.5970459l-.66174317-9.08251953H22.75494385v20.93115234h25.96203613v11.7446289H22.75494385v20.87890626l7.94134521 1.56591796zM166.29437256 77v-9.13476563l-8.09606934-1.56591796V46.98632812l13.80493164.00097657L183.62817383 77H202v-9.13476563l-6.43530273-1.51367187-9.61865235-22.35986328.17321778-.08496094c3.66247558-1.87451172 6.57922363-4.39355469 8.75012207-7.55810547l.4876709-.74169922q3.3215332-5.27197265 3.3215332-11.953125c0-4.73242187-1.11584473-8.78662109-3.34741211-12.16210937-2.23168946-3.37548828-5.42333985-5.96777344-9.57519531-7.77734375C181.60412598 1.90478516 176.62200928 1 170.80944825 1H135v9.18701172l8.04412842 1.56591797V66.2993164L135 67.86523437V77h31.29437256zm93.4019165-9.13476563V77H229v-9.13476563l7.89038086-1.56591796V11.75292969L229 10.18701172V1h59v20.82714844h-11.4029541l-.66174317-9.08251953h-24.18029785v20.93115234h25.96203614v11.7446289h-25.96203614v20.87890626l7.94128418 1.56591796zM324.29431152 77v-9.13476563l-8.09606933-1.56591796V46.98632812l13.80493164.00097657L341.62817383 77H360v-9.13476563l-6.43530273-1.51367187-9.61865235-22.35986328.17321778-.08496094c3.66247558-1.87451172 6.57922363-4.39355469 8.75012207-7.55810547l.4876709-.74169922q3.3215332-5.27197265 3.3215332-11.953125c0-4.73242187-1.11584473-8.78662109-3.34741211-12.16210937-2.23168946-3.37548828-5.42333985-5.96777344-9.57519531-7.77734375Q337.52819825 1 328.80944825 1H293v9.18701172l8.04418945 1.56591797V66.2993164L293 67.86523437V77h31.29431152zM425 77V56.22509766h-11.36975098l-.66589355 9.08251953h-24.071167V43.59326172h25.24914551V31.84912109h-25.2491455V12.74462891h22.84204101l.66577149 8.76904297h11.47229004V1H366v9.18701172l7.9383545 1.56591797V66.2993164L366 67.86523437V77h59zm67-20.77490234V77h-59v-9.13476563l7.9383545-1.56591796V11.75292969L433 10.18701172V1h57.87329102v20.51367188h-11.47229004l-.66577149-8.76904297h-22.84204101v19.10449218h25.2491455v11.74414063h-25.2491455v21.71435547h24.07116699l.66589355-9.08251953H492zM97.87109375 65c-4.19354248 0-7.69110107-1.08398438-10.49255371-3.25195313-2.80145264-2.16845703-4.89819336-5.2001953-6.29034424-9.0961914C79.69604492 48.75634766 79 44.21679687 79 39.0336914v-1.21972657c0-5.18310546.69604492-9.7055664 2.0881958-13.5673828 1.39215088-3.8623047 3.48034668-6.86865235 6.2645874-9.02001954C90.13702393 13.0756836 93.62597656 12 97.81951904 12c4.22796631 0 7.75982666 1.08398438 10.59570313 3.25195313 2.83581543 2.16845703 4.9755249 5.19189453 6.41925049 9.07080078C116.2781372 28.20166016 117 32.69873047 117 37.81396484v1.21972657c0 5.18310546-.71325684 9.72265625-2.1397705 13.61816406-1.42651368 3.8959961-3.54907227 6.92773437-6.36767579 9.0961914C105.67388916 63.91601563 102.13342285 65 97.87109375 65zM158 35h12.16766357c4.29449463 0 7.50683594-.91015625 9.63702393-2.73095703C181.93493652 30.44873047 183 27.80273437 183 24.33154297c0-3.43652344-1.05651855-6.18457031-3.16973877-8.24316406C177.71710205 14.02929688 174.58148193 13 170.42333984 13H158v22zm158 0h12.1677246c4.2944336 0 7.50683595-.91015625 9.6369629-2.73095703C339.93493652 30.44873047 341 27.80273437 341 24.33154297c0-3.43652344-1.05651855-6.18457031-3.16967773-8.24316406C335.71716309 14.02929688 332.5814209 13 328.42333984 13H316v22z"/>
  </g>
</svg>
