<svg width="232" height="194" viewBox="0 0 232 194" fill="none" xmlns="http://www.w3.org/2000/svg">
<path d="M177.8 11.2H0.900024V193.6H177.8V11.2Z" fill="#8BAEEC"/>
<path d="M89.5 55.8C93.5317 55.8 96.8 52.5317 96.8 48.5C96.8 44.4683 93.5317 41.2 89.5 41.2C85.4684 41.2 82.2 44.4683 82.2 48.5C82.2 52.5317 85.4684 55.8 89.5 55.8Z" fill="#FAF3ED"/>
<path d="M104.9 73.9H74.2C74.2 65.4 81.1 58.6 89.5 58.6C98 58.5 104.9 65.4 104.9 73.9Z" fill="#FAF3ED"/>
<path d="M89.4001 68.7C100.004 68.7 108.6 60.1039 108.6 49.5C108.6 38.8961 100.004 30.3 89.4001 30.3C78.7962 30.3 70.2 38.8961 70.2 49.5C70.2 60.1039 78.7962 68.7 89.4001 68.7Z" stroke="#FAF3ED" stroke-miterlimit="10"/>
<path d="M161 24H63.4C61.5 24 60 22.5 60 20.6V4.30002C60 2.40002 61.5 0.900009 63.4 0.900009H161C162.9 0.900009 164.4 2.40002 164.4 4.30002V20.6C164.4 22.5 162.8 24 161 24Z" fill="#333333"/>
<path d="M74.3 19.5C78.166 19.5 81.3 16.366 81.3 12.5C81.3 8.63402 78.166 5.50002 74.3 5.50002C70.434 5.50002 67.3 8.63402 67.3 12.5C67.3 16.366 70.434 19.5 74.3 19.5Z" fill="white"/>
<path d="M136.3 19.5H89.3C88.8 19.5 88.3 19.1 88.3 18.5V6.50002C88.3 5.90002 88.8 5.50002 89.3 5.50002H136.3C136.9 5.50002 137.3 5.90002 137.3 6.50002V18.5C137.3 19.1 136.9 19.5 136.3 19.5Z" fill="white"/>
<path d="M144.1 17.9L145.1 17.8L149.3 5.90001H152.1L156.2 17.8L157.2 17.9V19.5H152.5V17.9L153.4 17.7L152.8 15.8H148.4L147.8 17.7L148.7 17.9V19.5H144V17.9H144.1ZM149 13.8H152.1L150.6 9.00002H150.5L149 13.8Z" fill="white"/>
<path d="M128.7 11.5H134.2L131.4 15.4L128.7 11.5Z" fill="#333333"/>
<path d="M164.5 78.8H13.4V145.2H164.5V78.8Z" stroke="#FAF3ED" stroke-miterlimit="10" stroke-dasharray="3.64 3.64"/>
<path d="M164.5 156.1H14.1V177.4H164.5V156.1Z" fill="#CFD6E6"/>
<path d="M15 112.7H162.6" stroke="#FAF3ED" stroke-miterlimit="10" stroke-dasharray="3.6 3.6"/>
<path d="M157 193.4C164.456 193.4 170.5 187.356 170.5 179.9C170.5 172.444 164.456 166.4 157 166.4C149.544 166.4 143.5 172.444 143.5 179.9C143.5 187.356 149.544 193.4 157 193.4Z" fill="#FAF3ED"/>
<path d="M218 193.3C225.456 193.3 231.5 187.256 231.5 179.8C231.5 172.344 225.456 166.3 218 166.3C210.544 166.3 204.5 172.344 204.5 179.8C204.5 187.256 210.544 193.3 218 193.3Z" fill="white"/>
<path d="M198.4 193.2C207.623 193.2 215.1 185.723 215.1 176.5C215.1 167.277 207.623 159.8 198.4 159.8C189.177 159.8 181.7 167.277 181.7 176.5C181.7 185.723 189.177 193.2 198.4 193.2Z" fill="#FAF3ED"/>
<path d="M181.9 193.2C193.774 193.2 203.4 183.574 203.4 171.7C203.4 159.826 193.774 150.2 181.9 150.2C170.026 150.2 160.4 159.826 160.4 171.7C160.4 183.574 170.026 193.2 181.9 193.2Z" fill="white"/>
<path d="M195.3 139.3H180V166.7H195.3V139.3Z" fill="white"/>
<path d="M162.5 107.9C162.5 107.9 135.6 120.9 146.2 159.4C146.2 159.4 151.9 140.1 170.2 135L162.5 107.9Z" fill="#114DBD"/>
<path d="M213 107.9C213 107.9 239.9 120.9 229.3 159.4C229.3 159.4 223.6 140.1 205.3 135L213 107.9Z" fill="#114DBD"/>
<path d="M196.5 143.1H178.2C177.5 143.1 176.9 142.6 176.7 141.9L175.7 137.5C175.5 136.5 176.2 135.6 177.2 135.6H197.5C198.5 135.6 199.2 136.5 199 137.5L198 141.9C197.8 142.6 197.2 143.1 196.5 143.1Z" fill="#7094D7"/>
<path d="M160.9 97.5C160.9 97.5 163.7 123.3 172.4 139.7C172.4 139.7 186.2 133.1 202.6 139.7C202.6 139.7 212.6 125.9 214.6 95.5C215.8 78 214.4 58 208.6 40.7H168C162.6 54.7 158.7 73.6 160.9 97.5Z" fill="white"/>
<path d="M184.4 12.7C180.3 17.3 173.3 26.6 167.9 40.7H208.4C204.7 29.7 199.2 19.8 191.4 12.4C189.5 10.5 186.3 10.6 184.4 12.7Z" fill="#114DBD"/>
<path d="M187 96.3C187 96.3 174.6 124.6 187 158.1C187 158.1 200.8 130.1 187 96.3Z" fill="#114DBD"/>
<path d="M188.1 85.6C196.716 85.6 203.7 78.6157 203.7 70C203.7 61.3844 196.716 54.4 188.1 54.4C179.484 54.4 172.5 61.3844 172.5 70C172.5 78.6157 179.484 85.6 188.1 85.6Z" fill="#114DBD"/>
<path d="M188.1 80.9C194.12 80.9 199 76.0199 199 70C199 63.9801 194.12 59.1 188.1 59.1C182.08 59.1 177.2 63.9801 177.2 70C177.2 76.0199 182.08 80.9 188.1 80.9Z" fill="#FF7235"/>
<path d="M29.7 116H29.9L34.9 113.3L37 112.1L43.7 108.6L47.5 106.6L53.6 103.3L51.9 109.3L51.5 110.7L49.3 118.7L48.4 121.9L45.5 132.3L42.6 127.9L40.1 124.4L33 133.3L28.8 130L34.7 122.6L35.9 121L27.1 117.5L29.7 116Z" fill="white"/>
</svg>
