<svg width="234" height="193" viewBox="0 0 234 193" fill="none" xmlns="http://www.w3.org/2000/svg">
<path d="M177.2 10.6H0.300018V193H177.2V10.6Z" fill="#FAF3ED"/>
<path d="M160.4 23.4H62.8C60.9 23.4 59.4 21.9 59.4 20V3.70001C59.4 1.80001 60.9 0.299988 62.8 0.299988H160.4C162.3 0.299988 163.8 1.80001 163.8 3.70001V20C163.8 21.9 162.2 23.4 160.4 23.4Z" fill="#333333"/>
<path d="M73.7 18.9C77.566 18.9 80.7 15.766 80.7 11.9C80.7 8.034 77.566 4.89999 73.7 4.89999C69.834 4.89999 66.7 8.034 66.7 11.9C66.7 15.766 69.834 18.9 73.7 18.9Z" fill="white"/>
<path d="M135.7 18.9H88.7C88.1 18.9 87.7 18.5 87.7 17.9V5.89999C87.7 5.39999 88.1 4.89999 88.7 4.89999H135.7C136.3 4.89999 136.7 5.39999 136.7 5.89999V17.9C136.7 18.5 136.3 18.9 135.7 18.9Z" fill="white"/>
<path d="M143.5 17.3L144.5 17.2L148.7 5.29999H151.5L155.6 17.2L156.6 17.3V18.9H151.9V17.3L152.8 17.1L152.2 15.2H147.8L147.2 17.1L148.1 17.3V18.9H143.4V17.3H143.5ZM148.4 13.2H151.5L150 8.39999L148.4 13.2Z" fill="white"/>
<path d="M128 10.9H133.5L130.8 14.8L128 10.9Z" fill="#333333"/>
<path d="M33 55.2C37.0317 55.2 40.3 51.9317 40.3 47.9C40.3 43.8683 37.0317 40.6 33 40.6C28.9683 40.6 25.7 43.8683 25.7 47.9C25.7 51.9317 28.9683 55.2 33 55.2Z" fill="#7094D7"/>
<path d="M48.3 73.3H17.6C17.6 64.8 24.5 58 32.9 58C41.5 57.9 48.3 64.8 48.3 73.3Z" fill="#7094D7"/>
<path d="M32.8 68.1C43.4039 68.1 52 59.5039 52 48.9C52 38.2961 43.4039 29.7 32.8 29.7C22.1962 29.7 13.6 38.2961 13.6 48.9C13.6 59.5039 22.1962 68.1 32.8 68.1Z" stroke="#7094D7" stroke-miterlimit="10" stroke-dasharray="4.07 4.07"/>
<path d="M163.9 39.6H64.3V58.9H163.9V39.6Z" stroke="#7094D7" stroke-miterlimit="10" stroke-dasharray="4.07 4.07"/>
<path d="M163.8 74.6H13.7V135.7H163.8V74.6Z" fill="#7094D7"/>
<path d="M163.8 148.7H13.7V176.9H163.8V148.7Z" stroke="#7094D7" stroke-width="1.0278" stroke-miterlimit="10" stroke-dasharray="4.18 4.18"/>
<path d="M198.5 83.5L224 67.9C225.4 67.1 225.8 65.2 224.8 63.9C223.9 62.6 222 62.3 220.8 63.3L197.4 82C197 82.3 196.9 82.9 197.2 83.3C197.5 83.6 198.1 83.7 198.5 83.5Z" fill="#FF7235"/>
<path d="M205.5 45.9C204 45.2 202.3 45.9 201.7 47.4L190.7 75.3C190.5 75.8 190.7 76.3 191.2 76.5C191.7 76.7 192.2 76.5 192.5 76.1L206.8 49.8C207.5 48.4 206.9 46.6 205.5 45.9Z" fill="#FF7235"/>
<path d="M233.5 89.1C233.3 87.3 231.7 86.1 230 86.4L216.6 88.9L200.9 91C200.3 91.1 199.9 91.6 200 92.2C200.1 92.8 200.5 93.2 201.1 93.2L230.7 92.4C232.4 92.4 233.7 90.9 233.5 89.1Z" fill="#FF7235"/>
<path d="M199.3 103.4L225.6 117.7C227 118.5 228.8 117.9 229.5 116.4V116.3C230.2 114.8 229.5 113.1 228 112.5L200.1 101.5C199.6 101.3 199.1 101.5 198.9 102C198.6 102.6 198.8 103.1 199.3 103.4Z" fill="#FF7235"/>
<path d="M193.8 111.7L209.4 137.3C210.2 138.7 212.1 139.1 213.4 138.1C214.7 137.2 215 135.3 214 134.1L195.3 110.7C195 110.3 194.4 110.2 194 110.5C193.7 110.7 193.5 111.3 193.8 111.7Z" fill="#FF7235"/>
<path d="M166 120.6C178.482 120.6 188.6 110.482 188.6 98C188.6 85.5184 178.482 75.4 166 75.4C153.518 75.4 143.4 85.5184 143.4 98C143.4 110.482 153.518 120.6 166 120.6Z" fill="#7094D7"/>
<path d="M107.2 192.1C106.9 192.2 106.6 192.3 106.2 192.3L102.9 192.6C100.2 192.9 97.7 190.9 97.5 188.1L97.1 184.3L96.8 180.8L92.9 139.8L91.5 125.5L91.4 124.5L89.7 107L98.9 106.1L102.9 105.7L104.7 124.8L104.9 127L109.9 179.5L110.6 186.8C110.9 189.3 109.4 191.4 107.2 192.1Z" fill="#FF7235"/>
<path d="M71.2 89.3C71.1 89.3 71 89.4 70.9 89.4C70.4 89.6 70 90.4 70.1 91.2L71.6 107.1L73.1 123C73.2 123.8 73.7 124.5 74.2 124.6C74.3 124.6 74.4 124.6 74.6 124.6C86.3 124.9 98 125.9 109.6 127.7L105 79.5C93.9 83.6 82.6 86.8 71.2 89.3Z" fill="#114DBD"/>
<path d="M136.4 65.9C126.2 71.2 115.7 75.7 104.9 79.6L109.5 127.8C120.8 129.6 132 132.1 143 135.3L172.4 143.9L168 97.9L163.6 51.9L136.4 65.9Z" fill="white"/>
<g opacity="0.3">
<path opacity="0.3" d="M145.7 127.4C133.7 126.3 121.6 125.5 109.3 125L109.6 127.7C120.9 129.5 132.1 132 143.1 135.2L172.5 143.8L171.1 129.7L145.7 127.4Z" fill="black"/>
<path opacity="0.3" d="M74.2 124.6C74.1 124.6 74.1 124.6 74 124.5C74.1 124.6 74.1 124.6 74.2 124.6Z" fill="black"/>
<path opacity="0.3" d="M97.9 124.7C89.9 124.5 81.8 124.4 73.8 124.5C73.9 124.5 73.9 124.6 74 124.6C74.1 124.6 74.1 124.7 74.2 124.7C74.3 124.7 74.4 124.7 74.6 124.7C86.3 125 98 126 109.6 127.8L109.3 125.1C105.5 124.9 101.7 124.8 97.9 124.7Z" fill="black"/>
</g>
<path d="M173.9 148.8L172.1 149C170.7 149.1 169.4 148.1 169.3 146.7L160 49.9C159.9 48.5 160.9 47.2 162.3 47.1L164.1 46.9C165.5 46.8 166.8 47.8 166.9 49.2L176.2 146C176.4 147.3 175.3 148.6 173.9 148.8Z" fill="#114DBD"/>
<path d="M72.7 119.3L64.3 120.1C62.6 120.3 61.1 119 60.9 117.3L59.2 99.2C59 97.5 60.3 96 62 95.8L70.4 95L72.7 119.3Z" fill="#CFD6E6"/>
<path opacity="0.3" d="M71.2047 119.401L72.6978 119.258L70.3664 94.9703L68.8733 95.1136L71.2047 119.401Z" fill="black"/>
<path d="M107.2 192.1C106.9 192.2 106.6 192.3 106.2 192.3L102.9 192.6C100.2 192.9 97.7 190.9 97.5 188.1L97.1 184.3L96.8 180.8L110 179.6L110.7 186.9C110.9 189.3 109.4 191.4 107.2 192.1Z" fill="#114DBD"/>
</svg>
