<svg width="232" height="193" viewBox="0 0 232 193" fill="none" xmlns="http://www.w3.org/2000/svg">
<path d="M177.1 10.4H0.200012V192.8H177.1V10.4Z" fill="#FAF3ED"/>
<path d="M33 55.1C37.0317 55.1 40.3 51.8317 40.3 47.8C40.3 43.7683 37.0317 40.5 33 40.5C28.9683 40.5 25.7 43.7683 25.7 47.8C25.7 51.8317 28.9683 55.1 33 55.1Z" fill="#7094D7"/>
<path d="M48.3 73.1H17.6C17.6 64.6 24.5 57.8 32.9 57.8C41.4 57.8 48.3 64.6 48.3 73.1Z" fill="#7094D7"/>
<path d="M32.8 68C43.4039 68 52 59.4039 52 48.8C52 38.1961 43.4039 29.6 32.8 29.6C22.1961 29.6 13.6 38.1961 13.6 48.8C13.6 59.4039 22.1961 68 32.8 68Z" stroke="#7094D7" stroke-miterlimit="10" stroke-dasharray="4.07 4.07"/>
<path d="M160.3 23.3H62.7C60.8 23.3 59.3 21.8 59.3 19.9V3.60001C59.3 1.70001 60.8 0.200012 62.7 0.200012H160.3C162.2 0.200012 163.7 1.70001 163.7 3.60001V19.9C163.7 21.8 162.2 23.3 160.3 23.3Z" fill="#333333"/>
<path d="M73.7 18.8C77.566 18.8 80.7 15.666 80.7 11.8C80.7 7.93403 77.566 4.80002 73.7 4.80002C69.834 4.80002 66.7 7.93403 66.7 11.8C66.7 15.666 69.834 18.8 73.7 18.8Z" fill="white"/>
<path d="M135.7 18.8H88.7C88.1 18.8 87.7 18.3 87.7 17.8V5.80002C87.7 5.30002 88.1 4.80002 88.7 4.80002H135.7C136.3 4.80002 136.7 5.30002 136.7 5.80002V17.8C136.7 18.3 136.2 18.8 135.7 18.8Z" fill="white"/>
<path d="M143.4 17.1L144.4 17L148.6 5.10001H151.4L155.5 17L156.5 17.1V18.7H151.8V17.1L152.7 16.9L152.1 15H147.7L147.1 16.9L148 17.1V18.7H143.3V17.1H143.4ZM148.4 13.1H151.5L150 8.30001H149.9L148.4 13.1Z" fill="white"/>
<path d="M128 10.8H133.5L130.7 14.6L128 10.8Z" fill="#333333"/>
<path d="M51.9 74.4H13.6V177.1H51.9V74.4Z" fill="#8BAEEC"/>
<path d="M48.8 85.5H16.8V93.2H48.8V85.5Z" fill="white"/>
<path d="M48.8 100H16.8V107.7H48.8V100Z" fill="white"/>
<path d="M48.8 114.6H16.8V122.3H48.8V114.6Z" fill="white"/>
<path d="M48.8 129.2H16.8V136.9H48.8V129.2Z" fill="white"/>
<path d="M48.8 143.8H16.8V151.5H48.8V143.8Z" fill="white"/>
<path d="M48.8 158.4H16.8V166.1H48.8V158.4Z" fill="white"/>
<path d="M163.8 39.4H64.2V58.7H163.8V39.4Z" stroke="#7094D7" stroke-miterlimit="10" stroke-dasharray="4.07 4.07"/>
<path d="M163.8 74.4H64.2V118.5H163.8V74.4Z" stroke="#7094D7" stroke-width="1.0471" stroke-miterlimit="10" stroke-dasharray="4.26 4.26"/>
<path d="M163.8 134.9H64.2V176.7H163.8V134.9Z" stroke="#7094D7" stroke-width="1.0198" stroke-miterlimit="10" stroke-dasharray="4.15 4.15"/>
<path d="M208.4 88.1L201.5 83.3L204.9 78.5L211.8 83.3L208.4 88.1Z" fill="#114DBD"/>
<path d="M218.987 76.5557L208.829 69.4431L203.265 77.3893L213.423 84.5019L218.987 76.5557Z" fill="#7094D7"/>
<path opacity="0.3" d="M210.7 84.8L203.9 80L204.9 78.5L211.8 83.3L210.7 84.8Z" fill="black"/>
<path d="M177.3 63.6H165.1V76.3H177.3V63.6Z" fill="#114DBD"/>
<path d="M188.9 53.7H153.4V63.6H188.9V53.7Z" fill="#7094D7"/>
<path opacity="0.3" d="M177.3 63.6H165.1V65.8H177.3V63.6Z" fill="black"/>
<path d="M219.5 97.3L171.1 132.9V72.8C191 72.8 208.6 82.4 219.5 97.3Z" fill="#FF7235"/>
<path d="M231.2 132.9C231.2 166.1 204.3 193 171.1 193C137.9 193 111 166.1 111 132.9C111 99.7 137.9 72.8 171.1 72.8V132.9L219.5 97.3C226.9 107.2 231.2 119.5 231.2 132.9Z" fill="white"/>
<path d="M177.2 191C146.4 191 121.4 166 121.4 135.2C121.4 104.4 146.4 79.4 177.2 79.4C197.6 79.4 215.4 90.3 225.1 106.6C215.4 86.6 194.8 72.8 171.1 72.8C137.9 72.8 111 99.7 111 132.9C111 166.1 137.9 193 171.1 193C179.2 193 187 191.4 194 188.5C188.8 190.1 183.1 191 177.2 191Z" fill="#114DBD"/>
<path d="M172.4 78H169.8V88H172.4V78Z" fill="#114DBD"/>
<path d="M147.6 94.7L142.6 86L144.9 84.7L149.9 93.4L147.6 94.7Z" fill="#114DBD"/>
<path d="M131.7 111.6L123 106.6L124.3 104.3L133 109.3L131.7 111.6Z" fill="#114DBD"/>
<path d="M126.3 131.6H116.3V134.2H126.3V131.6Z" fill="#114DBD"/>
<path d="M124.3 161.4L123 159.2L131.7 154.2L133 156.4L124.3 161.4Z" fill="#114DBD"/>
<path d="M149.843 172.323L147.59 171.025L142.599 179.691L144.852 180.989L149.843 172.323Z" fill="#114DBD"/>
<path d="M172.4 177.7H169.8V187.7H172.4V177.7Z" fill="#114DBD"/>
<path d="M199.754 179.736L194.749 171.078L192.498 172.38L197.503 181.038L199.754 179.736Z" fill="#114DBD"/>
<path d="M218 161.4L209.3 156.4L210.7 154.2L219.3 159.2L218 161.4Z" fill="#114DBD"/>
<path d="M216 134.2V131.6H226V134.2H216Z" fill="#114DBD"/>
<path d="M210.7 111.6L209.3 109.3L218 104.3L219.3 106.6L210.7 111.6Z" fill="#114DBD"/>
<path d="M194.7 94.7L192.5 93.4L197.4 84.7L199.7 86L194.7 94.7Z" fill="#114DBD"/>
<path d="M177.3 73.1C175.3 72.9 173.3 72.8 171.2 72.8C169.1 72.8 167.1 72.9 165.1 73.1C134.8 76.2 111.1 101.7 111.1 132.9C111.1 166.1 138 193 171.2 193C204.4 193 231.3 166.1 231.3 132.9C231.2 101.7 207.6 76.2 177.3 73.1ZM171.2 186C141.9 186 118.1 162.2 118.1 132.9C118.1 103.6 141.9 79.8 171.2 79.8C200.5 79.8 224.3 103.6 224.3 132.9C224.3 162.1 200.4 186 171.2 186Z" fill="#7094D7"/>
<path d="M112.8 134.6C112.8 101.4 139.7 74.5 172.9 74.5C189.1 74.5 203.7 80.9 214.5 91.2C203.6 79.8 188.2 72.7 171.2 72.7C138 72.7 111.1 99.6 111.1 132.8C111.1 149.8 118.2 165.2 129.6 176.1C119.2 165.4 112.8 150.7 112.8 134.6Z" fill="#CFD6E6"/>
<path opacity="0.3" d="M180.1 132.9C180.1 136.9 176.9 140.1 172.9 140.1C168.9 140.1 165.7 136.9 165.7 132.9C165.7 128.9 172.9 96.8 172.9 96.8C172.9 96.8 180.1 128.9 180.1 132.9Z" fill="black"/>
<path d="M178.3 132.9C178.3 136.9 175.1 140.1 171.1 140.1C167.1 140.1 163.9 136.9 163.9 132.9C163.9 128.9 171.1 96.8 171.1 96.8C171.1 96.8 178.3 128.9 178.3 132.9Z" fill="#8BAEEC"/>
<path d="M176.8 132.9C176.8 136 174.3 138.6 171.1 138.6C168 138.6 165.4 136.1 165.4 132.9C165.4 129.8 167.9 127.2 171.1 127.2C174.3 127.2 176.8 129.7 176.8 132.9Z" fill="#CFD6E6"/>
<path opacity="0.3" d="M167 134.2C167 130.9 169.6 128.3 172.9 128.3C173.2 128.3 173.4 128.3 173.7 128.4C173 128 172.1 127.8 171.2 127.8C168.2 127.8 165.8 130.2 165.8 133.1C165.8 134.8 166.6 136.2 167.7 137.2C167.4 136.3 167 135.3 167 134.2Z" fill="white"/>
</svg>
