<svg xmlns="http://www.w3.org/2000/svg" xmlns:xlink="http://www.w3.org/1999/xlink" width="330" height="326" viewBox="0 0 330 326">
    <defs>
        <path id="a" d="M17.258 18.92c.627 0 1.113.165 1.459.494.346.329.538.703.576 1.122h-.654a1.356 1.356 0 0 0-.443-.756c-.221-.186-.532-.279-.931-.279-.488 0-.881.17-1.181.512-.3.342-.45.866-.45 1.571 0 .578.135 1.046.406 1.406.27.36.674.54 1.211.54.494 0 .87-.19 1.129-.569.137-.199.239-.461.306-.786h.654c-.058.52-.252.955-.58 1.307-.393.423-.923.635-1.59.635-.575 0-1.058-.174-1.448-.52-.515-.46-.772-1.169-.772-2.127 0-.728.193-1.325.58-1.79.417-.507.993-.76 1.728-.76zm4.248 4.68c.402 0 .678-.152.827-.456.15-.303.225-.64.225-1.012 0-.336-.054-.61-.162-.82-.17-.332-.465-.497-.883-.497-.37 0-.64.14-.809.423-.168.282-.252.623-.252 1.021 0 .383.084.702.252.958.169.255.436.383.802.383zm.024-3.313c.465 0 .858.155 1.18.464.32.309.48.764.48 1.364 0 .58-.14 1.06-.424 1.438-.283.378-.722.567-1.317.567-.496 0-.89-.167-1.182-.502-.292-.335-.438-.784-.438-1.349 0-.604.153-1.086.461-1.444.308-.359.721-.538 1.24-.538zm2.399-1.233h.606v4.935h-.606v-4.935zm2.948 4.546c.402 0 .678-.152.827-.456.15-.303.224-.64.224-1.012 0-.336-.054-.61-.162-.82-.17-.332-.465-.497-.883-.497-.37 0-.64.14-.808.423-.169.282-.253.623-.253 1.021 0 .383.084.702.253.958.168.255.436.383.802.383zm.023-3.313c.465 0 .858.155 1.18.464.32.309.481.764.481 1.364 0 .58-.141 1.06-.424 1.438-.283.378-.722.567-1.318.567-.496 0-.89-.167-1.182-.502-.292-.335-.438-.784-.438-1.349 0-.604.154-1.086.461-1.444.308-.359.721-.538 1.24-.538zm2.4.104h.575v.622c.047-.121.163-.268.347-.442a.901.901 0 0 1 .694-.257l.138.014v.638a.908.908 0 0 0-.198-.017c-.306 0-.54.098-.704.294a1.024 1.024 0 0 0-.246.677v2.07h-.607V20.39z"/>
        <path id="b" d="M72.588 19.234v.588h-1.667v4.347h-.681v-4.347h-1.668v-.588h4.016zm2.41 1.337h.67c-.086.231-.275.757-.57 1.58-.22.617-.404 1.121-.552 1.511-.35.918-.598 1.478-.741 1.68-.144.201-.391.302-.742.302-.085 0-.15-.003-.197-.01a1.56 1.56 0 0 1-.17-.037v-.55c.106.028.182.046.23.053.046.007.088.01.124.01.112 0 .195-.019.248-.055a.512.512 0 0 0 .133-.137 17.056 17.056 0 0 0 .273-.645l-1.335-3.702h.688l.967 2.93.973-2.93zm2.718 3.192a.866.866 0 0 0 .706-.355c.188-.236.281-.59.281-1.06 0-.286-.041-.532-.124-.739-.158-.396-.445-.594-.863-.594-.42 0-.707.21-.862.628-.083.224-.125.508-.125.853 0 .278.042.514.125.71.157.371.444.557.862.557zm-1.57-3.175h.59v.477a1.47 1.47 0 0 1 .397-.38c.205-.134.445-.2.721-.2.41 0 .756.155 1.041.468.286.312.428.758.428 1.338 0 .784-.205 1.344-.616 1.68-.26.213-.564.32-.91.32-.272 0-.5-.06-.684-.179a1.574 1.574 0 0 1-.36-.346v1.838h-.607v-5.016zm5.317 3.192c.402 0 .677-.152.827-.456.15-.303.224-.64.224-1.012 0-.336-.054-.61-.162-.82-.17-.332-.465-.497-.883-.497-.37 0-.64.14-.808.423-.169.282-.253.623-.253 1.021 0 .383.084.702.253.958.168.255.436.383.802.383zm.023-3.313c.465 0 .858.155 1.18.464.32.309.481.764.481 1.364 0 .58-.141 1.06-.424 1.438-.283.378-.722.567-1.318.567-.496 0-.89-.167-1.182-.502-.292-.335-.438-.784-.438-1.349 0-.604.154-1.086.461-1.444.308-.359.721-.538 1.24-.538zm3.656.04c.283 0 .53.07.74.209.115.078.232.192.351.343v-.454h.56v3.272c0 .457-.068.818-.203 1.082-.251.488-.726.732-1.425.732-.388 0-.715-.087-.98-.26-.265-.174-.413-.445-.445-.815h.617c.029.161.087.286.175.373.137.134.353.202.647.202.465 0 .77-.164.913-.49.085-.193.124-.537.118-1.032-.122.183-.268.32-.438.41-.17.09-.397.134-.677.134-.391 0-.733-.138-1.026-.415-.293-.276-.44-.734-.44-1.372 0-.603.148-1.073.443-1.411.295-.338.652-.507 1.07-.507zm1.091 1.848c0-.445-.092-.776-.276-.99a.886.886 0 0 0-.704-.323c-.427 0-.719.2-.876.598-.083.212-.125.491-.125.836 0 .406.083.714.248.926a.8.8 0 0 0 .665.317c.436 0 .743-.196.92-.588.099-.221.148-.48.148-.776zm1.49-1.784h.576v.622c.047-.121.162-.268.347-.442a.901.901 0 0 1 .694-.257l.138.014v.638a.908.908 0 0 0-.199-.017c-.305 0-.54.098-.704.294a1.024 1.024 0 0 0-.246.677v2.07h-.607V20.57zm2.745 2.64c0 .176.064.313.192.414.128.1.28.151.455.151.214 0 .42-.049.62-.148.337-.163.506-.43.506-.802v-.488a1.04 1.04 0 0 1-.287.118 2.447 2.447 0 0 1-.344.067l-.367.047c-.22.03-.385.075-.495.138-.186.105-.28.273-.28.504zm1.47-1.222c.139-.018.232-.076.279-.175a.53.53 0 0 0 .04-.231c0-.206-.073-.356-.22-.449-.147-.093-.358-.14-.632-.14-.317 0-.541.086-.674.256-.074.094-.122.234-.145.42h-.566c.011-.443.156-.752.433-.926.278-.173.6-.26.965-.26.425 0 .77.08 1.035.242.263.161.394.412.394.752v2.073c0 .063.013.113.039.151.026.038.08.057.163.057a1.46 1.46 0 0 0 .199-.02v.447a1.693 1.693 0 0 1-.216.05 1.58 1.58 0 0 1-.202.01c-.209 0-.36-.073-.455-.221a.854.854 0 0 1-.104-.333 1.542 1.542 0 0 1-.532.42 1.65 1.65 0 0 1-.765.178c-.335 0-.608-.101-.82-.304a1.008 1.008 0 0 1-.32-.76c0-.334.105-.593.314-.777.21-.183.483-.296.822-.339l.967-.12zm3.426 1.774a.866.866 0 0 0 .706-.355c.187-.236.28-.59.28-1.06 0-.286-.04-.532-.124-.739-.157-.396-.445-.594-.862-.594-.42 0-.708.21-.863.628-.083.224-.124.508-.124.853 0 .278.041.514.124.71.157.371.445.557.863.557zm-1.57-3.175h.59v.477a1.47 1.47 0 0 1 .397-.38c.204-.134.445-.2.72-.2.41 0 .757.155 1.042.468.285.312.428.758.428 1.338 0 .784-.206 1.344-.617 1.68-.26.213-.564.32-.91.32-.271 0-.5-.06-.683-.179a1.574 1.574 0 0 1-.36-.346v1.838h-.607v-5.016zm3.884-1.37h.607v1.84c.143-.18.273-.309.387-.382.196-.128.44-.192.731-.192.524 0 .879.183 1.065.548.101.199.152.476.152.83v2.307h-.624v-2.267c0-.265-.033-.458-.1-.581-.11-.198-.318-.296-.62-.296-.252 0-.48.086-.685.259-.204.172-.306.498-.306.977v1.908h-.607v-4.951zm6.092 1.353h.67c-.085.231-.275.757-.57 1.58a78.14 78.14 0 0 1-.552 1.511c-.35.918-.597 1.478-.741 1.68-.144.201-.39.302-.741.302-.086 0-.151-.003-.197-.01a1.56 1.56 0 0 1-.17-.037v-.55c.105.028.182.046.229.053.047.007.088.01.124.01.113 0 .195-.019.248-.055a.512.512 0 0 0 .133-.137 17.055 17.055 0 0 0 .273-.645l-1.334-3.702h.687l.967 2.93.974-2.93z"/>
        <path id="c" d="M138.683 29.919l.788-.114 3.358-9.569h2.267l3.335 9.57.789.113v1.322h-3.76V29.92l.765-.137-.485-1.511h-3.578l-.485 1.511.766.137v1.322h-3.76V29.92zm4.002-3.273h2.532l-1.243-3.878h-.046l-1.243 3.878z"/>
        <path id="d" d="M154.597 29.282l1.167-.168 4.976-14.177h3.357l4.942 14.177 1.168.168v1.96h-5.57v-1.96l1.134-.202-.719-2.24h-5.3l-.72 2.24 1.135.202v1.96h-5.57v-1.96zm5.93-4.85h3.75l-1.842-5.744h-.067l-1.842 5.745z"/>
        <path id="e" d="M175.843 28.792l1.46-.21 6.219-17.72h4.197l6.177 17.72 1.46.21v2.45h-6.963v-2.45l1.418-.252-.899-2.8h-6.626l-.898 2.8 1.418.252v2.45h-6.963v-2.45zm7.412-6.061h4.689l-2.302-7.18h-.085l-2.302 7.18z"/>
    </defs>
    <g fill="none" fill-rule="evenodd">
        <g transform="translate(0 150)">
            <path fill="#333" d="M198.03 42.943H8.683c-4.6 0-8.396-3.727-8.396-8.371V8.485C.287 3.9 4.026.115 8.684.115h189.405c4.6 0 8.394 3.726 8.394 8.37v26.087c-.057 4.644-3.794 8.37-8.452 8.37z"/>
            <ellipse cx="22.828" cy="21.615" fill="#FFF" rx="11.902" ry="11.868"/>
            <path fill="#FFF" d="M123.97 31.247H49.22c-1.898 0-3.45-1.548-3.45-3.44V15.136c0-1.892 1.552-3.44 3.45-3.44h74.75c1.898 0 3.45 1.548 3.45 3.44v12.67c.058 1.893-1.495 3.44-3.45 3.44z"/>
            <use fill="#000" xlink:href="#a"/>
            <use fill="#333" xlink:href="#a"/>
            <use fill="#000" xlink:href="#b"/>
            <use fill="#333" xlink:href="#b"/>
            <use fill="#000" xlink:href="#c"/>
            <use fill="#FFF" xlink:href="#c"/>
            <g>
                <use fill="#000" xlink:href="#d"/>
                <use fill="#FF7235" xlink:href="#d"/>
            </g>
            <g>
                <use fill="#000" xlink:href="#e"/>
                <use fill="#FFF" xlink:href="#e"/>
            </g>
            <path fill="#333" d="M116.265 20.181h5.29l-2.645 3.842z"/>
        </g>
        <g transform="translate(194 1)">
            <path fill="#7094D7" d="M112.733 308.01s-4.879-18.827-19.803-22.615c-14.924-3.788-19.229-27.552-19.229-27.552l-24.854-12.858-1.09.344c-2.296.69-4.764-.574-5.453-2.87-1.09-3.558-4.363-7.863-13.776-6.888-15.556 1.608-7.175 21.066 2.066 17.393 9.184-3.674 2.87 7.921-3.501 8.265-6.314.345-13.317 4.592-19 2.985-5.74-1.607-7.576.632-7.576.632s4.706-.173 5.108 1.148c.402 1.32 1.837 3.558 6.314 3.386 4.477-.23 17.966-.23 20.664-2.066 2.64-1.837 10.16 17.622 16.417 18.138 6.256.517 12.628 6.774 13.546 10.906.918 4.133 8.093-1.377 8.093-1.377s.632-11.882-11.881-12.456l-2.124-10.677s10.045 10.447 12.857 11.079c2.813.631 9.758 12.456 17.507 10.848 7.75-1.607 23.534 20.378 23.534 20.378l2.181-6.142z" opacity=".105"/>
            <path fill="#FFC1C2" d="M121.171 309.216c-.86 2.01-2.468 5.166-4.994 9.127-.86 1.377-2.009 2.41-3.271 3.272-5.281 3.501-13.202 3.042-15.556 2.583-1.32-.287-1.263-1.722-.86-3.215.344-1.205.86-2.296 1.606-3.214a10.814 10.814 0 0 1 1.78-1.837l2.87-2.296.918-.746.919-.919c3.157-3.444 4.649-7.117 5.338-10.16.86-3.73.402-6.486.402-6.486l2.353-2.353 3.96-1.435s.23.115.575.459c.574.517 1.435 1.55 2.009 3.33.459 1.492 1.262 4.591 1.836 7.232.173.803.345 1.55.517 2.18.402 1.493.23 3.1-.402 4.478z"/>
            <path fill="#FF8182" d="M121.171 309.216c-.86 2.01-2.468 5.166-4.994 9.127-.86 1.377-2.009 2.41-3.271 3.272h-7.75l-7.06-3.904a10.814 10.814 0 0 1 1.78-1.836l2.87-2.296.918-.747.919-.918c1.033 2.009 2.812 3.272 5.912 2.066 8.15-3.214 7.52-12.283 7.52-12.283-2.584 1.78-5.798 1.033-8.094.057.86-3.73.402-6.486.402-6.486l1.435-1.435 5.453-1.894c.574.516 1.435 1.55 2.009 3.329.459 1.492 1.262 4.592 1.836 7.232.173.804.345 1.55.517 2.182a6.81 6.81 0 0 1-.402 4.534z" opacity=".54"/>
            <path fill="#FFC1C2" d="M75.423 303.361c-4.879 1.09-9.528 4.018-11.766 7.348 0 .057-.058.057-.058.114-1.492 2.239-7.691 2.985-11.595 3.157-1.78.115-3.214-1.377-3.1-3.157l.058-.516c0-.287.058-.574.115-.861.402-2.067 1.665-3.903 3.444-5.051l2.755-1.722 1.09-.632c.058-.057.173-.115.23-.172 4.133-2.87 6.946-6.486 8.84-9.643a35.913 35.913 0 0 0 2.468-5.052c.574-1.435.804-2.353.804-2.353l5.854-.517s.058.402.23 1.034c.402 1.779 1.32 5.338 2.296 6.945.057.057.115.172.172.287 1.263 2.468 2.87 9.7-1.837 10.791z"/>
            <path fill="#FF8182" d="M75.423 303.361c-4.879 1.09-9.528 4.018-11.766 7.348l-14.637-1.263c.401-2.067 1.664-3.903 3.444-5.051l2.755-1.722 1.09-.632c.058-.057.173-.115.23-.172 1.205 2.239 3.33 4.362 7.175 2.755 7.003-2.927 13.374-12.341 8.323-11.02-2.239.573-4.65-.288-6.658-1.378a35.913 35.913 0 0 0 2.468-5.052l6.83-1.779c.402 1.78 1.32 5.338 2.296 6.945.058.058.115.173.172.287 1.378 2.411 2.985 9.644-1.722 10.734z" opacity=".54"/>
            <path fill="#114DBD" stroke="#114DBD" d="M121.171 309.216c-.86 2.01-2.468 5.166-4.994 9.127-4.42 6.945-15.957 6.429-18.827 5.855-1.32-.287-1.263-1.722-.86-3.215.573-2.009 1.779-3.788 3.386-5.108l2.87-2.296c.46 2.927 2.468 5.453 8.667 2.755 5.166-2.239 8.036-8.036 9.643-13.834.173.804.345 1.55.517 2.182a6.81 6.81 0 0 1-.402 4.534zM75.423 303.361c-4.879 1.148-9.585 4.076-11.881 7.462-1.493 2.239-7.692 2.985-11.595 3.157-1.78.115-3.214-1.377-3.1-3.157l.058-.516c.172-2.468 1.492-4.65 3.616-5.912l2.755-1.722c.517 2.755 2.296 5.223 7.405 3.329 0 0 8.61-3.272 11.25-6.83 1.32-1.78 2.468-4.42 3.33-6.602 1.262 2.468 2.87 9.7-1.838 10.791z"/>
            <path fill="#8BAEEC" d="M123.64 261.172c0 .287-.058.631-.115.918-1.665 15.556-3.043 25.2-3.731 29.849-.345 2.238 0 5.166 0 5.166s-3.904 3.329-10.677.86c0 0-.803-42.82-9.873-63.025a14.872 14.872 0 0 0-.803-1.665c-.23-.459-.46-.86-.689-1.262l-12.226-73.53-4.707 31.168-5.453 36.277V226.1c0 .058.057.115.057.173 0 .057.058.057.058.114.057.058.057.173.115.287 0 .058.057.115.057.173.057.172.115.401.23.63.057.058.057.173.057.23.057.173.115.402.23.575.114.287.23.574.287.918.057.172.114.402.172.574.057.23.172.46.23.746.114.345.23.746.344 1.148.23.632.402 1.378.631 2.067.058.287.172.574.287.86.115.46.287.919.402 1.378.057.172.057.287.115.46.172.573.287 1.147.46 1.721.171.517.286 1.091.4 1.665.173.574.288 1.205.403 1.78.057.229.114.401.114.63a49.46 49.46 0 0 1 .69 3.617v.057c.057.402.114.861.171 1.263v.058c.058.287.058.574.115.86 0 .115 0 .288.058.402.057.402.057.804.057 1.148v1.206c0 .517-.057.918-.115 1.378-1.205 6.773-5.855 36.506-5.855 36.506s-3.386 2.468-8.61-1.205l-9.183-57.343s-.058-.23-.115-.69c-.804-5.395-5.568-40.753 1.837-78.925 1.951-10.16 4.821-20.549 8.84-30.594l13.66-4.133 14.35 1.492 4.363.46 4.592 2.18s1.435 2.182 3.444 6.258c4.477 9.356 11.537 28.7 10.045 55.506-.46 8.15-.861 14.924-1.263 20.607-1.263 18.482-2.181 24.969-2.354 26.346-.057.23-.057.287-.057.287s11.02 9.873 8.954 32.202z"/>
            <path fill="#7094D7" d="M118.646 181.787c-.46 8.151-.861 14.924-1.263 20.607-2.067-31.226-7.75-53.382-13.49-68.421a7.384 7.384 0 0 0-8.61-4.535 968.287 968.287 0 0 1-11.938 2.755c-9.127 2.124-18.713 12.112-23.993 18.426 1.951-10.16 4.821-20.55 8.84-30.595l13.66-4.133 14.35 1.493 2.01.23 2.41.23 4.592 2.18v.058c.057.057.057.115.115.23 0 .057.057.057.115.114.057.058.114.172.172.23.057.115.172.23.23.402.057.057.057.114.114.172.632 1.033 1.55 2.755 2.64 5.051 4.42 9.299 11.538 28.7 10.046 55.506z"/>
            <path fill="#7094D7" d="M85.526 158.483l-4.707 31.168c-2.353-7.749-5.396-19.057-4.19-23.534 1.837-7.06-1.55-21.64-1.55-21.64s8.438 2.181 10.447 14.006zM81.22 252.332c-1.205 6.774-5.854 36.507-5.854 36.507s-3.387 2.468-8.61-1.205l-9.184-57.343s-.057-.23-.115-.69c3.846 3.215 6.372 7.635 7.29 12.571 1.55 8.496 4.764 20.952 10.275 19 8.036-2.813.803-33.177.344-35.014.574 1.32 7.06 19.688 5.855 26.174zM119.794 297.162s-3.904 3.33-10.677.861c0 0-.803-42.82-9.873-63.026a14.872 14.872 0 0 0-.803-1.664l.46.287c2.64 1.492 4.419 4.018 4.993 6.945 2.353 12.514 9.241 46.38 15.842 51.431-.287 2.181.058 5.166.058 5.166zM123.64 261.172c-1.378-14.522-6.43-24.05-8.955-28.126-.861-1.378-.746-3.157.344-4.363-.057.23-.057.287-.057.287s10.734 9.873 8.667 32.202z"/>
            <path stroke="#7094D7" d="M58.548 228.74s3.903 1.493 7.577-2.697M100.45 233.39s4.879.115 6.773-2.296"/>
            <path fill="#FAF3ED" d="M81.852 52.521l-.402 1.263-2.123 6.888-6.142 19.86-2.354 7.52-.574 1.55-5.74 16.36c-.918 4.476-2.64 6.6-4.19 7.69-1.435.977-3.329.92-4.821-.057L28.872 95.744l-3.903-2.64c5.97-.919 5.51-6.315 5.51-6.315l3.33 1.837 21.812 11.825c.114.057.344 0 .344-.172.46-2.813 3.501-22.674 5.051-32.89.115-.632.172-1.206.23-1.723.057-.402.115-.746.23-1.148.918-3.559 3.443-6.2 6.199-8.093 4.534-3.1 9.815-4.248 9.815-4.248l4.362.344z"/>
            <path fill="#FAF3ED" d="M110.437 83.805l-8.38 25.887 1.952 6.601 1.09 3.674a26.95 26.95 0 0 1-6.371 2.181 37.627 37.627 0 0 1-5.683.804c-1.664.115-3.272.172-4.879.115h-.287c-4.821-.115-9.413-.804-12.915-1.493a37.345 37.345 0 0 1-1.607-.344c-3.157-.69-5.108-1.263-5.108-1.263 1.033-1.665 1.894-3.33 2.525-4.937.976-2.353 1.665-4.592 2.066-6.658 1.263-6.257.287-10.62.287-10.62l-2.87-8.093-2.582-7.29c-.574-1.664-.747-3.443-.574-5.165l.746-6.372-2.124-5.051 7.232-7.003 4.592-4.477 3.903-.402 7.52-.804 17.794-1.894 5.108 28.241-1.435 4.363z"/>
            <path fill="#7094D7" d="M93.045 59.983c-3.386 2.354-8.61 2.01-13.718.747-2.182-.517-4.363-1.263-6.372-2.01a85.87 85.87 0 0 1-5.223-2.18c4.534-3.1 9.815-4.248 9.815-4.248l4.305.287-.402 1.263 7.52-.804c4.65 2.239 7.29 4.707 4.075 6.945zM70.257 89.66l-5.74 16.359c-.918 4.477-2.64 6.6-4.19 7.691-1.435.976-3.329.919-4.821-.057L28.872 95.8l-3.903-2.64c5.97-.918 5.51-6.314 5.51-6.314l3.33 1.837 21.812 11.824c.114.058.344 0 .344-.172.46-2.813 3.501-22.673 5.051-32.89.115-.632.172-1.206.23-1.723.057-.401.115-.746.23-1.148l6.313 6.028.058.172-.632 5.108c-.287 2.583 0 5.224.861 7.692l2.181 6.084z" opacity=".31"/>
            <path fill="#7094D7" d="M75.136 102.919c-1.836-5.28-3.673-10.62-5.567-15.9-.574-1.665-1.263-3.387-1.722-5.109-.69-2.697-.517-5.338-.172-8.036.172-1.205.63-2.697.114-3.845l-1.894-4.478-.516.287c.63 1.435 1.205 2.87 1.836 4.305.517 1.206.115 2.411-.057 3.731-.287 2.469-.517 4.822-.057 7.29.344 2.01 1.148 3.96 1.836 5.855 1.894 5.396 3.731 10.791 5.625 16.187.115 0 .632-.23.574-.287zM133.512 74.448c-.516 3.444-2.353 5.396-4.305 6.487-2.812 1.607-5.912 1.492-5.912 1.492l-3.272-24.223-14.005-4.592-10.103-5.28-1.55-.804.574-8.266.46-6.83s1.377-2.584 2.468-4.88c.976-2.009 1.722-3.788 1.033-3.272-1.148.976-3.444-.688-4.133-1.262-.057-.058-.115-.115-.172-.115.057.057.23.23.344.516.345.632.747 1.837.345 3.731-.115.69-.402 1.493-.746 2.411-.173.402-.345.746-.574 1.033-2.182 3.157-5.568-.114-5.568-.114.115 0 .23.057.344.057 4.42.861 4.477-2.468 3.215-6.601a3.827 3.827 0 0 0-.517-1.205c-1.492-2.756-4.248-1.837-9.012-5.281-.918-.69-1.55-1.32-1.951-1.952-1.837-2.87 1.435-4.994 1.435-4.994 1.435-2.985 3.042-4.821 4.706-5.97 4.018-2.812 7.98-1.205 7.98-1.205 6.026 1.55 9.413 4.65 11.192 8.208 1.263 2.584 1.722 5.339 1.78 8.037 0 4.649-1.32 8.84-1.895 10.446-.057.173-.115.402-.172.574-1.033 3.387.057 7.06 2.583 9.529 5.97 5.855 7.06-1.148 13.546 4.477 7.348 6.314 4.305 13.719 5.51 16.36 1.091 2.64 7.692 5.165 6.372 13.488z"/>
            <path fill="#114DBD" d="M131.905 73.645c-.172 2.41-1.263 5.051-2.698 7.29-2.812 1.607-5.912 1.492-5.912 1.492l-3.272-24.223-14.005-4.592-10.103-5.28-1.033-9.07.46-6.83s1.377-2.584 2.467-4.88l4.592.632s.632 2.927-2.009 5.453c-2.583 2.525-.057 11.71 7.692 10.79 7.749-.917 16.244 7.233 17.392 15.04 1.148 7.749 6.773 8.84 6.429 14.178z"/>
            <path fill="#7094D7" d="M93.504 8.208l-12.283 8.496-13.89 9.585h-1.55s-3.445-10.16 2.812-16.703c1.55-1.607 3.673-2.985 6.543-3.96C89.831.688 93.504 8.207 93.504 8.207z"/>
            <path fill="#114DBD" d="M93.504 8.208l-12.283 8.496-2.468-.115c-1.493 1.263-3.215 2.353-3.215 2.353l-6.486 1.55.689-2.124s2.009-2.296 4.994-3.788c1.951-.976 3.501-2.698 3.96-4.822.287-1.32.172-2.583-.86-3.387-1.895-1.492-6.028.861-9.242 3.157 1.55-1.607 3.673-2.984 6.543-3.96 14.695-4.88 18.368 2.64 18.368 2.64z"/>
            <path fill="#7094D7" d="M102.057 109.692l3.042 10.275c-9.987 4.994-24.28 2.927-31.857 1.263l.345-4.018s14.407 1.492 20.262-6.2c5.855-7.691 3.559-20.549 3.559-20.549s-7.348-.46-9.242-2.353l.46-.46c1.779-1.607 3.903-2.927 6.256-3.616 2.64-.803 6.544-3.157 8.61-9.758l4.764-7.404 2.067 16.875-8.266 25.945z" opacity=".31"/>
            <path fill="#FAF3ED" d="M125.419 97.696c-.058 3.845-.115 7.347-.172 10.102-.058 1.492-.058 2.813-.058 3.846-.057 1.607-.689 3.1-1.722 4.19-.976 1.033-2.296 1.722-3.788 1.837a16.44 16.44 0 0 1-2.87-.058c-5.224-.574-21.697-4.247-29.389-5.97a464.763 464.763 0 0 0-4.018-.918l.172-1.32.287-2.009.058-.344.688-4.65 3.56.517 25.14 3.616-4.879-39.72-7.06-16.073 3.042-1.09s17.507 3.214 19.803 9.987c1.32 4.19 1.378 23.534 1.206 38.057z"/>
            <path fill="#FFC1C2" d="M104.353 49.766s-2.927 7.979-13.03 10.734c-10.102 2.755-13.776-8.266-13.776-8.266s1.09-.631 4.88-2.583c3.845-2.009 1.55-6.6 1.55-6.6l8.15-7.98 3.96 1.378c-.401 2.87-.172 5.109.345 6.888 1.32 4.248 4.65 5.683 6.543 6.2.861.172 1.378.23 1.378.23z"/>
            <path fill="#FF8182" d="M104.353 49.766s-2.927 7.979-13.03 10.734c-10.102 2.755-13.776-8.266-13.776-8.266s1.09-.631 4.88-2.583c3.845-2.009 1.55-6.6 1.55-6.6l8.15-7.98 3.96 1.378c-.401 2.87-.172 5.109.345 6.888-2.813 2.813-6.486 5.109-9.816 8.438-7.92 7.864 1.665 7.75 1.665 7.75 8.438-1.378 12.743-6.602 14.637-9.988.918.172 1.435.23 1.435.23z" opacity=".54"/>
            <path fill="#114DBD" d="M66.527 35.646s4.132-1.435 6.6-9.357c2.469-7.92-3.386-7.92-3.386-7.92s-4.592 5.452-3.96 7.92c-.058 0 5.452 4.707.746 9.357z"/>
            <path fill="#FFC1C2" d="M103.435 27.84c-1.09 4.878-6.43 3.845-6.43 3.845l-.918 4.764s-.344.287-.918.804c-3.157 2.64-13.489 11.02-16.818 10.217-3.96-.918-5.224-10.275-5.224-10.275l-2.755-1.205 1.378-7.806c.115-.804-.115-1.608-.574-2.296l-.517-.804c-.115-.172-.23-.402-.344-.574-.402-.746-.574-1.607-.574-2.468v-2.067c0-1.033.574-1.951 1.435-2.41l9.586-5.052 5.166 3.502 12.054 8.265c-.058 0 6.543-1.32 5.453 3.56z"/>
            <path fill="#FF8182" d="M73.07 37.195s3.444-1.148 2.468-3.157M98.154 26.404c.402.287.689.689.918 1.148.574 1.09 0 2.01-.918 2.64a3.655 3.655 0 0 0 2.353-.286c1.493-.804 2.01-2.01 2.124-3.731 0 .114-.517.172-.517.287-.057 1.205-.287 2.41-1.262 3.214-.46.402-1.32.344-1.895.344-.114 0-.23-.057-.344-.057.172.057.689-.517.746-.631.23-.287.345-.632.402-.976.115-.804-.574-1.665-1.148-2.181 0-.115-.402.287-.46.23z"/>
            <ellipse cx="84.263" cy="34.211" fill="#FF8182" rx="2.583" ry="2.583"/>
            <path fill="#FF8182" d="M93.734 25.773l-.23 3.788-3.1 1.607-2.238-.975c3.157.114 3.387-2.01 3.387-2.01 1.148-5.567-6.716-8.61-6.716-8.61l.689 2.01c-6.83-1.435-7.233-6.487-7.233-6.487s-4.477 3.33-6.428 4.42c-1.32.746-1.493 3.33-1.493 4.994-.401-.746-.574-1.607-.574-2.468v-2.067c0-1.033.574-1.951 1.435-2.41l9.586-5.052 5.166 3.502 1.263 1.377 5.051 4.19 1.435 4.19z" opacity=".54"/>
            <path fill="#7094D7" d="M107.28 18.942l-8.437 4.937c-.058 0-.115.057-.173.114-1.262 1.091-3.96-1.09-4.362-1.377.057.057.172.23.344.459.058.115.115.23.173.402.401.976.688 2.87-.574 5.797-1.608 3.789-4.478 2.181-5.626 1.32-.287-.23-.516-.401-.516-.401 4.764 1.09 4.821-2.296 3.559-6.544a6.681 6.681 0 0 0-.345-.861c-1.263-2.87-3.673-2.239-7.806-4.707.23 1.033 1.263 1.952 1.263 1.952s-4.478-.402-5.74-4.937c-.517-1.894-.402-3.042-.058-3.73.172-1.149.746-1.838.746-1.838.976-2.066 2.124-3.558 3.387-4.649C88.11.517 94.251 2.985 94.251 2.985c6.199 1.607 9.643 4.879 11.365 8.552 1.205 2.354 1.664 4.937 1.664 7.405z"/>
            <path fill="#114DBD" d="M107.453 19.574a7.227 7.227 0 0 0-.173-.574C103.377 5.855 92.758 4.305 86.502 4.592c-1.378.057-2.469.23-3.33.344C88.166.574 94.308 3.042 94.308 3.042c6.2 1.607 9.643 4.88 11.365 8.553 1.32 2.526 1.78 5.28 1.78 7.979zM90.175 17.966s4.305 4.707 4.477 5.109c.058.115.287.344.574.631 1.091.976 2.469 1.55 3.904 1.55h1.78c.86 0 1.664.402 2.123 1.148l.402.287s.344-2.468-4.248-3.042c-4.592-.574-9.012-5.683-9.012-5.683z"/>
            <path fill="#FF8182" d="M97.006 31.685l-.919 4.764s-.344.287-.918.804l1.837-5.568z" opacity=".54"/>
            <path fill="#FF8182" d="M74.907 41.902c2.124.173 4.133-1.148 5.223-2.87.115-.172-.115-.574 0-.689-1.09 1.723-3.1 3.043-5.223 2.87v.69z"/>
            <path fill="#FF8182" d="M78.867 37.77c.287.975 1.32 1.434 2.296 1.377.173 0 .345-.287.517-.287-.918.057-2.009-.402-2.296-1.378 0 .058-.517.287-.517.287z"/>
            <path stroke="#7094D7" stroke-linecap="round" d="M63.886 13.432S67.617.632 82.943 2.583M85.468 1.665S95.17-2.813 104.87 6.37a14.147 14.147 0 0 1 4.477 9.873c.057 2.526-.23 5.798-1.263 9.988 0 0-4.764 12.858 6.716 13.89 11.48.977 13.26 9.53 13.26 11.481 0 1.952-.46 10.102 3.673 11.02 4.133.92 4.764 7.693 3.444 12.055"/>
            <path fill="#FF8182" d="M14.694 76.4l-1.664 1.09a6.029 6.029 0 0 0-2.698 4.306l-.23 1.607.632 1.148a2.05 2.05 0 0 0-.058 2.066l.804 1.493c.115.746.804 1.32 1.55 1.32h.918l1.607-1.722s10.62 8.495 12.628 4.19l-1.894-4.477-3.042-4.88-4.994-4.706-3.559-1.435z"/>
            <path fill="#FFC1C2" d="M31.57 88.684l-3.903 5.108-2.698-.631s-.057-.402-.344-1.09c-.46-1.091-1.665-2.813-4.42-3.961-4.42-1.837-4.305-3.904-4.076-4.363.23-.459 6.774 1.206 6.774 1.206s-.517-3.789-6.027-6.314c-5.51-2.526-9.93-6.774-9.3-7.233h.058c.689-.402 3.96 1.09 8.782 3.789.69.401 1.493.918 2.296 1.55 1.952 1.492 4.248 3.5 6.314 5.452a238.086 238.086 0 0 1 6.544 6.487z"/>
            <path stroke="#FFC1C2" stroke-linecap="round" d="M10.676 84.55l2.296-.057c.46 0 .861-.401.861-.918v-3.559M11.423 88.167l3.558-1.32V86.1"/>
            <path fill="#FF8182" d="M31.57 88.684l-3.903 5.108-2.698-.631s-.057-.402-.344-1.09c2.238-.69 4.132-2.297 2.41-5.97-.688-1.435-1.377-2.756-2.066-3.904a201.48 201.48 0 0 1 6.601 6.487zM18.655 76.744c-4.362-2.123-8.782-4.247-11.078-5.395.689-.402 3.96 1.09 8.782 3.788.631.402 1.435.976 2.296 1.607z" opacity=".54"/>
            <path fill="#7094D7" d="M93.045 123.01c-1.664.114-3.272.171-4.879.114h-.287c-4.821-.115-9.413-.804-12.915-1.492a37.345 37.345 0 0 1-1.607-.345c-3.157-.689-5.108-1.263-5.108-1.263 1.033-1.664 1.894-3.329 2.525-4.936.976-2.354 1.665-4.592 2.066-6.659 2.813 3.56 8.209 8.438 17.393 9.644l2.812 4.936z" opacity=".31"/>
            <path fill="#7094D7" d="M87.994 88.282c3.444.976 7.75 1.492 11.078-.172.172-.058.345-.23.46-.287-3.33 1.607-7.635 1.148-11.079.172-.115-.058-.344.287-.459.287z"/>
            <path fill="#7094D7" d="M117.842 107.396l-4.592-.746-4.879-39.721z" opacity=".31"/>
            <path fill="#7094D7" d="M125.419 97.696c-.058 3.845-.115 7.347-.172 10.102-.058 1.492-.058 2.813-.058 3.846-.057 1.607-.689 3.1-1.722 4.19-.976 1.033-2.296 1.722-3.788 1.837a16.44 16.44 0 0 1-2.87-.058c-5.224-.574-21.697-4.247-29.389-5.97a464.763 464.763 0 0 0-4.018-.918l.172-1.32.287-2.009.058-.344c10.217 3.214 34.153 10.102 37.31 4.534 2.066-3.444 3.386-9.184 4.19-13.89z" opacity=".31"/>
            <path stroke="#7094D7" d="M31.11 87.593l24.51 12.915s.288.115.345-.172l.057-.287 5.453-35.244s1.206-6.314 9.529-10.217c0 0 4.879-2.181 6.543-2.354 0 0 3.215 9.414 11.595 8.668 0 0 10.791-1.55 15.211-11.136 0 0 15.67 2.985 19.114 8.668 0 0 1.263 1.148 1.55 8.495.287 7.29.115 44.14.115 44.14s.344 6.774-6.946 6.717c-7.29-.058-33.808-7.233-33.808-7.233"/>
            <path stroke="#7094D7" d="M84.837 102.919l28.413 3.501-4.879-39.491"/>
            <path fill="#7094D7" d="M105.501 68.077c1.32 3.387 2.64 6.773 3.96 10.102 0 0 .517-.23.517-.287a1873.35 1873.35 0 0 0-3.96-10.102l-.517.287z"/>
            <path stroke="#7094D7" stroke-width="1.069" d="M110.437 83.805l-6.888 21.41M70.889 115.432s1.78-5.108 1.894-7.06"/>
            <path fill="#FF7235" d="M105.558 120.656c-2.066.86-4.305 1.435-6.658 1.837-3.501.574-7.175.746-10.734.63h-.287c-4.879-.171-9.47-.86-12.915-1.491a37.345 37.345 0 0 1-1.607-.345c-3.157-.689-5.108-1.263-5.108-1.263 1.033-1.664 1.894-3.329 2.525-4.936 4.075 1.837 12.685 4.535 25.658 2.755.574-.057 1.148-.172 1.722-.23a63.67 63.67 0 0 0 5.912-1.205l1.09 3.674c0-.115.115.115.402.574z"/>
            <g stroke="#FFF" stroke-linecap="round">
                <path d="M72.324 115.72l-2.124 4.82M75.48 116.752l-1.434 4.707M78.81 117.556l-.689 4.592M81.852 122.665v-4.65M85.526 123.01l-.46-4.708M89.601 123.124l-.86-4.707M94.136 123.01l-1.493-4.823M98.326 122.607l-1.722-4.821M101.942 121.861l-1.837-4.65M104.697 121l-2.066-4.362"/>
            </g>
            <path stroke="#7094D7" d="M25.887 93.448l29.619 20.147s3.386 2.469 6.371-1.377c0 0 2.296-2.928 2.755-6.601"/>
            <g>
                <path fill="#FF7235" d="M33.809 88.684c-.919 4.879-3.272 6.543-4.937 7.06l-3.903-2.64c5.97-.919 5.51-6.315 5.51-6.315l3.33 1.895z"/>
                <path stroke="#FFF" stroke-linecap="round" d="M30.365 94.998l-3.33-2.411M32.201 93.046l-3.1-2.009M33.522 90.004l-3.157-1.665"/>
            </g>
            <g>
                <path fill="#FFC1C2" d="M86.56 108.315l-3.158 2.525a23.82 23.82 0 0 1-3.157.23h-.918c-6.601.115-16.302-.919-16.761-1.665-.23-.344.918-.689 2.41-1.033 2.756-.689 6.774-1.32 5.74-1.722-.975-.402-4.649.23-7.92.46-2.067.114-3.961.114-4.937-.46-1.377-.804.058-1.78 1.607-2.526 1.148-.516 2.354-.918 2.64-1.033-1.262.287-2.238.46-3.041.517-3.157.287-3.215-.804-3.215-.804-.172-.86.402-1.435 1.263-1.894.574-.23 1.205-.46 1.894-.574 1.607-.344 3.272-.402 3.272-.402s-8.036-.172-5.223-1.664c.287-.173.688-.287 1.148-.402 2.123-.574 6.027-1.033 9.47-1.32 2.64-.23 5.339.114 7.807.975 1.492.517 2.927 1.263 4.305 2.182l5.912 4.075.861 4.535z"/>
                <path stroke="#FF8182" stroke-linecap="round" d="M62.222 99.934h6.83M62.107 103.091h9.585"/>
                <path fill="#FF8182" d="M86.56 108.315l-3.158 2.525a23.82 23.82 0 0 1-3.157.23c.46-.632.861-1.378 1.205-2.239 2.01-5.051-2.18-8.954-5.97-11.25 1.493.516 2.928 1.263 4.306 2.181l5.912 4.075.861 4.478zM55.793 102.747c-.172-.861.402-1.435 1.263-1.894.401.688 1.09 1.664 1.951 2.697-3.157.345-3.214-.803-3.214-.803zM62.738 107.11c-2.066.114-3.96.114-4.936-.46-1.378-.804.057-1.78 1.607-2.526a18.882 18.882 0 0 0 3.33 2.985zM79.27 111.07c-6.602.115-16.302-.919-16.761-1.665-.23-.344.918-.689 2.41-1.033 1.034.46 2.124.804 3.272 1.033 4.018.574 8.093 1.206 11.078 1.665zM58.95 100.279c1.607-.345 3.272-.402 3.272-.402s-8.036-.172-5.224-1.665c.287-.172.689-.287 1.148-.402.861 1.608 7.462 2.067 7.462 2.067l-6.658.402z" opacity=".54"/>
            </g>
            <g>
                <path fill="#FF7235" d="M87.42 111.701c-2.468-.574-4.018-.918-4.018-.918l1.205-8.266 3.56.517c.171 1.837.114 4.65-.747 8.667z"/>
                <path stroke="#FFF" stroke-linecap="round" d="M88.224 104.469l-3.789-.919M88.109 107.396l-4.076-1.205M87.764 109.98l-4.075-1.206"/>
            </g>
            <path stroke="#FAF3ED" stroke-dasharray="10.685" d="M102.631 126.97s16.072 32.546 10.045 100.565c0 0 7.347 12.054 7.921 33.12.058 1.665 0 3.272-.172 4.937l-2.87 28.24M81.852 160.147l-9.987 67.388s7.749 18.942 5.97 30.48c-1.78 11.537-4.535 28.7-4.535 28.7"/>
        </g>
        <path fill="#FF8182" d="M269.366 30.389s.689-2.813 2.985-3.444c2.296-.631 4.592.287 4.592.287"/>
        <path fill="#FFF" d="M276.254 28.38v.115c-.689.86-1.55 1.377-2.41 1.607-.46.115-.862.23-1.264.287-1.32.172-2.468-.057-2.468-.057l.46-.919s.401-.689 1.262-1.205c.402-.23.976-.402 1.607-.46.747 0 1.722.173 2.813.632z"/>
        <path fill="#114DBD" d="M270.4 30.274c.286-.516.458-.976.86-1.377 1.263-1.263 3.1-.861 4.592-.287.23.114 1.148-.287.804-.402-2.928-1.148-5.855-.574-7.29 2.238-.057.115.861.058 1.033-.172z"/>
        <g>
            <path fill="#114DBD" d="M273.843 30.16c-.459.114-.86.229-1.263.286-.401-.114-.746-.459-.918-.918-.115-.46-.057-.918.172-1.263.402-.23.976-.402 1.607-.459.345.172.69.46.804.861.172.574 0 1.148-.402 1.492z"/>
            <path fill="#FFF" d="M274.417 28.552l-1.32.46 1.492.516z"/>
        </g>
        <path fill="#114DBD" d="M267.874 25.854l4.19-1.779c.115-.057.287-.057.402-.057l5.912 1.033h-6.085c-.114 0-.287.057-.401.115l-3.444 2.009a.715.715 0 0 1-1.034-.345c-.057-.402.115-.86.46-.976z"/>
    </g>
</svg>
