<?xml version="1.0" encoding="UTF-8"?>
<svg width="362px" height="82px" viewBox="0 0 362 82" version="1.1" xmlns="http://www.w3.org/2000/svg" xmlns:xlink="http://www.w3.org/1999/xlink">
    <!-- Generator: Sketch 52.3 (67297) - http://www.bohemiancoding.com/sketch -->
    <title>STEP 2</title>
    <desc>Created with Sketch.</desc>
    <defs>
        <linearGradient x1="50%" y1="0%" x2="50%" y2="100%" id="linearGradient-1">
            <stop stop-color="#CFD6E6" offset="0%"></stop>
            <stop stop-color="#CFD6E6" stop-opacity="0.166383605" offset="100%"></stop>
        </linearGradient>
    </defs>
    <g id="Page-1" stroke="none" stroke-width="1" fill="none" fill-rule="evenodd" opacity="0.55750093">
        <g id="desktop2560" transform="translate(-805.000000, -3309.000000)" fill="url(#linearGradient-1)">
            <g id="Group-20" transform="translate(-272.000000, -104.000000)">
                <g id="Group-19">
                    <path d="M1134.41211,3439.77246 L1122.64941,3439.77246 L1120.6084,3429.03027 C1119.24771,3428.17089 1117.26043,3427.41895 1114.64648,3426.77441 C1112.03254,3426.12988 1109.2575,3425.80762 1106.32129,3425.80762 C1102.02439,3425.80762 1098.7033,3426.71174 1096.35791,3428.52002 C1094.01252,3430.3283 1092.83984,3432.6647 1092.83984,3435.5293 C1092.83984,3438.17905 1094.06623,3440.35432 1096.51904,3442.05518 C1098.97185,3443.75603 1103.20602,3445.55533 1109.22168,3447.45312 C1117.85128,3449.85223 1124.395,3453.02114 1128.85303,3456.95996 C1133.31106,3460.89878 1135.54004,3466.07288 1135.54004,3472.48242 C1135.54004,3479.17842 1132.89033,3484.45994 1127.59082,3488.32715 C1122.29131,3492.19436 1115.30896,3494.12793 1106.64355,3494.12793 C1100.44886,3494.12793 1094.85403,3493.14324 1089.85889,3491.17383 C1084.86374,3489.20442 1080.70119,3486.48309 1077.37109,3483.00977 L1077.37109,3466.68164 L1089.50977,3466.68164 L1091.1748,3477.7998 C1092.75033,3479.08887 1094.8898,3480.15413 1097.59326,3480.99561 C1100.29673,3481.83708 1103.31346,3482.25781 1106.64355,3482.25781 C1110.94045,3482.25781 1114.20783,3481.38054 1116.4458,3479.62598 C1118.68377,3477.87141 1119.80273,3475.52606 1119.80273,3472.58984 C1119.80273,3469.58202 1118.73748,3467.16505 1116.60693,3465.33887 C1114.47639,3463.51269 1110.74352,3461.79395 1105.4082,3460.18262 C1096.13407,3457.49706 1089.11591,3454.31024 1084.35352,3450.62207 C1079.59112,3446.9339 1077.20996,3441.88512 1077.20996,3435.47559 C1077.20996,3429.13766 1079.89548,3423.95461 1085.2666,3419.92627 C1090.63772,3415.89793 1097.38733,3413.83008 1105.51562,3413.72266 C1111.53128,3413.72266 1117.00974,3414.63573 1121.95117,3416.46191 C1126.8926,3418.2881 1131.04621,3420.72297 1134.41211,3423.7666 L1134.41211,3439.77246 Z M1210.57422,3414.79688 L1210.57422,3435.63672 L1198.54297,3435.63672 L1197.89844,3426.88184 L1183.50391,3426.88184 L1183.50391,3481.98926 L1191.88281,3483.60059 L1191.88281,3493 L1159.44141,3493 L1159.44141,3483.60059 L1167.82031,3481.98926 L1167.82031,3426.88184 L1153.47949,3426.88184 L1152.83496,3435.63672 L1140.85742,3435.63672 L1140.85742,3414.79688 L1210.57422,3414.79688 Z M1266.16504,3458.625 L1239.68555,3458.625 L1239.68555,3480.96875 L1264.92969,3480.96875 L1265.62793,3471.62305 L1277.55176,3471.62305 L1277.55176,3493 L1215.67676,3493 L1215.67676,3483.60059 L1224.00195,3481.98926 L1224.00195,3425.86133 L1215.67676,3424.25 L1215.67676,3414.79688 L1277.44434,3414.79688 L1277.44434,3436.22754 L1265.41309,3436.22754 L1264.71484,3426.88184 L1239.68555,3426.88184 L1239.68555,3446.54004 L1266.16504,3446.54004 L1266.16504,3458.625 Z M1323.15234,3414.79688 C1332.10421,3414.79688 1339.16713,3417.09747 1344.34131,3421.69873 C1349.51549,3426.29999 1352.10254,3432.32451 1352.10254,3439.77246 C1352.10254,3447.25622 1349.51549,3453.27179 1344.34131,3457.81934 C1339.16713,3462.36688 1332.10421,3464.64062 1323.15234,3464.64062 L1309.93945,3464.64062 L1309.93945,3481.98926 L1318.31836,3483.60059 L1318.31836,3493 L1285.93066,3493 L1285.93066,3483.60059 L1294.25586,3481.98926 L1294.25586,3425.86133 L1285.93066,3424.25 L1285.93066,3414.79688 L1323.15234,3414.79688 Z M1309.93945,3452.55566 L1323.15234,3452.55566 C1327.52086,3452.55566 1330.82404,3451.36508 1333.06201,3448.98389 C1335.29998,3446.60269 1336.41895,3443.56805 1336.41895,3439.87988 C1336.41895,3436.1201 1335.29998,3433.01385 1333.06201,3430.56104 C1330.82404,3428.10822 1327.52086,3426.88184 1323.15234,3426.88184 L1309.93945,3426.88184 L1309.93945,3452.55566 Z M1384.97363,3493 L1384.97363,3482.74121 L1410.27148,3455.61719 C1413.92385,3451.42771 1416.51985,3447.89178 1418.05957,3445.00928 C1419.59929,3442.12678 1420.36914,3439.45021 1420.36914,3436.97949 C1420.36914,3433.6852 1419.48292,3430.99073 1417.71045,3428.896 C1415.93798,3426.80126 1413.42254,3425.75391 1410.16406,3425.75391 C1406.54751,3425.75391 1403.79933,3426.98029 1401.91943,3429.43311 C1400.03954,3431.88592 1399.09961,3435.1533 1399.09961,3439.23535 L1383.8457,3439.23535 L1383.73828,3438.91309 C1383.55924,3431.85901 1385.87774,3425.88821 1390.69385,3421.00049 C1395.50995,3416.11277 1401.99996,3413.66895 1410.16406,3413.66895 C1418.22074,3413.66895 1424.55857,3415.76365 1429.17773,3419.95312 C1433.7969,3424.1426 1436.10645,3429.72848 1436.10645,3436.71094 C1436.10645,3441.43752 1434.80844,3445.80597 1432.2124,3449.81641 C1429.61636,3453.82684 1425.31058,3459.05466 1419.29492,3465.5 L1405.38379,3480.7002 L1405.49121,3480.96875 L1425.79395,3480.96875 L1426.43848,3473.23438 L1438.3623,3473.23438 L1438.3623,3493 L1384.97363,3493 Z" id="STEP-2"></path>
                </g>
            </g>
        </g>
    </g>
</svg>