<?xml version="1.0" encoding="utf-8"?>
<!-- Generator: Adobe Illustrator 18.0.0, SVG Export Plug-In . SVG Version: 6.00 Build 0)  -->
<!DOCTYPE svg PUBLIC "-//W3C//DTD SVG 1.1//EN" "http://www.w3.org/Graphics/SVG/1.1/DTD/svg11.dtd">
<svg version="1.1" id="Layer_3" xmlns="http://www.w3.org/2000/svg" xmlns:xlink="http://www.w3.org/1999/xlink" x="0px" y="0px"
	 viewBox="0 0 771 698" enable-background="new 0 0 771 698" xml:space="preserve">
<g>
	<rect x="375.3" y="37.6" fill="#7094D7" width="220" height="168.8"/>
	<rect x="362.7" y="45.2" fill="#FAF3ED" width="220" height="168.8"/>
	<g>
		<path fill="#114DBD" d="M583.3,214.6H362.2V44.7h221.1V214.6z M363.3,213.5h218.9V45.8H363.3V213.5z"/>
	</g>
	<rect x="362.7" y="45.2" fill="#114DBD" width="220" height="13.4"/>
	<g>
		<circle fill="#FFFFFF" cx="373.6" cy="51.9" r="2.3"/>
		<circle fill="#FFFFFF" cx="383.6" cy="51.9" r="2.3"/>
		<circle fill="#FFFFFF" cx="393.6" cy="51.9" r="2.3"/>
	</g>
	<g>
		<path fill="#8BAEEC" d="M538.6,115.6v70.6c0,2.7-2.2,4.8-4.8,4.8h-71.6c-2.7,0-4.8-2.2-4.8-4.8V84.8c0-2.7,2.2-4.8,4.8-4.8h46.4
			L538.6,115.6z"/>
		<polygon fill="#7094D7" points="538.6,115.6 538.6,140 516.8,115.6 		"/>
		<g>
			<path fill="#FFFFFF" d="M479.9,142.5v6.1h-3.5v-17.2h6.7c1.3,0,2.4,0.2,3.4,0.7c1,0.5,1.7,1.1,2.3,2c0.5,0.9,0.8,1.9,0.8,3
				c0,1.7-0.6,3-1.7,4c-1.2,1-2.8,1.5-4.8,1.5H479.9z M479.9,139.7h3.2c0.9,0,1.7-0.2,2.1-0.7c0.5-0.4,0.7-1.1,0.7-1.9
				c0-0.8-0.2-1.5-0.7-2c-0.5-0.5-1.2-0.8-2.1-0.8h-3.3V139.7z"/>
			<path fill="#FFFFFF" d="M492,148.6v-17.2h5.3c1.5,0,2.9,0.3,4.1,1s2.1,1.7,2.8,2.9c0.7,1.3,1,2.7,1,4.3v0.8c0,1.6-0.3,3-1,4.3
				c-0.7,1.2-1.6,2.2-2.8,2.9c-1.2,0.7-2.6,1-4.1,1H492z M495.5,134.2v11.5h1.7c1.4,0,2.4-0.5,3.2-1.4c0.7-0.9,1.1-2.2,1.1-3.9v-0.9
				c0-1.8-0.4-3.1-1.1-4c-0.7-0.9-1.8-1.4-3.2-1.4H495.5z"/>
			<path fill="#FFFFFF" d="M518.1,141.6h-6.8v7h-3.5v-17.2h11.2v2.9h-7.7v4.4h6.8V141.6z"/>
		</g>
		<path fill="#CFD6E6" d="M538.6,115.6h-21.8c-4.6,0-8.3-3.7-8.3-8.3V79.9L538.6,115.6z"/>
		<circle fill="#114DBD" cx="435" cy="161.5" r="29.9"/>
		<g>
			<g>
				<path fill="#FFFFFF" d="M447.8,167.2l-13.3,13.3l-13.3-13.3c-0.5-0.5-0.5-1.2,0-1.7c0.5-0.5,1.2-0.5,1.7,0l10.3,10.3v-30
					c0-0.7,0.5-1.2,1.2-1.2c0.7,0,1.2,0.5,1.2,1.2v30l10.3-10.3c0.5-0.5,1.2-0.5,1.7,0C448.3,166,448.3,166.7,447.8,167.2z"/>
			</g>
		</g>
	</g>
</g>
<g>
	<path opacity="0.35" fill="#7094D7" d="M340.5,666.7c0,0-49.5-19.4-61.5-22c-11.9-2.6-32.4-40.9-32.4-40.9
		c17.1-1.5,44.4,4.3,44.4,4.3l-13.7-44.2l-21.9-16.5c-14.7-3.5-24-11.5-38.2-14.1c-14.2-2.6-6.6-2.6-11.9-8.5
		c-5.3-5.8-29.4-9.4-44.4-4.6c-7.1,2.3-4.6,5.4-0.1,8c4.4,2.5,4.6,7.2,0.8,10.1c0,0-0.1,0.1-0.1,0.1c-4.1,3.2-2.8,17.3-2,23.1
		c0.2,1.5,1.8,2.7,3.8,2.8c8.8,0.5,20.2-1.4,20.2-1.4c-10.3,13.4,19,35.1,27.4,40.9c1.3,0.9,2.1,2,2.2,3.3
		c1.4,13.7,34,33.4,45.9,40.1c2.5,1.4,4.1,3.4,4.7,5.7c0.3,1.1,0.7,2.4,1.3,4.1c2,5.6,18.8,11.4,18.8,11.4
		c33.3,13.7,50.4,6.9,58.5,5.6C350.3,673,340.5,666.7,340.5,666.7z M186.7,558l-13.1,0.9l3.2-10.4
		C176.8,548.4,189.9,552.9,186.7,558z M223.1,544.4l11,4l1.5,7.8C235.6,556.2,221.7,553.6,223.1,544.4z"/>
	<path fill="#114DBD" d="M248.9,512L248.9,512c0.1-1.2,1.4-2,2.5-1.5c1.6,0.6,3.5,1.6,3.3,3c-0.4,2.3-7.7,4.6-7.7,4.6L248.9,512z"/>
	<path fill="#FF9E9F" d="M263.2,535.9c-2.5,4.8-2.8,15.1-2.7,22.3c0,1,0,1.9-0.1,2.9c-0.4,5.2-2.1,10.1-5.1,14.4
		c-3.5,5.1-8,9.8-11,6.3c-5.6-6.6-5.4-20.7-2.5-30.1c2-6.6,1.6-14.8,1.3-19.1c-0.2-1.8-0.7-3.5-1.4-5.1c-3-6.2-2.9-10.4-2-13.2
		c0.9-2.7,3.5-4.5,6.4-4.5c3.3,0,7.4,3.2,9.4,4c3.3,1.4,6.4,3.9,6.4,3.9l9.9,4.5C271.8,522.2,267.2,528,263.2,535.9z"/>
	<path fill="#FFC1C2" d="M342.4,671.7c-3.8,1.3-10,2.5-19.8,2.2c-15.1-0.4-23.5-10.8-26.9-16.1c-1.2-1.9-3.1-3.4-5.2-4.3
		c-8.7-3.9-11.2-12.5-8.1-19.4c0.1-0.2,0.1-0.3,0.2-0.5c0.7-1.6,1.2-3.2,1.7-4.9c1.9-6.6,2.4-13.2,2.4-13.2l6.2-5.4l7.2-6.2
		c0,0,0.4,1.8,1.2,4.5c0.9,3.4,2.4,8.4,4.1,13.3c0.8,2.2,1.6,4.5,2.5,6.5c2.3,5.5,13.7,16.9,23.7,26.2c0.7,0.7,1.4,1.3,2.1,1.9
		c2.5,2.4,4.9,4.5,7,6.4c1.1,1,2.2,1.9,3.1,2.7C345.9,667.2,345.2,670.8,342.4,671.7z"/>
	<path fill="#FF9E9F" d="M340.6,662.6l-14.8,4.4l-25.7-8.8l-14.7-15.8l-2.7-8.8c3.3-7.7,4.1-18.1,4.1-18.1l6.2-5.4l8.4-1.7
		c0.9,3.4,2.4,8.4,4.1,13.3c-0.9,0.3-1.9,0.5-2.9,0.8c-3.5,0.8-5.5,4.6-4,7.9c3.1,6.9,7.4,16.9,9.1,21.7c2.2,6.4,18.2,3.6,23.9,2.3
		C334.9,657.4,338,660.3,340.6,662.6z"/>
	<path fill="#114DBD" d="M342.4,671.7c-3.8,1.3-10,2.5-19.8,2.2c-15.1-0.4-23.5-10.8-26.9-16.1c-1.2-1.9-3.1-3.4-5.2-4.3
		c-8.7-3.9-11.2-12.5-8.1-19.4c0.1-0.2,0.1-0.3,0.2-0.5c0.7-1.6,1.2-3.2,1.7-4.9c0.8,0.6,1.4,1.6,1.8,3.3c1.9,7.5,7,13.6,13.4,19
		c6.4,5.4,7.2,12.3,23.5,8.3c4.6-1.1,8-2.1,10.5-3c2.5,2.4,4.9,4.5,7,6.4c1.1,1,2.2,1.9,3.1,2.7
		C345.9,667.2,345.2,670.8,342.4,671.7z"/>
	<path fill="#8BAEEC" d="M354,475.2c0,0-0.4,6.6-21,15.7s-29.7,14.2-29.7,14.2l-0.2,0.2l-4.8,3.3l-3.6,2.5l-11.2,7.6l-12.3,8.4
		l-3.2,2.2l-0.4,0.3c-1.6,1.1-3.8,0.9-5.2-0.4c-3.9-3.7-10-11.3-3.6-16.7c3.4-2.8,7.6-7.8,11.5-12.9c1.5-1.9,2.9-3.8,4.2-5.6
		c4.5-6.1,7.9-11.2,7.9-11.2s0.1-0.1,0.4-0.4c0.5-0.5,1.6-1.4,3-2.6c4.8-4,13.8-11,22.1-15c4.4-2.1,8.6-3.3,11.9-2.7l-6.7-59.1
		l-0.3-2.4l-0.5-38.9l0-3.4l20.4-50l0.2-0.5l3.3-8.1l1.3-3.1l0.9,0.8l1.5,1.4l2.1,2.1c0,0,0.6,1.9,1.4,4.8c0.1,0.2,0.1,0.5,0.2,0.7
		c1.7,6,4.3,15.6,5.2,21.9C349.9,337.9,368.8,404.4,354,475.2z"/>
	<path fill="#7094D7" d="M339.2,481.2c-15,9.7-43.9,20.5-46.9,25c-2.2,3.3-5.4,7.7-8.9,12.4l-15.9,10.8c-1.6,1.1-3.8,0.9-5.2-0.4
		c-3.9-3.7-10-11.3-3.6-16.7c8.8-7.5,23.5-29.7,23.5-29.7s25.2-22.7,37.5-20.6c0,0,2.2,11.9,8.6,15.1c2.7,1.3,6.3,1.2,9.6,0.6
		C339.9,477.4,340.9,480.1,339.2,481.2z"/>
	<path fill="#8BAEEC" d="M338.1,303.9l-1,3.1l-0.2,0.6l-15.4,49.7l-6.8,21.8c0,0-0.8,10.2-1.8,23.8v0c-0.7,9.2-1.5,20-2.3,30.2
		c-0.8,10.1-1.9,21.5-2.9,31.6c-1.6,15.2-3,27.4-3,27.4c-0.4,2.3-0.7,4.6-1,7.1c-0.2,1.9-0.5,3.9-0.7,6
		c-3.8,40.8,0.8,101.3,1.6,110.7c0.1,0.8-0.4,1.6-1,2c-1.3,0.7-2.7,1.3-4,1.6c-1,0.3-2,0.5-3,0.6c-0.4,0.1-0.9,0.1-1.3,0.1
		c-2.4,0.1-4.6-0.1-6.3-0.3c-1.9-0.3-3.4-1.8-3.6-3.8c-1.4-13.9-9.1-43-9.1-43c-6-14.7-8.1-30.1-8.3-44c-0.2-11.4,0.9-21.7,2.2-29.7
		c0.8-5.2,1.8-9.4,2.5-12.3c0.7-3,0.9-6.1,0.5-9.2c-2.8-21.3-13.7-105.5-14.4-128.6c-0.8-26.5,13.7-52.6,13.7-52.6l58.3-8.2l0.2,0.4
		l5.2,10.6L338.1,303.9z"/>
	<path fill="#7094D7" d="M337.3,335.5l-1.9,7.5c-0.8,3.2-1.9,6.3-3.3,9.2c-2.7,5.3-7.5,19.7-7,53.6c0.6,46.7-5.4,56.2-5.4,56.2
		l-7-61.5l-0.5-38.9C327.3,359.1,337,336.3,337.3,335.5z"/>
	<path fill="#7094D7" d="M343.4,306.4c-0.9,0.2-1.9,0.4-3,0.6c-1,0.2-2.2,0.4-3.4,0.6c-0.3,0.1-0.7,0.1-1,0.2
		c-1.1,0.2-2.2,0.3-3.4,0.5c-7.8,1-18.2,1.7-30.9,1.3c-27.5-1-18.6,136.4-16,170.2c0.1,0.9,0.1,1.8,0.2,2.6c0,0.1,0,0.2,0,0.3
		c0.4,4.4,2.3,8.6,5.7,11.4c0.2,0.2,0.4,0.3,0.7,0.5c2.7,2,4.5,4.8,5.4,7.9c0.6,2,0.8,4,0.6,6.1c0,0.6-0.1,1.1-0.2,1.7
		c-0.1,0.2-0.1,0.5-0.1,0.8c-4.4,23-10.3,68.7,1.7,108.5c-1,0.3-2,0.5-3,0.6c-0.4,0.1-0.9,0.1-1.3,0.1c-1.2-0.1-2.2-0.2-3.1-0.3
		c-1.9-0.3-3.4-1.8-3.6-3.8c-1.4-13.9-9.1-43-9.1-43c-6-14.7-8.1-30.1-8.3-44c0-0.7,0-1.4,0-2.2v0c0-10.6,1-20.1,2.2-27.6
		c0.3-2,0.7-3.9,1-5.6c0.5-2.7,1-4.9,1.5-6.7c0.7-3,0.9-6.1,0.5-9.2c-2.8-21.3-13.7-105.5-14.4-128.6c-0.8-26.5,13.7-52.6,13.7-52.6
		l55.3-7.7l3-0.4l4.3,8.8l1.1,2.2l0.4-0.9l2.1,2.1c0,0,0.6,1.9,1.4,4.8C343.2,305.9,343.3,306.1,343.4,306.4z"/>
	<g>
		<path fill="#7094D7" d="M312.2,362.1C312.2,362.1,312.2,362.1,312.2,362.1c-0.4,0-0.6-0.3-0.5-0.6c2.7-18.3-8.8-25.4-8.9-25.5
			c-0.3-0.2-0.3-0.5-0.2-0.7c0.2-0.3,0.5-0.3,0.7-0.2c0.1,0.1,12.2,7.5,9.4,26.6C312.7,361.9,312.5,362.1,312.2,362.1z"/>
	</g>
	<path fill="#114DBD" d="M260.4,561c-0.4,5.2-2.1,10.1-5.1,14.4c-3.5,5.1-8,9.8-11,6.3c-5.6-6.6-5.4-20.7-2.5-30.1
		c2-6.6,1.6-14.8,1.3-19.1c-0.2-1.8-0.7-3.5-1.4-5.1c-3.1-6.3-2.9-10.5-2-13.3c0.9-2.7,3.5-4.4,6.3-4.4c2.1,0,4,0.3,5.5,0.7
		c1.2,0.3,1.7,1.7,0.9,2.7c-1.2,1.5-2.7,2.9-3.5,4.8c-2.9,6.5-1.8,13.3-1.5,16.6c0.2,2.4,0.4,4.9,0.3,7.3
		c-0.1,5.1-1.5,12.9-1.4,17.6c0,1.8,0.7,3.6,2.5,4.1C251.3,564.1,255.3,564.1,260.4,561z"/>
	<g>
		<path fill="#7094D7" d="M276.5,124.2l1.5-10.7l11.9,3.9l2.5,10.2l5.9,17.9l-12,32l-35.1,62c0,0-17.1-4.5-26.9-19.2
			C214.5,205.8,257,155,257,155S280.5,143,276.5,124.2z"/>
		<g>
			<path fill="#7094D7" d="M283.3,161.5l-25.1,8.8c-3.1,1.1-5.6,3.4-6.8,6.5l-14.4,33.8l-6.9,16.2c-0.3-0.3-0.7-0.6-1-0.9
				c-8.5-8.2-10.4-16.2-10-22.7c0.1-2.7,0.7-5.1,1.3-7.1c0.2-0.7,0.5-1.4,0.8-2.1c0-0.1,0.1-0.2,0.2-0.3c1.3-2.5,3.5-4.5,6.1-5.6
				c5.1-2.1,12.9-7,12.1-17.4c-1.3-15.3,11-19,11-19c22.8-5,20.3-20.3,20.3-20.3s-1.5-6.4-1.9-14.1h11.8c0,0.2-0.3,0.9-0.4,1.1
				c-0.4,1.2-0.5,2.4-0.5,3.5c0.1,3.5,1.7,6.5,3.3,8.6c2.3,3,3.9,6.5,4.5,10.3C290,156.9,283.3,161.5,283.3,161.5z"/>
		</g>
		<g>
			<path fill="#7094D7" d="M216.4,200.1l1-0.2c-0.7-4.5,0.8-13.2,10.7-17.4c8.1-3.4,8.7-13.8,8.6-18.1c-0.1-2.5,0.2-4.8,0.9-6.8
				c1.5-4.8,5-10.7,13-11.2c13.6-0.8,15.8-12.2,16.2-15.6c0.4-3.9-1-18.9-1.1-19.5c0-0.2-1.9-22.2,17.9-33c19.8-10.7,30.9,0,31,0.1
				l0.7-0.7c-0.1-0.1-11.8-11.3-32.2-0.3c-20.4,11.1-18.4,33.7-18.4,34c0,0.2,1.5,15.5,1.1,19.3c-0.4,4.2-2.8,14-15.3,14.7
				c-8.6,0.5-12.3,6.8-13.9,11.9c-0.7,2.2-1,4.6-0.9,7.2c0.1,4.1-0.4,14-8,17.1C217.2,186,215.6,195.3,216.4,200.1z"/>
		</g>
		<path fill="#114DBD" d="M287.4,116.1c0,0-13.1,6.7-6.1,18.1s-6.8,26-15.9,27.1c-9.1,1.1-22,13.3-22.9,31.6s-28,28.1,7.3,45.4
			l43.7-86l1.9-40.6L287.4,116.1z"/>
		<path fill="#FF521C" d="M400.1,243.6l3.9-2c0,0,2,0.2,4.1,5s1.8,6,1.8,6l-5.6,0.1L400.1,243.6z"/>
		<path fill="#7094D7" d="M328.9,177.8l-1,1.3l-7.4-4.8l-10.8,0.2l-1,0l0.1-0.9l4.6-36.3l0-1.4l1.1-51.6l0-2c0,0,5.6-2.9,11.7,1.1
			c1.6,1,3.1,2.7,4.5,4.7v0c1.6,2.4,3.1,6.1,4.1,9.4c1.2,3.7,1.5,7.6,0.8,11.4c-0.1,0.6-0.2,1.2-0.3,1.8c0,0,0,0,0,0
			c-0.8,5.2-1.4,12.4,0.1,17.7c1.3,4.6-0.5,13.9,0.7,21.2C337.9,159.5,335.1,169.7,328.9,177.8z"/>
		<path fill="#114DBD" d="M323,174.3l-1.1,1.3l-6.2-3.4l-10.8-0.6l-0.8-0.9l-5.2-5.6l12.4-31.6l7.7-47l5.7,3.3c5.2,3,9,8.2,10,14.2
			c0.3,1.7,0.4,3.6,0.4,5.7c0,0,0,0,0,0c-1.2,5.1-2,12.1-0.8,17.6c1,4.7-3.1,14.1-1.1,21.3C335.8,158.6,329.6,166.7,323,174.3z"/>
		<g>
			<path fill="#FFC1C2" d="M458.1,248.1c0,0.9-0.7,1.7-1.6,1.8l-12.9,1.1l-10.9,2.7c-1,0.2-2,0.3-2.9,0.2c-4.7-0.5-19.2-2-20.7-1.3
				l-2.6-0.5l-4.3-2.3l-3.1-1.7l2.5-3.7l2.1-1.9c0,0,4.6-1.1,12.5-6.5c1.5-1,3.2-1.6,4.9-1.8c1.6-0.2,3.6-0.4,5.2-0.9
				c0.7-0.2,1.3-0.4,1.7-0.7c1.6-1,4.8-2,6.5-2.5c1.4-0.4,2.9,0.8,2.6,2.3c-0.1,0.3-0.3,0.7-0.5,1.2c-1.3,2.1-6,4-8.4,4.9
				c-0.5,0.2-0.8,0.5-1,0.9c-0.1,0.4-0.2,0.8,0,1.2c0.6,1.8,2,4.4,4.5,4.9l4.1-4.8c0.5-0.6,1.3-0.8,2-0.5c0.6,0.3,1,0.9,1,1.6
				c0,0.3-0.1,0.6-0.2,0.9l-2.8,4.6l7.7-7.1c0.8-0.7,2-1,3-0.6c0,0,0.1,0,0.1,0c1,0.4,1.2,1.7,0.4,2.4l-2.9,2.7c0,0,2,0.1,6.2-3.4
				c0.8-0.6,1.8-0.9,2.7-0.5c0,0,0,0,0,0c1.3,0.5,1.6,2.2,0.5,3.2l-3.1,2.7C450.7,246.7,456.9,245.3,458.1,248.1z"/>
			<path opacity="0.54" fill="#FF8182" d="M458.1,248.1c0,0.9-0.7,1.7-1.6,1.8l-12.9,1.1l-10.9,2.7c-1,0.2-2,0.3-2.9,0.2
				c-4.7-0.5-19.2-2-20.7-1.3l-2.6-0.5l-4.3-2.3c0-1.4,0.6-2.8,1.9-4.3c0,0,5-4.1,15.8-0.6c10.8,3.5,11.7,0.6,11.7,0.6l4.1-4.8
				c0.5-0.6,1.3-0.8,2-0.5c0.6,0.3,1,0.9,1,1.6c0,0.3-0.1,0.6-0.2,0.9l-2.8,4.6l7.7-7.1c0.8-0.7,2-1,3-0.6c0,0,0.1,0,0.1,0
				c1,0.4,1.2,1.7,0.4,2.4l-2.9,2.7c0,0,2,0.1,6.2-3.4c0.8-0.6,1.8-0.9,2.7-0.5c0,0,0,0,0,0c1.3,0.5,1.6,2.2,0.5,3.2l-3.1,2.7
				C450.7,246.7,456.9,245.3,458.1,248.1z"/>
			<path opacity="0.54" fill="#FF8182" d="M436.9,232.4c-0.1,0.3-0.3,0.7-0.5,1.2c-1.3,2.1-6,4-8.4,4.9c-0.5,0.2-0.8,0.5-1,0.9
				c-1.3-1.1-2.7-3.2-1-6.1c0.7-0.2,1.3-0.4,1.7-0.7c1.6-1,4.8-2,6.5-2.5C435.8,229.7,437.3,231,436.9,232.4z"/>
			<g>
				<path fill="#FF8182" d="M431.4,252.6c-0.1,0-0.2,0-0.3-0.1c-0.2-0.2-0.2-0.5,0-0.7l4.2-4.8c0.2-0.2,0.5-0.2,0.7,0
					c0.2,0.2,0.2,0.5,0,0.7l-4.2,4.8C431.7,252.6,431.5,252.6,431.4,252.6z"/>
			</g>
			<g>
				<path fill="#FF8182" d="M437.5,251.5c-0.1,0-0.3-0.1-0.4-0.2c-0.2-0.2-0.2-0.5,0-0.7l6.4-6.1c0.2-0.2,0.5-0.2,0.7,0
					c0.2,0.2,0.2,0.5,0,0.7l-6.4,6.1C437.8,251.4,437.6,251.5,437.5,251.5z"/>
			</g>
			<g>
				<path fill="#FF8182" d="M443.5,251.5c-0.2,0-0.3-0.1-0.4-0.2c-0.1-0.2-0.1-0.5,0.2-0.7l6.7-4.1c0.2-0.1,0.5-0.1,0.7,0.2
					c0.1,0.2,0.1,0.5-0.2,0.7l-6.7,4.1C443.7,251.4,443.6,251.5,443.5,251.5z"/>
			</g>
		</g>
		<path fill="#FFC1C2" d="M319.8,172.1l-1.8,7.3l-21.2,6.7l-23.4-14.1l3.1-6.7c0,0,18.9-7,15.2-31l1.7-0.4l3.7-0.9l2.4-0.6l10.2,6.9
			l4.6,3.2l5.1,3.5c0,0-0.4,0.9-0.9,2.4c-0.4,1.3-3,2.9-3.4,4.8c0,0.1-0.1,0.3-0.1,0.4c-0.7,3.2-1.2,6.9-0.9,10.3
			c0.3,2.9,1.7,5.6,3.9,7.5L319.8,172.1z"/>
		<path opacity="0.54" fill="#FF8182" d="M317.1,153.3c-16.2-0.9-21.6-7.5-21.6-7.5c-1.1,10.1-9.3,19.4-12.5,22.5l-0.3-0.1l-6.2-3
			c0,0,18.9-7,15.2-31l1.7-0.4l3.7-0.9l12.6,6.4l4.4,2.2l0.2,0.9L317.1,153.3z"/>
		<path fill="#114DBD" d="M330.7,88.1c-1.6-1.4-3.7-3.1-5.4-3.3c-3.1-0.4-4.4,6.7-4.4,6.7l-6.5-7.2v0c0-1.3,0.9-2.4,2.2-2.7
			c2.2-0.5,5.7-0.7,9.5,1.8C327.9,84.4,329.4,86.1,330.7,88.1z"/>
		<path fill="#FFC1C2" d="M332.2,133.9c-0.8,3.5-2,10.7-2.6,14c-0.3,1.8-1.4,3.4-3,4.3c-1.8,0.9-3.9,1.3-5.5,1.4
			c-1.5,0.1-2.5,0-2.5,0c-19.3-1.8-27.1-18.2-27.1-18.2s-6.1,3.2-9.3-3.2c-0.7-1.4-0.9-2.7-0.8-3.8c0.3-4.2,4.7-6.9,4.7-6.9
			s17.8-32.8,33.3-32.1c0.4,0,0.8,0,1.2,0.1c0.3,0,0.7,0.1,1,0.2c0.1,0,0.2,0,0.3,0.1c0.1,0,0.3,0,0.4,0.1c7.8,2.2,9.9,11.3,10,17.9
			v0.2c0,0.4,0,0.7,0,1.1c0,0.2,0,0.4,0,0.6c0,0.8-0.1,1.5-0.2,2.1c0,0.1,0,0.2,0,0.3c0,0.4-0.1,0.7-0.2,1c-0.2,0.9-0.4,1.5-0.6,1.6
			c-0.6,0.5-1,1.5-1.2,2.5c-0.2,0.9-0.3,1.9-0.3,2.3c0,0.2,0,0.2,0,0.2C333.6,125.7,333.3,129.2,332.2,133.9z"/>
		<path fill="#FF8182" d="M329.8,137.2c0,0,0.5,2.7-3.5,3c-4,0.3-8.3-2.4-8.3-2.4s0,0,0.1,0c0.7-0.2,4.5-1.1,6.9-2.7
			c0.3-0.2,0.8-0.3,1.2-0.2c0.4,0.1,1.1,0.2,1.8,0c0.3-0.1,0.7,0,1,0.2C329.4,135.4,330.1,135.8,329.8,137.2z"/>
		<g>
			<circle fill="#FF8182" cx="308.7" cy="130.9" r="4.5"/>
		</g>
		<path fill="#FF8182" d="M332.1,113c-0.2,0.9-0.4,1.5-0.6,1.6c-0.6,0.5-1,1.5-1.2,2.5l-4.3,0.7v-1.4
			C326,116.4,327.3,113.8,332.1,113z"/>
		<path fill="#FFFFFF" d="M331.5,114.6c-1.2,0.9-1.4,3.9-1.4,4.8c-0.1,0-0.3,0-0.4,0c-1.3,0-2.4,0-2.7-0.2l-0.6-1.3
			c0,0,0.1-1.4,2.1-2.4v0C329.1,115,330.1,114.7,331.5,114.6z"/>
		<path fill="#114DBD" d="M332,115.4l-1.3,4.4l-0.6-0.4l-0.4,0c-0.2,0-0.4-0.1-0.5-0.2c-2.1-1.4-0.7-3.7-0.7-3.7v0
			c0.7-0.4,1.7-0.6,3.1-0.8c-0.1,0.1-0.2,0.1-0.3,0.2L332,115.4z"/>
		<polygon fill="#FFFFFF" points="327.4,116.8 329.4,117.4 327.8,118.7 		"/>
		<g>
			<path fill="#114DBD" d="M326.7,117.7c0.5-1.7,3.1-2.4,4.8-2.6c0.7-0.1,0.7-1.1,0-1.1c-2.1,0.2-4.7,0.8-5.4,3.1
				C325.9,117.8,326.5,118.4,326.7,117.7L326.7,117.7z"/>
		</g>
		<g>
			<path fill="#FF8182" d="M328.1,130c-0.1,0-0.2,0-0.4,0c-0.4-0.1-0.7-0.2-1.2-0.3c-0.9-0.3-1.8-0.5-2.6-0.2
				c-1.1,0.5-1.7,0.2-2.1-0.2c-1-0.9-0.9-2.8-0.5-4.2c0.1-0.2,0.3-0.3,0.5-0.3c0.2,0.1,0.3,0.3,0.3,0.5c-0.5,1.4-0.3,2.9,0.2,3.4
				c0.3,0.3,0.7,0.3,1.3,0c1-0.5,2.1-0.1,3.1,0.1c0.4,0.1,0.7,0.2,1.1,0.3c0.7,0.1,1.5-0.3,1.7-1l0.1-0.2c0.2-0.5,0.2-1.1,0-1.6
				c-0.8-1.7-3.3-7.5-4-9.1c-0.9-2.1,2.9-6.2,3.4-6.6c0.2-0.2,0.4-0.2,0.6,0c0.2,0.2,0.2,0.4,0,0.6c-1.5,1.6-3.7,4.5-3.2,5.8
				c0.7,1.6,3.2,7.4,4,9.1c0.3,0.7,0.3,1.6,0,2.3l-0.1,0.2C330,129.5,329.1,130,328.1,130z"/>
		</g>
		<path opacity="0.54" fill="#FF8182" d="M303,143.9c2.9,2.2,10,6.4,18.2,8.5c-1.5,0.1-2.5,0-2.5,0c-19.3-1.8-27.1-18.2-27.1-18.2
			s-6.1,3.2-9.3-3.2c-0.5-1-0.7-1.9-0.8-2.8c0.4-4.2,4.7-6.9,4.7-6.9s17.8-32.8,33.3-32.1c0.4,0,0.8,0.1,1.2,0.1
			c0.4,0,0.7,0.1,1,0.2c0.1,0,0.2,0.1,0.4,0.1c0.7,0.2,1.2,0.7,1.2,0.8c0,0,2.9,9.9-16.5,21.3C287.3,123.2,299.4,141.1,303,143.9z"
			/>
		<path opacity="0.54" fill="#FF8182" d="M332.4,107.7v0.2c-0.8-8.7-6.1-14.7-10-18.1C330.2,91.9,332.3,101.1,332.4,107.7z"/>
		<g>
			<path fill="#FF8182" d="M288.9,134.3c-0.1,0-0.2-0.1-0.3-0.2c-1-1.3-0.5-2.1-0.1-2.8c0.3-0.5,0.6-1.1,0.6-2
				c-0.1-1.4-1.3-3.1-2-3.9c-0.4-0.4-1-0.5-1.5-0.2c-1.8,1.3-2,4.1-2,4.1c0,0.2-0.2,0.4-0.4,0.4c-0.2,0-0.4-0.2-0.4-0.4
				c0-0.1,0.2-3.2,2.4-4.7c0.8-0.6,1.9-0.4,2.5,0.3c1,1.1,2.2,2.8,2.2,4.4c0,1.1-0.4,1.8-0.7,2.4c-0.4,0.7-0.6,1.1,0,1.9
				c0.1,0.2,0.1,0.4-0.1,0.6C289,134.2,288.9,134.3,288.9,134.3z"/>
		</g>
		<g>
			<path fill="#FF8182" d="M287.4,131.8c-0.1,0-0.3-0.1-0.3-0.2c-0.8-1.2-3.1-0.3-3.2-0.3c-0.2,0.1-0.4,0-0.5-0.2
				c-0.1-0.2,0-0.4,0.2-0.5c0.1,0,3-1.2,4.1,0.6c0.1,0.2,0.1,0.4-0.1,0.6C287.6,131.8,287.5,131.8,287.4,131.8z"/>
		</g>
		<path fill="#FAF3ED" d="M409.8,252.5c0,0-2.6,1.1-6.7,2.8c-13.5,5.7-43.5,17.8-52.7,18c0,0-4.5,2.1-11-12.8l-4.8-7.7
			c-1.4,3.2-0.8,8.7-0.9,13c-0.2,8.4,1.4,16.7,4.2,24.6c0.1,0.2,0.1,0.4,0.2,0.6c1.1,3,2.3,6.5,3.5,9.8c-9.1,2.4-28.6,5.5-60.1,1.1
			c-3.5-0.5-7.1-1.1-10.9-1.7c1.3-3.3,2.6-6.9,3.8-10.7c2.1-6.3,4.1-13,5.5-19.7c0.7-3.2,0.9-6.5,0.7-9.8
			c-0.5-8.4-2.3-25.2-7.7-33.5c-0.2-0.3-0.4-0.6-0.6-0.9c-0.2-0.3-0.3-0.5-0.4-0.8l-16.7-35.2c0,0-1.8-21.6,21-24.3
			c0,0,30.5,15.4,39.9,6.3c1.3-1.3,3.2-1.6,4.9-0.8c4.5,2.1,12.3,7.2,16.4,18.8c1.3,3.8,2.2,6.8,2.9,9.4c2.3,8.7,1.8,12.1,4.6,18.3
			c0.1,0.2,0.2,0.4,0.3,0.7c1.1,2.3,2.4,6,3.6,10c3.4,10.8,6.8,24.5,6.8,24.5l42.3-9.6l5.9-1.3c0,0-0.7,1.9-0.4,4.2
			C403.8,248.2,405.3,251.1,409.8,252.5z"/>
		<path opacity="0.31" fill="#7094D7" d="M319.8,225.2c0,0-4.3,6.1-18.1,6.3c-8.8,0.1-7,32.9-11.5,61c-0.6,3.5-1.2,6.9-2,10.2
			c-2.1-0.2-4.3-0.5-6.5-0.8c-3.5-0.5-7.1-1.1-10.9-1.7c1.1-2.9,2.3-6.1,3.4-9.4c0.1-0.4,0.3-0.8,0.4-1.3c2.1-6.3,4.1-13,5.5-19.7
			c0.7-3.2,0.9-6.5,0.7-9.8c-0.5-8.4-2.3-25.2-7.7-33.5c-0.2-0.3-0.4-0.6-0.6-0.9l8.9-26.9c0,0,2.6-6.6-1.6-10.7
			c0,0,13.6,4.8,13.2,12C292.6,207.1,303.9,227.3,319.8,225.2z"/>
		<path opacity="0.31" fill="#7094D7" d="M409.8,252.5c0,0-47.4,20.6-59.4,20.9c0,0-4.5,2.1-11-12.8l-3.6-6.5c0-0.1-0.1-0.1-0.1-0.2
			c-2.2-4-1-17.1,2.6-28.6c2.8-9.1-2.2-20.4-4.4-24.7c-0.6-1.3-1-2.6-1-4V188c1.4,4.5,3,7.4,4.6,9.1c2.1,2.2,3.7,5,4.3,8
			c0.1,0.5,0.2,1,0.3,1.4c1.2,6.5,0.8,13.1-0.6,19.5c0,0,0,0.1,0,0.1c-2.5,11.5,6.8,34.4,6.8,34.4l55.2-14.8
			C403.8,248.2,405.3,251.1,409.8,252.5z"/>
		<path fill="#FAF3ED" d="M296.8,225.7c-1.4,1.9-2.8,3.8-4.2,5.8c-16.1,22.1-33.1,44.3-38.5,44.3c-5.2,0-8.3-7.5-8.2-13
			c0-0.7,0.1-1.4,0.2-2c1.1-6.4,9.4-71.2,9.4-71.2l2.7-5.1L275,214l-4.8,22.8l14.5-14.7l5.2-5.2
			C290.4,223.9,296.8,225.7,296.8,225.7z"/>
		<path opacity="0.31" fill="#7094D7" d="M296.8,225.7c-1.4,1.9-2.8,3.8-4.2,5.8c-16.1,22.1-33.1,44.3-38.5,44.3
			c-5.2,0-8.3-7.5-8.2-13c4.8-7.8,12.7-18.1,24.3-26l14.5-14.7l5.2-5.2C290.4,223.9,296.8,225.7,296.8,225.7z"/>
		<g>
			<path fill="#7094D7" d="M253.7,276c-0.7,0-1.3-0.1-1.9-0.4c-6.6-3-6.4-12.4-6.4-12.8l7.8-59.2c0.8-16.8,3.2-24.4,5-27.9
				c0.2-0.4,4.5-8.9,18.3-10.9l0.2,0l0.1,0.1c0.3,0.2,30.3,15.3,40,5.8l0.2-0.1c1.1-0.4,2.2-0.5,3.3-0.1c2,0.6,5.1,2.1,8.4,5.2
				c0.6,0.6,1.3,1.1,1.9,1.7c2.1,1.8,7.4,7.8,11.1,24.2c4.3,18.8,13.2,46.4,14.5,50.3l41.8-9.5c0.3-0.1,0.6,0.1,0.6,0.4
				c0.1,0.3-0.1,0.6-0.4,0.6l-42.7,9.7l-0.2-0.5c-0.1-0.3-10.1-30.7-14.7-50.9c-3.7-16.1-8.8-21.9-10.8-23.7
				c-0.6-0.6-1.3-1.1-1.9-1.7c-3.2-3-6.1-4.3-8-4.9c-0.8-0.3-1.7-0.2-2.5,0.1c-10.1,9.5-38.4-4.3-41-5.7
				c-13.1,1.9-17.3,10.2-17.3,10.3c-1.4,2.8-4,10-4.9,27.5l-7.8,59.2c0,0-0.2,9,5.8,11.8c1.1,0.5,2.4,0.4,3.5-0.2
				c2.3-1.4,6.1-4.2,10.8-10c7.5-9.2,25.5-33,25.7-33.2c0.2-0.2,0.5-0.3,0.7-0.1c0.2,0.2,0.3,0.5,0.1,0.7
				c-0.2,0.2-18.1,24.1-25.7,33.3c-4.8,5.9-8.7,8.8-11.1,10.2C255.4,275.8,254.6,276,253.7,276z"/>
		</g>
		<g>
			<path fill="#7094D7" d="M251.8,254.8c-0.1,0-0.2,0-0.3-0.1c-0.2-0.2-0.3-0.5-0.1-0.8c0.1-0.1,9.1-10.6,16.1-15.9
				c2.1-1.6,4.2-3.4,6.4-5.7l10.5-10.6c0.2-0.2,0.5-0.2,0.8,0c0.2,0.2,0.2,0.5,0,0.8l-10.5,10.6c-2.2,2.3-4.4,4.2-6.5,5.8
				c-6.9,5.3-15.8,15.7-15.9,15.8C252.1,254.8,251.9,254.8,251.8,254.8z"/>
		</g>
		<g>
			<path fill="#7094D7" d="M270.2,236.2c0,0-0.1,0-0.1,0c-0.3-0.1-0.5-0.3-0.4-0.6l1.6-7.6c0.5-2.4,1.2-4.7,1.9-7.1l7.7-23.5
				c0.1-0.3,0.4-0.4,0.7-0.3c0.3,0.1,0.4,0.4,0.3,0.7l-7.7,23.5c-0.7,2.3-1.4,4.6-1.9,6.9l-1.6,7.6
				C270.6,236.1,270.4,236.2,270.2,236.2z"/>
		</g>
		<g>
			<path fill="#7094D7" d="M280.7,269.9c-1.2,4.8-5.3,18.4-9.5,30.3l-0.4-0.1l-0.6-0.3c4.2-11.8,8.3-25.4,9.5-30.2
				c1.9-7.9-0.4-21-0.4-21.1c-0.1-0.3,0.1-0.6,0.4-0.6c0.3-0.1,0.6,0.1,0.6,0.4C280.4,248.9,282.7,261.8,280.7,269.9z"/>
		</g>
		<g>
			<path fill="#7094D7" d="M342.3,302.7l-2.4,0.4l-2.4-12.5c-7.3-18-3.5-37.7-3.2-38.9c0-6.3,1.3-18.2,3.4-26.5
				c2.2-8.6-1.5-17.8-3.1-21.7l-0.1-0.2c-1.6-4-2.1-6.5-2.2-6.6l0-0.1V188c0-0.3,0.2-0.5,0.5-0.5c0.3,0,0.5,0.2,0.5,0.5v8.4
				c0.1,0.4,0.6,2.7,2.1,6.3l0.1,0.2c1.6,4,5.4,13.4,3.1,22.4c-2.1,8.3-3.4,20.1-3.4,26.3l0,0.1c0,0.2-4.3,20.2,3.1,38.4
				L342.3,302.7z"/>
		</g>
		<g>
			<path fill="#7094D7" d="M350.1,273.9c-6.1,0-14.7-19.7-15.7-22c-0.1-0.3,0-0.6,0.3-0.7c0.3-0.1,0.6,0,0.7,0.3
				c2.7,6.2,10.5,22.1,15,21.4c6.4-1,27-6.8,43.7-14.3l8.9-3.7c0.3-0.1,0.6,0,0.7,0.3c0.1,0.3,0,0.6-0.3,0.7l-8.9,3.7
				c-18.2,8.2-38.5,13.5-43.9,14.4C350.4,273.9,350.2,273.9,350.1,273.9z"/>
		</g>
		<g>
			<path fill="#7094D7" d="M352.2,255.9c-0.2,0-0.3-0.1-0.4-0.2c-0.2-0.2-0.1-0.6,0.1-0.8l3.6-2.8c0.2-0.2,0.6-0.1,0.8,0.1
				s0.1,0.6-0.1,0.8l-3.6,2.8C352.4,255.8,352.3,255.9,352.2,255.9z"/>
		</g>
		<g>
			<path fill="#FF7235" d="M341.7,300.8c-8.5,2.2-25.9,5.1-53.5,1.9c-2.1-0.2-4.3-0.5-6.5-0.8c-3.5-0.5-7.1-1.1-10.9-1.7
				c1.1-2.9,2.3-6.1,3.4-9.4c0.1-0.4,0.3-0.8,0.4-1.3h0c3.8,0.9,9.3,2.1,15.6,3c14.2,2.2,32.9,3.4,48-1.5
				C339.4,294,340.6,297.4,341.7,300.8z"/>
			<g>
				<path fill="#FAF3ED" d="M278.2,302.3c0,0-0.1,0-0.1,0c-0.3-0.1-0.5-0.4-0.4-0.7l2.8-11c0.1-0.3,0.4-0.5,0.7-0.4
					c0.3,0.1,0.5,0.4,0.4,0.7l-2.8,11C278.6,302.2,278.4,302.3,278.2,302.3z"/>
			</g>
			<g>
				<path fill="#FAF3ED" d="M286.3,303C286.3,303,286.3,303,286.3,303c-0.4,0-0.6-0.3-0.5-0.6l1.5-10.4c0-0.3,0.3-0.5,0.6-0.5
					c0.3,0,0.5,0.3,0.5,0.6l-1.5,10.4C286.8,302.8,286.6,303,286.3,303z"/>
			</g>
			<g>
				<path fill="#FAF3ED" d="M294.4,303.9C294.4,303.9,294.3,303.9,294.4,303.9c-0.3,0-0.6-0.3-0.5-0.6l0.9-10.1
					c0-0.3,0.3-0.5,0.6-0.5c0.3,0,0.5,0.3,0.5,0.6l-0.9,10.1C294.9,303.7,294.6,303.9,294.4,303.9z"/>
			</g>
			<g>
				<path fill="#FAF3ED" d="M310.2,304.4c-0.3,0-0.5-0.2-0.5-0.5v-9.6c0-0.3,0.2-0.5,0.5-0.5c0.3,0,0.5,0.2,0.5,0.5v9.6
					C310.8,304.2,310.5,304.4,310.2,304.4z"/>
			</g>
			<g>
				<path fill="#FAF3ED" d="M317.8,304.7c-0.3,0-0.5-0.2-0.5-0.5l-0.4-9.8c0-0.3,0.2-0.5,0.5-0.6c0.3,0,0.5,0.2,0.6,0.5l0.4,9.8
					C318.3,304.4,318.1,304.6,317.8,304.7C317.8,304.7,317.8,304.7,317.8,304.7z"/>
			</g>
			<g>
				<path fill="#FAF3ED" d="M325.4,304.1c-0.3,0-0.5-0.2-0.5-0.5l-0.9-9.7c0-0.3,0.2-0.6,0.5-0.6c0.3,0,0.6,0.2,0.6,0.5l0.9,9.7
					C326,303.8,325.8,304,325.4,304.1C325.5,304.1,325.5,304.1,325.4,304.1z"/>
			</g>
			<g>
				<path fill="#FAF3ED" d="M333.2,303.1c-0.2,0-0.5-0.2-0.5-0.4l-2.1-9.8c-0.1-0.3,0.1-0.6,0.4-0.6c0.3-0.1,0.6,0.1,0.6,0.4
					l2.1,9.8c0.1,0.3-0.1,0.6-0.4,0.6C333.3,303.1,333.3,303.1,333.2,303.1z"/>
			</g>
			<g>
				<path fill="#FAF3ED" d="M302,304.4C302,304.4,302,304.4,302,304.4c-0.3,0-0.6-0.3-0.5-0.6l0.6-9.9c0-0.3,0.3-0.5,0.6-0.5
					c0.3,0,0.5,0.3,0.5,0.6l-0.6,9.9C302.5,304.2,302.3,304.4,302,304.4z"/>
			</g>
		</g>
		<g>
			<path fill="#FF7235" d="M409.8,252.5c0,0-2.6,1.1-6.7,2.8c-5.4-3.5-5.8-8.7-5.1-12.5l5.9-1.3c0,0-0.7,1.9-0.4,4.2
				C403.8,248.2,405.3,251.1,409.8,252.5z"/>
			<g>
				<path fill="#FAF3ED" d="M400.6,253.8c-0.2,0-0.4-0.1-0.5-0.3c-0.1-0.3,0-0.6,0.3-0.7l5.7-2.5c0.3-0.1,0.6,0,0.7,0.3
					c0.1,0.3,0,0.6-0.3,0.7l-5.7,2.5C400.8,253.8,400.7,253.8,400.6,253.8z"/>
			</g>
			<g>
				<path fill="#FAF3ED" d="M398.1,247.9c-0.2,0-0.4-0.2-0.5-0.4c-0.1-0.3,0.1-0.6,0.4-0.7l5.6-1.6c0.3-0.1,0.6,0.1,0.7,0.4
					c0.1,0.3-0.1,0.6-0.4,0.7l-5.6,1.6C398.2,247.9,398.1,247.9,398.1,247.9z"/>
			</g>
		</g>
		<g>
			<path fill="#7094D7" d="M337.6,111.7C337.6,111.7,337.6,111.7,337.6,111.7c-0.3,0-0.6-0.3-0.5-0.6c1.2-13.6-1-22.8-6.6-27.6
				c-5.7-4.9-13.2-3.1-13.2-3.1c-0.3,0.1-0.6-0.1-0.6-0.4c-0.1-0.3,0.1-0.6,0.4-0.6c0.3-0.1,8-2,14.2,3.3c5.9,5,8.2,14.6,6.9,28.5
				C338.1,111.5,337.9,111.7,337.6,111.7z"/>
		</g>
		<path fill="#EA521C" d="M288.4,219.9l1.5-3c0,0,3,0.8,4.5,3c1.5,2.2,2.4,5.9,2.4,5.9l-2.4,1.1l-6.7-4L288.4,219.9z"/>
		<g>
			<path fill="#FFC1C2" d="M328.7,204.9c0,0.5-0.2,1.1-0.5,1.5l-0.1,0.1l-0.2,0.3l-0.3,0.6l-1.4,2.5l-1.1,2l-0.7,1.3
				c-0.5,0.8-1.2,1.4-2,1.8c-1.1,0.5-2.4,0.4-3.5-0.1l-3.4-1.8c-0.9-0.5-2-0.5-2.9,0c-1.4,0.8-3.3,2.1-4.3,3.5
				c-1.6,2.3-4.3,6.5-11.1,8.2c-0.8,0.2-1.6,0.3-2.3,0.4c-4.8,0.3-6.1-3.4-6.1-3.4l1.9-5.2l12.6-16.4c0.7-1,1.5-1.9,2.3-2.8
				c1.8-2,3.8-3.7,5.9-5.3l13.6-10c0.6-0.5,1.5-0.4,2,0.2c0.3,0.3,0.4,0.6,0.4,1c0,0.3-0.1,0.7-0.4,1l-7.4,8.3
				c-0.4,0.4-0.8,0.9-1.3,1.2c-0.3,0.3-0.7,0.5-1.1,0.8c0.4-0.1,0.8-0.2,1.2-0.2c0.9,0,1.7,0.3,2.4,0.9l4.5,3.6
				c1.1,0.9,1.9,2,2.5,3.3l0.3,0.7C328.7,203.6,328.8,204.3,328.7,204.9z"/>
			<path opacity="0.54" fill="#FF8182" d="M327.6,183.3c0,0.3-0.1,0.7-0.4,1l-7.4,8.3c-0.4,0.4-0.8,0.9-1.3,1.2l-12.8,3.6
				c1.8-2,3.8-3.7,5.9-5.3l13.6-10c0.6-0.5,1.5-0.4,2,0.2C327.5,182.5,327.6,182.9,327.6,183.3z"/>
			<g>
				<path fill="#FF8182" d="M328.1,206.6l-0.2,0.3l-0.3,0.6c0,0,0,0-0.1,0l-7.7-6.2c-0.8-0.6-1.8-0.8-2.7-0.5l-5.7,1.8
					c-0.3,0.1-0.5-0.1-0.6-0.3c-0.1-0.3,0.1-0.5,0.3-0.6l5.7-1.8c1.2-0.4,2.6-0.1,3.6,0.7L328.1,206.6z"/>
			</g>
			<g>
				<path fill="#FF8182" d="M325.1,211.6c-0.1,0-0.2,0-0.3-0.1l-5.8-4.1c-0.7-0.5-1.7-0.8-2.6-0.6l-6,0.8c-0.3,0-0.5-0.2-0.6-0.4
					c0-0.3,0.2-0.5,0.4-0.6l6-0.8c1.2-0.2,2.3,0.1,3.3,0.8l5.8,4.1c0.2,0.2,0.3,0.5,0.1,0.7C325.4,211.6,325.3,211.6,325.1,211.6z"
					/>
			</g>
			<path opacity="0.54" fill="#FF8182" d="M322.5,215c-1.1,0.5-2.4,0.4-3.5-0.1l-3.4-1.8c-0.9-0.5-2-0.5-2.9,0
				c-1.4,0.8-3.3,2.1-4.3,3.5c-1.6,2.3-4.3,6.5-11.1,8.2c-0.8,0.2-1.6,0.3-2.3,0.4c3.6-2.3,10.2-6.9,13.8-12.1
				C311.3,209.3,317.3,211.7,322.5,215z"/>
			<path opacity="0.54" fill="#FF8182" d="M328.7,204.9c0,0.5-0.2,1.1-0.5,1.5l-0.2,0.4l-0.6-0.9l-7.7-5.6c0,0-3.8-0.3-5.2,0.7
				l-2.6,0.8l-5,0.8l9.5-4.7c1-0.4,2.1-0.3,3.1,0.1C321.3,198.9,324.6,200.9,328.7,204.9z"/>
			<path opacity="0.54" fill="#FF8182" d="M326.7,209.2l-1.1,2l-0.2-0.1l-6.2-4.3c0,0-2-0.5-7.3,0.3c-5.3,0.8-3.2-0.3-3.2-0.3
				s3.1-1.4,5.9-2.3c1.6-0.5,3.3-0.3,4.8,0.5L326.7,209.2z"/>
		</g>
		<g>
			<path fill="#FF7235" d="M296.8,225.7c-1.4,1.9-2.8,3.8-4.2,5.8c-4.5-1.7-6.8-6-7.9-9.4l5.2-5.2
				C290.4,223.9,296.8,225.7,296.8,225.7z"/>
			<g>
				<path fill="#FFFFFF" d="M289.2,229.9c-0.1,0-0.3-0.1-0.4-0.2c-0.2-0.2-0.2-0.5,0-0.8l5.2-5.2c0.2-0.2,0.5-0.2,0.8,0
					c0.2,0.2,0.2,0.5,0,0.8l-5.2,5.2C289.5,229.9,289.3,229.9,289.2,229.9z"/>
			</g>
			<g>
				<path fill="#FFFFFF" d="M286,225.8c-0.1,0-0.3-0.1-0.4-0.2c-0.2-0.2-0.2-0.5,0-0.8l4.7-4.8c0.2-0.2,0.5-0.2,0.8,0
					c0.2,0.2,0.2,0.5,0,0.8l-4.7,4.8C286.3,225.7,286.2,225.8,286,225.8z"/>
			</g>
		</g>
		<g>
			<path fill="#FF8182" d="M305.9,116.5l2.5,0.9l12.1,0.6c0,0-0.2-2.6-3.5-3.9c-1.7-0.7-3.6-0.7-5.3-0.1
				C310,114.5,307.7,115.4,305.9,116.5z"/>
			<path fill="#FFFFFF" d="M308.2,118.3c-0.3,0-0.4-0.5-0.1-0.7c2-1.2,6.7-3.8,8.6-2.9c1.8,0.8,2.9,2.4,3.3,3.1
				c0.1,0.2,0,0.4-0.2,0.4c-1.1,0.3-4.4,0.7-6.1,0.7C312.8,119,309.8,118.5,308.2,118.3z"/>
			<ellipse fill="#114DBD" cx="315.4" cy="117" rx="1.9" ry="2"/>
			<polygon fill="#FFFFFF" points="312.3,116.8 315.5,117.2 312.7,118.4 			"/>
			<g>
				<path fill="#114DBD" d="M307.5,118.5c0.9-0.6,1.9-1.1,2.9-1.6c1.2-0.6,2.5-1,3.8-1.3c2.4-0.5,4.1,0.5,5.3,2.5
					c0.4,0.6,1.3,0,0.9-0.5c-1.6-2.6-3.5-3.5-6.5-3c-2.4,0.4-4.9,1.6-7,2.9C306.3,117.9,306.9,118.8,307.5,118.5L307.5,118.5z"/>
			</g>
		</g>
		<g>
			<path fill="#114DBD" d="M320.8,108.8l-7.9-0.8c-0.3,0-0.5,0-0.7,0.1l-9.3,4.9l10.1-3.2c0.2-0.1,0.5-0.1,0.7,0l6.8,1.5
				c0.8,0.2,1.5-0.4,1.6-1.1l0,0C322,109.5,321.5,108.9,320.8,108.8z"/>
		</g>
		<g>
			<path fill="#114DBD" d="M332.9,109.6c0.3,0.8,1.7,1-0.7,2.4l-1.7,0.4c-0.8,0.2-1.5-0.4-1.6-1.1c0,0,0-0.1,0-0.1
				c0-0.7,0.5-1.2,1.2-1.3L332.9,109.6z"/>
		</g>
		<g>
			<path fill="#7094D7" d="M323.3,90.5c-0.5,11.1-15.9,19.3-17,19.8c1.1-0.7,1.8-3.3,1.8-3.3l-18.1,11.7c0,0-6.9-8.4-9.5-0.7h-11.5
				c-0.3-6.5,0.2-14.5,3.2-21.7c3-7.4,8.6-13.9,18.4-17.1c8.8-2.9,15.1-2.9,19.7-1.5C321.6,81.1,323.3,90.5,323.3,90.5z"/>
		</g>
		<path fill="#7094D7" d="M320.4,89.8c-0.1,3.7-8,13.9-14.6,18.7l0,0c-3.1,3.8-9.8,12.8-10,20.5c-0.1,2.8,0.4,5.1,1,7
			c1.4,4,3.9,5.9,4.6,6.4c-0.7-0.4-3.1-1.9-5.2-4.9c-2.1-2.9-4-7.2-4.1-13.2c0-2,0.3-5.2,0.5-6.8c-5.7,3.8-8.2-0.2-8.2-0.2l-2.9,2.2
			l-2.9,2.6l-2.3-1.9l26.2-42.2c6.2-0.3,10.6,1.6,13.5,3.7c2.1,2.5,3.9,5.2,4.5,7.7c0,0.1,0,0.1,0,0.2v0.1
			C320.4,89.6,320.4,89.7,320.4,89.8z"/>
		<path fill="#114DBD" d="M300.6,105.1c-0.4,0.4-7.9,7.5-8.2,13.7c-5.7,3.8-7.9,3.2-7.9,3.2S294.4,109.6,300.6,105.1z"/>
		<polygon fill="#114DBD" points="284,119.9 284.8,117.8 294.7,110.3 294.5,111.3 287.8,119.9 283.8,120.9 		"/>
	</g>
	<g>
		<g>
			<path fill="#FFFFFF" d="M275.7,310.8c0,0-0.1,0-0.1,0c-0.3-0.1-0.4-0.4-0.3-0.6c1.1-3.6,2-5.7,2-5.7c0.1-0.3,0.4-0.4,0.6-0.3
				c0.3,0.1,0.4,0.4,0.3,0.6c0,0-0.8,2.1-1.9,5.6C276.1,310.7,275.9,310.8,275.7,310.8z"/>
		</g>
		<g>
			<path fill="#FFFFFF" d="M289.5,598.3c-0.2,0-0.4-0.2-0.5-0.4c-0.7-3.5-1.5-7.5-2.5-11.8c-0.1-0.3,0.1-0.5,0.4-0.6
				c0.3-0.1,0.5,0.1,0.6,0.4c1,4.3,1.8,8.3,2.5,11.8C290,598,289.8,598.3,289.5,598.3C289.5,598.3,289.5,598.3,289.5,598.3z
				 M284.3,574.8c-0.2,0-0.4-0.2-0.5-0.4c-0.5-2.1-1-4.4-1.6-6.7c-0.4-1.6-0.8-3.3-1.1-5c-0.1-0.3,0.1-0.5,0.4-0.6
				c0.3-0.1,0.5,0.1,0.6,0.4c0.4,1.7,0.7,3.3,1.1,5c0.6,2.4,1.1,4.6,1.6,6.8c0.1,0.3-0.1,0.5-0.4,0.6
				C284.4,574.7,284.3,574.8,284.3,574.8z M279.4,551.1c-0.2,0-0.5-0.2-0.5-0.4c-0.6-3.9-1.1-8-1.4-12c0-0.3,0.2-0.5,0.5-0.5
				c0.3,0,0.5,0.2,0.5,0.5c0.4,4,0.8,8,1.4,12C279.9,550.8,279.8,551.1,279.4,551.1C279.5,551.1,279.4,551.1,279.4,551.1z
				 M277.3,527.1c-0.3,0-0.5-0.2-0.5-0.5c-0.1-2.6-0.1-5.2-0.1-7.7c0-1.5,0-2.9,0-4.4c0-0.3,0.2-0.5,0.5-0.5c0,0,0,0,0,0
				c0.3,0,0.5,0.2,0.5,0.5c0,1.4,0,2.9,0,4.3c0,2.6,0,5.1,0.1,7.7C277.8,526.9,277.6,527.1,277.3,527.1
				C277.3,527.1,277.3,527.1,277.3,527.1z M277.7,503C277.7,503,277.7,503,277.7,503c-0.3,0-0.5-0.3-0.5-0.5
				c0.3-3.8,0.6-7.5,1.1-10.9c0-0.4,0.1-0.7,0.1-1.1c0-0.3,0.3-0.5,0.6-0.4c0.3,0,0.5,0.3,0.4,0.6c0,0.4-0.1,0.7-0.1,1.1
				c-0.4,3.4-0.8,7.1-1.1,10.9C278.2,502.8,278,503,277.7,503z M278.9,478.9c-0.3,0-0.5-0.2-0.5-0.5l-1-12.1c0-0.3,0.2-0.5,0.5-0.5
				c0.3,0,0.5,0.2,0.5,0.5l1,12.1C279.5,478.7,279.3,478.9,278.9,478.9C279,478.9,278.9,478.9,278.9,478.9z M277,454.8
				c-0.3,0-0.5-0.2-0.5-0.5l-1-12c0-0.3,0.2-0.5,0.5-0.5c0.3,0,0.5,0.2,0.5,0.5l1,12C277.5,454.6,277.3,454.8,277,454.8
				C277,454.8,277,454.8,277,454.8z M275.1,430.7c-0.3,0-0.5-0.2-0.5-0.5l-0.9-12c0-0.3,0.2-0.5,0.5-0.5c0.3,0,0.5,0.2,0.5,0.5
				l0.9,12C275.6,430.5,275.4,430.7,275.1,430.7C275.1,430.7,275.1,430.7,275.1,430.7z M273.2,406.7c-0.3,0-0.5-0.2-0.5-0.5l-0.9-12
				c0-0.3,0.2-0.5,0.5-0.5c0.3,0,0.5,0.2,0.5,0.5l0.9,12C273.7,406.4,273.5,406.6,273.2,406.7C273.2,406.7,273.2,406.7,273.2,406.7z
				 M271.4,382.6c-0.3,0-0.5-0.2-0.5-0.5c-0.3-4.3-0.6-8.4-0.9-12.1c0-0.3,0.2-0.5,0.5-0.5c0.3,0,0.5,0.2,0.5,0.5
				c0.3,3.7,0.6,7.7,0.9,12.1C271.9,382.3,271.7,382.5,271.4,382.6C271.4,382.6,271.4,382.6,271.4,382.6z M269.6,358.4
				c-0.3,0-0.5-0.2-0.5-0.5c-0.2-2.4-0.2-4.8-0.2-7.3c0-1.6,0-3.2,0.1-4.8c0-0.3,0.2-0.5,0.5-0.5c0.3,0,0.5,0.2,0.5,0.5
				c-0.1,1.6-0.1,3.2-0.1,4.8c0,2.4,0.1,4.9,0.2,7.2C270.1,358.2,269.9,358.4,269.6,358.4C269.6,358.4,269.6,358.4,269.6,358.4z
				 M270.5,334.4C270.5,334.4,270.5,334.4,270.5,334.4c-0.3,0-0.5-0.3-0.5-0.6c0.5-3.9,1.2-8,2.1-11.9c0.1-0.3,0.3-0.4,0.6-0.4
				c0.3,0.1,0.4,0.3,0.4,0.6c-0.9,3.9-1.6,7.9-2.1,11.8C271,334.2,270.8,334.4,270.5,334.4z"/>
		</g>
		<g>
			<path fill="#FFFFFF" d="M292,616C292,616,291.9,616,292,616c-0.4-0.1-0.5-0.3-0.5-0.6c0,0,0.2-1.2-0.5-5.8c0-0.3,0.2-0.5,0.4-0.6
				c0.3,0,0.5,0.2,0.6,0.4c0.7,4.8,0.5,6,0.5,6.1C292.4,615.8,292.2,616,292,616z"/>
		</g>
	</g>
</g>
</svg>
