<?xml version="1.0" encoding="UTF-8"?>
<svg width="362px" height="82px" viewBox="0 0 362 82" version="1.1" xmlns="http://www.w3.org/2000/svg" xmlns:xlink="http://www.w3.org/1999/xlink">
    <!-- Generator: Sketch 52.3 (67297) - http://www.bohemiancoding.com/sketch -->
    <title>STEP 3</title>
    <desc>Created with Sketch.</desc>
    <defs>
        <linearGradient x1="50%" y1="0%" x2="50%" y2="100%" id="linearGradient-1">
            <stop stop-color="#CFD6E6" offset="0%"></stop>
            <stop stop-color="#CFD6E6" stop-opacity="0.166383605" offset="100%"></stop>
        </linearGradient>
    </defs>
    <g id="Page-1" stroke="none" stroke-width="1" fill="none" fill-rule="evenodd" opacity="0.55750093">
        <g id="desktop2560" transform="translate(-1389.000000, -3797.000000)" fill="url(#linearGradient-1)">
            <g id="Group-12" transform="translate(-272.000000, -104.000000)">
                <g id="Group-20">
                    <g id="Group-19" transform="translate(0.000000, 134.000000)">
                        <path d="M1718.41211,3793.77246 L1706.64941,3793.77246 L1704.6084,3783.03027 C1703.24771,3782.17089 1701.26043,3781.41895 1698.64648,3780.77441 C1696.03254,3780.12988 1693.2575,3779.80762 1690.32129,3779.80762 C1686.02439,3779.80762 1682.7033,3780.71174 1680.35791,3782.52002 C1678.01252,3784.3283 1676.83984,3786.6647 1676.83984,3789.5293 C1676.83984,3792.17905 1678.06623,3794.35432 1680.51904,3796.05518 C1682.97185,3797.75603 1687.20602,3799.55533 1693.22168,3801.45312 C1701.85128,3803.85223 1708.395,3807.02114 1712.85303,3810.95996 C1717.31106,3814.89878 1719.54004,3820.07288 1719.54004,3826.48242 C1719.54004,3833.17842 1716.89033,3838.45994 1711.59082,3842.32715 C1706.29131,3846.19436 1699.30896,3848.12793 1690.64355,3848.12793 C1684.44886,3848.12793 1678.85403,3847.14324 1673.85889,3845.17383 C1668.86374,3843.20442 1664.70119,3840.48309 1661.37109,3837.00977 L1661.37109,3820.68164 L1673.50977,3820.68164 L1675.1748,3831.7998 C1676.75033,3833.08887 1678.8898,3834.15413 1681.59326,3834.99561 C1684.29673,3835.83708 1687.31346,3836.25781 1690.64355,3836.25781 C1694.94045,3836.25781 1698.20783,3835.38054 1700.4458,3833.62598 C1702.68377,3831.87141 1703.80273,3829.52606 1703.80273,3826.58984 C1703.80273,3823.58202 1702.73748,3821.16505 1700.60693,3819.33887 C1698.47639,3817.51269 1694.74352,3815.79395 1689.4082,3814.18262 C1680.13407,3811.49706 1673.11591,3808.31024 1668.35352,3804.62207 C1663.59112,3800.9339 1661.20996,3795.88512 1661.20996,3789.47559 C1661.20996,3783.13766 1663.89548,3777.95461 1669.2666,3773.92627 C1674.63772,3769.89793 1681.38733,3767.83008 1689.51562,3767.72266 C1695.53128,3767.72266 1701.00974,3768.63573 1705.95117,3770.46191 C1710.8926,3772.2881 1715.04621,3774.72297 1718.41211,3777.7666 L1718.41211,3793.77246 Z M1794.57422,3768.79688 L1794.57422,3789.63672 L1782.54297,3789.63672 L1781.89844,3780.88184 L1767.50391,3780.88184 L1767.50391,3835.98926 L1775.88281,3837.60059 L1775.88281,3847 L1743.44141,3847 L1743.44141,3837.60059 L1751.82031,3835.98926 L1751.82031,3780.88184 L1737.47949,3780.88184 L1736.83496,3789.63672 L1724.85742,3789.63672 L1724.85742,3768.79688 L1794.57422,3768.79688 Z M1850.16504,3812.625 L1823.68555,3812.625 L1823.68555,3834.96875 L1848.92969,3834.96875 L1849.62793,3825.62305 L1861.55176,3825.62305 L1861.55176,3847 L1799.67676,3847 L1799.67676,3837.60059 L1808.00195,3835.98926 L1808.00195,3779.86133 L1799.67676,3778.25 L1799.67676,3768.79688 L1861.44434,3768.79688 L1861.44434,3790.22754 L1849.41309,3790.22754 L1848.71484,3780.88184 L1823.68555,3780.88184 L1823.68555,3800.54004 L1850.16504,3800.54004 L1850.16504,3812.625 Z M1907.15234,3768.79688 C1916.10421,3768.79688 1923.16713,3771.09747 1928.34131,3775.69873 C1933.51549,3780.29999 1936.10254,3786.32451 1936.10254,3793.77246 C1936.10254,3801.25622 1933.51549,3807.27179 1928.34131,3811.81934 C1923.16713,3816.36688 1916.10421,3818.64062 1907.15234,3818.64062 L1893.93945,3818.64062 L1893.93945,3835.98926 L1902.31836,3837.60059 L1902.31836,3847 L1869.93066,3847 L1869.93066,3837.60059 L1878.25586,3835.98926 L1878.25586,3779.86133 L1869.93066,3778.25 L1869.93066,3768.79688 L1907.15234,3768.79688 Z M1893.93945,3806.55566 L1907.15234,3806.55566 C1911.52086,3806.55566 1914.82404,3805.36508 1917.06201,3802.98389 C1919.29998,3800.60269 1920.41895,3797.56805 1920.41895,3793.87988 C1920.41895,3790.1201 1919.29998,3787.01385 1917.06201,3784.56104 C1914.82404,3782.10822 1911.52086,3780.88184 1907.15234,3780.88184 L1893.93945,3780.88184 L1893.93945,3806.55566 Z M1985.5166,3801.23828 L1994.3252,3801.23828 C1998.04917,3801.23828 2000.80631,3800.26254 2002.59668,3798.31104 C2004.38705,3796.35953 2005.28223,3793.64715 2005.28223,3790.17383 C2005.28223,3787.02277 2004.38705,3784.49838 2002.59668,3782.60059 C2000.80631,3780.70279 1998.2103,3779.75391 1994.80859,3779.75391 C1991.87238,3779.75391 1989.4017,3780.61327 1987.39648,3782.33203 C1985.39127,3784.05079 1984.38867,3786.30663 1984.38867,3789.09961 L1969.18848,3789.09961 L1969.08105,3788.77734 C1968.86621,3782.65427 1971.21156,3777.60549 1976.11719,3773.63086 C1981.02281,3769.65623 1987.10999,3767.66895 1994.37891,3767.66895 C2002.47139,3767.66895 2008.92559,3769.60252 2013.7417,3773.46973 C2018.5578,3777.33693 2020.96582,3782.8512 2020.96582,3790.0127 C2020.96582,3793.41441 2019.89161,3796.64598 2017.74316,3799.70752 C2015.59472,3802.76906 2012.64064,3805.15917 2008.88086,3806.87793 C2013.21356,3808.41765 2016.51675,3810.78091 2018.79053,3813.96777 C2021.0643,3817.15464 2022.20117,3820.86066 2022.20117,3825.08594 C2022.20117,3832.24743 2019.59622,3837.87807 2014.38623,3841.97803 C2009.17624,3846.07798 2002.5072,3848.12793 1994.37891,3848.12793 C1987.10999,3848.12793 1980.87063,3846.20331 1975.66064,3842.354 C1970.45066,3838.5047 1967.93522,3833.071 1968.11426,3826.05273 L1968.22168,3825.73047 L1983.42188,3825.73047 C1983.42188,3828.7383 1984.49608,3831.21793 1986.64453,3833.16943 C1988.79298,3835.12094 1991.51431,3836.09668 1994.80859,3836.09668 C1998.42515,3836.09668 2001.28075,3835.09409 2003.37549,3833.08887 C2005.47023,3831.08365 2006.51758,3828.36232 2006.51758,3824.9248 C2006.51758,3820.80695 2005.48813,3817.79021 2003.4292,3815.87451 C2001.37027,3813.95881 1998.33563,3813.00098 1994.3252,3813.00098 L1985.5166,3813.00098 L1985.5166,3801.23828 Z" id="STEP-3"></path>
                    </g>
                </g>
            </g>
        </g>
    </g>
</svg>