<?xml version="1.0" encoding="UTF-8"?>
<svg width="350px" height="82px" viewBox="0 0 350 82" version="1.1" xmlns="http://www.w3.org/2000/svg" xmlns:xlink="http://www.w3.org/1999/xlink">
    <!-- Generator: Sketch 52.3 (67297) - http://www.bohemiancoding.com/sketch -->
    <title>STEP 1</title>
    <desc>Created with Sketch.</desc>
    <defs>
        <linearGradient x1="50%" y1="0%" x2="50%" y2="100%" id="linearGradient-1">
            <stop stop-color="#CFD6E6" offset="0%"></stop>
            <stop stop-color="#CFD6E6" stop-opacity="0.166383605" offset="100%"></stop>
        </linearGradient>
    </defs>
    <g id="Page-1" stroke="none" stroke-width="1" fill="none" fill-rule="evenodd" opacity="0.55750093">
        <g id="desktop2560" transform="translate(-1364.000000, -2857.000000)" fill="url(#linearGradient-1)">
            <g id="Group-20" transform="translate(-272.000000, -104.000000)">
                <g id="Group-19">
                    <path d="M1693.41211,2987.77246 L1681.64941,2987.77246 L1679.6084,2977.03027 C1678.24771,2976.17089 1676.26043,2975.41895 1673.64648,2974.77441 C1671.03254,2974.12988 1668.2575,2973.80762 1665.32129,2973.80762 C1661.02439,2973.80762 1657.7033,2974.71174 1655.35791,2976.52002 C1653.01252,2978.3283 1651.83984,2980.6647 1651.83984,2983.5293 C1651.83984,2986.17905 1653.06623,2988.35432 1655.51904,2990.05518 C1657.97185,2991.75603 1662.20602,2993.55533 1668.22168,2995.45312 C1676.85128,2997.85223 1683.395,3001.02114 1687.85303,3004.95996 C1692.31106,3008.89878 1694.54004,3014.07288 1694.54004,3020.48242 C1694.54004,3027.17842 1691.89033,3032.45994 1686.59082,3036.32715 C1681.29131,3040.19436 1674.30896,3042.12793 1665.64355,3042.12793 C1659.44886,3042.12793 1653.85403,3041.14324 1648.85889,3039.17383 C1643.86374,3037.20442 1639.70119,3034.48309 1636.37109,3031.00977 L1636.37109,3014.68164 L1648.50977,3014.68164 L1650.1748,3025.7998 C1651.75033,3027.08887 1653.8898,3028.15413 1656.59326,3028.99561 C1659.29673,3029.83708 1662.31346,3030.25781 1665.64355,3030.25781 C1669.94045,3030.25781 1673.20783,3029.38054 1675.4458,3027.62598 C1677.68377,3025.87141 1678.80273,3023.52606 1678.80273,3020.58984 C1678.80273,3017.58202 1677.73748,3015.16505 1675.60693,3013.33887 C1673.47639,3011.51269 1669.74352,3009.79395 1664.4082,3008.18262 C1655.13407,3005.49706 1648.11591,3002.31024 1643.35352,2998.62207 C1638.59112,2994.9339 1636.20996,2989.88512 1636.20996,2983.47559 C1636.20996,2977.13766 1638.89548,2971.95461 1644.2666,2967.92627 C1649.63772,2963.89793 1656.38733,2961.83008 1664.51562,2961.72266 C1670.53128,2961.72266 1676.00974,2962.63573 1680.95117,2964.46191 C1685.8926,2966.2881 1690.04621,2968.72297 1693.41211,2971.7666 L1693.41211,2987.77246 Z M1769.57422,2962.79688 L1769.57422,2983.63672 L1757.54297,2983.63672 L1756.89844,2974.88184 L1742.50391,2974.88184 L1742.50391,3029.98926 L1750.88281,3031.60059 L1750.88281,3041 L1718.44141,3041 L1718.44141,3031.60059 L1726.82031,3029.98926 L1726.82031,2974.88184 L1712.47949,2974.88184 L1711.83496,2983.63672 L1699.85742,2983.63672 L1699.85742,2962.79688 L1769.57422,2962.79688 Z M1825.16504,3006.625 L1798.68555,3006.625 L1798.68555,3028.96875 L1823.92969,3028.96875 L1824.62793,3019.62305 L1836.55176,3019.62305 L1836.55176,3041 L1774.67676,3041 L1774.67676,3031.60059 L1783.00195,3029.98926 L1783.00195,2973.86133 L1774.67676,2972.25 L1774.67676,2962.79688 L1836.44434,2962.79688 L1836.44434,2984.22754 L1824.41309,2984.22754 L1823.71484,2974.88184 L1798.68555,2974.88184 L1798.68555,2994.54004 L1825.16504,2994.54004 L1825.16504,3006.625 Z M1882.15234,2962.79688 C1891.10421,2962.79688 1898.16713,2965.09747 1903.34131,2969.69873 C1908.51549,2974.29999 1911.10254,2980.32451 1911.10254,2987.77246 C1911.10254,2995.25622 1908.51549,3001.27179 1903.34131,3005.81934 C1898.16713,3010.36688 1891.10421,3012.64062 1882.15234,3012.64062 L1868.93945,3012.64062 L1868.93945,3029.98926 L1877.31836,3031.60059 L1877.31836,3041 L1844.93066,3041 L1844.93066,3031.60059 L1853.25586,3029.98926 L1853.25586,2973.86133 L1844.93066,2972.25 L1844.93066,2962.79688 L1882.15234,2962.79688 Z M1868.93945,3000.55566 L1882.15234,3000.55566 C1886.52086,3000.55566 1889.82404,2999.36508 1892.06201,2996.98389 C1894.29998,2994.60269 1895.41895,2991.56805 1895.41895,2987.87988 C1895.41895,2984.1201 1894.29998,2981.01385 1892.06201,2978.56104 C1889.82404,2976.10822 1886.52086,2974.88184 1882.15234,2974.88184 L1868.93945,2974.88184 L1868.93945,3000.55566 Z M1943.54395,3031.60059 L1956.75684,3029.98926 L1956.75684,2977.03027 L1943.38281,2977.03027 L1943.38281,2968.06055 L1972.38672,2962.79688 L1972.38672,3029.98926 L1985.59961,3031.60059 L1985.59961,3041 L1943.54395,3041 L1943.54395,3031.60059 Z" id="STEP-1"></path>
                </g>
            </g>
        </g>
    </g>
</svg>