<svg width="200" height="46" viewBox="0 0 200 46" fill="none" xmlns="http://www.w3.org/2000/svg">
<g clip-path="url(#clip0_1607_41847)">
<path d="M15.1686 7.1792C18.0199 7.1792 20.5038 7.7408 22.6203 8.864C24.7368 9.9872 26.3829 11.6424 27.5587 13.8297C28.7346 16.017 29.3225 18.6625 29.3225 21.766V38.7471H22.1794V31.2985H8.06956V38.7471H1.01465V21.766C1.01465 18.6625 1.60256 16.017 2.77838 13.8297C3.95419 11.6424 5.60034 9.9872 7.71681 8.864C9.83328 7.7408 12.3172 7.1792 15.1686 7.1792ZM22.1794 25.5347V21.101C22.1794 18.5294 21.5474 16.5934 20.2834 15.2928C19.0194 13.9627 17.2997 13.2977 15.1245 13.2977C12.9198 13.2977 11.1855 13.9627 9.92147 15.2928C8.68686 16.5934 8.06956 18.5294 8.06956 21.101V25.5347H22.1794Z" fill="#3D8FEC"/>
<path d="M66.2681 14.5391C69.237 14.5391 71.5886 15.4259 73.323 17.1993C75.0867 18.9433 75.9686 21.5739 75.9686 25.0913V38.7471H69.09V26.1554C69.09 24.2637 68.6932 22.8597 67.8995 21.9434C67.1352 20.9975 66.0329 20.5246 64.5925 20.5246C62.9758 20.5246 61.6971 21.0566 60.7564 22.1207C59.8158 23.1553 59.3454 24.7071 59.3454 26.7761V38.7471H52.4669V26.1554C52.4669 22.4015 50.9677 20.5246 47.9694 20.5246C46.382 20.5246 45.118 21.0566 44.1774 22.1207C43.2367 23.1553 42.7664 24.7071 42.7664 26.7761V38.7471H35.8879V14.8938H42.4577V17.6427C43.3396 16.6377 44.4125 15.8692 45.6765 15.3372C46.9699 14.8051 48.3809 14.5391 49.9095 14.5391C51.585 14.5391 53.0989 14.879 54.4511 15.5589C55.8033 16.2091 56.8909 17.1698 57.714 18.4408C58.684 17.1993 59.9039 16.2387 61.3737 15.5589C62.8729 14.879 64.5043 14.5391 66.2681 14.5391Z" fill="#3D8FEC"/>
<path d="M119.157 14.8919V28.06C119.157 31.5773 118.202 34.2967 116.291 36.2179C114.38 38.1392 111.661 39.0998 108.134 39.0998C106.429 39.0998 104.915 38.8338 103.592 38.3018C102.299 37.7697 101.211 36.9126 100.329 35.7302C99.4474 36.9126 98.3598 37.7697 97.0664 38.3018C95.773 38.8338 94.2444 39.0998 92.4807 39.0998C88.9238 39.0998 86.2047 38.1392 84.3234 36.2179C82.4421 34.2967 81.5015 31.5773 81.5015 28.06V14.8919H88.38V27.5279C88.38 29.5083 88.718 30.9714 89.3941 31.9173C90.0702 32.8336 91.1285 33.2917 92.5688 33.2917C94.0386 33.2917 95.1263 32.8188 95.8317 31.8729C96.5372 30.9271 96.89 29.4787 96.89 27.5279V14.8919H103.769V27.5279C103.769 29.4787 104.121 30.9271 104.827 31.8729C105.532 32.8188 106.62 33.2917 108.09 33.2917C109.53 33.2917 110.588 32.8336 111.264 31.9173C111.94 30.9714 112.278 29.5083 112.278 27.5279V14.8919H119.157Z" fill="#555555"/>
<path d="M136.627 39.0998C134.129 39.0998 131.88 38.5826 129.881 37.548C127.911 36.484 126.368 35.0208 125.251 33.1587C124.134 31.2965 123.576 29.1832 123.576 26.8185C123.576 24.4539 124.134 22.3405 125.251 20.4783C126.368 18.6162 127.911 17.1679 129.881 16.1333C131.88 15.0692 134.129 14.5372 136.627 14.5372C139.126 14.5372 141.36 15.0692 143.329 16.1333C145.299 17.1679 146.842 18.6162 147.959 20.4783C149.076 22.3405 149.635 24.4539 149.635 26.8185C149.635 29.1832 149.076 31.2965 147.959 33.1587C146.842 35.0208 145.299 36.484 143.329 37.548C141.36 38.5826 139.126 39.0998 136.627 39.0998ZM136.627 33.4247C138.391 33.4247 139.831 32.8336 140.948 31.6512C142.095 30.4394 142.668 28.8285 142.668 26.8185C142.668 24.8086 142.095 23.2125 140.948 22.0301C139.831 20.8183 138.391 20.2123 136.627 20.2123C134.863 20.2123 133.408 20.8183 132.262 22.0301C131.116 23.2125 130.542 24.8086 130.542 26.8185C130.542 28.8285 131.116 30.4394 132.262 31.6512C133.408 32.8336 134.863 33.4247 136.627 33.4247Z" fill="#555555"/>
<path d="M160.802 18.0398C161.625 16.8871 162.728 16.0151 164.109 15.4239C165.52 14.8328 167.137 14.5372 168.96 14.5372V20.9217C168.195 20.8626 167.681 20.833 167.416 20.833C165.447 20.833 163.904 21.3946 162.787 22.5178C161.669 23.6115 161.111 25.2667 161.111 27.4836V38.7451H154.232V14.8919H160.802V18.0398Z" fill="#555555"/>
<path d="M183.235 29.3901L179.928 32.671V38.7451H173.05V5.84717H179.928V24.4687L189.981 14.8919H198.183L188.306 25.0007L199.065 38.7451H190.731L183.235 29.3901Z" fill="#555555"/>
</g>
<defs>
<clipPath id="clip0_1607_41847">
<rect width="199" height="46" fill="white" transform="translate(0.5)"/>
</clipPath>
</defs>
</svg>
